<svg xmlns="http://www.w3.org/2000/svg" xmlns:xlink="http://www.w3.org/1999/xlink" viewBox="0 0 326.99 333.51"><defs><style>.cls-1{fill:url(#linear-gradient);}.cls-2{fill:#fff;}.cls-3{fill:url(#linear-gradient-2);}.cls-4{fill:#231f20;}.cls-5{fill:url(#linear-gradient-3);}.cls-6{fill:url(#linear-gradient-4);}.cls-7{fill:url(#linear-gradient-5);}</style><linearGradient id="linear-gradient" x1="74.96" y1="311.58" x2="251.03" y2="18.85" gradientUnits="userSpaceOnUse"><stop offset="0.1" stop-color="#4254a3"/><stop offset="0.31" stop-color="#4579bd"/><stop offset="0.5" stop-color="#4791ce"/><stop offset="0.61" stop-color="#489ad4"/><stop offset="0.69" stop-color="#45a3a5"/><stop offset="0.78" stop-color="#43aa7d"/><stop offset="0.86" stop-color="#41b061"/><stop offset="0.93" stop-color="#40b34f"/><stop offset="0.98" stop-color="#40b449"/></linearGradient><linearGradient id="linear-gradient-2" x1="130.85" y1="183.53" x2="194.8" y2="119.58" xlink:href="#linear-gradient"/><linearGradient id="linear-gradient-3" x1="202.68" y1="377.62" x2="275.4" y2="293.69" gradientTransform="translate(-32.41 -95.74) rotate(-8.8)" gradientUnits="userSpaceOnUse"><stop offset="0.25" stop-color="#76777a"/><stop offset="0.29" stop-color="#808083"/><stop offset="0.52" stop-color="#b6b7b8"/><stop offset="0.72" stop-color="#dededf"/><stop offset="0.88" stop-color="#f6f6f6"/><stop offset="0.98" stop-color="#fff"/></linearGradient><linearGradient id="linear-gradient-4" x1="44.77" y1="278.93" x2="97.8" y2="383.3" xlink:href="#linear-gradient-3"/><linearGradient id="linear-gradient-5" x1="-1111.55" y1="856" x2="-1038.82" y2="772.07" gradientTransform="translate(-1176.91 -206.94) rotate(-131.05)" xlink:href="#linear-gradient-3"/></defs><g id="Center_graphic" data-name="Center graphic"><circle class="cls-1" cx="162.7" cy="165.7" r="155.66"/><circle class="cls-2" cx="162.7" cy="168.11" r="69.95"/><path class="cls-3" d="M181,171.52H127.11c-12.67,0-19.51-10.18-19.51-19.76a19.25,19.25,0,0,1,5-13.23,18.7,18.7,0,0,1,10.78-5.6,17.59,17.59,0,0,1,4.19-6.66,18.92,18.92,0,0,1,9.73-5.17v-.3l4.89-.12.91,0c4.91-8.52,13-13.39,22.41-13.39a25.92,25.92,0,0,1,2.64.13l2.54.4a24.88,24.88,0,0,1,2.59.68l1.18.44.45.16,1.14.55A24.88,24.88,0,0,1,189.39,125c11.84,1.92,20.88,7.65,24.85,15.79,4.32,8.84,3.18,22-5.38,27.49-4.48,2.86-14.39,3.25-23.49,3.25Z"/><path class="cls-2" d="M165.54,108.34a23.55,23.55,0,0,1,2.53.13l2.49.39a24.25,24.25,0,0,1,2.44.64l.89.33c.21.09.47.17.67.25l.07,0,1,.49a24.06,24.06,0,0,1,13,15.29c11,1.65,20.55,6.78,24.72,15.33,4.28,8.77,2.93,21.12-5,26.21-4.46,2.86-15.12,3.1-22.95,3.1H127.11c-12,0-18.51-9.67-18.51-18.76a18.27,18.27,0,0,1,4.76-12.55,17.8,17.8,0,0,1,10.81-5.38,16.59,16.59,0,0,1,4.14-6.85,17.81,17.81,0,0,1,10-5v-.16l3.8-.1h.1l.34,0c.38,0,.76,0,1.13.06,5.26-9.59,13.91-13.42,21.84-13.42m0-2c-9.55,0-17.85,4.85-23,13.36l-.21,0h-.29l-3.8.1-1.95,0v.47a19.76,19.76,0,0,0-9.44,5.27,18.87,18.87,0,0,0-4.23,6.48,19.55,19.55,0,0,0-10.76,5.8,20.19,20.19,0,0,0-5.3,13.91,21.62,21.62,0,0,0,5.24,14.11,19.65,19.65,0,0,0,15.27,6.65h58.26c9.71,0,19.34-.41,24-3.41,4.2-2.69,7-7.34,8-13.09a26.62,26.62,0,0,0-2.25-15.68c-4-8.3-13.11-14.17-25-16.24a25.82,25.82,0,0,0-13.65-15.32l-1-.48h0l-.17-.07-.49-.19-.23-.08-.89-.33,0,0h0a24.35,24.35,0,0,0-2.65-.7h-.11l-2.49-.39h-.1a25.14,25.14,0,0,0-2.74-.14Z"/><path class="cls-2" d="M119.8,153.12h5v1.19h-3.66v1.59h3.27v1.18h-3.27v1.58h3.66v1.2h-5Z"/><path class="cls-2" d="M125.72,154.76H127v.57a1.91,1.91,0,0,1,.66-.48,2.19,2.19,0,0,1,.9-.18,2.38,2.38,0,0,1,1.08.25,1.92,1.92,0,0,1,.81.71,1.88,1.88,0,0,1,.31,1.08v3.15h-1.3V157a1.32,1.32,0,0,0-.15-.64,1.06,1.06,0,0,0-.42-.42,1.2,1.2,0,0,0-.59-.14,1.25,1.25,0,0,0-.68.18,1.23,1.23,0,0,0-.46.5,1.51,1.51,0,0,0-.16.71v2.63h-1.3Z"/><path class="cls-2" d="M134.16,159.94a2.52,2.52,0,0,1-1.3-.36,2.7,2.7,0,0,1-1-1,2.47,2.47,0,0,1-.36-1.3,2.67,2.67,0,0,1,1.31-2.29,2.62,2.62,0,0,1,1.31-.35,2.31,2.31,0,0,1,.89.17,2.08,2.08,0,0,1,.7.48v-2.2H137v6.74h-1.29v-.55a2.18,2.18,0,0,1-.7.46A2.31,2.31,0,0,1,134.16,159.94Zm.13-1.13a1.45,1.45,0,0,0,.76-.21,1.51,1.51,0,0,0,.57-.55,1.35,1.35,0,0,0,0-1.48,1.61,1.61,0,0,0-.57-.56,1.54,1.54,0,0,0-.76-.2,1.51,1.51,0,0,0-.78.2,1.39,1.39,0,0,0-.55.55,1.51,1.51,0,0,0,0,1.5,1.43,1.43,0,0,0,.55.54A1.47,1.47,0,0,0,134.29,158.81Z"/><path class="cls-2" d="M138.1,154.76h1.29v.55a2.1,2.1,0,0,1,.7-.47,2.26,2.26,0,0,1,.88-.16,2.47,2.47,0,0,1,1.3.36,2.6,2.6,0,0,1,1,1,2.51,2.51,0,0,1,.36,1.31,2.59,2.59,0,0,1-1.31,2.28,2.6,2.6,0,0,1-1.31.35,2.26,2.26,0,0,1-.88-.17,2,2,0,0,1-.7-.48v2.59H138.1Zm2.75,4.05a1.53,1.53,0,0,0,1.33-.75,1.51,1.51,0,0,0,0-1.5,1.61,1.61,0,0,0-.55-.55,1.56,1.56,0,0,0-.78-.2,1.58,1.58,0,0,0-.77.2,1.79,1.79,0,0,0-.57.56,1.41,1.41,0,0,0,0,1.48,1.66,1.66,0,0,0,.57.55A1.49,1.49,0,0,0,140.85,158.81Z"/><path class="cls-2" d="M146.9,159.94a2.66,2.66,0,0,1-1.36-.36,2.71,2.71,0,0,1-1-1,2.58,2.58,0,0,1,0-2.63,2.58,2.58,0,0,1,1-.95,2.75,2.75,0,0,1,3.71,1,2.51,2.51,0,0,1,.36,1.31,2.57,2.57,0,0,1-.36,1.32,2.84,2.84,0,0,1-1,1A2.69,2.69,0,0,1,146.9,159.94Zm0-1.15a1.51,1.51,0,0,0,.76-.2,1.58,1.58,0,0,0,.55-.54,1.48,1.48,0,0,0-.55-2,1.42,1.42,0,0,0-.76-.2,1.49,1.49,0,0,0-.76.2,1.61,1.61,0,0,0-.55.55,1.44,1.44,0,0,0-.2.74,1.5,1.5,0,0,0,.2.75,1.58,1.58,0,0,0,.55.54A1.51,1.51,0,0,0,146.9,158.79Z"/><path class="cls-2" d="M151.14,154.21a.82.82,0,0,1-.58-.23.72.72,0,0,1-.24-.55.74.74,0,0,1,.24-.56.81.81,0,0,1,.58-.22.82.82,0,0,1,.58.22.77.77,0,0,1,.23.56.75.75,0,0,1-.23.55A.83.83,0,0,1,151.14,154.21Zm-.66.55h1.29v5.1h-1.29Z"/><path class="cls-2" d="M152.85,154.76h1.3v.57a1.91,1.91,0,0,1,.66-.48,2.19,2.19,0,0,1,.9-.18,2.38,2.38,0,0,1,1.08.25,2,2,0,0,1,.82.71,2,2,0,0,1,.3,1.08v3.15h-1.3V157a1.32,1.32,0,0,0-.15-.64A1.06,1.06,0,0,0,156,156a1.2,1.2,0,0,0-.59-.14,1.25,1.25,0,0,0-.68.18,1.23,1.23,0,0,0-.46.5,1.51,1.51,0,0,0-.16.71v2.63h-1.3Z"/><path class="cls-2" d="M162.31,159.82a3.35,3.35,0,0,1-1.48.11,1.74,1.74,0,0,1-1.05-.56,1.78,1.78,0,0,1-.38-1.18v-2.35h-.95v-1.08h.95v-1.2h1.28v1.2h1.56v1.08h-1.56v2.34a.54.54,0,0,0,.18.41.81.81,0,0,0,.55.19,2.17,2.17,0,0,0,.9-.17Z"/><path class="cls-2" d="M168.56,159.94a5,5,0,0,1-1.44-.25,5.71,5.71,0,0,1-1.38-.68v-1.34a8,8,0,0,0,1.47.77,4,4,0,0,0,1.42.28,1.93,1.93,0,0,0,.63-.08.86.86,0,0,0,.41-.26.56.56,0,0,0,.15-.39.72.72,0,0,0-.43-.59,6.1,6.1,0,0,0-1.43-.48,5.11,5.11,0,0,1-1.28-.45,2.09,2.09,0,0,1-.73-.63,1.46,1.46,0,0,1-.24-.82,1.66,1.66,0,0,1,.34-1,2.26,2.26,0,0,1,.92-.7,3.28,3.28,0,0,1,1.28-.25,4.52,4.52,0,0,1,1.46.22,7.1,7.1,0,0,1,1.17.49v1.33a5.9,5.9,0,0,0-1.29-.6,4.27,4.27,0,0,0-1.34-.24,2,2,0,0,0-.62.09,1,1,0,0,0-.43.26.61.61,0,0,0-.15.41.47.47,0,0,0,.2.39,1.93,1.93,0,0,0,.52.27c.21.07.51.15.88.24l.14,0,.15,0a3.41,3.41,0,0,1,1.71.82,1.75,1.75,0,0,1,.5,1.21,1.63,1.63,0,0,1-.36,1.07,2.16,2.16,0,0,1-.94.67A3.88,3.88,0,0,1,168.56,159.94Z"/><path class="cls-2" d="M174.5,159.94a2.73,2.73,0,0,1-1.38-.36,2.58,2.58,0,0,1-1-1,2.53,2.53,0,0,1-.36-1.31,2.47,2.47,0,0,1,.37-1.33,2.61,2.61,0,0,1,1-1,2.78,2.78,0,0,1,1.36-.35,2.58,2.58,0,0,1,1.2.28,2.65,2.65,0,0,1,1,.77,2.52,2.52,0,0,1,.5,1.09,2.08,2.08,0,0,1,0,1h-4.1a1.26,1.26,0,0,0,.28.58,1.22,1.22,0,0,0,.5.36,1.76,1.76,0,0,0,.66.12,2.15,2.15,0,0,0,.74-.14,1.68,1.68,0,0,0,.61-.39l1.13.3a2.29,2.29,0,0,1-1,1A3.07,3.07,0,0,1,174.5,159.94Zm1.4-3.12a1.36,1.36,0,0,0-.27-.52,1.29,1.29,0,0,0-.48-.38,1.65,1.65,0,0,0-1.33,0,1.25,1.25,0,0,0-.49.38,1.36,1.36,0,0,0-.27.52Z"/><path class="cls-2" d="M180.55,159.94a2.72,2.72,0,0,1-2.36-1.32,2.53,2.53,0,0,1-.36-1.31,2.47,2.47,0,0,1,.37-1.33,2.68,2.68,0,0,1,1-1,2.78,2.78,0,0,1,1.36-.35,2.62,2.62,0,0,1,1.52.46,2.56,2.56,0,0,1,1,1.21l-1.19.31a1.42,1.42,0,0,0-.52-.62,1.4,1.4,0,0,0-.78-.23,1.51,1.51,0,0,0-.76.2,1.64,1.64,0,0,0-.55.56,1.51,1.51,0,0,0,0,1.5,1.61,1.61,0,0,0,.55.55,1.51,1.51,0,0,0,.76.2,1.41,1.41,0,0,0,.79-.23,1.46,1.46,0,0,0,.51-.62l1.19.32a2.54,2.54,0,0,1-1,1.2A2.58,2.58,0,0,1,180.55,159.94Z"/><path class="cls-2" d="M186.09,160a2.52,2.52,0,0,1-1.08-.25,2,2,0,0,1-.81-.72,1.82,1.82,0,0,1-.31-1.07v-3.15h1.3v2.82a1.28,1.28,0,0,0,.15.63,1.09,1.09,0,0,0,.43.42,1.14,1.14,0,0,0,.58.15,1.25,1.25,0,0,0,.68-.18,1.23,1.23,0,0,0,.46-.5,1.52,1.52,0,0,0,.17-.71v-2.63H189v5.1h-1.29v-.58a2.11,2.11,0,0,1-.67.49A2.16,2.16,0,0,1,186.09,160Z"/><path class="cls-2" d="M190,154.76h1.29v.76a1.62,1.62,0,0,1,.75-.66,2.18,2.18,0,0,1,1.22-.12v1.34a1.79,1.79,0,0,0-.94-.07,1.36,1.36,0,0,0-.75.44,1.24,1.24,0,0,0-.28.81v2.6H190Z"/><path class="cls-2" d="M194.79,154.21a.81.81,0,0,1-.57-.23.72.72,0,0,1-.24-.55.74.74,0,0,1,.24-.56.86.86,0,0,1,1.15,0,.74.74,0,0,1,.24.56.72.72,0,0,1-.24.55A.82.82,0,0,1,194.79,154.21Zm-.65.55h1.28v5.1h-1.28Z"/><path class="cls-2" d="M200.14,159.82a3.34,3.34,0,0,1-1.48.11,1.69,1.69,0,0,1-1-.56,1.73,1.73,0,0,1-.39-1.18v-2.35h-1v-1.08h1v-1.2h1.28v1.2h1.56v1.08h-1.56v2.34a.54.54,0,0,0,.18.41.84.84,0,0,0,.56.19,2.16,2.16,0,0,0,.89-.17Z"/><path class="cls-2" d="M202.77,159.83l-2.18-5.07H202l1.48,3.64,1.39-3.64h1.37l-2.93,7.12h-1.34Z"/><path class="cls-2" d="M167.58,140.07V132H156.35v8.09h3.78v.85h-.92v1.58h5.5v-1.58h-.92v-.85ZM166,133.55v4.95h-8.08v-4.95Zm9.49,10.06a2.33,2.33,0,0,0-.59.08l-2-2a11.74,11.74,0,0,0,1.19-5.18,12,12,0,0,0-10.79-11.89V122.5a2,2,0,1,0-2.23,0v2.15a11.92,11.92,0,0,0-10.89,11.89,11.77,11.77,0,0,0,1.19,5.18l-2,2a2.33,2.33,0,0,0-.59-.08,2.27,2.27,0,1,0,2.17,1.67l1.58-1.58a12,12,0,0,0,19.15,0l1.58,1.58a2.25,2.25,0,1,0,2.17-1.67Zm-3.6-7.07a9.73,9.73,0,1,1-9.72-9.72A9.73,9.73,0,0,1,171.89,136.54Z"/><path d="M127.08,179.86h1.19v7h-1.19Z"/><path d="M129.42,181.56h1.14v.7a1.87,1.87,0,0,1,.7-.57,2,2,0,0,1,1-.22,2.28,2.28,0,0,1,1.09.26,2,2,0,0,1,1.13,1.88v3.25h-1.15v-3a1.51,1.51,0,0,0-.17-.73,1.28,1.28,0,0,0-.47-.48,1.35,1.35,0,0,0-.66-.17,1.36,1.36,0,0,0-1.25.79,1.8,1.8,0,0,0-.18.82v2.72h-1.14Z"/><path d="M138.8,186.82a3.33,3.33,0,0,1-1.45.09,1.57,1.57,0,0,1-1-.56,1.87,1.87,0,0,1-.36-1.2v-2.6h-1v-1h1v-1.32h1.13v1.32h1.63v1h-1.63v2.59a.73.73,0,0,0,.19.51.87.87,0,0,0,.57.22,2.29,2.29,0,0,0,.92-.17Z"/><path d="M142.05,186.94a2.68,2.68,0,0,1-1.37-.37,2.79,2.79,0,0,1-1-1,2.73,2.73,0,0,1-.36-1.38,2.73,2.73,0,0,1,1.36-2.36,2.71,2.71,0,0,1,1.36-.36,2.6,2.6,0,0,1,1.23.3,2.76,2.76,0,0,1,.95.81,2.57,2.57,0,0,1,.49,1.15,2.23,2.23,0,0,1,0,.89h-4.27a1.6,1.6,0,0,0,.3.69,1.37,1.37,0,0,0,.56.45,1.77,1.77,0,0,0,.73.15,1.91,1.91,0,0,0,.82-.17,1.85,1.85,0,0,0,.65-.47l1,.26a2.31,2.31,0,0,1-1,1A2.94,2.94,0,0,1,142.05,186.94Zm1.55-3.2a1.49,1.49,0,0,0-.28-.63,1.55,1.55,0,0,0-1.28-.63,1.64,1.64,0,0,0-.74.17,1.56,1.56,0,0,0-.55.46,1.51,1.51,0,0,0-.29.63Z"/><path d="M148.28,189.15a3.11,3.11,0,0,1-1.13-.22,2.42,2.42,0,0,1-.94-.67,2.37,2.37,0,0,1-.55-1.11h1.14a1.41,1.41,0,0,0,.35.55,1.42,1.42,0,0,0,.53.31,2,2,0,0,0,.59.1,1.61,1.61,0,0,0,.76-.18,1.29,1.29,0,0,0,.53-.53,2,2,0,0,0,.2-.92V186a2,2,0,0,1-.73.56,2.38,2.38,0,0,1-1,.19,2.66,2.66,0,0,1-1.35-.34,2.57,2.57,0,0,1-.95-1,2.83,2.83,0,0,1-.34-1.36,2.7,2.7,0,0,1,.35-1.36,2.48,2.48,0,0,1,1-.95,2.64,2.64,0,0,1,1.34-.34,2.06,2.06,0,0,1,1,.21,2,2,0,0,1,.74.58v-.7h1.14v4.88a2.92,2.92,0,0,1-.35,1.46,2.42,2.42,0,0,1-1,.93A2.8,2.8,0,0,1,148.28,189.15Zm-.13-3.38a1.75,1.75,0,0,0,.84-.22,1.7,1.7,0,0,0,.62-.6,1.66,1.66,0,0,0,0-1.65,1.71,1.71,0,0,0-2.3-.6,1.72,1.72,0,0,0-.6.6,1.56,1.56,0,0,0-.23.82,1.6,1.6,0,0,0,.23.84,1.57,1.57,0,0,0,.61.59A1.69,1.69,0,0,0,148.15,185.77Z"/><path d="M152,181.56h1.14v.88a1.66,1.66,0,0,1,.78-.77,2.07,2.07,0,0,1,1.26-.14v1.23a1.68,1.68,0,0,0-1,0,1.4,1.4,0,0,0-.76.5,1.49,1.49,0,0,0-.29.93v2.7H152Z"/><path d="M157.77,186.94a2.47,2.47,0,0,1-1.37-.39,1.39,1.39,0,0,1-.6-1.24,1.6,1.6,0,0,1,.24-.91,1.54,1.54,0,0,1,.75-.55,3.27,3.27,0,0,1,1.2-.2h1.61v-.33a.75.75,0,0,0-.36-.67,2.14,2.14,0,0,0-1.76,0,.78.78,0,0,0-.44.54l-1.1,0a1.48,1.48,0,0,1,.33-.92,2.1,2.1,0,0,1,.85-.59,3.14,3.14,0,0,1,1.16-.2,3.09,3.09,0,0,1,1.2.21,2.09,2.09,0,0,1,.88.6,1.42,1.42,0,0,1,.32.91v3.67H159.6v-.8a2,2,0,0,1-.68.59A2.16,2.16,0,0,1,157.77,186.94Zm.09-1a1.72,1.72,0,0,0,.83-.2,1.87,1.87,0,0,0,.66-.55,1.23,1.23,0,0,0,.25-.75h-1.41a1.9,1.9,0,0,0-.73.11.84.84,0,0,0-.41.31.69.69,0,0,0-.11.44.62.62,0,0,0,.31.49A1.2,1.2,0,0,0,157.86,186Z"/><path d="M165.12,186.82a3.33,3.33,0,0,1-1.45.09,1.57,1.57,0,0,1-1-.56,1.87,1.87,0,0,1-.36-1.2v-2.6h-1v-1h1v-1.32h1.13v1.32h1.63v1h-1.63v2.59a.73.73,0,0,0,.19.51.87.87,0,0,0,.57.22,2.29,2.29,0,0,0,.92-.17Z"/><path d="M168.37,186.94a2.68,2.68,0,0,1-1.37-.37,2.79,2.79,0,0,1-1-1,2.73,2.73,0,0,1-.36-1.38,2.73,2.73,0,0,1,1.36-2.36,2.71,2.71,0,0,1,1.36-.36,2.6,2.6,0,0,1,1.23.3,2.76,2.76,0,0,1,1,.81,2.57,2.57,0,0,1,.49,1.15,2.23,2.23,0,0,1,0,.89h-4.27a1.6,1.6,0,0,0,.3.69,1.37,1.37,0,0,0,.56.45,1.77,1.77,0,0,0,.73.15,1.91,1.91,0,0,0,.82-.17,1.85,1.85,0,0,0,.65-.47l1,.26a2.31,2.31,0,0,1-1,1A2.94,2.94,0,0,1,168.37,186.94Zm1.55-3.2a1.49,1.49,0,0,0-.28-.63,1.55,1.55,0,0,0-1.28-.63,1.64,1.64,0,0,0-.74.17,1.56,1.56,0,0,0-.55.46,1.51,1.51,0,0,0-.29.63Z"/><path d="M174.37,186.94a2.49,2.49,0,0,1-1.32-.37,2.79,2.79,0,0,1-1-1,2.81,2.81,0,0,1,0-2.75,2.6,2.6,0,0,1,2.28-1.35,2.19,2.19,0,0,1,1,.21,2,2,0,0,1,.74.59v-2.41h1.14v7h-1.14v-.71a2.12,2.12,0,0,1-.74.58A2.19,2.19,0,0,1,174.37,186.94Zm.1-1a1.58,1.58,0,0,0,.85-.24,1.66,1.66,0,0,0,.83-1.46,1.65,1.65,0,0,0-.22-.84,1.9,1.9,0,0,0-.61-.62,1.57,1.57,0,0,0-.85-.23,1.62,1.62,0,0,0-.84.22,1.75,1.75,0,0,0-.61.63,1.72,1.72,0,0,0-.22.84,1.76,1.76,0,0,0,.22.85,1.67,1.67,0,0,0,.6.61A1.58,1.58,0,0,0,174.47,185.9Z"/><path d="M183.28,183.36l-2.38-3.5h1.38l1.85,2.79,1.87-2.79h1.38l-2.39,3.5,2.39,3.5H186l-1.87-2.8-1.85,2.8H180.9Z"/><path d="M188.17,179.85h2.49a3.55,3.55,0,0,1,1.8.46,3.35,3.35,0,0,1,1.3,1.26,3.59,3.59,0,0,1,0,3.57,3.26,3.26,0,0,1-1.29,1.26,3.65,3.65,0,0,1-1.82.46h-2.49Zm2.49,5.91a2.46,2.46,0,0,0,1.26-.32,2.25,2.25,0,0,0,.86-.87,2.47,2.47,0,0,0,.3-1.21,2.49,2.49,0,0,0-.31-1.25,2.13,2.13,0,0,0-.86-.85,2.54,2.54,0,0,0-1.25-.31h-1.3v4.81Z"/><path d="M195.15,179.86h3a2.34,2.34,0,0,1,1.21.31,2.28,2.28,0,0,1,1.15,2,2.15,2.15,0,0,1-.73,1.65,2.1,2.1,0,0,1-.79.43l1.61,2.62h-1.28l-1.51-2.47h-1.5v2.47h-1.19Zm3,3.5a1.25,1.25,0,0,0,.9-.35,1.15,1.15,0,0,0,.36-.87,1.2,1.2,0,0,0-.33-.86,1.15,1.15,0,0,0-.88-.35h-1.84v2.43Z"/><path d="M130.16,191.86h2l2,6.23,2-6.23h2v7h-1.14v-6l-1.9,6h-1.8l-1.89-6v6h-1.14Z"/><path d="M139.14,191.85h2.49a3.6,3.6,0,0,1,1.8.46,3.44,3.44,0,0,1,1.78,3.05,3.51,3.51,0,0,1-.47,1.78,3.35,3.35,0,0,1-1.3,1.26,3.61,3.61,0,0,1-1.81.46h-2.49Zm2.49,5.91a2.51,2.51,0,0,0,1.26-.32,2.22,2.22,0,0,0,.85-.87,2.37,2.37,0,0,0,.31-1.21,2.6,2.6,0,0,0-.31-1.25,2.26,2.26,0,0,0-.86-.85,2.6,2.6,0,0,0-1.25-.31h-1.3v4.81Z"/><path d="M146.12,191.86h3a2.37,2.37,0,0,1,1.21.31,2.34,2.34,0,0,1,1.15,2,2.2,2.2,0,0,1-.74,1.65,2.13,2.13,0,0,1-.78.43l1.61,2.62h-1.28l-1.51-2.47h-1.5v2.47h-1.19Zm3,3.5a1.25,1.25,0,0,0,.9-.35,1.15,1.15,0,0,0,.36-.87,1.17,1.17,0,0,0-.34-.86,1.12,1.12,0,0,0-.87-.35h-1.84v2.43Z"/><path d="M157.34,198.94a3.55,3.55,0,0,1-1.12-.18,5.21,5.21,0,0,1-1.08-.49v-1.2a3.65,3.65,0,0,0,1,.6,3,3,0,0,0,1.22.27,1.6,1.6,0,0,0,.51-.08.72.72,0,0,0,.34-.2.42.42,0,0,0,.13-.31.49.49,0,0,0-.31-.42,3.82,3.82,0,0,0-1-.33,3.79,3.79,0,0,1-1.45-.57,1.15,1.15,0,0,1-.46-1,1.3,1.3,0,0,1,.29-.86,1.73,1.73,0,0,1,.78-.55,3,3,0,0,1,1.07-.18,3.4,3.4,0,0,1,1.08.16,5.53,5.53,0,0,1,1,.43v1.05a5.35,5.35,0,0,0-1.07-.5,3.63,3.63,0,0,0-1-.16,1.59,1.59,0,0,0-.5.08.8.8,0,0,0-.35.21.44.44,0,0,0-.13.32.38.38,0,0,0,.21.34,2.65,2.65,0,0,0,.69.22l.28.07a2,2,0,0,1,.31.07,2.88,2.88,0,0,1,1.35.61,1.41,1.41,0,0,1-.2,2.17A2.81,2.81,0,0,1,157.34,198.94Z"/><path d="M162.8,198.94a2.74,2.74,0,0,1-1.38-.37,2.84,2.84,0,0,1-1-1,2.73,2.73,0,0,1-.36-1.38,2.71,2.71,0,0,1,2.72-2.72,2.6,2.6,0,0,1,1.23.3,2.85,2.85,0,0,1,.95.81,2.81,2.81,0,0,1,.49,1.15,2.43,2.43,0,0,1,0,.89h-4.27a1.48,1.48,0,0,0,.29.69,1.44,1.44,0,0,0,.56.45,1.81,1.81,0,0,0,.74.15,2,2,0,0,0,1.47-.64l1,.26a2.42,2.42,0,0,1-1,1A3,3,0,0,1,162.8,198.94Zm1.55-3.2a1.58,1.58,0,0,0-.82-1.09,1.64,1.64,0,0,0-.74-.17,1.69,1.69,0,0,0-.75.17,1.76,1.76,0,0,0-.55.46,1.49,1.49,0,0,0-.28.63Z"/><path d="M166.31,193.56h1.14v.88a1.6,1.6,0,0,1,.77-.77,2.09,2.09,0,0,1,1.27-.14v1.23a1.68,1.68,0,0,0-1,0,1.33,1.33,0,0,0-.76.5,1.44,1.44,0,0,0-.29.93v2.7h-1.14Z"/><path d="M170,193.56h1.22l1.47,4.64,1.46-4.64h1.23l-1.75,5.3h-1.88Z"/><path d="M176.85,192.9a.75.75,0,0,1-.53-.22.72.72,0,0,1-.21-.53.69.69,0,0,1,.21-.51.73.73,0,0,1,1.05,0,.74.74,0,0,1,0,1.05A.73.73,0,0,1,176.85,192.9Zm-.59.66h1.15v5.3h-1.15Z"/><path d="M181.11,198.94a2.65,2.65,0,0,1-1.38-.38,2.76,2.76,0,0,1-1-1,2.72,2.72,0,0,1,1-3.73,2.69,2.69,0,0,1,1.36-.36,2.56,2.56,0,0,1,1.52.47,2.69,2.69,0,0,1,1,1.25l-1.06.28a1.59,1.59,0,0,0-.58-.7,1.45,1.45,0,0,0-.86-.28,1.53,1.53,0,0,0-.84.24,1.7,1.7,0,0,0-.59.63,1.61,1.61,0,0,0-.22.83,1.71,1.71,0,0,0,.22.87,1.53,1.53,0,0,0,.6.61,1.6,1.6,0,0,0,.83.23,1.49,1.49,0,0,0,.87-.27,1.74,1.74,0,0,0,.57-.69l1.06.29a2.74,2.74,0,0,1-1,1.23A2.57,2.57,0,0,1,181.11,198.94Z"/><path d="M187,198.94a2.74,2.74,0,0,1-1.38-.37,2.84,2.84,0,0,1-1-1,2.73,2.73,0,0,1-.36-1.38,2.71,2.71,0,0,1,2.72-2.72,2.6,2.6,0,0,1,1.23.3,2.85,2.85,0,0,1,1,.81,2.81,2.81,0,0,1,.49,1.15,2.43,2.43,0,0,1,0,.89h-4.27a1.48,1.48,0,0,0,.29.69,1.44,1.44,0,0,0,.56.45,1.81,1.81,0,0,0,.74.15,2,2,0,0,0,1.47-.64l1,.26a2.42,2.42,0,0,1-1,1A3,3,0,0,1,187,198.94Zm1.55-3.2a1.58,1.58,0,0,0-.82-1.09,1.64,1.64,0,0,0-.74-.17,1.69,1.69,0,0,0-.75.17,1.76,1.76,0,0,0-.55.46,1.49,1.49,0,0,0-.28.63Z"/><path d="M192.68,198.94a3.55,3.55,0,0,1-1.12-.18,5.21,5.21,0,0,1-1.08-.49v-1.2a3.65,3.65,0,0,0,1,.6,3,3,0,0,0,1.22.27,1.6,1.6,0,0,0,.51-.08.72.72,0,0,0,.34-.2.42.42,0,0,0,.13-.31.49.49,0,0,0-.31-.42,3.82,3.82,0,0,0-1-.33,3.79,3.79,0,0,1-1.45-.57,1.15,1.15,0,0,1-.46-1,1.3,1.3,0,0,1,.29-.86,1.73,1.73,0,0,1,.78-.55,3,3,0,0,1,1.07-.18,3.4,3.4,0,0,1,1.08.16,5.53,5.53,0,0,1,1,.43v1.05a5.35,5.35,0,0,0-1.07-.5,3.63,3.63,0,0,0-1-.16,1.59,1.59,0,0,0-.5.08.8.8,0,0,0-.35.21.44.44,0,0,0-.13.32.38.38,0,0,0,.21.34,2.65,2.65,0,0,0,.69.22l.28.07a2,2,0,0,1,.31.07,2.88,2.88,0,0,1,1.35.61,1.41,1.41,0,0,1-.2,2.17A2.81,2.81,0,0,1,192.68,198.94Z"/><path d="M142.58,210.94a3.36,3.36,0,0,1-1.78-.49,3.45,3.45,0,0,1-1.3-1.3,3.51,3.51,0,0,1-.48-1.79,3.45,3.45,0,0,1,.48-1.79,3.55,3.55,0,0,1,1.3-1.31,3.54,3.54,0,0,1,3.56,0,3.6,3.6,0,0,1,1.29,1.31,3.45,3.45,0,0,1,.48,1.79,3.6,3.6,0,0,1-.47,1.79,3.5,3.5,0,0,1-1.29,1.3A3.4,3.4,0,0,1,142.58,210.94Zm0-1.12a2.18,2.18,0,0,0,1.21-.33,2.28,2.28,0,0,0,.85-.89,2.71,2.71,0,0,0,0-2.48,2.28,2.28,0,0,0-.85-.89,2.32,2.32,0,0,0-1.21-.33,2.32,2.32,0,0,0-2.06,1.22,2.62,2.62,0,0,0-.31,1.24,2.51,2.51,0,0,0,.31,1.24,2.19,2.19,0,0,0,.84.89A2.21,2.21,0,0,0,142.58,209.82Z"/><path d="M147,205.56h1.14v.7a2.22,2.22,0,0,1,.74-.58,2.25,2.25,0,0,1,1-.21,2.44,2.44,0,0,1,1.32.37,2.74,2.74,0,0,1,1,1,2.77,2.77,0,0,1,.35,1.35,2.83,2.83,0,0,1-.35,1.38,2.71,2.71,0,0,1-1,1,2.59,2.59,0,0,1-1.33.37,2.26,2.26,0,0,1-1-.22,2.22,2.22,0,0,1-.74-.58V213H147Zm2.75,4.34a1.66,1.66,0,0,0,.85-.22,1.71,1.71,0,0,0,.82-1.49,1.71,1.71,0,0,0-.82-1.45,1.73,1.73,0,0,0-1.69,0,1.81,1.81,0,0,0-.61.62,1.65,1.65,0,0,0-.23.83,1.72,1.72,0,0,0,.84,1.48A1.54,1.54,0,0,0,149.71,209.9Z"/><path d="M155.83,210.94a2.68,2.68,0,0,1-1.37-.37,2.79,2.79,0,0,1-1-1,2.73,2.73,0,0,1-.36-1.38,2.73,2.73,0,0,1,1.36-2.36,2.71,2.71,0,0,1,1.36-.36,2.6,2.6,0,0,1,1.23.3,2.76,2.76,0,0,1,.95.81,2.57,2.57,0,0,1,.49,1.15,2.23,2.23,0,0,1,0,.89h-4.27a1.6,1.6,0,0,0,.3.69,1.37,1.37,0,0,0,.56.45,1.77,1.77,0,0,0,.73.15,1.91,1.91,0,0,0,.82-.17,1.85,1.85,0,0,0,.65-.47l1,.26a2.31,2.31,0,0,1-1,1A2.94,2.94,0,0,1,155.83,210.94Zm1.55-3.2a1.49,1.49,0,0,0-.28-.63,1.55,1.55,0,0,0-1.28-.63,1.64,1.64,0,0,0-.74.17,1.56,1.56,0,0,0-.55.46,1.51,1.51,0,0,0-.29.63Z"/><path d="M159.34,205.56h1.14v.7a1.87,1.87,0,0,1,.7-.57,2,2,0,0,1,1-.22,2.28,2.28,0,0,1,1.09.26,2,2,0,0,1,1.13,1.88v3.25h-1.15v-3a1.51,1.51,0,0,0-.17-.73,1.28,1.28,0,0,0-.47-.48,1.35,1.35,0,0,0-.66-.17,1.36,1.36,0,0,0-1.25.79,1.8,1.8,0,0,0-.18.82v2.72h-1.14Z"/><path d="M170.38,203.86h1.88l2.45,7h-1.23l-.54-1.54h-3.27l-.55,1.54h-1.24Zm2.21,4.38-1.27-3.71-1.3,3.71Z"/><path d="M175.5,203.86h3a2.34,2.34,0,0,1,1.21.31,2.26,2.26,0,0,1,.85.86,2.36,2.36,0,0,1,.3,1.16,2.33,2.33,0,0,1-.3,1.18,2.26,2.26,0,0,1-.84.84,2.46,2.46,0,0,1-1.22.31h-1.84v2.33H175.5Zm3,3.59a1.2,1.2,0,0,0,.93-.37,1.28,1.28,0,0,0,.35-.93,1.18,1.18,0,0,0-.34-.87,1.23,1.23,0,0,0-.94-.35h-1.77v2.53Z"/><path d="M181.83,203.86H183v7h-1.19Z"/><path d="M186.32,210.94a3.59,3.59,0,0,1-1.12-.18,5.73,5.73,0,0,1-1.08-.49v-1.2a3.71,3.71,0,0,0,1,.6,3,3,0,0,0,1.21.27,1.52,1.52,0,0,0,.51-.08.75.75,0,0,0,.35-.2.45.45,0,0,0,.12-.31.48.48,0,0,0-.31-.42,3.59,3.59,0,0,0-1.05-.33,3.8,3.8,0,0,1-1.44-.57,1.16,1.16,0,0,1-.47-1,1.35,1.35,0,0,1,.29-.86,1.79,1.79,0,0,1,.78-.55,3.12,3.12,0,0,1,1.07-.18,3.42,3.42,0,0,1,1.09.16,5.13,5.13,0,0,1,1,.43v1.05a4.88,4.88,0,0,0-1.07-.5,3.52,3.52,0,0,0-1-.16,1.53,1.53,0,0,0-.49.08.9.9,0,0,0-.36.21.48.48,0,0,0-.13.32.38.38,0,0,0,.21.34,2.65,2.65,0,0,0,.69.22l.29.07a1.84,1.84,0,0,1,.3.07,2.93,2.93,0,0,1,1.36.61,1.35,1.35,0,0,1,.41,1,1.29,1.29,0,0,1-.62,1.18A2.76,2.76,0,0,1,186.32,210.94Z"/><path d="M131.44,215.86h3a2.37,2.37,0,0,1,1.21.31,2.17,2.17,0,0,1,.84.86,2.27,2.27,0,0,1,.31,1.16,2.24,2.24,0,0,1-.31,1.18,2.12,2.12,0,0,1-.84.84,2.42,2.42,0,0,1-1.21.31h-1.84v2.33h-1.19Zm3,3.59a1.23,1.23,0,0,0,.93-.37,1.33,1.33,0,0,0,.35-.93,1.18,1.18,0,0,0-.35-.87,1.22,1.22,0,0,0-.93-.35h-1.77v2.53Z"/><path d="M139.38,222.94a2.44,2.44,0,0,1-1.37-.39,1.39,1.39,0,0,1-.6-1.24,1.46,1.46,0,0,1,.24-.91,1.51,1.51,0,0,1,.74-.55,3.29,3.29,0,0,1,1.21-.2h1.61v-.33a.75.75,0,0,0-.36-.67,1.83,1.83,0,0,0-.93-.21,1.78,1.78,0,0,0-.83.17.78.78,0,0,0-.44.54l-1.1,0a1.37,1.37,0,0,1,.33-.92,2,2,0,0,1,.85-.59,3.11,3.11,0,0,1,1.16-.2,3.16,3.16,0,0,1,1.2.21,2.06,2.06,0,0,1,.87.6,1.38,1.38,0,0,1,.33.91v3.67h-1.08v-.8a2.18,2.18,0,0,1-.69.59A2.14,2.14,0,0,1,139.38,222.94Zm.09-1a1.78,1.78,0,0,0,.83-.2,1.84,1.84,0,0,0,.65-.55,1.24,1.24,0,0,0,.26-.75H139.8a2,2,0,0,0-.74.11.89.89,0,0,0-.41.31.68.68,0,0,0-.1.44.61.61,0,0,0,.3.49A1.24,1.24,0,0,0,139.47,222Z"/><path d="M143.37,217.56h1.14v.88a1.64,1.64,0,0,1,.77-.77,2.1,2.1,0,0,1,1.27-.14v1.23a1.68,1.68,0,0,0-1,0,1.33,1.33,0,0,0-.76.5,1.49,1.49,0,0,0-.29.93v2.7h-1.14Z"/><path d="M150.93,222.82a3.34,3.34,0,0,1-1.45.09,1.55,1.55,0,0,1-1-.56,1.87,1.87,0,0,1-.36-1.2v-2.6h-1v-1h1v-1.32h1.13v1.32h1.63v1h-1.63v2.59a.69.69,0,0,0,.19.51.83.83,0,0,0,.56.22,2.36,2.36,0,0,0,.93-.17Z"/><path d="M151.81,217.56H153v.7a1.92,1.92,0,0,1,.69-.57,2.07,2.07,0,0,1,1-.22,2.3,2.3,0,0,1,1.09.26,2.09,2.09,0,0,1,.82.74,2.11,2.11,0,0,1,.31,1.14v3.25h-1.15v-3a1.41,1.41,0,0,0-.18-.73,1.15,1.15,0,0,0-.47-.48,1.29,1.29,0,0,0-.65-.17,1.42,1.42,0,0,0-.74.21,1.44,1.44,0,0,0-.51.58,1.8,1.8,0,0,0-.18.82v2.72h-1.14Z"/><path d="M160.35,222.94a2.74,2.74,0,0,1-1.38-.37,2.84,2.84,0,0,1-1-1,2.73,2.73,0,0,1-.36-1.38,2.71,2.71,0,0,1,2.72-2.72,2.6,2.6,0,0,1,1.23.3,2.85,2.85,0,0,1,.95.81,2.81,2.81,0,0,1,.49,1.15,2.43,2.43,0,0,1,0,.89h-4.27a1.48,1.48,0,0,0,.29.69,1.44,1.44,0,0,0,.56.45,1.81,1.81,0,0,0,.74.15,2,2,0,0,0,1.47-.64l1,.26a2.42,2.42,0,0,1-1,1A3,3,0,0,1,160.35,222.94Zm1.55-3.2a1.58,1.58,0,0,0-.82-1.09,1.64,1.64,0,0,0-.74-.17,1.69,1.69,0,0,0-.75.17,1.76,1.76,0,0,0-.55.46,1.49,1.49,0,0,0-.28.63Z"/><path d="M163.86,217.56H165v.88a1.6,1.6,0,0,1,.77-.77,2.09,2.09,0,0,1,1.27-.14v1.23a1.68,1.68,0,0,0-1,0,1.33,1.33,0,0,0-.76.5,1.44,1.44,0,0,0-.29.93v2.7h-1.14Z"/><path d="M172.51,222.94a2.44,2.44,0,0,1-1.37-.39,1.39,1.39,0,0,1-.6-1.24,1.41,1.41,0,0,1,1-1.46,3.29,3.29,0,0,1,1.21-.2h1.61v-.33a.75.75,0,0,0-.36-.67,1.83,1.83,0,0,0-.93-.21,1.78,1.78,0,0,0-.83.17.75.75,0,0,0-.44.54l-1.1,0a1.37,1.37,0,0,1,.33-.92,2,2,0,0,1,.85-.59,3.11,3.11,0,0,1,1.16-.2,3.16,3.16,0,0,1,1.2.21,2.06,2.06,0,0,1,.87.6,1.38,1.38,0,0,1,.33.91v3.67h-1.08v-.8a2.18,2.18,0,0,1-.69.59A2.14,2.14,0,0,1,172.51,222.94Zm.09-1a1.78,1.78,0,0,0,.83-.2,1.93,1.93,0,0,0,.65-.55,1.24,1.24,0,0,0,.26-.75h-1.41a2,2,0,0,0-.74.11.89.89,0,0,0-.41.31.68.68,0,0,0-.1.44.61.61,0,0,0,.3.49A1.24,1.24,0,0,0,172.6,222Z"/><path d="M176.5,217.56h1.14v.7a2.12,2.12,0,0,1,.74-.58,2.19,2.19,0,0,1,1-.21,2.49,2.49,0,0,1,1.32.37,2.71,2.71,0,0,1,1,1,2.68,2.68,0,0,1,.36,1.35,2.73,2.73,0,0,1-.36,1.38,2.56,2.56,0,0,1-1,1,2.53,2.53,0,0,1-1.32.37,2.2,2.2,0,0,1-1-.22,2.12,2.12,0,0,1-.74-.58V225H176.5Zm2.75,4.34a1.62,1.62,0,0,0,.84-.22,1.73,1.73,0,0,0,.61-.62,1.81,1.81,0,0,0,.22-.87,1.75,1.75,0,0,0-.22-.83,1.78,1.78,0,0,0-.6-.62,1.75,1.75,0,0,0-1.7,0,1.9,1.9,0,0,0-.61.62,1.64,1.64,0,0,0-.22.83,1.72,1.72,0,0,0,.22.86,1.81,1.81,0,0,0,.61.62A1.57,1.57,0,0,0,179.25,221.9Z"/><path d="M182.9,217.56H184v.7a2.12,2.12,0,0,1,.74-.58,2.19,2.19,0,0,1,1-.21,2.49,2.49,0,0,1,1.32.37,2.71,2.71,0,0,1,1,1,2.68,2.68,0,0,1,.36,1.35,2.73,2.73,0,0,1-.36,1.38,2.56,2.56,0,0,1-1,1,2.53,2.53,0,0,1-1.32.37,2.2,2.2,0,0,1-1-.22,2.12,2.12,0,0,1-.74-.58V225H182.9Zm2.75,4.34a1.62,1.62,0,0,0,.84-.22,1.73,1.73,0,0,0,.61-.62,1.81,1.81,0,0,0,.22-.87,1.75,1.75,0,0,0-.22-.83,1.78,1.78,0,0,0-.6-.62,1.75,1.75,0,0,0-1.7,0,1.9,1.9,0,0,0-.61.62,1.64,1.64,0,0,0-.22.83,1.72,1.72,0,0,0,.22.86,1.81,1.81,0,0,0,.61.62A1.57,1.57,0,0,0,185.65,221.9Z"/><path d="M191.4,222.94a3.55,3.55,0,0,1-1.12-.18,5.21,5.21,0,0,1-1.08-.49v-1.2a3.65,3.65,0,0,0,1,.6,3,3,0,0,0,1.22.27,1.6,1.6,0,0,0,.51-.08.72.72,0,0,0,.34-.2.42.42,0,0,0,.13-.31.49.49,0,0,0-.31-.42,3.82,3.82,0,0,0-1-.33,3.79,3.79,0,0,1-1.45-.57,1.15,1.15,0,0,1-.46-1,1.3,1.3,0,0,1,.29-.86,1.73,1.73,0,0,1,.78-.55,3,3,0,0,1,1.07-.18,3.4,3.4,0,0,1,1.08.16,5.53,5.53,0,0,1,1,.43v1.05a5.35,5.35,0,0,0-1.07-.5,3.63,3.63,0,0,0-1-.16,1.59,1.59,0,0,0-.5.08.8.8,0,0,0-.35.21.44.44,0,0,0-.13.32.38.38,0,0,0,.21.34,2.65,2.65,0,0,0,.69.22l.28.07a2,2,0,0,1,.31.07,2.88,2.88,0,0,1,1.35.61,1.41,1.41,0,0,1-.2,2.17A2.81,2.81,0,0,1,191.4,222.94Z"/><path class="cls-2" d="M276.16,197.72A117.84,117.84,0,0,0,234.49,72.27l21.93-30.86c-1.6-1.2-3.22-2.38-4.86-3.52L229.65,68.73a117.63,117.63,0,0,0-135.5,1.13L71.33,39.68c-1.62,1.18-3.22,2.37-4.79,3.61L89.37,73.48A117.79,117.79,0,0,0,51.11,203.71l-36,11.56c.63,1.9,1.31,3.78,2,5.65L53.2,209.34a118.08,118.08,0,0,0,109.5,74.24v37.78c2.15,0,4,0,6-.11l-.64-37.8,3.43-.2a118.15,118.15,0,0,0,102.91-79.8l36.34,10.48q.93-2.85,1.76-5.74ZM162.7,64.82a100.59,100.59,0,0,1,72,30.29l-21.31,21.3a72.31,72.31,0,0,0-99.6-1.69L92.45,93.38A100.52,100.52,0,0,1,162.7,64.82Zm67.45,103.29a67.45,67.45,0,1,1-67.45-67.44A67.52,67.52,0,0,1,230.15,168.11ZM61.82,165.7A100.55,100.55,0,0,1,89.63,96.22l21.3,21.29a72.25,72.25,0,0,0-1.07,100.09L90.93,236.51A100.51,100.51,0,0,1,61.82,165.7ZM162.7,266.58a100.5,100.5,0,0,1-68.9-27.27l18.87-18.87a72.28,72.28,0,0,0,101.81-1.72l18.9,18.89A100.59,100.59,0,0,1,162.7,266.58Zm73.48-31.83-19-19a72.27,72.27,0,0,0-2.49-98l1.5,1.5L237.45,98a100.71,100.71,0,0,1-1.27,136.73Z"/><path class="cls-4" d="M59.76,122.13l1.14-2.57a2.23,2.23,0,0,1,.73-.9,2.18,2.18,0,0,1,1-.4,2.13,2.13,0,0,1,1.11.17,2.19,2.19,0,0,1,.88.71,2.13,2.13,0,0,1,.39,1,2.3,2.3,0,0,1-.2,1.14l-.63,1.45,1.89.84-.5,1.13ZM63.82,121a1,1,0,0,0,0-.86,1.08,1.08,0,0,0-.58-.59,1,1,0,0,0-.8,0,1.14,1.14,0,0,0-.6.62l-.6,1.37,1.94.86Z"/><path class="cls-4" d="M62.26,116.59l1.28-2.5a2.21,2.21,0,0,1,.77-.86,2.16,2.16,0,0,1,1.07-.35,2.2,2.2,0,0,1,1.1.23,2.15,2.15,0,0,1,.64.52,2.21,2.21,0,0,1,.38.73,2,2,0,0,1,.07.8l2.72-.2-.6,1.18-2.54.19-.56,1.09,1.94,1-.57,1.1Zm4.08-1a1,1,0,0,0,.08-.8,1,1,0,0,0-.52-.6.94.94,0,0,0-.78-.07,1,1,0,0,0-.6.52l-.71,1.4,1.82.93Z"/><path class="cls-4" d="M65.11,111.11l2.31-4,1,.57-1.69,2.91,1.31.76,1.5-2.59,1,.56L69,111.93l1.3.76L72,109.77l1,.58-2.31,4Z"/><path class="cls-4" d="M68,106.15l1.3-2A3.23,3.23,0,0,1,70.56,103a3.27,3.27,0,0,1,1.63-.36,3.27,3.27,0,0,1,2.72,1.78,3.27,3.27,0,0,1,.32,1.63,3.39,3.39,0,0,1-.56,1.63l-1.3,2Zm5.7.93a2.17,2.17,0,0,0,.38-1,1.91,1.91,0,0,0-.22-1,2.15,2.15,0,0,0-.74-.79,2,2,0,0,0-1-.37,1.81,1.81,0,0,0-1,.21,2.25,2.25,0,0,0-.82.75l-.61.94L73.09,108Z"/><path class="cls-4" d="M71.73,100.62l.73-1,5.2,3.74-.72,1Z"/><path class="cls-4" d="M80.15,100.17a3.17,3.17,0,0,1-1.36,1,3.35,3.35,0,0,1-1.66.2,3.19,3.19,0,0,1-1.57-.67,3.27,3.27,0,0,1-1-1.36,3.38,3.38,0,0,1-.21-1.67A3.28,3.28,0,0,1,75,96.13a3.11,3.11,0,0,1,1.51-1,3.35,3.35,0,0,1,1.83,0l-.46,1.13a2,2,0,0,0-1.07,0,2,2,0,0,0-.88.64,1.92,1.92,0,0,0-.27,2,2.18,2.18,0,0,0,.67.87,2.25,2.25,0,0,0,1,.44,1.93,1.93,0,0,0,1-.11,1.86,1.86,0,0,0,.86-.64,1.81,1.81,0,0,0,.42-1,2,2,0,0,0-.2-1l1-.74a3.21,3.21,0,0,1,.38,1.79A3,3,0,0,1,80.15,100.17Z"/><path class="cls-4" d="M79.43,92.67,78.1,94.19l-.86-.76,3.42-3.89.86.75-1.28,1.46,4,3.47-.81.92Z"/><path class="cls-4" d="M245.08,88.87,247,91a2.11,2.11,0,0,1,.52,1,2.18,2.18,0,0,1-.67,2.07,2.22,2.22,0,0,1-1,.51,2.09,2.09,0,0,1-1.11-.07,2.22,2.22,0,0,1-1-.65l-1-1.17-1.55,1.38-.82-.92Zm-.58,4.18a1,1,0,0,0,.77.39,1.06,1.06,0,0,0,.78-.29,1,1,0,0,0,.35-.72,1.12,1.12,0,0,0-.32-.79l-1-1.11L243.49,92Z"/><path class="cls-4" d="M249.11,93.42l1.76,2.19a2.08,2.08,0,0,1,.47,1,2.13,2.13,0,0,1-.12,1.12,2.08,2.08,0,0,1-.66.91,2,2,0,0,1-.73.37,2.07,2.07,0,0,1-.82,0,1.69,1.69,0,0,1-.76-.27l-.94,2.57-.82-1,.87-2.4-.77-1-1.7,1.36-.78-1Zm-.72,4.14a1,1,0,0,0,.7.41A1,1,0,0,0,250,96.3l-1-1.23-1.6,1.29Z"/><path class="cls-4" d="M252.9,98.23l.73,1L248.48,103l-.73-1Z"/><path class="cls-4" d="M250.74,106.38a3.23,3.23,0,0,1-.22-3.25,3.29,3.29,0,0,1,2.72-1.84,3.34,3.34,0,0,1,1.65.31,3.19,3.19,0,0,1,1.28,1.11,3.14,3.14,0,0,1,.55,1.61,3.27,3.27,0,0,1-1.44,2.94,3.2,3.2,0,0,1-1.6.55,3.3,3.3,0,0,1-2.94-1.43Zm1-.65a1.93,1.93,0,0,0,.82.71,2,2,0,0,0,1,.17,2.11,2.11,0,0,0,1-.37,2.21,2.21,0,0,0,.73-.82,2.09,2.09,0,0,0,.24-1,2,2,0,0,0-.35-1,1.9,1.9,0,0,0-.82-.69,2,2,0,0,0-1.05-.17,2.14,2.14,0,0,0-1,.37,2.23,2.23,0,0,0-.74.82,2,2,0,0,0-.23,1A2,2,0,0,0,251.7,105.73Z"/><path class="cls-4" d="M258.49,106.37l1.43,2.43a2.13,2.13,0,0,1,.32,1.11A2.21,2.21,0,0,1,260,111a2.14,2.14,0,0,1-.78.8,2,2,0,0,1-.78.26,2.06,2.06,0,0,1-.82-.06,1.92,1.92,0,0,1-.72-.38L255.57,114l-.67-1.13,1.21-2.25-.63-1.06-1.88,1.11-.62-1.07Zm-1.3,4a1,1,0,0,0,.63.49,1,1,0,0,0,.8-.11,1,1,0,0,0,.47-.62,1,1,0,0,0-.12-.78l-.8-1.36-1.77,1Z"/><path class="cls-4" d="M261.55,111.67l.59,1.09-5.64,3-.59-1.09Z"/><path class="cls-4" d="M262.51,116l-.89-1.81,1-.5,2.29,4.65-1,.51-.86-1.75-4.72,2.33-.54-1.11Z"/><path class="cls-4" d="M265.34,119.26l.5,1.13L260,123l-.5-1.13Z"/><path class="cls-4" d="M261.56,123.35l4.9,1.52-1.2-3,1.06-.42,1.78,4.43-1,.4-5.17-1.64,1.24,3.12-1.05.41-1.74-4.35Z"/><path class="cls-4" d="M268.5,127l1.49,4.36-1.08.37-1.09-3.19-1.42.49,1,2.84-1.06.36-1-2.84-1.42.49L265,133l-1.09.37-1.49-4.35Z"/><path class="cls-4" d="M139.7,268.93l2.75.55a2.23,2.23,0,0,1,1,.52,2.27,2.27,0,0,1,.63.93,2.16,2.16,0,0,1,.07,1.13,2.15,2.15,0,0,1-1.42,1.62,2.39,2.39,0,0,1-1.16.05l-1.55-.3-.41,2-1.21-.24Zm2,3.71a1.12,1.12,0,0,0,.85-.15,1.08,1.08,0,0,0,.45-.7,1,1,0,0,0-.15-.79,1.08,1.08,0,0,0-.73-.44l-1.47-.29-.42,2.09Z"/><path class="cls-4" d="M145.38,270l2.79.4a2.2,2.2,0,0,1,1.06.45,2.16,2.16,0,0,1,.68.9,2.12,2.12,0,0,1,.13,1.11,2,2,0,0,1-.28.78,2,2,0,0,1-.56.6,1.88,1.88,0,0,1-.74.32l1.07,2.52-1.3-.19-1-2.35-1.21-.17-.31,2.16-1.23-.18Zm2.31,3.53a1,1,0,0,0,.79-.19,1.05,1.05,0,0,0,.21-1.45,1,1,0,0,0-.68-.39l-1.56-.22-.29,2Z"/><path class="cls-4" d="M151.18,270.85l4.59.41-.11,1.13-3.35-.3-.14,1.5,3,.27-.1,1.11-3-.27-.13,1.5,3.36.3-.11,1.14-4.58-.41Z"/><path class="cls-4" d="M158.85,277.88a4.18,4.18,0,0,1-1.31-.29,5.28,5.28,0,0,1-1.25-.69l.05-1.28a7,7,0,0,0,1.32.79,3.69,3.69,0,0,0,1.3.32,1.73,1.73,0,0,0,.58-.06.94.94,0,0,0,.39-.23.55.55,0,0,0,.14-.37.64.64,0,0,0-.37-.57,5.86,5.86,0,0,0-1.29-.51,4.42,4.42,0,0,1-1.16-.47,1.85,1.85,0,0,1-.65-.62,1.43,1.43,0,0,1-.19-.79,1.61,1.61,0,0,1,.34-1,2.18,2.18,0,0,1,.87-.63,2.74,2.74,0,0,1,1.19-.19,4,4,0,0,1,1.33.25,6.55,6.55,0,0,1,1.06.51l0,1.27a4.58,4.58,0,0,0-1.16-.62,4,4,0,0,0-1.22-.28,1.74,1.74,0,0,0-.58.07.92.92,0,0,0-.4.23.62.62,0,0,0-.16.38.5.5,0,0,0,.17.38,1.42,1.42,0,0,0,.47.27q.3.12.81.27l.12,0,.14,0a3,3,0,0,1,1.54.84,1.68,1.68,0,0,1,.42,1.17,1.61,1.61,0,0,1-.37,1,2.07,2.07,0,0,1-.89.6A3.1,3.1,0,0,1,158.85,277.88Z"/><path class="cls-4" d="M165.32,277.92a3.2,3.2,0,0,1-1.64-.41,3.28,3.28,0,0,1-1.68-2.8,3.1,3.1,0,0,1,.4-1.64,3.32,3.32,0,0,1,1.16-1.22,3.13,3.13,0,0,1,1.63-.48,3,3,0,0,1,1.76.5,3.37,3.37,0,0,1,1.2,1.39l-1.17.36a2,2,0,0,0-.72-.79,1.92,1.92,0,0,0-1-.29,2,2,0,0,0-1,.3,1.91,1.91,0,0,0-.71.78,2.17,2.17,0,0,0-.25,1.07,2.23,2.23,0,0,0,.29,1.05,2,2,0,0,0,.74.75,2,2,0,0,0,1.05.25,1.78,1.78,0,0,0,1-.3,2,2,0,0,0,.68-.81l1.19.3a3.34,3.34,0,0,1-1.14,1.43A3.11,3.11,0,0,1,165.32,277.92Z"/><path class="cls-4" d="M168.87,271.33l2.8-.22a2.1,2.1,0,0,1,1.14.2,2.17,2.17,0,0,1,.86.73,2,2,0,0,1,.37,1.06,1.85,1.85,0,0,1-.1.81,2,2,0,0,1-.42.71,1.81,1.81,0,0,1-.65.48l1.6,2.22-1.31.1-1.5-2.07-1.22.1.17,2.17-1.23.1Zm3,2.93a1.06,1.06,0,0,0,.72-.35,1,1,0,0,0,.24-.77,1,1,0,0,0-.34-.69,1,1,0,0,0-.76-.24l-1.57.13.16,2Z"/><path class="cls-4" d="M174.77,270.81l1.23-.15.75,6.37-1.23.14Z"/><path class="cls-4" d="M177,270.56l2.9-.46a2.37,2.37,0,0,1,1.07.06,1.67,1.67,0,0,1,.78.5,1.63,1.63,0,0,1,.37.81,1.66,1.66,0,0,1-.09.86,1.41,1.41,0,0,1-.49.68,1.74,1.74,0,0,1,.89.5,1.67,1.67,0,0,1,.41.88,1.56,1.56,0,0,1-.11.91,1.63,1.63,0,0,1-.6.71,2.31,2.31,0,0,1-1,.39l-3.09.49Zm3.26,2.23a.85.85,0,0,0,.59-.33.81.81,0,0,0,.14-.61.8.8,0,0,0-.31-.52.88.88,0,0,0-.65-.13l-1.68.27.25,1.58Zm.58,2.53a.91.91,0,0,0,.59-.32.82.82,0,0,0-.19-1.14.9.9,0,0,0-.66-.12l-1.83.29.25,1.58Z"/><path class="cls-4" d="M182.87,269.64l4.49-1,.25,1.11-3.28.74.33,1.47,2.93-.66.24,1.09-2.93.66.33,1.47,3.29-.74.25,1.11-4.49,1Z"/><path class="cls-2" d="M80.8,197.78l-.7-2,5.09-3.69-6.28.21-.7-2.06,6.62-2.26.42,1.23L79.83,191l6-.19.62,1.81-4.83,3.49L87,194.29l.42,1.23Z"/><path class="cls-2" d="M84.21,184.87a2.36,2.36,0,0,1,0,1.12,2.15,2.15,0,0,1-.53,1,2,2,0,0,1-1,.56l-3.18.76-.3-1.26,2.85-.69a1.42,1.42,0,0,0,.6-.3A1.13,1.13,0,0,0,83,184.9a1.23,1.23,0,0,0-.35-.62A1.34,1.34,0,0,0,82,184a1.64,1.64,0,0,0-.76,0l-2.65.64-.31-1.27,5.16-1.24.3,1.26-.58.15a1.89,1.89,0,0,1,.64.53A2.07,2.07,0,0,1,84.21,184.87Z"/><path class="cls-2" d="M76.4,182.39l-.23-1.27,6.88-1.28.23,1.26Z"/><path class="cls-2" d="M82.3,175.26a3.24,3.24,0,0,1,.32,1.45,1.69,1.69,0,0,1-.42,1.13,1.9,1.9,0,0,1-1.16.55l-2.42.34.14,1-1.11.16-.14-1-1.23.18-.18-1.27,1.23-.18-.22-1.55,1.1-.16.23,1.55,2.4-.33a.59.59,0,0,0,.41-.25.86.86,0,0,0,.11-.58,2.27,2.27,0,0,0-.3-.86Z"/><path class="cls-2" d="M76.36,174.34a.8.8,0,0,1-.18.6.75.75,0,0,1-.54.3.8.8,0,0,1-.6-.18.79.79,0,0,1-.29-.55.81.81,0,0,1,.72-.9.8.8,0,0,1,.6.18A.79.79,0,0,1,76.36,174.34Zm.63.6-.13-1.28,5.28-.54.13,1.29Z"/><path class="cls-2" d="M81.77,168.45a3.19,3.19,0,0,1,.2,1.48,1.66,1.66,0,0,1-.52,1.08,1.87,1.87,0,0,1-1.2.46l-2.44.13.06,1-1.12.06,0-1-1.24.07-.08-1.28,1.24-.07-.09-1.57,1.12-.06.09,1.56,2.42-.13a.58.58,0,0,0,.43-.21.86.86,0,0,0,.16-.57,2.3,2.3,0,0,0-.23-.88Z"/><path class="cls-2" d="M81.86,165.33a2.51,2.51,0,0,1-.39,1.37A2.67,2.67,0,0,1,79.09,168a2.51,2.51,0,0,1-1.37-.39,2.64,2.64,0,0,1-1-1,2.74,2.74,0,0,1-.35-1.37A2.65,2.65,0,0,1,76.7,164a2.85,2.85,0,0,1,.82-.94,2.63,2.63,0,0,1,1.14-.48,2.41,2.41,0,0,1,1,0l-.07,4.12a1.29,1.29,0,0,0,1-.77,1.75,1.75,0,0,0,.13-.65,2,2,0,0,0-.13-.75,1.72,1.72,0,0,0-.39-.62l.32-1.13a2.4,2.4,0,0,1,1,1A3.13,3.13,0,0,1,81.86,165.33Zm-3.21-1.46a1.44,1.44,0,0,0-.55.25,1.37,1.37,0,0,0-.4.49,1.53,1.53,0,0,0-.16.66,1.6,1.6,0,0,0,.14.67,1.28,1.28,0,0,0,.39.5,1.3,1.3,0,0,0,.53.28Z"/><path class="cls-2" d="M76.54,161.53l.09-1.3.6,0a1.84,1.84,0,0,1-.45-.7,2.26,2.26,0,0,1-.12-.91,2.37,2.37,0,0,1,.34-1.07,2,2,0,0,1,.8-.76,2,2,0,0,1,1.14-.22l3.26.24-.1,1.3-2.92-.22a1.32,1.32,0,0,0-.67.11,1.07,1.07,0,0,0-.47.39,1.14,1.14,0,0,0-.19.58,1.21,1.21,0,0,0,.14.69,1.28,1.28,0,0,0,.48.5,1.6,1.6,0,0,0,.73.22l2.72.2-.1,1.3Z"/><path class="cls-2" d="M82.65,154.18a2.57,2.57,0,0,1-.58,1.31,1.38,1.38,0,0,1-1.35.42,1.53,1.53,0,0,1-.88-.39,1.45,1.45,0,0,1-.43-.81,3.21,3.21,0,0,1,0-1.16l.22-1.54-.28,0a.63.63,0,0,0-.63.23,1.68,1.68,0,0,0-.32.8,1.76,1.76,0,0,0,0,.77.73.73,0,0,0,.43.48l-.17,1.23a1.48,1.48,0,0,1-.87-.46,2.05,2.05,0,0,1-.48-.94,3.24,3.24,0,0,1,0-1.21,3.2,3.2,0,0,1,.39-1.15,2.15,2.15,0,0,1,.73-.79,1.37,1.37,0,0,1,.95-.2l3.62.53-.18,1.22-.65-.1a1.86,1.86,0,0,1,.4.73A2.23,2.23,0,0,1,82.65,154.18Zm-1-.26a1.89,1.89,0,0,0-.07-.78,1.67,1.67,0,0,0-.39-.67,1,1,0,0,0-.62-.32l-.19,1.3a1.69,1.69,0,0,0,0,.64.77.77,0,0,0,.21.4.56.56,0,0,0,.38.14.53.53,0,0,0,.46-.19A1.1,1.1,0,0,0,81.62,153.92Z"/><path class="cls-2" d="M78,149.18l.28-1.27.59.13a1.83,1.83,0,0,1-.35-.76,2.05,2.05,0,0,1,0-.92,2.36,2.36,0,0,1,.48-1,2,2,0,0,1,2.06-.69l3.2.71L84,146.64,81.12,146a1.31,1.31,0,0,0-.68,0,1.12,1.12,0,0,0-.52.32,1.35,1.35,0,0,0-.27.55,1.22,1.22,0,0,0,0,.71,1.24,1.24,0,0,0,.41.56,1.71,1.71,0,0,0,.68.32l2.67.59-.29,1.27Z"/><path class="cls-2" d="M85.43,141.21a3.39,3.39,0,0,1-.31,1.46,1.68,1.68,0,0,1-.85.85,1.85,1.85,0,0,1-1.28,0l-2.34-.69-.27.93-1.08-.31.27-.93-1.19-.34.35-1.23,1.19.34.44-1.5,1.07.31-.43,1.5,2.33.69a.59.59,0,0,0,.47-.06.85.85,0,0,0,.34-.48,2.28,2.28,0,0,0,.08-.91Z"/><path class="cls-2" d="M137.33,88.72a3.49,3.49,0,0,1-1.84.11,3.56,3.56,0,0,1-1.64-.83,3.37,3.37,0,0,1-1-1.54,3.54,3.54,0,0,1-.11-1.85,3.57,3.57,0,0,1,.82-1.65,3.42,3.42,0,0,1,1.54-1,3.26,3.26,0,0,1,2,0,3.64,3.64,0,0,1,1.7,1.06l-1.1.75a2.27,2.27,0,0,0-1-.59,2.11,2.11,0,0,0-1.19,0,2.15,2.15,0,0,0-1,.65,2.09,2.09,0,0,0-.49,1A2.42,2.42,0,0,0,134.1,86a2.37,2.37,0,0,0,.64,1,2.09,2.09,0,0,0,1,.53,2,2,0,0,0,1.17-.07,1.93,1.93,0,0,0,1-.65,2.12,2.12,0,0,0,.45-1.06l1.34-.08a3.61,3.61,0,0,1-.72,1.86A3.35,3.35,0,0,1,137.33,88.72Z"/><path class="cls-2" d="M139.29,80.74l1.25-.33,1.81,6.76-1.25.33Z"/><path class="cls-2" d="M145.76,86.45a2.6,2.6,0,0,1-1.41-.09,2.67,2.67,0,0,1-1.18-.77,2.75,2.75,0,0,1-.57-2.67,2.76,2.76,0,0,1,.76-1.18,2.7,2.7,0,0,1,1.26-.64,2.6,2.6,0,0,1,1.41.07,2.92,2.92,0,0,1,1.18.77,2.7,2.7,0,0,1,.57,2.68A2.8,2.8,0,0,1,147,85.8,2.72,2.72,0,0,1,145.76,86.45Zm-.25-1.17a1.55,1.55,0,0,0,.71-.36,1.73,1.73,0,0,0,.42-.67,1.55,1.55,0,0,0,0-.8,1.45,1.45,0,0,0-.36-.72,1.58,1.58,0,0,0-.65-.43,1.47,1.47,0,0,0-1.5.32,1.6,1.6,0,0,0-.41.67,1.41,1.41,0,0,0,0,.79,1.58,1.58,0,0,0,.36.72,1.6,1.6,0,0,0,.65.44A1.51,1.51,0,0,0,145.51,85.28Z"/><path class="cls-2" d="M151.3,85.48a2.5,2.5,0,0,1-1.12-.11,2.05,2.05,0,0,1-.9-.63,2,2,0,0,1-.46-1.06l-.44-3.24,1.29-.18.39,2.9a1.37,1.37,0,0,0,.25.63,1,1,0,0,0,.48.38,1.11,1.11,0,0,0,.6.07,1.23,1.23,0,0,0,.66-.28,1.31,1.31,0,0,0,.38-.58,1.56,1.56,0,0,0,.06-.75l-.37-2.71,1.29-.17.72,5.25-1.29.18-.08-.6a2,2,0,0,1-.6.59A2.1,2.1,0,0,1,151.3,85.48Z"/><path class="cls-2" d="M157.54,84.83a2.46,2.46,0,0,1-1.32-.29,2.73,2.73,0,0,1-1-1,2.51,2.51,0,0,1-.44-1.33,2.79,2.79,0,0,1,.27-1.4,2.69,2.69,0,0,1,.9-1,2.52,2.52,0,0,1,1.29-.44,2.16,2.16,0,0,1,.89.12,2,2,0,0,1,.73.45l-.13-2.27,1.29-.08.42,7-1.29.08,0-.57a2.23,2.23,0,0,1-1.55.74Zm.06-1.17a1.42,1.42,0,0,0,.75-.27,1.64,1.64,0,0,0,.54-.6,1.53,1.53,0,0,0,.17-.78,1.57,1.57,0,0,0-.26-.76,1.67,1.67,0,0,0-.61-.54,1.38,1.38,0,0,0-.77-.17,1.45,1.45,0,0,0-.77.26,1.37,1.37,0,0,0-.52.6,1.65,1.65,0,0,0-.16.79,1.56,1.56,0,0,0,.25.76,1.58,1.58,0,0,0,.58.54A1.54,1.54,0,0,0,157.6,83.66Z"/><path class="cls-2" d="M164.3,79.27l1.3.06,0,.6a2,2,0,0,1,.69-.48,2.21,2.21,0,0,1,.91-.14,2.37,2.37,0,0,1,1.07.31,1.83,1.83,0,0,1,.78.78,2,2,0,0,1,.26,1.13l-.16,3.27-1.3-.06.14-2.93a1.46,1.46,0,0,0-.12-.67,1.05,1.05,0,0,0-.41-.45,1.17,1.17,0,0,0-.58-.18,1.22,1.22,0,0,0-.69.16,1.28,1.28,0,0,0-.49.49,1.77,1.77,0,0,0-.2.74l-.12,2.72-1.3-.06Z"/><path class="cls-2" d="M171.82,85.18a2.59,2.59,0,0,1-1.33-.55,1.4,1.4,0,0,1-.45-1.34,1.56,1.56,0,0,1,.36-.89,1.43,1.43,0,0,1,.8-.44,3.14,3.14,0,0,1,1.16,0l1.54.18,0-.29a.63.63,0,0,0-.25-.62,1.65,1.65,0,0,0-.81-.29,1.9,1.9,0,0,0-.77.06.73.73,0,0,0-.47.44l-1.23-.14a1.46,1.46,0,0,1,.44-.88,2.1,2.1,0,0,1,.92-.5,3,3,0,0,1,1.21-.07,3.2,3.2,0,0,1,1.16.35,2.17,2.17,0,0,1,.81.71,1.35,1.35,0,0,1,.23.94l-.43,3.63-1.23-.14.08-.66a1.91,1.91,0,0,1-.71.43A2.33,2.33,0,0,1,171.82,85.18Zm.23-1a1.75,1.75,0,0,0,.78-.09,1.61,1.61,0,0,0,.65-.41,1.06,1.06,0,0,0,.32-.63l-1.31-.15a1.87,1.87,0,0,0-.64,0,.86.86,0,0,0-.4.23.55.55,0,0,0-.13.38.52.52,0,0,0,.21.45A1.09,1.09,0,0,0,172.05,84.14Z"/><path class="cls-2" d="M179.1,86.19a3.38,3.38,0,0,1-1.49-.16,1.67,1.67,0,0,1-.92-.76,1.84,1.84,0,0,1-.17-1.28l.45-2.4-.95-.17.2-1.1.95.17.22-1.22,1.26.23-.22,1.22L180,81l-.2,1.1-1.54-.28-.44,2.39a.57.57,0,0,0,.1.46.8.8,0,0,0,.51.29,2.19,2.19,0,0,0,.92,0Z"/><path class="cls-2" d="M181.08,81.25l1.26.28-1.16,5.18-1.26-.29Zm.77-.41a.79.79,0,0,1-.51-.36.77.77,0,0,1-.11-.61.82.82,0,0,1,1.49-.25.77.77,0,0,1,.11.61.81.81,0,0,1-1,.61Z"/><path class="cls-2" d="M183.33,81.73l1.33.37.08,4.67,2.51-4,1.33.37-3,4.66-2-.57Z"/><path class="cls-2" d="M189.89,89.35a2.68,2.68,0,0,1-1.77-2.08,2.71,2.71,0,0,1,.11-1.41,2.63,2.63,0,0,1,.82-1.17,2.77,2.77,0,0,1,1.27-.6,2.68,2.68,0,0,1,2.45.79A2.8,2.8,0,0,1,193.4,86a2.56,2.56,0,0,1,.09,1.23,2.43,2.43,0,0,1-.32,1l-3.88-1.39a1.21,1.21,0,0,0,.06.66,1.23,1.23,0,0,0,.35.52,1.63,1.63,0,0,0,.57.34,1.9,1.9,0,0,0,.75.11,1.56,1.56,0,0,0,.72-.17l1,.67a2.32,2.32,0,0,1-1.31.61A3.06,3.06,0,0,1,189.89,89.35Zm2.41-2.57a1.37,1.37,0,0,0-.06-.6,1.51,1.51,0,0,0-.33-.54,1.43,1.43,0,0,0-.58-.36,1.62,1.62,0,0,0-.68-.09,1.53,1.53,0,0,0-.6.21,1.33,1.33,0,0,0-.43.42Z"/><path class="cls-2" d="M238.76,138.06a3.58,3.58,0,0,1,4-4.72,3.53,3.53,0,0,1,2.73,2.29,3.44,3.44,0,0,1,.15,1.85,3.56,3.56,0,0,1-2.31,2.72,3.41,3.41,0,0,1-1.84.16,3.56,3.56,0,0,1-2.73-2.3Zm1.19-.43a2.15,2.15,0,0,0,1.74,1.43,2.22,2.22,0,0,0,1.19-.12,2.33,2.33,0,0,0,1-.67,2.2,2.2,0,0,0,.53-1,2.18,2.18,0,0,0-.77-2.13,2.21,2.21,0,0,0-1.07-.47,2.32,2.32,0,0,0-1.19.13,2.37,2.37,0,0,0-1,.66,2.33,2.33,0,0,0-.52,1A2.06,2.06,0,0,0,240,137.63Z"/><path class="cls-2" d="M245.34,140.7l.33,1.25-.58.16a1.84,1.84,0,0,1,.66.51,2.17,2.17,0,0,1,.42.83,2.36,2.36,0,0,1,0,1.12,1.93,1.93,0,0,1-.5,1,2.09,2.09,0,0,1-1,.59l-3.16.85-.34-1.26L244,145a1.32,1.32,0,0,0,.61-.32,1.12,1.12,0,0,0,.31-.52,1.26,1.26,0,0,0,0-.61,1.25,1.25,0,0,0-.36-.61,1.26,1.26,0,0,0-.62-.31,1.64,1.64,0,0,0-.76,0l-2.64.71-.33-1.26Z"/><path class="cls-2" d="M242.11,150.3a2.75,2.75,0,0,1,3.6-3.09,2.71,2.71,0,0,1,1.72,3.31,2.74,2.74,0,0,1-.61,1.09,2.71,2.71,0,0,1-1,.7,2.37,2.37,0,0,1-1,.2l-.77-4a1.32,1.32,0,0,0-.53.38,1.36,1.36,0,0,0-.28.58,1.83,1.83,0,0,0,0,.66,2.07,2.07,0,0,0,.28.71,1.88,1.88,0,0,0,.52.53l-.09,1.17a2.32,2.32,0,0,1-1.19-.82A3.1,3.1,0,0,1,242.11,150.3Zm3.45.78a1.68,1.68,0,0,0,.48-.36,1.45,1.45,0,0,0,.3-.56,1.55,1.55,0,0,0,0-.68,1.63,1.63,0,0,0-.27-.63,1.42,1.42,0,0,0-.48-.41,1.37,1.37,0,0,0-.58-.16Z"/><path class="cls-2" d="M243.35,159.77a3.44,3.44,0,0,1,.35-1.82,3.56,3.56,0,0,1,1.2-1.38,3.58,3.58,0,0,1,3.58-.26,3.72,3.72,0,0,1,1.39,1.19,3.38,3.38,0,0,1,.61,1.75,3.28,3.28,0,0,1-.44,1.95,3.73,3.73,0,0,1-1.45,1.39l-.46-1.25a2.27,2.27,0,0,0,.82-.84,2.05,2.05,0,0,0,.26-1.16,2.12,2.12,0,0,0-.39-1.11,2.2,2.2,0,0,0-.89-.73,2.37,2.37,0,0,0-1.18-.21,2.34,2.34,0,0,0-1.13.38,2.18,2.18,0,0,0-.77.85,2.14,2.14,0,0,0-.22,1.15,2,2,0,0,0,.39,1.11,2.22,2.22,0,0,0,.92.69l-.25,1.33a3.62,3.62,0,0,1-1.63-1.17A3.3,3.3,0,0,1,243.35,159.77Z"/><path class="cls-2" d="M243.54,166.06a2.6,2.6,0,0,1,.4-1.36,2.64,2.64,0,0,1,1-1,2.7,2.7,0,0,1,1.36-.35,2.66,2.66,0,0,1,1.36.39,2.71,2.71,0,0,1,1,1,2.59,2.59,0,0,1,.35,1.37,2.72,2.72,0,0,1-.39,1.36,2.87,2.87,0,0,1-1,1,2.61,2.61,0,0,1-1.36.35,2.72,2.72,0,0,1-1.37-.39,2.79,2.79,0,0,1-1-1A2.62,2.62,0,0,1,243.54,166.06Zm1.19,0a1.48,1.48,0,0,0,.2.77,1.53,1.53,0,0,0,.55.55,1.44,1.44,0,0,0,.78.22,1.49,1.49,0,0,0,.77-.19,1.58,1.58,0,0,0,.58-.54,1.53,1.53,0,0,0,.22-.76,1.45,1.45,0,0,0-.2-.77,1.61,1.61,0,0,0-1.33-.77,1.58,1.58,0,0,0-1.35.73A1.43,1.43,0,0,0,244.73,166.08Z"/><path class="cls-2" d="M248.85,169.87l-.1,1.29-.6,0a1.8,1.8,0,0,1,.45.71,2.06,2.06,0,0,1,.11.91,2.33,2.33,0,0,1-.34,1.06,2,2,0,0,1-.8.76,2.07,2.07,0,0,1-1.14.21l-3.26-.25.1-1.3,2.92.23a1.32,1.32,0,0,0,.67-.1,1.07,1.07,0,0,0,.47-.39,1.15,1.15,0,0,0,.2-.58,1.23,1.23,0,0,0-.62-1.19,1.57,1.57,0,0,0-.72-.23l-2.73-.21.11-1.3Z"/><path class="cls-2" d="M242.66,177.51a3.61,3.61,0,0,1,.31-1,4.65,4.65,0,0,1,.63-1l1.29.19a4.78,4.78,0,0,0-.69.91,3,3,0,0,0-.43,1.12,1.62,1.62,0,0,0,0,.44.61.61,0,0,0,.11.32.32.32,0,0,0,.25.15.42.42,0,0,0,.42-.23,5.35,5.35,0,0,0,.44-.94,3.39,3.39,0,0,1,.76-1.32,1.23,1.23,0,0,1,1.05-.3,1.43,1.43,0,0,1,.82.41,1.77,1.77,0,0,1,.44.86,3,3,0,0,1,0,1.13,3.35,3.35,0,0,1-.32,1,6,6,0,0,1-.55.9l-1.16-.17a4.55,4.55,0,0,0,.65-1,3.39,3.39,0,0,0,.28-.9,1.76,1.76,0,0,0,0-.46.63.63,0,0,0-.14-.32.34.34,0,0,0-.57,0,2.77,2.77,0,0,0-.3.64c0,.08-.07.16-.1.25s-.06.18-.1.27a2.83,2.83,0,0,1-.82,1.2,1.33,1.33,0,0,1-1.05.26,1.29,1.29,0,0,1-1.09-.82A2.78,2.78,0,0,1,242.66,177.51Z"/><path class="cls-2" d="M241.71,182.72a2.63,2.63,0,0,1,.65-1.26,2.81,2.81,0,0,1,1.19-.75,2.72,2.72,0,0,1,2.67.58,2.74,2.74,0,0,1,.76,1.18,2.59,2.59,0,0,1,.07,1.41,2.56,2.56,0,0,1-.65,1.25,2.68,2.68,0,0,1-1.19.76,2.57,2.57,0,0,1-1.4.08,2.71,2.71,0,0,1-1.27-.65,2.89,2.89,0,0,1-.76-1.19A2.6,2.6,0,0,1,241.71,182.72Zm1.16.25a1.41,1.41,0,0,0,0,.79,1.57,1.57,0,0,0,.44.66,1.46,1.46,0,0,0,.71.36,1.55,1.55,0,0,0,.8,0,1.47,1.47,0,0,0,.67-.42,1.4,1.4,0,0,0,.37-.7,1.45,1.45,0,0,0-.05-.8,1.6,1.6,0,0,0-.44-.65,1.5,1.5,0,0,0-.71-.36,1.55,1.55,0,0,0-.8,0,1.49,1.49,0,0,0-1,1.12Z"/><path class="cls-2" d="M247.72,188l-.34,1.25-6.75-1.84.33-1.24Z"/><path class="cls-2" d="M239.52,190.76a2.78,2.78,0,0,1,.78-1.2,2.67,2.67,0,0,1,1.26-.62A2.71,2.71,0,0,1,243,189a2.58,2.58,0,0,1,1.19.78,2.78,2.78,0,0,1,.63,1.26,2.65,2.65,0,0,1-.73,2.47,2.61,2.61,0,0,1-1.05.65,2.76,2.76,0,0,1-1.24.13,2.47,2.47,0,0,1-1-.3l1.29-3.92a1.43,1.43,0,0,0-.66.08,1.24,1.24,0,0,0-.51.37,1.66,1.66,0,0,0-.33.58,1.89,1.89,0,0,0-.09.75,1.66,1.66,0,0,0,.19.71l-.65,1a2.46,2.46,0,0,1-.64-1.3A3.07,3.07,0,0,1,239.52,190.76Zm2.64,2.35a1.38,1.38,0,0,0,1.12-.43,1.41,1.41,0,0,0,.35-.58,1.62,1.62,0,0,0,.07-.68,1.4,1.4,0,0,0-.22-.6,1.56,1.56,0,0,0-.43-.42Z"/><path class="cls-2" d="M27.88,199.18l-.5-2.35,6.08-3.4-6.95-.59L26,190.49l7.59-1.64.31,1.41-6.22,1.34,6.63.56.45,2.08L29,197.46l6.18-1.34.31,1.41Z"/><path class="cls-2" d="M33.23,185.74a2.8,2.8,0,0,1-.19,1.58,1.53,1.53,0,0,1-1.3.88,1.64,1.64,0,0,1-1-.12,1.67,1.67,0,0,1-.72-.72,3.79,3.79,0,0,1-.38-1.23l-.26-1.71-.32.05a.71.71,0,0,0-.6.45,1.82,1.82,0,0,0-.06,1,2.1,2.1,0,0,0,.28.81.86.86,0,0,0,.61.37l.22,1.36a1.65,1.65,0,0,1-1.07-.21,2.34,2.34,0,0,1-.81-.84,3.68,3.68,0,0,1-.44-1.27,3.8,3.8,0,0,1,0-1.35,2.58,2.58,0,0,1,.51-1.08,1.58,1.58,0,0,1,.95-.52l4-.61.21,1.35-.73.11a2,2,0,0,1,.67.64A2.51,2.51,0,0,1,33.23,185.74Zm-1.18.06a1.9,1.9,0,0,0-.32-.8,2.07,2.07,0,0,0-.63-.59,1.23,1.23,0,0,0-.77-.14l.23,1.44a1.88,1.88,0,0,0,.21.68.8.8,0,0,0,.36.35.67.67,0,0,0,.87-.33A1.12,1.12,0,0,0,32.05,185.8Z"/><path class="cls-2" d="M26.66,182.05l-.14-1.44.66-.07a2.09,2.09,0,0,1-.64-.68,2.46,2.46,0,0,1-.3-1,2.69,2.69,0,0,1,.16-1.23,2.23,2.23,0,0,1,.72-1,2.35,2.35,0,0,1,1.21-.46l3.61-.37.15,1.44-3.24.33a1.53,1.53,0,0,0-.71.24,1.22,1.22,0,0,0-.44.52,1.41,1.41,0,0,0,.19,1.4,1.31,1.31,0,0,0,.63.45,1.75,1.75,0,0,0,.83.1l3-.3.14,1.43Z"/><path class="cls-2" d="M31.85,172.8a2.85,2.85,0,0,1-.34,1.56,1.57,1.57,0,0,1-1.38.75,1.79,1.79,0,0,1-1-.23,1.69,1.69,0,0,1-.64-.79,3.56,3.56,0,0,1-.26-1.26l-.09-1.73-.32,0a.69.69,0,0,0-.64.39,1.77,1.77,0,0,0-.16.94,2.07,2.07,0,0,0,.2.83.84.84,0,0,0,.58.43l.08,1.37a1.69,1.69,0,0,1-1.05-.31,2.32,2.32,0,0,1-.72-.92,3.76,3.76,0,0,1-.14-2.64,2.48,2.48,0,0,1,.62-1,1.49,1.49,0,0,1,1-.43l4.06-.21.07,1.36-.73,0a2.26,2.26,0,0,1,.6.7A2.49,2.49,0,0,1,31.85,172.8Zm-1.18-.06a1.8,1.8,0,0,0-.24-.83,2,2,0,0,0-.57-.64,1.13,1.13,0,0,0-.74-.22l.07,1.46a2.08,2.08,0,0,0,.15.69.85.85,0,0,0,.32.39.6.6,0,0,0,.44.07.58.58,0,0,0,.46-.31A1.21,1.21,0,0,0,30.67,172.74Z"/><path class="cls-2" d="M34.11,165.48a3.43,3.43,0,0,1-.24,1.28,2.74,2.74,0,0,1-.76,1,2.83,2.83,0,0,1-1.25.62V167a1.29,1.29,0,0,0,.54-.36,1.45,1.45,0,0,0,.29-.53,2,2,0,0,0,.09-.59,1.79,1.79,0,0,0-.17-.78,1.29,1.29,0,0,0-.53-.53,1.94,1.94,0,0,0-.88-.18h-.39a2.34,2.34,0,0,1,.5.76,2.66,2.66,0,0,1,.18,1,2.92,2.92,0,0,1-.39,1.5,2.81,2.81,0,0,1-1.07,1,3,3,0,0,1-1.5.38A3,3,0,0,1,27,168.3,2.84,2.84,0,0,1,26,167.25a2.88,2.88,0,0,1-.37-1.48,2.65,2.65,0,0,1,.2-1,2.44,2.44,0,0,1,.54-.77h-.64v-1.44h5.5a3,3,0,0,1,1.54.39,2.66,2.66,0,0,1,1,1.05A3,3,0,0,1,34.11,165.48Zm-3.9.15a1.67,1.67,0,0,0-.23-.85,1.54,1.54,0,0,0-.61-.63,1.57,1.57,0,0,0-.84-.24,1.53,1.53,0,0,0-.83.23,1.75,1.75,0,0,0-.61.63,1.79,1.79,0,0,0,0,1.72,1.7,1.7,0,0,0,.6.62,1.66,1.66,0,0,0,.84.23,1.64,1.64,0,0,0,.85-.23,1.56,1.56,0,0,0,.6-.62A1.73,1.73,0,0,0,30.21,165.63Z"/><path class="cls-2" d="M31.83,158.67a2.94,2.94,0,0,1-.49,1.51,3,3,0,0,1-5.57-1.83,2.82,2.82,0,0,1,.39-1.33,3.12,3.12,0,0,1,2.22-1.5,2.72,2.72,0,0,1,1.11,0l-.24,4.57a1.52,1.52,0,0,0,.68-.27,1.6,1.6,0,0,0,.45-.55,1.9,1.9,0,0,0,.17-.72,2.16,2.16,0,0,0-.11-.83,1.9,1.9,0,0,0-.42-.7l.41-1.25a2.55,2.55,0,0,1,1.06,1.2A3.34,3.34,0,0,1,31.83,158.67Zm-3.51-1.75a1.59,1.59,0,0,0-1.08.78,1.62,1.62,0,0,0-.2.73,1.85,1.85,0,0,0,.12.75,1.49,1.49,0,0,0,.41.57,1.48,1.48,0,0,0,.58.33Z"/><path class="cls-2" d="M32.62,149.66a2.87,2.87,0,0,1-.62,1.46,1.54,1.54,0,0,1-1.49.49,1.73,1.73,0,0,1-1-.41,1.56,1.56,0,0,1-.49-.89A3.58,3.58,0,0,1,29,149l.22-1.72-.32,0a.69.69,0,0,0-.69.27,1.84,1.84,0,0,0-.33.9,2,2,0,0,0,.06.85.84.84,0,0,0,.48.53l-.16,1.36a1.59,1.59,0,0,1-1-.49,2.23,2.23,0,0,1-.55-1,3.51,3.51,0,0,1-.07-1.34,3.67,3.67,0,0,1,.4-1.29,2.45,2.45,0,0,1,.79-.89,1.5,1.5,0,0,1,1.05-.24l4,.51-.17,1.35-.73-.09a2.09,2.09,0,0,1,.47.8A2.57,2.57,0,0,1,32.62,149.66Zm-1.16-.27a1.86,1.86,0,0,0-.09-.87,1.93,1.93,0,0,0-.44-.73,1.15,1.15,0,0,0-.69-.35l-.19,1.45a1.82,1.82,0,0,0,0,.71.83.83,0,0,0,.25.44.6.6,0,0,0,.42.15.59.59,0,0,0,.51-.23A1.15,1.15,0,0,0,31.46,149.39Z"/><path class="cls-2" d="M33.72,141.54a3.76,3.76,0,0,1-.15,1.64,1.87,1.87,0,0,1-.84,1,2,2,0,0,1-1.41.2L28.65,144,28.47,145l-1.22-.21.18-1-1.36-.23.24-1.4,1.35.23.3-1.72,1.22.21-.29,1.72,2.65.46a.65.65,0,0,0,.52-.12.92.92,0,0,0,.31-.57,2.55,2.55,0,0,0,0-1Z"/><path class="cls-2" d="M34.73,136.65a3.7,3.7,0,0,1-.22,1.64,1.8,1.8,0,0,1-.87,1,2,2,0,0,1-1.42.14l-2.65-.57-.22,1-1.21-.26.22-1L27,138.33l.29-1.39,1.35.28.36-1.71,1.21.26-.35,1.7,2.63.57a.64.64,0,0,0,.52-.1,1.05,1.05,0,0,0,.34-.56,2.47,2.47,0,0,0,0-1Z"/><path class="cls-2" d="M35.57,133.78a2.8,2.8,0,0,1-.79,1.38,1.55,1.55,0,0,1-1.54.31,1.78,1.78,0,0,1-.93-.53,1.62,1.62,0,0,1-.37-.94,3.67,3.67,0,0,1,.12-1.28l.43-1.68-.31-.08a.72.72,0,0,0-.72.18A1.85,1.85,0,0,0,31,132a2.1,2.1,0,0,0-.05.85.85.85,0,0,0,.42.59l-.33,1.33a1.54,1.54,0,0,1-.9-.61,2.16,2.16,0,0,1-.42-1.09,3.43,3.43,0,0,1,.09-1.34,3.79,3.79,0,0,1,.56-1.22,2.48,2.48,0,0,1,.9-.79,1.47,1.47,0,0,1,1.07-.11l3.93,1L36,131.92l-.71-.18a2,2,0,0,1,.37.85A2.55,2.55,0,0,1,35.57,133.78Zm-1.11-.4a2,2,0,0,0,0-.87,2,2,0,0,0-.35-.78,1.19,1.19,0,0,0-.65-.44l-.36,1.42a2.05,2.05,0,0,0-.07.71.88.88,0,0,0,.19.46.6.6,0,0,0,.4.2.58.58,0,0,0,.53-.16A1.17,1.17,0,0,0,34.46,133.38Z"/><path class="cls-2" d="M37.49,126.93a3,3,0,0,1-.84,1.34,3,3,0,0,1-1.39.72,3,3,0,0,1-1.56-.06,3.05,3.05,0,0,1-1.34-.85,3.18,3.18,0,0,1-.73-1.38,3,3,0,0,1,2.72-3.65l0,1.37a1.67,1.67,0,0,0-.86.34,1.58,1.58,0,0,0-.54,1.64,1.78,1.78,0,0,0,.43.77,1.75,1.75,0,0,0,.76.46,1.73,1.73,0,0,0,.9.05,1.85,1.85,0,0,0,.78-.39,1.63,1.63,0,0,0,.47-.75,1.45,1.45,0,0,0,0-.92,1.61,1.61,0,0,0-.5-.75l.74-1.16a3,3,0,0,1,1,1.44A2.85,2.85,0,0,1,37.49,126.93Z"/><path class="cls-2" d="M31.19,120.82l.5-1.36L35.93,121l-1.65-3.16.58-1.61,1.67,3.28,3.89-1.35-.57,1.58-2.73.89.51,1,1.36.49-.49,1.35Z"/><path class="cls-2" d="M41.65,115.43a3,3,0,0,1-1,1.26,3,3,0,0,1-3,.37,3,3,0,0,1-1.26-1,3.08,3.08,0,0,1-.59-1.45,3,3,0,0,1,.2-1.55,3,3,0,0,1,2-1.75,3,3,0,0,1,1.37,0,2.56,2.56,0,0,1,1,.41L38.73,116a1.49,1.49,0,0,0,.73,0,1.42,1.42,0,0,0,.6-.36,1.86,1.86,0,0,0,.41-.62,2.32,2.32,0,0,0,.17-.83,2.11,2.11,0,0,0-.15-.8l.8-1a2.6,2.6,0,0,1,.6,1.48A3.47,3.47,0,0,1,41.65,115.43Zm-2.72-2.82a1.4,1.4,0,0,0-.67,0,1.52,1.52,0,0,0-.61.33,1.64,1.64,0,0,0-.43.62,1.6,1.6,0,0,0,.05,1.42,1.46,1.46,0,0,0,.45.5Z"/><path class="cls-2" d="M37.74,109.41l.6-1.31.8.37a1.77,1.77,0,0,1-.34-1.07,2.4,2.4,0,0,1,.45-1.3l1.4.65a1.87,1.87,0,0,0-.51.93,1.41,1.41,0,0,0,.82,1.64l2.72,1.26-.61,1.31Z"/><path class="cls-2" d="M47.53,103.11a4.44,4.44,0,0,1-.72,1,5.06,5.06,0,0,1-1,.81l-1.28-.69a4.86,4.86,0,0,0,1.07-.67,3.59,3.59,0,0,0,.87-1,1.66,1.66,0,0,0,.17-.45.81.81,0,0,0,0-.38.37.37,0,0,0-.19-.25.5.5,0,0,0-.54.08,6.22,6.22,0,0,0-.81.82,3.9,3.9,0,0,1-1.29,1.08,1.37,1.37,0,0,1-1.21-.09,1.52,1.52,0,0,1-.7-.74,1.92,1.92,0,0,1-.14-1,3.38,3.38,0,0,1,.41-1.19,3.55,3.55,0,0,1,.72-1,6.15,6.15,0,0,1,.92-.73l1.14.62a4.93,4.93,0,0,0-1.06.82,3.75,3.75,0,0,0-.64.84,1.34,1.34,0,0,0-.17.47.69.69,0,0,0,0,.38.39.39,0,0,0,.19.24.37.37,0,0,0,.41,0,2.78,2.78,0,0,0,.55-.55,2.2,2.2,0,0,0,.2-.23l.22-.24a3.21,3.21,0,0,1,1.3-.94,1.51,1.51,0,0,1,1.19.13,1.45,1.45,0,0,1,.84,1.27A3.27,3.27,0,0,1,47.53,103.11Z"/><path class="cls-2" d="M50.31,98.25a2.65,2.65,0,0,1-.87.89,2.25,2.25,0,0,1-2.41,0l-3.11-1.88L44.67,96l2.78,1.68a1.5,1.5,0,0,0,.71.22,1.15,1.15,0,0,0,.66-.15,1.23,1.23,0,0,0,.49-.47,1.35,1.35,0,0,0,.21-.76,1.4,1.4,0,0,0-.23-.73,1.82,1.82,0,0,0-.61-.59l-2.59-1.56.74-1.23,5,3-.75,1.24-.56-.35a2.38,2.38,0,0,1,.09.93A2.47,2.47,0,0,1,50.31,98.25Z"/><path class="cls-2" d="M47.57,91.31l.79-1.2.74.49a1.77,1.77,0,0,1-.18-1.12,2.32,2.32,0,0,1,.64-1.21l1.29.85a1.88,1.88,0,0,0-.65.84,1.51,1.51,0,0,0,0,1,1.41,1.41,0,0,0,.61.78l2.5,1.66-.8,1.2Z"/><path class="cls-2" d="M51.6,87.56l-.6.83-1-.72.6-.83-.17-.12a1.84,1.84,0,0,1-.72-1,2,2,0,0,1,.12-1.32,3.52,3.52,0,0,1,1-1.34l.88.64a2.14,2.14,0,0,0-.66.71,1,1,0,0,0-.12.67.83.83,0,0,0,.31.48l.15.11,1-1.42,1,.72-1,1.42,3.78,2.68-.83,1.16Z"/><path class="cls-2" d="M59,85.53a2.85,2.85,0,0,1-1.28.94,1.57,1.57,0,0,1-1.54-.33,1.79,1.79,0,0,1-.63-.85,1.63,1.63,0,0,1,0-1,3.76,3.76,0,0,1,.63-1.12l1.06-1.37-.26-.2a.7.7,0,0,0-.73-.12,1.77,1.77,0,0,0-.74.61,2,2,0,0,0-.39.76.88.88,0,0,0,.15.7l-.83,1.09a1.61,1.61,0,0,1-.59-.92,2.35,2.35,0,0,1,0-1.17,3.39,3.39,0,0,1,.63-1.18,3.58,3.58,0,0,1,1-.91,2.53,2.53,0,0,1,1.14-.36,1.5,1.5,0,0,1,1,.32l3.21,2.5L60.06,84l-.58-.44a2,2,0,0,1,0,.92A2.54,2.54,0,0,1,59,85.53Zm-.86-.82a1.84,1.84,0,0,0,.36-.79,1.92,1.92,0,0,0,0-.86,1.16,1.16,0,0,0-.42-.65l-.89,1.15a2,2,0,0,0-.35.62.89.89,0,0,0,0,.51.66.66,0,0,0,.28.34.57.57,0,0,0,.56.06A1.14,1.14,0,0,0,58.11,84.71Z"/><path class="cls-2" d="M63.47,80a2.93,2.93,0,0,1-1.31.89A3,3,0,0,1,60.6,81a3.08,3.08,0,0,1-2.3-2,3.06,3.06,0,0,1-.11-1.56A2.91,2.91,0,0,1,58.87,76a2.88,2.88,0,0,1,1.5-.94,2.94,2.94,0,0,1,1.76.09l-.58,1.24a1.6,1.6,0,0,0-.92,0,1.47,1.47,0,0,0-.78.49,1.55,1.55,0,0,0-.37.8,1.62,1.62,0,0,0,.09.87,1.71,1.71,0,0,0,.51.74,1.76,1.76,0,0,0,.8.39,1.65,1.65,0,0,0,.88,0,1.53,1.53,0,0,0,.72-.49,1.45,1.45,0,0,0,.37-.84,1.66,1.66,0,0,0-.16-.9l1.14-.76a3,3,0,0,1,.35,1.72A2.93,2.93,0,0,1,63.47,80Z"/><path class="cls-2" d="M67.77,75.25a3,3,0,0,1-1.35.82,3,3,0,0,1-3.8-3.63,3,3,0,0,1,.75-1.37,2.86,2.86,0,0,1,1.16-.76,2.89,2.89,0,0,1,1.37-.15,2.93,2.93,0,0,1,1.29.45,2.73,2.73,0,0,1,.82.76l-3.15,3.31a1.51,1.51,0,0,0,.69.24,1.37,1.37,0,0,0,.69-.12,2.07,2.07,0,0,0,.6-.43,2.23,2.23,0,0,0,.46-.71,2.1,2.1,0,0,0,.14-.81l1.12-.68a2.64,2.64,0,0,1,0,1.6A3.42,3.42,0,0,1,67.77,75.25Zm-1.53-3.61a1.5,1.5,0,0,0-.64-.2,1.38,1.38,0,0,0-.69.09,1.59,1.59,0,0,0-.63.42,1.76,1.76,0,0,0-.39.65,1.59,1.59,0,0,0,.17,1.33Z"/><path class="cls-2" d="M140.38,28.47l3.38-.48a2.62,2.62,0,0,1,1.39.17,2.67,2.67,0,0,1,1.09.82,2.46,2.46,0,0,1,.53,1.25,2.53,2.53,0,0,1-1,2.43,2.78,2.78,0,0,1-1.31.53l-1.88.28L143,36l-1.48.21Zm3.83,3.41a1.27,1.27,0,0,0,.91-.51,1.31,1.31,0,0,0,.23-1,1.18,1.18,0,0,0-.49-.84,1.31,1.31,0,0,0-1-.21l-1.79.26.36,2.55Z"/><path class="cls-2" d="M147.81,29.38l1.43-.14.09.87a1.72,1.72,0,0,1,.75-.83,2.44,2.44,0,0,1,1.35-.28l.15,1.54a1.9,1.9,0,0,0-1.06,0,1.44,1.44,0,0,0-1,1.54l.3,3-1.44.14Z"/><path class="cls-2" d="M155.29,34.75a3,3,0,0,1-1.55-.32,3,3,0,0,1-1.64-2.53,3,3,0,0,1,.32-1.55,3.09,3.09,0,0,1,1-1.17,3,3,0,0,1,1.49-.49,2.75,2.75,0,0,1,1.36.25,3,3,0,0,1,1.1.82,3.05,3.05,0,0,1,.64,1.22,2.83,2.83,0,0,1,.07,1.11l-4.56.26a1.45,1.45,0,0,0,.34.65,1.47,1.47,0,0,0,.59.38,2,2,0,0,0,.73.1,2.42,2.42,0,0,0,.82-.21,1.89,1.89,0,0,0,.65-.49l1.29.27a2.62,2.62,0,0,1-1.08,1.19A3.39,3.39,0,0,1,155.29,34.75Zm1.36-3.68a1.48,1.48,0,0,0-.33-.58,1.37,1.37,0,0,0-.57-.4A1.5,1.5,0,0,0,155,30a1.55,1.55,0,0,0-.73.2,1.61,1.61,0,0,0-.53.47,1.63,1.63,0,0,0-.26.61Z"/><path class="cls-2" d="M158.53,28.6h1.53l1.53,4.94,1.46-5h1.53l-1.8,5.89-2.34,0Z"/><path class="cls-2" d="M167.91,34.64a3,3,0,0,1-1.52-.47,3.05,3.05,0,0,1-1-1.15,3.06,3.06,0,0,1,.13-3,3.08,3.08,0,0,1,1.15-1.06,2.91,2.91,0,0,1,1.53-.34,2.8,2.8,0,0,1,1.33.37,3,3,0,0,1,1,.93,3,3,0,0,1,.51,1.28,2.53,2.53,0,0,1,0,1.1l-4.57-.18a1.43,1.43,0,0,0,.28.68,1.33,1.33,0,0,0,.55.44,1.73,1.73,0,0,0,.72.16,2,2,0,0,0,.83-.12,2,2,0,0,0,.7-.42l1.25.39a2.6,2.6,0,0,1-1.19,1.07A3.41,3.41,0,0,1,167.91,34.64Zm1.7-3.53a1.45,1.45,0,0,0-.27-.61,1.54,1.54,0,0,0-.52-.46,1.61,1.61,0,0,0-.73-.19,1.65,1.65,0,0,0-.75.13,1.51,1.51,0,0,0-.57.42,1.58,1.58,0,0,0-.32.58Z"/><path class="cls-2" d="M172.22,28.87l1.44.13-.06.66a2.2,2.2,0,0,1,.79-.49,2.22,2.22,0,0,1,1-.11,2.71,2.71,0,0,1,1.18.39,2.25,2.25,0,0,1,.83.9,2.33,2.33,0,0,1,.22,1.27l-.33,3.62-1.43-.13.29-3.24a1.53,1.53,0,0,0-.1-.75,1.25,1.25,0,0,0-.43-.53,1.4,1.4,0,0,0-.64-.22,1.32,1.32,0,0,0-.77.14,1.52,1.52,0,0,0-.57.53,1.88,1.88,0,0,0-.25.8l-.27,3-1.44-.13Z"/><path class="cls-2" d="M182.1,35.84a3.86,3.86,0,0,1-1.65-.1,1.89,1.89,0,0,1-1.06-.8,2,2,0,0,1-.25-1.4l.37-2.69-1-.14.16-1.23,1.06.14.18-1.36,1.41.19-.18,1.36,1.72.23-.16,1.23L180.92,31l-.37,2.67a.67.67,0,0,0,.14.51,1,1,0,0,0,.58.29,2.46,2.46,0,0,0,1-.06Z"/><path class="cls-2" d="M287.57,104.74l1.19,2.59a4.06,4.06,0,0,1,.36,2,3.94,3.94,0,0,1-.69,1.9,3.74,3.74,0,0,1-1.57,1.31,3.86,3.86,0,0,1-3.88-.39,4,4,0,0,1-1.31-1.62l-1.19-2.6ZM282.94,110a2.72,2.72,0,0,0,.84,1.06,2.2,2.2,0,0,0,1.18.43,2.49,2.49,0,0,0,1.3-.24,2.66,2.66,0,0,0,1-.82,2.22,2.22,0,0,0,.44-1.18,2.55,2.55,0,0,0-.25-1.33l-.56-1.23-4.55,2.08Z"/><path class="cls-2" d="M284.6,117.65a2.86,2.86,0,0,1-.18-1.58,3,3,0,0,1,.63-1.43,3.12,3.12,0,0,1,1.26-.92,3,3,0,0,1,3,.46,3,3,0,0,1,1.12,2.63,3.19,3.19,0,0,1-.44,1.3,3,3,0,0,1-1,1,2.63,2.63,0,0,1-1,.42l-1.67-4.26a1.52,1.52,0,0,0-.51.53,1.29,1.29,0,0,0-.18.67,1.85,1.85,0,0,0,.13.73,2.51,2.51,0,0,0,.45.71,2,2,0,0,0,.67.47l.14,1.31a2.62,2.62,0,0,1-1.46-.66A3.34,3.34,0,0,1,284.6,117.65Zm3.91.14a1.55,1.55,0,0,0,.46-.49,1.82,1.82,0,0,0,.21-.67,2,2,0,0,0-.12-.74,1.61,1.61,0,0,0-.43-.64,1.66,1.66,0,0,0-.6-.35,1.71,1.71,0,0,0-.67-.05Z"/><path class="cls-2" d="M287.35,124.88a3.56,3.56,0,0,1-.65-1.52,1.88,1.88,0,0,1,.23-1.31,2,2,0,0,1,1.15-.84l2.56-.87-.34-1,1.17-.4.35,1,1.3-.44.46,1.34-1.3.45.57,1.65-1.18.4-.56-1.65-2.56.87a.64.64,0,0,0-.39.35.9.9,0,0,0,0,.65,2.41,2.41,0,0,0,.51.88Z"/><path class="cls-2" d="M288.25,128.28a2.93,2.93,0,0,1-.05-1.58,3,3,0,0,1,.75-1.37,3.11,3.11,0,0,1,2.92-.86,3.06,3.06,0,0,1,1.38.75,3,3,0,0,1,.82,1.33,3,3,0,0,1,.07,1.39,3.1,3.1,0,0,1-.55,1.26,3,3,0,0,1-1,.89,2.72,2.72,0,0,1-1.06.33L290.18,126a1.51,1.51,0,0,0-.55.48,1.41,1.41,0,0,0-.23.66,1.87,1.87,0,0,0,.07.74,2.24,2.24,0,0,0,.39.75,2,2,0,0,0,.63.52l0,1.31a2.58,2.58,0,0,1-1.4-.77A3.46,3.46,0,0,1,288.25,128.28Zm3.89.48a1.53,1.53,0,0,0,.49-.46,1.45,1.45,0,0,0,.26-.64,1.49,1.49,0,0,0-.05-.75,1.62,1.62,0,0,0-.37-.67,1.48,1.48,0,0,0-.57-.4,1.4,1.4,0,0,0-.66-.11Z"/><path class="cls-2" d="M290,134.7A3,3,0,0,1,292.2,131a3,3,0,0,1,1.59,0,3,3,0,0,1,1.33.81,2.85,2.85,0,0,1,.75,1.37,2.81,2.81,0,0,1-.11,1.77,2.9,2.9,0,0,1-1.09,1.38l-.67-1.19a1.67,1.67,0,0,0,.56-.73,1.62,1.62,0,0,0-.38-1.69,1.69,1.69,0,0,0-.76-.43,1.72,1.72,0,0,0-.9,0,1.65,1.65,0,0,0-.78.42,1.67,1.67,0,0,0-.48.74,1.64,1.64,0,0,0,0,.88,1.56,1.56,0,0,0,.47.79,1.79,1.79,0,0,0,.82.39l0,1.37a3,3,0,0,1-1.6-.72A2.86,2.86,0,0,1,290,134.7Z"/><path class="cls-2" d="M291.69,142a3.63,3.63,0,0,1-.45-1.59,1.9,1.9,0,0,1,.41-1.27,2,2,0,0,1,1.25-.68l2.66-.53-.21-1,1.22-.24.2,1,1.35-.27.28,1.39-1.35.27.35,1.71-1.22.25-.34-1.71-2.65.52a.6.6,0,0,0-.43.29,1,1,0,0,0-.09.65,2.44,2.44,0,0,0,.39.94Z"/><path class="cls-2" d="M73.5,262l2.58,2.28a2.7,2.7,0,0,1,.88,2.56,2.51,2.51,0,0,1-2.4,2.07,2.33,2.33,0,0,1-1-.16L73,272,71.78,271l.55-3.09-1.13-1-1.77,2-1.14-1Zm0,5.17a1.33,1.33,0,0,0,.93.34,1.3,1.3,0,0,0,1.2-1.34,1.23,1.23,0,0,0-.44-.87L73.73,264l-1.66,1.89Z"/><path class="cls-2" d="M76,274.59a3,3,0,0,1-1-1.29,3.12,3.12,0,0,1-.17-1.57,3.13,3.13,0,0,1,1.93-2.41,3.11,3.11,0,0,1,1.57-.17,3,3,0,0,1,1.45.63,2.9,2.9,0,0,1,.87,1.1,3.09,3.09,0,0,1,.28,1.37,3,3,0,0,1-.35,1.35,2.55,2.55,0,0,1-.69.88l-3.62-2.88a1.38,1.38,0,0,0-.18.72,1.31,1.31,0,0,0,.19.69,1.87,1.87,0,0,0,.48.57,2.2,2.2,0,0,0,.76.39,2,2,0,0,0,.82.08l.79,1.07a2.63,2.63,0,0,1-1.61.16A3.26,3.26,0,0,1,76,274.59Zm3.51-1.86a1.66,1.66,0,0,0,.14-.66,1.59,1.59,0,0,0-.16-.7,1.57,1.57,0,0,0-.48-.59,1.85,1.85,0,0,0-.69-.34,1.7,1.7,0,0,0-.71,0,1.57,1.57,0,0,0-.61.29Z"/><path class="cls-2" d="M81.42,278.66a4.41,4.41,0,0,1-.88-.85,5.13,5.13,0,0,1-.68-1.15l.86-1.19a5.59,5.59,0,0,0,.54,1.16,3.4,3.4,0,0,0,.91,1,1.55,1.55,0,0,0,.43.24.85.85,0,0,0,.38.05.38.38,0,0,0,.28-.17.48.48,0,0,0,0-.54,4.64,4.64,0,0,0-.71-.92,3.89,3.89,0,0,1-.92-1.45,1.36,1.36,0,0,1,.25-1.2,1.57,1.57,0,0,1,.83-.61,1.89,1.89,0,0,1,1.08,0,3.35,3.35,0,0,1,1.14.56,3.71,3.71,0,0,1,.87.85,6.4,6.4,0,0,1,.61,1l-.77,1.06a5.15,5.15,0,0,0-.68-1.17,4.1,4.1,0,0,0-.76-.75,1.66,1.66,0,0,0-.45-.24.9.9,0,0,0-.39,0,.43.43,0,0,0-.26.17.36.36,0,0,0,0,.41,3.06,3.06,0,0,0,.48.63c.07.08.13.16.2.23s.15.16.22.25a3.25,3.25,0,0,1,.78,1.43,1.53,1.53,0,0,1-.29,1.18,1.46,1.46,0,0,1-1.38.67A3.2,3.2,0,0,1,81.42,278.66Z"/><path class="cls-2" d="M87.69,275.71l1.23.8-.35.53a2.34,2.34,0,0,1,1,0,2.36,2.36,0,0,1,.94.38,2.81,2.81,0,0,1,1,1.15,3.11,3.11,0,0,1,.3,1.54,3,3,0,0,1-.5,1.5,3.06,3.06,0,0,1-1.18,1.08,3,3,0,0,1-1.51.35,2.87,2.87,0,0,1-1.46-.47,2.61,2.61,0,0,1-.73-.71A2.39,2.39,0,0,1,86,281l-1.64,2.53-1.23-.79Zm0,5.67a1.71,1.71,0,0,0,1.73.07,1.68,1.68,0,0,0,.66-.61,1.75,1.75,0,0,0,.12-1.73,1.68,1.68,0,0,0-1.47-.95,1.87,1.87,0,0,0-.89.2,1.59,1.59,0,0,0-.67.59,1.62,1.62,0,0,0-.27.86,1.83,1.83,0,0,0,.19.89A1.63,1.63,0,0,0,87.73,281.38Z"/><path class="cls-2" d="M93.14,286.23A3,3,0,0,1,92,285.1a3.18,3.18,0,0,1-.4-1.53A3,3,0,0,1,92,282a3.06,3.06,0,0,1,1.13-1.13,3.12,3.12,0,0,1,1.52-.41,2.92,2.92,0,0,1,1.54.41A3,3,0,0,1,97.34,282a3.12,3.12,0,0,1,.4,1.53,2.92,2.92,0,0,1-.4,1.53,3,3,0,0,1-1.13,1.13,3.19,3.19,0,0,1-1.53.41A2.89,2.89,0,0,1,93.14,286.23Zm.67-1.16a1.57,1.57,0,0,0,.86.23,1.85,1.85,0,0,0,.86-.24,1.76,1.76,0,0,0,.63-.64,1.68,1.68,0,0,0,.24-.87,1.83,1.83,0,0,0-.22-.86,1.66,1.66,0,0,0-.63-.63,1.56,1.56,0,0,0-.86-.22,1.78,1.78,0,0,0-.85.24,1.79,1.79,0,0,0-.87,1.5,1.72,1.72,0,0,0,.22.86A1.57,1.57,0,0,0,93.81,285.07Z"/><path class="cls-2" d="M99.61,283l1.3.67-.3.6a2,2,0,0,1,.92-.16,2.38,2.38,0,0,1,1,.27,2.63,2.63,0,0,1,1,.82,2.26,2.26,0,0,1,.44,1.15,2.42,2.42,0,0,1-.28,1.29L102,290.86l-1.3-.67,1.5-2.93a1.61,1.61,0,0,0,.19-.75,1.22,1.22,0,0,0-.21-.65,1.43,1.43,0,0,0-1.29-.61,1.43,1.43,0,0,0-.73.28,1.85,1.85,0,0,0-.54.66l-1.4,2.73-1.3-.66Z"/><path class="cls-2" d="M105.76,292.69a2.71,2.71,0,0,1-1.17-1,3.08,3.08,0,0,1-.53-1.47,3,3,0,0,1,.25-1.56,3.07,3.07,0,0,1,1-1.25,3,3,0,0,1,1.44-.58,2.75,2.75,0,0,1,1.52.23,2.41,2.41,0,0,1,.83.59,2.31,2.31,0,0,1,.49.83l1-2.35,1.33.6-3.21,7.18-1.33-.59.26-.59a2.49,2.49,0,0,1-.94.17A2.42,2.42,0,0,1,105.76,292.69Zm.67-1.14a1.56,1.56,0,0,0,.88.13,1.89,1.89,0,0,0,.85-.33,1.68,1.68,0,0,0,.58-.69,1.79,1.79,0,0,0,.13-.89,2,2,0,0,0-.32-.85,1.59,1.59,0,0,0-.69-.57,1.75,1.75,0,0,0-.9-.15,1.73,1.73,0,0,0-.83.33,1.87,1.87,0,0,0-.57.71,2,2,0,0,0-.15.89,1.76,1.76,0,0,0,.31.84A1.63,1.63,0,0,0,106.43,291.55Z"/><path class="cls-2" d="M217.41,285l1.38-.64,3.31,7.14-1.38.64Z"/><path class="cls-2" d="M220.76,285.61l1.3-.66.31.6a2.16,2.16,0,0,1,.41-.85,2.48,2.48,0,0,1,.81-.64,2.79,2.79,0,0,1,1.22-.31,2.31,2.31,0,0,1,1.2.33,2.38,2.38,0,0,1,.88,1l1.66,3.28-1.3.66-1.49-2.93a1.54,1.54,0,0,0-.5-.59,1.18,1.18,0,0,0-.65-.22,1.28,1.28,0,0,0-.66.15,1.35,1.35,0,0,0-.59.54,1.51,1.51,0,0,0-.2.76,1.92,1.92,0,0,0,.21.82l1.4,2.74-1.31.66Z"/><path class="cls-2" d="M226.41,282.72l1.34-.77,3.81,3.61-1.18-5.11,1.34-.78,1.34,6.11L231,287Z"/><path class="cls-2" d="M237.92,282.89a2.92,2.92,0,0,1-1.53.49,3,3,0,0,1-1.54-.35,3.08,3.08,0,0,1-1.31-4.14,3.09,3.09,0,0,1,2.39-1.64,3.3,3.3,0,0,1,1.39.18,3,3,0,0,1,1.16.77,2.79,2.79,0,0,1,.62.94l-3.9,2.5a1.54,1.54,0,0,0,.62.4,1.42,1.42,0,0,0,.71,0,1.75,1.75,0,0,0,.7-.28,2.14,2.14,0,0,0,.61-.59,1.75,1.75,0,0,0,.34-.75l1.27-.4a2.7,2.7,0,0,1-.36,1.58A3.44,3.44,0,0,1,237.92,282.89Zm-.63-3.92a1.61,1.61,0,0,0-.58-.35,1.63,1.63,0,0,0-.7-.08,1.77,1.77,0,0,0-.72.27,1.74,1.74,0,0,0-.54.54,1.57,1.57,0,0,0-.23.68,1.49,1.49,0,0,0,.08.67Z"/><path class="cls-2" d="M243.52,279.11a4.16,4.16,0,0,1-1.09.56,5.72,5.72,0,0,1-1.31.28l-.85-1.2a5.58,5.58,0,0,0,1.27-.14,3.5,3.5,0,0,0,1.24-.53,2,2,0,0,0,.36-.33,1.06,1.06,0,0,0,.18-.35.41.41,0,0,0-.07-.32.5.5,0,0,0-.52-.16,5.56,5.56,0,0,0-1.11.38,3.76,3.76,0,0,1-1.65.4,1.37,1.37,0,0,1-1.07-.62,1.6,1.6,0,0,1-.3-1,1.93,1.93,0,0,1,.35-1,3.35,3.35,0,0,1,.9-.9,3.45,3.45,0,0,1,1.08-.55,6.22,6.22,0,0,1,1.17-.25l.76,1.07a5,5,0,0,0-1.34.27,4.42,4.42,0,0,0-1,.47,1.59,1.59,0,0,0-.37.36.7.7,0,0,0-.15.35.41.41,0,0,0,.07.31.38.38,0,0,0,.39.15,2.9,2.9,0,0,0,.75-.26l.28-.11a2.08,2.08,0,0,1,.3-.13,3.2,3.2,0,0,1,1.61-.27,1.5,1.5,0,0,1,1,.65,1.48,1.48,0,0,1,.2,1.53A3.3,3.3,0,0,1,243.52,279.11Z"/><path class="cls-2" d="M249.5,274.45a3.61,3.61,0,0,1-1.25,1.12,1.87,1.87,0,0,1-1.33.21,2.11,2.11,0,0,1-1.19-.83l-1.66-2.18-.86.66-.77-1,.86-.66-.86-1.11,1.14-.88.85,1.11,1.4-1.08.77,1-1.4,1.08,1.66,2.17a.68.68,0,0,0,.47.26,1,1,0,0,0,.63-.21,2.7,2.7,0,0,0,.67-.78Z"/><path class="cls-2" d="M246.86,268.13a.83.83,0,0,1-.67.21.86.86,0,0,1-.62-.33.89.89,0,0,1-.2-.67.88.88,0,0,1,.34-.61.83.83,0,0,1,.67-.21.88.88,0,0,1,.62.32.89.89,0,0,1,.2.68A.9.9,0,0,1,246.86,268.13Zm-.16,1,1.12-.92,3.78,4.6-1.12.92Z"/><path class="cls-2" d="M256.79,271.73a3.38,3.38,0,0,1-1.13.68,3,3,0,0,1-1.3.13,2.91,2.91,0,0,1-1.31-.54l1.09-1a1.25,1.25,0,0,0,.64.17,1.45,1.45,0,0,0,.59-.13,2.23,2.23,0,0,0,.51-.33,1.86,1.86,0,0,0,.48-.66,1.2,1.2,0,0,0,0-.75,1.85,1.85,0,0,0-.44-.79l-.27-.31a2.41,2.41,0,0,1-.24.9,3,3,0,0,1-2,1.52,2.88,2.88,0,0,1-1.51-.11,3.11,3.11,0,0,1-1.29-.88,3.07,3.07,0,0,1-.72-1.41,2.83,2.83,0,0,1,1-2.79,2.51,2.51,0,0,1,.89-.51,2.34,2.34,0,0,1,1-.11l-.44-.49,1.1-1,3.7,4.17a3.08,3.08,0,0,1,.74,1.43,2.79,2.79,0,0,1-.11,1.49A3,3,0,0,1,256.79,271.73Zm-2.73-2.86a1.69,1.69,0,0,0,.49-.74,1.79,1.79,0,0,0,.07-.89,1.55,1.55,0,0,0-.39-.8,1.57,1.57,0,0,0-.73-.47,1.68,1.68,0,0,0-.89,0,1.75,1.75,0,0,0-.8.41,1.77,1.77,0,0,0-.5.74,1.65,1.65,0,0,0-.06.88,1.55,1.55,0,0,0,.39.79,1.61,1.61,0,0,0,.74.49,1.73,1.73,0,0,0,1.68-.37Z"/><path class="cls-2" d="M260,265.35a3,3,0,0,1-1.41.78,1.6,1.6,0,0,1-1.5-.54,1.77,1.77,0,0,1-.52-.95,1.68,1.68,0,0,1,.16-1,3.77,3.77,0,0,1,.78-1l1.25-1.23-.22-.24a.75.75,0,0,0-.73-.22,1.91,1.91,0,0,0-.82.51,2.07,2.07,0,0,0-.49.71.85.85,0,0,0,.06.73l-1,1a1.6,1.6,0,0,1-.46-1,2.2,2.2,0,0,1,.21-1.16,3.55,3.55,0,0,1,.78-1.12,3.84,3.84,0,0,1,1.13-.77,2.55,2.55,0,0,1,1.19-.21,1.53,1.53,0,0,1,1,.46l2.89,2.94-1,1-.52-.53a2.16,2.16,0,0,1-.12.93A2.59,2.59,0,0,1,260,265.35Zm-.75-.94a2,2,0,0,0,.47-.74,2,2,0,0,0,.1-.86,1.15,1.15,0,0,0-.33-.72l-1.06,1a2,2,0,0,0-.42.58.84.84,0,0,0-.08.5.53.53,0,0,0,.24.38.56.56,0,0,0,.54.14A1.18,1.18,0,0,0,259.25,264.41Z"/><path class="cls-2" d="M265.94,259a3.79,3.79,0,0,1-1.05,1.3,1.88,1.88,0,0,1-1.28.42,2.07,2.07,0,0,1-1.31-.62l-2-1.88-.73.78-.92-.86.73-.78-1-.95,1-1.06,1,.95,1.21-1.29.92.86-1.21,1.29,2,1.88a.68.68,0,0,0,.5.18,1,1,0,0,0,.59-.31,2.46,2.46,0,0,0,.54-.88Z"/><path class="cls-2" d="M268.63,256.13a3.08,3.08,0,0,1-1.32.91,3.15,3.15,0,0,1-1.58.11,3,3,0,0,1-1.43-.69,3,3,0,0,1-.91-1.32,3.26,3.26,0,0,1-.12-1.58,3,3,0,0,1,.69-1.43,2.89,2.89,0,0,1,1.13-.83,3.17,3.17,0,0,1,2.71.17,2.84,2.84,0,0,1,.87.72l-3,3.52a1.65,1.65,0,0,0,.72.21,1.52,1.52,0,0,0,.69-.16,2,2,0,0,0,.59-.47,2.5,2.5,0,0,0,.42-.75,1.93,1.93,0,0,0,.1-.82l1.1-.74a2.64,2.64,0,0,1,.11,1.61A3.53,3.53,0,0,1,268.63,256.13Zm-1.74-3.57a1.46,1.46,0,0,0-.65-.17,1.56,1.56,0,0,0-.7.13,1.64,1.64,0,0,0-.61.46,1.66,1.66,0,0,0-.36.68,1.43,1.43,0,0,0,0,.71,1.65,1.65,0,0,0,.27.62Z"/><path class="cls-2" d="M118,234.85l2.63,1.58a2.26,2.26,0,0,1,.88.91,2.47,2.47,0,0,1,.3,1.19,2.41,2.41,0,0,1-1.22,2,2.31,2.31,0,0,1-1.18.28,2.35,2.35,0,0,1-1.21-.37l-1.48-.88-1.17,1.94-1.16-.7Zm.74,4.56a1.13,1.13,0,0,0,.92.15,1.18,1.18,0,0,0,.73-.55,1.06,1.06,0,0,0,.13-.86,1.19,1.19,0,0,0-.59-.73l-1.4-.83-1.2,2Z"/><path class="cls-2" d="M122.33,245.44a2.75,2.75,0,0,1-1.19-3.68,2.58,2.58,0,0,1,.94-1,2.73,2.73,0,0,1,1.33-.44,2.57,2.57,0,0,1,1.38.29,2.61,2.61,0,0,1,1.06.94,2.79,2.79,0,0,1,.43,1.34,2.62,2.62,0,0,1-.28,1.38,2.57,2.57,0,0,1-1,1.06,2.8,2.8,0,0,1-1.34.44A2.56,2.56,0,0,1,122.33,245.44Zm.53-1.06a1.52,1.52,0,0,0,.78.15,1.56,1.56,0,0,0,.75-.25,1.62,1.62,0,0,0,.53-.6,1.55,1.55,0,0,0,.17-.79,1.66,1.66,0,0,0-.24-.75,1.45,1.45,0,0,0-.59-.53,1.34,1.34,0,0,0-.78-.15,1.57,1.57,0,0,0-1.44,1.63,1.58,1.58,0,0,0,.24.76A1.48,1.48,0,0,0,122.86,244.38Z"/><path class="cls-2" d="M127.52,242.07l1.21.49-.73,4.07,2.38-3.4,1.51.61-.66,4.11,2.3-3.45,1.21.5-3.16,4.43-1.6-.65.72-4.2-2.39,3.53-1.61-.65Z"/><path class="cls-2" d="M136.14,251a2.75,2.75,0,0,1-1.86-2,2.8,2.8,0,0,1,.06-1.41,2.69,2.69,0,0,1,.76-1.21,2.74,2.74,0,0,1,1.25-.65,2.7,2.7,0,0,1,1.41.05,2.6,2.6,0,0,1,1.07.64,2.56,2.56,0,0,1,.67,1,2.58,2.58,0,0,1,.15,1.23,2.45,2.45,0,0,1-.28,1l-3.94-1.22a1.21,1.21,0,0,0,.09.66,1.28,1.28,0,0,0,.37.5,1.77,1.77,0,0,0,.59.32,2.09,2.09,0,0,0,.75.08,1.68,1.68,0,0,0,.71-.21l1,.64a2.36,2.36,0,0,1-1.28.66A3.11,3.11,0,0,1,136.14,251Zm2.3-2.68a1.26,1.26,0,0,0-.09-.6,1.37,1.37,0,0,0-.35-.52,1.48,1.48,0,0,0-.59-.33,1.44,1.44,0,0,0-1.27.17,1.26,1.26,0,0,0-.42.44Z"/><path class="cls-2" d="M141.17,246.89l1.26.31-.19.76a1.62,1.62,0,0,1,.89-.48,2.05,2.05,0,0,1,1.23.17L144,249a1.63,1.63,0,0,0-.91-.29,1.29,1.29,0,0,0-1.31,1l-.64,2.62-1.26-.3Z"/><path class="cls-2" d="M146.4,253.55a2.58,2.58,0,0,1-1.29-.61,2.7,2.7,0,0,1-.8-1.17,2.79,2.79,0,0,1,.51-2.69,2.82,2.82,0,0,1,1.16-.8,2.71,2.71,0,0,1,1.41-.11,2.62,2.62,0,0,1,1.14.51,2.72,2.72,0,0,1,.79,1,2.65,2.65,0,0,1,.29,1.2,2.46,2.46,0,0,1-.17,1l-4.05-.75a1.24,1.24,0,0,0,.16.64,1.26,1.26,0,0,0,.43.46,1.67,1.67,0,0,0,.62.24,1.94,1.94,0,0,0,.76,0,1.66,1.66,0,0,0,.68-.28l1.07.51a2.39,2.39,0,0,1-1.2.8A3,3,0,0,1,146.4,253.55Zm2-2.93a1.37,1.37,0,0,0-.16-.58,1.57,1.57,0,0,0-.41-.48,1.62,1.62,0,0,0-.63-.26,1.6,1.6,0,0,0-.69,0,1.34,1.34,0,0,0-.55.3,1.38,1.38,0,0,0-.36.48Z"/><path class="cls-2" d="M152.65,254.48a2.54,2.54,0,0,1-1.25-.53,2.85,2.85,0,0,1-.83-1.11,2.64,2.64,0,0,1-.19-1.39,2.72,2.72,0,0,1,.52-1.33,2.58,2.58,0,0,1,1.07-.87,2.5,2.5,0,0,1,1.35-.2,2.18,2.18,0,0,1,.86.28,2.21,2.21,0,0,1,.64.58l.27-2.26,1.29.15-.85,6.95-1.29-.16.07-.56a2.21,2.21,0,0,1-.75.38A2.1,2.1,0,0,1,152.65,254.48Zm.28-1.15a1.32,1.32,0,0,0,.78-.12,1.64,1.64,0,0,0,.64-.5,1.42,1.42,0,0,0,.3-.74,1.36,1.36,0,0,0-.12-.79,1.62,1.62,0,0,0-.49-.64,1.43,1.43,0,0,0-.73-.3,1.47,1.47,0,0,0-.81.11,1.51,1.51,0,0,0-.62.5,1.54,1.54,0,0,0-.29.75,1.51,1.51,0,0,0,.1.79,1.48,1.48,0,0,0,.48.63A1.4,1.4,0,0,0,152.93,253.33Z"/><path class="cls-2" d="M163.06,255.06a2.2,2.2,0,0,1-1.58-.65V255h-1.3v-7h1.3v2.29a2.23,2.23,0,0,1,.69-.49,2.18,2.18,0,0,1,.89-.19,2.49,2.49,0,0,1,1.34.35,2.61,2.61,0,0,1,.95,1,2.83,2.83,0,0,1,.34,1.39,2.77,2.77,0,0,1-.34,1.36,2.56,2.56,0,0,1-2.29,1.37Zm-.12-1.17a1.47,1.47,0,0,0,.77-.22,1.53,1.53,0,0,0,.56-.57,1.54,1.54,0,0,0,0-1.55,1.61,1.61,0,0,0-.56-.57,1.49,1.49,0,0,0-.77-.21,1.46,1.46,0,0,0-.77.21,1.59,1.59,0,0,0-.57.58,1.49,1.49,0,0,0-.21.77,1.51,1.51,0,0,0,.21.77,1.56,1.56,0,0,0,.57.57A1.38,1.38,0,0,0,162.94,253.89Z"/><path class="cls-2" d="M168.42,254.77l-2.56-5.1,1.37-.1,1.74,3.67,1.14-3.87,1.36-.09-2.42,7.58-1.33.1Z"/><path class="cls-2" d="M174.71,247.12l1.33-.21,1.07,6.92-1.33.2Z"/><path class="cls-2" d="M177.45,248.43l1.27-.26.12.58a2.05,2.05,0,0,1,.55-.63,2.25,2.25,0,0,1,.85-.36,2.36,2.36,0,0,1,1.12,0,2,2,0,0,1,.95.55,2.1,2.1,0,0,1,.52,1l.67,3.2-1.27.27-.6-2.87a1.37,1.37,0,0,0-.29-.62,1.12,1.12,0,0,0-.5-.34,1.15,1.15,0,0,0-.61,0,1.26,1.26,0,0,0-.63.32,1.4,1.4,0,0,0-.35.6,1.77,1.77,0,0,0,0,.76l.56,2.68-1.27.26Z"/><path class="cls-2" d="M187,251.73a3.81,3.81,0,0,1-1.08.14,4.5,4.5,0,0,1-1.17-.16l-.36-1.26a4.53,4.53,0,0,0,1.11.26,3,3,0,0,0,1.2-.07,1.46,1.46,0,0,0,.4-.17.7.7,0,0,0,.25-.23.33.33,0,0,0,0-.29.43.43,0,0,0-.39-.29,4.63,4.63,0,0,0-1,0,3.34,3.34,0,0,1-1.51-.16,1.22,1.22,0,0,1-.7-.84,1.41,1.41,0,0,1,0-.91,1.79,1.79,0,0,1,.6-.75,3.21,3.21,0,0,1,1-.48,3.49,3.49,0,0,1,1.08-.14,6.59,6.59,0,0,1,1.05.14l.31,1.13a4.48,4.48,0,0,0-1.2-.18,3.73,3.73,0,0,0-.94.11,1.42,1.42,0,0,0-.41.19.71.71,0,0,0-.24.25.45.45,0,0,0,0,.28.37.37,0,0,0,.28.24,2.62,2.62,0,0,0,.71,0h.56a2.87,2.87,0,0,1,1.43.25,1.36,1.36,0,0,1,.66.85,1.34,1.34,0,0,1-.3,1.34A2.93,2.93,0,0,1,187,251.73Z"/><path class="cls-2" d="M188.86,244.93a.79.79,0,0,1-.62,0,.81.81,0,0,1-.36-1.1.83.83,0,0,1,1.1-.36.83.83,0,0,1,.41.47.79.79,0,0,1,0,.62A.84.84,0,0,1,188.86,244.93Zm-.45.75,1.23-.41,1.66,5-1.23.4Z"/><path class="cls-2" d="M196.07,251a3.09,3.09,0,0,1-1.15.22,2.59,2.59,0,0,1-2.06-1.15l1.21-.47a1.29,1.29,0,0,0,.48.34,1.44,1.44,0,0,0,.54.07,1.52,1.52,0,0,0,.52-.12,1.66,1.66,0,0,0,.61-.4,1,1,0,0,0,.26-.61,1.68,1.68,0,0,0-.12-.8l-.13-.34a2.11,2.11,0,0,1-.48.68,2.34,2.34,0,0,1-.78.48,2.68,2.68,0,0,1-1.39.16,2.53,2.53,0,0,1-1.22-.56,2.67,2.67,0,0,1-.81-1.13,2.72,2.72,0,0,1-.17-1.4,2.52,2.52,0,0,1,1.65-2,2.43,2.43,0,0,1,.9-.15,2.2,2.2,0,0,1,.83.2l-.21-.54,1.21-.47,1.8,4.62a2.73,2.73,0,0,1,.18,1.42,2.29,2.29,0,0,1-.55,1.2A2.69,2.69,0,0,1,196.07,251Zm-1.4-3.23a1.55,1.55,0,0,0,.64-.46,1.58,1.58,0,0,0,.33-.72,1.43,1.43,0,0,0-.08-.79,1.35,1.35,0,0,0-.46-.62,1.53,1.53,0,0,0-.74-.31,1.65,1.65,0,0,0-.79.1,1.49,1.49,0,0,0-.64.46,1.53,1.53,0,0,0-.33.72,1.46,1.46,0,0,0,.09.77,1.43,1.43,0,0,0,.46.64,1.5,1.5,0,0,0,.72.31A1.69,1.69,0,0,0,194.67,247.78Z"/><path class="cls-2" d="M196.05,241l1.18-.56,1,2.07a1.69,1.69,0,0,1,.38-.74,2.09,2.09,0,0,1,.73-.56,2.44,2.44,0,0,1,1.09-.24,2,2,0,0,1,1.06.32,2.06,2.06,0,0,1,.76.88l1.41,3-1.17.56L201.21,243a1.45,1.45,0,0,0-.42-.54,1.12,1.12,0,0,0-.58-.2,1,1,0,0,0-.59.12,1.22,1.22,0,0,0-.72,1.13,1.69,1.69,0,0,0,.17.74l1.18,2.46-1.17.56Z"/><path class="cls-2" d="M207.89,242.71a3.42,3.42,0,0,1-1.25.82,1.71,1.71,0,0,1-1.2,0,1.89,1.89,0,0,1-.93-.89l-1.18-2.14-.84.47-.55-1,.84-.46-.6-1.09,1.12-.62.6,1.08,1.37-.76.55,1-1.37.76,1.17,2.13a.59.59,0,0,0,.37.29.85.85,0,0,0,.58-.1,2.18,2.18,0,0,0,.7-.6Z"/><path class="cls-2" d="M210.83,241a3.42,3.42,0,0,1-1,.45,4.77,4.77,0,0,1-1.17.19l-.71-1.11a4.59,4.59,0,0,0,1.14-.06,3.24,3.24,0,0,0,1.13-.42,1.87,1.87,0,0,0,.33-.28.66.66,0,0,0,.17-.3.35.35,0,0,0,0-.28.44.44,0,0,0-.46-.17,5,5,0,0,0-1,.29,3.42,3.42,0,0,1-1.49.28,1.23,1.23,0,0,1-.91-.6,1.38,1.38,0,0,1-.23-.89,1.79,1.79,0,0,1,.36-.89,3.11,3.11,0,0,1,.84-.76,3.62,3.62,0,0,1,1-.44,5.79,5.79,0,0,1,1-.16l.63,1a4.73,4.73,0,0,0-1.2.18,3.54,3.54,0,0,0-.87.38,1.26,1.26,0,0,0-.34.3.6.6,0,0,0-.15.31.33.33,0,0,0,.38.42,2.76,2.76,0,0,0,.68-.19l.26-.09a2.15,2.15,0,0,1,.27-.1,2.89,2.89,0,0,1,1.44-.17,1.34,1.34,0,0,1,.88.63,1.27,1.27,0,0,1,.1,1.36A2.8,2.8,0,0,1,210.83,241Z"/><path class="cls-5" d="M268.58,148.74a106.88,106.88,0,0,1-51.51,108.55l-1.79-3.14-6.07,10.36,12,.07-1.68-2.94a111.91,111.91,0,0,0,54-113.66Z"/><path class="cls-6" d="M111.35,259.05A106.93,106.93,0,0,1,56.7,152l3.58.49-4.51-11.12-7.38,9.47,3.36.47a111.9,111.9,0,0,0,57.19,112.08Z"/><path class="cls-7" d="M93.07,84.92a106.9,106.9,0,0,1,119.3-14.36l-1.7,3.19,12-.4-6.34-10.19-1.59,3a111.9,111.9,0,0,0-124.94,15Z"/></g></svg>