<?xml version="1.0" encoding="utf-8"?>
<!-- Generator: Adobe Illustrator 26.0.1, SVG Export Plug-In . SVG Version: 6.00 Build 0)  -->
<svg version="1.1" id="Layer_1" xmlns="http://www.w3.org/2000/svg" xmlns:xlink="http://www.w3.org/1999/xlink" x="0px" y="0px"
	 viewBox="0 0 500 500" style="enable-background:new 0 0 500 500;" xml:space="preserve">
<path d="M61.3,76.1v345.9h374.5V76.1H61.3z M93.7,317.6h309.7v72.1H93.7V317.6z M403.4,180.6H93.7v-72.1h309.7V180.6z M403.4,213.1
	v72.1H93.7v-72.1H403.4z M258.4,337.4h119.2v32.4H258.4L258.4,337.4z M377.6,265.3H258.4v-32.4h119.2L377.6,265.3z M377.6,160.8
	H258.4v-32.4h119.2L377.6,160.8z M116.6,337.4h49.8v32.4h-49.9L116.6,337.4z M116.6,265.3v-32.4h49.8v32.4H116.6z M166.4,160.8
	h-49.9v-32.4h49.8L166.4,160.8z"/>
</svg>
