<?xml version="1.0" encoding="utf-8"?>
<!-- Generator: Adobe Illustrator 26.0.1, SVG Export Plug-In . SVG Version: 6.00 Build 0)  -->
<svg version="1.1" id="Layer_1" xmlns="http://www.w3.org/2000/svg" xmlns:xlink="http://www.w3.org/1999/xlink" x="0px" y="0px"
	 viewBox="0 0 500 500" style="enable-background:new 0 0 500 500;" xml:space="preserve">
<path d="M404.6,326V82.2h-32V326h-32.4v105.1H437V326H404.6z M405,399.1h-32.7V358H405V399.1z M115,81.4
	c-29-0.1-52.6,23.3-52.7,52.4c-0.1,23,14.8,43.4,36.7,50.3v246.4h32V184c27.7-8.7,43-38.3,34.3-65.9C158.4,96.2,138,81.3,115,81.4z
	 M115,154.4c-11.3,0-20.5-9.2-20.5-20.5s9.2-20.5,20.5-20.5s20.5,9.2,20.5,20.5C135.5,145.2,126.3,154.4,115,154.4z M267.7,199.4
	V82.2h-32v117.3l-53.9,93.4h53.9v137.6h32V292.8h53.9L267.7,199.4z M237.2,260.8l14.5-25.1l14.5,25.1H237.2z"/>
</svg>
