<?xml version="1.0" encoding="utf-8"?>
<!-- Generator: Adobe Illustrator 26.0.1, SVG Export Plug-In . SVG Version: 6.00 Build 0)  -->
<svg version="1.1" id="Layer_1" xmlns="http://www.w3.org/2000/svg" xmlns:xlink="http://www.w3.org/1999/xlink" x="0px" y="0px"
	 viewBox="0 0 500 500" style="enable-background:new 0 0 500 500;" xml:space="preserve">
<path d="M404.7,259.9l5.6-8.8l-5.7-8.7c-12.8-18.6-27.5-35.8-43.9-51.3c-37.1-35-74.4-52.8-110.9-52.8c-85.5,0-151,99.9-153.8,104.2
	l-5.7,8.7l5.7,8.7c12.8,18.6,27.5,35.8,43.9,51.3c37.1,35,74.4,52.8,110.9,52.8C336.5,364.1,402,264.2,404.7,259.9z M250.9,332.1
	c-55.3,0-104.7-58.4-121.8-80.9c16.8-22.6,65.5-80.8,120.7-80.8s104.7,58.4,121.8,80.9C354.8,273.8,306.1,332.1,250.9,332.1z
	 M93.6,181.6h-32V74.6h106.9v32H93.6V181.6z M437.7,316v106.9H330.7v-32h74.9V316H437.7z M249.7,303.4c-30.1,0-54.6-24.4-54.6-54.6
	c0-30.1,24.4-54.6,54.6-54.6c30.1,0,54.6,24.4,54.6,54.6l0,0C304.2,278.9,279.8,303.4,249.7,303.4L249.7,303.4z M249.7,226.2
	c-12.5,0-22.6,10.1-22.6,22.6c0,12.5,10.1,22.6,22.6,22.6c12.5,0,22.6-10.1,22.6-22.6c0,0,0,0,0,0
	C272.2,236.3,262.1,226.2,249.7,226.2C249.6,226.2,249.6,226.2,249.7,226.2L249.7,226.2z"/>
</svg>
