<?xml version="1.0" encoding="utf-8"?>
<!-- Generator: Adobe Illustrator 26.0.1, SVG Export Plug-In . SVG Version: 6.00 Build 0)  -->
<svg version="1.1" id="Layer_1" xmlns="http://www.w3.org/2000/svg" xmlns:xlink="http://www.w3.org/1999/xlink" x="0px" y="0px"
	 viewBox="0 0 500 500" style="enable-background:new 0 0 500 500;" xml:space="preserve">
<path d="M288.3,364.3L252,301l-36.8,63.3c-17-5.6-32.5-14.9-45.3-27.3l22.3-12.8l-75.1-43.9l-0.4,87l27.4-15.6l0.7,0.8
	c1,1.1,2.1,2.2,3.1,3.2c13.4,13.4,29.2,24.1,46.7,31.5c1.9,0.8,3.9,1.6,5.9,2.3L181.1,423l141.1,0.4l-19.4-33.7
	c2-0.8,4.1-1.6,6.1-2.4c7.5-3,14.8-6.7,21.6-11L315.1,352C306.7,357.3,297.7,361.4,288.3,364.3z M230.9,394.4l20.9-36l20.7,36.1
	L230.9,394.4z M294.5,121.1l-75.1-43.9l-0.1,31.5l-1,0.2c-26.6,6.3-50.9,19.8-70.2,39.2c-1.8,1.8-3.5,3.6-5.2,5.5
	c-25.9-6.2-51.9,9.8-58,35.7c-4.7,19.8,3.5,40.5,20.6,51.6c-0.3,3.7-0.4,7.4-0.4,11.1c0,2,0,4.1,0.2,6.4l0.1,2.9l28.7-0.8l-0.1-3.2
	c-0.1-1.9-0.1-3.6-0.1-5.3c0-1.1,0-2.3,0-3.4c26.6-1.2,47.1-23.7,45.9-50.3c-0.5-10.8-4.6-21.2-11.7-29.4
	c14.2-14.4,31.8-24.9,51.2-30.4l-0.1,25.8L294.5,121.1z M131.5,219.9c-1.3,0-2.6-0.1-3.9-0.4c-1.9-0.4-3.8-1.1-5.5-2
	c-9.4-5.2-12.7-17.1-7.5-26.5c4.5-8,13.9-11.8,22.7-9.1c1.9,0.6,3.6,1.5,5.2,2.6c8.8,6.1,10.9,18.3,4.8,27.1
	C143.8,216.9,137.9,220,131.5,219.9L131.5,219.9z M344.1,267.4l-0.4,87l75.6-43.1L392,295.4c0.1-0.3,0.2-0.7,0.3-1
	c4.1-13.7,6.2-28,6.2-42.4c0-1.4,0-2.8-0.1-4.2h18.1v-94.6h-56.2c-1.6-1.7-3.2-3.4-4.8-5.1c-6.7-6.7-13.9-12.7-21.7-17.9
	c-2.1-1.4-4.5-2.9-7.3-4.6l-6.1-3.6l-13.4,25.5l4.9,2.9c3.5,2.1,6.8,4.3,10.1,6.7v90.6h47.7c0,1.4,0.1,2.8,0.1,4.2
	c0,9.6-1.2,19.1-3.5,28.4L344.1,267.4z M350.8,219v-37.1h37.1V219L350.8,219z"/>
</svg>
