<?xml version="1.0" encoding="utf-8"?>
<!-- Generator: Adobe Illustrator 26.0.1, SVG Export Plug-In . SVG Version: 6.00 Build 0)  -->
<svg version="1.1" id="Layer_1" xmlns="http://www.w3.org/2000/svg" xmlns:xlink="http://www.w3.org/1999/xlink" x="0px" y="0px"
	 viewBox="0 0 500 500" style="enable-background:new 0 0 500 500;" xml:space="preserve">
<path d="M297.8,78.5c-70,0-126.8,56.8-126.8,126.8s56.8,126.8,126.8,126.8s126.8-56.8,126.8-126.8
	C424.5,135.3,367.8,78.6,297.8,78.5z M297.8,298.7c-51.6,0-93.4-41.8-93.4-93.4s41.8-93.4,93.4-93.4c51.6,0,93.4,41.8,93.4,93.4
	c0,0,0,0,0,0C391.2,256.9,349.4,298.6,297.8,298.7z M169.7,303.6l23.6,23.6L99,421.5l-23.6-23.6L169.7,303.6z M308.6,147.3
	l49.4,49.4l-23.6,23.6L285,170.9L308.6,147.3z"/>
</svg>
