<?xml version="1.0" encoding="utf-8"?>
<!-- Generator: Adobe Illustrator 26.0.1, SVG Export Plug-In . SVG Version: 6.00 Build 0)  -->
<svg version="1.1" id="Layer_1" xmlns="http://www.w3.org/2000/svg" xmlns:xlink="http://www.w3.org/1999/xlink" x="0px" y="0px"
	 viewBox="0 0 500 500" style="enable-background:new 0 0 500 500;" xml:space="preserve">
<path d="M212.2,323.8c40.8,0,73.8-33,73.8-73.8c0-40.8-33-73.8-73.8-73.8c-34.6,0-64.6,24-72.1,57.8H77.6v32h62.5
	C147.7,299.8,177.6,323.8,212.2,323.8z M212.2,208.2c23.1,0,41.8,18.7,41.8,41.8s-18.7,41.8-41.8,41.8s-41.8-18.7-41.8-41.8
	C170.4,226.9,189.1,208.2,212.2,208.2L212.2,208.2z M437,266h-58.3c-8.1,84.7-79.7,151.2-166.5,151.2v-32
	c74.6,0,135.2-60.7,135.2-135.2s-60.7-135.2-135.2-135.2v-32c86.8,0,158.4,66.5,166.5,151.2H437V266z"/>
</svg>
