<?xml version="1.0" encoding="utf-8"?>
<!-- Generator: Adobe Illustrator 26.0.1, SVG Export Plug-In . SVG Version: 6.00 Build 0)  -->
<svg version="1.1" id="Layer_1" xmlns="http://www.w3.org/2000/svg" xmlns:xlink="http://www.w3.org/1999/xlink" x="0px" y="0px"
	 viewBox="0 0 500 500" style="enable-background:new 0 0 500 500;" xml:space="preserve">
<path d="M249.8,219.2c-39.4,0-71.4-31.9-71.4-71.3s31.9-71.4,71.3-71.4c39.4,0,71.4,31.9,71.4,71.3c0,0,0,0,0,0
	C321.1,187.3,289.2,219.2,249.8,219.2z M249.8,112.3c-19.6,0-35.6,15.9-35.6,35.5c0,19.6,15.9,35.6,35.5,35.6
	c19.6,0,35.6-15.9,35.6-35.5c0,0,0,0,0,0C285.3,128.2,269.5,112.3,249.8,112.3z M397.3,262.1H102.7v161.4h35.8V297.9h223v125.6h35.8
	L397.3,262.1z"/>
</svg>
