<?xml version="1.0" encoding="utf-8"?>
<!-- Generator: Adobe Illustrator 26.4.1, SVG Export Plug-In . SVG Version: 6.00 Build 0)  -->
<svg version="1.1" id="Layer_1" xmlns="http://www.w3.org/2000/svg" xmlns:xlink="http://www.w3.org/1999/xlink" x="0px" y="0px"
	 viewBox="0 0 32.8 21.5" style="enable-background:new 0 0 32.8 21.5;" xml:space="preserve">
<g id="ICON_ARTWORK">
	<path d="M27.9,15.3H11.3L7.1,1.2L0.4,0L0,2.1l5.5,1l4.3,14.3h1.3c-0.1,0.3-0.2,0.7-0.2,1c0,1.7,1.3,3,3,3s3-1.3,3-3
		c0-0.3-0.1-0.7-0.2-1h3.9c-0.6,1.5,0.1,3.3,1.7,3.9c1.5,0.6,3.3-0.1,3.9-1.7c0.2-0.4,0.2-0.8,0.2-1.2c0-0.3-0.1-0.7-0.2-1H28
		L27.9,15.3z M24.4,18.4c-0.1,0.6-0.6,1-1.2,1c-0.5,0-0.9-0.4-1-1c-0.1-0.6,0.4-1.1,1-1.2c0.6-0.1,1.1,0.4,1.2,1
		C24.4,18.3,24.4,18.3,24.4,18.4z M14.9,18.4c0,0.6-0.5,1.1-1.1,1.1c-0.6,0-1.1-0.5-1.1-1.1c0-0.6,0.5-1.1,1.1-1.1c0,0,0,0,0,0
		C14.4,17.4,14.9,17.8,14.9,18.4z M8.8,1.9l3.5,12H29l3.8-12L8.8,1.9z M13.9,11.9l-2.3-7.9h18.3l-2.5,7.9H13.9z"/>
</g>
</svg>
