<?xml version="1.0" encoding="utf-8"?>
<!-- Generator: Adobe Illustrator 26.4.1, SVG Export Plug-In . SVG Version: 6.00 Build 0)  -->
<svg version="1.1" id="Layer_1" xmlns="http://www.w3.org/2000/svg" xmlns:xlink="http://www.w3.org/1999/xlink" x="0px" y="0px"
	 viewBox="0 0 19.2 21.4" style="enable-background:new 0 0 19.2 21.4;" xml:space="preserve">
<g id="ICON_ARTWORK">
	<path d="M6.8,8.7H9v2.2H6.8V8.7z M6.8,14.2H9V12H6.8V14.2z M6.8,17.6H9v-2.2H6.8V17.6z M3.5,17.6h2.2v-2.2H3.4L3.5,17.6z M3.5,14.2
		h2.2V12H3.4L3.5,14.2z M3.5,10.9h2.2V8.7H3.4L3.5,10.9z M13.5,14.2h2.2V12h-2.2L13.5,14.2z M13.5,8.7v2.2h2.2V8.7H13.5z M13.5,17.6
		h2.2v-2.2h-2.2L13.5,17.6z M10.1,10.9h2.2V8.7h-2.2L10.1,10.9z M10.1,14.2h2.2V12h-2.2L10.1,14.2z M10.1,17.6h2.2v-2.2h-2.2
		L10.1,17.6z M19.2,2.2v19.2H0V2.2h3.1V0H6v2.2h7.3V0h2.9v2.2L19.2,2.2z M3.1,5.3v-1H2.2v14.9H17V4.3h-0.9v1h-2.9v-1H6v1L3.1,5.3z"
		/>
</g>
</svg>
