<?xml version="1.0" encoding="utf-8"?>
<!-- Generator: Adobe Illustrator 26.4.1, SVG Export Plug-In . SVG Version: 6.00 Build 0)  -->
<svg version="1.1" id="Layer_1" xmlns="http://www.w3.org/2000/svg" xmlns:xlink="http://www.w3.org/1999/xlink" x="0px" y="0px"
	 viewBox="0 0 26.1 24.4" style="enable-background:new 0 0 26.1 24.4;" xml:space="preserve">
<g id="ICON_ARTWORK">
	<path d="M26.1,21.3V7.1h-6.3c-0.2-0.5-0.5-0.9-0.8-1.2c-0.6-0.5-1.4-0.9-2.2-1c-0.2-0.7-0.7-1.3-1.3-1.7c-0.8-0.5-1.7-0.7-2.6-0.6
		c-1-1.8-3-2.8-5-2.5c-2,0.2-3.8,1.5-4.5,3.4C1.3,3.9-0.1,5.8,0,7.9c0,1.2,0.4,2.4,1.3,3.2c1.1,0.9,2.5,1.4,4,1.4h0.9v8.8h6.4v1.2
		h-1.8v1.9h10.6v-1.9h-1.8v-1.2H26.1z M8.5,1.9c1.8,0,2.3,0.8,3,2l0.5,0.7l0.6-0.2c0.6-0.2,1.3-0.1,1.9,0.2C14.8,5,15.1,5.5,15.1,6
		l0.1,0.8l0.8,0c0.6,0,1.2,0.1,1.7,0.5H6.4v3.3H5.5c-1,0.1-2-0.2-2.8-0.9C2.2,9.2,1.9,8.5,2,7.9c0-0.1,0-2.5,2.3-2.6h0.7l0.1-0.6
		c0.3-1.4,1.5-2.5,3-2.6L8.5,1.9z M8.2,19.4V9h16.1v10.4L8.2,19.4z M18.7,13.5v-0.8c0-1.3-1.1-2.4-2.4-2.4c-1.3,0-2.4,1-2.5,2.4
		c0,0,0,0,0,0.1v0.8h-0.4v4.7H19v-4.7L18.7,13.5z M15.1,13.5v-0.8c0-0.6,0.5-1.1,1.1-1.1c0,0,0,0,0,0c0.3,0,0.6,0.1,0.8,0.3
		c0.2,0.2,0.3,0.5,0.3,0.8v0.8L15.1,13.5z"/>
</g>
</svg>
