<?xml version="1.0" encoding="utf-8"?>
<!-- Generator: Adobe Illustrator 26.4.1, SVG Export Plug-In . SVG Version: 6.00 Build 0)  -->
<svg version="1.1" id="Layer_1" xmlns="http://www.w3.org/2000/svg" xmlns:xlink="http://www.w3.org/1999/xlink" x="0px" y="0px"
	 viewBox="0 0 27.2 29.4" style="enable-background:new 0 0 27.2 29.4;" xml:space="preserve">
<path d="M20.8,22.1l2.2,2.2l-0.8,0.9L20,23l-2.3,2.2l-0.8-0.8l2.2-2.2L16.9,20l0.8-0.8l2.3,2.2l2.2-2.2L23,20L20.8,22.1z M6.8,7.8
	V7.7c-0.1,0-0.2,0.1-0.3,0.2L6.4,8C6.3,8.1,6.2,8.2,6.1,8.3c-0.1,0-0.2,0-0.2,0c0.2,0,0.3,0.1,0.5,0.1s0.4,0.1,0.5,0.2
	C7,8.7,7.1,8.9,7,9.1v0.1c0,0.1,0.1,0.3,0.3,0.3C7.2,9.3,7.3,9,7.4,8.8V8.7l0.1-0.1H7.4C7.2,8.5,6.7,8.4,6.8,7.8z M13.9,12.2
	c-0.4-0.2-0.8-0.4-1.3-0.5c-0.4-0.1-0.7-0.4-0.9-0.7c-0.3-0.4-0.7-0.8-1.1-1S9.9,9.6,9.5,9.4c-0.1,0-0.1-0.1-0.2-0.1s-0.1,0-0.2,0.1
	C8.8,9.5,8.6,9.7,8.3,9.9C8.2,10,8.1,10.1,8,10.1H7.9C8,10.3,8.1,10.5,8,10.7c0,0.1-0.1,0.2-0.1,0.3l-0.1,0.1
	c-0.2,0.5-0.1,1.1,0.2,1.6c0.3,0.4,0.6,0.8,0.9,1.1L9,13.9c0.3,0.3,0.4,0.8,0.2,1.2c0,0.1,0,0.2,0,0.2c0,0.7-0.1,1.5-0.2,2.2v0.2
	c-0.1,0.4-0.1,0.9-0.2,1.3c0,0.5,0.1,0.9,0.4,1.3c0.1,0.1,0.3,0.2,0.5,0.3v-0.1c-0.1-0.3-0.1-0.7,0-1.1c0.3-0.7,0.7-1.3,1.2-1.9
	c0.2-0.2,0.3-0.4,0.5-0.6c0.1-0.2,0.3-0.4,0.4-0.7c0.1-0.2,0.1-0.3,0.2-0.4c0.2-0.4,0.5-0.6,0.8-0.9l0.1-0.1
	c0.2-0.2,0.4-0.5,0.5-0.8l0.1-0.2c0.2-0.5,0.4-0.9,0.5-1.4c0-0.1,0-0.2,0-0.2C14,12.3,13.9,12.2,13.9,12.2z M26.7,19.4
	c-0.5-1.2-1.3-2.2-2.3-3l0,0c0.4-1.3,0.6-2.6,0.6-3.9C25,5.6,19.4,0,12.5,0S0,5.6,0,12.5S5.6,25,12.5,25h0.9
	c1.6,3.7,5.8,5.4,9.5,3.8C26.5,27.3,28.2,23,26.7,19.4z M12.8,21.7c0,0.2,0,0.3,0,0.5s0,0.5,0,0.7h-0.3c-5.7,0-10.4-4.6-10.4-10.3
	c0-2,0.6-4,1.7-5.7c0.3,0.8,1,1.4,1.9,1.7l0.2-0.7c-0.1,0-0.1-0.1-0.2-0.1L5.6,7.7c0-0.1,0-0.1,0-0.2c0-0.3,0-0.6,0.1-0.8
	c0.3-0.3,0.6-0.5,1-0.5c0.2-0.1,0.4,0,0.5,0.2l0.7,1.4L8,6.4c0-0.1,0-0.2,0-0.3s0.1-0.4,0.2-0.4s0.2-0.1,0.3-0.1
	c0.1,0,0.3,0,0.4-0.1c0.3-0.1,0.6-0.3,0.8-0.6L10,4.7c0.4-0.3,0.9-0.6,1.4-0.8c0.1,0,0.3-0.1,0.4-0.2C12,3.5,12,3.2,11.8,3
	s-0.4-0.2-0.6-0.2H11c-0.1,0-0.2,0-0.2,0s-0.1,0-0.2-0.1c0-0.1,0-0.1,0.1-0.2c0.3-0.2,0.6-0.3,1-0.4C12.6,2,13.5,2,14.3,2.2
	c1.7,0.3,3.3,1,4.6,2.1c0.3,0.2,0.5,0.5,0.9,0.8c0.1,0.1,0.2,0.2,0.3,0.3c-0.9-0.1-1.7,0.3-2.3,0.9c-0.2,0.2-0.3,0.4-0.4,0.6
	c-0.1,0.1-0.1,0.2-0.2,0.3c-0.6,0.7-0.8,1.7-0.6,2.6c0.2,0.3,0.4,0.6,0.7,0.9l0.1,0.1c0.2,0.2,0.4,0.4,0.7,0.5c0.1,0,0.2,0,0.3,0
	l0.8-0.2c0.1,0,0.2,0,0.3,0c0.1,0.1,0.1,0.1,0.1,0.2c0.4,0.5,0.6,1,0.8,1.6c0.1,0.3,0.1,0.5,0.1,0.8c0,0.1,0,0.3-0.1,0.4
	c-0.1,0.2-0.1,0.4-0.1,0.6c0,0.1,0,0.3,0.1,0.4C16.5,14.7,13.1,17.7,12.8,21.7z M20,27.4c-2.9,0-5.2-2.3-5.2-5.2S17.1,17,20,17
	s5.2,2.3,5.2,5.2C25.2,25,22.9,27.4,20,27.4z"/>
</svg>
