<?xml version="1.0" encoding="utf-8"?>
<!-- Generator: Adobe Illustrator 26.4.1, SVG Export Plug-In . SVG Version: 6.00 Build 0)  -->
<svg version="1.1" id="Layer_1" xmlns="http://www.w3.org/2000/svg" xmlns:xlink="http://www.w3.org/1999/xlink" x="0px" y="0px"
	 viewBox="0 0 28.2 20.1" style="enable-background:new 0 0 28.2 20.1;" xml:space="preserve">
<g id="ICON_ARTWORK">
	<path d="M28.2,11.2c-0.2-2.2-1.5-4.1-3.5-5C26.1,4.7,26,2.4,24.5,1c-1.5-1.4-3.8-1.3-5.1,0.2c-1.3,1.4-1.3,3.6,0,5
		c-0.7,0.3-1.3,0.7-1.8,1.3c-0.2-0.1-0.5-0.2-0.7-0.4c0.8-0.8,1.3-1.9,1.3-3c0-2.3-1.8-4.1-4.1-4.1C11.9,0,10,1.8,10,4.1
		c0,1.1,0.4,2.2,1.3,2.9c-0.2,0.1-0.5,0.2-0.7,0.4c-0.5-0.5-1.1-1-1.8-1.3c0.6-0.7,1-1.5,1-2.5c0-2-1.7-3.6-3.7-3.6
		c-2,0-3.6,1.7-3.6,3.7c0,0.9,0.4,1.8,1,2.4c-2,1-3.3,2.9-3.5,5.1v6.1h7v2.7h14.1v-2.7h7.1L28.2,11.2z M6.2,5.3
		c-0.9,0-1.7-0.8-1.7-1.7S5.2,2,6.2,2s1.7,0.8,1.7,1.7c0,0,0,0,0,0C7.8,4.6,7.1,5.3,6.2,5.3z M19.2,15.4v2.7H8.9v-2.7h-7v-3.7
		c0-2.3,1.9-4.2,4.2-4.2c1.4,0,2.7,0.7,3.5,1.8l0.5,0.8l0.7-0.6c1.9-1.4,4.5-1.4,6.3,0l0.8,0.6l0.5-0.8c1.3-1.9,3.9-2.5,5.9-1.2
		c1.2,0.8,1.9,2.1,1.9,3.5v3.7H19.2z M20.4,3.7C20.4,2.7,21.1,2,22,2c0.9,0,1.7,0.7,1.7,1.7c0,0.9-0.7,1.7-1.7,1.7c0,0,0,0,0,0
		C21.1,5.3,20.4,4.6,20.4,3.7z M12,4.1c0-1.2,1-2.1,2.1-2.1c1.2,0,2.1,1,2.1,2.1s-1,2.1-2.1,2.1c0,0,0,0,0,0C12.9,6.2,12,5.3,12,4.1
		C12,4.1,12,4.1,12,4.1z"/>
</g>
</svg>
