<?xml version="1.0" encoding="utf-8"?>
<!-- Generator: Adobe Illustrator 26.4.1, SVG Export Plug-In . SVG Version: 6.00 Build 0)  -->
<svg version="1.1" id="Layer_1" xmlns="http://www.w3.org/2000/svg" xmlns:xlink="http://www.w3.org/1999/xlink" x="0px" y="0px"
	 viewBox="0 0 29.5 20" style="enable-background:new 0 0 29.5 20;" xml:space="preserve">
<g id="ICON_ARTWORK">
	<path d="M29.5,18V20H0V18H29.5z M26.3,0v16.9H3.2V0L26.3,0z M24.4,15V1.9H5.1V15L24.4,15z M21.8,12.5l-0.8,0.1l0.1,0.8l-2,0.3
		l-0.2-1.4l-1.5-1.1c-0.1,0.4-0.4,0.9-0.5,1.2l-0.1,0.2h-3.4l-0.1-0.4c-0.1-0.3-0.3-0.7-0.4-1l-1.5,1.1l-0.2,1.4l-2-0.3l0.1-0.8
		l-0.8-0.1l0.3-2l1.4,0.2l1.5-1.1c-0.4-0.9-0.5-1.9-0.2-2.8l-1.3-1L8.6,6L8.4,4l0.8-0.1L9.1,3.1l2-0.3l0.2,1.4L12.3,5
		C13,4.3,14,3.9,15.1,3.9c1,0,2,0.3,2.7,1.1l1.1-0.8L19,2.8l2,0.3l-0.1,0.8L21.7,4l-0.3,2L20,5.8l-1.3,0.9c0.2,0.9,0.2,1.9-0.2,2.8
		l1.5,1.1l1.4-0.2L21.8,12.5z M10.2,11.9L10,12.8l0.3,0l0.1-0.9l1.8-1.3c-0.1-0.1-0.1-0.2-0.2-0.3l-1.8,1.3l-0.9-0.1l0,0.4
		L10.2,11.9z M16.2,11.8c0.2-0.4,0.4-1,0.5-1.2v-0.1l0.1-0.1c0.3-0.3,0.6-0.6,0.9-0.9c0.6-1,0.5-2.3-0.1-3.3C17,5.2,16.1,4.7,15,4.8
		c-1,0-2,0.5-2.6,1.4c-0.6,1-0.6,2.3,0,3.3c0.3,0.3,0.5,0.6,0.9,0.9l0.1,0.1v0.1c0.1,0.3,0.4,0.9,0.5,1.2L16.2,11.8z M20,11.9
		l0.8-0.1l0-0.4l-0.9,0.1l-1.8-1.3l-0.2,0.2l1.8,1.4l0.1,0.9l0.3,0L20,11.9z M20,4.6l0.1-0.8h-0.3l-0.1,0.9l-1.3,1l0,0
		c0.1,0.1,0.1,0.2,0.1,0.3l1.4-1l0.9,0.1l0-0.3L20,4.6z M10.1,4.6L9.3,4.7l0,0.3l0.9-0.1l1.4,1c0.1-0.1,0.1-0.2,0.1-0.3l0,0l-1.3-1
		l-0.1-0.9H10L10.1,4.6z M13.9,7.6c-0.4,0-0.7,0.3-0.7,0.7c0,0.4,0.3,0.7,0.7,0.7c0.4,0,0.7-0.3,0.7-0.7c0,0,0,0,0,0
		C14.6,7.9,14.3,7.5,13.9,7.6C13.9,7.5,13.9,7.5,13.9,7.6L13.9,7.6z M16.2,7.6c-0.4,0-0.7,0.3-0.7,0.7c0,0.4,0.3,0.7,0.7,0.7
		c0.4,0,0.7-0.3,0.7-0.7c0,0,0,0,0,0C16.9,7.9,16.6,7.5,16.2,7.6C16.2,7.5,16.2,7.5,16.2,7.6L16.2,7.6z M17,8.3
		c0-0.5-0.4-0.8-0.8-0.8s-0.8,0.4-0.8,0.8s0.4,0.8,0.8,0.8C16.6,9.1,17,8.7,17,8.3L17,8.3z M16.8,8.3c0,0.3-0.2,0.6-0.6,0.6
		c0,0,0,0,0,0c-0.3,0-0.6-0.3-0.6-0.6l0,0c0-0.3,0.3-0.6,0.6-0.6C16.5,7.7,16.8,7.9,16.8,8.3L16.8,8.3z M14.8,8.3
		c0-0.5-0.4-0.8-0.8-0.8s-0.8,0.4-0.8,0.8s0.4,0.8,0.8,0.8C14.4,9.1,14.8,8.7,14.8,8.3L14.8,8.3z M14.5,8.3c0,0.3-0.2,0.6-0.6,0.6
		c0,0,0,0,0,0c-0.3,0-0.6-0.3-0.6-0.6l0,0c0-0.3,0.3-0.6,0.6-0.6C14.3,7.7,14.5,7.9,14.5,8.3L14.5,8.3z"/>
</g>
</svg>
