<?xml version="1.0" encoding="utf-8"?>
<!-- Generator: Adobe Illustrator 26.4.1, SVG Export Plug-In . SVG Version: 6.00 Build 0)  -->
<svg version="1.1" id="Layer_1" xmlns="http://www.w3.org/2000/svg" xmlns:xlink="http://www.w3.org/1999/xlink" x="0px" y="0px"
	 viewBox="0 0 16.4 20.1" style="enable-background:new 0 0 16.4 20.1;" xml:space="preserve">
<g id="ICON_ARTWORK">
	<path d="M13.5,7.2l-6.7,6.3L2.9,9.8l1.4-1.4l2.5,2.4l5.4-5L13.5,7.2z M16.4,1.4V16l-8.2,4.1L0,16V1.4l0.8-0.2
		C3.2,0.5,5.7,0.1,8.2,0c2.5,0.1,5,0.5,7.4,1.2L16.4,1.4z M14.3,3c-2-0.5-4-0.8-6.1-0.9C6.1,2.2,4.1,2.5,2.1,3v11.7l6.1,3l6.1-3
		L14.3,3z"/>
</g>
</svg>
