<?xml version="1.0" encoding="utf-8"?>
<!-- Generator: Adobe Illustrator 26.4.1, SVG Export Plug-In . SVG Version: 6.00 Build 0)  -->
<svg version="1.1" id="Layer_1" xmlns="http://www.w3.org/2000/svg" xmlns:xlink="http://www.w3.org/1999/xlink" x="0px" y="0px"
	 viewBox="0 0 27.2 27.2" style="enable-background:new 0 0 27.2 27.2;" xml:space="preserve">
<g id="ICON_ARTWORK">
	<path d="M0,0v27.2h27.2V0H0z M2.4,24.9V2.4h22.5v22.5H2.4z M19.4,12.8l3.4,3.4l-3.4,3.4L18,18.2l1-1h-5.7v-2h5.6l-1-1L19.4,12.8z
		 M9.3,19.3l-1.5-1.4l-3.4,3.4l3.4,3.4l1.5-1.4l-1-1h5.8v-2H8.3L9.3,19.3z M9.3,13l-1-1h5.8v-2H8.3l1-1L7.8,7.6L4.5,11l3.4,3.4
		L9.3,13z M18,7.9l1.5,1.4l3.4-3.4l-3.4-3.4L18,4l1,1h-5.7v2h5.6L18,7.9z"/>
</g>
</svg>
