<?xml version="1.0" encoding="utf-8"?>
<!-- Generator: Adobe Illustrator 26.4.1, SVG Export Plug-In . SVG Version: 6.00 Build 0)  -->
<svg version="1.1" id="Layer_1" xmlns="http://www.w3.org/2000/svg" xmlns:xlink="http://www.w3.org/1999/xlink" x="0px" y="0px"
	 viewBox="0 0 22.2 25.2" style="enable-background:new 0 0 22.2 25.2;" xml:space="preserve">
<g id="Layer_1_00000131333389227101969560000016542051766383896207_">
	<path d="M2.9,4.6H12v-2H2.9V4.6z M2.9,12.4H12v-2H2.9V12.4z M2.9,20.2H12v-2H2.9V20.2z M16.7,3.6c0,0.5-0.4,1-1,1c-0.5,0-1-0.4-1-1
		c0-0.5,0.4-1,1-1C16.3,2.6,16.7,3,16.7,3.6z M19.3,3.6c0,0.5-0.4,1-1,1s-1-0.4-1-1c0-0.5,0.4-1,1-1S19.3,3,19.3,3.6z M16.7,11.4
		c0,0.5-0.4,1-1,1c-0.5,0-1-0.4-1-1c0-0.5,0.4-1,1-1C16.3,10.4,16.7,10.9,16.7,11.4z M19.3,11.4c0,0.5-0.4,1-1,1s-1-0.4-1-1
		c0-0.5,0.4-1,1-1S19.3,10.9,19.3,11.4z M16.7,19.3c0,0.5-0.4,1-1,1c-0.5,0-1-0.4-1-1s0.4-1,1-1C16.3,18.3,16.7,18.7,16.7,19.3z
		 M19.3,19.3c0,0.5-0.4,1-1,1s-1-0.4-1-1s0.4-1,1-1S19.3,18.7,19.3,19.3z M0,0v25.2h22.2V0H0z M2.1,7.7V2H20v5.7H2.1z M2.1,15.4V9.8
		H20v5.5L2.1,15.4z M2.1,23.2v-5.7H20v5.7H2.1z"/>
</g>
</svg>
