<?xml version="1.0" encoding="utf-8"?>
<!-- Generator: Adobe Illustrator 26.4.1, SVG Export Plug-In . SVG Version: 6.00 Build 0)  -->
<svg version="1.1" id="Layer_1" xmlns="http://www.w3.org/2000/svg" xmlns:xlink="http://www.w3.org/1999/xlink" x="0px" y="0px"
	 viewBox="0 0 28.9 29.2" style="enable-background:new 0 0 28.9 29.2;" xml:space="preserve">
<style type="text/css">
	.st0{fill:none;}
</style>
<g>
	<path class="st0" d="M4.7,19.3c0-0.7-0.6-1.3-1.3-1.3s-1.3,0.6-1.3,1.3s0.6,1.3,1.3,1.3S4.7,20.1,4.7,19.3z"/>
	<path class="st0" d="M13.5,20.6v-5.1H8.4C8.9,18.1,10.9,20.2,13.5,20.6z"/>
	<path class="st0" d="M21.7,5.9c-1.7-1.5-3.9-2.3-6.1-2.5v3c1.5,0.2,2.8,0.7,4,1.7L21.7,5.9z"/>
	<path class="st0" d="M18.2,9.5c-0.8-0.6-1.7-0.9-2.6-1.1v3.7L18.2,9.5L18.2,9.5z"/>
	<path d="M21.7,18.4c0,0.7-0.6,1.3-1.3,1.3c-0.7,0-1.3-0.6-1.3-1.3c0-0.7,0.6-1.3,1.3-1.3C21.2,17.1,21.7,17.7,21.7,18.4z M4.7,19.3
		c0,0.7-0.6,1.3-1.3,1.3S2.1,20,2.1,19.3S2.7,18,3.4,18C4.1,18,4.7,18.6,4.7,19.3z M12.1,8.5c0,0.7-0.6,1.3-1.3,1.3S9.5,9.2,9.5,8.5
		c0-0.7,0.6-1.3,1.3-1.3S12.1,7.7,12.1,8.5z M17.2,13.4L27,3.6l0.3-0.3l-1.6-1.5l-2.6,2.6c-2.1-1.8-4.8-2.9-7.5-3.1V0h-2.2v1.3
		C7,1.8,1.8,7,1.3,13.4H0v2.1h1.3c0.1,0.7,0.2,1.4,0.3,2.2l0.1,0.4c0.4-0.5,1-0.8,1.6-0.8c0.1,0,0.3,0,0.4,0l-0.1-0.2
		c-0.1-0.5-0.2-1-0.2-1.5h2.9c0.5,3.7,3.4,6.6,7.1,7.2v2.9c-3.3-0.3-6.3-2.1-8.2-4.8l-0.3-0.3c-0.4,0.6-1,0.9-1.7,0.9
		c-0.1,0-0.2,0-0.3,0L3.2,22c2.3,3.4,5.9,5.6,10,5.9v1.3h2.2v-1.3c6.5-0.5,11.7-5.7,12.2-12.2h1.3v-2.1H17.2V13.4z M15.6,3.4
		c2.3,0.2,4.4,1.1,6.1,2.5L19.6,8c-1.2-0.9-2.5-1.5-4-1.7V3.4z M8.8,8.7L8.5,9.1c-1.1,1.2-1.8,2.7-2,4.4h-3C4,8.2,8.2,4,13.5,3.5v3
		c-0.4,0-0.8,0.1-1.2,0.2l-0.4,0.1c0.6,0.4,1,1,1,1.7H13c0.2,0,0.3-0.1,0.5-0.1v5.1h-5c0.2-1.1,0.6-2.1,1.3-2.9l0,0l0.2-0.2
		C9.3,10,8.8,9.4,8.8,8.7z M13.5,20.6c-2.6-0.4-4.7-2.5-5.1-5.1h5.1V20.6z M15.6,12.1V8.4c0.9,0.2,1.9,0.5,2.6,1.1l0,0L15.6,12.1z
		 M15.6,25.6v-3c1.6-0.2,3-0.8,4.2-1.9l0.4-0.3c-0.7-0.1-1.3-0.5-1.6-1.1l-0.2,0.1c-0.8,0.6-1.8,1-2.8,1.2v-5.1h5.1
		c0,0.2-0.1,0.4-0.1,0.6v0.2c0.7,0,1.4,0.5,1.7,1.1l0.1-0.4c0.1-0.5,0.2-1,0.3-1.5h3C25.2,20.9,20.9,25.1,15.6,25.6z"/>
</g>
</svg>
