<?xml version="1.0" encoding="utf-8"?>
<!-- Generator: Adobe Illustrator 26.4.1, SVG Export Plug-In . SVG Version: 6.00 Build 0)  -->
<svg version="1.1" id="Layer_1" xmlns="http://www.w3.org/2000/svg" xmlns:xlink="http://www.w3.org/1999/xlink" x="0px" y="0px"
	 viewBox="0 0 26.2 26.2" style="enable-background:new 0 0 26.2 26.2;" xml:space="preserve">
<g id="ICON_ARTWORK">
	<path d="M22.4,3.8C17.2-1.3,9-1.3,3.8,3.8s-5.1,13.4,0,18.5s13.4,5.1,18.5,0c2.5-2.5,3.8-5.8,3.8-9.3C26.2,9.6,24.8,6.3,22.4,3.8z
		 M13.1,24c-6,0-10.9-4.9-10.9-10.9S7.1,2.2,13.1,2.2c6,0,10.9,4.9,10.9,10.9c0,2.9-1.1,5.7-3.2,7.7C18.8,22.8,16,24,13.1,24z
		 M10.8,13.1l-3.3,3.3l-1.4-1.3l1-1H3.5v-1.9h3.7l-1-1l1.3-1.4L10.8,13.1z M22.9,12.1h-3.7l1-1l-1.4-1.3l-3.2,3.3l3.3,3.3l1.4-1.3
		l-1-1h3.7L22.9,12.1z M14.1,19.4v-3.7h-1.9v3.7l-1-1l-1.3,1.4l3.3,3.3l3.3-3.2l-1.3-1.4L14.1,19.4z M12.2,6.6v3.7h1.9V6.6l1,1
		l1.4-1.3L13.2,3L9.9,6.3l1.3,1.3L12.2,6.6z"/>
</g>
</svg>
