<?xml version="1.0" encoding="utf-8"?>
<!-- Generator: Adobe Illustrator 26.4.1, SVG Export Plug-In . SVG Version: 6.00 Build 0)  -->
<svg version="1.1" id="Layer_1" xmlns="http://www.w3.org/2000/svg" xmlns:xlink="http://www.w3.org/1999/xlink" x="0px" y="0px"
	 viewBox="0 0 29.3 22.7" style="enable-background:new 0 0 29.3 22.7;" xml:space="preserve">
<g id="ICON_ARTWORK">
	<path d="M21,15.2v-4.3C21,8.7,19.6,6.8,17.6,6c-0.2-1.6-1.7-2.8-3.4-2.6c-1.4,0.2-2.4,1.2-2.6,2.6c-2,0.8-3.3,2.8-3.4,4.9v4.4
		l-1.7,2.4c-0.3,0.5-0.5,1-0.5,1.5v3.5h17.1v-3.5c0-0.6-0.2-1.1-0.5-1.6L21,15.2z M16.3,7.8c1.4,0.4,2.5,1.7,2.5,3.2v4.8l2,2.8
		c0.1,0.1,0.1,0.3,0.1,0.4v1.5H8.3v-1.5c0-0.1,0-0.3,0.1-0.4l2-2.8v-0.3c0,0,0-4.4,0-4.5c0.1-1.5,1.1-2.8,2.6-3.2l0.6-0.3V6.9
		c0-0.6,0.4-1,0.9-1c0,0,0.1,0,0.1,0c0.3,0,0.5,0.1,0.7,0.3c0.2,0.2,0.3,0.5,0.3,0.8v0.7L16.3,7.8z M29.3,11.8c0,1.5-0.2,3-0.7,4.4
		l-0.2,0.5l-2-0.7l0.2-0.5c0.4-1.2,0.5-2.5,0.5-3.8c0-0.4,0-0.8-0.1-1.3C26.7,7.1,24.9,4,22.1,2l-0.4-0.2L23,0.1l0.4,0.3
		c3.3,2.4,5.4,6,5.8,10.1C29.3,10.8,29.3,11.3,29.3,11.8z M25.7,10.7c-0.2-1.5-0.6-3-1.4-4.3c-0.8-1.3-1.8-2.4-3-3.3l-0.4-0.3
		l-1.3,1.7l0.4,0.3c1,0.7,1.8,1.6,2.4,2.7c0.6,1,1,2.2,1.1,3.4c0,0.3,0,0.6,0,0.9c0,0.9-0.1,1.8-0.4,2.7L23,14.9l2,0.7l0.1-0.5
		C25.6,13.7,25.8,12.2,25.7,10.7L25.7,10.7z M6.1,14.5c-0.3-0.9-0.4-1.8-0.4-2.7c0-0.3,0-0.6,0.1-0.9c0.1-1.2,0.5-2.4,1.1-3.4
		c0.6-1,1.4-1.9,2.4-2.7l0.4-0.3L8.3,2.8L7.9,3.1c-1.2,0.9-2.2,2-3,3.3C3.4,9.1,3.1,12.2,4,15.1l0.1,0.5l2-0.7L6.1,14.5z M2.2,11.8
		c0-0.4,0-0.9,0.1-1.3C2.6,7.1,4.4,4,7.2,2l0.4-0.3L6.3,0L5.9,0.3c-3.3,2.4-5.4,6-5.9,10C0,10.8,0,11.3,0,11.8c0,1.5,0.2,3,0.7,4.4
		l0.2,0.5l2-0.7l-0.1-0.5C2.3,14.3,2.1,13.1,2.2,11.8z"/>
</g>
</svg>
