<?xml version="1.0" encoding="utf-8"?>
<!-- Generator: Adobe Illustrator 26.4.1, SVG Export Plug-In . SVG Version: 6.00 Build 0)  -->
<svg version="1.1" id="Layer_1" xmlns="http://www.w3.org/2000/svg" xmlns:xlink="http://www.w3.org/1999/xlink" x="0px" y="0px"
	 viewBox="0 0 25.1 11.3" style="enable-background:new 0 0 25.1 11.3;" xml:space="preserve">
<path d="M21.1,4.4c0,0.5-0.4,0.9-0.9,0.9s-0.9-0.4-0.9-0.9s0.4-0.9,0.9-0.9S21.1,3.9,21.1,4.4z M17.4,3.4c-0.5,0-0.9,0.4-0.9,0.9
	s0.4,0.9,0.9,0.9s0.9-0.4,0.9-0.9S17.9,3.4,17.4,3.4z M3,3v5.2h1.9V3H3z M5.7,3v5.2h1.9V3H5.7z M8.4,8.3h1.9V3H8.4V8.3z M0,0v11.3
	h25.1V0H0z M2.3,9V2.3h20.6V9H2.3z"/>
</svg>
