<?xml version="1.0" encoding="utf-8"?>
<!-- Generator: Adobe Illustrator 26.4.1, SVG Export Plug-In . SVG Version: 6.00 Build 0)  -->
<svg version="1.1" id="Layer_1" xmlns="http://www.w3.org/2000/svg" xmlns:xlink="http://www.w3.org/1999/xlink" x="0px" y="0px"
	 viewBox="0 0 27.3 27.5" style="enable-background:new 0 0 27.3 27.5;" xml:space="preserve">
<g id="ICON_ARTWORK">
	<path d="M16.5,23.1c0,0.3,0.2,0.5,0.5,0.5h0c0.3,0,0.6-0.2,0.6-0.5c0-0.3-0.2-0.6-0.5-0.6c0,0-0.1,0-0.1,0
		C16.8,22.5,16.5,22.8,16.5,23.1C16.5,23.1,16.5,23.1,16.5,23.1z M19.9,22.7c-0.4,0-0.6,0.3-0.6,0.6c0,0.4,0.3,0.6,0.6,0.6
		c0.4,0,0.6-0.3,0.6-0.6c0,0,0,0,0,0C20.6,23,20.3,22.7,19.9,22.7C19.9,22.7,19.9,22.7,19.9,22.7z M23.5,23.1
		c-0.4,0-0.7,0.3-0.7,0.7c0,0.4,0.3,0.7,0.7,0.7c0.4,0,0.7-0.3,0.7-0.7C24.2,23.4,23.9,23.1,23.5,23.1
		C23.5,23.1,23.5,23.1,23.5,23.1z M18.1,5.3H16v1.1h2L18.1,5.3z M18.1,8.8H16v1.1h2L18.1,8.8z M18.1,7H16v1.1h2L18.1,7z M21,4.2h-2
		v1.1h2V4.2z M21,8.1h-2v1.2h2V8.1z M21,6.2h-2v1.1h2V6.2z M24.6,3h-2.3v1.3h2.3L24.6,3z M24.6,7.4h-2.3v1.3h2.3L24.6,7.4z
		 M24.6,5.2h-2.3v1.3h2.3L24.6,5.2z M10.1,22.5c-0.3,0-0.6,0.2-0.6,0.5c0,0.3,0.2,0.6,0.5,0.6c0,0,0.1,0,0.1,0
		c0.3,0,0.5-0.3,0.5-0.6C10.6,22.7,10.4,22.5,10.1,22.5z M6.6,23.3c0,0.4,0.3,0.6,0.6,0.6c0.4,0,0.6-0.3,0.6-0.6
		c0-0.4-0.3-0.6-0.6-0.6l0,0C6.9,22.7,6.6,23,6.6,23.3C6.6,23.3,6.6,23.3,6.6,23.3z M3,23.8c0,0.4,0.3,0.7,0.7,0.7
		c0.4,0,0.7-0.3,0.7-0.7c0-0.4-0.3-0.7-0.7-0.7C3.3,23.1,3,23.4,3,23.8z M9.1,6.3h2V5.3h-2L9.1,6.3z M9.1,9.8h2V8.8h-2L9.1,9.8z
		 M9.1,8.1h2V7h-2L9.1,8.1z M6.2,5.3h2V4.2h-2L6.2,5.3z M6.2,9.2h2V8.1h-2L6.2,9.2z M6.2,7.3h2V6.2h-2L6.2,7.3z M2.6,4.3H5V3H2.6
		L2.6,4.3z M2.6,8.7H5V7.4H2.6L2.6,8.7z M2.6,6.5H5V5.3H2.6L2.6,6.5z M19.4,0v1.5h-2.8v1.4H14v23.5h2.6V27h2.8v0.5h7.9V0H19.4z
		 M16,24.4V4.9h0.8v19.5H16z M18.8,3.4h0.8V25h-0.8L18.8,3.4z M21.6,25.5V2h3.7v23.5L21.6,25.5z M10.7,1.5H7.9V0H0v27.5h7.9V27h2.8
		v-0.6h2.6V2.9h-2.6L10.7,1.5z M8.5,3.5V25H7.7V3.5L8.5,3.5z M5.7,2v23.5H2V2H5.7z M11.2,4.9v19.5h-0.8V4.9H11.2z"/>
</g>
</svg>
