<?xml version="1.0" encoding="utf-8"?>
<!-- Generator: Adobe Illustrator 26.4.1, SVG Export Plug-In . SVG Version: 6.00 Build 0)  -->
<svg version="1.1" id="Layer_1" xmlns="http://www.w3.org/2000/svg" xmlns:xlink="http://www.w3.org/1999/xlink" x="0px" y="0px"
	 viewBox="0 0 30.2 26.5" style="enable-background:new 0 0 30.2 26.5;" xml:space="preserve">
<path d="M29.9,1.2c-0.3-0.5-0.7-0.8-1.2-1c-0.5-0.1-1.1-0.1-1.5,0.2c-0.6,0.4-1,1-1,1.7l-1,0.6c-0.9-0.7-2.3-0.7-3.3,0l-1-0.6
	c0-0.3-0.1-0.6-0.3-0.9c-0.3-0.5-0.7-0.8-1.2-1c-0.5-0.1-1.1-0.1-1.5,0.2c-0.5,0.3-0.8,0.7-1,1.2c-0.1,0.5-0.1,1.1,0.2,1.5
	c0.3,0.5,0.7,0.8,1.2,0.9c0.5,0.1,1,0.1,1.5-0.2l1,0.6c0,0.1,0,0.2,0,0.3s0,0.2,0,0.3l-2,1.2c-0.9-1-2.2-1.6-3.6-1.6
	s-2.7,0.6-3.6,1.6L9.6,5c0-0.1,0-0.2,0-0.3s0-0.2,0-0.3l1-0.6c0.6,0.3,1.3,0.3,2,0c0.5-0.3,0.8-0.7,1-1.2c0.1-0.5,0.1-1.1-0.2-1.5
	c-0.3-0.5-0.7-0.8-1.2-1C11.7,0,11.1,0,10.7,0.3c-0.6,0.4-1,1-1,1.7l-1,0.6c-0.9-0.7-2.3-0.7-3.3,0L4.4,2c0-0.3-0.1-0.6-0.3-0.9
	c-0.3-0.5-0.7-0.8-1.2-1C2.1,0.2,1.6,0.2,1.1,0.5s-0.8,0.7-1,1.2C0,2.2,0,2.8,0.3,3.2S1,4,1.5,4.2C2,4.3,2.5,4.3,3,4l1,0.6
	c0,0.1,0,0.2,0,0.3C4,6,4.7,7,5.7,7.4v1.1C5.3,8.8,5,9.2,4.8,9.7c-0.1,0.5-0.1,1.1,0.2,1.5c0.3,0.5,0.7,0.8,1.2,1
	c0.5,0.1,1.1,0.1,1.5-0.2c0.5-0.3,0.8-0.7,1-1.2s0.1-1.1-0.2-1.5C8.3,9,8.1,8.8,7.8,8.6V7.5C8,7.4,8.2,7.3,8.3,7.2l2,1.2
	c-0.1,0.5-0.2,1-0.2,1.5c0,2.3,1.6,4.3,3.8,4.8v2.1c-0.2,0.1-0.4,0.2-0.5,0.3l-1-0.6c0-1.1-0.9-1.9-2-1.9s-2,0.9-2,2s0.9,2,2,2
	c0.3,0,0.6-0.1,0.9-0.2l1,0.6c0,0.1,0,0.2,0,0.3c0,1.1,0.7,2.1,1.7,2.5v1c-0.6,0.4-0.9,1-0.9,1.7c0,1.1,0.9,2,2,2s2-0.9,2-2
	c0-0.7-0.4-1.3-0.9-1.7v-1.1c1-0.4,1.7-1.4,1.7-2.5c0-0.1,0-0.2,0-0.3l1-0.6c0.3,0.2,0.6,0.2,0.9,0.2c1.1,0,2-0.9,2-2s-0.9-2-2-2
	s-2,0.9-2,1.9l-1,0.6c-0.2-0.1-0.3-0.2-0.5-0.3v-2.1c2.2-0.5,3.8-2.5,3.8-4.8c0-0.5-0.1-1-0.2-1.5l2-1.2c0.2,0.1,0.3,0.2,0.5,0.3
	v1.1c-0.4,0.3-0.7,0.7-0.9,1.2c-0.1,0.5-0.1,1.1,0.2,1.5c0.3,0.5,0.7,0.8,1.2,1c0.5,0.1,1.1,0.1,1.5-0.2c0.5-0.3,0.8-0.7,1-1.2
	c0.1-0.5,0.1-1.1-0.2-1.5C25,9,24.8,8.8,24.5,8.6V7.5c1-0.4,1.7-1.4,1.7-2.5c0-0.1,0-0.2,0-0.3l1-0.6c0.6,0.3,1.3,0.3,2,0
	c0.5-0.3,0.8-0.7,1-1.2C30.2,2.3,30.1,1.7,29.9,1.2z M24.2,5c0,0.4-0.3,0.7-0.7,0.7S22.8,5.4,22.8,5s0.3-0.7,0.7-0.7
	S24.2,4.6,24.2,5z M15.1,12.6c-1.5,0-2.8-1.2-2.8-2.8c0-1.5,1.2-2.8,2.8-2.8c1.5,0,2.8,1.2,2.8,2.8C17.9,11.3,16.6,12.6,15.1,12.6z
	 M15.1,19.9c-0.4,0-0.7-0.3-0.7-0.7c0-0.4,0.3-0.7,0.7-0.7s0.7,0.3,0.7,0.7C15.8,19.6,15.5,19.9,15.1,19.9z M7.5,5
	c0,0.4-0.3,0.7-0.7,0.7S6.1,5.4,6.1,5s0.3-0.7,0.7-0.7S7.5,4.6,7.5,5z"/>
</svg>
