<?xml version="1.0" encoding="utf-8"?>
<!-- Generator: Adobe Illustrator 26.4.1, SVG Export Plug-In . SVG Version: 6.00 Build 0)  -->
<svg version="1.1" id="Layer_1" xmlns="http://www.w3.org/2000/svg" xmlns:xlink="http://www.w3.org/1999/xlink" x="0px" y="0px"
	 viewBox="0 0 24.5 18.4" style="enable-background:new 0 0 24.5 18.4;" xml:space="preserve">
<path d="M22.7,12v-1.2h1.8V4.4h-5.3c-1.8-3.9-6.4-5.5-10.3-3.7C7.3,1.5,6,2.8,5.2,4.4H0v6.4h1.8V12h4c2.3,3.6,7.1,4.6,10.7,2.2
	c0.1-0.1,0.2-0.2,0.3-0.2l4.4,4.4l1.6-1.6l-4.4-4.4c0.1-0.1,0.2-0.2,0.2-0.4H22.7z M19.9,6.1h3v3h-3C20,8.8,20,8.5,20,8.2h0.8V7.3
	H20C20,6.9,19.9,6.5,19.9,6.1L19.9,6.1z M4.6,7.3H3.7v0.9h0.9c0,0.3,0.1,0.6,0.1,0.9h-3v-3h3C4.6,6.5,4.6,6.9,4.6,7.3z M17.7,9.3
	c-0.9,3-4.1,4.6-7.1,3.7c-2.3-0.7-3.9-2.9-3.9-5.4c0-3.1,2.4-5.6,5.5-5.7c2.5,0,4.7,1.6,5.5,3.9V6c0.2,0.5,0.2,1.1,0.2,1.6
	C18,8.3,17.9,8.8,17.7,9.3z M11.8,7.1h0.9V8h-0.9V7.1z M10.1,10.8h4.2v-6h-4.2C10.1,4.8,10.1,10.8,10.1,10.8z M11.4,6.2H13v3.4h-1.6
	V6.2z"/>
</svg>
