<?xml version="1.0" encoding="utf-8"?>
<!-- Generator: Adobe Illustrator 26.4.1, SVG Export Plug-In . SVG Version: 6.00 Build 0)  -->
<svg version="1.1" id="Layer_1" xmlns="http://www.w3.org/2000/svg" xmlns:xlink="http://www.w3.org/1999/xlink" x="0px" y="0px"
	 viewBox="0 0 25.7 25.7" style="enable-background:new 0 0 25.7 25.7;" xml:space="preserve">
<g id="ICON_ARTWORK">
	<path d="M8.7,11.6H7.5V7.5h1.2V11.6z M15.7,7.5h-1.1v4.2h1.2L15.7,7.5z M14,9.6c0-1.4-1.1-2.5-2.5-2.5c-1.4,0-2.5,1.1-2.5,2.5
		c0,1.4,1.1,2.5,2.5,2.5C12.9,12,14,10.9,14,9.6C14,9.6,14,9.6,14,9.6 M12.8,9.6c0,0.7-0.6,1.3-1.3,1.3c-0.7,0-1.3-0.6-1.3-1.3
		c0-0.7,0.6-1.3,1.3-1.3S12.8,8.8,12.8,9.6C12.8,9.6,12.8,9.6,12.8,9.6 M12.5,12.7h-1.1v4.2h1.2L12.5,12.7z M16.9,7.9
		c-0.9,1-0.8,2.6,0.2,3.5c0.1,0.1,0.1,0.1,0.2,0.2c0.1-0.4,0.1-0.9,0.1-1.3C17.4,9.4,17.2,8.6,16.9,7.9 M14.7,7.1
		c0.6,0,1.1-0.2,1.6-0.6c-0.2-0.4-0.5-0.7-0.7-1c-0.2,0.2-0.6,0.4-0.9,0.4c-0.7,0-1.3-0.5-1.3-1.2c0-0.3,0.1-0.5,0.2-0.8
		c-0.4-0.2-0.7-0.4-1.1-0.5c-0.7,1.2-0.2,2.7,1,3.3C13.8,6.9,14.2,7,14.7,7.1 M11.5,6.6V3.2C11.1,3.1,10.7,3,10.3,3v3.6L11.5,6.6z
		 M7.3,7c1.4,0,2.5-1.1,2.5-2.5C9.8,4,9.6,3.5,9.3,3c-0.5,0.1-1,0.2-1.5,0.3c0.7,0.3,1,1,0.7,1.7C8.3,5.5,7.9,5.8,7.3,5.8
		c-0.7,0-1.3-0.6-1.3-1.3c0-0.1,0-0.2,0-0.3c-0.4,0.3-0.8,0.6-1.1,1C5.2,6.3,6.2,7,7.3,7 M3.9,6.6h0.5V5.8C4.2,6.1,4,6.4,3.9,6.6
		 M4.5,12C4,12,3.5,11.8,3,11.5c-0.1-0.4-0.1-0.9-0.1-1.3c0-1,0.2-2,0.6-2.9C3.9,7.1,4.2,7,4.6,7c1.4,0,2.5,1.1,2.5,2.5
		C7.1,10.9,5.9,12,4.5,12 M4.6,10.8c0.7,0,1.3-0.6,1.3-1.3S5.2,8.3,4.5,8.3c-0.7,0-1.3,0.6-1.3,1.3C3.3,10.3,3.8,10.8,4.6,10.8
		C4.5,10.8,4.5,10.8,4.6,10.8 M4,12.7V14c0.3,0.5,0.8,1,1.2,1.4v-2.7H4z M8.6,17.2c-0.9-0.2-1.7-0.6-2.5-1.1
		c-0.7-1.2-0.4-2.7,0.8-3.4c1.2-0.7,2.7-0.4,3.4,0.8c0.7,1.2,0.4,2.7-0.8,3.4C9.2,17.1,8.9,17.2,8.6,17.2 M9.5,14.8
		c0-0.7-0.6-1.3-1.3-1.3s-1.3,0.6-1.3,1.3c0,0.7,0.6,1.3,1.3,1.3S9.5,15.5,9.5,14.8C9.5,14.8,9.5,14.8,9.5,14.8 M13.1,15
		c0,0.6,0.2,1.1,0.6,1.6c0.4-0.2,0.7-0.4,1-0.7c-0.5-0.5-0.5-1.3,0-1.8c0.2-0.2,0.6-0.4,0.9-0.4c0.3,0,0.5,0.1,0.8,0.2
		c0.2-0.3,0.4-0.7,0.5-1.1c-0.4-0.2-0.8-0.4-1.3-0.4C14.2,12.5,13.1,13.6,13.1,15 M18.3,16.3c3.4-4.5,2.5-10.9-2-14.3
		S5.4-0.4,2.1,4.1s-2.5,10.9,2,14.3c3.6,2.7,8.6,2.7,12.3,0l7.4,7.4l2-2L18.3,16.3z M10.2,18c-4.3,0-7.8-3.5-7.8-7.8
		s3.5-7.8,7.8-7.8S18,5.9,18,10.2l0,0C18,14.5,14.5,18,10.2,18z"/>
</g>
</svg>
