<?xml version="1.0" encoding="utf-8"?>
<!-- Generator: Adobe Illustrator 26.4.1, SVG Export Plug-In . SVG Version: 6.00 Build 0)  -->
<svg version="1.1" id="Layer_1" xmlns="http://www.w3.org/2000/svg" xmlns:xlink="http://www.w3.org/1999/xlink" x="0px" y="0px"
	 viewBox="0 0 27.9 29.8" style="enable-background:new 0 0 27.9 29.8;" xml:space="preserve">
<g id="ICON_ARTWORK">
	<path d="M10.1,5.6c-2.5,0-4.5,2-4.5,4.5c0,2.5,2,4.5,4.5,4.5s4.5-2,4.5-4.5c0,0,0,0,0,0C14.7,7.6,12.6,5.6,10.1,5.6z M12.8,10.1
		c0,1.5-1.2,2.7-2.7,2.7c-1.5,0-2.7-1.2-2.7-2.7c0-1.5,1.2-2.7,2.7-2.7c0,0,0,0,0,0C11.6,7.5,12.8,8.7,12.8,10.1
		C12.8,10.1,12.8,10.1,12.8,10.1z M26.2,24.2l1.7-0.7v-0.2c0-1-0.3-2-0.8-2.9L27,20.1l-1.8,0.3c-0.2-0.2-0.4-0.4-0.6-0.6l0.3-1.8
		l-0.2-0.1c-0.9-0.5-1.9-0.8-2.9-0.8h-0.3l-0.7,1.7c-0.3,0-0.6,0.1-0.8,0.2l-1.3-1l-0.2-0.1L18.2,18c-0.9,0.5-1.6,1.3-2.1,2.1
		l-0.1,0.2l1.1,1.5c-0.1,0.3-0.2,0.5-0.2,0.8l-1.7,0.7v0.3c0,1,0.3,2,0.8,2.9l0.1,0.2l1.8-0.3c0.2,0.2,0.4,0.4,0.6,0.6l-0.3,1.8
		l0.2,0.1c0.9,0.5,1.9,0.8,2.9,0.8h0.3l0.7-1.7c0.3,0,0.5-0.1,0.8-0.2l1.4,1.2l0.2-0.1c0.9-0.5,1.6-1.3,2.2-2.1l0.1-0.2L25.9,25
		C26,24.8,26.1,24.5,26.2,24.2z M20.1,23.8C20,23.4,20,23,20.2,22.7c0.2-0.3,0.5-0.6,0.9-0.7c0.1,0,0.3-0.1,0.4,0
		c0.8,0,1.5,0.7,1.5,1.5c0,0.3-0.1,0.5-0.2,0.7c-0.4,0.7-1.3,1-2.1,0.5C20.4,24.5,20.2,24.2,20.1,23.8z M17.3,17.1l0.4-0.5
		c0.8-0.9,1.4-2,1.8-3.1l0.2-0.6l-2-1.5c0-0.2,0-0.4,0.1-0.6l2.3-0.9V9.3c-0.1-1.2-0.4-2.4-0.9-3.5l-0.3-0.6l-2.5,0.4l-0.3-0.4
		l1-2.3l-0.5-0.4c-0.9-0.8-2-1.4-3.1-1.8l-0.6-0.2l-1.6,2l-0.5-0.1L9.9,0H9.3C8.1,0.1,6.9,0.4,5.8,0.9L5.2,1.3l0.4,2.5
		C5.4,3.9,5.2,4,5.1,4.1l-2.3-1L2.4,3.6C1.6,4.5,1,5.6,0.6,6.7L0.3,7.3l2,1.5c0,0.2-0.1,0.4-0.1,0.6L0,10.3v0.6
		c0.1,1.2,0.4,2.4,0.9,3.5L1.2,15l2.5-0.4L4,15.1l-1,2.3l0.5,0.4c0.9,0.8,2,1.4,3.1,1.8l0.6,0.2l1.5-2c0.2,0,0.4,0.1,0.6,0.1
		l0.9,2.3l0.6,0c1.2-0.1,2.4-0.4,3.5-0.9l0.6-0.3l-0.4-2.5c0.1-0.1,0.3-0.2,0.5-0.4L17.3,17.1z M12.6,15.4l0.3,2.2
		c-0.5,0.2-1,0.3-1.6,0.4l-0.8-2H10c-0.4,0-0.9-0.1-1.3-0.2l-0.5-0.1l-1.3,1.7c-0.5-0.2-1-0.5-1.4-0.8l0.9-2l-0.4-0.4
		c-0.3-0.3-0.6-0.6-0.8-1l-0.3-0.5L2.6,13c-0.2-0.5-0.3-1-0.4-1.6l2-0.8v-0.6c0-0.4,0.1-0.9,0.2-1.3l0.1-0.6L2.7,6.9
		c0.2-0.5,0.5-1,0.8-1.4l2,0.9L6,6c0.3-0.3,0.6-0.6,1-0.8l0.5-0.3L7.2,2.6c0.5-0.2,1-0.3,1.6-0.4l0.8,2.1h0.6c0.4,0,0.9,0.1,1.3,0.2
		L12,4.6l1.3-1.8c0.5,0.2,1,0.5,1.4,0.8l-0.9,2L14.3,6c0.3,0.3,0.6,0.6,0.8,1l0.3,0.5l2.2-0.2c0.2,0.5,0.3,1,0.4,1.6l-2,0.8v0.6
		c0,0.4-0.1,0.9-0.2,1.3l-0.1,0.5l1.8,1.3c-0.2,0.5-0.5,1-0.8,1.4l-2-0.9l-0.4,0.4c-0.3,0.3-0.6,0.6-1,0.8L12.6,15.4z"/>
</g>
</svg>
