<?xml version="1.0" encoding="utf-8"?>
<!-- Generator: Adobe Illustrator 26.4.1, SVG Export Plug-In . SVG Version: 6.00 Build 0)  -->
<svg version="1.1" id="Layer_1" xmlns="http://www.w3.org/2000/svg" xmlns:xlink="http://www.w3.org/1999/xlink" x="0px" y="0px"
	 viewBox="0 0 26.2 26.2" style="enable-background:new 0 0 26.2 26.2;" xml:space="preserve">
<path d="M13.1,0C5.9,0,0,5.9,0,13.1s5.9,13.1,13.1,13.1s13.1-5.9,13.1-13.1S20.3,0,13.1,0z M23.9,13.1c0,6-4.9,10.8-10.8,10.8
	c-6,0-10.8-4.8-10.8-10.8S7.2,2.3,13.1,2.3C19.1,2.3,23.9,7.1,23.9,13.1z M14.3,14.3c0,0.2-0.1,0.5-0.2,0.6v1.8h-1.9v-1.8
	c-0.1-0.2-0.2-0.4-0.2-0.6c0-0.6,0.5-1.1,1.1-1.1S14.3,13.7,14.3,14.3z M18.5,10.4v9.2H7.7v-9.2h1.4V9.7c0-2.2,1.8-4.1,4.1-4.1
	s4.1,1.8,4.1,4.1v0.7C17.3,10.4,18.5,10.4,18.5,10.4z M11.1,9.8v0.7h4V9.8c0-1.1-0.9-2-2-2S11.1,8.7,11.1,9.8z M16.5,17.5v-5H9.7v5
	H16.5z"/>
</svg>
