<?xml version="1.0" encoding="utf-8"?>
<!-- Generator: Adobe Illustrator 26.4.1, SVG Export Plug-In . SVG Version: 6.00 Build 0)  -->
<svg version="1.1" id="Layer_1" xmlns="http://www.w3.org/2000/svg" xmlns:xlink="http://www.w3.org/1999/xlink" x="0px" y="0px"
	 viewBox="0 0 25.6 25.6" style="enable-background:new 0 0 25.6 25.6;" xml:space="preserve">
<g id="ICON_ARTWORK">
	<path d="M25.6,12.8c0,7.1-5.7,12.8-12.8,12.8C5.7,25.6,0,19.9,0,12.8C0,5.7,5.7,0,12.8,0l0,0C19.9,0,25.6,5.7,25.6,12.8z M3,17.6
		h3.8c-0.4-1.1-0.7-2.2-0.8-3.4h-4C2.1,15.4,2.4,16.6,3,17.6z M17,8.8h-3.3v3.4h3.9c0-0.2,0-0.4,0-0.6C17.5,10.6,17.3,9.7,17,8.8
		L17,8.8z M16.4,6.7c-0.7-1.5-1.6-2.9-2.8-4.1v4.1L16.4,6.7z M11.6,2.7c-1.1,1.2-2,2.5-2.7,4h2.7V2.7z M8.4,8.8
		c-0.3,0.9-0.4,1.8-0.5,2.8c0,0.2,0,0.4,0,0.6h3.7V8.8H8.4z M6.3,8.8H2.6c-0.4,1.1-0.7,2.2-0.7,3.4h4c0-0.2,0-0.5,0-0.8
		C5.9,10.6,6.1,9.7,6.3,8.8L6.3,8.8z M8.9,17.7h2.7v-3.4H8C8.1,15.4,8.4,16.6,8.9,17.7L8.9,17.7z M9.6,19.7c0.6,1.1,1.3,2.1,2.1,3
		v-3H9.6z M13.5,22.9c0.8-1,1.6-2.1,2.2-3.2h-2.2V22.9z M16.5,17.7c0.5-1.1,0.8-2.2,0.9-3.4h-3.8v3.4H16.5z M18.7,17.7h3.9
		c0.5-1.1,0.9-2.2,1-3.4h-4.1C19.4,15.4,19.1,16.5,18.7,17.7L18.7,17.7z M23.7,12.2c0-1.2-0.3-2.3-0.7-3.4h-3.8
		c0.2,0.9,0.4,1.8,0.5,2.7c0,0.2,0,0.5,0,0.7H23.7z M15.5,2.1c1.2,1.4,2.1,2.9,2.8,4.6H22C20.6,4.4,18.2,2.7,15.5,2.1z M3.6,6.7h3.5
		c0.7-1.7,1.6-3.2,2.8-4.6C7.2,2.8,5,4.4,3.6,6.7z M10.2,23.6c-1-1.2-1.8-2.5-2.5-3.9H4.2C5.7,21.7,7.8,23.1,10.2,23.6z M21.4,19.7
		h-3.7c-0.7,1.4-1.6,2.7-2.6,3.9C17.7,23.1,19.9,21.7,21.4,19.7L21.4,19.7z"/>
</g>
</svg>
