<?xml version="1.0" encoding="utf-8"?>
<!-- Generator: Adobe Illustrator 26.4.1, SVG Export Plug-In . SVG Version: 6.00 Build 0)  -->
<svg version="1.1" id="Layer_1" xmlns="http://www.w3.org/2000/svg" xmlns:xlink="http://www.w3.org/1999/xlink" x="0px" y="0px"
	 viewBox="0 0 31.2 30.8" style="enable-background:new 0 0 31.2 30.8;" xml:space="preserve">
<g id="ICON_ARTWORK">
	<path d="M10.6,20.8h1.8v10h6.3v-10h1.8V7.4h-10L10.6,20.8z M16.8,18.8v10h-2.3v-10h-1.8V9.4h6v9.3H16.8z M15.6,6.5
		c1.8,0,3.2-1.5,3.2-3.2S17.4,0,15.6,0s-3.2,1.5-3.2,3.2l0,0C12.4,5,13.8,6.5,15.6,6.5z M14.3,3.2c0-0.7,0.6-1.3,1.3-1.3
		s1.3,0.6,1.3,1.3s-0.6,1.3-1.3,1.3S14.3,4,14.3,3.2L14.3,3.2z M26.3,7.4c1.8,0,3.2-1.5,3.2-3.2s-1.5-3.2-3.2-3.2s-3.2,1.5-3.2,3.2
		l0,0C23.1,6,24.5,7.4,26.3,7.4z M26.3,2.8c0.7,0,1.3,0.6,1.3,1.3c0,0.7-0.6,1.3-1.3,1.3c-0.7,0-1.3-0.6-1.3-1.3c0,0,0,0,0,0
		C25,3.4,25.6,2.8,26.3,2.8C26.3,2.8,26.3,2.8,26.3,2.8L26.3,2.8z M29.5,8.1h-6.3l-1.7,13.9h2v6.3h5.7v-6.3h2L29.5,8.1z M25.5,26.2
		v-4.3h1.7v4.3H25.5z M1.7,8.1L0,21.9h2v6.3h5.7v-6.3h2L8,8.1H1.7z M4,26.2v-4.3h1.7v4.3H4z M4.9,7.4c1.8,0,3.2-1.5,3.2-3.2
		S6.7,0.9,4.9,0.9S1.6,2.4,1.6,4.2C1.6,6,3.1,7.4,4.9,7.4z M4.9,2.8c0.7,0,1.3,0.6,1.3,1.3c0,0.7-0.6,1.3-1.3,1.3
		c-0.7,0-1.3-0.6-1.3-1.3c0,0,0,0,0,0C3.5,3.4,4.1,2.8,4.9,2.8C4.8,2.8,4.9,2.8,4.9,2.8L4.9,2.8z"/>
</g>
</svg>
