<?xml version="1.0" encoding="utf-8"?>
<!-- Generator: Adobe Illustrator 26.4.1, SVG Export Plug-In . SVG Version: 6.00 Build 0)  -->
<svg version="1.1" id="Layer_1" xmlns="http://www.w3.org/2000/svg" xmlns:xlink="http://www.w3.org/1999/xlink" x="0px" y="0px"
	 viewBox="0 0 40 30.7" style="enable-background:new 0 0 40 30.7;" xml:space="preserve">
<g id="Layer_1_00000039845184404166379310000015030808654702024339_">
	<path d="M35.6,24.3c0.4-0.7,0.6-1.5,0.6-2.3v-7.9c0-0.9-0.7-1.6-1.6-1.5h-0.1v-0.1c0-0.9-0.8-1.7-1.7-1.7c-0.2,0-0.4,0-0.6,0.1
		c-0.5-0.8-1.6-1-2.4-0.5c-0.3,0.2-0.6,0.5-0.7,0.9c-0.1,0-0.3,0-0.4,0c-0.9,0-1.7,0.8-1.7,1.7l0,0v5.4l-0.3-1
		c-0.2-0.9-1.1-1.4-2-1.1c-0.5,0.1-0.9,0.5-1.1,1.1c-0.1,0.3-0.1,0.7,0,1c0.3,1.5,0.8,3,1.5,4.4c0.4,0.6,0.8,1.1,1.3,1.6
		c0.5,0.4,0.8,1,1.1,1.5c-0.1,0.1-0.1,0.2-0.1,0.3v1.1c-0.3,0-0.6,0.3-0.6,0.7v2c0,0.4,0.3,0.7,0.7,0.7s0.7-0.3,0.7-0.7l0,0v-1.3
		h6.4V30c0,0.4,0.3,0.7,0.7,0.7S36,30.4,36,30v-2c0-0.4-0.3-0.6-0.6-0.7v-1.1c0-0.2-0.1-0.3-0.2-0.5c0.1-0.4,0.2-0.8,0.4-1.1
		L35.6,24.3z M33.9,26.7v0.4h-5.2v-0.4H33.9z M28.8,25.3c-0.3-0.8-0.8-1.6-1.5-2.2c-0.4-0.4-0.8-0.9-1.2-1.4c-0.5-1.3-1-2.6-1.3-4
		l0,0v-0.1c0-0.1,0.2-0.2,0.3-0.1l0,0c0.1,0,0.1,0.1,0.1,0.2l0.1,0.2l0,0l0.7,2.2c0.2,0.6,0.7,0.9,1.3,0.9c0.6-0.1,1-0.6,1-1.2V13
		c0-0.2,0.1-0.3,0.3-0.3c0.2,0,0.3,0.1,0.3,0.3v4.7c0,0.4,0.3,0.7,0.7,0.7c0.4,0,0.7-0.3,0.7-0.7v-6c0-0.2,0.2-0.3,0.3-0.3l0,0
		c0.2,0,0.3,0.2,0.3,0.3l0,0v6c0,0.4,0.3,0.7,0.7,0.7c0.4,0,0.8-0.3,0.8-0.7v-5.3c0-0.2,0.2-0.3,0.3-0.3l0,0c0.2,0,0.3,0.2,0.3,0.3
		l0,0v5.3c0,0.4,0.3,0.7,0.7,0.7s0.7-0.3,0.7-0.7v-3.6c0-0.2,0.3-0.2,0.3,0v8c0,0.6-0.2,1.1-0.5,1.6l-0.1,0.1
		c-0.2,0.5-0.4,1-0.5,1.5H28.8z M14.4,16.1L14.4,16.1c-0.5,0.2-0.9,0.6-1.1,1.1l-0.3,1v-5.4c0-0.9-0.8-1.7-1.7-1.7l0,0
		c-0.1,0-0.3,0-0.4,0c-0.3-0.9-1.3-1.4-2.2-1.1c-0.3,0.2-0.6,0.4-0.8,0.7c-0.2,0-0.5,0-0.7,0c-1,0-1.7,0.8-1.7,1.7v0.1
		c-0.9-0.1-1.6,0.6-1.7,1.4V14v8c0,0.8,0.2,1.5,0.6,2.2v0.1c0.2,0.4,0.3,0.7,0.4,1.1c-0.1,0.1-0.2,0.3-0.2,0.5V27
		C4.2,27,4,27.3,4,27.7v2c0,0.4,0.3,0.7,0.7,0.7c0.4,0,0.7-0.3,0.7-0.7v-1.3h6.4v1.3c0,0.4,0.3,0.7,0.7,0.7s0.7-0.3,0.7-0.7v-2
		c0-0.4-0.3-0.6-0.6-0.7v-1.1c0-0.1,0-0.2-0.1-0.3c0.3-0.6,0.7-1.2,1.1-1.6c0.5-0.5,0.9-1,1.3-1.6c0.6-1.4,1.1-2.9,1.5-4.4
		c0.3-0.8-0.2-1.8-1-2C15.1,16,14.7,16,14.4,16.1z M11.2,26.7v0.4H6v-0.4H11.2z M6.2,25.3c-0.1-0.5-0.3-1-0.5-1.5l-0.1-0.1
		c-0.3-0.5-0.4-1.1-0.5-1.7v-7.9c0-0.2,0.3-0.2,0.3,0v3.6c0,0.4,0.3,0.7,0.7,0.7s0.7-0.3,0.7-0.7v-5.3c0-0.2,0.2-0.3,0.3-0.3
		s0.3,0.2,0.3,0.3v5.3c0,0.4,0.3,0.7,0.7,0.7c0.4,0,0.7-0.3,0.7-0.7v-6c0-0.2,0.2-0.3,0.3-0.3s0.3,0.2,0.3,0.3v6
		c0,0.4,0.3,0.7,0.7,0.7s0.7-0.3,0.7-0.7v-4.9c0-0.2,0.1-0.3,0.2-0.3s0.3,0.1,0.3,0.2v0.1v6.8c0,0.6,0.4,1.1,1,1.2
		c0.6,0.1,1.1-0.3,1.3-0.9l0.7-2.2l0,0v-0.2c0-0.1,0.1-0.1,0.1-0.2c0.1,0,0.2,0,0.3,0.1l0,0v0.1v0.2c-0.3,1.4-0.7,2.7-1.3,4
		c-0.3,0.5-0.7,1-1.1,1.4c-0.6,0.6-1.1,1.4-1.5,2.2H6.2z M40,0v20.5h-3.6v-2.8h0.8V2.8H2.8v15h0.8v2.8H0V0H40z M23.8,20.5H16
		l0.8-2.8H23L23.8,20.5z M21.7,8.8h-3.5V5.3h3.5V8.8z M24.6,8.8h3.5V5.3h-3.5V8.8z M31,5.4v3.5h3.4V5.4H31z M15.4,5.4h-3.5v3.5h3.5
		V5.4z M5.6,8.8h3.5V5.3H5.6V8.8z M13.5,15.2h13v-3.5h-13V15.2z"/>
</g>
</svg>
