<?xml version="1.0" encoding="utf-8"?>
<!-- Generator: Adobe Illustrator 26.4.1, SVG Export Plug-In . SVG Version: 6.00 Build 0)  -->
<svg version="1.1" id="Layer_1" xmlns="http://www.w3.org/2000/svg" xmlns:xlink="http://www.w3.org/1999/xlink" x="0px" y="0px"
	 viewBox="0 0 26 24.8" style="enable-background:new 0 0 26 24.8;" xml:space="preserve">
<g id="ICON_ARTWORK">
	<path d="M18,9.4H8.1V7.5H18V9.4z M26,9v15.8H0V9l3.8-2.6V3.5H8L13,0l5,3.5h4.2v2.9L26,9z M3.8,10V9.1L3.2,9.6L3.8,10z M14,3.4
		l-1-0.7l-1,0.7H14z M22.8,9.6l-0.6-0.4V10L22.8,9.6z M23.7,22.5V12L13,19.4L2.4,12v10.5L23.7,22.5z M8.6,13.3l4.4,3.1l4.4-3.1H8.6z
		 M19.9,5.8H6.1v5.8L8.1,13v-1.6H18v1.6l1.9-1.3V5.8z"/>
</g>
</svg>
