<?xml version="1.0" encoding="utf-8"?>
<!-- Generator: Adobe Illustrator 26.4.1, SVG Export Plug-In . SVG Version: 6.00 Build 0)  -->
<svg version="1.1" id="Layer_1" xmlns="http://www.w3.org/2000/svg" xmlns:xlink="http://www.w3.org/1999/xlink" x="0px" y="0px"
	 viewBox="0 0 27.2 27.2" style="enable-background:new 0 0 27.2 27.2;" xml:space="preserve">
<g id="ICON_ARTWORK">
	<path d="M19.8,11c-0.2-0.1-0.4-0.2-0.7-0.3l-0.2-0.1v-0.2c0.2-1.2-0.1-2.5-0.8-3.6c-0.8-1.3-2.2-2.2-3.8-2.4h-0.3v0.8
		c0,0.3,0.3,0.3,0.5,0.4C16,6.1,16.9,7.5,16.7,9c0,0.3-0.1,0.6-0.2,0.8c-1.7-1.3-4.1-1.3-5.8,0c-0.2-0.5-0.3-1-0.2-1.5
		c0.2-1.3,1.1-2.3,2.3-2.6c0.2-0.1,0.3-0.2,0.3-0.5V4.5h-0.3c-2,0.3-3.7,1.8-4.3,3.8c-0.1,0.5-0.2,1-0.2,1.6c0,0.3,0,0.6,0.1,0.9
		l-0.2,0.1C8.1,10.9,7.9,11,7.7,11c-0.9,0.5-1.7,1.3-2.2,2.2c-0.7,1.4-0.8,3-0.2,4.4L5.4,18l0.7-0.4c0.2-0.1,0.2-0.3,0.2-0.5
		c0,0,0,0,0,0c-0.1-0.2-0.1-0.4-0.1-0.6c0-0.6,0.1-1.2,0.4-1.7c0.5-0.8,1.3-1.4,2.3-1.5c0,0.1,0,0.2,0,0.4c0,2,1.2,3.7,3,4.5
		c-0.2,0.3-0.5,0.6-0.8,0.8c-0.8,0.5-1.8,0.7-2.7,0.4c-0.5-0.1-0.9-0.4-1.2-0.7c-0.1-0.2-0.3-0.3-0.5-0.2l-0.7,0.4L6,19.1
		c1,1.3,2.6,2,4.2,2c1.1,0,2.2-0.3,3.1-1l0.3-0.2l0.1,0c0.3,0.2,0.5,0.4,0.8,0.5c2.3,1.2,5.1,0.6,6.7-1.4l0.2-0.2l-0.7-0.4
		c-0.2-0.1-0.3-0.1-0.5,0.1c-0.1,0.1-0.3,0.3-0.5,0.4c-1.4,0.9-3.3,0.5-4.2-0.8c1.8-0.8,2.9-2.5,2.9-4.4c0-0.1,0-0.3,0-0.4
		c1.3,0.2,2.4,1.2,2.7,2.5c0.1,0.5,0.1,1,0,1.5c0,0.1,0,0.3,0.3,0.5l0.5,0.3l0.1-0.3C23,15.2,22.1,12.4,19.8,11z M15,15.6
		c0.1-0.3,0.1-0.5,0.3-0.7c0.1-0.2,0.2-0.3,0.3-0.5l0.1-0.1c0.2-0.3,0.5-0.5,0.8-0.7l0.1-0.1c0,0,0,0.1,0,0.1c0,1.1-0.6,2.2-1.6,2.7
		C15,16.1,15,15.8,15,15.6z M15.4,11.1c-1.1,0.7-2.5,0.7-3.5,0C12.9,10.4,14.4,10.4,15.4,11.1L15.4,11.1z M12.3,16.3
		c-1.1-0.5-1.8-1.6-1.8-2.8v-0.1c0.3,0.1,0.6,0.3,0.8,0.6l0.4,0.4c0.1,0.1,0.2,0.3,0.3,0.4C12.2,15.3,12.3,15.8,12.3,16.3L12.3,16.3
		z M13.6,0C6.1,0,0,6.1,0,13.6c0,7.5,6.1,13.6,13.6,13.6c7.5,0,13.6-6.1,13.6-13.6c0,0,0,0,0,0C27.2,6.1,21.1,0,13.6,0z M24.9,13.6
		c0,6.2-5,11.3-11.3,11.3c-6.2,0-11.3-5-11.3-11.3s5-11.3,11.3-11.3c0,0,0,0,0,0C19.8,2.3,24.9,7.4,24.9,13.6z"/>
</g>
</svg>
