<?xml version="1.0" encoding="utf-8"?>
<!-- Generator: Adobe Illustrator 26.4.1, SVG Export Plug-In . SVG Version: 6.00 Build 0)  -->
<svg version="1.1" id="Layer_1" xmlns="http://www.w3.org/2000/svg" xmlns:xlink="http://www.w3.org/1999/xlink" x="0px" y="0px"
	 viewBox="0 0 27 17.3" style="enable-background:new 0 0 27 17.3;" xml:space="preserve">
<g id="ICON_ARTWORK">
	<path d="M0,0v17.3h27V0H0z M2.3,10.1V7.2h2.8v2.9L2.3,10.1z M9.9,12.2v3H2.3v-3H9.9z M2.3,5.1V2.2h7.6v2.9L2.3,5.1z M7.3,10.1V7.2
		h7.6v2.9L7.3,10.1z M19.8,12.2v3h-7.6v-3H19.8z M12.2,5.1V2.2h7.6v2.9L12.2,5.1z M17.2,10.1V7.2h7.6v2.9L17.2,10.1z M24.8,12.2v3
		H22v-3H24.8z M22,5.1V2.2h2.9v2.9L22,5.1z"/>
</g>
</svg>
