<?xml version="1.0" encoding="utf-8"?>
<!-- Generator: Adobe Illustrator 26.4.1, SVG Export Plug-In . SVG Version: 6.00 Build 0)  -->
<svg version="1.1" id="Layer_1" xmlns="http://www.w3.org/2000/svg" xmlns:xlink="http://www.w3.org/1999/xlink" x="0px" y="0px"
	 viewBox="0 0 34.9 24.9" style="enable-background:new 0 0 34.9 24.9;" xml:space="preserve">
<g id="ICON_ARTWORK">
	<path d="M33.7,6c-0.7-0.7-1.6-1.1-2.5-1.1c-0.6-1.4-2-2.3-3.5-2.3c-0.2,0-0.4,0-0.6,0.1C26.2,1,24.5,0,22.6,0c-2.2,0-4.2,1.5-5,3.6
		c-2,0.6-3.4,2.4-3.4,4.4H7.6l3,10.2h14.3l1.6-5.5h4.4c2.2,0,3.9-1.8,4-3.9c0,0,0,0,0-0.1C34.9,7.7,34.5,6.7,33.7,6z M32.8,8.8
		c0,1.1-0.9,1.9-1.9,1.9l0,0h-3.8L27.9,8H16.2c0-1.3,1.1-2.4,2.4-2.6l0.7-0.1l0.1-0.7C19.6,3.1,21,2,22.6,2l0,0
		c1.4,0,2.6,0.9,3.1,2.2l0.4,0.9L27,4.7c0.2-0.1,0.5-0.2,0.8-0.2l0,0c0.9,0,1.6,0.7,1.8,1.6l0.1,1l1-0.2H31l0,0
		C32,6.9,32.8,7.7,32.8,8.8z M12.1,16.2L10.3,10h15l-1.9,6.1L12.1,16.2z M23.4,21.5v-2.2H9.7L6.3,7.7L0.4,6.6L0,8.7l4.6,0.9L8,21.5
		H9c-0.1,0.2-0.1,0.5-0.1,0.7c0,1.5,1.2,2.7,2.7,2.7s2.7-1.2,2.7-2.7c0-0.2,0-0.5-0.1-0.7h2.7c-0.1,0.2-0.1,0.4-0.1,0.7
		c0,1.5,1.2,2.7,2.7,2.7c0.7,0,1.4-0.3,1.9-0.8c0.5-0.5,0.8-1.2,0.8-1.9c0-0.2,0-0.5-0.1-0.7L23.4,21.5z M20.2,22.2
		c0,0.4-0.3,0.7-0.7,0.7l0,0c-0.4,0-0.7-0.4-0.6-0.8c0-0.3,0.3-0.6,0.6-0.6l0,0C19.9,21.5,20.2,21.8,20.2,22.2z M12.2,22.2
		c0,0.4-0.3,0.7-0.7,0.7l0,0c-0.4,0-0.7-0.3-0.7-0.7l0,0c0-0.2,0.1-0.4,0.2-0.5c0.1-0.1,0.3-0.2,0.5-0.2l0,0c0.2,0,0.4,0.1,0.5,0.2
		C12.2,21.8,12.3,22,12.2,22.2L12.2,22.2z"/>
</g>
</svg>
