<?xml version="1.0" encoding="utf-8"?>
<!-- Generator: Adobe Illustrator 26.4.1, SVG Export Plug-In . SVG Version: 6.00 Build 0)  -->
<svg version="1.1" id="Layer_1" xmlns="http://www.w3.org/2000/svg" xmlns:xlink="http://www.w3.org/1999/xlink" x="0px" y="0px"
	 viewBox="0 0 32.5 11.5" style="enable-background:new 0 0 32.5 11.5;" xml:space="preserve">
<g id="ICON_ARTWORK">
	<path d="M0,0v11.5h32.5V0H0z M2.5,9V2.4h27.6V9H2.5z M6.9,5.9l0.6,0.9L6.7,7.4L6,6.6L5.4,7.4L4.5,6.8l0.6-0.9l-1-0.3l0.3-1l1,0.3
		V3.9h1.1v1.1l1-0.3l0.3,1L6.9,5.9z M13.1,5.6l-0.3-1l-1,0.3V3.9h-1.1v1.1l-1-0.3l-0.3,1l1,0.3L9.6,6.8l0.9,0.6l0.6-0.9l0.6,0.9
		l0.9-0.6l-0.6-0.9L13.1,5.6z M28.4,5.6l-0.3-1l-1,0.3V3.9h-1.1v1.1l-1-0.3l-0.3,1l1,0.3L25,6.8l0.9,0.6l0.6-0.9l0.6,0.9L28,6.8
		l-0.6-0.9L28.4,5.6z M23.3,5.6l-0.3-1l-1,0.3V3.9h-1.1v1.1l-1-0.3l-0.3,1l1,0.3l-0.6,0.9l0.9,0.6l0.6-0.9L22,7.5l0.9-0.6l-0.6-0.9
		L23.3,5.6z M18.2,5.6l-0.3-1l-1,0.3V3.9h-1.1v1.1l-1-0.3l-0.3,1l1,0.3l-0.6,0.9l0.9,0.6l0.6-0.9l0.6,0.9l0.9-0.6l-0.6-0.9L18.2,5.6
		z"/>
</g>
</svg>
