<?xml version="1.0" encoding="utf-8"?>
<!-- Generator: Adobe Illustrator 26.4.1, SVG Export Plug-In . SVG Version: 6.00 Build 0)  -->
<svg version="1.1" id="Layer_1" xmlns="http://www.w3.org/2000/svg" xmlns:xlink="http://www.w3.org/1999/xlink" x="0px" y="0px"
	 viewBox="0 0 22.4 27.8" style="enable-background:new 0 0 22.4 27.8;" xml:space="preserve">
<g id="ICON_ARTWORK">
	<path d="M17.8,3.3H3.5v24.5h18.9V7.9L17.8,3.3z M20.4,9.3v16.5H5.5V5.4h11v3.9H20.4z M14.4,2.2H2.2v21.6H0V0h14.4L14.4,2.2z
		 M15.4,15v-0.8c0-1.3-1.1-2.4-2.4-2.4c-1.3,0-2.4,1.1-2.4,2.4v0.8h-0.4v4.7h5.7v-4.7L15.4,15z M11.9,15v-0.8c0-0.6,0.5-1.1,1.1-1.1
		c0,0,0,0,0,0c0.3,0,0.6,0.1,0.8,0.3c0.2,0.2,0.3,0.5,0.3,0.8V15H11.9z"/>
</g>
</svg>
