<?xml version="1.0" encoding="utf-8"?>
<!-- Generator: Adobe Illustrator 26.4.1, SVG Export Plug-In . SVG Version: 6.00 Build 0)  -->
<svg version="1.1" id="Layer_1" xmlns="http://www.w3.org/2000/svg" xmlns:xlink="http://www.w3.org/1999/xlink" x="0px" y="0px"
	 viewBox="0 0 34.6 30.8" style="enable-background:new 0 0 34.6 30.8;" xml:space="preserve">
<path d="M34.6,18.2v-0.6c-0.1-0.8-0.3-1.5-0.6-2.2l-0.3-0.6L32.2,15l0.6-1.4l-0.5-0.4c-0.6-0.5-1.3-0.9-2-1.1l-0.5-0.3L28.9,13
	l-0.6-1.4h-0.5C27.1,5.5,21.9,0.5,15.7,0h-0.5h-0.1C15,0,15,0,14.9,0s-0.2,0-0.3,0c0,0,0,0-0.1,0h-0.6l0,0C7,0.5,1.6,6.2,1.6,13.1
	c0,2.6,0.8,5.1,2.2,7.3C1.5,21,0.1,22.6,0,25c-0.1,1.6,0.4,2.9,1.3,3.9c1.6,1.6,4,1.9,5.3,1.9c0.3,0,0.5,0,0.5,0h14.6
	c0,0,0.2,0,0.3,0c5.6,0,7.5-3.3,7.5-6.5c0,0,0,0,0-0.1c0.5-0.1,1-0.3,1.4-0.5l0.5-0.3l-0.2-1.5l1.4,0.6L33,22c0.5-0.6,0.9-1.3,1.2-2
	l0.2-0.6l-1.2-0.9L34.6,18.2z M15.9,6.3V3.8c0.6,0.8,1.1,1.7,1.6,2.5H15.9z M20.1,6.3c-0.7-1.4-1.4-2.6-2.1-3.5
	c2,0.6,3.9,1.9,5.2,3.5H20.1z M15.9,12V8.6h2.7c0.4,1.2,0.7,2.3,0.9,3.4H15.9z M29.7,22.6c-0.2,0.1-0.3,0.1-0.5,0.1l-0.5-1.2h-0.5
	c-0.3,0-0.5,0-0.7-0.1L27,21.3l-0.8,1.1c-0.2-0.1-0.3-0.2-0.4-0.3l0.5-1.2l-0.4-0.4c-0.2-0.2-0.3-0.4-0.5-0.6l-0.3-0.5l-1.4,0.1
	v-0.1c0-0.1-0.1-0.2-0.1-0.3l1.2-0.5v-0.5c0-0.3,0-0.5,0.1-0.7l0.1-0.5l-1.1-0.8c0.1-0.2,0.2-0.3,0.3-0.4l1.2,0.5l0.4-0.4
	c0,0,0.1-0.1,0.2-0.1l0.3-0.2c0,0,0.1-0.1,0.2-0.1l0.5-0.3l-0.3-1.5c0.2-0.1,0.3-0.1,0.5-0.1l0.5,1.2h0.5c0.3,0,0.5,0,0.7,0.1
	l0.5,0.1l0.8-1.1c0.2,0.1,0.3,0.2,0.4,0.3l-0.5,1.2l0.4,0.4c0.2,0.2,0.3,0.4,0.5,0.6l0.3,0.5l1.3-0.2c0.1,0.2,0.1,0.3,0.1,0.5
	l-1.2,0.5v0.5c0,0.3,0,0.5-0.1,0.7l-0.1,0.5l1.1,0.8c-0.1,0.2-0.2,0.3-0.3,0.4L30.9,20l-0.4,0.4c-0.2,0.2-0.4,0.3-0.6,0.5l-0.5,0.3
	L29.7,22.6z M10.8,16.7c-0.1,0-0.1,0-0.2,0c-0.3-0.8-0.4-1.6-0.5-2.4h2.7C11.9,15,11.3,16,10.8,16.7z M6.5,17.7H4.9
	c-0.5-1.1-0.8-2.2-0.9-3.4h3.8C7.9,15.1,8,16,8.3,16.8C7.6,17,7,17.3,6.5,17.7z M5.6,22.4l1.2,0.1l0.1-1.1c0-0.1,0-0.2,0.1-0.3V21
	c0.1-0.5,0.3-0.9,0.5-1.3c0.1-0.1,0.2-0.2,0.4-0.4L8,19.2C8.1,19.1,8.2,19,8.4,19h0.1c0.1,0,0.3-0.1,0.4-0.1H9
	c0.9-0.2,1.9,0.1,1.9,0.1l0.8,0.2l0.6-1c0.5-0.8,1-1.6,1.6-2.1l0.3-0.2c0.2-0.1,0.4-0.3,0.6-0.4l0.2-0.1c0.1-0.1,0.3-0.1,0.4-0.2
	h0.1c0.7-0.2,1.4-0.2,2.3-0.2c0.6,0,1.1,0.2,1.6,0.4c0.4,0.2,0.8,0.4,1.1,0.7c0.7,0.5,1.1,1.2,1.4,1.7l-0.3,0.1v0.6
	c0.1,0.8,0.3,1.5,0.6,2.2l0.3,0.5L24,21l-0.6,1.4l0.5,0.4c0.6,0.5,1.3,0.9,2,1.1l0.6,0.2l0.6-0.8c0.1,0.4,0.1,0.7,0.1,0.8
	c0,3.9-4.1,4.2-5.3,4.2c-0.1,0-0.2,0-0.2,0H7H6.9c0,0-0.2,0-0.4,0c-0.8,0-2.7-0.1-3.7-1.2c-0.5-0.5-0.7-1.3-0.7-2.3
	C2.3,22.8,4.4,22.4,5.6,22.4z M21.9,14.3h1.2c-0.2,0.2-0.3,0.4-0.4,0.7C22.4,14.7,22.2,14.5,21.9,14.3z M21.7,12
	c-0.1-1.1-0.3-2.3-0.7-3.4h3.6c0.5,1.1,0.8,2.2,0.9,3.4H21.7z M4,12c0.1-1.2,0.4-2.3,0.9-3.4h3.6C8.1,9.7,7.9,10.9,7.8,12H4z
	 M12,6.3c0.5-0.8,1-1.7,1.6-2.5v2.5H12z M13.6,8.6V12h-3.5c0.1-1.1,0.4-2.2,0.9-3.4C11,8.6,13.6,8.6,13.6,8.6z M6.3,6.3
	c1.4-1.7,3.2-2.9,5.2-3.5c-0.6,0.9-1.4,2.1-2.1,3.5H6.3z M23.1,23.5l0.7-0.9v-0.1c-0.3-0.5-0.7-1-1.3-1.3h-0.1l-0.9,0.7
	c-0.2-0.1-0.4-0.1-0.6-0.1l-0.4-1h-0.1c-0.6,0-1.2,0.2-1.7,0.5h-0.1l0.2,1.1c-0.1,0.1-0.3,0.3-0.4,0.4l-1.1-0.2v0.1
	c-0.3,0.5-0.4,1.1-0.5,1.7v0.1l1,0.4c0,0.2,0.1,0.4,0.1,0.6l-0.7,0.9v0.1c0.3,0.5,0.8,1,1.3,1.3h0.1l0.9-0.7
	c0.2,0.1,0.4,0.1,0.6,0.2l0.4,1h0.1c0.6,0,1.2-0.2,1.7-0.5h0.1l-0.2-1.1c0.2-0.1,0.3-0.3,0.4-0.4l1.1,0.2v-0.1
	c0.3-0.5,0.5-1.1,0.5-1.7v-0.1l-1-0.4C23.2,23.9,23.2,23.7,23.1,23.5z M21.3,25c-0.1,0.2-0.3,0.4-0.6,0.4c-0.2,0.1-0.5,0-0.7-0.1
	c-0.5-0.3-0.6-0.8-0.3-1.3c0.2-0.3,0.5-0.5,0.8-0.5c0.2,0,0.3,0,0.5,0.1C21.4,24,21.6,24.6,21.3,25z M28.2,15.4
	c-0.4,0-0.8,0.1-1.1,0.2c-1,0.4-1.6,1.4-1.6,2.4c0,0.2,0,0.4,0.1,0.7c0,0.2,0.1,0.3,0.2,0.4c0.4,0.9,1.3,1.5,2.3,1.6c0,0,0,0,0.1,0
	h0.1c1.5,0,2.7-1.2,2.7-2.7S29.7,15.4,28.2,15.4z M29.9,18.1c0,1-0.8,1.7-1.7,1.7c-0.4,0-0.7-0.1-1-0.3h-0.1
	c-0.4-0.3-0.6-0.8-0.7-1.3c0,0,0,0,0-0.1c0-0.4,0.2-0.9,0.5-1.2s0.8-0.5,1.2-0.5C29.2,16.4,29.9,17.1,29.9,18.1z"/>
</svg>
