<?xml version="1.0" encoding="utf-8"?>
<!-- Generator: Adobe Illustrator 26.4.1, SVG Export Plug-In . SVG Version: 6.00 Build 0)  -->
<svg version="1.1" id="Layer_1" xmlns="http://www.w3.org/2000/svg" xmlns:xlink="http://www.w3.org/1999/xlink" x="0px" y="0px"
	 viewBox="0 0 30.6 27" style="enable-background:new 0 0 30.6 27;" xml:space="preserve">
<g id="ICON_ARTWORK">
	<path d="M18.8,15.6l-1.2,3l-3-1.2l0.6-1.3l0.5,0.2c-0.4-0.5-0.9-0.9-1.5-1.2c-1.9-0.8-4.1,0.1-4.9,2c-0.1,0.1-0.1,0.3-0.1,0.4v0.1
		l-1.4-0.4v-0.1c0.1-0.2,0.1-0.4,0.2-0.6c1.1-2.6,4.1-3.9,6.7-2.8c0,0,0,0,0.1,0c1,0.4,1.9,1.2,2.5,2.2l0.3-0.8L18.8,15.6z M16,19.2
		c0,0.1-0.1,0.3-0.1,0.4c-0.8,1.9-2.9,2.8-4.8,2c-0.6-0.3-1.2-0.7-1.6-1.2l0.5,0.2l0.6-1.3l-3-1.2l-1.2,3l1.3,0.6L8,20.8
		c0.6,0.9,1.4,1.7,2.5,2.1c0.6,0.3,1.3,0.4,2,0.4c2.1,0,4-1.3,4.8-3.2c0.1-0.2,0.2-0.4,0.2-0.6v-0.1L16,19L16,19.2z M29.4,5.9
		c-0.7-0.7-1.5-1.1-2.5-1.1c-0.7-1.6-2.3-2.5-4.1-2.3C21.9,1,20.1,0,18.3,0C16,0,14,1.4,13.2,3.6c-2,0.6-3.4,2.4-3.4,4.5v0.1H0V27
		h25.4V12.8h1.2c2.2,0,4-1.8,4-4C30.5,7.7,30.1,6.7,29.4,5.9z M11.9,8.4c0-0.1,0-0.2,0-0.3c0-1.3,1-2.5,2.3-2.6l0.7-0.1l0.1-0.7
		c0.4-1.8,2.1-3,3.9-2.6c1.1,0.2,2.1,1,2.5,2.1l0.4,1l0.9-0.4c0.2-0.1,0.5-0.2,0.7-0.2c0.9,0,1.6,0.7,1.7,1.5l0.1,1l1-0.2
		c1-0.2,2,0.4,2.2,1.5c0,0.1,0,0.3,0,0.4c0,1.1-0.9,1.9-1.9,1.9h-1.4V8.4H11.9z M2.1,24.9v-13h21.2v13H2.1z M2.1,10.3V9.7h7.3v0.6
		H2.1z M23.6,9.9v0.7h-0.9V9.7h0.9V9.9z"/>
</g>
</svg>
