<?xml version="1.0" encoding="utf-8"?>
<!-- Generator: Adobe Illustrator 26.4.1, SVG Export Plug-In . SVG Version: 6.00 Build 0)  -->
<svg version="1.1" id="Layer_1" xmlns="http://www.w3.org/2000/svg" xmlns:xlink="http://www.w3.org/1999/xlink" x="0px" y="0px"
	 viewBox="0 0 29.2 29.1" style="enable-background:new 0 0 29.2 29.1;" xml:space="preserve">
<g id="ICON_ARTWORK">
	<path d="M28,5.9c-0.7-0.6-1.5-1-2.5-1.1c-0.6-1.4-1.9-2.3-3.4-2.3c-0.2,0-0.4,0-0.6,0.1c-1.5-2.5-4.7-3.3-7.2-1.8
		c-1.1,0.6-1.9,1.6-2.3,2.8C10.7,3.9,9.5,4.9,9,6.2H0v6.8h3.1v1.2H0v6.8h3.1v1.2H0v6.8h18.7v-6.8h-3.1v-1.2h3.1v-6.8h-3.1v-1.2h3.1
		v-0.6h6.6c2.1,0,3.8-1.7,3.8-3.8C29.2,7.6,28.7,6.6,28,5.9z M25.3,10.5h-6.6V6.2h-7.5c0.4-0.5,1-0.8,1.7-0.9l0.7-0.1l0.1-0.7
		c0.4-1.8,2.1-2.9,3.9-2.6c1.1,0.2,2,1,2.4,2.1l0.4,1l1-0.4c0.2-0.1,0.5-0.2,0.7-0.2c0.8,0,1.6,0.7,1.7,1.5L24,7l1-0.2
		c1-0.2,2,0.4,2.2,1.4c0,0.1,0,0.3,0,0.4C27.2,9.6,26.4,10.5,25.3,10.5C25.4,10.5,25.3,10.5,25.3,10.5z M2.1,11V8.3h14.6V11H2.1z
		 M2.1,19.1v-2.7h14.6v2.7H2.1z M2.1,27.1v-2.7h14.6v2.7L2.1,27.1z"/>
</g>
</svg>
