<?xml version="1.0" encoding="utf-8"?>
<!-- Generator: Adobe Illustrator 26.4.1, SVG Export Plug-In . SVG Version: 6.00 Build 0)  -->
<svg version="1.1" id="Layer_1" xmlns="http://www.w3.org/2000/svg" xmlns:xlink="http://www.w3.org/1999/xlink" x="0px" y="0px"
	 viewBox="0 0 25.6 27.3" style="enable-background:new 0 0 25.6 27.3;" xml:space="preserve">
<path d="M2.4,4.7h2.3v1.4H2.4V4.7z M2.4,8.1h2.3V6.7H2.4V8.1z M2.4,2.7v1.4h2.3V2.7H2.4z M21,6.1h2.2V4.7h-2.3L21,6.1L21,6.1z
	 M21,8.1h2.2V6.7h-2.3L21,8.1L21,8.1z M21,2.7v1.4h2.2V2.7H21z M25.5,24.1c0-0.2,0.1-0.5,0.1-0.7c0-0.3,0-0.5-0.1-0.8V0h-6.7v1.3H16
	v1.3h-2.6v11.7c-0.2,0-0.3,0-0.5,0s-0.3,0-0.5,0V2.7H9.8V1.4H7V0H0.1v22.6c0,0.2-0.1,0.5-0.1,0.8s0,0.5,0.1,0.7v0.1l0,0
	c0.4,1.8,2,3.1,3.9,3.1h17.6C23.5,27.3,25.1,26,25.5,24.1L25.5,24.1L25.5,24.1z M21.6,25.5H4c-1.1,0-2.1-0.9-2.1-2.1
	c0-1.1,0.9-2.1,2.1-2.1c0.1,0,0.3,0,0.4,0l1,0.2l0.1-1c0.1-0.9,0.9-1.7,1.9-1.7c0.3,0,0.5,0.1,0.8,0.2l0.9,0.4l0.4-1
	c0.5-1.4,1.8-2.3,3.3-2.3s2.8,0.9,3.3,2.3l0.4,1l0.9-0.4c0.3-0.1,0.5-0.2,0.8-0.2c1,0,1.8,0.7,1.9,1.7l0.1,1l1-0.2
	c0.1,0,0.3,0,0.4,0c1.1,0,2.1,0.9,2.1,2.1C23.6,24.5,22.7,25.5,21.6,25.5z M10.6,14.9c-0.3,0.1-0.6,0.3-0.9,0.5v-4.5h0.8V9.1H9.7
	V8.9h0.8V7.2H9.7V7h0.8V5.3H9.7V4.5h0.9V14.9z M5.1,17.8c-0.6,0.4-1,1-1.3,1.7c-0.7,0-1.4,0.2-2,0.6V1.8H5v16H5.1z M6.9,7.8V7.6h0.9
	V5.9H6.9V5.7h0.9V4H6.9V3.1H8v14c-0.2,0-0.4-0.1-0.5-0.1c-0.2,0-0.4,0-0.5,0V9.5h0.9V7.8H6.9z M18.7,3.9h-0.9v1.7h0.9v0.2h-0.9v1.7
	h0.9v0.2h-0.9v1.7h0.9v7.5c-0.2,0-0.3,0-0.5,0s-0.4,0-0.5,0.1V3.1h1.1v0.8H18.7z M20.5,1.8h3.2v18.3c-0.6-0.4-1.3-0.6-2-0.6
	c-0.3-0.7-0.7-1.3-1.3-1.7L20.5,1.8L20.5,1.8z M15.9,5.2h-0.8v1.7h0.8v0.2h-0.8v1.7h0.8v0.3h-0.8v1.7h0.8v4.5
	c-0.3-0.2-0.6-0.4-0.9-0.5V4.4h0.9V5.2z"/>
</svg>
