<?xml version="1.0" encoding="utf-8"?>
<!-- Generator: Adobe Illustrator 26.4.1, SVG Export Plug-In . SVG Version: 6.00 Build 0)  -->
<svg version="1.1" id="Layer_1" xmlns="http://www.w3.org/2000/svg" xmlns:xlink="http://www.w3.org/1999/xlink" x="0px" y="0px"
	 viewBox="0 0 31.8 17.4" style="enable-background:new 0 0 31.8 17.4;" xml:space="preserve">
<g id="ICON_ARTWORK">
	<path d="M31.8,0H0v10.8h10.8c-0.1,0.5-0.2,1-0.2,1.5c0.1,2.9,2.6,5.2,5.5,5.1c2.8-0.1,5-2.3,5.1-5.1c0-0.5-0.1-1-0.2-1.5h10.8V0z
		 M29.5,2.3v6.2h-9.9c-2.1-2.1-5.4-2.1-7.5,0H2.3V2.3H29.5z M15.9,15.3c-1.7,0-3-1.3-3-3s1.3-3,3-3s3,1.3,3,3S17.6,15.3,15.9,15.3z
		 M17.2,11.6c0,0.4-0.2,0.8-0.6,1.1v1.8h-1.4v-1.8c-0.6-0.4-0.8-1.2-0.4-1.8c0.4-0.6,1.2-0.8,1.8-0.4C17,10.8,17.2,11.2,17.2,11.6
		L17.2,11.6z M7.7,5.1l-1,0.3l0.6,0.9L6.4,6.9L5.7,6.1L5.1,6.9L4.1,6.3l0.6-0.9l-1-0.3L4.1,4l1,0.3V3.2h1.2v1.1l1-0.3L7.7,5.1z
		 M12.8,5.1l-1,0.3l0.6,0.9l-0.9,0.7l-0.6-0.9l-0.6,0.9l-1-0.6l0.6-0.9l-1-0.3L9.2,4l1,0.3V3.2h1.1v1.1l1-0.3L12.8,5.1z M27.1,5.4
		l0.6,0.9l-0.9,0.7l-0.6-0.9l-0.6,0.9l-0.9-0.6l0.6-0.9l-1-0.3L24.6,4l1,0.3V3.2h1.1v1.1l1-0.3L28,5.1L27.1,5.4z M23,5.1l-1,0.3
		l0.6,0.9l-0.9,0.7L21,6.1l-0.6,0.9l-1-0.6l0.6-0.9l-1-0.3L19.4,4l1,0.3V3.2h1.1v1.1l1-0.3L23,5.1z M17.9,5.1l-1,0.3l0.6,0.9
		l-0.9,0.7l-0.6-0.9l-0.6,0.9l-1-0.6l0.6-0.9l-1-0.3L14.3,4l1,0.3V3.2h1.1v1.1l1-0.3L17.9,5.1z"/>
</g>
</svg>
