<?xml version="1.0" encoding="utf-8"?>
<!-- Generator: Adobe Illustrator 26.4.1, SVG Export Plug-In . SVG Version: 6.00 Build 0)  -->
<svg version="1.1" id="Layer_1" xmlns="http://www.w3.org/2000/svg" xmlns:xlink="http://www.w3.org/1999/xlink" x="0px" y="0px"
	 viewBox="0 0 26.6 23" style="enable-background:new 0 0 26.6 23;" xml:space="preserve">
<path d="M26.6,19.1V0H0v19.1h8.5v1.4H6.2V23h14.2v-2.5h-2.3v-1.4C18.1,19.1,26.6,19.1,26.6,19.1z M24.2,2.4v14.4H2.4V2.4H24.2z
	 M12.5,14.4l0.1,0.1L12,15.2l-0.1-0.1C11.8,15,10,13.3,10,11.4c0-1.8,1.5-3.3,3.3-3.3s3.3,1.5,3.3,3.3v0.2h-0.9v-0.2
	c0-1.3-1-2.3-2.3-2.3s-2.3,1-2.3,2.3C10.9,12.8,12.4,14.3,12.5,14.4z M16.8,8.3c0.8,0.9,1.1,2,1,3c-0.1,1-1.1,1.5-1.9,1.5
	c-1-0.1-1.6-0.7-1.8-1.9c-0.1-0.4-0.5-0.6-0.9-0.6c-0.5,0-0.9,0.4-0.9,0.9c0,0.3,0.2,0.8,0.5,1.3c0.3,0.4,0.6,0.7,0.6,0.8
	c0.4,0.4,0.9,0.7,1.7,1l0.2,0.1L15,15.3l-0.2-0.1c-0.9-0.3-1.4-0.6-2-1.2l-0.1,0c-0.2-0.2-0.5-0.5-0.7-0.9c-0.4-0.6-0.7-1.3-0.7-1.8
	c0-1,0.8-1.9,1.9-1.9c0.9,0,1.7,0.6,1.8,1.4c0.1,0.7,0.4,1,1,1.1c0.4,0,0.9-0.2,0.9-0.6c0.1-0.8-0.2-1.6-0.8-2.3
	c-0.7-0.8-1.8-1.3-2.9-1.3c-2,0-3.7,1.7-3.7,3.7c0,0.6,0.1,1.2,0.4,1.8l0.1,0.2l-0.9,0.4L9,13.6c-0.3-0.7-0.5-1.4-0.5-2.1
	c0-2.6,2.1-4.6,4.6-4.6C14.6,6.7,15.9,7.3,16.8,8.3z M16.7,13l0.3,0.9h-0.2C16.5,14,16.2,14,15.9,14c-1.8,0-3.2-1.4-3.2-3.2v-0.2h1
	v0.3c0,1.2,1,2.2,2.2,2.2c0.2,0,0.4,0,0.6-0.1H16.7z M8.9,8.8L8.1,8.3l0.1-0.1c1.1-1.7,3-2.8,5.1-2.8c1.7,0,3.5,0.8,4.6,2.1
	c0.2,0.2,0.4,0.4,0.5,0.7l0.1,0.1l-0.8,0.5l-0.1-0.1c-0.1-0.2-0.3-0.4-0.4-0.6c-1-1.1-2.5-1.8-3.9-1.8C11.6,6.3,10,7.2,9,8.6
	L8.9,8.8z M9.6,6L9.1,5.2l0.1-0.1c1.2-0.8,2.6-1.2,4-1.2s2.8,0.4,4,1.2l0.1,0.1L16.8,6l-0.1-0.1c-1.1-0.7-2.3-1-3.5-1
	s-2.4,0.4-3.5,1L9.6,6z"/>
</svg>
