<?xml version="1.0" encoding="utf-8"?>
<!-- Generator: Adobe Illustrator 26.4.1, SVG Export Plug-In . SVG Version: 6.00 Build 0)  -->
<svg version="1.1" id="Layer_1" xmlns="http://www.w3.org/2000/svg" xmlns:xlink="http://www.w3.org/1999/xlink" x="0px" y="0px"
	 viewBox="0 0 26.6 22.8" style="enable-background:new 0 0 26.6 22.8;" xml:space="preserve">
<path d="M10.6,0v22.8h16V0H10.6z M12.8,20.5V2.3h11.4v18.2H12.8z M0,22.8h9.1V0H0V22.8z M6.9,2.3v18.2H2.3V2.3H6.9z M13.6,3.5v5.1
	h9.9V3.5C23.5,3.5,13.6,3.5,13.6,3.5z M15.4,6.8V5.3h6.3v1.5H15.4z M14.8,12h2v2h-2V12z M17.6,16.7h2v2h-2V16.7z M17.6,14.4h2v2h-2
	V14.4z M14.8,16.7h2v2h-2V16.7z M14.8,14.4h2v2h-2V14.4z M14.8,9.7h2v2h-2V9.7z M20.3,14.4h2v2h-2V14.4z M20.3,12h2v2h-2V12z
	 M20.3,9.7h2v2h-2V9.7z M17.6,9.7h2v2h-2V9.7z M17.6,12h2v2h-2V12z M20.3,16.7h2v2h-2V16.7z"/>
</svg>
