<?xml version="1.0" encoding="utf-8"?>
<!-- Generator: Adobe Illustrator 26.4.1, SVG Export Plug-In . SVG Version: 6.00 Build 0)  -->
<svg version="1.1" id="Layer_1" xmlns="http://www.w3.org/2000/svg" xmlns:xlink="http://www.w3.org/1999/xlink" x="0px" y="0px"
	 viewBox="0 0 25.7 29.5" style="enable-background:new 0 0 25.7 29.5;" xml:space="preserve">
<path d="M13.7,8.6c-0.7,0-1.4,0-2.1,0.1l-1-1.2H5.5v3.6c-1.1,0.8-1.9,1.7-2.6,2.8H0V22h2.9c0.6,1,1.5,2,2.6,2.8v4.7h5.3l1-2.2
	c1.3,0.2,2.5,0.2,3.8,0l1,2.2h5.3v-4.7c2.4-1.8,3.8-4.2,3.8-6.8C25.6,12.8,20.3,8.6,13.7,8.6z M19.7,23.6v3.6H18l-1.1-2.5l-0.8,0.2
	c-1.5,0.3-3.2,0.3-4.7,0l-0.8-0.2l-1.1,2.5H7.8v-3.6l-0.6-0.3c-1.2-0.8-2.1-1.8-2.7-2.9l-0.3-0.6h-2v-3.7h2l0.3-0.6
	c0.6-1.1,1.5-2.1,2.7-2.9l0.5-0.3V9.7h1.9l1.1,1.4l0.6-0.1c0.8-0.1,1.6-0.2,2.4-0.2c5.4,0,9.8,3.2,9.8,7.2c0,2-1.2,4-3.3,5.3
	L19.7,23.6z M13.6,7.4c2.1,0,3.7-1.7,3.7-3.7c0-2.1-1.7-3.7-3.7-3.7S9.9,1.7,9.9,3.7C9.9,5.7,11.6,7.4,13.6,7.4z M13.6,2.1
	c0.8,0,1.5,0.7,1.5,1.5s-0.7,1.5-1.5,1.5s-1.5-0.7-1.5-1.5S12.8,2.1,13.6,2.1z M8.4,14.7c0.5,0.5,0.5,1.4,0,1.9
	C8.1,16.9,7.8,17,7.5,17c-0.4,0-0.7-0.1-0.9-0.4c-0.5-0.5-0.5-1.4,0-1.9C7,14.2,7.9,14.2,8.4,14.7L8.4,14.7z M16.8,12l-0.5,2
	l-0.4-0.1c-1.4-0.3-3-0.3-4.5,0L11,14l-0.5-2l0.4-0.1c1.7-0.4,3.7-0.4,5.4,0L16.8,12z"/>
</svg>
