<?xml version="1.0" encoding="utf-8"?>
<!-- Generator: Adobe Illustrator 26.4.1, SVG Export Plug-In . SVG Version: 6.00 Build 0)  -->
<svg version="1.1" id="Layer_1" xmlns="http://www.w3.org/2000/svg" xmlns:xlink="http://www.w3.org/1999/xlink" x="0px" y="0px"
	 viewBox="0 0 14.2 14.2" style="enable-background:new 0 0 14.2 14.2;" xml:space="preserve">
<g id="ICON_ARTWORK">
	<path d="M5.6,9.3L3.8,7.4l1.2-1.2l1.2,1.2l3.1-3.1l1.2,1.3L6.7,9.4L6.2,9.9l0,0L6.1,9.8L5.6,9.3z M0,7.1C0,3.2,3.2,0,7.1,0
		s7.1,3.2,7.1,7.1s-3.2,7.1-7.1,7.1C3.2,14.2,0,11,0,7.1z M7.1,12C9.8,12,12,9.8,12,7.1c0-2.7-2.2-4.9-4.9-4.9
		c-2.7,0-4.9,2.2-4.9,4.9S4.4,12,7.1,12L7.1,12z"/>
</g>
</svg>
