<?xml version="1.0" encoding="utf-8"?>
<!-- Generator: Adobe Illustrator 26.4.1, SVG Export Plug-In . SVG Version: 6.00 Build 0)  -->
<svg version="1.1" id="Layer_1" xmlns="http://www.w3.org/2000/svg" xmlns:xlink="http://www.w3.org/1999/xlink" x="0px" y="0px"
	 viewBox="0 0 22.1 22.1" style="enable-background:new 0 0 22.1 22.1;" xml:space="preserve">
<g id="ICON_ARTWORK">
	<path d="M22.1,11.1c0,6.1-5,11.1-11.1,11.1S0,17.2,0,11.1S5,0,11.1,0l0,0C17.2,0,22.1,5,22.1,11.1z M11.1,2.2c-4.9,0-8.9,4-8.9,8.9
		s4,8.9,8.9,8.9s8.9-4,8.9-8.9c0,0,0,0,0,0C19.9,6.2,16,2.2,11.1,2.2z M17.1,11.1c0,3.3-2.7,6-6,6s-6-2.7-6-6s2.7-6,6-6
		C14.4,5.1,17.1,7.8,17.1,11.1L17.1,11.1z M11.1,7.2c-2.1,0-3.8,1.7-3.8,3.8s1.7,3.8,3.8,3.8s3.8-1.7,3.8-3.8S13.2,7.2,11.1,7.2z
		 M11.1,9.4c-0.9,0-1.7,0.8-1.7,1.7c0,0.9,0.8,1.7,1.7,1.7c0.9,0,1.7-0.8,1.7-1.7S12,9.4,11.1,9.4z"/>
</g>
</svg>
