<?xml version="1.0" encoding="utf-8"?>
<!-- Generator: Adobe Illustrator 26.4.1, SVG Export Plug-In . SVG Version: 6.00 Build 0)  -->
<svg version="1.1" id="Layer_1" xmlns="http://www.w3.org/2000/svg" xmlns:xlink="http://www.w3.org/1999/xlink" x="0px" y="0px"
	 viewBox="0 0 26.7 26.7" style="enable-background:new 0 0 26.7 26.7;" xml:space="preserve">
<g id="ICON_ARTWORK">
	<path d="M22.8,3.9c-5.2-5.2-13.7-5.2-18.9,0s-5.2,13.7,0,18.9c5.2,5.2,13.7,5.2,18.9,0C28,17.6,28,9.2,22.8,3.9
		C22.8,4,22.8,3.9,22.8,3.9z M13.3,24.4c-6.1,0-11.1-5-11.1-11.1c0-6.1,5-11.1,11.1-11.1s11.1,5,11.1,11.1c0,2.9-1.2,5.7-3.2,7.8
		C19.1,23.2,16.3,24.4,13.3,24.4z M12.1,5.3h2.3V14l-5.6,3.3l-1.2-2l4.4-2.6V5.3z"/>
</g>
</svg>
