<?xml version="1.0" encoding="utf-8"?>
<!-- Generator: Adobe Illustrator 26.4.1, SVG Export Plug-In . SVG Version: 6.00 Build 0)  -->
<svg version="1.1" id="Layer_1" xmlns="http://www.w3.org/2000/svg" xmlns:xlink="http://www.w3.org/1999/xlink" x="0px" y="0px"
	 viewBox="0 0 26.7 26.7" style="enable-background:new 0 0 26.7 26.7;" xml:space="preserve">
<g id="ICON_ARTWORK">
	<path d="M13.3,0C6,0,0,6,0,13.3s6,13.3,13.3,13.3s13.3-6,13.3-13.3l0,0C26.7,6,20.7,0,13.3,0z M13.3,24.4c-6.1,0-11-4.9-11-11
		s4.9-11,11-11s11,4.9,11,11v0C24.3,19.4,19.4,24.4,13.3,24.4z M8.1,9.6h12l-6,5.3l-2.6-2.5L8.1,9.6z M20.6,9.8v8.1H7.7v-8l3.4,2.8
		l3.1,2.8L20.6,9.8z M17.8,8.8H7v6.3H5.5V7.3h12.3V8.8z"/>
</g>
</svg>
