<?xml version="1.0" encoding="utf-8"?>
<!-- Generator: Adobe Illustrator 26.4.1, SVG Export Plug-In . SVG Version: 6.00 Build 0)  -->
<svg version="1.1" id="Layer_1" xmlns="http://www.w3.org/2000/svg" xmlns:xlink="http://www.w3.org/1999/xlink" x="0px" y="0px"
	 viewBox="0 0 18.1 26.9" style="enable-background:new 0 0 18.1 26.9;" xml:space="preserve">
<path d="M15.9,13.7c-0.1,0-0.3,0-0.4,0c1.1-1.5,1.7-3.3,1.7-5.1c0-4.7-3.8-8.6-8.6-8.6S0,3.8,0,8.6c0,2.4,1,4.7,2.8,6.3
	c-0.9,0.8-1.1,2.1-0.4,3l4.2,6.3v2.7h9.9v-2.5l1.6-2.4v-6.2C18.1,14.7,17.1,13.7,15.9,13.7z M14.6,23.9v1.2h-6v-1.4L4,16.9
	c-0.1-0.2-0.1-0.4,0.1-0.6c0.2-0.1,0.4-0.1,0.5,0.1l3.6,5.2v-13c0-0.2,0.2-0.4,0.4-0.4S9,8.4,9,8.6V17h1.9v-2.8
	c0-0.1,0.1-0.2,0.2-0.2s0.2,0.1,0.2,0.2v3.2h1.9v-2.5v-0.2c0-0.1,0.1-0.3,0.3-0.3c0.1,0,0.3,0.1,0.3,0.2v3.3h1.9v-2.2
	c0-0.1,0.1-0.2,0.2-0.2c0.2,0,0.3,0.1,0.3,0.2v5.6L14.6,23.9z M8.6,2.2c3.6,0,6.4,2.9,6.4,6.4c0,1.5-0.5,2.9-1.4,4
	c-0.3,0-0.6,0-1,0.2c-0.1-0.2-0.3-0.3-0.5-0.4c1-1,1.6-2.3,1.6-3.8c0-2.9-2.3-5.2-5.2-5.2s-5,2.4-5,5.2c0,2,1.1,3.8,2.9,4.6v1.4
	c-2.5-0.9-4.2-3.4-4.2-6C2.2,5.1,5.1,2.2,8.6,2.2z M6.3,10.6c-0.5-0.5-0.8-1.3-0.8-2c0-1.7,1.4-3.1,3.1-3.1s3.1,1.4,3.1,3.1
	c0,0.7-0.3,1.5-0.8,2v-2c0-1.2-1.1-2.3-2.3-2.3c-1.2,0-2.3,1-2.3,2.3L6.3,10.6z"/>
</svg>
