<?xml version="1.0" encoding="utf-8"?>
<!-- Generator: Adobe Illustrator 26.4.1, SVG Export Plug-In . SVG Version: 6.00 Build 0)  -->
<svg version="1.1" id="Layer_1" xmlns="http://www.w3.org/2000/svg" xmlns:xlink="http://www.w3.org/1999/xlink" x="0px" y="0px"
	 viewBox="0 0 14.2 14.2" style="enable-background:new 0 0 14.2 14.2;" xml:space="preserve">
<g id="ICON_ARTWORK">
	<path d="M6.2,8H4.4V6.2h1.8V4.4H8v1.8h1.8V8H8v1.8H6.2V8z M0,7.1C0,3.2,3.2,0,7.1,0s7.1,3.2,7.1,7.1s-3.2,7.1-7.1,7.1S0,11,0,7.1
		L0,7.1z M2.2,7.1c0,2.7,2.2,4.9,4.9,4.9S12,9.8,12,7.1S9.8,2.2,7.1,2.2S2.2,4.4,2.2,7.1L2.2,7.1z"/>
</g>
</svg>
