<?xml version="1.0" encoding="utf-8"?>
<!-- Generator: Adobe Illustrator 26.4.1, SVG Export Plug-In . SVG Version: 6.00 Build 0)  -->
<svg version="1.1" id="Layer_1" xmlns="http://www.w3.org/2000/svg" xmlns:xlink="http://www.w3.org/1999/xlink" x="0px" y="0px"
	 viewBox="0 0 27.6 22.1" style="enable-background:new 0 0 27.6 22.1;" xml:space="preserve">
<g id="Layer_1_00000178200052520133025170000003327949099767818650_">
	<path d="M23.4,16.1v1.4h-16v-1.4H23.4z M27.6,3.1v19H3.1v-19C3.1,3.1,27.6,3.1,27.6,3.1z M25.4,19.8V5.3h-20v14.5H25.4z M23.9,0H0
		v18.4h2.2V2.2h21.7C23.9,2.2,23.9,0,23.9,0z M23.3,7.3h-7v1.9h7V7.3z M23.3,10.2h-7v1.9h7V10.2z M16.3,13v1.9h7V13H16.3z M7.4,14.9
		h7V7.3h-7L7.4,14.9z"/>
</g>
</svg>
