<?xml version="1.0" encoding="utf-8"?>
<!-- Generator: Adobe Illustrator 26.4.1, SVG Export Plug-In . SVG Version: 6.00 Build 0)  -->
<svg version="1.1" id="Layer_1" xmlns="http://www.w3.org/2000/svg" xmlns:xlink="http://www.w3.org/1999/xlink" x="0px" y="0px"
	 viewBox="0 0 25.1 24.7" style="enable-background:new 0 0 25.1 24.7;" xml:space="preserve">
<path d="M2.9,9.5c0,0.1,0,0.2-0.1,0.3h4.9l2.7,2.2h-10v-0.5c0-0.6,0-1.3,0.1-1.9c0-0.2,0.1-0.4,0.1-0.6V8.9c0-0.1,0.1-0.3,0.1-0.4
	L1,7.4C1,7.3,1.1,7.2,1.1,7l0.1-0.2c0.1-0.1,0.1-0.3,0.2-0.4l0.1-0.1C1.6,6.2,1.6,6,1.7,5.9L2,5.4l1.7,1.4L3.4,7.4
	C3.3,7.5,3.3,7.7,3.2,7.8L3.1,8C3.1,8.1,3,8.2,3,8.3l0,0.8C3,9.2,2.9,9.3,2.9,9.5L2.9,9.5z M25.1,11.6v0.5h-10l0-0.4
	c-0.1-0.4-0.3-0.7-0.5-1l-0.1-0.1c-0.3-0.2-0.6-0.4-1-0.5L13.1,10V0h0.5c0.4,0,0.8,0,1.2,0.1c0.2,0,0.4,0,0.5,0.1
	c0.2,0,0.4,0.1,0.5,0.1l1.8,0.5c0.1,0,0.2,0.1,0.3,0.1L18.1,1c1.7,0.7,3.2,1.8,4.4,3.2c0.1,0.2,0.2,0.2,0.3,0.3l0.3,0.3
	c0.1,0.2,0.2,0.3,0.2,0.4l0.1,0.1c0.1,0.1,0.2,0.3,0.2,0.4l0.1,0.1c0.1,0.1,0.2,0.3,0.2,0.4v0.1C24,6.4,24,6.6,24.1,6.7l0.1,0.1
	c0.1,0.1,0.1,0.3,0.2,0.4l0.1,0.2c0,0.1,0.1,0.2,0.1,0.3l0.2,0.5c0,0.1,0.1,0.2,0.1,0.3v0.2C24.9,8.8,25,9,25,9.1v0.1
	c0,0.2,0.1,0.3,0.1,0.5C25.1,10.4,25.1,11,25.1,11.6z M15.3,9.9h7.5c0-0.1,0-0.1,0-0.1V9.7c0-0.1,0-0.2-0.1-0.3l-0.2-0.8
	c0-0.1-0.1-0.2-0.1-0.3l-0.1-0.2c0-0.1-0.1-0.2-0.1-0.3V7.7c-0.1-0.1-0.1-0.2-0.2-0.3c-0.1-0.2-0.2-0.3-0.2-0.4
	c-0.1-0.2-0.2-0.3-0.2-0.4l-0.1-0.1c-0.1-0.1-0.1-0.2-0.2-0.2l-0.4-0.6c-1-1.2-2.2-2.1-3.6-2.7l-0.6-0.3l-1-0.3
	c-0.1,0-0.1,0-0.2-0.1h-0.1h-0.1V9.9z M15.2,12.5h9.9V13c0,0.4,0,0.8-0.1,1.2c0,0.2,0,0.4-0.1,0.5c0,0.2-0.1,0.4-0.1,0.5L24.3,17
	c0,0.1-0.1,0.2-0.1,0.3l-0.1,0.3c-0.7,1.7-1.8,3.2-3.2,4.4c-0.2,0.1-0.2,0.2-0.3,0.3l-0.4,0.3c-0.2,0.1-0.3,0.2-0.4,0.2l-0.1,0.1
	c-0.1,0.1-0.3,0.2-0.4,0.2c-0.2,0.1-0.4,0.2-0.5,0.3h-0.1c-0.1,0.1-0.3,0.1-0.4,0.2l-0.1,0.1c-0.1,0-0.2,0-0.3,0.1l-0.2,0.1
	c-0.1,0-0.2,0.1-0.3,0.1l-0.5,0.2c-0.1,0-0.2,0.1-0.3,0.1h-0.2c-0.1,0-0.3,0.1-0.4,0.1h-0.1c-0.2,0-0.3,0.1-0.5,0.1
	c-0.6,0.1-1.2,0.1-1.8,0.1h-0.5v-9.7l0.4-0.1c0.4-0.1,0.7-0.3,1-0.5l0.2-0.2l0.1-0.2c0.2-0.3,0.3-0.6,0.4-1V12.5z M22.8,14.7h-7.5
	v7.5c0.1,0,0.1,0,0.1,0h0.1c0.1,0,0.2,0,0.3-0.1l1.2-0.4c0.1,0,0.2-0.1,0.3-0.1h0.1c0.1-0.1,0.2-0.1,0.3-0.2
	c0.2-0.1,0.3-0.2,0.4-0.2h0.1c0.1-0.1,0.2-0.1,0.3-0.2l0.9-0.7c1.2-1,2.1-2.2,2.7-3.6L22.8,14.7C22.8,14.8,22.8,14.8,22.8,14.7z
	 M12.1,10L1.4,1.5L0,3.2l10.4,8.3C10.8,10.4,12.1,10,12.1,10z M14.7,12.4c0-1.1-0.9-2-2-2s-2,0.9-2,2s0.9,2,2,2
	C13.8,14.4,14.7,13.5,14.7,12.4z M12.3,14.9l0.3,0.1v9.7h-0.5c-0.4,0-0.8,0-1.2-0.1c-0.2,0-0.4,0-0.5-0.1c-0.2,0-0.4-0.1-0.5-0.1
	H9.8c-0.1,0-0.2-0.1-0.3-0.1l-1.3-0.4c-0.1,0-0.2-0.1-0.3-0.1l-0.3-0.1c-1.7-0.7-3.2-1.8-4.3-3.2l0,0l-0.1-0.1c0,0-0.1-0.1-0.2-0.2
	l-0.6-0.9c-0.1-0.1-0.2-0.3-0.2-0.4L2,18.8c-0.1-0.1-0.2-0.3-0.2-0.4v-0.1c-0.1-0.1-0.1-0.3-0.2-0.4l-0.1-0.2
	c-0.1-0.1-0.1-0.3-0.2-0.4l-0.1-0.2c0-0.1-0.1-0.2-0.1-0.3l-0.3-1c0-0.1-0.1-0.3-0.1-0.4v-0.1c0-0.2-0.1-0.3-0.1-0.5
	c-0.1-0.6-0.1-1.2-0.1-1.8v-0.5h9.9l0.1,0.4c0.1,0.4,0.2,0.7,0.4,1l0.2,0.2l0.2,0.2C11.6,14.6,11.9,14.7,12.3,14.9L12.3,14.9z
	 M10.4,14.7H2.9c0,0.1,0,0.1,0,0.1C2.9,15,3,15.1,3,15.2L3.2,16c0,0.1,0.1,0.2,0.1,0.3l0.1,0.1c0,0.1,0.1,0.2,0.1,0.3v0.1
	c0.1,0.1,0.1,0.2,0.2,0.3c0.1,0.2,0.2,0.3,0.2,0.4c0.1,0.2,0.2,0.3,0.2,0.4L4.2,18c0.1,0.1,0.1,0.2,0.2,0.2l0.4,0.6
	c1,1.2,2.2,2.1,3.6,2.7L9,21.7l1.3,0.3h0.1V14.7z"/>
</svg>
