<?xml version="1.0" encoding="utf-8"?>
<!-- Generator: Adobe Illustrator 26.4.1, SVG Export Plug-In . SVG Version: 6.00 Build 0)  -->
<svg version="1.1" id="Layer_1" xmlns="http://www.w3.org/2000/svg" xmlns:xlink="http://www.w3.org/1999/xlink" x="0px" y="0px"
	 viewBox="0 0 26.7 26.7" style="enable-background:new 0 0 26.7 26.7;" xml:space="preserve">
<g id="ICON_ARTWORK">
	<path d="M22.7,3.8C17.4-1.3,9-1.3,3.8,4S-1.3,17.7,4,22.9s13.7,5.1,18.9-0.2c2.5-2.5,3.8-5.9,3.8-9.4C26.7,9.7,25.2,6.3,22.7,3.8z
		 M24.3,13.3c0,6.1-4.9,11-11,11s-11-4.9-11-11c0-6.1,4.9-11,11-11c2.9,0,5.7,1.2,7.7,3.2C23.2,7.5,24.4,10.3,24.3,13.3L24.3,13.3z
		 M8.1,18.3h12.1v1.9h-14v-14h1.9v3.1l2.5,2.5h3.3l2.4,2.4V13H18v2.9l0,0l0,0v1.3h-1.3l0,0l0,0l-3,0v-1.7h1.4l-2-1.8H9.8L8.1,12
		L8.1,18.3z"/>
</g>
</svg>
