<?xml version="1.0" encoding="utf-8"?>
<!-- Generator: Adobe Illustrator 26.4.1, SVG Export Plug-In . SVG Version: 6.00 Build 0)  -->
<svg version="1.1" id="Layer_1" xmlns="http://www.w3.org/2000/svg" xmlns:xlink="http://www.w3.org/1999/xlink" x="0px" y="0px"
	 viewBox="0 0 31.5 25.4" style="enable-background:new 0 0 31.5 25.4;" xml:space="preserve">
<g id="ICON_ARTWORK">
	<path d="M27.4,10.1l1.2,1.2l-0.8,0.8l-1.2-1.2l-1.2,1.3l-0.8-0.8l1.2-1.2l-1.2-1.3l0.8-0.8l1.2,1.3l1.2-1.3l0.8,0.8L27.4,10.1z
		 M4.6,10.5L3.7,9.6l-0.8,0.8l1.9,1.8l2.6-3.6L6.4,8L4.6,10.5z M20.3,12.6v0.1l-0.1-0.1L20,12.6l0,0c-0.1,0-0.2-0.1-0.1-0.2
		c0.1-0.3,0.1-0.5,0-0.8c-0.2-0.7-0.8-1.3-1.5-1.3c0,0.1,0,0.2,0,0.2c0,1-0.6,2-1.6,2.4c0.2,0.3,0.5,0.5,0.9,0.6
		c0.5,0.2,1,0.1,1.5-0.2l0.2-0.2l0,0c0-0.1,0.2-0.1,0.2-0.1c0,0,0,0,0,0l0.4,0.2l-0.1,0.1c-0.9,1.1-2.4,1.4-3.6,0.8
		c-0.2-0.1-0.3-0.2-0.5-0.3l0,0L15.6,14c-0.5,0.3-1.1,0.5-1.7,0.5c-0.9,0-1.7-0.4-2.3-1.1l-0.1-0.1l0.4-0.2c0.1-0.1,0.2,0,0.2,0.1
		c0.2,0.2,0.4,0.3,0.7,0.4c0.5,0.1,1,0,1.4-0.2c0.2-0.1,0.3-0.3,0.4-0.4c-1-0.4-1.6-1.4-1.6-2.4c0-0.1,0-0.1,0-0.2
		c-0.5,0.1-1,0.4-1.2,0.8c-0.2,0.3-0.2,0.6-0.2,0.9c0,0.1,0,0.2,0,0.4l0,0c0,0.1,0,0.2-0.1,0.2c0,0,0,0,0,0l-0.4,0.2l-0.1-0.2
		c-0.5-1.4,0-2.9,1.3-3.6l0.3-0.1h0.1c0-0.2,0-0.3,0-0.5c0-0.3,0-0.6,0.1-0.9c0.4-1,1.3-1.8,2.4-2h0.1v0.4c0,0.1,0,0.2-0.1,0.2
		c-0.2,0.1-0.5,0.2-0.7,0.4C14.2,7,14,7.7,14.2,8.3c0.9-0.7,2.2-0.7,3.1,0c0.1-0.1,0.1-0.3,0.1-0.5c0.1-0.5-0.1-1-0.5-1.4
		c-0.2-0.2-0.4-0.3-0.7-0.4c-0.1,0-0.2-0.1-0.2-0.2V5.4h0.1c0.8,0.1,1.5,0.6,2,1.3c0.2,0.4,0.4,0.8,0.4,1.2c0,0.2,0,0.5,0,0.8
		c0,0,0,0.1,0,0.1h0.1C18.9,8.8,19,8.9,19.1,9C20.4,9.7,20.9,11.3,20.3,12.6z M16.5,11.9c0.6-0.3,1-0.8,1-1.5c0,0,0-0.1,0-0.1
		l-0.1,0c-0.2,0.1-0.3,0.2-0.5,0.4l0,0.1c-0.1,0.1-0.1,0.2-0.2,0.3c-0.1,0.1-0.1,0.3-0.1,0.4C16.5,11.6,16.5,11.8,16.5,11.9z
		 M14.8,9.1c0.6,0.4,1.4,0.4,2,0C16.2,8.6,15.4,8.6,14.8,9.1z M14.9,11.1c0-0.1-0.1-0.2-0.1-0.2c-0.1-0.1-0.2-0.2-0.2-0.2
		c-0.1-0.1-0.3-0.2-0.5-0.3v0.1c0,0.7,0.4,1.2,1,1.5C15.1,11.6,15,11.4,14.9,11.1z M23.9,16.2l7.3,7.4l-1.8,1.8L22,18
		c-4.4,3.4-10.7,2.6-14.1-1.8c-0.4-0.5-0.7-1.1-1-1.6C6.3,14.8,5.7,15,5.1,15c-2.7,0.1-5-2-5.1-4.7s2-5,4.7-5.1c0.1,0,0.3,0,0.4,0
		c0.6,0,1.2,0.1,1.8,0.4c2.5-4.9,8.5-6.9,13.4-4.4c1.9,1,3.5,2.5,4.4,4.4c0.6-0.2,1.2-0.3,1.8-0.3c2.7,0,4.9,2.1,5,4.9
		s-2.1,4.9-4.9,5c-0.6,0-1.2-0.1-1.8-0.3C24.6,15.2,24.2,15.7,23.9,16.2L23.9,16.2z M8.8,13.3c1.8,3.9,6.4,5.7,10.3,3.9
		c1.7-0.8,3.1-2.1,3.9-3.8c-1.7-1.9-1.7-4.8,0-6.6C21.1,2.8,16.5,1.2,12.6,3c-1.7,0.8-3,2.1-3.8,3.8c0.8,0.9,1.2,2.1,1.2,3.3
		C10.1,11.2,9.6,12.4,8.8,13.3z M29.5,10.1c0-1.6-1.3-2.9-2.9-2.9c-1.6,0-2.9,1.3-2.9,2.9c0,1.6,1.3,2.9,2.9,2.9
		C28.2,13,29.5,11.7,29.5,10.1C29.5,10.1,29.5,10.1,29.5,10.1z M2.2,10.1c0,1.6,1.3,2.9,2.9,2.9s2.9-1.3,2.9-2.9S6.8,7.1,5.2,7.1
		l0,0C3.6,7.1,2.2,8.4,2.2,10.1z"/>
</g>
</svg>
