<?xml version="1.0" encoding="utf-8"?>
<!-- Generator: Adobe Illustrator 26.4.1, SVG Export Plug-In . SVG Version: 6.00 Build 0)  -->
<svg version="1.1" id="Layer_1" xmlns="http://www.w3.org/2000/svg" xmlns:xlink="http://www.w3.org/1999/xlink" x="0px" y="0px"
	 viewBox="0 0 30.7 21.9" style="enable-background:new 0 0 30.7 21.9;" xml:space="preserve">
<g id="ICON_ARTWORK">
	<path d="M30.7,12.2L30.7,12.2c-0.2-2.4-1.7-4.4-3.8-5.5c1.5-1.6,1.4-4.2-0.2-5.7C25-0.4,22.5-0.3,21,1.3c-1.4,1.5-1.4,3.9,0,5.4
		c-0.7,0.3-1.3,0.8-1.9,1.4l-0.7-0.3c1.8-1.7,1.8-4.6,0.1-6.3S14-0.4,12.2,1.3s-1.8,4.6-0.1,6.3c0,0,0.1,0.1,0.1,0.1
		C12,7.8,11.7,8,11.5,8.1c-0.5-0.5-1.2-1-1.9-1.3c1.5-1.6,1.4-4.2-0.2-5.7S5.3-0.3,3.8,1.3c-1.4,1.5-1.4,3.9,0,5.4
		C1.6,7.8,0.2,9.9,0,12.3V19h7.5v2.9H23V19h7.7L30.7,12.2z M4.9,4c0-1,0.8-1.8,1.8-1.8S8.5,3.1,8.5,4c0,1-0.8,1.8-1.8,1.8
		C5.8,5.8,4.9,5,4.9,4C4.9,4,4.9,4,4.9,4z M15.3,6.8c-1.3,0-2.3-1-2.3-2.3c0-1.3,1-2.3,2.3-2.3c1.3,0,2.3,1,2.3,2.3c0,0,0,0,0,0
		C17.6,5.8,16.6,6.8,15.3,6.8z M24,5.8c-1,0-1.8-0.8-1.8-1.8c0-1,0.8-1.8,1.8-1.8S25.7,3,25.7,4c0,0,0,0,0,0C25.7,5,24.9,5.8,24,5.8
		L24,5.8z M20.8,16.7v2.9H9.7v-2.9H2.2v-4c0-2.5,2-4.6,4.5-4.6c1.5,0,2.9,0.7,3.8,2l0.6,0.9l0.8-0.6c2-1.5,4.8-1.5,6.8,0.1l0.8,0.7
		l0.6-0.9c1.4-2.1,4.2-2.6,6.3-1.2c1.3,0.8,2,2.3,2,3.8v4L20.8,16.7z"/>
</g>
</svg>
