<?xml version="1.0" encoding="utf-8"?>
<!-- Generator: Adobe Illustrator 26.4.1, SVG Export Plug-In . SVG Version: 6.00 Build 0)  -->
<svg version="1.1" id="Layer_1" xmlns="http://www.w3.org/2000/svg" xmlns:xlink="http://www.w3.org/1999/xlink" x="0px" y="0px"
	 viewBox="0 0 26.8 26.8" style="enable-background:new 0 0 26.8 26.8;" xml:space="preserve">
<g id="ICON_ARTWORK">
	<path d="M13.4,0C6,0,0,6,0,13.4s6,13.4,13.4,13.4s13.4-6,13.4-13.4C26.8,6,20.8,0,13.4,0z M13.4,24.5c-6.1,0-11.1-5-11.1-11.1
		s5-11.1,11.1-11.1s11.1,5,11.1,11.1C24.5,19.5,19.5,24.5,13.4,24.5z M16.3,18.9L16.3,18.9c0-1.3-0.8-2.3-2-2.5
		c-0.2,0-0.3-0.1-0.5-0.1l-2.1-2.1l3-3l0,0c0.4-0.2,0.6-0.6,0.7-1c0,0,0-0.1,0-0.1l2.2,0.6h0l1.4-2l-1.2-0.8l-0.7,1l-1.6-0.5
		l0.2-1.8l1.2-0.3l-0.3-1.5l-2.3,0.5L14,7.7c-0.7-0.1-1.5,0.2-1.9,0.8l-3.6,3.6c-0.2,0-0.3,0.1-0.5,0.2c-0.9,0.5-1.1,1.7-0.6,2.6
		c0.2,0.2,0.4,0.5,0.6,0.6l3.1,3.2c0,0,0,0.1,0,0.1v0.1H7.9v1.5h3.2l0,0h8.4h0.1v-1.6L16.3,18.9z M8.6,13.9c0-0.1,0.1-0.2,0.1-0.2
		c0,0,0.1-0.1,0.2,0H9c0.2,0,0.3,0.2,0.2,0.4c0,0.2-0.2,0.3-0.4,0.3c0,0,0,0,0,0c-0.1,0-0.2-0.1-0.2-0.1C8.6,14,8.6,14,8.6,13.9
		L8.6,13.9z M13.9,9.4c0,0.1,0,0.2,0,0.2c0,0.1-0.1,0.2-0.1,0.2c-0.1,0-0.2,0-0.2,0c-0.2,0-0.3-0.2-0.2-0.4c0-0.1,0.1-0.2,0.1-0.2
		c0.1,0,0.2,0,0.2,0C13.8,9.2,13.9,9.3,13.9,9.4L13.9,9.4z M12.1,16.7c-0.2,0.1-0.3,0.2-0.4,0.4l-1.6-1.6l0.4-0.4L12.1,16.7z
		 M10.2,12.5l1.9-1.9c0.1,0.2,0.2,0.3,0.4,0.4l-1.9,1.9L10.2,12.5z M12.6,18.8c0-0.1,0-0.2,0-0.2c0.1-0.6,0.7-0.9,1.3-0.8
		c0.5,0.1,0.8,0.5,0.8,1l0,0L12.6,18.8L12.6,18.8z"/>
</g>
</svg>
