<?xml version="1.0" encoding="utf-8"?>
<!-- Generator: Adobe Illustrator 26.4.1, SVG Export Plug-In . SVG Version: 6.00 Build 0)  -->
<svg version="1.1" id="Layer_1" xmlns="http://www.w3.org/2000/svg" xmlns:xlink="http://www.w3.org/1999/xlink" x="0px" y="0px"
	 viewBox="0 0 10 30.8" style="enable-background:new 0 0 10 30.8;" xml:space="preserve">
<g id="ICON_ARTWORK">
	<path d="M0,20.8h1.8v10h6.3v-10H10V7.4H0L0,20.8z M6.2,18.8v10H3.9v-10H2V9.4h6v9.4L6.2,18.8z M5,6.5c1.8,0,3.2-1.5,3.2-3.2
		S6.8,0,5,0S1.8,1.5,1.8,3.2C1.8,5,3.2,6.5,5,6.5z M3.7,3.2c0-0.7,0.6-1.3,1.3-1.4c0.7,0,1.3,0.6,1.4,1.3c0,0.7-0.6,1.3-1.3,1.4
		c0,0,0,0,0,0C4.3,4.6,3.7,4,3.7,3.2z"/>
</g>
</svg>
