<?xml version="1.0" encoding="utf-8"?>
<!-- Generator: Adobe Illustrator 26.4.1, SVG Export Plug-In . SVG Version: 6.00 Build 0)  -->
<svg version="1.1" id="Layer_1" xmlns="http://www.w3.org/2000/svg" xmlns:xlink="http://www.w3.org/1999/xlink" x="0px" y="0px"
	 viewBox="0 0 20.8 25" style="enable-background:new 0 0 20.8 25;" xml:space="preserve">
<g id="ICON_ARTWORK">
	<path d="M16.7,14.8V4.1L12.6,0H0v21.4h10.7c0.9,2.7,3.8,4.2,6.5,3.4c2.7-0.9,4.2-3.8,3.4-6.5C20,16.5,18.5,15.2,16.7,14.8
		L16.7,14.8z M15.6,22.9c-1.7,0-3.1-1.4-3.1-3.1c0-1.7,1.4-3.1,3.1-3.1c1.7,0,3.1,1.4,3.1,3.1C18.7,21.6,17.4,22.9,15.6,22.9z
		 M2.1,2.1h9.1v3.4h3.4v9.3c-2.2,0.4-3.9,2.3-4.1,4.6H2.1V2.1z M2.8,9.1h2.9V12H2.8L2.8,9.1z M6.8,9.1h2.9V12H6.8L6.8,9.1z M13.6,12
		h-2.9V9.1h2.9L13.6,12z M18,18.5l-2.6,3.7l-2.1-2l1.1-1.1l0.8,0.8l1.6-2.3L18,18.5z"/>
</g>
</svg>
