<?xml version="1.0" encoding="utf-8"?>
<!-- Generator: Adobe Illustrator 26.4.1, SVG Export Plug-In . SVG Version: 6.00 Build 0)  -->
<svg version="1.1" id="Layer_1" xmlns="http://www.w3.org/2000/svg" xmlns:xlink="http://www.w3.org/1999/xlink" x="0px" y="0px"
	 viewBox="0 0 14.2 14.2" style="enable-background:new 0 0 14.2 14.2;" xml:space="preserve">
<g id="ICON_ARTWORK">
	<path d="M7.1,14.2c3.9,0,7.1-3.2,7.1-7.1C14.2,3.2,11,0,7.1,0S0,3.2,0,7.1c0,0,0,0,0,0C0,11,3.2,14.2,7.1,14.2z M2.2,7.1
		c0-2.7,2.2-4.9,4.9-4.9S12,4.4,12,7.1c0,2.7-2.2,4.9-4.9,4.9C4.4,12.1,2.2,9.8,2.2,7.1C2.2,7.1,2.2,7.1,2.2,7.1z M8.9,6.5V6
		c0-1-0.8-1.8-1.8-1.8l0,0C6.1,4.2,5.3,5,5.3,6l0,0v0.5H4.9v3.6h4.3V6.5L8.9,6.5z M6.4,6c0-0.4,0.3-0.7,0.7-0.7
		c0.2,0,0.4,0.1,0.5,0.2C7.7,5.7,7.8,5.8,7.8,6v0.5H6.4V6z"/>
</g>
</svg>
