<?xml version="1.0" encoding="utf-8"?>
<!-- Generator: Adobe Illustrator 26.4.1, SVG Export Plug-In . SVG Version: 6.00 Build 0)  -->
<svg version="1.1" id="Layer_1" xmlns="http://www.w3.org/2000/svg" xmlns:xlink="http://www.w3.org/1999/xlink" x="0px" y="0px"
	 viewBox="0 0 24.5 18.9" style="enable-background:new 0 0 24.5 18.9;" xml:space="preserve">
<g id="ICON_ARTWORK">
	<path d="M20.3,4.2c-0.8-2.3-2.9-4-5.4-4.1h-0.7C12-0.1,9.9,1.1,8.9,3.1c-0.2,0-0.5-0.1-0.8-0.1C6.2,3,4.6,4.2,4.1,6
		c-2.2,0.1-4,1.8-4.1,4c-0.1,1.2,0.3,2.4,1.1,3.3c1.2,1.1,2.8,1.6,4.4,1.6h4.7v4h3.9v-4h4c4.6,0,6.3-2.8,6.3-5.4
		C24.4,7.9,23.6,4.7,20.3,4.2z M18.1,12.8h-4v-2.6l2.1,2.1l2.2-2.3l-6.3-6.2L5.9,10l2.2,2.3l2.1-2.1v2.6H5.5c-1,0.1-2.1-0.3-2.9-0.9
		c-0.4-0.5-0.6-1.1-0.5-1.8C2.1,8.3,3.8,8,4.7,8l1.1,0.1l0.1-1c0-1.1,0.9-2,2-2c0.1,0,0.1,0,0.2,0c0.3,0,0.7,0,1,0.1l0.7,0.2
		l0.6-0.9C11.4,3,12,2,14.3,2c0.2,0,0.4,0,0.5,0c1.8,0.2,3.3,1.5,3.7,3.3l0.2,0.8h0.8c2.9,0.1,2.9,3,2.9,3.4
		C22.4,12.5,19.4,12.8,18.1,12.8z"/>
</g>
</svg>
