<?xml version="1.0" encoding="utf-8"?>
<!-- Generator: Adobe Illustrator 26.4.1, SVG Export Plug-In . SVG Version: 6.00 Build 0)  -->
<svg version="1.1" id="Layer_1" xmlns="http://www.w3.org/2000/svg" xmlns:xlink="http://www.w3.org/1999/xlink" x="0px" y="0px"
	 viewBox="0 0 28.9 26.4" style="enable-background:new 0 0 28.9 26.4;" xml:space="preserve">
<g id="ICON_ARTWORK">
	<path d="M28.9,8.4v13.8H2v-2h24.9V8.4H28.9z M25.7,19.1H7.5L0,26.4v-2.8l4.6-4.4H0V5.5h18.6l3.6-3.5h-1.1V0l4.5,0.1v4.7h-2V3.5
		l-2.1,2h4.1V19.1z M23.7,7.6H2v9.5h21.6V7.6z M3.4,16.4h1.6v-1.6H3.4L3.4,16.4z M3.4,9.8h1.6V8.3H3.4L3.4,9.8z M16.6,12.3
		c0,2.1-1.7,3.7-3.7,3.7c-2.1,0-3.7-1.7-3.7-3.7c0-2,1.7-3.7,3.7-3.7C14.9,8.6,16.6,10.2,16.6,12.3C16.6,12.3,16.6,12.3,16.6,12.3
		L16.6,12.3z M12.9,10.3c-1.1,0-2,0.9-2,2s0.9,2,2,2s2-0.9,2-2C14.9,11.2,14,10.3,12.9,10.3L12.9,10.3z M20.8,8.2v1.5h1.5V8.3
		L20.8,8.2z M20.8,16.3h1.5v-1.5h-1.6L20.8,16.3z"/>
</g>
</svg>
