<?xml version="1.0" encoding="utf-8"?>
<!-- Generator: Adobe Illustrator 26.4.1, SVG Export Plug-In . SVG Version: 6.00 Build 0)  -->
<svg version="1.1" id="Layer_1" xmlns="http://www.w3.org/2000/svg" xmlns:xlink="http://www.w3.org/1999/xlink" x="0px" y="0px"
	 viewBox="0 0 31 27.5" style="enable-background:new 0 0 31 27.5;" xml:space="preserve">
<path d="M19.6,15.9v1.4h-6.2v-1.4H19.6z M13.4,19.6h6.2v-1.4h-6.2V19.6z M13.4,21.9h6.2v-1.4h-6.2V21.9z M11.1,22
	c-0.1-1.6-1.3-2.9-2.8-3.2c0.7-0.3,1.2-0.9,1.2-1.7c0-1-0.8-1.8-1.8-1.8s-1.8,0.8-1.8,1.8c0,0.8,0.5,1.4,1.2,1.7
	c-1.5,0.3-2.7,1.6-2.8,3.2v0.4h6.6l0.2-0.1V22L11.1,22z M31,7.8c0,3.9-2.9,7.2-6.8,7.7v12H0V10.4h15.9c-0.3-0.8-0.5-1.7-0.5-2.6
	c0-4.3,3.5-7.8,7.8-7.8C27.5,0,31,3.5,31,7.8z M23.2,2.2c-3.1,0-5.6,2.5-5.6,5.6s2.5,5.6,5.6,5.6s5.6-2.5,5.6-5.6
	C28.8,4.7,26.3,2.2,23.2,2.2z M17.1,12.6H2.2v12.7H22v-9.8C20.1,15.1,18.3,14.1,17.1,12.6z M25.6,6.6v3.9h-4.8V6.6h0.4V5.9
	c0-1.1,0.9-2,2-2c0.5,0,1,0.2,1.4,0.6c0.4,0.4,0.6,0.9,0.6,1.4v0.7H25.6z M22.3,6.6h1.9V5.9c0-0.3-0.1-0.5-0.3-0.7
	c-0.2-0.2-0.4-0.3-0.7-0.3c-0.5,0-0.9,0.4-0.9,1V6.6z"/>
</svg>
