<?xml version="1.0" encoding="utf-8"?>
<!-- Generator: Adobe Illustrator 26.4.1, SVG Export Plug-In . SVG Version: 6.00 Build 0)  -->
<svg version="1.1" id="Layer_1" xmlns="http://www.w3.org/2000/svg" xmlns:xlink="http://www.w3.org/1999/xlink" x="0px" y="0px"
	 viewBox="0 0 21.9 27" style="enable-background:new 0 0 21.9 27;" xml:space="preserve">
<path d="M21.9,1.9l-1.5-0.4C18.7,1.1,14.5,0,11,0l0,0C7.5,0,3.2,1,1.5,1.5L0,1.9v19.7L10.9,27l10.9-5.4L21.9,1.9z M19.8,20.2
	l-8.7,4.3l-8.7-4.3V3.6C4.1,3.2,8,2.2,11.2,2.2l0,0c3.2,0,7,0.9,8.7,1.3L19.8,20.2z M12.3,9.8c0,0.4-0.1,0.7-0.4,1s-0.6,0.4-1,0.4
	l0,0c-0.7,0-1.4-0.6-1.4-1.3c0-0.4,0.1-0.7,0.4-1s0.6-0.4,1-0.4l0,0C11.7,8.4,12.3,9,12.3,9.8z M15.7,9.7C15.7,7.1,13.6,5,11,5l0,0
	C8.4,5,6.3,7.1,6.3,9.7c0,1.4,0.7,2.8,1.8,3.7v6.4L11,18l2.9,1.8v-6.3C15.1,12.5,15.7,11.2,15.7,9.7z M11,12.8
	c-0.8,0-1.6-0.3-2.1-0.9C8.3,11.3,8,10.6,8,9.8c0-1.7,1.4-3,3-3l0,0c1.7,0,3,1.4,3,3c0,0.8-0.3,1.6-0.9,2.1
	C12.6,12.5,11.8,12.8,11,12.8L11,12.8z"/>
</svg>
