<?xml version="1.0" encoding="utf-8"?>
<!-- Generator: Adobe Illustrator 26.4.1, SVG Export Plug-In . SVG Version: 6.00 Build 0)  -->
<svg version="1.1" id="Layer_1" xmlns="http://www.w3.org/2000/svg" xmlns:xlink="http://www.w3.org/1999/xlink" x="0px" y="0px"
	 viewBox="0 0 28.3 28.1" style="enable-background:new 0 0 28.3 28.1;" xml:space="preserve">
<g id="ICON_ARTWORK">
	<path d="M3.4,8.4h1.9v1.9H3.4V8.4z M3.4,16.9h1.9V15H3.4V16.9z M20.5,8.1v2h2v-2H20.5z M20,16.9h1.9V15H20V16.9z M16.5,12.6
		c0,2.2-1.8,3.9-3.9,3.9s-3.9-1.8-3.9-3.9s1.8-3.9,3.9-3.9l0,0C14.8,8.7,16.5,10.5,16.5,12.6z M12.6,10.3c-1.3,0-2.4,1-2.4,2.3
		c0,1.3,1,2.4,2.3,2.4c1.3,0,2.4-1,2.4-2.3c0,0,0,0,0,0C15,11.3,13.9,10.3,12.6,10.3z M28.3,23.1h-6.8l1.5,1.5v-1.1h2l-0.1,4.5h-4.7
		v-2h1.3l-2.8-2.9H0.8v-2h15.9l-0.9-1H0V5.5h2.5L0,2.9V0l5.3,5.5h19.9v14.6h-6.6l0.9,1h6.7V8.4h2L28.3,23.1z M23.2,18.1V7.6H2.1
		v10.5H23.2z"/>
</g>
</svg>
