<?xml version="1.0" encoding="utf-8"?>
<!-- Generator: Adobe Illustrator 26.4.1, SVG Export Plug-In . SVG Version: 6.00 Build 0)  -->
<svg version="1.1" id="Layer_1" xmlns="http://www.w3.org/2000/svg" xmlns:xlink="http://www.w3.org/1999/xlink" x="0px" y="0px"
	 viewBox="0 0 26.8 19.7" style="enable-background:new 0 0 26.8 19.7;" xml:space="preserve">
<g id="ICON_ARTWORK">
	<path d="M13.8,0h-0.6L1.8,4.9v2H25v-2L13.8,0z M7.1,4.8L13.4,2l6.3,2.8H7.1z M24.9,17.7V9.9h0.6v-2H1.2v2h0.6v7.8H0v2h26.8v-2H24.9
		z M4.8,17.7H3.9V9.9h0.9V17.7z M7.8,17.7h-1V9.9h0.9L7.8,17.7z M14.1,17.7h-1.3v-3.6H14L14.1,17.7z M17.1,17.7h-1v-5.6h-5.3v5.6h-1
		V9.9h7.3L17.1,17.7z M20,17.7h-0.9V9.9H20V17.7z M23,17.7h-0.9V9.9H23V17.7z"/>
</g>
</svg>
