<?xml version="1.0" encoding="utf-8"?>
<!-- Generator: Adobe Illustrator 26.4.1, SVG Export Plug-In . SVG Version: 6.00 Build 0)  -->
<svg version="1.1" id="Layer_1" xmlns="http://www.w3.org/2000/svg" xmlns:xlink="http://www.w3.org/1999/xlink" x="0px" y="0px"
	 viewBox="0 0 26.6 26.6" style="enable-background:new 0 0 26.6 26.6;" xml:space="preserve">
<g id="ICON_ARTWORK">
	<path d="M16.6,12.7l2.9,3.6l-1.4,1.2l-1-1.2c-1,3.2-4.4,5-7.6,4c-2.6-0.8-4.3-3.1-4.3-5.8v-0.3H7v0.3c0,2.4,1.9,4.3,4.3,4.3
		c1.7,0,3.3-1,3.9-2.6L14.1,17L13,15.5L16.6,12.7z M15.4,6.1c-2.7,0-5,1.8-5.8,4.3L8.6,9.3l-1.4,1.1l2.9,3.6l3.7-2.8l-1.1-1.5
		l-1.2,0.9c0.9-2.2,3.3-3.3,5.5-2.4c1.6,0.6,2.7,2.2,2.7,4v0.3h1.9v-0.3C21.5,8.8,18.7,6.1,15.4,6.1L15.4,6.1z M26.6,13.3
		c0,7.4-6,13.3-13.3,13.3S0,20.7,0,13.3S6,0,13.3,0c0,0,0,0,0,0C20.7,0,26.6,6,26.6,13.3z M13.3,2.2c-6.1,0-11.1,5-11.1,11.1
		s5,11.1,11.1,11.1s11.1-5,11.1-11.1C24.4,7.2,19.4,2.2,13.3,2.2z"/>
</g>
</svg>
