<?xml version="1.0" encoding="utf-8"?>
<!-- Generator: Adobe Illustrator 26.4.1, SVG Export Plug-In . SVG Version: 6.00 Build 0)  -->
<svg version="1.1" id="Layer_1" xmlns="http://www.w3.org/2000/svg" xmlns:xlink="http://www.w3.org/1999/xlink" x="0px" y="0px"
	 viewBox="0 0 26.8 17.8" style="enable-background:new 0 0 26.8 17.8;" xml:space="preserve">
<g id="ICON_ARTWORK">
	<path d="M24.9,15.8V6.3h-5.7c-0.9-2.3-3.1-3.8-5.6-3.9V1.4h0.8V0h-2.2v2.4c-2.2,0.4-4,1.8-4.8,3.9H1.8v9.5H0v2h26.8v-2L24.9,15.8z
		 M22.9,8.3v7.5h-0.6V8.3H22.9z M20.3,8.3v7.5h-0.8V8.3H20.3z M13.4,4.4c1.4,0,2.8,0.7,3.6,1.9H9.8C10.6,5.1,11.9,4.3,13.4,4.4
		L13.4,4.4z M14.5,15.4h-2.2v-2.2c0.1-0.6,0.7-1.1,1.3-1c0.5,0.1,0.9,0.5,1,1V15.4z M13.4,10.4c-1.6-0.1-2.9,1.2-3,2.8c0,0,0,0,0,0
		v2.5H9.2V8.3h8.2v7.5h-1.1v-2.5C16.3,11.7,15,10.4,13.4,10.4C13.4,10.4,13.4,10.4,13.4,10.4z M7.2,8.3v7.5H6.4V8.3L7.2,8.3z
		 M4.4,8.3v7.5H3.9V8.3L4.4,8.3z"/>
</g>
</svg>
