<?xml version="1.0" encoding="utf-8"?>
<!-- Generator: Adobe Illustrator 26.4.1, SVG Export Plug-In . SVG Version: 6.00 Build 0)  -->
<svg version="1.1" id="Layer_1" xmlns="http://www.w3.org/2000/svg" xmlns:xlink="http://www.w3.org/1999/xlink" x="0px" y="0px"
	 viewBox="0 0 15.7 22.6" style="enable-background:new 0 0 15.7 22.6;" xml:space="preserve">
<g id="ICON_ARTWORK">
	<path d="M7.8,0C3.5,0,0,3.5,0,7.8c0,1.8,0.6,3.5,1.7,4.9C3,14.6,6.4,20.3,6.8,21l1,1.6l1-1.6c0-0.1,3.8-6.4,5.1-8.3
		c1.1-1.4,1.7-3.1,1.7-4.9C15.7,3.5,12.2,0,7.8,0C7.9,0,7.8,0,7.8,0z M13.4,7.8c0,1.3-0.5,2.6-1.3,3.6c-1,1.4-2.9,4.6-4.3,6.8
		c-1.3-2.2-3.3-5.4-4.3-6.8c-0.8-1-1.3-2.3-1.3-3.6c0-3.1,2.5-5.6,5.6-5.6S13.4,4.7,13.4,7.8L13.4,7.8z M10.4,7.8
		c0,1.4-1.2,2.6-2.6,2.6S5.2,9.2,5.2,7.8s1.2-2.6,2.6-2.6l0,0C9.2,5.2,10.4,6.4,10.4,7.8L10.4,7.8z"/>
</g>
</svg>
