<?xml version="1.0" encoding="utf-8"?>
<!-- Generator: Adobe Illustrator 26.4.1, SVG Export Plug-In . SVG Version: 6.00 Build 0)  -->
<svg version="1.1" id="Layer_1" xmlns="http://www.w3.org/2000/svg" xmlns:xlink="http://www.w3.org/1999/xlink" x="0px" y="0px"
	 viewBox="0 0 23 23" style="enable-background:new 0 0 23 23;" xml:space="preserve">
<g id="ICON_ARTWORK">
	<path d="M14.8,11.7h-3.2v-1.1h1V8.4l-0.4,0.4L11.4,8l1.3-1.3h1v3.9h1L14.8,11.7z M11.1,9.2c0,2.1-1,2.6-1.9,2.6s-1.9-0.5-1.9-2.6
		s1-2.6,1.9-2.6S11.1,7.1,11.1,9.2z M9.2,7.7c-0.2,0-0.6,0-0.6,1.4s0.5,1.5,0.6,1.5s0.6,0,0.6-1.5S9.4,7.7,9.2,7.7z M6.1,6.7h-1
		L3.8,8l0.7,0.8l0.4-0.4v2.3h-1v1.1h3.2v-1.1h-1L6.1,6.7z M23,21.3L21.3,23l-6.6-6.6c-1.6,1.2-3.5,1.9-5.5,1.9
		C4.1,18.3,0,14.2,0,9.2S4.1,0,9.1,0s9.2,4.1,9.2,9.1c0,0,0,0,0,0c0,2-0.7,4-1.9,5.5L23,21.3z M13.8,12.3v2.9c1.1-0.9,2-2.1,2.5-3.5
		c-0.6-0.2-1.3-0.8-1.3-2.5s0.7-2.3,1.3-2.5c-0.3-0.9-0.8-1.8-1.4-2.5c-0.2,1.6-1.1,2-1.8,2s-1.9-0.4-1.9-2.6c0-0.6,0.1-1.2,0.3-1.7
		C11,1.8,10.5,1.7,9.9,1.6V5h1v1.1H7.7V5h1V2.8L8.3,3.2L7.6,2.4l0.8-0.8c-0.5,0.1-1,0.2-1.5,0.3C7.2,2.4,7.3,3,7.3,3.6
		c0,2.1-1,2.6-1.9,2.6S3.7,5.8,3.5,4C3.3,4.3,3.1,4.6,2.9,4.8C2.8,5.2,2.6,5.5,2.3,5.8C2.2,6.1,2.1,6.4,2,6.7
		c0.7,0.1,1.5,0.7,1.5,2.5S2.7,11.6,2,11.8c0.3,0.8,0.7,1.6,1.3,2.2c0.2-1.4,1.1-1.8,1.8-1.8c0.9,0,1.9,0.5,1.9,2.6
		c0,0.5-0.1,1.1-0.3,1.5c0.4,0.1,0.8,0.2,1.2,0.3c-0.3-0.6-0.5-1.2-0.4-1.8c0-2.1,1-2.6,1.9-2.6s1.9,0.5,1.9,2.6
		c0,0.6-0.1,1.2-0.4,1.8c0.3-0.1,0.6-0.1,0.8-0.2v-0.1h0.3c0.3-0.1,0.5-0.2,0.7-0.3v-2l-0.4,0.4l-0.7-0.8l1.4-1.3L13.8,12.3z
		 M8.6,14.8c0,1.5,0.5,1.5,0.6,1.5s0.6,0,0.6-1.5s-0.5-1.5-0.6-1.5S8.6,13.3,8.6,14.8z M1.6,9.2c0,0.5,0.1,1,0.1,1.5
		c0.2,0,0.5-0.2,0.5-1.5S1.9,7.8,1.7,7.7C1.6,8.2,1.6,8.7,1.6,9.2z M13.7,3.6c0-0.2,0-0.4,0-0.5c-0.3-0.2-0.7-0.5-1-0.6
		c-0.2,0.4-0.3,0.8-0.2,1.2c0,1.5,0.5,1.5,0.6,1.5S13.7,5.1,13.7,3.6z M16.8,9.2c0-0.5,0-0.9-0.1-1.4c-0.3,0.2-0.4,0.6-0.4,1.4
		s0.1,1.2,0.4,1.4C16.7,10.1,16.8,9.6,16.8,9.2z M6.1,3.6c0-0.4-0.1-0.9-0.2-1.2c-0.3,0.2-0.7,0.4-1,0.6c0,0.2-0.1,0.4-0.1,0.7
		c0,1.5,0.5,1.5,0.6,1.5S6.1,5.1,6.1,3.6z M4.4,14.8c0,0.1,0,0.2,0,0.3c0.4,0.3,0.7,0.5,1.1,0.7c0.1-0.3,0.2-0.7,0.1-1.1
		c0-1.5-0.5-1.5-0.6-1.5S4.4,13.3,4.4,14.8z"/>
</g>
</svg>
