<?xml version="1.0" encoding="utf-8"?>
<!-- Generator: Adobe Illustrator 26.4.1, SVG Export Plug-In . SVG Version: 6.00 Build 0)  -->
<svg version="1.1" id="Layer_1" xmlns="http://www.w3.org/2000/svg" xmlns:xlink="http://www.w3.org/1999/xlink" x="0px" y="0px"
	 viewBox="0 0 30.5 22.9" style="enable-background:new 0 0 30.5 22.9;" xml:space="preserve">
<path d="M18.7,16.9h-4.8v-1.2h4.8V16.9z M19.7,15.8c-0.3,0-0.5,0.2-0.5,0.5s0.2,0.5,0.5,0.5s0.5-0.2,0.5-0.5S19.9,15.8,19.7,15.8z
	 M18.7,17.2h-4.8v1.2h4.8V17.2z M19.7,17.4c-0.3,0-0.5,0.2-0.5,0.5s0.2,0.5,0.5,0.5s0.5-0.2,0.5-0.5C20.1,17.6,19.9,17.4,19.7,17.4z
	 M18.7,18.8h-4.8V20h4.8V18.8z M19.7,18.9c-0.3,0-0.5,0.2-0.5,0.5s0.2,0.5,0.5,0.5s0.5-0.2,0.5-0.5S19.9,18.9,19.7,18.9z M27.5,3.8
	c-0.6-1.5-1.9-2.5-3.5-2.7c-0.3,0-0.6,0-0.9,0V0H8.7v5.3c-1.2,0.2-2.2,0.9-2.9,2c-0.9,0-1.7,0.2-2.3,0.8C3.1,8.4,2.8,8.8,2.6,9.2
	c-0.8,0.2-1.4,0.6-1.7,0.9C0.3,10.7,0,11.5,0,12.3c0,1.6,1.2,3.3,3.5,3.3h5.3v7.3h14.4V11.5h2.9c1.7,0,2.7-0.7,3.3-1.2
	c0.7-0.7,1.1-1.7,1.1-2.7C30.3,5.9,29.3,4.2,27.5,3.8z M10.9,15.6h1.2c1.7,0,2.7-0.7,3.3-1.2c0.7-0.7,1.1-1.7,1.1-2.7
	c0-1.6-1-3.3-2.8-3.7c-0.5-1.2-1.5-2.1-2.7-2.5V2.3h10v18.6H11v-5.3H10.9z M4.5,10.1c0-0.1,0.1-0.3,0.3-0.5c0.3-0.3,0.8-0.3,1.4-0.2
	L7,9.6l0.4-0.8C8,7.6,9,7.2,9.9,7.3c1,0.1,1.7,0.8,1.9,1.7L12,9.9h0.9c1,0,1.5,0.9,1.5,1.7c0,0.5-0.2,0.9-0.5,1.2
	c-0.4,0.4-1,0.6-1.7,0.6H3.4c-0.9,0-1.3-0.6-1.3-1.2c0-0.3,0.1-0.5,0.3-0.7s0.6-0.3,1-0.3h1.1V10.1z M23,3.2c0.2,0,0.4,0,0.7,0
	c1,0.1,1.7,0.8,1.9,1.7l0.2,0.9h0.9c1,0,1.5,0.9,1.5,1.7c0,0.5-0.2,0.9-0.5,1.2c-0.4,0.4-1,0.6-1.7,0.6h-2.9V3.2H23z"/>
</svg>
