<?xml version="1.0" encoding="utf-8"?>
<!-- Generator: Adobe Illustrator 26.4.1, SVG Export Plug-In . SVG Version: 6.00 Build 0)  -->
<svg version="1.1" id="Layer_1" xmlns="http://www.w3.org/2000/svg" xmlns:xlink="http://www.w3.org/1999/xlink" x="0px" y="0px"
	 viewBox="0 0 28.1 20.9" style="enable-background:new 0 0 28.1 20.9;" xml:space="preserve">
<g id="Layer_1_00000052070325688333715940000004366251592326627483_">
	<path d="M20.7,10.8c0.1,0.5-0.3,1.1-0.9,1.1c-0.5,0.1-0.9-0.2-1.1-0.6l-3.2,0.4c0,0.4-0.2,0.7-0.5,1l1.5,1.2
		c0.6-0.4,1.4-0.3,1.8,0.3c0.4,0.6,0.3,1.4-0.3,1.8s-1.4,0.3-1.8-0.3c-0.3-0.4-0.3-1-0.1-1.4l-1.6-1.4c-0.3,0.2-0.6,0.2-0.9,0.2
		c-0.4,0-0.7-0.1-1-0.3l-1.5,1.6c0.1,0.2,0.2,0.4,0.2,0.7c0,0.7-0.5,1.3-1.2,1.3c-0.7,0-1.3-0.5-1.3-1.2c0-0.7,0.5-1.3,1.2-1.3
		c0,0,0,0,0,0c0.3,0,0.5,0.1,0.7,0.2l1.5-1.7c-0.2-0.3-0.4-0.6-0.4-1l-2-0.3C9.9,11.7,9.4,12,8.8,12c-0.8,0-1.4-0.6-1.4-1.4
		c0-0.8,0.6-1.4,1.4-1.4c0.8,0,1.4,0.6,1.4,1.4l2,0.3c0.1-0.4,0.4-0.8,0.7-1L12,8.1h-0.2c-0.6,0-1-0.4-1-1s0.4-1,1-1s1,0.4,1,1
		c0,0.3-0.2,0.6-0.4,0.8l0.9,1.8c0.1,0,0.3-0.1,0.4-0.1c0.4,0,0.7,0.1,1,0.3l1.6-1.6c-0.1-0.2-0.2-0.4-0.2-0.7
		c0-0.7,0.6-1.2,1.2-1.2c0.7,0,1.2,0.6,1.2,1.2c0,0.7-0.6,1.2-1.2,1.2c-0.2,0-0.4-0.1-0.6-0.2l-1.6,1.6c0.2,0.2,0.3,0.5,0.3,0.8
		l3.1-0.4c0-0.6,0.4-1,1-1S20.7,10.2,20.7,10.8L20.7,10.8z M28.1,0v20.9H0V0L28.1,0z M14.1,2.4V1.9H2.4v0.5L14.1,2.4z M25.9,2.5V1.8
		h-0.7v0.7L25.9,2.5z M25.7,18.4V4.2H2.4v14.3H25.7z"/>
</g>
</svg>
