<?xml version="1.0" encoding="utf-8"?>
<!-- Generator: Adobe Illustrator 26.4.1, SVG Export Plug-In . SVG Version: 6.00 Build 0)  -->
<svg version="1.1" id="Layer_1" xmlns="http://www.w3.org/2000/svg" xmlns:xlink="http://www.w3.org/1999/xlink" x="0px" y="0px"
	 viewBox="0 0 22.9 23.5" style="enable-background:new 0 0 22.9 23.5;" xml:space="preserve">
<g id="Layer_1_00000081619102534885006710000012366976305163113138_">
	<path d="M16.5,14.8c3.1-4,2.3-9.8-1.7-12.9S5-0.4,1.9,3.6s-2.3,9.8,1.7,12.9c3,2.3,7.2,2.5,10.4,0.5l6.5,6.4l2.3-2.4L16.5,14.8z
		 M16.2,9.1c0,3.9-3.2,7.1-7.1,7.1c-3.9,0-7.1-3.2-7.1-7.1s3.2-7.1,7.1-7.1l0,0C13.1,2.1,16.2,5.2,16.2,9.1z M11.2,6.8
		c0,1.1-0.9,2-2,2s-2-0.9-2-2s0.9-2,2-2C10.3,4.8,11.2,5.7,11.2,6.8L11.2,6.8z M13.1,13.3H5.3v-0.4c0-2.1,1.7-3.8,3.9-3.8
		c2.1,0,3.8,1.7,3.8,3.8l0,0L13.1,13.3z"/>
</g>
</svg>
