<?xml version="1.0" encoding="utf-8"?>
<!-- Generator: Adobe Illustrator 26.4.1, SVG Export Plug-In . SVG Version: 6.00 Build 0)  -->
<svg version="1.1" id="Layer_1" xmlns="http://www.w3.org/2000/svg" xmlns:xlink="http://www.w3.org/1999/xlink" x="0px" y="0px"
	 viewBox="0 0 26 17.6" style="enable-background:new 0 0 26 17.6;" xml:space="preserve">
<path d="M0,0v17.6h26V0H0z M2.3,15.3v-13h21.4v13.1H2.3V15.3z M11.4,4v1.4H3.8V4H11.4z M11.4,6.7v1.5H3.8V6.8h7.6V6.7z M11.4,9.4
	v1.4H3.8V9.4H11.4z M11.4,12.1v1.4H3.8v-1.4H11.4z M18.4,5c-1.4,0-2.6,1.2-2.6,2.6c0,0.8,0.4,1.6,1.1,2.1v3l1.5-0.9l1.5,0.9v-3
	C20.6,9.2,21,8.4,21,7.6C21,6.2,19.8,5,18.4,5z M19.6,7.7c0,0.7-0.5,1.2-1.2,1.2s-1.2-0.5-1.2-1.2s0.5-1.2,1.2-1.2S19.6,7,19.6,7.7z
	 M18.9,7.6c0,0.3-0.2,0.5-0.5,0.5s-0.5-0.2-0.5-0.5s0.2-0.5,0.5-0.5S18.9,7.4,18.9,7.6z"/>
</svg>
