<?xml version="1.0" encoding="utf-8"?>
<!-- Generator: Adobe Illustrator 26.4.1, SVG Export Plug-In . SVG Version: 6.00 Build 0)  -->
<svg version="1.1" id="Layer_1" xmlns="http://www.w3.org/2000/svg" xmlns:xlink="http://www.w3.org/1999/xlink" x="0px" y="0px"
	 viewBox="0 0 16.4 20.2" style="enable-background:new 0 0 16.4 20.2;" xml:space="preserve">
<path d="M15.6,1.2C15.2,1.1,11.4,0,8.2,0C4.9,0,1,1.2,0.8,1.2L0,1.5v14.6l8.2,4.1l8.2-4.1V1.5L15.6,1.2z M2.3,3.2
	c1.3-0.3,3.8-0.9,5.9-0.9s4.6,0.6,5.9,0.9v11.5l-5.9,2.9l-5.9-2.9C2.3,14.7,2.3,3.2,2.3,3.2z M10.6,8c0,1-0.6,1.8-1.5,2.2v3.6H7.3
	v-3.6C6.4,9.8,5.8,9,5.8,8c0-1.3,1.1-2.4,2.4-2.4S10.6,6.7,10.6,8z"/>
</svg>
