<?xml version="1.0" encoding="utf-8"?>
<!-- Generator: Adobe Illustrator 26.4.1, SVG Export Plug-In . SVG Version: 6.00 Build 0)  -->
<svg version="1.1" id="Layer_1" xmlns="http://www.w3.org/2000/svg" xmlns:xlink="http://www.w3.org/1999/xlink" x="0px" y="0px"
	 viewBox="0 0 27 25.1" style="enable-background:new 0 0 27 25.1;" xml:space="preserve">
<style type="text/css">
	.st0{fill:#231F20;}
</style>
<g id="Layer_1_00000071517607948273938960000000994558003238550147_">
	<path class="st0" d="M10.4,14.6h2.3v2.3h-2.3V14.6z M10.4,13.3h2.3V11h-2.3V13.3z M10.4,9.6h2.3V7.3h-2.3V9.6z M10.4,6h2.3V3.7
		h-2.3V6z M6.7,16.9H9v-2.3H6.7V16.9z M6.7,9.6H9V7.3H6.7V9.6z M6.7,13.3H9V11H6.7V13.3z M6.7,6H9V3.7H6.7V6z M17.9,9.6h2.3V7.3
		h-2.3V9.6z M17.9,13.3h2.3V11h-2.3V13.3z M14.2,16.9h2.3v-2.3h-2.3V16.9z M17.9,3.7V6h2.3V3.7H17.9z M17.9,16.9h2.3v-2.3h-2.3V16.9
		z M14.2,6h2.3V3.7h-2.3V6z M14.2,13.3h2.3V11h-2.3V13.3z M14.2,9.6h2.3V7.3h-2.3V9.6z M24.4,22.8V0H2.6v22.8H0v2.3h27v-2.3H24.4z
		 M15.9,20.5v2.3H11v-2.3H15.9z M8.7,18.2v4.6H4.9V2.2h17.2v20.6h-3.9v-4.6H8.7z"/>
</g>
</svg>
