<?xml version="1.0" encoding="utf-8"?>
<!-- Generator: Adobe Illustrator 26.4.1, SVG Export Plug-In . SVG Version: 6.00 Build 0)  -->
<svg version="1.1" id="Layer_1" xmlns="http://www.w3.org/2000/svg" xmlns:xlink="http://www.w3.org/1999/xlink" x="0px" y="0px"
	 viewBox="0 0 21.1 26.7" style="enable-background:new 0 0 21.1 26.7;" xml:space="preserve">
<g id="Layer_1_00000005969758913535713490000007061667351916801724_">
	<path d="M19.5,16.9l-6.4-6.4c0.4-1.1-0.2-2.3-1.3-2.6c-0.4-0.2-0.9-0.2-1.4,0L4,1.5L3.2,2.3c-4.1,4.1-4.3,10.6-0.4,14.9l-2.4,9.5
		H13l-1.7-5.9c2.8,0,5.5-1.2,7.5-3.2L19.5,16.9z M3.2,24.5l1.5-5.7c1.2,0.9,2.7,1.5,4.1,1.8l1.1,3.9H3.2z M8.2,18.1
		C8,18,7.9,18,7.7,17.9l-0.2-0.1c-1-0.4-1.8-1-2.6-1.8l-0.7-0.7C1.7,12.2,1.6,7.7,4.1,4.6l12.2,12.2c-1.9,1.5-4.4,2.1-6.8,1.7l0,0
		L9,18.4l-0.5-0.1L8.2,18.1z M17.6,10.1v0.5l-2.2-0.1V10c0.1-1.2-0.3-2.5-1.1-3.4c-0.9-0.8-2.1-1.2-3.3-1.1h-0.5l-0.1-2.2h0.5
		c1.8-0.2,3.6,0.5,5,1.7C17.1,6.5,17.7,8.3,17.6,10.1L17.6,10.1z M21.1,9.6v0.5h-2.2V9.6c0.1-2.1-0.6-4.1-2-5.6
		c-1.5-1.3-3.4-2-5.4-1.9H11V0h0.5c2.6-0.1,5.1,0.8,7,2.5C20.3,4.4,21.2,7,21.1,9.6L21.1,9.6z"/>
</g>
</svg>
