<?xml version="1.0" encoding="utf-8"?>
<!-- Generator: Adobe Illustrator 26.4.1, SVG Export Plug-In . SVG Version: 6.00 Build 0)  -->
<svg version="1.1" id="Layer_1" xmlns="http://www.w3.org/2000/svg" xmlns:xlink="http://www.w3.org/1999/xlink" x="0px" y="0px"
	 viewBox="0 0 32.1 25.2" style="enable-background:new 0 0 32.1 25.2;" xml:space="preserve">
<g id="Layer_1_00000096023543139595963470000001590041118511734675_">
	<path d="M29.7,4l-2.4-4H4.8L2.5,4L0.3,7.4L0,7.9l0.1,0.2c0.2,2.9,2.6,5.2,5.5,5.3c2.9-0.1,5.3-2.4,5.5-5.3L11.2,8L8.8,4L7.7,2.1
		h7.1L8.7,23H7.5v2.2h17.8V23H24L17.9,2.1h6.5L20.9,8L21,8.2c0.2,2.9,2.6,5.2,5.5,5.3c2.9-0.1,5.3-2.4,5.5-5.3L32.1,8L29.7,4z
		 M23.9,7.2l2.5-4.3l1.3,2.2l1.3,2L23.9,7.2z M29.4,9.4c-0.7,1.6-2.6,2.3-4.2,1.6c-0.7-0.3-1.3-0.9-1.6-1.6H29.4z M8.5,9.4
		c-0.5,1.1-1.7,1.8-2.9,1.9c-1.2,0-2.3-0.8-2.9-1.9H8.5z M3,7.2l2.6-4.3l2.6,4.3H3z M11,23l5.4-18.2L21.8,23L11,23z"/>
</g>
</svg>
