<?xml version="1.0" encoding="utf-8"?>
<!-- Generator: Adobe Illustrator 26.4.1, SVG Export Plug-In . SVG Version: 6.00 Build 0)  -->
<svg version="1.1" id="Layer_1" xmlns="http://www.w3.org/2000/svg" xmlns:xlink="http://www.w3.org/1999/xlink" x="0px" y="0px"
	 viewBox="0 0 19 27" style="enable-background:new 0 0 19 27;" xml:space="preserve">
<g id="Layer_1_00000160906641415379645870000012947652813896111770_">
	<path d="M17.4,2.3H19V0H0v2.3h1.5v4.2l6.5,7l-6.5,7.1v4.2H0V27h19v-2.2h-1.7v-4.2l-6.5-7l6.5-7V2.3z M3.8,21.5l5.6-6.1l5.6,6.1v3.3
		H3.8V21.5z M3.8,5.6V2.3h11.2v3.3l-5.6,6.1L3.8,5.6z M14.1,21.6v2.2H4.8v-2.3L7.2,19h4.4l0,0L14.1,21.6z M12.5,7.2l-3,3.2l-3-3.2
		L12.5,7.2z"/>
</g>
</svg>
