<?xml version="1.0" encoding="utf-8"?>
<!-- Generator: Adobe Illustrator 26.4.1, SVG Export Plug-In . SVG Version: 6.00 Build 0)  -->
<svg version="1.1" id="Layer_1" xmlns="http://www.w3.org/2000/svg" xmlns:xlink="http://www.w3.org/1999/xlink" x="0px" y="0px"
	 viewBox="0 0 26.7 26.7" style="enable-background:new 0 0 26.7 26.7;" xml:space="preserve">
<style type="text/css">
	.st0{fill:#231F20;}
</style>
<g id="Layer_1_00000093178568254133563370000018364104869758578602_">
	<path class="st0" d="M22.7,3.8L22.7,3.8C17.4-1.3,9-1.3,3.8,4S-1.3,17.7,4,22.9s13.7,5.1,18.9-0.2c2.5-2.5,3.8-5.9,3.8-9.4
		C26.7,9.7,25.2,6.3,22.7,3.8z M21.1,21.1c-4.4,4.3-11.4,4.2-15.6-0.2c-4.2-4.3-4.2-11.2,0-15.4c4.3-4.3,11.3-4.3,15.6,0
		C25.4,9.8,25.4,16.8,21.1,21.1z M15.1,10.2H8V8.2h7.1l-1-1l1.4-1.4l3.2,3.4l-3.3,3.3l-1.4-1.4L15.1,10.2z M11.5,16.6h7.2v2h-7.3
		l1,1L11,20.9l-3.2-3.4l3.3-3.3l1.4,1.4L11.5,16.6z"/>
</g>
</svg>
