<?xml version="1.0" encoding="utf-8"?>
<!-- Generator: Adobe Illustrator 26.4.1, SVG Export Plug-In . SVG Version: 6.00 Build 0)  -->
<svg version="1.1" id="Layer_1" xmlns="http://www.w3.org/2000/svg" xmlns:xlink="http://www.w3.org/1999/xlink" x="0px" y="0px"
	 viewBox="0 0 26.7 26.7" style="enable-background:new 0 0 26.7 26.7;" xml:space="preserve">
<style type="text/css">
	.st0{fill:#231F20;}
</style>
<g id="Layer_1_00000107581689863222180900000008071521953868219535_">
	<path class="st0" d="M13.3,0C5.9,0,0,6,0,13.4s6,13.3,13.4,13.3c7.3,0,13.3-6,13.3-13.3C26.7,6,20.8,0,13.3,0C13.4,0,13.3,0,13.3,0
		z M13.3,24.4C7.2,24.2,2.5,19,2.7,12.9c0.2-5.3,4.2-9.8,9.5-10.5v10.1h2.3V2.4c6,0.9,10.2,6.5,9.4,12.5
		C23.1,20.2,18.7,24.2,13.3,24.4z M22.8,13.4c0,5.2-4.2,9.5-9.5,9.5s-9.5-4.2-9.5-9.5c0-3.9,2.4-7.4,6.1-8.8l0.8-0.3v2.4l-0.3,0.1
		c-3.6,1.6-5.2,5.9-3.6,9.5s5.9,5.2,9.5,3.6s5.2-5.9,3.6-9.5c-0.7-1.6-2-2.8-3.6-3.6L16,6.7V4.3l0.8,0.3
		C20.4,5.9,22.8,9.5,22.8,13.4z"/>
</g>
</svg>
