<?xml version="1.0" encoding="utf-8"?>
<!-- Generator: Adobe Illustrator 26.4.1, SVG Export Plug-In . SVG Version: 6.00 Build 0)  -->
<svg version="1.1" id="Layer_1" xmlns="http://www.w3.org/2000/svg" xmlns:xlink="http://www.w3.org/1999/xlink" x="0px" y="0px"
	 viewBox="0 0 26.6 26.7" style="enable-background:new 0 0 26.6 26.7;" xml:space="preserve">
<style type="text/css">
	.st0{fill:#231F20;}
</style>
<g id="Layer_1_00000176003438501169918430000003201447486449683369_">
	<path class="st0" d="M14.8,17.7c0,0.8-0.7,1.5-1.5,1.5c-0.8,0-1.5-0.7-1.5-1.5c0-0.8,0.7-1.5,1.5-1.5
		C14.2,16.2,14.8,16.9,14.8,17.7L14.8,17.7z M13.3,13.5c-1.4,0-2.8,0.6-3.7,1.7l-0.3,0.3l1.6,1.1l0.2-0.2c0.5-0.6,1.3-0.9,2.1-0.9
		c0.8,0,1.6,0.4,2.1,1l0.2,0.2l1.6-1.1L17,15.3C16.1,14.2,14.8,13.5,13.3,13.5z M13.3,10.5c-2.4,0-4.7,1.2-6.2,3.1L6.9,14L8.5,15
		l0.2-0.3c1.1-1.5,2.8-2.3,4.6-2.3c1.8,0,3.5,0.9,4.6,2.3l0.2,0.3l1.6-1.1l-0.2-0.3C18.1,11.6,15.8,10.4,13.3,10.5L13.3,10.5z
		 M22,12.1C18.7,7.3,12.2,6,7.4,9.3C6.3,10,5.4,11,4.6,12l-0.2,0.3L6,13.4l0.2-0.3c2.7-3.9,8-4.9,11.9-2.2c0.9,0.6,1.6,1.3,2.2,2.2
		l0.2,0.3l1.6-1.1L22,12.1z M13.3,0.1C6,0.1,0,6.1,0,13.4s6,13.3,13.3,13.3c7.4,0,13.3-6,13.3-13.3c0,0,0-0.1,0-0.1
		C26.6,6,20.7,0,13.3,0.1L13.3,0.1z M13.3,24.4c-6.1,0-11-4.9-11-11s4.9-11,11-11s11,4.9,11,11C24.3,19.5,19.4,24.3,13.3,24.4
		L13.3,24.4z"/>
</g>
</svg>
