<?xml version="1.0" encoding="utf-8"?>
<!-- Generator: Adobe Illustrator 26.4.1, SVG Export Plug-In . SVG Version: 6.00 Build 0)  -->
<svg version="1.1" id="Layer_1" xmlns="http://www.w3.org/2000/svg" xmlns:xlink="http://www.w3.org/1999/xlink" x="0px" y="0px"
	 viewBox="0 0 26.6 23" style="enable-background:new 0 0 26.6 23;" xml:space="preserve">
<path d="M26.6,19.1V0H0v19.1h8.5v1.4H6.2V23h14.2v-2.5h-2.3v-1.4C18.1,19.1,26.6,19.1,26.6,19.1z M24.2,2.4v14.4H2.4V2.4H24.2z
	 M15.8,8.8V8c0-0.6-0.3-1.3-0.7-1.7c-0.5-0.5-1.1-0.7-1.7-0.7C12.1,5.6,11,6.7,11,8v0.8h-0.5v4.7h5.8V8.8
	C16.3,8.8,15.8,8.8,15.8,8.8z M12.2,8c0-0.6,0.5-1.1,1.1-1.1c0.3,0,0.6,0.1,0.8,0.3c0.2,0.2,0.3,0.5,0.3,0.8v0.8h-2.3V8H12.2z"/>
</svg>
