<?xml version="1.0" encoding="utf-8"?>
<!-- Generator: Adobe Illustrator 26.4.1, SVG Export Plug-In . SVG Version: 6.00 Build 0)  -->
<svg version="1.1" id="Layer_1" xmlns="http://www.w3.org/2000/svg" xmlns:xlink="http://www.w3.org/1999/xlink" x="0px" y="0px"
	 viewBox="0 0 19.2 26.8" style="enable-background:new 0 0 19.2 26.8;" xml:space="preserve">
<path d="M19.2,3v16.4H17V3H19.2z M3,3.5h9.8v5H3V3.5z M4.7,5.2v1.6h6.4V5.2H4.7z M15.9,22.7H13v4.1H3.7v-4.2H0V0h15.9V22.7z
	 M5.4,25.1h0.7v-2.5H5.4V25.1z M11.3,25.1v-2.5H8.8v2.5H11.3z M13.7,20.5V2.2H2.2v18.3C2.2,20.5,13.7,20.5,13.7,20.5z M4.2,11.6h2
	v-2h-2V11.6z M6.9,19.1h2v-2h-2V19.1z M4.2,14.1h2v-2h-2V14.1z M9.7,11.6h2v-2h-2V11.6z M4.2,16.6h2v-2h-2V16.6z M4.2,19.1h2v-2h-2
	V19.1z M9.7,16.6h2v-2h-2V16.6z M9.7,14.1h2v-2h-2V14.1z M9.7,19.1h2v-2h-2V19.1z M6.9,11.6h2v-2h-2V11.6z M6.9,14.1h2v-2h-2V14.1z
	 M6.9,16.6h2v-2h-2V16.6z"/>
</svg>
