<?xml version="1.0" encoding="utf-8"?>
<!-- Generator: Adobe Illustrator 26.4.1, SVG Export Plug-In . SVG Version: 6.00 Build 0)  -->
<svg version="1.1" id="Layer_1" xmlns="http://www.w3.org/2000/svg" xmlns:xlink="http://www.w3.org/1999/xlink" x="0px" y="0px"
	 viewBox="0 0 26.8 26.8" style="enable-background:new 0 0 26.8 26.8;" xml:space="preserve">
<style type="text/css">
	.st0{fill:#231F20;}
</style>
<g id="Layer_1_00000048480657367491698360000016530390091736764581_">
	<path class="st0" d="M13.4,0C6,0,0,6,0,13.4c0,7.4,6,13.4,13.4,13.4c7.4,0,13.4-6,13.4-13.4C26.8,6,20.8,0,13.4,0z M13.4,24.5
		c-6.1,0-11.1-5-11.1-11.1s5-11.1,11.1-11.1s11.1,5,11.1,11.1C24.5,19.5,19.5,24.5,13.4,24.5z M21.5,14.4h-2.6l1.9,1.9l-1.3,1.3
		l-3.2-3.2h-1.9v1.8l3.2,3.2l-1.3,1.3l-1.9-1.9v2.7h-1.8v-2.8l-1.9,1.9l-1.3-1.3l3.2-3.2v-1.7h-1.8l-3.2,3.2l-1.3-1.3l1.9-1.9H5.4
		v-1.8h2.9l-2-2l1.3-1.3l3.2,3.2h1.6v-2L9.3,7.3L10.6,6l1.9,1.9V5.4h1.8V8l1.9-1.9l1.3,1.3l-3.2,3.2v2h1.9l3.3-3.2l1.3,1.3l-2,2h2.6
		L21.5,14.4z"/>
</g>
</svg>
