<?xml version="1.0" encoding="utf-8"?>
<!-- Generator: Adobe Illustrator 26.4.1, SVG Export Plug-In . SVG Version: 6.00 Build 0)  -->
<svg version="1.1" id="Layer_1" xmlns="http://www.w3.org/2000/svg" xmlns:xlink="http://www.w3.org/1999/xlink" x="0px" y="0px"
	 viewBox="0 0 26.8 26.8" style="enable-background:new 0 0 26.8 26.8;" xml:space="preserve">
<path d="M13.4,0C6,0,0,6,0,13.4s6,13.4,13.4,13.4s13.4-6,13.4-13.4S20.8,0,13.4,0z M13.4,24.5c-6.1,0-11.1-5-11.1-11.1
	s5-11.1,11.1-11.1s11.1,5,11.1,11.1S19.5,24.5,13.4,24.5z M23.4,11.2L23.4,11.2c-0.1-0.6-0.5-1.1-1-1.4s-1.1-0.4-1.7-0.3
	s-1.1,0.5-1.4,1C19.1,10.8,19,11,19,11.3l-2.4,0.5c-0.5-0.9-1.3-1.6-2.3-1.8V7.5c0.8-0.3,1.4-1.2,1.4-2.1c0-1.2-1-2.3-2.3-2.3
	s-2.3,1-2.3,2.3c0,0.9,0.6,1.7,1.4,2.1V10c-1,0.2-1.9,0.9-2.3,1.8l-2.4-0.5C7.6,10.4,7,9.7,6.1,9.5c-0.6-0.1-1.2,0-1.7,0.3
	s-0.9,0.8-1,1.4s0,1.2,0.3,1.7s0.8,0.9,1.4,1c0.6,0.1,1.2,0,1.7-0.3C7,13.4,7.3,13.2,7.4,13l2.4,0.5c0,0.9,0.4,1.8,1,2.4L9.5,18
	c-0.3-0.1-0.6-0.1-0.9,0c-0.6,0.1-1.1,0.5-1.4,1c-0.7,1.1-0.3,2.4,0.7,3.1c0.4,0.2,0.8,0.3,1.2,0.3c0.2,0,0.3,0,0.5-0.1
	c0.6-0.1,1.1-0.5,1.4-1s0.4-1.1,0.3-1.7c-0.1-0.3-0.2-0.6-0.4-0.8l1.3-2.1c0.8,0.3,1.6,0.2,2.3,0l1.3,2.1c-0.5,0.7-0.5,1.7-0.1,2.5
	c0.4,0.6,1.1,1,1.9,1c0.4,0,0.9-0.1,1.2-0.4c0.5-0.3,0.9-0.8,1-1.4c0.1-0.6,0-1.2-0.3-1.7s-0.8-0.9-1.4-1c-0.3-0.1-0.6-0.1-0.9,0
	l-1.2-2c0.6-0.6,0.9-1.5,0.9-2.3l2.4-0.5c0.5,0.7,1.5,1.1,2.3,0.9c0.6-0.1,1.1-0.5,1.4-1C23.4,12.4,23.5,11.8,23.4,11.2z M15.3,13.4
	c0,1-0.8,1.9-1.9,1.9s-1.9-0.8-1.9-1.9c0-1,0.8-1.9,1.9-1.9S15.3,12.4,15.3,13.4z"/>
</svg>
