<?xml version="1.0" encoding="utf-8"?>
<!-- Generator: Adobe Illustrator 26.4.1, SVG Export Plug-In . SVG Version: 6.00 Build 0)  -->
<svg version="1.1" id="Layer_1" xmlns="http://www.w3.org/2000/svg" xmlns:xlink="http://www.w3.org/1999/xlink" x="0px" y="0px"
	 viewBox="0 0 26.4 26.4" style="enable-background:new 0 0 26.4 26.4;" xml:space="preserve">
<g id="Layer_1_00000085949633012639147620000013809181399395560601_">
	<path d="M6.7,9.4h8.4l-3.9,3.9L6.7,9.4z M6.5,18l4.5-4.5L6.5,9.6V18z M4.1,16.5h2V9h9.3l2-2.1H4.1L4.1,16.5z M13.2,26.4
		C5.9,26.4,0,20.5,0,13.2S5.9,0,13.2,0c7.3,0,13.2,5.9,13.2,13.2C26.4,20.5,20.5,26.4,13.2,26.4z M13.2,24.4c6.2,0,11.2-5,11.2-11.2
		c0-2.6-0.9-5.2-2.6-7.2l-3.3,3.3h3.1L14.2,16L13,14.9l-0.2,0.2l1.5,1.3L22,9.5v10H8.4l-2.3,2.3C8.1,23.5,10.6,24.4,13.2,24.4z
		 M20.3,4.7C15.5,0.8,8.5,1.5,4.6,6.3c-3.3,4.1-3.3,9.9,0,14l6.6-6.6l0,0L20.3,4.7z"/>
</g>
</svg>
