<?xml version="1.0" encoding="utf-8"?>
<!-- Generator: Adobe Illustrator 26.4.1, SVG Export Plug-In . SVG Version: 6.00 Build 0)  -->
<svg version="1.1" id="Layer_1" xmlns="http://www.w3.org/2000/svg" xmlns:xlink="http://www.w3.org/1999/xlink" x="0px" y="0px"
	 viewBox="0 0 28.8 24" style="enable-background:new 0 0 28.8 24;" xml:space="preserve">
<g id="Layer_1_00000007423530146595851930000013458051547015075213_">
	<path d="M22.3,15v0.2h-1.7V15c-0.1-1.1-0.6-2.2-1.3-3.1c-1.3-1.3-3.1-2-4.9-1.8h-0.2V8.4h0.2c2.3-0.2,4.6,0.7,6.1,2.4
		C21.6,12,22.2,13.4,22.3,15z M28.8,19.2V24H0v-4.8h13.4V18h-11v-1c0-6.2,4.8-11.5,11-12V4.1h-1.9V2c0-1.1,0.9-2,2-2h2
		c1.1,0,2,0.9,2,2v2h-1.9v0.9c6.2,0.6,11,5.8,11,12V18h-11v1.1L28.8,19.2z M4.7,15.9h19.6c-0.6-5.4-5.5-9.3-11-8.7
		C8.8,7.7,5.2,11.3,4.7,15.9z M15.8,2.4V2c0-0.2-0.1-0.3-0.3-0.3h-2c-0.2,0-0.3,0.1-0.3,0.3c0,0,0,0,0,0v0.3L15.8,2.4z M26.7,21.8
		v-0.4H2.2v0.4H26.7z"/>
</g>
</svg>
