<?xml version="1.0" encoding="utf-8"?>
<!-- Generator: Adobe Illustrator 26.4.1, SVG Export Plug-In . SVG Version: 6.00 Build 0)  -->
<svg version="1.1" id="Layer_1" xmlns="http://www.w3.org/2000/svg" xmlns:xlink="http://www.w3.org/1999/xlink" x="0px" y="0px"
	 viewBox="0 0 26.4 26.5" style="enable-background:new 0 0 26.4 26.5;" xml:space="preserve">
<g id="Layer_1_00000182497174607697681250000015075115058374828943_">
	<path d="M15.1,8.6l0.6,0.2l-1.6,1.6h-0.2c-0.7-0.2-1.4,0-2,0.3c0.2,0.1,0.5,0.2,0.8,0.3l0.7,0.2l-2.5,2.5l-0.3-0.2l-0.2-0.1
		c0,0.1,0,0.3,0.1,0.4V14l-1.7,1.6l-0.2-0.5c-0.2-0.6-0.4-1.2-0.4-1.9v-0.1c-1.4,0.3-2.4,1.6-2.3,3c0,0.2,0,0.4,0.1,0.6
		s0,0.5-0.2,0.7l-0.9,0.5l-0.2-0.5c-0.6-1.5-0.5-3.2,0.2-4.6c0.5-1,1.3-1.8,2.3-2.3l0.5-0.2l0,0c0-0.3-0.1-0.5-0.1-0.8
		c0-0.6,0.1-1.1,0.2-1.6c0.6-2.1,2.4-3.6,4.5-3.9l0.5-0.1v0.8c0,0.5-0.3,0.7-0.4,0.7C12,5.5,11.6,5.7,11.2,6c-0.5,0.5-0.9,1.1-1,1.9
		c0,0.4,0,0.8,0.1,1.2C11.8,8.2,13.6,8,15.1,8.6z M17.8,6.3C16.9,5,15.6,4.2,14.1,4l-0.5-0.1v1c0,0.4,0.4,0.5,0.6,0.5
		c1,0.3,1.7,1.1,1.9,2.1l0.2,0.7l1.6-1.7L17.8,6.3z M26.4,13.3c0,7.3-5.9,13.2-13.2,13.2S0,20.5,0,13.2S5.9,0,13.2,0
		C20.5,0.1,26.4,6,26.4,13.3z M20.3,4.7C15.6,0.8,8.5,1.5,4.6,6.2c-3.4,4.1-3.4,10.1,0,14.2L20.3,4.7z M10.5,18.4
		c0.2-0.2,0.4-0.4,0.6-0.6c-0.2-0.1-0.4-0.2-0.6-0.4l-1.4,1.4C9.5,18.8,10.1,18.7,10.5,18.4z M15.3,14.1c-0.1,0.1-0.2,0.3-0.3,0.5
		c-0.1,0.2-0.2,0.5-0.2,0.7c0,0.1,0,0.2,0,0.4c0.8-0.5,1.3-1.3,1.3-2.2c-0.2,0.2-0.5,0.4-0.6,0.6H15.3z M6,21.8
		c4.7,4,11.8,3.4,15.7-1.4c3.5-4.2,3.5-10.2,0-14.4l-3,3c0,0.3,0,0.7,0,1l0,0l0,0c2.8,1.2,4.2,4.4,3,7.2l-0.1,0.6l-0.7-0.4
		c-0.3-0.1-0.5-0.4-0.4-0.7l0,0c0.5-1.5-0.4-3.2-2-3.6c-0.1,0-0.2-0.1-0.3-0.1c0,0.1,0,0.1,0,0.2c0,1.9-1.1,3.7-2.8,4.5
		c0.3,0.4,0.8,0.8,1.3,0.9c0.9,0.3,1.8,0.2,2.6-0.3c0.2-0.1,0.3-0.2,0.4-0.3c0.1-0.2,0.5-0.3,0.7-0.2l0,0l0.9,0.5L21,18.7
		c-1.7,2.1-4.5,2.7-6.9,1.5c-0.3-0.2-0.6-0.3-0.8-0.5l-0.2,0.1c-0.5,0.4-1,0.6-1.6,0.8c-1.3,0.4-2.7,0.3-3.9-0.3L6,21.8z"/>
</g>
</svg>
