<?xml version="1.0" encoding="utf-8"?>
<!-- Generator: Adobe Illustrator 26.4.1, SVG Export Plug-In . SVG Version: 6.00 Build 0)  -->
<svg version="1.1" id="Layer_1" xmlns="http://www.w3.org/2000/svg" xmlns:xlink="http://www.w3.org/1999/xlink" x="0px" y="0px"
	 viewBox="0 0 26.6 23" style="enable-background:new 0 0 26.6 23;" xml:space="preserve">
<g id="Layer_1_00000007393078964455634470000014668715732931361415_">
	<path d="M26.6,19.1V0H0v19.1h8.5v1.4H6.2V23h14.2v-2.5h-2.3v-1.4H26.6z M24.2,2.4v14.4H2.3V2.4H24.2z M13,9.4l-3.9,1.3
		c-0.5-2.4,1.1-4.8,3.5-5.3c0.1,0,0.3-0.1,0.4-0.1V9.4z M17.9,9.7c0,2.5-2,4.4-4.4,4.4c0,0,0,0,0,0c-1.8,0-3.4-1-4.1-2.6l4.5-1.5
		V5.3C16.2,5.5,17.9,7.4,17.9,9.7L17.9,9.7z"/>
</g>
</svg>
