<?xml version="1.0" encoding="utf-8"?>
<!-- Generator: Adobe Illustrator 26.4.1, SVG Export Plug-In . SVG Version: 6.00 Build 0)  -->
<svg version="1.1" id="Layer_1" xmlns="http://www.w3.org/2000/svg" xmlns:xlink="http://www.w3.org/1999/xlink" x="0px" y="0px"
	 viewBox="0 0 33.4 18.2" style="enable-background:new 0 0 33.4 18.2;" xml:space="preserve">
<g id="Layer_1_00000064343689043401301390000018114947619900331648_">
	<path d="M21,15.1V0H0v15.1h6.7v1.1H4.9v2h11.2v-2h-1.8v-1.1H21z M19.1,1.9v11.4H1.8V1.9H19.1z M8.3,5H6.4v4.9h0.9V8.2h1
		c0.8,0,1.5-0.6,1.5-1.5c0,0,0,0,0-0.1C9.9,5.8,9.3,5.1,8.5,5C8.4,5,8.4,5,8.3,5z M8.1,7.4H7.3V5.8h0.8c0.5,0.1,0.8,0.5,0.7,0.9
		C8.8,7.1,8.5,7.4,8.1,7.4z M14.2,8.5l0.5,0.6c-0.5,0.5-1.2,0.8-1.9,0.8c-1.4-0.1-2.4-1.3-2.3-2.7C10.6,6,11.6,5.1,12.8,5
		c0.7,0,1.3,0.2,1.8,0.7l-0.4,0.7c-0.4-0.3-0.8-0.5-1.3-0.5c-0.9,0-1.6,0.7-1.6,1.5c0,0,0,0.1,0,0.1c-0.1,0.9,0.6,1.7,1.5,1.7
		c0,0,0.1,0,0.1,0C13.4,9.1,13.9,8.9,14.2,8.5L14.2,8.5z M23.9,0v18.2h9.6V0L23.9,0z M25.9,16.2V2h5.6v14.2H25.9z M30.6,2.9v1.6
		h-3.8V2.9H30.6z M26.8,5.6h3.8v1.5h-3.8V5.6z M26.8,8.3h3.8v1.6h-3.8V8.3z M29.8,14.3c0,0.6-0.5,1.1-1.1,1.1
		c-0.6,0-1.1-0.5-1.1-1.1s0.5-1.1,1.1-1.1c0,0,0,0,0,0C29.3,13.1,29.8,13.6,29.8,14.3L29.8,14.3z"/>
</g>
</svg>
