<?xml version="1.0" encoding="utf-8"?>
<!-- Generator: Adobe Illustrator 26.4.1, SVG Export Plug-In . SVG Version: 6.00 Build 0)  -->
<svg version="1.1" id="Layer_1" xmlns="http://www.w3.org/2000/svg" xmlns:xlink="http://www.w3.org/1999/xlink" x="0px" y="0px"
	 viewBox="0 0 26.6 23.1" style="enable-background:new 0 0 26.6 23.1;" xml:space="preserve">
<g id="Layer_1_00000116916773078654118570000007569099285475437216_">
	<path d="M26.6,19.1V0H0v19.1h8.5v1.4H6.2v2.6h14.2v-2.6h-2.3v-1.4H26.6z M24.2,2.4v14.4H2.3V2.4H24.2z M5.3,7.1H3.9v4.6h1.3
		c0.7,0,1.4-0.2,1.9-0.6c0.5-0.5,0.7-1.1,0.6-1.8c0-0.6-0.2-1.2-0.6-1.7C6.6,7.3,6,7.1,5.3,7.1z M5.3,11H4.9V8h0.5
		c0.9,0,1.3,0.5,1.3,1.5C6.7,10.5,6.2,11,5.3,11z M8.7,7.1h2.7v0.8H9.7v1h1.6v0.8H9.7v1.2h1.7v0.8H8.7V7.1z M15.9,7.1h1.3v4.6h-0.9
		V9.2c0-0.1,0-0.5,0-1.1l0,0l-1.2,3.6h-0.9l-1.1-3.6l0,0c0,0.7,0.1,1.2,0.1,1.5v2.2h-0.9V7.1h1.3l1.1,3.5l0,0L15.9,7.1z M20.5,7.1
		c-0.6,0-1.2,0.2-1.6,0.6c-0.4,0.5-0.6,1.1-0.6,1.8c0,0.6,0.2,1.3,0.6,1.8c0.9,0.8,2.3,0.8,3.3,0c0.4-0.5,0.6-1.1,0.6-1.8
		c0-0.6-0.2-1.3-0.6-1.8C21.7,7.3,21.1,7,20.5,7.1z M20.5,11.1c-0.3,0-0.7-0.1-0.9-0.4c-0.2-0.3-0.3-0.8-0.3-1.2
		c0-0.4,0.1-0.8,0.3-1.2c0.2-0.3,0.5-0.4,0.9-0.4c0.8,0,1.2,0.5,1.2,1.6S21.3,11.1,20.5,11.1z"/>
</g>
</svg>
