<?xml version="1.0" encoding="utf-8"?>
<!-- Generator: Adobe Illustrator 26.4.1, SVG Export Plug-In . SVG Version: 6.00 Build 0)  -->
<svg version="1.1" id="Layer_1" xmlns="http://www.w3.org/2000/svg" xmlns:xlink="http://www.w3.org/1999/xlink" x="0px" y="0px"
	 viewBox="0 0 24.6 31.3" style="enable-background:new 0 0 24.6 31.3;" xml:space="preserve">
<g id="Layer_1_00000155839933926166964490000017433998914680688292_">
	<path d="M24.6,18.6l-8-7.6V0H0v25.9h11.4l5.2,5.4h8V18.6z M14.3,2.3v16.6L13.4,18c-0.6-0.6-1.5-1-2.4-1s-1.8,0.3-2.5,1
		c-0.7,0.6-1.1,1.5-1.1,2.4c0,0.7,0.2,1.5,0.6,2.1H2.2V2.3H14.3z M10.1,19.6c0.2-0.2,0.5-0.3,0.8-0.3H11c0.3,0,0.6,0.1,0.8,0.4
		l4.9,4.8V14.2l5.6,5.4v9.3h-4.7l-7.4-7.7C10,21,9.9,20.7,9.9,20.4C9.8,20.1,9.9,19.8,10.1,19.6z M6.1,12.7v1.6h1.4l0.4-0.9
		c0.7,0.1,1.3,0.1,2,0l0.4,0.9h1.4v-1.6c0.9-0.5,1.4-1.4,1.5-2.5c0-1.8-1.9-3.2-4.3-3.2c-0.3,0-0.7,0-1,0.1L7.5,6.6H6.2v1.2
		C5.7,8.1,5.3,8.6,5,9.1H4v2.3h1C5.3,12,5.7,12.4,6.1,12.7L6.1,12.7z M6.3,9.1c0.2-0.2,0.6-0.2,0.8,0l0,0c0.2,0.2,0.2,0.6,0,0.8
		s-0.6,0.2-0.8,0C6.1,9.7,6.1,9.3,6.3,9.1L6.3,9.1z M8.7,23.8c-0.3,0-0.5-0.2-0.5-0.5s0.2-0.5,0.5-0.5s0.5,0.2,0.5,0.5
		S9,23.8,8.7,23.8L8.7,23.8"/>
</g>
</svg>
