<?xml version="1.0" encoding="utf-8"?>
<!-- Generator: Adobe Illustrator 26.4.1, SVG Export Plug-In . SVG Version: 6.00 Build 0)  -->
<svg version="1.1" id="Layer_1" xmlns="http://www.w3.org/2000/svg" xmlns:xlink="http://www.w3.org/1999/xlink" x="0px" y="0px"
	 viewBox="0 0 29.8 25" style="enable-background:new 0 0 29.8 25;" xml:space="preserve">
<style type="text/css">
	.st0{fill:#231F20;}
</style>
<g id="Layer_1_00000132054923371616245410000016742567385874917540_">
	<path class="st0" d="M13.7,17.4v-2.2H16v2.2H13.7z M20,17.4v-2.3h-2.3v2.3H20z M24,15.2h-2.2v2.3H24L24,15.2z M11.9,15.2H9.7v2.3
		h2.2L11.9,15.2z M7.9,15.2H5.7v2.3h2.2L7.9,15.2z M24,19.2h-2.3v2.3H24L24,19.2z M9.7,19.2v2.3H20v-2.2L9.7,19.2z M5.7,19.2v2.2H8
		v-2.2L5.7,19.2z M28.8,8.4c-1.2,1.2-2.5,2.2-3.9,3.2h2.9V25H1.9V11.6h2.9c-1.4-1-2.7-2-3.9-3.2L0,7.5l0.9-0.9
		C5.4,2.3,10.1,0.1,14.8,0c4.8,0.1,9.5,2.3,14,6.6l0.9,0.9L28.8,8.4z M4.1,22.8h21.4v-9H4.1L4.1,22.8z M7.4,7.5
		c0-1.1,0.3-2.3,0.8-3.3C6.6,5.2,5,6.2,3.6,7.5c1.4,1.3,3,2.4,4.7,3.2C7.7,9.8,7.5,8.7,7.4,7.5z M22.1,7.5c0,1.2-0.3,2.4-0.8,3.4
		c1.8-0.9,3.4-2,4.9-3.4c-1.5-1.3-3.1-2.5-4.9-3.4C21.8,5.2,22.1,6.3,22.1,7.5z M12.1,11.6h5.3c1.4-0.9,2.2-2.4,2.2-4.1
		c0-2.7-2.2-4.9-4.9-4.9c0,0,0,0,0,0c-0.4,0-0.7,0-1.1,0.1C11,3.3,9.4,5.9,10,8.6C10.2,9.8,11,10.9,12.1,11.6L12.1,11.6z M17.5,8.2
		c0.4-1.5-0.5-3.1-2.1-3.5c-0.5-0.1-1-0.1-1.4,0c-1,0.3-1.8,1.1-2,2.1c-0.4,1.5,0.5,3.1,2.1,3.5c0.5,0.1,0.9,0.1,1.4,0
		C16.5,10,17.3,9.2,17.5,8.2L17.5,8.2z"/>
</g>
</svg>
