<?xml version="1.0" encoding="utf-8"?>
<!-- Generator: Adobe Illustrator 26.4.1, SVG Export Plug-In . SVG Version: 6.00 Build 0)  -->
<svg version="1.1" id="Layer_1" xmlns="http://www.w3.org/2000/svg" xmlns:xlink="http://www.w3.org/1999/xlink" x="0px" y="0px"
	 viewBox="0 0 22.5 28.5" style="enable-background:new 0 0 22.5 28.5;" xml:space="preserve">
<style type="text/css">
	.st0{fill:#231F20;}
</style>
<g id="Layer_1_00000148650433749178188460000004384246380263051930_">
	<path class="st0" d="M22.4,17l-7.2-7V0H0v23.7h10.4l4.7,4.9h7.4L22.4,17z M13,2.2v15l-0.7-0.7c-0.6-0.6-1.4-1-2.2-1
		c-0.8,0-1.7,0.3-2.3,0.9c-0.6,0.6-1,1.4-1,2.2c0,0.6,0.2,1.3,0.5,1.8H2.2V2.2H13z M9.3,17.9c0.2-0.2,0.4-0.3,0.7-0.2h0
		c0.3,0,0.5,0.1,0.7,0.3l4.5,4.5v-9.4l5,4.9v8.4H16l-6.7-7C9.1,19.1,9,18.9,9,18.6C9,18.4,9.1,18.1,9.3,17.9z M7.6,4.4
		c-1.8,0-3.2,1.4-3.2,3.2c0,0.7,0.3,1.4,0.7,2c0.6,0.9,2.2,3.6,2.3,3.6l0.2,0.4l0.2-0.4c0,0,1.6-2.8,2.3-3.7c0.4-0.6,0.7-1.3,0.7-2
		C10.8,5.8,9.4,4.4,7.6,4.4L7.6,4.4z M7.6,8.6c-0.6,0-1-0.4-1-1s0.4-1,1-1s1,0.4,1,1S8.2,8.6,7.6,8.6z M7.6,22.5
		c-0.3,0-0.5-0.2-0.5-0.5c0-0.3,0.2-0.5,0.5-0.5c0.3,0,0.5,0.2,0.5,0.5c0,0,0,0,0,0C8.1,22.2,7.9,22.5,7.6,22.5"/>
</g>
</svg>
