<?xml version="1.0" encoding="utf-8"?>
<!-- Generator: Adobe Illustrator 26.4.1, SVG Export Plug-In . SVG Version: 6.00 Build 0)  -->
<svg version="1.1" id="Layer_1" xmlns="http://www.w3.org/2000/svg" xmlns:xlink="http://www.w3.org/1999/xlink" x="0px" y="0px"
	 viewBox="0 0 26.4 26.4" style="enable-background:new 0 0 26.4 26.4;" xml:space="preserve">
<g id="Layer_1_00000136409238248614794000000004085373936394296725_">
	<path d="M13.2,0C5.9,0,0,5.9,0,13.2s5.9,13.2,13.2,13.2c7.3,0,13.2-5.9,13.2-13.2C26.4,5.9,20.5,0,13.2,0C13.2,0,13.2,0,13.2,0z
		 M4.6,20.3C0.7,15.6,1.3,8.6,6,4.6c4.1-3.5,10.2-3.5,14.3,0L4.6,20.3z M12.9,15l2.2-2.2C14.6,13.8,13.8,14.5,12.9,15z M10.4,17.4
		c1.4,0.2,2.8-0.2,4-0.9l4.8,4.8l2.1-2.1l-4.8-4.8c0.6-1,0.9-2.1,0.9-3.3c0-0.2,0-0.5,0-0.7l4.3-4.3c4,4.7,3.5,11.7-1.2,15.7
		c-4.2,3.6-10.4,3.6-14.6,0L10.4,17.4z M16.6,7.9L15,9.4l-0.3-0.5c-1.2-2-3.8-2.7-5.8-1.5s-2.7,3.8-1.5,5.8c0.4,0.6,0.9,1.1,1.5,1.5
		L9.4,15l-1.5,1.5l-0.3-0.2c-2.9-2-3.6-5.9-1.6-8.8S12,4,14.8,5.9c0.6,0.4,1.2,1,1.6,1.6L16.6,7.9z"/>
</g>
</svg>
