<?xml version="1.0" encoding="utf-8"?>
<!-- Generator: Adobe Illustrator 26.4.1, SVG Export Plug-In . SVG Version: 6.00 Build 0)  -->
<svg version="1.1" id="Layer_1" xmlns="http://www.w3.org/2000/svg" xmlns:xlink="http://www.w3.org/1999/xlink" x="0px" y="0px"
	 viewBox="0 0 26.5 19.9" style="enable-background:new 0 0 26.5 19.9;" xml:space="preserve">
<path d="M11.6,2.5L9.1,0H0v19.9h26.5V2.5H11.6z M8.2,2.2l2.5,2.5h13.6v13H2.2V2.2H8.2z M18.3,14.6c0,1.1-0.9,2-2,2s-2-0.9-2-2v-0.1
	l-3.1-1.8c-0.3,0.3-0.8,0.4-1.2,0.4c-1.1,0-2-0.9-2-2s0.9-2,2-2c0.5,0,0.9,0.2,1.2,0.4l3.1-1.8V7.6c0-1.1,0.9-2,2-2s2,0.9,2,2
	s-0.9,2-2,2c-0.4,0-0.8-0.1-1.1-0.3L12,11.1l3.2,1.8c0.3-0.2,0.7-0.3,1.1-0.3C17.4,12.6,18.3,13.5,18.3,14.6z"/>
</svg>
