<?xml version="1.0" encoding="utf-8"?>
<!-- Generator: Adobe Illustrator 26.4.1, SVG Export Plug-In . SVG Version: 6.00 Build 0)  -->
<svg version="1.1" id="Layer_1" xmlns="http://www.w3.org/2000/svg" xmlns:xlink="http://www.w3.org/1999/xlink" x="0px" y="0px"
	 viewBox="0 0 22.4 28.6" style="enable-background:new 0 0 22.4 28.6;" xml:space="preserve">
<style type="text/css">
	.st0{fill:#231F20;}
</style>
<g id="Layer_1_00000072961446432686860730000009850099658859541403_">
	<path class="st0" d="M11.7,11.7H9.9v1.8l-1.7-1.8H3.5V6h8.1L11.7,11.7z M15.2,10V0H0v23.7h10.4l4.7,4.9h7.4V17L15.2,10z M9.3,17.9
		c0.2-0.2,0.5-0.2,0.7-0.2c0.3,0,0.5,0.1,0.7,0.3l4.5,4.5v-9.4l5,4.9v8.4H16l-6.7-7C9.1,19.1,9,18.9,9,18.6
		C9,18.4,9.1,18.1,9.3,17.9L9.3,17.9z M2.2,2.2H13v15l-0.7-0.7c-0.6-0.6-1.4-1-2.2-1c-0.9,0-1.7,0.3-2.3,0.9c-0.6,0.6-1,1.4-1,2.2
		c0,0.6,0.2,1.3,0.5,1.8H2.2V2.2z M7.6,22.5c-0.3,0-0.5-0.2-0.5-0.5s0.2-0.5,0.5-0.5c0.3,0,0.5,0.2,0.5,0.5S7.9,22.5,7.6,22.5
		C7.6,22.5,7.6,22.5,7.6,22.5"/>
</g>
</svg>
