<?xml version="1.0" encoding="utf-8"?>
<!-- Generator: Adobe Illustrator 26.4.1, SVG Export Plug-In . SVG Version: 6.00 Build 0)  -->
<svg version="1.1" id="Layer_1" xmlns="http://www.w3.org/2000/svg" xmlns:xlink="http://www.w3.org/1999/xlink" x="0px" y="0px"
	 viewBox="0 0 28.6 26.6" style="enable-background:new 0 0 28.6 26.6;" xml:space="preserve">
<style type="text/css">
	.st0{fill:#231F20;}
</style>
<g id="Layer_1_00000012459700805690801640000001517013151228011961_">
	<path class="st0" d="M26.4,15.3c0.1-0.7,0.2-1.3,0.2-2C26.6,6,20.6,0,13.3,0C6,0,0,6,0,13.3c0,7.3,6,13.3,13.3,13.3h0
		c2.7,0,5.4-0.8,7.6-2.4c0.7,0.4,1.6,0.6,2.4,0.6c2.9,0,5.3-2.3,5.3-5.2C28.6,17.9,27.8,16.3,26.4,15.3L26.4,15.3z M12.2,2.2v10.4
		l-9,5.2c-0.7-1.4-1-3-1-4.6C2.2,7.6,6.5,2.8,12.2,2.2z M23.3,16.5c1.7,0,3.1,1.4,3.1,3.1s-1.4,3.1-3.1,3.1s-3.1-1.4-3.1-3.1l0,0
		C20.2,17.8,21.6,16.5,23.3,16.5z M24.3,14.4c-1.7-0.4-3.4,0.1-4.7,1.3l-5.3-3V2.2c5.7,0.6,10,5.3,10,11
		C24.4,13.6,24.4,14,24.3,14.4z M13.3,14.5l5.1,3c-0.3,0.6-0.4,1.3-0.4,2c0,1.2,0.4,2.3,1.1,3.2c-1.7,1.1-3.8,1.7-5.8,1.6
		c-3.6,0-6.9-1.7-9-4.6L13.3,14.5z M21.8,11.6l0.1-0.1l-0.3-0.2c-0.1-0.1-0.2-0.1-0.2,0c-0.1,0-0.1,0.1-0.2,0.1
		c-0.5,0.3-1.2,0.2-1.5-0.3c0.6-0.3,1.1-0.9,1.1-1.6c0,0,0-0.1,0-0.1c0.5,0.1,0.8,0.4,0.9,0.9c0,0.2,0,0.4,0,0.5c0,0,0,0.1,0.1,0.2
		l0.2,0.1l0-0.1c0.3-0.9,0-1.9-0.9-2.4L21,8.5h0v0c0-0.2,0-0.3,0-0.5c0-0.3-0.1-0.6-0.3-0.8c-0.3-0.5-0.8-0.8-1.4-0.9h-0.1v0.3
		c0,0.1,0.1,0.1,0.2,0.1c0.2,0.1,0.3,0.2,0.4,0.3c0.2,0.2,0.4,0.6,0.3,0.9c0,0.1,0,0.2-0.1,0.3c-0.6-0.4-1.5-0.4-2.1,0
		c-0.1-0.2-0.1-0.3-0.1-0.5c0-0.3,0.2-0.5,0.4-0.7c0.1-0.1,0.3-0.2,0.5-0.2c0.1,0,0.1-0.1,0.1-0.2V6.3h-0.1
		c-0.8,0.1-1.4,0.7-1.6,1.4C17.1,7.9,17,8.1,17,8.3c0,0.1,0,0.2,0,0.3h0l-0.2,0.1c-0.9,0.5-1.3,1.5-0.9,2.5v0.1l0.3-0.2
		c0.1,0,0.1-0.1,0.1-0.2c0,0,0,0,0,0c0-0.1,0-0.2,0-0.2c0-0.6,0.4-1.1,0.9-1.1v0.1c0,0.7,0.4,1.4,1.1,1.6c-0.1,0.1-0.2,0.2-0.3,0.3
		c-0.4,0.3-1,0.3-1.4-0.1c0,0-0.1,0-0.2,0l-0.3,0.2l0.1,0.1c0.4,0.5,0.9,0.7,1.5,0.7c0.2,0,0.4,0,0.6-0.1c0.2-0.1,0.4-0.2,0.6-0.3
		l0.1-0.1l0,0c0.1,0.1,0.2,0.1,0.3,0.2c0.4,0.2,0.8,0.3,1.2,0.2C21,12.3,21.4,12,21.8,11.6L21.8,11.6z M19.6,8.8
		c-0.4,0.2-0.8,0.2-1.2,0C18.8,8.5,19.2,8.5,19.6,8.8L19.6,8.8z M19.5,10.4c0-0.1,0.1-0.2,0.1-0.3c0-0.1,0.1-0.1,0.1-0.2l0,0
		c0.1-0.1,0.2-0.2,0.3-0.2l0,0c0,0.4-0.2,0.8-0.6,1C19.4,10.6,19.5,10.5,19.5,10.4z M18.5,10.6c-0.4-0.2-0.6-0.6-0.6-1l0,0
		c0.1,0,0.2,0.1,0.3,0.2c0.1,0,0.1,0.1,0.1,0.1l0.1,0.2C18.5,10.3,18.5,10.4,18.5,10.6L18.5,10.6z M15.1,18.6l1.1-0.3v0.3
		c-0.1,0.5-0.4,0.9-0.9,1.1c-0.2,0.1-0.5,0.1-0.7,0l-0.4,0.4l1.9,1.9l-0.9,0.9l-2-2l-1.9,1.9l-0.9-0.9l1.9-1.9l-0.7-0.7L11.2,20
		L10,18.8l1.5-1.4c0.2-0.2,0.4-0.3,0.6-0.3c0.4,0.1,0.8,0.3,1.1,0.7l0.2,0.3l-0.4,0.1c-0.2,0-0.4,0.1-0.5,0.2l0.8,0.8l0.4-0.4l0,0
		c-0.2-0.7,0.2-1.4,0.9-1.6c0.5-0.1,1,0,1.4,0.5l0.2,0.2L15,18.2L15.1,18.6z M25.3,18.3l-2.4,3.4l-1.8-1.7l0.9-0.9l0.8,0.7l1.6-2.2
		L25.3,18.3z M10.1,12.3H4.5V12c0.1-1.4,1.2-2.5,2.6-2.6C6.2,9.3,5.7,8.5,5.8,7.7c0.1-0.8,0.9-1.4,1.7-1.2s1.4,0.9,1.2,1.7
		C8.6,8.8,8.1,9.3,7.5,9.4c1.4,0.1,2.5,1.2,2.6,2.7l0,0L10.1,12.3z"/>
</g>
</svg>
