<?xml version="1.0" encoding="utf-8"?>
<!-- Generator: Adobe Illustrator 26.4.1, SVG Export Plug-In . SVG Version: 6.00 Build 0)  -->
<svg version="1.1" id="Layer_1" xmlns="http://www.w3.org/2000/svg" xmlns:xlink="http://www.w3.org/1999/xlink" x="0px" y="0px"
	 viewBox="0 0 18.1 26.6" style="enable-background:new 0 0 18.1 26.6;" xml:space="preserve">
<style type="text/css">
	.st0{fill:#231F20;}
</style>
<g id="Layer_1_00000147930732902341131890000007705312863161825455_">
	<path class="st0" d="M14,10c0,2.7-2.2,4.9-4.9,4.9S4.2,12.7,4.2,10s2.2-4.9,4.9-4.9C11.8,5.1,14,7.3,14,10C14,10,14,10,14,10z
		 M6.8,11.8c-0.2-0.4-0.3-0.9-0.3-1.3H4.9c0,0.5,0.2,0.9,0.4,1.3H6.8z M10.7,8.5H9.4v1.3h1.5V9.5C10.9,9.1,10.8,8.8,10.7,8.5z
		 M10.4,7.7c-0.3-0.6-0.6-1.1-1.1-1.6v1.6H10.4z M8.7,6.1c-0.4,0.5-0.7,1-1,1.6h1V6.1z M7.4,8.4C7.3,8.8,7.3,9.1,7.2,9.5
		c0,0.1,0,0.2,0,0.2h1.4V8.4H7.4z M6.6,8.4H5.2C5,8.9,4.9,9.3,4.9,9.8h1.6c0-0.1,0-0.2,0-0.3C6.5,9.1,6.5,8.8,6.6,8.4L6.6,8.4z
		 M7.6,11.8h1v-1.3H7.3C7.3,11,7.4,11.4,7.6,11.8L7.6,11.8z M7.9,12.6c0.2,0.4,0.5,0.8,0.8,1.2v-1.2H7.9z M9.4,13.8
		c0.3-0.4,0.6-0.8,0.9-1.2H9.4V13.8z M10.6,11.8c0.2-0.4,0.3-0.9,0.4-1.3H9.4v1.3H10.6z M11.4,11.8h1.5c0.2-0.4,0.3-0.8,0.4-1.3
		h-1.6C11.6,11,11.5,11.4,11.4,11.8L11.4,11.8z M13.3,9.8c0-0.4-0.1-0.9-0.3-1.3h-1.5c0.1,0.3,0.1,0.7,0.2,1c0,0.1,0,0.2,0,0.3
		L13.3,9.8z M10.2,5.9C10.6,6.4,11,7,11.3,7.6h1.4C12.1,6.7,11.2,6.1,10.2,5.9L10.2,5.9z M5.6,7.6h1.3C7.2,7,7.6,6.4,8,5.9
		C7,6.1,6.1,6.8,5.6,7.6L5.6,7.6z M8.1,14.1c-0.4-0.5-0.7-1-1-1.5H5.7C6.3,13.4,7.1,13.9,8.1,14.1L8.1,14.1z M12.4,12.6H11
		c-0.3,0.5-0.6,1-1,1.5C10.9,14,11.8,13.4,12.4,12.6L12.4,12.6z M0,0v26.6h18.1V0H0z M2.2,24.4V2.2h13.7v22.2H2.2z"/>
</g>
</svg>
