<?xml version="1.0" encoding="utf-8"?>
<!-- Generator: Adobe Illustrator 26.4.1, SVG Export Plug-In . SVG Version: 6.00 Build 0)  -->
<svg version="1.1" id="Layer_1" xmlns="http://www.w3.org/2000/svg" xmlns:xlink="http://www.w3.org/1999/xlink" x="0px" y="0px"
	 viewBox="0 0 29.2 26.2" style="enable-background:new 0 0 29.2 26.2;" xml:space="preserve">
<style type="text/css">
	.st0{fill:#231F20;}
</style>
<g id="Layer_1_00000157987016293853825070000011704295869477857669_">
	<path class="st0" d="M20.7,0v9.1c-0.5-0.1-1-0.2-1.5-0.1h-5.1V6.5c0-0.2,0.1-0.3,0.3-0.3h2.6c1.3,0,2.4-1.1,2.4-2.4V0h-2v3.8
		c0,0.2-0.1,0.3-0.3,0.3c0,0,0,0,0,0h-2.7c-1.3,0-2.4,1.1-2.4,2.4V9H7c-3.9,0-7,3.1-7,7c0,3.9,3.1,7,7,7c2.3,0,4.4-1.1,5.7-2.9h1
		c1.6,2.2,4.4,3.3,7.1,2.7v3.4h8.5V0H20.7z M24.2,16c0,2.7-2.2,4.9-4.9,4.9c-1.7,0-3.3-0.9-4.2-2.4l-0.3-0.5h-3.2l-0.3,0.5
		C10.4,20,8.8,20.9,7,20.9c-2.7,0-4.9-2.2-4.9-4.9S4.3,11,7,11h12.2C22,11,24.2,13.3,24.2,16L24.2,16z M26.2,16c0-2.5-1.3-4.8-3.5-6
		V2.1h4.4v22.1h-4.4V22C24.9,20.8,26.2,18.5,26.2,16L26.2,16z M26.6,2.6V4h-3.2V2.6L26.6,2.6z M23.3,4.9h3.3v1.4h-3.2L23.3,4.9z
		 M23.3,7.2h3.3v1.4h-3.2L23.3,7.2z M25.9,22.6c0,0.6-0.4,1-1,1c-0.6,0-1-0.4-1-1s0.4-1,1-1c0,0,0,0,0,0
		C25.5,21.6,25.9,22.1,25.9,22.6L25.9,22.6z M7.2,15.3h1.7v1.4H7.2v1.7H5.8v-1.7H4v-1.4h1.7v-1.7h1.4L7.2,15.3z M18.1,14.2
		c0-0.6,0.4-1,1-1s1,0.4,1,1s-0.4,1-1,1C18.5,15.2,18.1,14.7,18.1,14.2L18.1,14.2z M20.2,17.7c0,0.6-0.4,1-1,1s-1-0.4-1-1s0.4-1,1-1
		C19.7,16.7,20.2,17.1,20.2,17.7C20.2,17.7,20.2,17.7,20.2,17.7L20.2,17.7z M22.2,16c0,0.6-0.4,1-1,1s-1-0.4-1-1s0.4-1,1-1
		C21.8,14.9,22.2,15.4,22.2,16C22.3,15.9,22.3,15.9,22.2,16L22.2,16z M18.1,16c0,0.6-0.5,1-1,1s-1-0.5-1-1s0.5-1,1-1
		S18.1,15.4,18.1,16z"/>
</g>
</svg>
