<?xml version="1.0" encoding="utf-8"?>
<!-- Generator: Adobe Illustrator 26.4.1, SVG Export Plug-In . SVG Version: 6.00 Build 0)  -->
<svg version="1.1" id="Layer_1" xmlns="http://www.w3.org/2000/svg" xmlns:xlink="http://www.w3.org/1999/xlink" x="0px" y="0px"
	 viewBox="0 0 33 22.7" style="enable-background:new 0 0 33 22.7;" xml:space="preserve">
<path d="M29.3,4.9c-0.7-1.6-2.3-2.5-4.1-2.3C24.2,1,22.5,0,20.6,0c-2.3,0-4.3,1.5-5,3.6c-1.8,0.5-3.1,2-3.4,3.9H7.6
	C3.4,7.5,0,10.9,0,15.1s3.4,7.6,7.6,7.6c2.4,0,4.7-1.2,6.1-3.1h1.2c1.4,2,3.7,3.1,6.1,3.1c4.2,0,7.6-3.4,7.6-7.6
	c0-0.8-0.1-1.6-0.4-2.3H29c2.2,0,4-1.8,4-4C32.9,6.8,31.3,5.1,29.3,4.9z M21,7.5h-6.5c0.2-1,1.1-1.7,2.1-1.9l0.8-0.1l0.2-0.8
	c0.3-1.5,1.6-2.5,3.1-2.5c1.3,0,2.5,0.8,3,2.1l0.4,1.1l1.1-0.5c0.2-0.1,0.4-0.2,0.7-0.2c0.8,0,1.5,0.6,1.6,1.4l0.1,1.2l1.1-0.2
	c0.1,0,0.2,0,0.3,0c1,0,1.8,0.8,1.8,1.8S30,10.7,29,10.7h-1.9C25.6,8.7,23.4,7.5,21,7.5z M26.4,15.1c0,3-2.4,5.4-5.4,5.4
	c-1.9,0-3.6-1-4.6-2.6l-0.3-0.5h-3.5l-0.3,0.5c-1,1.6-2.7,2.6-4.6,2.6c-3,0-5.4-2.4-5.4-5.4s2.4-5.4,5.4-5.4H21
	C24,9.7,26.4,12.2,26.4,15.1z M7.9,14.3h1.9V16H7.9v1.9H6.2V16H4.3v-1.7h1.9v-1.9h1.7V14.3z M19.6,13.2c0-0.7,0.6-1.2,1.2-1.2
	s1.2,0.6,1.2,1.2c0,0.7-0.6,1.2-1.2,1.2S19.6,13.9,19.6,13.2z M22.1,17c0,0.7-0.6,1.2-1.2,1.2s-1.2-0.6-1.2-1.2
	c0-0.7,0.6-1.2,1.2-1.2S22.1,16.3,22.1,17z M24.4,15.1c0,0.7-0.6,1.2-1.2,1.2s-1.3-0.5-1.3-1.2s0.6-1.2,1.2-1.2S24.4,14.4,24.4,15.1
	z M19.9,15.1c0,0.7-0.6,1.2-1.2,1.2s-1.2-0.6-1.2-1.2c0-0.7,0.6-1.2,1.2-1.2S19.9,14.4,19.9,15.1z"/>
</svg>
