<?xml version="1.0" encoding="utf-8"?>
<!-- Generator: Adobe Illustrator 26.4.1, SVG Export Plug-In . SVG Version: 6.00 Build 0)  -->
<svg version="1.1" id="Layer_1" xmlns="http://www.w3.org/2000/svg" xmlns:xlink="http://www.w3.org/1999/xlink" x="0px" y="0px"
	 viewBox="0 0 22.4 28.5" style="enable-background:new 0 0 22.4 28.5;" xml:space="preserve">
<style type="text/css">
	.st0{fill:#231F20;}
</style>
<g id="Layer_1_00000087407720572946912590000001839497734513732003_">
	<path class="st0" d="M10.5,5.6c0-0.4,0.3-0.7,0.6-0.7s0.7,0.3,0.7,0.6c0,0.4-0.3,0.7-0.6,0.7c0,0,0,0,0,0C10.8,6.3,10.5,6,10.5,5.6
		z M3.9,9.9c-0.4,0-0.7-0.2-0.7-0.6c0-0.4,0.2-0.7,0.6-0.7c0.1,0,0.1,0,0.2,0c0.4,0,0.7,0.2,0.7,0.6c0,0.4-0.2,0.7-0.6,0.7
		C4,9.9,4,9.9,3.9,9.9z M12.5,8.1V6.7h-2.3V4.3H8.7v2.4H6.5V4.3H5.1v2.4H2.7v1.4h2.3v2.2H2.7v1.5h2.3v2.4h1.4v-2.4h2.2v2.4h1.4v-2.4
		h2.3v-1.4h-2.3V8.1L12.5,8.1z M8.7,8.1v2.2H6.5V8.1L8.7,8.1z M7.9,13l0.5,0.8H7.7l-0.2-0.3l-0.2,0.3H6.7l0.5-0.8l-0.5-0.8h0.7
		l0.2,0.3l0.1-0.3h0.7L7.9,13z M15.2,10V0H0v23.6h10.4l4.7,4.9h7.4V17L15.2,10z M2.2,2.2H13v15l-0.7-0.7c-0.6-0.6-1.4-1-2.2-1
		c-0.9,0-1.7,0.3-2.3,0.9c-0.6,0.6-1,1.4-1,2.2c0,0.6,0.2,1.3,0.5,1.8H2.2L2.2,2.2z M9.3,17.9c0.2-0.2,0.4-0.3,0.7-0.3
		c0.3,0,0.5,0.1,0.7,0.3l4.5,4.5V13l5,4.9v8.4H16l-6.7-7C9.1,19.1,9,18.8,9,18.6C9,18.3,9.1,18.1,9.3,17.9L9.3,17.9z M7.6,22.4
		c-0.3,0-0.5-0.2-0.5-0.5s0.2-0.5,0.5-0.5c0.3,0,0.5,0.2,0.5,0.5S7.9,22.4,7.6,22.4C7.6,22.4,7.6,22.4,7.6,22.4"/>
</g>
</svg>
