<?xml version="1.0" encoding="utf-8"?>
<!-- Generator: Adobe Illustrator 26.4.1, SVG Export Plug-In . SVG Version: 6.00 Build 0)  -->
<svg version="1.1" id="Layer_1" xmlns="http://www.w3.org/2000/svg" xmlns:xlink="http://www.w3.org/1999/xlink" x="0px" y="0px"
	 viewBox="0 0 26 26.2" style="enable-background:new 0 0 26 26.2;" xml:space="preserve">
<path d="M16.2,10.4c0-0.8-0.4-1.5-0.9-2.1C15,8,14.6,7.8,14.1,7.6c0.7-0.3,1.1-1,1.1-1.8c0-1.1-0.9-2.1-2-2.1s-2.1,0.9-2.1,2
	c0,0.8,0.4,1.5,1.1,1.8c-0.5,0.1-0.9,0.4-1.2,0.7c-0.6,0.5-1,1.2-1,2V13l6.2,0.1V10.4z M13.5,17.1V15h-0.8v2l0,0l-1.6,1.5l0.6,0.6
	l1.3-1.3l1.3,1.3l0.6-0.6L13.5,17.1z M22.5,4c-2.4-2.5-5.7-3.9-9.2-4c-0.1,0-0.2,0-0.3,0C9.7,0,6.5,1.3,4,3.7s-3.9,5.7-4,9.2
	C-0.1,20.1,5.6,26,12.8,26.2H13c7.1,0,12.9-5.8,13-12.8C26.2,9.8,24.9,6.5,22.5,4z M20.2,18.5c-0.2-0.2-0.5-0.4-0.8-0.5
	c0.5-0.3,0.8-0.8,0.8-1.4c0-0.4-0.2-0.8-0.5-1.2c-0.3-0.3-0.7-0.5-1.1-0.5l0,0c-0.9,0-1.6,0.7-1.6,1.6c0,0.6,0.3,1.1,0.8,1.4
	c-0.3,0.1-0.6,0.3-0.8,0.5c-0.5,0.4-0.7,1-0.8,1.6l-0.1,3.3c-1,0.3-2,0.4-3.1,0.4s-2.2-0.2-3.3-0.6l0.1-3.3c0-0.6-0.2-1.2-0.7-1.6
	c-0.2-0.2-0.5-0.4-0.8-0.5c0.5-0.3,0.8-0.8,0.8-1.4c0-0.9-0.7-1.6-1.6-1.7l0,0c-0.4,0-0.8,0.2-1.1,0.5s-0.5,0.7-0.5,1.1
	c0,0.6,0.3,1.1,0.7,1.4c-0.3,0.1-0.6,0.3-0.8,0.5c-0.5,0.4-0.7,1-0.8,1.6c-1.6-2-2.5-4.4-2.4-6.9c0-2.9,1.2-5.5,3.3-7.5
	c2-1.9,4.6-3,7.4-3h0.2c2.9,0,5.5,1.2,7.5,3.3s3.1,4.8,3,7.6c0,2.6-1.1,5.2-2.9,7.1V20C20.9,19.5,20.7,19,20.2,18.5z"/>
</svg>
