<?xml version="1.0" encoding="utf-8"?>
<!-- Generator: Adobe Illustrator 26.4.1, SVG Export Plug-In . SVG Version: 6.00 Build 0)  -->
<svg version="1.1" id="Layer_1" xmlns="http://www.w3.org/2000/svg" xmlns:xlink="http://www.w3.org/1999/xlink" x="0px" y="0px"
	 viewBox="0 0 25.6 26.4" style="enable-background:new 0 0 25.6 26.4;" xml:space="preserve">
<path d="M25.6,22.2l-0.1,4.2h-4.4v-1.7h1.5L19,21v-1.1h1.3l3.5,3.7v-1.3L25.6,22.2z M0,1.3l4.5,4.6l0.2-0.1C5.1,5.6,5.5,5.5,6,5.5
	h0.6L1.2,0L0,1.3z M24,14.9V19h-5.8v2h-11v-2H1.4v-4.1c0-1.8,1-3.4,2.6-4.2c-0.5-0.5-0.7-1.2-0.7-1.9c0-1.6,1.3-2.9,2.9-2.9
	s2.9,1.3,2.9,2.9c0,0.7-0.3,1.4-0.7,1.9c0.5,0.2,0.9,0.6,1.3,0.9c0.3-0.2,0.5-0.3,0.8-0.4c-0.6-0.6-1-1.5-1-2.4
	c0-1.8,1.5-3.3,3.3-3.3s3.3,1.5,3.3,3.3c0,0.9-0.4,1.7-1,2.3c0.3,0.1,0.5,0.3,0.8,0.4c0.4-0.4,0.8-0.7,1.2-0.9
	c-0.5-0.5-0.7-1.2-0.7-1.9c0-1.6,1.3-2.9,2.9-2.9c1.6,0,2.9,1.3,2.9,2.9c0,0.7-0.3,1.4-0.7,1.9C23,11.5,24,13.1,24,14.9z M22,17.1
	v-2.2c0-1.5-1.3-2.8-2.8-2.8c-1,0-1.9,0.5-2.4,1.4l-0.6,1.1l-0.9-0.9c-0.7-0.7-1.6-1.1-2.6-1.1s-1.9,0.4-2.6,1.1l-0.9,1l-0.6-1.1
	c-0.5-0.9-1.4-1.4-2.4-1.4c-1.5,0-2.8,1.3-2.8,2.8v2.2h5.8v2h7.2v-2H22V17.1z M20.2,8.8c0-0.5-0.4-0.9-0.9-0.9s-1,0.4-1,0.9
	s0.4,0.9,1,0.9C19.7,9.8,20.2,9.3,20.2,8.8z M7.1,8.8c0-0.5-0.4-0.9-0.9-0.9s-1,0.4-1,0.9s0.4,0.9,0.9,0.9S7.1,9.3,7.1,8.8z
	 M12.7,10.2c0.7,0,1.4-0.6,1.4-1.4c0-0.7-0.6-1.4-1.4-1.4S11.3,8,11.3,8.8S11.9,10.2,12.7,10.2z"/>
</svg>
