<?xml version="1.0" encoding="utf-8"?>
<!-- Generator: Adobe Illustrator 26.4.1, SVG Export Plug-In . SVG Version: 6.00 Build 0)  -->
<svg version="1.1" id="Layer_1" xmlns="http://www.w3.org/2000/svg" xmlns:xlink="http://www.w3.org/1999/xlink" x="0px" y="0px"
	 viewBox="0 0 24.8 27.8" style="enable-background:new 0 0 24.8 27.8;" xml:space="preserve">
<path d="M24.8,4.9v20.6H12.9v2.3H0V10.9h4.9V0H20L24.8,4.9z M3,15.8h6.9v-1.7H3C3,14.1,3,15.8,3,15.8z M8.8,17.6v1.2h1.1v-1.2H8.8z
	 M4.1,23.4H3v1.2h1.1V23.4z M4.1,20.5H3v1.2h1.1V20.5z M4.1,17.6H3v1.2h1.1V17.6z M7,23.4H5.9v1.2H7V23.4z M7,20.5H5.9v1.2H7V20.5z
	 M7,17.6H5.9v1.2H7V17.6z M10,20.6H8.8v4H10V20.6z M18.7,6.4V2.9H7.4v8l5.5,0.1v11.7l9.3-0.1V6.4H18.7z"/>
</svg>
