<?xml version="1.0" encoding="utf-8"?>
<!-- Generator: Adobe Illustrator 26.4.1, SVG Export Plug-In . SVG Version: 6.00 Build 0)  -->
<svg version="1.1" id="Layer_1" xmlns="http://www.w3.org/2000/svg" xmlns:xlink="http://www.w3.org/1999/xlink" x="0px" y="0px"
	 viewBox="0 0 27.9 20.1" style="enable-background:new 0 0 27.9 20.1;" xml:space="preserve">
<style type="text/css">
	.st0{fill:#231F20;}
</style>
<g id="Layer_1_00000047046073108519488580000011931036795424696724_">
	<path class="st0" d="M3,11.1H0V1.3l0,0C0.1,0.4,0.9-0.1,1.7,0C2.4,0.1,2.9,0.6,3,1.3l0,0V11.1z M1.2,20v-8.2H3V20H1.2z M25.1,20.1
		V7.8h1.8v12.4H25.1z M27.1,1.1h0.7v4.1l0,0c0,1.1-0.9,2-2,2s-2-0.9-2-2l0,0V1h0.7v3.9H25V1h0.7v3.9h0.4V1h0.7v3.9h0.4L27.1,1.1z
		 M14,0.1C8.7,0.2,4.4,4.6,4.5,10c0.1,5.4,4.5,9.6,9.8,9.5c5.3-0.1,9.5-4.4,9.5-9.7C23.8,4.4,19.4,0.1,14,0.1z M21.6,9.8
		c0.1,4.2-3.2,7.6-7.4,7.7s-7.6-3.2-7.7-7.4c-0.1-4.2,3.2-7.6,7.4-7.7c0,0,0.1,0,0.1,0C18.2,2.4,21.5,5.7,21.6,9.8L21.6,9.8z
		 M14,4.5c-2.9,0-5.3,2.5-5.3,5.4s2.5,5.3,5.4,5.3c2.9,0,5.3-2.4,5.3-5.3C19.4,6.9,17,4.5,14,4.5L14,4.5z M17.4,9.8
		c0,1.9-1.4,3.4-3.3,3.4s-3.4-1.4-3.4-3.3s1.4-3.4,3.3-3.4c0,0,0,0,0.1,0C15.9,6.5,17.4,8,17.4,9.8L17.4,9.8z"/>
</g>
</svg>
