<?xml version="1.0" encoding="utf-8"?>
<!-- Generator: Adobe Illustrator 26.4.1, SVG Export Plug-In . SVG Version: 6.00 Build 0)  -->
<svg version="1.1" id="Layer_1" xmlns="http://www.w3.org/2000/svg" xmlns:xlink="http://www.w3.org/1999/xlink" x="0px" y="0px"
	 viewBox="0 0 31.6 30" style="enable-background:new 0 0 31.6 30;" xml:space="preserve">
<path d="M11.3,15.5l0.4,4.7h-1.1l-0.2-2.4l-0.7,1.6H8.8l-0.7-1.7l-0.2,2.4H6.8l0.4-4.7h1l0.9,2.3c0,0.1,0,0.1,0.1,0.2
	c0-0.1,0-0.1,0.1-0.2l0.9-2.3h1.1V15.5z M14.7,15.5l1.7,4.7h-1.2l-0.4-1.1h-1.3l-0.4,1.1h-1.2l1.7-4.7
	C13.6,15.5,14.7,15.5,14.7,15.5z M14.1,17.2C14.1,17.1,14.1,17.1,14.1,17.2C14.1,17.1,14.1,17.1,14.1,17.2l-0.4,0.9h0.7L14.1,17.2z
	 M19.9,18.6l-0.1,0.2c0,0-0.5,0.5-1.1,0.5c-0.9,0-1.3-0.7-1.3-1.4c0-0.6,0.4-1.3,1.3-1.3c0.6,0,1.1,0.4,1.1,0.4l0.2,0.1l0.6-0.9
	l-0.1-0.1c0,0-0.6-0.7-1.7-0.7c-1.4,0-2.4,1-2.4,2.4s1,2.5,2.4,2.5c1.2,0,1.8-0.7,1.9-0.8l0.1-0.1L19.9,18.6z M0,30h27.1v-2.2H0V30z
	 M31.6,7.8c0,4-3,7.3-6.9,7.7v10.3H2.5V10.1h13.9C16.2,9.4,16,8.6,16,7.8C16,3.5,19.5,0,23.8,0C28.1,0,31.6,3.5,31.6,7.8z M23.8,2.2
	c-3.1,0-5.6,2.5-5.6,5.6s2.5,5.6,5.6,5.6c3.1,0,5.6-2.5,5.6-5.6S26.9,2.2,23.8,2.2z M17.5,12.3H4.7v11.3h17.8v-8.2
	C20.5,15.2,18.7,14,17.5,12.3z M26,6.7v3.7h-4.4V6.8H22V6.2c0-1,0.8-1.9,1.9-1.9c0.5,0,1,0.2,1.3,0.5c0.4,0.3,0.5,0.8,0.5,1.3v0.6
	H26z M22.9,6.7h1.8V6.1c0-0.2-0.1-0.5-0.3-0.6c-0.2-0.2-0.4-0.2-0.6-0.3c-0.5,0-0.9,0.4-0.9,0.9V6.7z"/>
</svg>
