<?xml version="1.0" encoding="utf-8"?>
<!-- Generator: Adobe Illustrator 26.4.1, SVG Export Plug-In . SVG Version: 6.00 Build 0)  -->
<svg version="1.1" id="Layer_1" xmlns="http://www.w3.org/2000/svg" xmlns:xlink="http://www.w3.org/1999/xlink" x="0px" y="0px"
	 viewBox="0 0 29.8 22" style="enable-background:new 0 0 29.8 22;" xml:space="preserve">
<path d="M2.6,0v17.5h24.7V0H2.6z M5,15.2V2.4h20v12.8H5z M29.8,19.6V22H0v-2.4C0,19.6,29.8,19.6,29.8,19.6z M12.3,6.2l0.4,5h-1.2
	l-0.2-2.7l-0.8,1.9h-1L8.7,8.5l-0.2,2.7H7.3L7.7,6h1.2l1,2.5c0,0.1,0.1,0.2,0.1,0.2c0-0.1,0.1-0.2,0.1-0.2l1-2.5h1.2V6.2z M14.9,6
	l-1.8,5.2h1.2l0.4-1.2h1.4l0.4,1.2h1.3L16,6C16,6,14.9,6,14.9,6z M15.9,8.9h-0.8l0.4-1.1V7.7v0.1L15.9,8.9z M22.5,10.4l-0.1,0.1
	c0,0-0.7,0.8-2,0.8c-1.6,0-2.7-1.1-2.7-2.7c0-1.5,1.1-2.7,2.7-2.7c1.2,0,1.9,0.7,1.9,0.7l0.1,0.1l-0.6,0.9l-0.2-0.1
	c0,0-0.5-0.5-1.2-0.5c-1,0-1.5,0.8-1.5,1.5c0,0.8,0.5,1.6,1.5,1.6c0.8,0,1.3-0.6,1.3-0.6l0.1-0.2L22.5,10.4z"/>
</svg>
