<?xml version="1.0" encoding="utf-8"?>
<!-- Generator: Adobe Illustrator 26.4.1, SVG Export Plug-In . SVG Version: 6.00 Build 0)  -->
<svg version="1.1" id="Layer_1" xmlns="http://www.w3.org/2000/svg" xmlns:xlink="http://www.w3.org/1999/xlink" x="0px" y="0px"
	 viewBox="0 0 29.8 22" style="enable-background:new 0 0 29.8 22;" xml:space="preserve">
<path d="M2.6,0v17.5h24.7V0H2.6z M5,15.2V2.4h20v12.8H5z M29.8,19.6V22H0v-2.4C0,19.6,29.8,19.6,29.8,19.6z M17.4,7.9V7.1
	c0-0.6-0.3-1.3-0.7-1.7c-0.5-0.5-1.1-0.7-1.7-0.7c-1.3,0-2.4,1.1-2.4,2.4v0.8h-0.5v4.7h5.8V7.9H17.4z M13.8,7c0-0.6,0.5-1.1,1.1-1.1
	c0.3,0,0.6,0.1,0.8,0.3C15.9,6.4,16,6.7,16,7v0.8h-2.3V7H13.8z"/>
</svg>
