<?xml version="1.0" encoding="utf-8"?>
<!-- Generator: Adobe Illustrator 26.4.1, SVG Export Plug-In . SVG Version: 6.00 Build 0)  -->
<svg version="1.1" id="Layer_1" xmlns="http://www.w3.org/2000/svg" xmlns:xlink="http://www.w3.org/1999/xlink" x="0px" y="0px"
	 viewBox="0 0 26.1 25.8" style="enable-background:new 0 0 26.1 25.8;" xml:space="preserve">
<style type="text/css">
	.st0{fill:#231F20;}
</style>
<g id="Layer_1_00000138540221147895134380000001289039917620719507_">
	<path class="st0" d="M7.4,12.5h2.8v2.7H7.4V12.5z M7.4,19.3h2.8v-2.7H7.4V19.3z M3.2,15.2H6v-2.7H3.2V15.2z M3.2,19.3H6v-2.7H3.2
		V19.3z M7.4,11.1h2.8V8.4H7.4V11.1z M11.6,11.1h2.8V8.4h-2.8L11.6,11.1z M15.8,8.4v2.7h2.8V8.4L15.8,8.4z M11.6,15.2h2.8v-2.7h-2.8
		V15.2z M21.2,20l0,0.1c-0.4,0.9-1.4,1.4-2.3,1c-0.5-0.2-0.8-0.5-1-1V20l-1,0.3l0,0.1c0.4,1.1,1.5,1.8,2.7,1.8l0,0
		c1.2,0,2.2-0.7,2.6-1.8v-0.1L21.2,20z M21.2,19.2c0.4,0,0.7-0.3,0.7-0.7c0-0.4-0.3-0.7-0.7-0.7c-0.4,0-0.7,0.3-0.7,0.7
		C20.5,18.9,20.8,19.2,21.2,19.2C21.2,19.2,21.2,19.2,21.2,19.2z M18,19.2c0.4,0,0.7-0.3,0.7-0.7c0-0.4-0.3-0.7-0.7-0.7
		c-0.4,0-0.7,0.3-0.7,0.7C17.3,18.9,17.6,19.2,18,19.2C18,19.2,18,19.2,18,19.2z M26.1,19.5c0,3.6-2.9,6.4-6.5,6.4
		c-2.1,0-4.1-1.1-5.3-2.8H0V2.6h2.9V0h2.8v2.6h10.9V0h2.8v2.6h2.4v10.9C24.4,14.3,26.1,16.8,26.1,19.5L26.1,19.5z M15.8,14.5v-2h2.8
		v0.8c0.3-0.1,0.7-0.1,1-0.1V4.6H2v16.3h11.4c-0.1-0.5-0.2-1-0.2-1.5c0-0.1,0-0.1,0-0.2h-1.7v-2.7H14C14.4,15.7,15.1,15,15.8,14.5
		L15.8,14.5z M24.1,19.5c0.1-2.4-1.9-4.4-4.3-4.5s-4.4,1.9-4.5,4.3s1.9,4.4,4.3,4.5c0,0,0.1,0,0.1,0C22.1,23.8,24,21.9,24.1,19.5
		L24.1,19.5z"/>
</g>
</svg>
