<?xml version="1.0" encoding="utf-8"?>
<!-- Generator: Adobe Illustrator 26.4.1, SVG Export Plug-In . SVG Version: 6.00 Build 0)  -->
<svg version="1.1" id="Layer_1" xmlns="http://www.w3.org/2000/svg" xmlns:xlink="http://www.w3.org/1999/xlink" x="0px" y="0px"
	 viewBox="0 0 26.6 26.6" style="enable-background:new 0 0 26.6 26.6;" xml:space="preserve">
<path d="M13.3,0C5.9,0,0,6,0,13.3s6,13.3,13.3,13.3s13.3-6,13.3-13.3S20.7,0,13.3,0z M13.3,24.3c-6.1,0-11-5-11-11c0-6.1,5-11,11-11
	c6.1,0,11,5,11,11C24.3,19.4,19.4,24.3,13.3,24.3z M17.4,10.4l-1.2-1.2L18.4,7l1.2,1.2L17.4,10.4z M9.2,10.4L7,8.2L8.2,7l2.2,2.2
	L9.2,10.4z M13.3,9.2c-2.3,0-4.1,1.9-4.1,4.1s1.9,4.1,4.1,4.1c2.3,0,4.1-1.9,4.1-4.1S15.6,9.2,13.3,9.2z M13.3,15.7
	c-1.3,0-2.4-1.1-2.4-2.4s1.1-2.4,2.4-2.4s2.4,1.1,2.4,2.4S14.6,15.7,13.3,15.7z M14.1,8.3h-1.7V5.1h1.7V8.3z M17.4,16.2l2.2,2.2
	l-1.1,1.3l-2.2-2.2L17.4,16.2z M21.4,12.5v1.7h-3.2v-1.7H21.4z M12.5,18.3h1.7v3.2h-1.7V18.3z M9.2,16.2l1.2,1.2l-2.3,2.3l-1.2-1.2
	L9.2,16.2z M8.3,14.1H5.1v-1.7h3.2V14.1z"/>
</svg>
