<?xml version="1.0" encoding="utf-8"?>
<!-- Generator: Adobe Illustrator 26.4.1, SVG Export Plug-In . SVG Version: 6.00 Build 0)  -->
<svg version="1.1" id="Layer_1" xmlns="http://www.w3.org/2000/svg" xmlns:xlink="http://www.w3.org/1999/xlink" x="0px" y="0px"
	 viewBox="0 0 26.5 26.5" style="enable-background:new 0 0 26.5 26.5;" xml:space="preserve">
<style type="text/css">
	.st0{fill:#231F20;}
</style>
<g id="Layer_1_00000112631099731337428840000014391484243854822037_">
	<path class="st0" d="M13.2,0C5.9,0,0,5.9,0,13.2s5.9,13.2,13.2,13.2s13.2-5.9,13.2-13.2C26.5,5.9,20.5,0,13.2,0z M10,23.6v-8
		c-0.1-1.7-1.6-3.1-3.3-3c-1.6,0.1-2.9,1.4-3,3v2.9c-2.9-5.2-1-11.9,4.2-14.8s11.9-1,14.8,4.2c1.5,2.7,1.8,6,0.7,8.9v-1.3
		c-0.1-1.7-1.6-3.1-3.3-3c-1.6,0.1-2.9,1.4-3,3v7.8C14.9,24.2,12.4,24.3,10,23.6L10,23.6z M8.9,10.1c0,1.1-0.9,2-2,2s-2-0.9-2-2
		s0.9-2,2-2S8.9,9,8.9,10.1z M18.2,10.1c0-1.1,0.9-2,2-2s2,0.9,2,2s-0.9,2-2,2S18.2,11.2,18.2,10.1z M16,12.4v1.8h-1.9V16h-1.8v-1.9
		h-1.9v-1.8h1.9v-1.9h1.8v1.9L16,12.4z"/>
</g>
</svg>
