<?xml version="1.0" encoding="utf-8"?>
<!-- Generator: Adobe Illustrator 26.4.1, SVG Export Plug-In . SVG Version: 6.00 Build 0)  -->
<svg version="1.1" id="Layer_1" xmlns="http://www.w3.org/2000/svg" xmlns:xlink="http://www.w3.org/1999/xlink" x="0px" y="0px"
	 viewBox="0 0 25.3 14.9" style="enable-background:new 0 0 25.3 14.9;" xml:space="preserve">
<style type="text/css">
	.st0{fill:#231F20;}
</style>
<g id="Layer_1_00000016786412443876690910000010318500913717376432_">
	<path class="st0" d="M12.9,10.5h4.5V3.2h-4.5V10.5z M15.9,4.7V9h-1.4V4.7H15.9z M18,3.1v7.4h4.5V3.2L18,3.1z M19.5,9V4.7h1.4V9
		H19.5z M2.9,10.5h4.5V3.2H2.9V10.5z M5.8,4.7V9H4.5V4.7H5.8z M7.9,10.5h4.5V3.2H7.9L7.9,10.5z M10.8,4.7V9H9.5V4.7H10.8z M0,0v13.7
		h2.7v1.2h6.1v-1.2h0.9v1.2h6.1v-1.2h0.9v1.2h6.1v-1.2h2.6V0H0z M23.3,2.1v9.6H2.1V2.1H23.3z"/>
</g>
</svg>
