<?xml version="1.0" encoding="utf-8"?>
<!-- Generator: Adobe Illustrator 26.4.1, SVG Export Plug-In . SVG Version: 6.00 Build 0)  -->
<svg version="1.1" id="Layer_1" xmlns="http://www.w3.org/2000/svg" xmlns:xlink="http://www.w3.org/1999/xlink" x="0px" y="0px"
	 viewBox="0 0 26.7 26.7" style="enable-background:new 0 0 26.7 26.7;" xml:space="preserve">
<style type="text/css">
	.st0{fill:#231F20;}
</style>
<g id="Layer_1_00000143604337685323897580000013477426209493173686_">
	<path class="st0" d="M13.3,0C6,0,0,6,0,13.3s6,13.3,13.3,13.3s13.3-6,13.3-13.3l0,0C26.7,6,20.7,0,13.3,0z M13.3,24.4
		c-6.1,0-11-4.9-11-11s4.9-11,11-11s11,4.9,11,11v0C24.3,19.5,19.4,24.4,13.3,24.4z M16.8,12l-3.7,9.2l-2-0.8l2.5-6.2H10l2.8-8.6
		l2.1,0.7L13,12L16.8,12z"/>
</g>
</svg>
