<?xml version="1.0" encoding="utf-8"?>
<!-- Generator: Adobe Illustrator 26.4.1, SVG Export Plug-In . SVG Version: 6.00 Build 0)  -->
<svg version="1.1" id="Layer_1" xmlns="http://www.w3.org/2000/svg" xmlns:xlink="http://www.w3.org/1999/xlink" x="0px" y="0px"
	 viewBox="0 0 20 26.2" style="enable-background:new 0 0 20 26.2;" xml:space="preserve">
<style type="text/css">
	.st0{fill:#231F20;}
</style>
<g id="Layer_1_00000037662874678732360590000000998851369002119357_">
	<path class="st0" d="M6.4,9.3c0-1.5,1.2-2.8,2.8-2.8c1.5,0,2.8,1.2,2.8,2.8c0,1.5-1.2,2.8-2.8,2.8c0,0,0,0,0,0
		C7.6,12.1,6.4,10.8,6.4,9.3z M12,13.9c-1.6-1.4-4-1.4-5.6,0c-0.8,0.7-1.2,1.6-1.3,2.7v3.1h8v-3.1C13.1,15.5,12.7,14.5,12,13.9
		L12,13.9z M20,12v2.2h-1.8v12H0V0h18.2v12L20,12z M13.1,14.2V12h3V2.2H2.2V24H16v-9.8H13.1z"/>
</g>
</svg>
