<?xml version="1.0" encoding="utf-8"?>
<!-- Generator: Adobe Illustrator 26.4.1, SVG Export Plug-In . SVG Version: 6.00 Build 0)  -->
<svg version="1.1" id="Layer_1" xmlns="http://www.w3.org/2000/svg" xmlns:xlink="http://www.w3.org/1999/xlink" x="0px" y="0px"
	 viewBox="0 0 30.5 21.9" style="enable-background:new 0 0 30.5 21.9;" xml:space="preserve">
<style type="text/css">
	.st0{fill:#231F20;}
</style>
<g id="Layer_1_00000045619137653495872520000001370000090593563323_">
	<path class="st0" d="M8,6.6h3.1v3.9h-0.7v-0.3H8.6v0.3H8V6.6z M10.4,7.2H8.6V8h1.7V7.2z M8.6,9.6h1.7V8.7H8.6V9.6z M15.8,7.8h-1.2
		c0.3,0.6,0.9,1.2,1.5,1.5c-0.2,0.2-0.4,0.4-0.5,0.6c-0.2-0.2-0.5-0.4-0.7-0.6v0.5h-0.7v0.7h-0.7V9.8h-0.7V9.3
		c-0.2,0.2-0.4,0.4-0.6,0.5c-0.1-0.2-0.3-0.4-0.5-0.5c0.6-0.4,1.1-0.9,1.5-1.6h-1.3V7.1h1.6V6.3h0.8c0,0,0,0.1-0.1,0.1v0.7h1.6V7.8z
		 M13.4,8.4c-0.2,0.3-0.3,0.5-0.5,0.8h0.5V8.4z M14.1,9.1h0.5c-0.2-0.2-0.4-0.5-0.5-0.8V9.1z M17.8,7v0.5h-1.7V7.1L17.8,7z M17.8,9
		v1.4h-0.8v0.2h-0.6V9H17.8z M17.8,7.7v0.5h-1.4V7.7H17.8z M16.4,8.8V8.3h1.3v0.5H16.4z M17.8,6.4v0.5h-1.4V6.4H17.8z M17.2,9.5H17
		v0.4h0.3V9.5z M20.1,8.1h0.4v0.6h-2.7V8.1h0.5c0-0.1,0.1-0.2,0.1-0.3H18V7.2h0.4V6.9h-0.5V6.4h2.3v0.5h-1.1v0.2h1L20.1,8.1z
		 M18.1,10.6V8.8h2v1.8h-0.6v-0.1h-0.7v0.1H18.1z M19.5,9.4h-0.7v0.4h0.8L19.5,9.4z M19.4,7.8H19L19,8.1h0.5V7.8z M25.8,14.9
		l-4.7-0.8v7.1l4.6,0.8l0,0l4.7-0.8V14L25.8,14.9z M29.3,15.5v4.6l-2.8,0.4V16L29.3,15.5z M22.4,20.1v-4.6l2.8,0.5v4.5L22.4,20.1z
		 M0,20.8h20.2v-2.5H0L0,20.8z M3.4,0v16.7h16.8v-2.2H5.6V2.2H24v11.6l1.2,0.2l1-0.2V0L3.4,0z"/>
</g>
</svg>
