<?xml version="1.0" encoding="utf-8"?>
<!-- Generator: Adobe Illustrator 26.4.1, SVG Export Plug-In . SVG Version: 6.00 Build 0)  -->
<svg version="1.1" id="Layer_1" xmlns="http://www.w3.org/2000/svg" xmlns:xlink="http://www.w3.org/1999/xlink" x="0px" y="0px"
	 viewBox="0 0 29.6 23.6" style="enable-background:new 0 0 29.6 23.6;" xml:space="preserve">
<path d="M26.2,14.1V0H3.4v16.7h16.8v-2.2H5.6V2.1H24V14 M8.3,10.3H7.2V6.5h1.1V10.3z M15.4,6.4h-1.1v3.8h1.1V6.4z M22.4,6.4h-1.1
	v3.8h1.1V6.4z M13.6,8.4c0-1.2-1-2.3-2.3-2.3S9,7.1,9,8.4c0,1.2,1,2.3,2.3,2.3C12.6,10.6,13.6,9.6,13.6,8.4z M12.5,8.4
	c0,0.6-0.5,1.2-1.2,1.2c-0.6,0-1.2-0.5-1.2-1.2c0-0.6,0.5-1.2,1.2-1.2S12.5,7.7,12.5,8.4z M20.6,8.4c0-1.2-1-2.3-2.3-2.3
	c-1.2,0-2.3,1-2.3,2.3c0,1.2,1,2.3,2.3,2.3C19.6,10.6,20.6,9.6,20.6,8.4z M19.5,8.4c0,0.6-0.5,1.2-1.2,1.2c-0.6,0-1.2-0.5-1.2-1.2
	c0-0.6,0.5-1.2,1.2-1.2S19.5,7.7,19.5,8.4z M19.5,20.7H0v-2.5h19.8C19.1,19.6,19.5,20.7,19.5,20.7z M26.4,18.2h3.2v2.5h-2.9
	C26.7,20.7,27.1,19.6,26.4,18.2z M26.8,19.9L26.8,19.9c0-0.1,0-0.1,0-0.2c0-0.7-0.3-1.3-0.6-1.9l0.4-0.4l0.3,0.3l0.7-0.7l-1.4-1.3
	l-0.7,0.7l0.3,0.3L25.5,17c-0.5-0.4-1.1-0.7-1.8-0.8v-0.5h0.7v-1H22v1h0.7v0.5c-1.8,0.3-3.2,1.8-3.2,3.7c0,2,1.7,3.7,3.7,3.7
	c1.8,0,3.2-1.2,3.6-2.9c0-0.1,0-0.1,0-0.2C26.8,20.3,26.8,20.1,26.8,19.9z M23.1,22.6c-1.5,0-2.7-1.2-2.7-2.7s1.2-2.7,2.7-2.7
	s2.7,1.2,2.7,2.7S24.6,22.6,23.1,22.6z M22.6,17.9h1v2.2h-1V17.9z"/>
</svg>
