<?xml version="1.0" encoding="utf-8"?>
<!-- Generator: Adobe Illustrator 26.4.1, SVG Export Plug-In . SVG Version: 6.00 Build 0)  -->
<svg version="1.1" id="Layer_1" xmlns="http://www.w3.org/2000/svg" xmlns:xlink="http://www.w3.org/1999/xlink" x="0px" y="0px"
	 viewBox="0 0 27.9 17.2" style="enable-background:new 0 0 27.9 17.2;" xml:space="preserve">
<g id="Layer_1_00000052092576597884232690000011393998510047686544_">
	<path d="M17.2,0c-2.9-0.3-5.7,1.1-7.1,3.7H9.8H9.7H8.6l0,0C7.5,3.9,6.5,4.3,5.7,5.1C5.1,5.6,4.7,6.3,4.5,7C3.3,7.1,2.2,7.7,1.4,8.5
		C0.5,9.4,0,10.7,0,12c0,2.8,2.3,5.2,5.1,5.2c0.1,0,0.2,0,0.2,0h15.6c2,0.1,3.9-0.6,5.3-1.9c1.1-1.2,1.8-2.7,1.7-4.3
		c0.1-2.9-2-5.5-4.9-6c-0.6-1.9-2-3.4-3.8-4.2C18.8,0.3,18.1,0.1,17.2,0z M25.8,10.8c0,1-0.4,2-1.1,2.8c-1,0.9-2.4,1.4-3.8,1.4h-1.5
		V3.1c1,0.7,1.6,1.8,1.8,2.9l0.2,0.9h0.9c2,0.1,3.6,1.8,3.5,3.8V10.8L25.8,10.8z M10.8,5.9L11.4,6l0.4-0.8c0.9-2.2,3.1-3.5,5.5-3.1
		v12.8h-6.4L10.8,5.9z M8.6,14.9H5.4c-1.7,0.1-3.1-1.2-3.2-2.8c0-0.1,0-0.1,0-0.2c0-0.7,0.3-1.4,0.8-1.9c0.7-0.6,1.6-0.9,2.5-0.9
		h1.1V8c0.1-0.5,0.3-1,0.7-1.4s0.9-0.7,1.4-0.8v9.1H8.6z"/>
</g>
</svg>
