<?xml version="1.0" encoding="utf-8"?>
<!-- Generator: Adobe Illustrator 26.4.1, SVG Export Plug-In . SVG Version: 6.00 Build 0)  -->
<svg version="1.1" id="Layer_1" xmlns="http://www.w3.org/2000/svg" xmlns:xlink="http://www.w3.org/1999/xlink" x="0px" y="0px"
	 viewBox="0 0 29.3 16.2" style="enable-background:new 0 0 29.3 16.2;" xml:space="preserve">
<style type="text/css">
	.st0{fill:#231F20;}
</style>
<g id="Layer_1_00000145035786733859815430000002660100127531095184_">
	<path class="st0" d="M29.3,7l-3.9-2l-1.8-5H0v12.9h3.2c0,0,0,0.1,0,0.1c0.1,1.8,1.5,3.2,3.3,3.2c1.8,0,3.2-1.4,3.2-3.2
		c0,0,0-0.1,0-0.1h9.9c0,0,0,0.1,0,0.1c0,1.8,1.4,3.2,3.2,3.2c1.8,0,3.2-1.4,3.3-3.2c0,0,0-0.1,0-0.1h3.2L29.3,7z M18.6,1.7h3.7
		l1,3.1h-4.7V1.7z M6.5,14.3c-0.7,0-1.3-0.6-1.4-1.3c0-0.8,0.6-1.4,1.3-1.4c0,0,0,0,0.1,0c0.8,0,1.3,0.7,1.3,1.4c0,0,0,0,0,0
		C7.8,13.7,7.2,14.3,6.5,14.3C6.5,14.3,6.5,14.3,6.5,14.3z M16.8,11.1H9.1c-0.6-0.9-1.6-1.4-2.6-1.4c-1.1,0-2,0.5-2.7,1.4h-2V1.7h15
		L16.8,11.1z M22.8,14.3c-0.8,0-1.4-0.6-1.4-1.4c0-0.8,0.6-1.4,1.4-1.4c0.8,0,1.4,0.6,1.4,1.4c0,0,0,0,0,0
		C24.2,13.7,23.6,14.3,22.8,14.3L22.8,14.3z M27.5,11.1h-2c-0.6-0.9-1.6-1.4-2.7-1.4c-1.1,0-2.1,0.5-2.7,1.4h-1.5V6.6h6l2.8,1.5
		L27.5,11.1z"/>
</g>
</svg>
