<?xml version="1.0" encoding="utf-8"?>
<!-- Generator: Adobe Illustrator 26.4.1, SVG Export Plug-In . SVG Version: 6.00 Build 0)  -->
<svg version="1.1" id="Layer_1" xmlns="http://www.w3.org/2000/svg" xmlns:xlink="http://www.w3.org/1999/xlink" x="0px" y="0px"
	 viewBox="0 0 26.8 26.8" style="enable-background:new 0 0 26.8 26.8;" xml:space="preserve">
<style type="text/css">
	.st0{fill:#231F20;}
</style>
<g id="Layer_1_00000070077844596268467710000014282975023883004570_">
	<polygon class="st0" points="11.7,15.1 8.3,11.7 8.3,11.6 6.8,13.3 11.6,18.4 11.7,18.5 19.9,10 20,10 18.5,8.3 	"/>
	<path class="st0" d="M13.4,0C6,0,0,6,0,13.4c0,7.4,6,13.4,13.4,13.4c7.4,0,13.4-6,13.4-13.4C26.8,6,20.8,0,13.4,0z M13.4,24.5
		c-6.1,0-11.1-5-11.1-11.1s5-11.1,11.1-11.1s11.1,5,11.1,11.1v0C24.5,19.5,19.5,24.5,13.4,24.5z"/>
</g>
</svg>
