<?xml version="1.0" encoding="utf-8"?>
<!-- Generator: Adobe Illustrator 26.4.1, SVG Export Plug-In . SVG Version: 6.00 Build 0)  -->
<svg version="1.1" id="Layer_1" xmlns="http://www.w3.org/2000/svg" xmlns:xlink="http://www.w3.org/1999/xlink" x="0px" y="0px"
	 viewBox="0 0 25.5 28.8" style="enable-background:new 0 0 25.5 28.8;" xml:space="preserve">
<style type="text/css">
	.st0{fill:#231F20;}
</style>
<g id="Layer_1_00000075158780647615676650000011107629454005739431_">
	<path class="st0" d="M25.5,16.1c0,7-5.7,12.8-12.7,12.8C5.7,28.9,0,23.2,0,16.1C0,10.4,3.8,5.3,9.3,3.8V3.7L8.4,3.1l1.3-1.7
		l3.9,2.8l-2.7,3.9L9,6.8l0.7-0.9c-5.6,1.7-8.8,7.7-7.1,13.3s7.7,8.8,13.3,7.1c5.6-1.7,8.8-7.7,7.1-13.3c-0.3-1.1-0.9-2.2-1.5-3.1
		V6.7C24.1,9.1,25.5,12.5,25.5,16.1z M19.9,19.7c0,0.5-0.1,1.1-0.3,1.6l-0.1,0.2L18.8,21v-0.1c0.1-0.2,0.1-0.5,0.1-0.8
		c0-1.3-1-2.4-2.2-2.6c0,0.1,0,0.2,0,0.2c0,1.6-1,3.1-2.5,3.7c0.5,0.7,1.3,1.2,2.2,1.2c0.7,0,1.4-0.3,1.9-0.8l0.1-0.1l0.7,0.4
		l-0.1,0.2c-0.8,1-2,1.5-3.2,1.5c-1.1,0-2.1-0.4-2.9-1.2c-1.6,1.6-4.2,1.7-5.9,0.1c-0.1-0.1-0.2-0.2-0.3-0.3l-0.1-0.1l0.7-0.5
		l0.1,0.1c0.9,1.1,2.6,1.2,3.6,0.2c0.2-0.2,0.4-0.4,0.5-0.6c-1.6-0.6-2.7-2.1-2.7-3.8v-0.1c-1.4,0.3-2.3,1.6-2,3c0,0.1,0,0.1,0,0.2
		V21L6,21.6l-0.1-0.2c-0.9-2.1,0.2-4.6,2.3-5.4c0.2-0.1,0.4-0.1,0.5-0.2c-0.2-0.5-0.3-0.9-0.2-1.4c0-2.1,1.5-3.8,3.6-4.1h0.2l0,0.8
		h-0.1c-1.2,0.3-2,1.3-2,2.5c0,0.3,0.1,0.7,0.2,1c1.4-1,3.4-1,4.8,0.1c0.1-0.3,0.2-0.7,0.2-1c0-1.2-0.8-2.2-2-2.5h-0.1l0-0.9h0.2
		c2.3,0.4,3.8,2.5,3.5,4.8c0,0.2-0.1,0.5-0.2,0.7C18.6,16.1,19.9,17.8,19.9,19.7z M13.8,20.1L13.8,20.1c0.9-0.4,1.5-1.3,1.5-2.3l0,0
		C14.4,18.2,13.8,19.1,13.8,20.1z M11.8,20.2c0-1.1-0.7-2-1.7-2.4l0,0C10.2,18.9,10.8,19.8,11.8,20.2L11.8,20.2z M11.3,15.7
		c0.9,0.6,2,0.6,2.9,0C13.3,15.1,12.2,15.1,11.3,15.7L11.3,15.7z M21.4,3.5V10h-7V3.5h0.8V2.9C15.3,1.3,16.5,0,18,0
		c1.5,0,2.6,1.3,2.6,2.7c0,0,0,0.1,0,0.1v0.7H21.4z M19.3,3.5V2.9c0-0.7-0.5-1.4-1.3-1.4c0,0,0,0,0,0c-0.8,0-1.4,0.6-1.4,1.3
		c0,0,0,0.1,0,0.1v0.7H19.3z M20.1,8.7V5h-4.4v3.8L20.1,8.7z M18,5.4c-0.5,0-0.9,0.3-0.9,0.8c0,0,0,0,0,0c0,0.2,0.1,0.3,0.2,0.4v1.3
		h1.3V6.6c0.1-0.1,0.2-0.3,0.2-0.4C18.7,5.8,18.4,5.4,18,5.4z"/>
</g>
</svg>
