<?xml version="1.0" encoding="utf-8"?>
<!-- Generator: Adobe Illustrator 26.4.1, SVG Export Plug-In . SVG Version: 6.00 Build 0)  -->
<svg version="1.1" id="Layer_1" xmlns="http://www.w3.org/2000/svg" xmlns:xlink="http://www.w3.org/1999/xlink" x="0px" y="0px"
	 viewBox="0 0 27.6 28.9" style="enable-background:new 0 0 27.6 28.9;" xml:space="preserve">
<path d="M20.7,5.3L20.7,5.3h1v1.2h-1v3.7h-1.5V6.5h-0.6V5.3h0.6V5.2c0-1.7,1.4-1.9,2.1-1.9c0.3,0,0.4,0,0.4,0h0.1v1.3h-0.2
	c0,0-0.1,0-0.2,0C20.7,4.7,20.7,5.1,20.7,5.3z M8.4,12.3l0.3-0.6l-1,0.4c-0.2-0.2-0.5-0.3-0.8-0.3c-0.6,0-1.2,0.5-1.2,1.2
	c0,0,0,0,0,0.1c-0.7-0.1-1.4-0.4-1.8-1l-0.3-0.3v0.4c-0.1,0.2-0.4,1.1-0.1,2c0.2,0.5,0.5,0.8,1,1.1c-0.1,0-0.2,0.1-0.3,0.1
	s-0.1,0-0.2,0.1H3.9c-0.1,0-0.2,0-0.3,0s-0.2,0-0.3,0l-0.7-0.1l0.6,0.4c0.5,0.3,1.1,0.5,1.6,0.5c1.9,0,3-1.5,3-3l0.8-1L8.4,12.3z
	 M27.6,21.5c0,4.1-3.3,7.4-7.4,7.4s-7.4-3.3-7.4-7.4c0-1,0.2-1.9,0.5-2.7l-2.5-1.4C9.7,18.9,8,19.8,6,19.8c-3.3,0-6-2.7-6-6
	s2.7-6,6-6c2,0,3.7,1,4.8,2.4l3.7-2.1c-0.2-0.6-0.4-1.3-0.4-2.1c0-3.3,2.7-6,6-6s6,2.7,6,6s-2.7,6-6,6c-1.8,0-3.5-0.8-4.6-2.2
	L11.7,12c0.2,0.5,0.3,1.1,0.3,1.7s-0.1,1.2-0.3,1.7l2.6,1.5c1.3-1.7,3.4-2.8,5.8-2.8C24.3,14.1,27.6,17.4,27.6,21.5z M14.9,21.5
	c0,2.9,2.4,5.3,5.3,5.3c2.9,0,5.3-2.4,5.3-5.3s-2.4-5.3-5.3-5.3c-1.8,0-3.3,0.9-4.3,2.2l0,0c-0.2,0.3-0.4,0.6-0.5,0.9l-0.1,0.2
	C15.1,20.1,14.9,20.8,14.9,21.5z M10,13.7c0-0.5-0.1-1-0.3-1.4c0-0.1,0-0.1-0.1-0.2c-0.1-0.2-0.2-0.4-0.3-0.6l0,0
	c-0.7-1-1.9-1.7-3.3-1.7c-2.2,0-3.9,1.8-3.9,3.9c0,2.2,1.8,3.9,3.9,3.9c1.3,0,2.5-0.7,3.2-1.7v-0.1c0.1-0.2,0.2-0.4,0.3-0.6
	c0-0.1,0.1-0.1,0.1-0.2C9.9,14.7,10,14.2,10,13.7z M17,8.3c0.7,1,1.9,1.6,3.2,1.6c2.2,0,3.9-1.8,3.9-3.9c0-2.2-1.8-3.9-3.9-3.9
	c-2.2,0-3.9,1.8-3.9,3.9c0,0.5,0.1,1.1,0.3,1.5c0,0,0,0,0,0.1c0.1,0.2,0.2,0.3,0.3,0.5C16.9,8.1,17,8.2,17,8.3z M22.9,20.6v3.9h-4.8
	v-3.9h0.4v-0.8c0-1.1,0.9-2,2-2c0.5,0,1,0.2,1.4,0.6c0.4,0.4,0.6,0.9,0.6,1.4v0.8H22.9z M19.4,20.6h2.1v-0.8c0-0.3-0.1-0.5-0.3-0.7
	c-0.2-0.2-0.4-0.3-0.7-0.3c-0.6,0-1,0.5-1,1v0.8H19.4z"/>
</svg>
