<?xml version="1.0" encoding="utf-8"?>
<!-- Generator: Adobe Illustrator 26.4.1, SVG Export Plug-In . SVG Version: 6.00 Build 0)  -->
<svg version="1.1" id="Layer_1" xmlns="http://www.w3.org/2000/svg" xmlns:xlink="http://www.w3.org/1999/xlink" x="0px" y="0px"
	 viewBox="0 0 28.9 27.5" style="enable-background:new 0 0 28.9 27.5;" xml:space="preserve">
<path d="M28.3,21c-0.6,1.4-1.8,2.4-3.2,2.9L24.9,24l-0.6-1.6l0.2-0.1c1-0.4,1.8-1.1,2.2-2c0.4-1,0.5-2,0.1-3l-0.1-0.2l1.6-0.6
	l0.1,0.2C29.1,18.1,29,19.6,28.3,21z M26.2,20c0.4-0.8,0.4-1.7,0.1-2.5l-0.1-0.2l-1.6,0.6l0.1,0.2c0.1,0.4,0.1,0.8-0.1,1.2
	c-0.2,0.4-0.5,0.7-0.9,0.8h-0.2l0.6,1.6l0.2-0.1C25.2,21.4,25.8,20.8,26.2,20z M25.8,16c-0.1,0.3-0.4,0.5-0.7,0.5l-1.6,0.2l-1,5.2
	L19,21.6l-0.1,4.5h-8.2c-1.2,0.9-2.6,1.4-4.1,1.4c-3.7,0-6.6-3-6.6-6.6c0-3.4,2.6-6.2,5.9-6.6c-0.1-0.2-0.2-0.4-0.3-0.6l-0.2-0.3
	c-1-1.8-2.1-4-1.2-7C5.1,3.5,7.8,0.1,12.7,0c2.6,0,4.2,0.6,5.8,1.2c1.2,0.5,2.3,0.9,3.7,1c1.6,0.1,2-0.7,2-0.8l0.2-0.5l0.3,0.5
	c0,0.1,0.3,0.7,0.1,2.2c-0.2,1.1-0.5,2.3-2.1,3.3c0.8,1.3,1.4,2.4,1.6,2.8l0.2,0.5l-1.2,1.6l2.4,3.5C25.9,15.4,25.9,15.7,25.8,16z
	 M12.2,24.4h5.1l0.2-4.6l3.7,0.3l1-4.9l1.4-0.2l-2.3-3.4l1.3-1.7c-0.2-0.5-0.7-1.4-1.4-2.4c-0.4,0.1-0.8,0.3-1.3,0.4
	c-3.8,0.9-5.3,4.8-5.3,4.8l-0.4,0.9l-0.1-1c-0.2-1.3-1.2-2-2-2.1c-1-0.2-1.8,0.3-2.3,1.1c-0.6,1.2-0.4,2.1-0.3,2.8v0.1l0,0v0.4
	c0,0.1,0,0.1,0,0.2c2.1,1.2,3.4,3.4,3.4,5.8C13.2,22.1,12.9,23.3,12.2,24.4z M11.5,20.8c0-1.6-0.8-3.1-2.1-4
	c-0.2-0.1-0.3-0.2-0.5-0.3c-0.2-0.1-0.4-0.2-0.6-0.3l-0.1-0.1c-0.1,0-0.3-0.1-0.4-0.1H7.7c-0.1,0-0.2-0.1-0.3-0.1
	c-0.3-0.1-0.6-0.1-0.9-0.1l0,0c-2.7,0-5,2.2-5,4.9s2.2,4.9,4.9,4.9c0.4,0,0.8-0.1,1.4-0.2c0.3-0.1,0.7-0.2,1-0.4l0.1-0.1
	c0.1-0.1,0.3-0.2,0.4-0.3C10.8,23.9,11.5,22.4,11.5,20.8z M8.4,17.7l-2.7,3.8l-1.4-1.4l-1.2,1.2L5.9,24l3.8-5.4L8.4,17.7z"/>
</svg>
