<?xml version="1.0" encoding="utf-8"?>
<!-- Generator: Adobe Illustrator 26.4.1, SVG Export Plug-In . SVG Version: 6.00 Build 0)  -->
<svg version="1.1" id="Layer_1" xmlns="http://www.w3.org/2000/svg" xmlns:xlink="http://www.w3.org/1999/xlink" x="0px" y="0px"
	 viewBox="0 0 29.5 25.6" style="enable-background:new 0 0 29.5 25.6;" xml:space="preserve">
<style type="text/css">
	.st0{fill:#231F20;}
</style>
<g id="Layer_1_00000115517060537717057350000010542962210796631719_">
	<path class="st0" d="M29.5,17.3V0H5v10.5c-4,1.5-6,6-4.5,10.1c1.1,3,4,5,7.3,5c3.4,0,5.6-1.3,7.4-4.4h8.5V19h-2.1v-1.8H29.5z
		 M7.8,10c-0.2,0-0.4,0-0.6,0V2.2h20.1v12.9H15.1C13.9,12,11,10,7.8,10z M13.4,17.8c0,3.1-2.5,5.6-5.6,5.6s-5.6-2.5-5.6-5.6
		s2.5-5.6,5.6-5.6l0,0C10.9,12.2,13.4,14.7,13.4,17.8z M22.8,6.1v0.3c-0.1,0.5-0.3,1-0.7,1.4c-0.7,0.7-1.6,0.9-2.5,0.5l-1.2,1.2l3,3
		l-1.3,1.2l-3-3l-2.8,2.8L13,12.2l2.8-2.8l-1.9-1.9l-1.2,1.2l-2-2l2.6-2.6c0.4-0.4,0.9-0.6,1.4-0.6c0.7,0.1,1.4,0.6,1.8,1.2L16.7,5
		l-0.2,0.1c-0.6,0.1-1.2,0.4-1.5,0.9l2.2,2.2l1.2-1.2c-0.3-0.9-0.1-1.8,0.5-2.5c0.9-0.9,2.4-0.9,3.3,0c0,0,0,0,0,0
		c0.1,0.1,0.1,0.2,0.2,0.2l0.2,0.2l-2.2,0.6l0.3,1.2L22.8,6.1z M8.8,15.3H6.9v-1.7h1.9L8.8,15.3z M8.8,16v6.4H6.9V16L8.8,16z"/>
</g>
</svg>
