<?xml version="1.0" encoding="utf-8"?>
<!-- Generator: Adobe Illustrator 26.4.1, SVG Export Plug-In . SVG Version: 6.00 Build 0)  -->
<svg version="1.1" id="Layer_1" xmlns="http://www.w3.org/2000/svg" xmlns:xlink="http://www.w3.org/1999/xlink" x="0px" y="0px"
	 viewBox="0 0 29.8 24.2" style="enable-background:new 0 0 29.8 24.2;" xml:space="preserve">
<path d="M17.3,6.7c-2.2,0-4,1.8-4,4s1.8,4,4,4s4-1.8,4-4S19.5,6.7,17.3,6.7z M19.6,10.7c0,1.3-1,2.3-2.3,2.3S15,12,15,10.7
	s1-2.3,2.3-2.3S19.6,9.4,19.6,10.7z M24.6,13.4h1.9v1.9h-1.9C24.6,15.3,24.6,13.4,24.6,13.4z M26.6,6.1V8h-1.9V6.1H26.6z M8.1,6.1
	H10V8H8.1C8.1,8,8.1,6.1,8.1,6.1z M0,9.3v14.9h10.9V9.3H0z M2,11.5h7v1.7H2V11.5z M9,15v1.2H7.9V15H9z M3.1,22H2v-1.2h1.1V22z
	 M3.1,19.1H2v-1.2h1.1V19.1z M3.1,16.2H2V15h1.1V16.2z M6,22H4.9v-1.2H6V22z M6,19.1H4.9v-1.2H6V19.1z M6,16.2H4.9V15H6V16.2z M9,22
	H7.8v-4H9V22z M26.1,2.2H4v7.1H1.8V0h24.3V2.2z M29.8,3.1v15.2H10.9v-2.2h16.6V5.3H7.1v4H4.9V3.1C4.9,3.1,29.8,3.1,29.8,3.1z"/>
</svg>
