<?xml version="1.0" encoding="utf-8"?>
<!-- Generator: Adobe Illustrator 26.4.1, SVG Export Plug-In . SVG Version: 6.00 Build 0)  -->
<svg version="1.1" id="Layer_1" xmlns="http://www.w3.org/2000/svg" xmlns:xlink="http://www.w3.org/1999/xlink" x="0px" y="0px"
	 viewBox="0 0 27.4 28.3" style="enable-background:new 0 0 27.4 28.3;" xml:space="preserve">
<g id="Layer_1_00000024683664393063976200000014398124020551311770_">
	<path d="M18.5,19.3L18.5,19.3c5.3-0.4,9.3-5.1,8.9-10.4C27,4.2,23.3,0.4,18.5,0c-0.5,0-1,0-1.5,0l0,0c-5.3,0.4-9.3,5-8.9,10.3
		c0,0.5,0.1,0.9,0.2,1.4H0v15.4h2.7v1.2h3.1v-1.2h3.8v1.2h3.1v-1.2h2.7V19c0.5,0.1,1,0.2,1.5,0.2C17.4,19.3,17.9,19.3,18.5,19.3z
		 M18.6,12.9v-2.3H21c-0.1,0.8-0.3,1.6-0.6,2.3H18.6z M23.6,14.7c-0.9,1.1-2.1,1.9-3.4,2.3c0.5-0.7,1-1.5,1.4-2.3H23.6z M18.6,4.6
		V3.1c0.3,0.4,0.6,0.9,0.9,1.4L18.6,4.6z M21.6,4.6c-0.4-0.8-0.8-1.6-1.4-2.3c1.3,0.5,2.5,1.3,3.4,2.3H21.6z M18.6,8.7V6.4h1.8
		c0.3,0.7,0.5,1.5,0.6,2.3H18.6z M25.4,10.6c-0.1,0.8-0.3,1.6-0.6,2.3h-2.4c0.2-0.7,0.4-1.5,0.5-2.3H25.4z M25.4,8.7h-2.6
		c-0.1-0.8-0.2-1.6-0.5-2.3h2.4C25.1,7.2,25.3,7.9,25.4,8.7z M19.5,14.7c-0.3,0.5-0.6,1-0.9,1.5v-1.5H19.5z M16.8,3.1v1.4h-0.9
		C16.1,4,16.5,3.5,16.8,3.1z M9.9,10.6h2.6c0,0.4,0.1,0.8,0.2,1.1h-2.6C10.1,11.3,10,11,9.9,10.6z M9.9,8.7c0.1-0.8,0.3-1.6,0.6-2.3
		H13c-0.2,0.7-0.4,1.5-0.5,2.3H9.9z M11.7,4.6c0.9-1.1,2.1-1.9,3.4-2.3c-0.5,0.7-1,1.5-1.4,2.3H11.7z M16.7,6.4v2.3h-2.3
		c0.1-0.8,0.3-1.6,0.6-2.3L16.7,6.4z M14.6,11.7c-0.1-0.4-0.2-0.7-0.2-1.1h2.4v2.3h-1.3v-1.2C15.5,11.7,14.6,11.7,14.6,11.7z
		 M13.6,13.5v11.7H1.9V13.5H13.6z M16.8,14.7v1.5c-0.3-0.4-0.6-0.9-0.9-1.5H16.8z M7.8,14.4c-2.8,0-5,2.2-5,5s2.2,5,5,5s5-2.2,5-5
		C12.8,16.7,10.5,14.4,7.8,14.4C7.8,14.4,7.7,14.4,7.8,14.4L7.8,14.4z M11.2,19.4c0,1.9-1.5,3.4-3.4,3.4s-3.4-1.5-3.4-3.4
		S5.9,16,7.8,16l0,0C9.6,16.1,11.1,17.6,11.2,19.4L11.2,19.4z M9.1,17.1l1,1l-0.8,0.8c0.3,0.9-0.1,1.8-1,2.1c-0.4,0.1-0.8,0.1-1.2,0
		l-0.8,0.8l-1-1L6.1,20C6,19.8,6,19.6,6,19.4c0-0.9,0.8-1.7,1.7-1.7c0.2,0,0.4,0,0.6,0.1L9.1,17.1z"/>
</g>
</svg>
