<?xml version="1.0" encoding="utf-8"?>
<!-- Generator: Adobe Illustrator 26.4.1, SVG Export Plug-In . SVG Version: 6.00 Build 0)  -->
<svg version="1.1" id="Layer_1" xmlns="http://www.w3.org/2000/svg" xmlns:xlink="http://www.w3.org/1999/xlink" x="0px" y="0px"
	 viewBox="0 0 26.3 29.2" style="enable-background:new 0 0 26.3 29.2;" xml:space="preserve">
<path d="M4.4,15.3H7v2.5H4.4V15.3z M4.4,14.5H7v-2.6H4.4V14.5z M4.4,7.8H7V5.3H4.4V7.8z M4.4,11.2H7V8.6H4.4V11.2z M26.3,26.7v2.5H0
	v-2.5h1.5V2.5h11c2.9-3.1,7.8-3.3,10.9-0.4s3.3,7.8,0.4,10.9c-1.8,1.9-4.5,2.8-7.1,2.3v0.8h5.7l1.2,3.1h1.6v2h-0.7l0.3,0.9v4.6
	L26.3,26.7z M12.5,7.8c0,3.1,2.5,5.7,5.7,5.7l0,0c3.1,0,5.7-2.5,5.7-5.6s-2.5-5.7-5.6-5.7S12.5,4.6,12.5,7.8z M8.4,21.3h-2v5.5h2
	V21.3z M13.2,17.9L13.2,17.9h-1.9v-2.6h2.6v0.9h0.8v-1.5c-0.3-0.1-0.5-0.3-0.8-0.5v0.4h-2.7v-2.7h0.4c-0.8-1.2-1.2-2.7-1.2-4.1
	c0-1.1,0.2-2.2,0.7-3.2H3.6v22.1h0.8v-7.5h6.1v7.5h1v-4.8l0.3-0.7H11v-2h1.6L13.2,17.9z M21.3,25.7h-6.2v1h6.2V25.7z M22.7,22.5
	L21,18.2h-5.8l-1.7,4.3v1.3h9.2V22.5z M18.3,9.5c-0.5,0-0.9-0.2-1.2-0.5l-0.3-0.3l-1,1.3l0.2,0.2c0.4,0.4,1,0.7,1.6,0.8v0.8H19V11
	c0.9-0.2,1.6-1,1.6-2c0-1.3-1.1-1.8-1.9-2.1c-0.4-0.2-0.9-0.3-0.9-0.6s0.3-0.4,0.6-0.4c0.4,0,0.8,0.2,1.1,0.4l0.3,0.3l0.7-1.3
	l-0.1-0.1C20,4.8,19.5,4.6,19,4.5V3.7h-1.4v0.8c-0.9,0.2-1.6,1-1.6,1.9c0,1.2,1.1,1.7,1.9,2.1c0.4,0.2,0.9,0.2,0.9,0.6
	C18.9,9.5,18.5,9.5,18.3,9.5z M7.8,11.2h2.6V8.6H7.8V11.2z M15.8,18.9L15,20.8h6.1l-0.8-1.9H15.8z M7.8,7.9h2.6V5.3H7.8V7.9z
	 M7.8,17.9h2.6v-2.6H7.8V17.9z M14.3,23.2h1.9v-1.1h-1.9V23.2z M20.1,23.2h1.8v-1.1h-1.8V23.2z M7.8,14.5h2.6v-2.6H7.8V14.5z"/>
</svg>
