<?xml version="1.0" encoding="utf-8"?>
<!-- Generator: Adobe Illustrator 26.4.1, SVG Export Plug-In . SVG Version: 6.00 Build 0)  -->
<svg version="1.1" id="Layer_1" xmlns="http://www.w3.org/2000/svg" xmlns:xlink="http://www.w3.org/1999/xlink" x="0px" y="0px"
	 viewBox="0 0 29.9 22" style="enable-background:new 0 0 29.9 22;" xml:space="preserve">
<style type="text/css">
	.st0{fill:#231F20;}
</style>
<g id="Layer_1_00000145759489801978772620000002361049642784425369_">
	<path class="st0" d="M2.6,0v17.5h24.7V0H2.6z M5,15.2V2.4h20v12.8H5z M29.9,19.6V22H0v-2.4H29.9z M14.9,4C10.5,4,7,7.5,7,11.9v0.8
		h6.2c0.5,0.9,1.5,1.2,2.4,0.7c0.3-0.2,0.6-0.4,0.7-0.7h6.4v-0.8C22.7,7.5,19.2,4,14.9,4L14.9,4z M10.5,8.5l1-1L11,7
		c0.9-0.7,2-1.2,3.1-1.3v0.7h1.4V5.7c1.1,0.1,2.2,0.6,3.1,1.3l-0.5,0.5l1,1L19.7,8c0.7,0.9,1.1,1.9,1.3,3h-4.6
		c0-0.1-0.1-0.2-0.2-0.2L17.8,7l-1.6-0.6l-1.6,3.8c-0.6,0-1.1,0.4-1.4,0.9H8.8c0.2-1.1,0.6-2.1,1.3-3L10.5,8.5z"/>
</g>
</svg>
