<?xml version="1.0" encoding="utf-8"?>
<!-- Generator: Adobe Illustrator 26.4.1, SVG Export Plug-In . SVG Version: 6.00 Build 0)  -->
<svg version="1.1" id="Layer_1" xmlns="http://www.w3.org/2000/svg" xmlns:xlink="http://www.w3.org/1999/xlink" x="0px" y="0px"
	 viewBox="0 0 26.7 27.6" style="enable-background:new 0 0 26.7 27.6;" xml:space="preserve">
<style type="text/css">
	.st0{fill:#231F20;}
</style>
<g id="Layer_1_00000076593301047746934760000016455383467864938401_">
	<path class="st0" d="M8.2,0v12.1H7.8C3.5,12,0,15.5,0,19.8s3.5,7.8,7.8,7.8c2.1,0,4.1-0.8,5.6-2.4h13.3V0H8.2z M13.4,19.8
		c0,3.1-2.5,5.6-5.6,5.6s-5.6-2.5-5.6-5.6c0-3.1,2.5-5.6,5.6-5.6C10.9,14.2,13.4,16.7,13.4,19.8C13.4,19.8,13.4,19.8,13.4,19.8z
		 M15.6,19.8c0-1.4-0.4-2.7-1.1-3.9V14H13c-0.8-0.7-1.7-1.2-2.6-1.5V2.2h14.1v20.9h-9.6C15.4,22.1,15.6,21,15.6,19.8z M11.4,3.1v5
		h12.1v-5H11.4z M13.3,6.1v-1h8.2v1H13.3z M11.6,9.8h2.6v2.6h-2.6V9.8z M16.2,9.8h2.6v2.6h-2.6V9.8z M23.3,9.8v2.6h-2.6V9.8H23.3z
		 M16.2,14h2.6v2.6h-2.6V14z M16.2,18.3h2.6v2.6h-2.6V18.3z M20.7,14h2.6v6.8h-2.6L20.7,14z M6.1,19.5c0.9,0,1.7-0.8,1.6-1.7
		S6.9,16.1,6,16.1c-0.9,0-1.6,0.8-1.6,1.7C4.4,18.8,5.2,19.5,6.1,19.5z M5.6,17.8c0-0.2,0.2-0.5,0.4-0.5c0,0,0,0,0,0
		c0.3,0,0.5,0.2,0.5,0.5c0,0.3-0.2,0.5-0.5,0.5C5.9,18.3,5.6,18.1,5.6,17.8L5.6,17.8z M9.8,20.1c-0.9,0-1.7,0.8-1.6,1.7
		c0,0.9,0.8,1.7,1.7,1.6c0.9,0,1.6-0.8,1.6-1.7C11.5,20.9,10.7,20.1,9.8,20.1z M10.3,21.8c0,0.3-0.2,0.5-0.5,0.5c0,0,0,0,0,0
		c-0.2,0-0.5-0.2-0.5-0.5l0,0c0-0.3,0.2-0.5,0.5-0.5C10.1,21.3,10.3,21.6,10.3,21.8z M11.5,16.2L6,23.4H4.4l5.5-7.2H11.5z"/>
</g>
</svg>
