<?xml version="1.0" encoding="utf-8"?>
<!-- Generator: Adobe Illustrator 26.4.1, SVG Export Plug-In . SVG Version: 6.00 Build 0)  -->
<svg version="1.1" id="Layer_1" xmlns="http://www.w3.org/2000/svg" xmlns:xlink="http://www.w3.org/1999/xlink" x="0px" y="0px"
	 viewBox="0 0 25.3 26.7" style="enable-background:new 0 0 25.3 26.7;" xml:space="preserve">
<path d="M7.9,25.5c-0.3,0-0.5-0.2-0.5-0.5s0.2-0.5,0.5-0.5s0.5,0.2,0.5,0.5C8.4,25.2,8.2,25.5,7.9,25.5z M18.3,20.2
	c-0.3,0-0.5-0.2-0.5-0.5s0.2-0.5,0.5-0.5s0.5,0.2,0.5,0.5S18.6,20.2,18.3,20.2z M11.4,0v5.6H0v21.1h15.8v-5.3h9.5V0H11.4z
	 M13.6,21.3v2H2.2V7.7h9.3v13.6H13.6z M23,2.1v16.1h-9.4V2.1H23z M14.6,8.4h0.9v3.3h-0.9V8.4z M16.3,12.8h0.6v1.7h0.9v-1.7h1.1v1.7
	h0.9v-1.7h0.6V8.3h-4.1V12.8z M21.1,8.4v3.3H22V8.4H21.1z M16.3,7.6c0-0.8,0.2-1.5,0.6-1.9l-0.5-0.5l0.4-0.4l0.6,0.6
	c0.3-0.1,0.6-0.2,0.9-0.2s0.7,0.1,0.9,0.2l0.6-0.6l0.4,0.4l-0.4,0.5c0.4,0.4,0.6,1.1,0.6,1.9H16.3z M18.8,6.4c0,0.2,0.2,0.4,0.4,0.4
	s0.4-0.2,0.4-0.4S19.4,6,19.2,6S18.8,6.2,18.8,6.4z M17.1,6.4c0,0.2,0.2,0.4,0.4,0.4c0.2,0,0.4-0.2,0.4-0.4S17.7,6,17.5,6
	C17.3,6.1,17.1,6.2,17.1,6.4z"/>
</svg>
