<?xml version="1.0" encoding="utf-8"?>
<!-- Generator: Adobe Illustrator 26.4.1, SVG Export Plug-In . SVG Version: 6.00 Build 0)  -->
<svg version="1.1" id="Layer_1" xmlns="http://www.w3.org/2000/svg" xmlns:xlink="http://www.w3.org/1999/xlink" x="0px" y="0px"
	 viewBox="0 0 33.8 25.9" style="enable-background:new 0 0 33.8 25.9;" xml:space="preserve">
<path d="M17.8,8.5l-1.2,1.2l-0.2-0.2c-0.8-0.8-1.8-1.2-2.9-1.2s-2.1,0.4-2.9,1.2l-0.2,0.2L9.2,8.5l0.2-0.2c1.1-1.1,2.6-1.7,4.1-1.7
	s3,0.6,4.1,1.7L17.8,8.5z M13.5,9c-0.9,0-1.8,0.4-2.4,1l-0.2,0.2l1.2,1.2l0.2-0.2c0.7-0.7,1.8-0.7,2.4,0l0.2,0.2l1.2-1.2L15.9,10
	C15.3,9.4,14.4,9,13.5,9z M13.5,11.4c-0.6,0-1,0.5-1,1s0.5,1,1,1s1-0.5,1-1S14.1,11.4,13.5,11.4z M33.8,18.1c0,4.3-3.5,7.8-7.8,7.8
	c-1.4,0-2.7-0.4-3.9-1h-6.5v-7.6h-4.2v7.6h-9V14.2L1.6,15L0,13.4L13.5,0l4.2,4.2V0.4h5.4v9.2l0.9,0.9c0.6-0.2,1.3-0.3,1.9-0.3
	C30.3,10.3,33.8,13.8,33.8,18.1z M19.9,2.6v3.8l1,1V2.6H19.9z M17.8,15v7.6h1.9c-1-1.3-1.5-2.9-1.5-4.5c0-2.7,1.4-5.2,3.7-6.6
	l-8.4-8.4L4.6,12v10.6h4.6V15H17.8z M26,12.5c-3.1,0-5.6,2.5-5.6,5.6s2.5,5.6,5.6,5.6s5.6-2.5,5.6-5.6S29.1,12.5,26,12.5z
	 M28.5,16.9v4.2h-5.1v-4.2h0.4v-0.7c0-1.2,1-2.1,2.1-2.1c0.6,0,1.1,0.2,1.5,0.6c0.4,0.4,0.6,0.9,0.6,1.5v0.7
	C28,16.9,28.5,16.9,28.5,16.9z M25.1,16.9H27v-0.7c0-0.3-0.1-0.5-0.3-0.7c-0.2-0.2-0.4-0.3-0.7-0.3c-0.5,0-0.9,0.4-0.9,1V16.9z"/>
</svg>
