<?xml version="1.0" encoding="utf-8"?>
<!-- Generator: Adobe Illustrator 26.4.1, SVG Export Plug-In . SVG Version: 6.00 Build 0)  -->
<svg version="1.1" id="Layer_1" xmlns="http://www.w3.org/2000/svg" xmlns:xlink="http://www.w3.org/1999/xlink" x="0px" y="0px"
	 viewBox="0 0 27.4 28.8" style="enable-background:new 0 0 27.4 28.8;" xml:space="preserve">
<style type="text/css">
	.st0{fill:#231F20;}
</style>
<g id="Layer_1_00000070813170520783189370000005081720719385748386_">
	<path class="st0" d="M26.2,6c-0.7-0.7-1.5-1.1-2.5-1.1c-0.7-1.6-2.3-2.5-4.1-2.3c-1.5-2.5-4.8-3.3-7.3-1.8c-1,0.6-1.8,1.5-2.2,2.6
		H0v25.3h16.2v-16h7.3c2.2,0,4-1.8,3.9-4C27.4,7.7,27,6.7,26.2,6z M2.2,25.3V5.6H14v19.7H2.2z M12.6,3.4c0.6-0.8,1.5-1.2,2.5-1.2
		c1.3,0,2.5,0.8,3,2.1l0.4,1.1l1.1-0.5c0.8-0.4,1.8,0,2.1,0.8c0.1,0.1,0.1,0.3,0.1,0.4L22,7.3L23.1,7C24,6.8,25,7.4,25.2,8.3
		c0,0.1,0,0.3,0,0.4c0,1-0.8,1.8-1.8,1.8l0,0h-7.3V3.4L12.6,3.4z M13.2,15.6v0.2c0,2.8-2.3,5-5,5s-5-2.3-5-5c0-2.9,2.3-5.2,5.2-5.2
		c1.1,0,2.2,0.3,3,1v-0.8h1.5v3.3H9.6v-1.5h0.5c-1.8-0.9-4-0.3-5,1.5c-0.3,0.5-0.4,1.1-0.4,1.7c0,1.9,1.6,3.5,3.5,3.5
		s3.5-1.6,3.5-3.5v-0.2L13.2,15.6z M8.1,27.5c-0.3,0-0.6-0.3-0.6-0.6c0-0.3,0.3-0.6,0.6-0.6s0.6,0.3,0.6,0.6S8.4,27.5,8.1,27.5
		L8.1,27.5z"/>
</g>
</svg>
