<?xml version="1.0" encoding="utf-8"?>
<!-- Generator: Adobe Illustrator 26.4.1, SVG Export Plug-In . SVG Version: 6.00 Build 0)  -->
<svg version="1.1" id="Layer_1" xmlns="http://www.w3.org/2000/svg" xmlns:xlink="http://www.w3.org/1999/xlink" x="0px" y="0px"
	 viewBox="0 0 32 26.8" style="enable-background:new 0 0 32 26.8;" xml:space="preserve">
<path d="M25.1,20.3c-0.3,0-0.5-0.2-0.5-0.5s0.2-0.5,0.5-0.5s0.5,0.2,0.5,0.5C25.5,20.1,25.3,20.3,25.1,20.3z M32,0.1v21.4h-9.5v5.3
	H6.7V15.5C2.9,15,0,11.7,0,7.8C0,3.5,3.5,0,7.8,0c3.5,0,6.5,2.3,7.5,5.6h2.9V0.1H32z M7.8,13.4c3.1,0,5.6-2.5,5.6-5.6
	s-2.5-5.6-5.6-5.6S2.2,4.8,2.2,7.8S4.7,13.4,7.8,13.4z M18.1,21.4V7.8h-2.6l0,0c0,3.9-2.9,7.2-6.7,7.7v7.9h11.4v-2H18.1z M20.3,2.2
	v16.1h9.4V2.2H20.3z M10,10.5H5.5V6.9h0.4V6c0-1,0.8-1.8,1.8-1.8l0,0c0.5,0,1,0.2,1.3,0.5S9.5,5.5,9.5,6v0.9h0.4v3.6H10z M9,6
	c0-0.3-0.1-0.6-0.3-0.8C8.4,4.9,8.1,4.8,7.8,4.8C7.1,4.8,6.6,5.3,6.6,6v0.9H9V6z M22.3,8.4h-0.5v0.5h0.5V8.4z M22.3,9.2h-0.5v2.2
	h0.5V9.2z M22.8,9.9c0-0.9,0.7-1.6,1.6-1.6S26,9,26,9.9s-0.7,1.6-1.6,1.6S22.8,10.8,22.8,9.9z M23.3,9.9c0,0.6,0.4,1.1,1,1.1
	s1-0.5,1-1.1s-0.4-1-1-1C23.8,8.8,23.3,9.3,23.3,9.9z M27.3,11c-0.4,0-0.8-0.3-0.8-0.3l-0.3,0.4c0,0,0.4,0.4,1.1,0.4
	c0.6,0,1-0.4,1-0.9c0-1-1.4-0.8-1.4-1.4c0-0.2,0.2-0.4,0.5-0.4c0.4,0,0.7,0.3,0.7,0.3l0.2-0.5c0,0-0.3-0.3-0.9-0.3
	c-0.6,0-1,0.4-1,0.9c0,0.9,1.4,0.8,1.4,1.4C27.7,10.8,27.5,11,27.3,11z M15.1,25c0-0.3-0.2-0.5-0.5-0.5s-0.5,0.2-0.5,0.5
	s0.2,0.5,0.5,0.5S15.1,25.3,15.1,25z"/>
</svg>
