<?xml version="1.0" encoding="utf-8"?>
<!-- Generator: Adobe Illustrator 26.4.1, SVG Export Plug-In . SVG Version: 6.00 Build 0)  -->
<svg version="1.1" id="Layer_1" xmlns="http://www.w3.org/2000/svg" xmlns:xlink="http://www.w3.org/1999/xlink" x="0px" y="0px"
	 viewBox="0 0 25.7 29.3" style="enable-background:new 0 0 25.7 29.3;" xml:space="preserve">
<path d="M13.7,6.1L13,5.9l0.3-1L14,5.1V4.4h1v0.7l0.7-0.2l0.3,1l-0.7,0.2l0.4,0.6l-0.8,0.6l-0.4-0.6l-0.4,0.6l-0.8-0.6L13.7,6.1z
	 M16.6,19.7h2.1v-2.1h-2.1V19.7z M13.1,12.8h2.1v-2.1h-2.1V12.8z M10.3,20.2h0.5v4.7H5v-4.7h0.5v-0.8c0-1.3,1.1-2.4,2.4-2.4
	c0.6,0,1.3,0.3,1.7,0.7c0.5,0.5,0.7,1.1,0.7,1.7C10.3,19.4,10.3,20.2,10.3,20.2z M9,19.3c0-0.3-0.1-0.6-0.3-0.8
	c-0.2-0.2-0.5-0.3-0.8-0.3c-0.6,0-1.1,0.5-1.1,1.1v0.8h2.3v-0.8H9z M25.7,0v24.7H14.9c-1.3,2.8-4,4.6-7.1,4.6
	c-4.3,0-7.8-3.5-7.8-7.8s3.5-7.8,7.8-7.8c0.7,0,1.4,0.1,2,0.3V0H25.7z M13.5,21.4c0-3.1-2.5-5.6-5.6-5.6s-5.6,2.5-5.6,5.6
	S4.8,27,7.9,27S13.5,24.5,13.5,21.4z M18.3,22.9c0-0.3-0.2-0.5-0.5-0.5s-0.5,0.2-0.5,0.5s0.2,0.5,0.5,0.5
	C18.1,23.5,18.3,23.2,18.3,22.9z M23.5,2.2H12.1v12.7c0.4,0.2,0.7,0.5,1,0.8v-1.5h2.1v2.1h-1.6c0.3,0.3,0.6,0.7,0.8,1.1h1v2.4
	c0.1,0.5,0.2,1,0.2,1.6h7.9V2.2z M20.4,12.8h2.1v-2.1h-2.1V12.8z M16.6,6.7l0.8,0.6l0.4-0.6l0.4,0.6L19,6.7l-0.4-0.6l0.7-0.2l-0.3-1
	l-0.7,0.2V4.4h-1v0.7l-0.7-0.2l-0.3,1L17,6.1L16.6,6.7z M20.4,16.3h2.1v-2.1h-2.1V16.3z M20,6.7l0.8,0.6l0.4-0.6l0.4,0.6l0.8-0.6
	L22,6.1l0.7-0.2l-0.3-1l-0.7,0.2V4.4h-1v0.7L20,4.9l-0.3,1l0.7,0.2L20,6.7z M20.4,19.7h2.1v-2.1h-2.1V19.7z M16.6,16.3h2.1v-2.1
	h-2.1V16.3z M16.6,12.8h2.1v-2.1h-2.1V12.8z"/>
</svg>
