<?xml version="1.0" encoding="utf-8"?>
<!-- Generator: Adobe Illustrator 26.4.1, SVG Export Plug-In . SVG Version: 6.00 Build 0)  -->
<svg version="1.1" id="Layer_1" xmlns="http://www.w3.org/2000/svg" xmlns:xlink="http://www.w3.org/1999/xlink" x="0px" y="0px"
	 viewBox="0 0 30 27.5" style="enable-background:new 0 0 30 27.5;" xml:space="preserve">
<path d="M18.6,0C12.3,0,7.1,5.1,7.1,11.5c0,0.1,0,0.2,0,0.4c-4,0.4-7.1,3.8-7.1,7.8c0,4.3,3.5,7.8,7.8,7.8c3.2,0,6.2-2,7.3-5
	c1.1,0.4,2.3,0.5,3.4,0.5C24.8,23,30,17.9,30,11.5C30.1,5.1,25,0,18.6,0z M9.5,11.9c0-0.2,0-0.3,0-0.5c0-5.1,4.1-9.2,9.2-9.2
	s9.2,4.1,9.2,9.2s-4.1,9.2-9.2,9.2c-1,0-2-0.2-2.9-0.5c0-0.2,0-0.4,0-0.5C15.8,15.9,13.1,12.7,9.5,11.9z M7.9,14.1
	c3.1,0,5.5,2.5,5.5,5.5s-2.4,5.5-5.5,5.5s-5.5-2.5-5.5-5.5S4.9,14.1,7.9,14.1z M20,14.8c0,0.7-0.6,1.3-1.3,1.3
	c-0.7,0-1.3-0.6-1.3-1.3s0.6-1.3,1.3-1.3C19.4,13.5,20,14.1,20,14.8z M23.5,11.1l0.2,0.2l-1.3,1.1l-0.2-0.2
	c-0.9-1.1-2.1-1.7-3.5-1.7s-2.6,0.6-3.5,1.7L15,12.4l-1.3-1.1l0.2-0.2c1.2-1.5,3-2.4,4.9-2.4C20.6,8.7,22.3,9.6,23.5,11.1z
	 M21.6,12.6l0.2,0.2l-1.3,1l-0.2-0.2c-0.4-0.5-1-0.8-1.6-0.8s-1.2,0.3-1.6,0.8l-0.2,0.2l-1.3-1l0.2-0.2c0.7-0.9,1.8-1.5,3-1.5
	S20.9,11.7,21.6,12.6z M25.5,9.8l-1.3,1L24,10.6C22.7,8.9,20.7,8,18.6,8s-4.1,1-5.4,2.6L13,10.8l-1.3-1l0.2-0.2
	c1.6-2.1,4.1-3.3,6.7-3.3s5.1,1.2,6.7,3.3L25.5,9.8z M9.9,18.5v-0.7c0-0.5-0.2-1-0.6-1.4s-0.9-0.6-1.4-0.6c-1.1,0-2,0.9-2,2v0.7H5.5
	v3.9h4.8v-3.9H9.9z M7,18.5v-0.7c0-0.5,0.4-1,0.9-1c0.3,0,0.5,0.1,0.7,0.3c0.2,0.2,0.3,0.4,0.3,0.7v0.7H7z"/>
</svg>
