<?xml version="1.0" encoding="utf-8"?>
<!-- Generator: Adobe Illustrator 26.4.1, SVG Export Plug-In . SVG Version: 6.00 Build 0)  -->
<svg version="1.1" id="Layer_1" xmlns="http://www.w3.org/2000/svg" xmlns:xlink="http://www.w3.org/1999/xlink" x="0px" y="0px"
	 viewBox="0 0 29.1 29.1" style="enable-background:new 0 0 29.1 29.1;" xml:space="preserve">
<style type="text/css">
	.st0{fill:#231F20;}
</style>
<g id="Layer_1_00000035512152522042916400000005310040084236711358_">
	<path class="st0" d="M19.8,0c-5.1,0-9.3,4.2-9.3,9.3c0,0.4,0,0.9,0.1,1.3c-5.1-0.7-9.8,2.8-10.5,7.9S2.9,28.3,8,29
		s9.8-2.8,10.5-7.9c0.1-0.4,0.1-0.9,0.1-1.3c0-0.4,0-0.9-0.1-1.3c0.4,0.1,0.9,0.1,1.3,0.1c5.1,0,9.3-4.2,9.3-9.3
		C29.1,4.2,25,0,19.8,0L19.8,0z M16.3,19.9c0,3.9-3.1,7-7,7s-7-3.1-7-7s3.1-7,7-7S16.3,16,16.3,19.9z M12.8,9.3c0-3.9,3.1-7,7-7
		s7,3.1,7,7s-3.1,7-7,7c-0.7,0-1.4-0.1-2-0.3c-0.9-2.1-2.6-3.7-4.7-4.7C12.9,10.7,12.8,10,12.8,9.3z M21.2,9.3l2.9,2.9l-1.4,1.4
		l-2.8-2.9l-2.9,2.9l-1.4-1.4l2.8-2.9l-2.8-2.8l1.4-1.4L19.8,8l2.8-2.9L24,6.5L21.2,9.3z M12.1,15.5l1.6,1.1L8.4,24l-3.8-3.7L5.9,19
		l2.2,2.1L12.1,15.5z"/>
</g>
</svg>
