<?xml version="1.0" encoding="utf-8"?>
<!-- Generator: Adobe Illustrator 26.4.1, SVG Export Plug-In . SVG Version: 6.00 Build 0)  -->
<svg version="1.1" id="Layer_1" xmlns="http://www.w3.org/2000/svg" xmlns:xlink="http://www.w3.org/1999/xlink" x="0px" y="0px"
	 viewBox="0 0 33.4 19.9" style="enable-background:new 0 0 33.4 19.9;" xml:space="preserve">
<style type="text/css">
	.st0{fill:#231F20;}
</style>
<g id="Layer_1_00000085222180896185222870000001413909962469695876_">
	<path class="st0" d="M33.4,0H0v11.4h14l-4.9,8.5h15.2l-4.9-8.5h14L33.4,0z M2.4,9V2.4h28.7V9h-13l-1.3-2.3L15.4,9L2.4,9z
		 M13.2,17.5l3.5-6.1l3.5,6.1H13.2z M5.7,5.8L4.7,5.4L5,4.6L6,4.9V3.8h0.9v1.1L8,4.6l0.3,0.9L7.2,5.8l0.7,0.9L7.2,7.3L6.5,6.4
		L5.9,7.3L5.1,6.7L5.7,5.8z M10.9,5.8L9.8,5.4l0.3-0.9l1.1,0.4V3.8H12v1.1l1.1-0.4l0.3,0.9l-1.1,0.4L13,6.7l-0.7,0.5l-0.7-0.9
		l-0.7,0.9l-0.7-0.5L10.9,5.8z M26.2,5.8l-1-0.3l0.3-0.9l1.1,0.4V3.8h0.9v1.1l1.1-0.4l0.3,0.9l-1.1,0.4l0.7,0.9l-0.7,0.5L27,6.3
		l-0.7,0.9l-0.7-0.5L26.2,5.8z M21.1,5.8L20,5.4l0.3-0.9l1.1,0.4V3.8h0.9v1.1l1.1-0.4l0.3,0.9l-1.1,0.4l0.7,0.9l-0.7,0.6l-0.7-0.9
		l-0.6,0.9l-0.7-0.5L21.1,5.8z M16,5.8l-1.1-0.4l0.3-0.9l1.1,0.4V3.8h0.9v1.1l1.1-0.4l0.3,0.9l-1.1,0.4l0.7,0.9l-0.7,0.5l-0.7-0.9
		l-0.7,0.9l-0.7-0.5L16,5.8z M16.3,16.1h0.9V17h-0.9V16.1z M16.3,15.8l-0.1-3h1l-0.1,3H16.3z"/>
</g>
</svg>
