<?xml version="1.0" encoding="utf-8"?>
<!-- Generator: Adobe Illustrator 26.4.1, SVG Export Plug-In . SVG Version: 6.00 Build 0)  -->
<svg version="1.1" id="Layer_1" xmlns="http://www.w3.org/2000/svg" xmlns:xlink="http://www.w3.org/1999/xlink" x="0px" y="0px"
	 viewBox="0 0 18.5 29.5" style="enable-background:new 0 0 18.5 29.5;" xml:space="preserve">
<style type="text/css">
	.st0{fill:#231F20;}
</style>
<g id="Layer_1_00000013185632522172108010000008181809112407607991_">
	<path class="st0" d="M17,24.1l-5.4-2v0.5c0,0.5-1,1-2.4,1S7,23.1,7,22.7v-0.5l-5.4,2L0,29.5h18.5L17,24.1z M5.9,24.6
		c1,0.7,2.2,1.1,3.4,1c1.2,0.1,2.4-0.3,3.4-1l2.8,1l0.6,2H2.6l0.6-2L5.9,24.6z M17.4,17.9c-0.4-0.4-0.7-1-0.8-1.6
		c0-0.5,0-0.9,0.1-1.4c0.1-0.4,0.1-0.7,0.1-1.1c0.1-1.2-0.6-2.3-1.7-2.7c-1.1-0.3-2.2-0.1-3.1,0.5c-0.2-0.1-0.4-0.3-0.6-0.4
		c-1.4-0.9-3.2-0.9-4.5,0c-0.2,0.1-0.4,0.2-0.5,0.4c-0.9-0.6-2-0.8-3.1-0.5c-1.1,0.4-1.8,1.5-1.7,2.7c0,0.4,0.1,0.7,0.1,1.1
		c0.1,0.5,0.1,0.9,0.1,1.4c-0.1,0.6-0.4,1.2-0.8,1.6l-0.4,0.4h0.5c1.1,0,2.1-0.4,2.9-1.1l0,0c0.2-0.2,0.4-0.5,0.6-0.7
		c0.1,0.7,0.3,1.3,0.5,2c0.6,2.5,2.2,4.1,4,4.1c1.5,0,2.9-1.1,3.7-3.1l0.2-0.5c0.3-0.8,0.5-1.7,0.6-2.5c0.2,0.2,0.4,0.5,0.6,0.7
		l0.2,0.2l0,0c0.8,0.6,1.8,0.9,2.8,0.9l0.5-0.1L17.4,17.9z M11.9,16.4c-0.1,2.5-1.2,4.6-2.6,4.6s-2.5-2.1-2.6-4.6
		c1-0.2,1.9-0.7,2.6-1.5C10,15.6,10.9,16.1,11.9,16.4L11.9,16.4z M6.6,5.5C6.1,4.8,5.8,4.1,5.8,3.3C5.9,1.4,7.5-0.1,9.5,0
		c1.8,0.1,3.2,1.5,3.3,3.3c0,0.8-0.3,1.5-0.8,2.2C11.4,6.3,9.8,9,9.7,9.1L9.3,9.9L8.8,9.1C8.4,8.4,7.1,6.2,6.6,5.5z M9.3,2.3
		c-0.6,0-1,0.4-1,1s0.4,1,1,1s1-0.4,1-1S9.8,2.3,9.3,2.3z"/>
</g>
</svg>
