<?xml version="1.0" encoding="utf-8"?>
<!-- Generator: Adobe Illustrator 26.4.1, SVG Export Plug-In . SVG Version: 6.00 Build 0)  -->
<svg version="1.1" id="Layer_1" xmlns="http://www.w3.org/2000/svg" xmlns:xlink="http://www.w3.org/1999/xlink" x="0px" y="0px"
	 viewBox="0 0 18.6 30" style="enable-background:new 0 0 18.6 30;" xml:space="preserve">
<style type="text/css">
	.st0{fill:#231F20;}
</style>
<g id="Layer_1_00000118365935444521011870000007225921019760091018_">
	<path class="st0" d="M9.4,10.7L9.4,10.7H9.2c-0.2,0.1-4.8,1.7-4.6,4.7c0.1,1.2,0.3,2.5,0.7,3.7c0.6,2.5,2.2,4.1,4,4.1
		c1.5,0,2.9-1.2,3.7-3.1l0.1-0.4c0.5-1.4,0.8-2.8,0.9-4.2C14.1,12.4,9.6,10.8,9.4,10.7z M11.9,16.6c0,2.6-1.2,4.8-2.6,4.8
		s-2.6-2.3-2.6-4.8c0-0.1,0-0.2,0-0.4v-0.1c0.3-0.3,0.7-0.5,1.1-0.7c0.4,0.3,0.9,0.4,1.5,0.4c0.5,0,1-0.1,1.5-0.4
		c0.4,0.2,0.8,0.4,1.1,0.7v0.1C11.9,16.4,11.9,16.5,11.9,16.6z M17,24.6l-5.4-2v0.5c0,0.5-1,1-2.4,1s-2.4-0.5-2.4-1v-0.5l-5.2,1.9
		l-0.2,0.1L0,30h18.6L17,24.6z M5.9,25.1c1,0.7,2.2,1.1,3.4,1.1c1.2,0.1,2.4-0.3,3.4-1l2.8,1l0.5,2H2.6l0.6-2L5.9,25.1z M6.6,5.5
		C6.1,4.8,5.8,4.1,5.8,3.3C5.9,1.4,7.5-0.1,9.5,0c1.8,0.1,3.2,1.5,3.3,3.3c0,0.8-0.3,1.5-0.8,2.2C11.4,6.3,9.8,9,9.7,9.1L9.3,9.9
		L8.8,9.1C8.4,8.4,7.1,6.2,6.6,5.5z M9.3,2.2c-0.6,0-1,0.4-1,1s0.4,1,1,1s1-0.4,1-1S9.8,2.2,9.3,2.2z"/>
</g>
</svg>
