<?xml version="1.0" encoding="utf-8"?>
<!-- Generator: Adobe Illustrator 26.4.1, SVG Export Plug-In . SVG Version: 6.00 Build 0)  -->
<svg version="1.1" id="Layer_1" xmlns="http://www.w3.org/2000/svg" xmlns:xlink="http://www.w3.org/1999/xlink" x="0px" y="0px"
	 viewBox="0 0 23.1 32.7" style="enable-background:new 0 0 23.1 32.7;" xml:space="preserve">
<style type="text/css">
	.st0{fill:#231F20;}
</style>
<g id="Layer_1_00000138565999170469459820000000086267121591860113_">
	<path class="st0" d="M15.5,0v2.5h3.3l-4.1,4.2C10.9,3.5,5.3,3.9,2.1,7.6s-2.8,9.3,0.9,12.5c1.3,1.1,2.8,1.8,4.4,2v4.3H4v2.7h3.5
		v3.6h2.7v-3.6h3.5v-2.7h-3.5v-4.3c4.8-0.7,8.2-5.2,7.4-10.1c-0.2-1.2-0.6-2.4-1.3-3.5l4.2-4.2v3.3h2.5V0H15.5z M8.9,19.6
		c-3.4,0-6.2-2.8-6.2-6.2s2.8-6.2,6.2-6.2s6.2,2.8,6.2,6.2c0,0,0,0,0,0C15.1,16.8,12.3,19.6,8.9,19.6z M4.9,10.3h8V13h-8V10.3z
		 M4.9,13.8h8v2.7h-8V13.8z"/>
</g>
</svg>
