<?xml version="1.0" encoding="utf-8"?>
<!-- Generator: Adobe Illustrator 26.4.1, SVG Export Plug-In . SVG Version: 6.00 Build 0)  -->
<svg version="1.1" id="Layer_1" xmlns="http://www.w3.org/2000/svg" xmlns:xlink="http://www.w3.org/1999/xlink" x="0px" y="0px"
	 viewBox="0 0 32.2 26.6" style="enable-background:new 0 0 32.2 26.6;" xml:space="preserve">
<path d="M13.6,8.6l1.2,3.7L11.7,10l-3.1,2.3l1.2-3.7L6.7,6.3h3.8l1.2-3.7l1.2,3.7h3.9L13.6,8.6z M28,15h-1.7c1,1.3,1.6,2.8,1.6,4.4
	c0,3.9-3.2,7.2-7.2,7.2c-3.9,0-7.2-3.2-7.2-7.2c0-1.2,0.3-2.4,0.9-3.4H0V9.3h1c0.7,0,1.2-0.6,1.2-1.3S1.7,6.8,1,6.7H0V0h23.3v6.8
	h-1.1c-0.7,0-1.3,0.6-1.3,1.3s0.6,1.3,1.3,1.3h1.1v3.5c0.3,0.1,0.5,0.2,0.8,0.4l0.4,0.2l-1.3,1.2L23,14.6c-0.7-0.3-1.5-0.5-2.2-0.5
	c-2.9,0-5.3,2.4-5.3,5.3s2.4,5.3,5.3,5.3s5.3-2.4,5.3-5.3c0-1.2-0.4-2.2-1.1-3.1l-0.5,0.5c0.5,0.8,0.9,1.7,0.9,2.7
	c0,2.5-2.1,4.6-4.6,4.6s-4.6-2.1-4.6-4.6s2.1-4.6,4.6-4.6c0.5,0,1,0.1,1.5,0.2l0.5,0.2l-1.6,1.4H21c-0.1,0-0.2,0-0.3,0
	c-1.5,0-2.8,1.2-2.8,2.8c0,1.5,1.2,2.8,2.8,2.8c1.5,0,2.8-1.2,2.8-2.8c0-0.5-0.1-0.9-0.3-1.3l-0.5,0.5c0.1,0.2,0.2,0.5,0.2,0.8
	c0,1.1-0.9,2.1-2.1,2.1c-1.1,0-2.1-0.9-2.1-2.1s0.9-2.1,2.1-2.1c0.2,0,0.4,0,0.5,0.1l3.7-3.7V12l4.1-4.1V11h3.1L28,15z M21.2,11.3
	c-1.4-0.5-2.4-1.8-2.4-3.3s1-2.8,2.4-3.3V2.2h-19v2.6C3.6,5.3,4.5,6.6,4.5,8c0,1.5-0.9,2.8-2.3,3.2v2.6h14c1.2-1,2.8-1.6,4.5-1.6
	c0.2,0,0.3,0,0.5,0V11.3z"/>
</svg>
