<?xml version="1.0" encoding="utf-8"?>
<!-- Generator: Adobe Illustrator 26.4.1, SVG Export Plug-In . SVG Version: 6.00 Build 0)  -->
<svg version="1.1" id="Layer_1" xmlns="http://www.w3.org/2000/svg" xmlns:xlink="http://www.w3.org/1999/xlink" x="0px" y="0px"
	 viewBox="0 0 21.9 28.2" style="enable-background:new 0 0 21.9 28.2;" xml:space="preserve">
<path d="M0,5.5l8.3,9.9v12.8l5.3-5.3v-7.5l8.3-9.9C21.9,5.5,0,5.5,0,5.5z M11.3,14.6V22l-0.9,0.9v-8.3L4.6,7.7h12.5L11.3,14.6z
	 M6.4,0h1.3L6.6,3.7H5.4L5,2.3L4.6,3.7H3.3L2.2,0h1.4L4,1.6L4.5,0h1.1l0.5,1.6L6.4,0z M12.3,0h1.3l-1.1,3.7h-1.2l-0.4-1.4l-0.4,1.4
	H9.3L8.2,0h1.4L10,1.6L10.5,0h1.1l0.5,1.6L12.3,0z M19.6,0l-1.1,3.7h-1.2l-0.4-1.4l-0.4,1.4h-1.2L14.2,0h1.4L16,1.6L16.3,0h1.1
	l0.5,1.6L18.3,0C18.3,0,19.6,0,19.6,0z"/>
</svg>
