<?xml version="1.0" encoding="utf-8"?>
<!-- Generator: Adobe Illustrator 26.4.1, SVG Export Plug-In . SVG Version: 6.00 Build 0)  -->
<svg version="1.1" id="Layer_1" xmlns="http://www.w3.org/2000/svg" xmlns:xlink="http://www.w3.org/1999/xlink" x="0px" y="0px"
	 viewBox="0 0 29.2 22.1" style="enable-background:new 0 0 29.2 22.1;" xml:space="preserve">
<style type="text/css">
	.st0{fill:#231F20;}
</style>
<g id="Layer_1_00000005256273734222478530000004236455591309184435_">
	<path class="st0" d="M22.1,7.7V0L6.9,7H0v8.1h2.4v6.7h5.7v-6L22,22.1v-7.7c1.8-1.1,2.4-3.5,1.3-5.4c-0.3-0.5-0.8-1-1.3-1.3
		L22.1,7.7z M19.9,3.4v15.2L8.2,13.3V8.7L19.9,3.4z M6,15.1v4.5H4.6v-4.5H6z M2.2,12.9V9.1H6v3.8H2.2z M26.6,11
		c0,1.7-0.7,3.2-1.8,4.4l-0.2,0.2l-1.2-1.2l0.2-0.2c1.8-1.7,1.8-4.6,0-6.4c0,0,0,0,0,0l-0.2-0.2l1.2-1.2l0.2,0.2
		C26,7.8,26.6,9.4,26.6,11z M29.2,11c0,2.3-0.9,4.6-2.6,6.2l-0.2,0.2l-1.2-1.2l0.2-0.2c2.8-2.8,2.8-7.2,0-10c0,0,0,0,0,0l-0.2-0.2
		l1.2-1.2l0.2,0.2C28.2,6.5,29.2,8.7,29.2,11z"/>
</g>
</svg>
