<?xml version="1.0" encoding="utf-8"?>
<!-- Generator: Adobe Illustrator 26.4.1, SVG Export Plug-In . SVG Version: 6.00 Build 0)  -->
<svg version="1.1" id="Layer_1" xmlns="http://www.w3.org/2000/svg" xmlns:xlink="http://www.w3.org/1999/xlink" x="0px" y="0px"
	 viewBox="0 0 30.7 21.6" style="enable-background:new 0 0 30.7 21.6;" xml:space="preserve">
<style type="text/css">
	.st0{fill:#231F20;}
</style>
<g id="Layer_1_00000043423367376733692780000001784171235995362958_">
	<path class="st0" d="M22.1,8.4V0H8.5v8.4H0v13.2h30.7V8.4H22.1z M20.3,3.6v2.2l-1.5-1.3L20.3,3.6z M10.7,1.7H20l-4.6,2.8L10.7,1.7z
		 M15.4,6.6l2-1.2l3,2.7v0.2h-10V8.1l3-2.7L15.4,6.6z M10.4,5.8V3.6l1.5,0.9L10.4,5.8z M2,19.6v-9.2h26.8v9.2H2z M25.6,17
		c0,0.6-0.4,1-1,1s-1-0.4-1-1s0.4-1,1-1S25.6,16.5,25.6,17z M23,17c0,0.6-0.4,1-1,1s-1-0.4-1-1s0.4-1,1-1S23,16.5,23,17z M3.8,11.9
		h2V18h-2V11.9z M6.8,11.9h2V18h-2V11.9z M9.8,11.9h2V18h-2V11.9z"/>
</g>
</svg>
