<?xml version="1.0" encoding="utf-8"?>
<!-- Generator: Adobe Illustrator 26.4.1, SVG Export Plug-In . SVG Version: 6.00 Build 0)  -->
<svg version="1.1" id="Layer_1" xmlns="http://www.w3.org/2000/svg" xmlns:xlink="http://www.w3.org/1999/xlink" x="0px" y="0px"
	 viewBox="0 0 32.5 23.7" style="enable-background:new 0 0 32.5 23.7;" xml:space="preserve">
<path d="M10.2,10.8h1.1v4h-1.1V10.8z M10.4,5.7l0.5,0.5l0.4,0.4h0.6h0.7C12.9,7,13.1,7.5,13.1,8c0,1.3-1.1,2.4-2.4,2.4
	c-1.3,0-2.4-1.1-2.4-2.4C8.4,6.8,9.3,5.9,10.4,5.7z M9.5,8c0,0.7,0.6,1.2,1.2,1.2c0.7,0,1.2-0.6,1.2-1.2c0-0.7-0.6-1.2-1.2-1.2
	S9.5,7.3,9.5,8z M21.5,6.6h-1.1V10h1.1V6.6z M14.7,6.6h-1.1V10h1.1V6.6z M17,14.8h1.1v-4H17V14.8z M15.2,8c0-0.5,0.2-1,0.5-1.4h3.8
	C19.8,7,20,7.5,20,8c0,1.3-1.1,2.4-2.4,2.4S15.2,9.3,15.2,8z M16.3,8c0,0.7,0.6,1.2,1.2,1.2c0.7,0,1.2-0.6,1.2-1.2
	c0-0.7-0.6-1.2-1.2-1.2C16.9,6.8,16.3,7.3,16.3,8z M23.7,10.3V9c-0.3-0.2-0.5-0.6-0.5-1s0.2-0.8,0.5-1V6.6h-1.2C22.2,7,22,7.5,22,8
	C22,9.1,22.7,10,23.7,10.3z M16.5,12.8c0,1.3-1.1,2.4-2.4,2.4s-2.4-1.1-2.4-2.4s1.1-2.4,2.4-2.4C15.5,10.4,16.5,11.5,16.5,12.8z
	 M15.4,12.8c0-0.7-0.6-1.2-1.2-1.2c-0.7,0-1.2,0.6-1.2,1.2c0,0.7,0.6,1.2,1.2,1.2C14.9,14,15.4,13.5,15.4,12.8z M23.3,12.8
	c0,1.3-1.1,2.4-2.4,2.4s-2.4-1.1-2.4-2.4s1.1-2.4,2.4-2.4C22.3,10.4,23.3,11.5,23.3,12.8z M22.2,12.8c0-0.7-0.6-1.2-1.2-1.2
	c-0.7,0-1.2,0.6-1.2,1.2c0,0.7,0.6,1.2,1.2,1.2C21.7,14,22.2,13.5,22.2,12.8z M10.8,15.2c-1.2,0-2.1,0.8-2.3,1.9h1.1
	c0.2-0.5,0.6-0.8,1.1-0.8s1,0.3,1.1,0.8H13C12.9,16,11.9,15.2,10.8,15.2z M4.6,15.3v1.3c0.2,0.1,0.4,0.3,0.5,0.6h1.2
	C6.1,16.2,5.4,15.5,4.6,15.3z M13.6,17.1h1.1v-1.5h-1.1V17.1z M20.4,17.1h1.1v-1.5h-1.1V17.1z M6.8,17.1h1.1v-1.5H6.8V17.1z
	 M7.4,10.4c1.3,0,2.4,1.1,2.4,2.4s-1.1,2.4-2.4,2.4S5,14.1,5,12.8C5,11.5,6.1,10.4,7.4,10.4z M6.1,12.8c0,0.7,0.6,1.2,1.2,1.2
	c0.7,0,1.2-0.5,1.2-1.2s-0.6-1.2-1.2-1.2S6.1,12.1,6.1,12.8z M17.6,15.2c-1.2,0-2.1,0.8-2.3,1.9h1.2c0.1-0.5,0.6-0.8,1.1-0.8
	s1,0.3,1.1,0.8h1.2C19.7,16,18.7,15.2,17.6,15.2z M7.9,6H6.8v4h1.1V6z M6.3,8c0-1.1-0.7-2-1.7-2.3V7c0.3,0.2,0.6,0.6,0.6,1
	S5,8.8,4.6,9v1.3C5.6,10,6.3,9.1,6.3,8z M7.4,5.6c0.8,0,1.5-0.4,2-1L9,4.2H8.1C7.9,4.3,7.7,4.5,7.4,4.5S6.9,4.4,6.7,4.2H5.3
	C5.6,5.1,6.4,5.6,7.4,5.6z M28.6,17.4v3h-3.4v-2.9h0.3v-0.4c0-0.8,0.6-1.4,1.4-1.4c0.4,0,0.7,0.1,1,0.4c0.3,0.3,0.4,0.6,0.4,1v0.4
	L28.6,17.4L28.6,17.4z M26.4,17.4h1.1V17c0-0.1-0.1-0.3-0.2-0.4c-0.1-0.1-0.2-0.2-0.4-0.2c-0.3,0-0.5,0.2-0.5,0.6
	C26.4,17,26.4,17.4,26.4,17.4z M29.7,13.6c-0.5-0.3-1-0.5-1.6-0.6V2.7H12.3L9.6,0H0v21.1h22.3c1,1.6,2.8,2.6,4.7,2.6
	c3,0,5.5-2.5,5.5-5.5c0-0.8-0.2-1.6-0.5-2.3C31.9,16,31.4,14.6,29.7,13.6z M22.6,14.9c-0.4,0.4-0.6,0.9-0.8,1.4
	c-0.3,1-0.3,1.3-0.3,1.4v0.2c0,0.1,0,0.3,0,0.4c0,0.2,0,0.3,0,0.5H2.3V2.4h6.4l2.7,2.7h14.4V13c-0.8,0.2-1.5,0.5-2.2,1
	C23,14.4,22.7,14.8,22.6,14.9z M26.9,21.6c-1.8,0-3.3-1.5-3.3-3.3s1.5-3.3,3.3-3.3s3.3,1.5,3.3,3.3S28.7,21.6,26.9,21.6z"/>
</svg>
