<?xml version="1.0" encoding="utf-8"?>
<!-- Generator: Adobe Illustrator 26.4.1, SVG Export Plug-In . SVG Version: 6.00 Build 0)  -->
<svg version="1.1" id="Layer_1" xmlns="http://www.w3.org/2000/svg" xmlns:xlink="http://www.w3.org/1999/xlink" x="0px" y="0px"
	 viewBox="0 0 31.6 26.1" style="enable-background:new 0 0 31.6 26.1;" xml:space="preserve">
<style type="text/css">
	.st0{fill:#231F20;}
</style>
<g id="Layer_1_00000091710133008605977120000008768416498937595573_">
	<path class="st0" d="M19.1,7.1c-2.1,0-3.9,1.7-3.9,3.9s1.7,3.9,3.9,3.9S23,13.2,23,11S21.2,7.1,19.1,7.1L19.1,7.1z M21.3,11
		c0,1.2-1,2.2-2.2,2.2s-2.2-1-2.2-2.2s1-2.2,2.2-2.2h0C20.3,8.8,21.3,9.8,21.3,11L21.3,11z M26.2,13.6h1.9v1.9h-1.9V13.6z M28.1,6.6
		v1.9h-1.9v-2L28.1,6.6z M10.1,6.6h1.9v1.9h-1.8L10.1,6.6z M31.4,3.5H6.7v7.2c-0.4,0.1-0.9,0.2-1.3,0.3V2.2h22V0H3.2v12
		c-3.5,2.5-4.2,7.4-1.7,10.9s7.4,4.2,10.9,1.7c1.9-1.4,3.1-3.6,3.2-6h16L31.4,3.5z M8.8,5.7h20.5v10.7h-14c-0.8-3-3.3-5.3-6.4-5.8
		L8.8,5.7z M7.7,23.9c-3.1,0-5.6-2.5-5.6-5.6s2.5-5.6,5.6-5.6s5.6,2.5,5.6,5.6l0,0C13.3,21.4,10.8,23.8,7.7,23.9L7.7,23.9z M6.2,16
		c0-0.9,0.7-1.7,1.7-1.7s1.7,0.7,1.7,1.7c0,0.9-0.7,1.7-1.7,1.7l0,0C6.9,17.6,6.2,16.9,6.2,16z M11.2,21.2L11.2,21.2L11.2,21.2H4.5
		l0,0l0,0c0-1.8,1.5-3.3,3.3-3.3S11.1,19.3,11.2,21.2L11.2,21.2z"/>
</g>
</svg>
