<?xml version="1.0" encoding="utf-8"?>
<!-- Generator: Adobe Illustrator 26.4.1, SVG Export Plug-In . SVG Version: 6.00 Build 0)  -->
<svg version="1.1" id="Layer_1" xmlns="http://www.w3.org/2000/svg" xmlns:xlink="http://www.w3.org/1999/xlink" x="0px" y="0px"
	 viewBox="0 0 26.6 26.7" style="enable-background:new 0 0 26.6 26.7;" xml:space="preserve">
<path d="M22.7,3.9c-5.2-5.2-13.6-5.2-18.8,0s-5.2,13.7,0,18.9c2.5,2.5,5.9,3.9,9.4,3.9s6.9-1.4,9.4-3.9s3.9-5.9,3.9-9.4
	C26.7,9.7,25.3,6.4,22.7,3.9z M24.4,13.3c0,3-1.2,5.7-3.2,7.8c-4.3,4.3-11.3,4.3-15.6,0S1.3,9.8,5.6,5.5c2.1-2.1,4.9-3.2,7.8-3.2
	s5.7,1.1,7.8,3.2C23.2,7.6,24.4,10.3,24.4,13.3z M15.1,5.9h-0.4V5.2c0-0.5-0.2-0.9-0.5-1.2S13.4,3.5,13,3.5c-0.9,0-1.7,0.8-1.7,1.7
	v0.7H11v3.3h4.1V5.9z M12.1,5.2c0-0.5,0.4-0.9,0.9-0.9c0.3,0,0.5,0.1,0.6,0.3c0.2,0.2,0.3,0.4,0.3,0.6v0.7h-1.8V5.2z M20.2,16.4V20
	h-3.6v-3.6h1.9v-0.2h-2.3h-0.6h-2.3v0.2h1.5V20h-3.6v-3.6h1.5v-0.2h-2.3H9.7H7.4v0.2h1.9V20H5.7v-3.6h1v-0.9h3v-0.6h0.6v0.6h2.4h0.6
	h2.3v-0.6h0.6v0.6h2.9v0.9H20.2z M12.1,14.8H8.5v-3.6h1.3V10h2.9V9.3h0.6V10h2.9v1.2h1.3v3.6h-3.6v-3.6h1.6v-0.6h-2.3h-0.5h-2.3v0.6
	H12L12.1,14.8L12.1,14.8z"/>
</svg>
