<?xml version="1.0" encoding="UTF-8"?><svg id="Layer_1" xmlns="http://www.w3.org/2000/svg" viewBox="0 0 43.2 43.2"><path d="M29.92,20.83c-.52,.54-1.72-.07-1.41-1.24,.27-1,.59-1.1,.51-1.81-.09-.87-1.19-1.14-1.18-1.81,.01-.64,1.57-3.83-2.36-5.26-.16-.06-.29-.18-.37-.34-.25-.5-1.04-1.6-3.3-1.78-3.74-.3-4.33,1.93-4.6,2.17-.35,.32-1.25,.07-1.68,1.18-.37,.97,.32,1.21-.14,1.92-.42,.65-1.68,1.14-1.99,2.53-.42,1.93,1.09,2.3,1.13,3.61,.03,.82-.74,1.27-1.36,.81,.04,.48,.2,1.6,1.62,1.71,.2,.02,.39,0,.57-.02,.52,1.24,2.61,1.92,3.97,.58,.1-.09,.25-.09,.35,0,.79,.78,2.51,1.08,3.74-.06,.07-.06,.17-.09,.26-.05,.69,.27,3.07,.61,4.08-.88,.11,.02,.2,.04,.31,.05,1.46,.12,1.86-.9,1.84-1.32Zm-8.89,1.37c-1.58-.13-2.91-1.16-3.71-2.66-.04-.29-.11-.59-.22-.91-1.64-4.94,6.13-3.37,7.43-6.62,.28,.96,.88,1.14,.79,1.76-.01,.08-.03,.16-.05,.23-.12,.5-.34,.9-.06,1.57,.32,.77,1.24,1.17,.89,2.43-.07,.25-.13,.51-.17,.77-.94,2.18-2.83,3.61-4.9,3.44Zm-2.67,3.78l1.93,3.88,1.54,3.09,1.34-3.18,1.59-3.77,5.55,1.35,2.1,5.71H10.78l1.91-5.69,5.67-1.39m5.46-1.84l-2.11,5.02-2.49-5.02-7.69,1.89-3.05,8.61h26.27l-3.27-8.64-7.65-1.87h0Z"/></svg>