<?xml version="1.0" encoding="UTF-8"?><svg id="Layer_1" xmlns="http://www.w3.org/2000/svg" viewBox="0 0 43.2 43.2"><path d="M29.77,31.12h5.2l-3.44-8.64-3.78-.92,2.24-3.63h.03s0-.02,0-.04l.04-.07v-.21c0-4.75-3.62-10.06-8.46-10.06s-8.55,5.41-8.55,10.06v.22l.04,.07s0,.02,0,.03h.02l2.36,3.62-3.88,.95-3.37,8.61h5.28v3.03h-1.05v1.5H30.86v-1.5h-1.08v-3.03Zm-10.02-5.75l-5.02-7.7c.31-.34,1.17-.79,2.56-1.12,.14,3.69,2.02,6.62,4.3,6.62s4.15-2.92,4.3-6.59c1.35,.33,2.19,.77,2.49,1.1l-4.75,7.7h-3.89Zm-.96-9.09c.81-.11,1.72-.18,2.76-.18s2.02,.07,2.85,.19c-.06,3.09-1.51,5.37-2.81,5.37s-2.75-2.29-2.81-5.38Zm2.81-7.24c3.35,0,6.05,3.36,6.77,6.8-1.65-.85-4.29-1.25-6.82-1.25s-5.17,.4-6.81,1.25c.73-3.45,3.47-6.8,6.86-6.8ZM13.5,29.54h-2.96l2.23-5.69,3.62-.89,1.58,2.42h-4.46v4.16Zm14.77,0v4.61H15v-3.02h0v-1.58h0v-2.68h13.27v2.66Zm-2.87-4.16l1.48-2.4,3.49,.85,2.27,5.71h-2.87v-4.16h-4.37Z"/></svg>