<?xml version="1.0" encoding="UTF-8"?><svg id="Layer_1" xmlns="http://www.w3.org/2000/svg" viewBox="0 0 43.2 43.2"><path d="M33.89,31l.57-2.44-2.07-4.85c-.41-.9-1.54-1.3-2.54-.87-.12,.05-.24,.12-.35,.19,0,0-.45-.7-1.27-.57-.9,.15-1.34,.69-1.34,.69,0,0-.6-.61-1.78,.13l-.46-1.08-.65-1.53c-.06-.13-.13-.24-.21-.35,.15-1.85-.74-3.71-2.42-4.67-.2-.11-.4-.21-.61-.3-.03-.01-.06-.02-.08-.03,0-.03,0-.06,.01-.09,.06-.42,.06-.85,.01-1.27-.08-.71-.33-1.41-.71-2.01-.75-1.21-2.04-2.05-3.44-2.25l-.37-.05v.86c0,.31,.33,.38,.49,.41,.4,.13,.78,.36,1.08,.67,.58,.58,.87,1.42,.78,2.23-.02,.2-.07,.4-.14,.59-1.49-1.07-3.63-1.08-5.13-.03-.14-.39-.18-.81-.13-1.22,.08-.66,.43-1.29,.94-1.73,.31-.27,.69-.46,1.09-.56,.13-.03,.35-.14,.32-.57v-.65l-.37,.05c-1.86,.27-3.47,1.67-3.99,3.48-.14,.47-.2,.96-.2,1.46,0,.24,.03,.49,.07,.73-.03,.01-.05,.02-.08,.03-.16,.07-.32,.14-.47,.22-.86,.46-1.58,1.19-2.03,2.06-.65,1.25-.73,2.77-.21,4.07l.14,.35,.71-.41c.25-.14,.24-.34,.18-.53-.05-.18-.08-.37-.08-.56-.03-.5,.1-1.02,.36-1.48,.39-.69,1.07-1.16,1.86-1.3,0,.07,0,.15,0,.22,0,1.78,1.06,3.38,2.67,4.09-.18,.23-.38,.43-.62,.59-.67,.46-1.54,.59-2.31,.37-.4-.12-.77-.33-1.08-.62-.13-.14-.32-.34-.55-.2l-.77,.44,.23,.29c.94,1.19,2.38,1.86,3.86,1.86,.48,0,.96-.07,1.43-.22,.51-.16,1-.4,1.43-.71,.08-.06,.15-.11,.22-.17,0,0,0,0,0,0,.24,.19,.49,.35,.76,.5,.88,.46,1.9,.65,2.88,.53,.52-.06,1.02-.23,1.5-.46l.68,1.59,.81,1.89s-.95-.8-2.18-.23c0,0-.57,.23-.98,.89-.47,.89-.2,1.99,.68,2.51l5.63,3.36,.91,2.11,8.17-3.48-.83-1.95ZM13.15,18.07c.21,.11,.4,.25,.57,.42,.04,.04,.23,.26,.32,.37,.07,.09,.13,.2,.2,.33l.02,.05c.16,.33,.25,.7,.27,1.11-.83-.45-1.37-1.32-1.39-2.28Zm1.25-2.3c.85-.53,2-.52,2.84,.03-.56,.31-1.64,.7-2.84-.03Zm2.71,4.55c0-.15,.02-.3,.05-.44,.05-.22,.12-.44,.22-.65,.08-.15,.17-.3,.27-.43l.1-.12c.19-.22,.43-.43,.7-.6-.02,.94-.54,1.79-1.34,2.24Zm4.21-.6c-1.04,.45-1.57,1.61-1.17,2.6l.31,.71c-.51,.12-1.03,.12-1.52-.05-.5-.17-.95-.5-1.27-.92,1.57-.72,2.59-2.3,2.59-4.05,0-.09,0-.18,0-.28,.99,.17,1.82,.88,2.15,1.82-.02,0-.04,0-.05,0,0,0,0,0,0,0,0,0,0,0,0,0-.34-.03-.69,.01-1.02,.16Zm11.18,12.42l-5,2.13-.47-1.09-6.06-3.62c-.16-.1-.21-.31-.1-.47,.1-.16,.33-.22,.48-.13l4.74,2.79-3.65-8.47-.46-1.07-.24-.55c-.07-.17,.02-.38,.21-.46,.17-.07,.34,0,.43,.12l.13,.24,.46,1.07h.03s-.01,.03-.01,.03l2.22,5.2,1.59-.68-.93-2.18c-.04-.1-.03-.21,.08-.26,.11-.05,.23,0,.28,.1l1.07,2.52,1.59-.68-.84-1.97-.05-.12c-.04-.11,.01-.24,.13-.29,.11-.05,.25,0,.29,.1l1.1,2.57,1.59-.68-.74-1.72c-.04-.11,0-.22,.12-.27,.13-.06,.29,0,.32,.08l1.86,4.38-.57,2.44,.4,.93Z"/></svg>