<?xml version="1.0" encoding="UTF-8"?><svg id="Layer_1" xmlns="http://www.w3.org/2000/svg" viewBox="0 0 43.2 43.2"><path d="M31.15,17.55l-.7,.21,.14-.58,.46-1.95-1.95-.46-15.57-3.72-1.95-.47-.47,1.95-1.66,6.97-.47,1.95,1.95,.47,3.3,.79-.03,.27c-.02,.18-.03,.35-.03,.53,0,.96,.28,1.88,.78,2.66h-6.23v6.46h13.25v-5.1c.79-.56,1.41-1.36,1.76-2.28l.09-.24,2.7,.65,1.96,.47,.46-1.96,.08-.34,.51,.48,2.52,2.39,.81-3.38,.8-3.37,.81-3.38-3.33,.99Zm-11.18,8.75v4.31H10.73v-2.44h6.8v-2.21c-.81-.52-1.34-1.43-1.34-2.46,0-.11,0-.21,.02-.31l5.65,1.35c-.32,.84-1.02,1.5-1.88,1.77Zm-8.57-6.34l1.66-6.97,15.57,3.72-1.64,6.97-15.6-3.73Zm19.52,2.88l-1.33-1.26,.38-1.59,1.75-.52-.8,3.37Zm-15.42-7.47c0,.45-.37,.82-.82,.82s-.82-.37-.82-.82,.37-.82,.82-.82,.82,.37,.82,.82Z"/></svg>