<?xml version="1.0" encoding="UTF-8"?><svg id="Layer_1" xmlns="http://www.w3.org/2000/svg" viewBox="0 0 43.2 43.2"><path d="M30.83,14.33H12.37v6.27h7.75l-2.71,4.69h8.38l-2.71-4.69h7.75v-6.27Zm-17.16,4.96v-3.66h15.85v3.66h-7.2l-.73-1.27-.73,1.27h-7.2Zm5.99,4.69l1.93-3.35,1.93,3.35h-3.87Zm-4.11-6.46l-.59-.19,.15-.47,.59,.19v-.62h.49v.62l.59-.19,.15,.47-.59,.19,.37,.5-.4,.29-.37-.5-.37,.5-.4-.29,.37-.5Zm2.82,0l-.59-.19,.15-.47,.59,.19v-.62h.49v.62l.59-.19,.15,.47-.59,.19,.37,.5-.4,.29-.37-.5-.37,.5-.4-.29,.37-.5Zm8.47,0l-.59-.19,.15-.47,.59,.19v-.62h.49v.62l.59-.19,.15,.47-.59,.19,.37,.5-.4,.29-.37-.5-.37,.5-.4-.29,.37-.5Zm-2.82,0l-.59-.19,.15-.47,.59,.19v-.62h.49v.62l.59-.19,.15,.47-.59,.19,.37,.5-.4,.29-.37-.5-.37,.5-.4-.29,.37-.5Zm-2.82,0l-.59-.19,.15-.47,.59,.19v-.62h.49v.62l.59-.19,.15,.47-.59,.19,.37,.5-.4,.29-.37-.5-.37,.5-.4-.29,.37-.5Zm.18,5.69h.51v.5h-.51v-.5Zm.02-.18l-.04-1.68h.54l-.03,1.68h-.47Zm13.49,6.17V10.08H8.31V29.2h8.5v1.37h-2.29v2.54h14.17v-2.54h-2.29v-1.37h8.5Zm-2.34-16.75v14.38H10.65V12.45h21.89Z"/></svg>