<?xml version="1.0" encoding="utf-8"?>
<!-- Generator: Adobe Illustrator 27.2.0, SVG Export Plug-In . SVG Version: 6.00 Build 0)  -->
<svg version="1.1" id="Layer_1" xmlns="http://www.w3.org/2000/svg" xmlns:xlink="http://www.w3.org/1999/xlink" x="0px" y="0px"
	 viewBox="0 0 26.6 35.1" style="enable-background:new 0 0 26.6 35.1;" xml:space="preserve">
<path d="M11.2,10.8c-1.4,0-2.6,1.2-2.6,2.6S9.8,16,11.2,16s2.6-1.2,2.6-2.6S12.6,10.8,11.2,10.8z M11.2,14.6c-0.6,0-1.2-0.5-1.2-1.2
	c0-0.6,0.5-1.2,1.2-1.2s1.2,0.5,1.2,1.2C12.3,14.1,11.8,14.6,11.2,14.6z M19.2,8.8V8.5l0.3,0.2c0.7,0.6,1.2,1.3,1.7,2l0.2,0.3
	l-0.3-0.1C20,10.6,19.4,9.8,19.2,8.8z M19,20.6h-0.2v-0.1c-0.3-0.7-0.6-1.4-1.2-1.9l0,0v-2.4H19C19,16.2,19,20.6,19,20.6z
	 M20.1,21.5L20.1,21.5v0.2c-0.3,0.3-0.6,0.6-0.8,0.8l-0.2,0.2v-0.3c0-0.5-0.1-0.9-0.2-1.4l-0.1-0.2l0.2,0.1
	C19.4,21,19.8,21.2,20.1,21.5z M18.3,10.8c-1.4,0-2.6,1.2-2.6,2.6s1.2,2.6,2.6,2.6s2.6-1.2,2.6-2.6S19.7,10.8,18.3,10.8z M18.3,14.6
	c-0.6,0-1.2-0.5-1.2-1.2c0-0.6,0.5-1.2,1.2-1.2s1.2,0.5,1.2,1.2C19.4,14.1,18.9,14.6,18.3,14.6z M10.4,16.2h1.4v0.7h-0.1
	c-0.4,0.1-0.8,0.3-1.2,0.5l-0.2,0.1v-1.3H10.4z M19,10.7h-1.4V7.4l0.2,0.1C18.2,7.7,18.6,8,19,8.3l0,0C19,8.3,19,10.7,19,10.7z
	 M22.4,15.9h0.1V16c0,0.4-0.1,0.8-0.1,1.2v0.1h-0.1c-0.1,0-0.2-0.1-0.3-0.1c-0.6,0-1.2,0.5-1.2,1.2c0,0.5,0.3,0.9,0.8,1.1h0.1
	l-0.1,0.1c-0.2,0.4-0.4,0.7-0.6,1.1l-0.1,0.1h-0.1c-0.9-0.4-1.5-1.3-1.5-2.3C19.2,16.8,20.7,15.5,22.4,15.9z M22.5,15.5v0.1h-1.4
	v-4.4h0.3v0.1C22.1,12.6,22.5,14,22.5,15.5z M14,11.2h1.4v4.4H14V11.2z M17.3,18l0.1,0.3l-0.3-0.2c-1.1-0.9-2.4-1.4-3.8-1.4h-0.1
	h-0.4l0.3-0.2c0.5-0.4,1.1-0.7,1.7-0.7C16,15.8,17.1,16.7,17.3,18z M6.9,11.2h1.4v4.4H6.9C6.9,15.6,6.9,11.2,6.9,11.2z M16.9,7.1
	L16.9,7.1L16.9,7.1c-1.2-0.5-2.4-0.8-3.6-0.8l0,0l0,0c-0.7,0.5-1.1,1.3-1.1,2.1c0,1.4,1.2,2.6,2.6,2.6s2.6-1.2,2.6-2.6
	C17.3,8,17.2,7.5,16.9,7.1z M14.7,9.6c-0.6,0-1.2-0.5-1.2-1.2c0-0.6,0.5-1.2,1.2-1.2s1.2,0.5,1.2,1.2S15.4,9.6,14.7,9.6z M5.8,10.3
	L5.8,10.3v-0.2C6,9.8,6.3,9.4,6.6,9.2l0.1-0.1l0.1,0.1C7,9.5,7.3,9.6,7.7,9.6c0.6,0,1.2-0.5,1.2-1.2c0-0.2-0.1-0.5-0.2-0.7L8.6,7.6
	l0.1-0.1c0.4-0.2,0.8-0.4,1.1-0.6h0.1L10,7c0.3,0.4,0.4,0.9,0.4,1.4c0,1.4-1.2,2.6-2.6,2.6C6.9,11.1,6.3,10.8,5.8,10.3z M10.1,17.6
	L10.1,17.6v0.1C9.7,18,9.4,18.3,9,18.6L8.7,19l0.1-0.4v-0.1v-0.1c0-0.6-0.5-1.2-1.2-1.2s-1.2,0.5-1.2,1.2c0,0.6,0.5,1.2,1.2,1.2
	c0.2,0,0.3,0,0.5-0.1l0.4-0.2l-0.2,0.3c-0.2,0.4-0.4,0.8-0.5,1.3V21H7.7c-1.4,0-2.6-1.2-2.6-2.6c0-1.4,1.2-2.6,2.6-2.6
	C8.7,15.8,9.7,16.5,10.1,17.6z M6.9,21.1h0.8v0.2c-0.1,0.4-0.1,0.8-0.1,1.2v0.3l-0.2-0.2c-0.1-0.1-0.2-0.2-0.3-0.3L7,22.2L6.9,21.1
	L6.9,21.1z M4.2,16H4.1v-0.1v-0.1c0-0.1,0-0.1,0-0.2c0-0.3,0-0.6,0-0.9v-0.1h0.1c0.6-0.1,1-0.6,1-1.1c0-0.4-0.2-0.7-0.5-0.9
	l-0.1-0.1v-0.1c0.2-0.4,0.3-0.8,0.5-1.1l0.1-0.1l0.1,0.1c0.8,0.5,1.4,1.3,1.4,2.3C6.7,14.8,5.6,15.9,4.2,16z M4.1,16.2h0.7v3
	l-0.2-0.7C4.4,17.8,4.2,17.1,4.1,16.2L4.1,16.2z M11.9,28.6c0-0.8,0.6-1.4,1.4-1.4s1.4,0.6,1.4,1.4c0,0.6-0.3,1.1-0.8,1.3V32h-1.2
	v-2.1C12.2,29.7,11.9,29.2,11.9,28.6z M22.4,5.7c-1.6-1.5-3.6-2.6-5.8-3.2l-0.4-0.1l-0.8,2.1l0.5,0.1c1.8,0.5,3.5,1.4,4.9,2.7
	c4.5,4.2,4.7,11.2,0.5,15.7c-0.5,0.5-1,0.9-1.5,1.3v-0.2h-1.6v-1.5c0-2.8-2.2-5-5-5s-5,2.2-5,5v1.5H6.6v0.2
	c-0.4-0.3-0.7-0.5-0.9-0.8c-2.2-2-3.4-4.8-3.5-7.7c-0.1-3,1-5.8,3-8c1.4-1.4,3.1-2.5,5-3L9.5,5.9l1.3,0.8c-0.1,0-0.1,0-0.2,0.1h-0.1
	v3.9h1.4V6.4h-0.1h-0.1l0,0L14,2.8L9.9,0L8.7,1.9l1,0.7H9.6c-2.3,0.7-4.4,1.9-6,3.7c-2.4,2.6-3.7,6-3.6,9.5c0.1,3.6,1.6,6.8,4.2,9.3
	c0.7,0.7,1.5,1.3,2.4,1.8v8.2h13.3v-8.2c1.2-0.7,2.2-1.5,3.1-2.4C28,19.1,27.8,10.7,22.4,5.7z M10.5,22.6c0-1.5,1.2-2.8,2.8-2.8
	s2.8,1.2,2.8,2.8v1.5h-5.5L10.5,22.6L10.5,22.6z M17.7,32.9H8.8v-6.6h8.9V32.9z"/>
</svg>
