<?xml version="1.0" encoding="utf-8"?>
<!-- Generator: Adobe Illustrator 27.2.0, SVG Export Plug-In . SVG Version: 6.00 Build 0)  -->
<svg version="1.1" id="Layer_1" xmlns="http://www.w3.org/2000/svg" xmlns:xlink="http://www.w3.org/1999/xlink" x="0px" y="0px"
	 viewBox="0 0 30.5 30.8" style="enable-background:new 0 0 30.5 30.8;" xml:space="preserve">
<path d="M20.4,14.3v1.1h1.4v-1c0.6,0,1.2-0.2,1.7-0.4c0.5-0.3,0.9-0.6,1.2-1c0.3-0.4,0.4-0.9,0.4-1.5c0-0.5-0.1-1-0.4-1.4
	c-0.3-0.4-0.7-0.7-1.2-1c-0.5-0.2-1-0.4-1.6-0.6V6.2c0.3,0.1,0.5,0.2,0.7,0.4c0.2,0.2,0.3,0.5,0.4,0.9l0,0.1l2.1,0l0-0.1
	C25,7,24.9,6.4,24.6,6c-0.3-0.5-0.7-0.9-1.2-1.1c-0.5-0.3-1-0.5-1.6-0.5V3.4h-1.4v0.9c-0.6,0.1-1.1,0.2-1.6,0.5
	C18.4,5,18,5.4,17.7,5.8c-0.3,0.4-0.4,0.9-0.4,1.4c0,0.8,0.3,1.5,0.9,1.9c0.6,0.4,1.3,0.7,2.2,0.9v2.3c-0.3-0.1-0.6-0.3-0.8-0.5
	c-0.3-0.3-0.4-0.6-0.4-1.1l0-0.1h-2.1l0,0.1c0,1,0.3,1.9,1,2.4C18.8,13.8,19.5,14.2,20.4,14.3z M19.3,7.2c0-0.2,0-0.3,0.1-0.5
	c0.1-0.2,0.2-0.3,0.4-0.4c0.2-0.1,0.3-0.1,0.6-0.2v2c-0.4-0.1-0.6-0.2-0.8-0.4C19.4,7.6,19.3,7.4,19.3,7.2z M23,11.5
	c0,0.3-0.1,0.5-0.3,0.7c-0.2,0.2-0.5,0.3-0.8,0.3v-2.1c0.2,0.1,0.4,0.2,0.6,0.2c0.2,0.1,0.3,0.2,0.4,0.4C23,11.2,23,11.3,23,11.5z
	 M21.1,18.8c5.2,0,9.4-4.2,9.4-9.4S26.3,0,21.1,0s-9.4,4.2-9.4,9.4S15.9,18.8,21.1,18.8z M13.7,9.4C13.7,5.3,17,2,21.1,2
	s7.4,3.3,7.4,7.4s-3.3,7.4-7.4,7.4S13.7,13.5,13.7,9.4z M28.7,21.7c-0.8-0.4-1.7-0.6-2.6-0.3l-4.4,1.1l-0.4-0.2l-7-4
	c-1.4-0.8-3-1-4.5-0.6L0,20.3l2.9,8.8l6.3-1.7l4.4,2.6c0.9,0.5,2,0.8,3,0.8c0.5,0,1-0.1,1.5-0.2L28,28c1.8-0.5,2.9-2.3,2.4-4.1
	C30.2,23,29.5,22.2,28.7,21.7z M19.7,24.9c-0.2,0.2-0.4,0.4-0.7,0.5c-0.3,0.1-0.6,0-0.9-0.1l-4.4-2.3l-1.1,1.7l4.5,2.3
	c0.7,0.4,1.6,0.5,2.5,0.3c0.8-0.2,1.5-0.7,2-1.4c0.3-0.4,0.4-0.8,0.4-1.3l4.7-1.1c0.3-0.1,0.7,0,1.1,0.1c0.4,0.2,0.6,0.5,0.7,0.9
	c0.2,0.7-0.2,1.4-1,1.5l-9.7,2.6c-1,0.3-2.1,0.1-3-0.4l-5.1-3l0,0l-5.3,1.4l-1.6-4.9l7.7-2c1-0.3,2.1-0.1,3,0.4l6,3.4
	c0.2,0.2,0.4,0.4,0.5,0.6C19.8,24.4,19.8,24.6,19.7,24.9z"/>
</svg>
