<?xml version="1.0" encoding="iso-8859-1"?>
<!-- Generator: Adobe Illustrator 26.4.1, SVG Export Plug-In . SVG Version: 6.00 Build 0)  -->
<svg version="1.1" id="Black" xmlns="http://www.w3.org/2000/svg" xmlns:xlink="http://www.w3.org/1999/xlink" x="0px" y="0px"
	 viewBox="0 0 88.587 90" style="enable-background:new 0 0 88.587 90;" xml:space="preserve">
<path d="M67.28,22.758c-12.503-12.503-32.842-12.503-45.345,0c-12.5,12.5-12.5,32.842,0,45.343
	c6.045,6.045,14.097,9.375,22.672,9.375s16.627-3.33,22.672-9.375c6.057-6.054,9.391-14.107,9.391-22.672
	C76.671,36.865,73.337,28.813,67.28,22.758z M71.168,45.428c0,7.096-2.765,13.764-7.78,18.78c-10.36,10.353-27.205,10.353-37.56,0
	c-10.355-10.355-10.355-27.203,0-37.558c5.009-5.009,11.677-7.766,18.78-7.766s13.771,2.758,18.78,7.766
	C68.403,31.666,71.168,38.335,71.168,45.428z M59.056,54.13V32.882H29.567V54.13h9.935v2.241h-2.419v4.132h14.453v-4.132h-2.411
	V54.13H59.056z M54.924,37.014v12.999H33.699V37.014H54.924z M75.092,79.902v5.087h-5.085V71.244h13.745v5.085h-5.043l9.878,9.877
	l-3.595,3.595L75.092,79.902z M9.922,76.505H4.835V71.42H18.58v13.745h-5.085v-5.043L3.619,90l-3.595-3.595L9.922,76.505z
	 M13.496,10.3V5.213h5.085v13.745H4.835v-5.085h5.043L0,3.996l3.595-3.595L13.496,10.3z M78.677,13.495h5.087v5.085H70.019V4.835
	h5.085v5.043L84.981,0l3.595,3.595L78.677,13.495z"/>
</svg>
