<?xml version="1.0" encoding="iso-8859-1"?>
<!-- Generator: Adobe Illustrator 26.4.1, SVG Export Plug-In . SVG Version: 6.00 Build 0)  -->
<svg version="1.1" id="Black" xmlns="http://www.w3.org/2000/svg" xmlns:xlink="http://www.w3.org/1999/xlink" x="0px" y="0px"
	 viewBox="0 0 63.233 80" style="enable-background:new 0 0 63.233 80;" xml:space="preserve">
<path d="M46.064,49.385c-1.564-1.422-3.337-2.572-5.242-3.456c3.441-2.76,5.694-6.972,5.694-11.747
	c0-8.303-6.684-15.058-14.901-15.058c-8.215,0-14.898,6.755-14.898,15.058c0,4.775,2.253,8.987,5.693,11.747
	c-1.904,0.884-3.674,2.034-5.235,3.454c-4.045,3.667-6.362,8.792-6.362,14.063V80h41.606V63.446
	C52.42,58.176,50.103,53.051,46.064,49.385z M22.905,34.182c0-4.89,3.909-8.868,8.71-8.868c4.805,0,8.713,3.978,8.713,8.868
	c0,4.889-3.909,8.867-8.713,8.867C26.814,43.049,22.905,39.071,22.905,34.182z M41.903,53.967c2.752,2.495,4.329,5.95,4.329,9.479
	v10.365H17.001V63.446c0-3.53,1.58-6.985,4.335-9.48c2.74-2.495,6.391-3.87,10.279-3.87S39.157,51.471,41.903,53.967z M10.56,27.75
	L0,22.295l2.216-4.714l10.56,5.455L10.56,27.75z M14.734,20.293l-7.965-9.084l3.691-3.554l7.965,9.084L14.734,20.293z
	 M21.197,14.922L16.899,3.435l4.666-1.919l4.298,11.487L21.197,14.922z M29.074,12.36L29.025,0.021L34.037,0l0.049,12.339
	L29.074,12.36z M41.983,14.831L37.3,12.953l4.206-11.525l4.683,1.878L41.983,14.831z M48.484,20.147l-3.717-3.524l7.894-9.154
	l3.717,3.524L48.484,20.147z M52.719,27.565l-2.252-4.693l10.514-5.545l2.252,4.693L52.719,27.565z"/>
</svg>
