<?xml version="1.0" encoding="iso-8859-1"?>
<!-- Generator: Adobe Illustrator 26.4.1, SVG Export Plug-In . SVG Version: 6.00 Build 0)  -->
<svg version="1.1" id="Black" xmlns="http://www.w3.org/2000/svg" xmlns:xlink="http://www.w3.org/1999/xlink" x="0px" y="0px"
	 viewBox="0 0 80 80.332" style="enable-background:new 0 0 80 80.332;" xml:space="preserve">
<g>
	<path d="M56.671,50.782c10.576-13.998,7.776-33.905-6.221-44.481C36.452-4.275,16.545-1.164,6.28,12.833
		c-10.265,13.998-7.776,33.905,6.221,44.481c11.198,8.398,26.751,8.398,38.26,0l23.018,23.018L80,74.111L56.671,50.782z
		 M31.475,56.381c-13.375,0-24.262-10.887-24.262-24.262S18.1,7.856,31.475,7.856s24.262,10.576,24.262,23.951
		C55.738,45.494,44.851,56.381,31.475,56.381z"/>
	<g id="Layer_1_00000094619602812062764680000013825453835946291845_">
		<path d="M27.421,35.862h-3.244V24.51h3.244V35.862z M46.342,24.51h-2.973v11.352h3.244L46.342,24.51z M42.017,30.186
			c0-3.784-2.973-6.757-6.757-6.757s-6.757,2.973-6.757,6.757s2.973,6.757,6.757,6.757C38.773,36.943,42.017,33.97,42.017,30.186
			 M38.773,30.186c0,1.892-1.622,3.514-3.514,3.514s-3.514-1.622-3.514-3.514s1.622-3.514,3.514-3.514l0,0
			C37.152,26.672,38.773,28.294,38.773,30.186L38.773,30.186 M37.963,38.565h-3.244v11.352h3.244V38.565z M49.856,25.591
			c-2.433,2.703-2.433,7.028,0.27,9.46c0.27,0.27,0.27,0.27,0.541,0.541c0.27-1.081,0.27-2.433,0.27-3.514
			C50.937,29.645,50.396,27.483,49.856,25.591 M43.639,23.428c1.622,0,3.244-0.541,4.325-1.622
			c-0.541-1.081-1.081-1.892-1.892-2.703c-1.351,1.351-3.514,1.622-4.865,0.27c-1.351-1.081-1.622-3.244-0.541-4.595
			c-1.081-0.541-1.892-1.081-2.973-1.351c-1.892,3.244-0.541,7.298,2.703,8.92C41.206,23.158,42.558,23.428,43.639,23.428
			 M34.989,22.347v-9.46c-1.081-0.27-2.162-0.27-3.244-0.27v9.731L34.989,22.347L34.989,22.347z M23.907,23.428
			c3.784,0,6.757-2.973,6.757-6.757c0-1.351-0.541-2.973-1.351-4.054c-1.351,0.27-2.703,0.541-4.054,0.811
			c1.622,0.811,2.433,2.703,1.892,4.595c-0.811,1.351-1.892,2.162-3.244,2.162c-1.892,0-3.514-1.622-3.514-3.514l0,0
			c0-0.27,0-0.541,0-0.811c-1.081,0.811-2.162,1.622-2.973,2.703C18.231,21.266,20.664,23.428,23.907,23.428 M14.447,22.347h1.351
			v-2.162C15.258,20.996,14.987,21.536,14.447,22.347 M16.339,36.943c-1.351,0-2.973-0.541-4.054-1.351
			c-0.27-1.351-0.27-2.433-0.27-3.784c0-2.703,0.541-5.406,1.622-7.839c0.811-0.27,1.892-0.541,2.703-0.541
			c3.514,0.27,6.487,3.514,6.217,7.028C22.285,33.97,19.582,36.673,16.339,36.943 M16.339,33.7c1.892,0,3.514-1.622,3.514-3.514
			s-1.622-3.514-3.514-3.514s-3.514,1.622-3.514,3.514l0,0C12.825,32.078,14.447,33.7,16.339,33.7 M14.987,38.565v3.514
			c0.811,1.351,1.892,2.703,3.244,4.054v-7.568H14.987z M27.151,50.999c-2.433-0.541-4.865-1.622-6.757-2.973
			c-1.892-3.244-1.081-7.298,2.162-9.19s7.298-1.081,9.19,2.162c1.892,3.244,1.081,7.298-2.162,9.19
			C28.772,50.458,27.962,50.728,27.151,50.999 M29.583,44.241c0-1.892-1.622-3.514-3.514-3.514s-3.514,1.622-3.514,3.514
			s1.622,3.514,3.514,3.514S29.583,46.133,29.583,44.241L29.583,44.241 M39.314,44.782c0,1.622,0.541,2.973,1.622,4.325
			c0.811-0.541,1.892-1.081,2.703-1.892c-0.541-0.541-1.081-1.622-1.081-2.433c0-1.892,1.622-3.514,3.514-3.514l0,0
			c0.811,0,1.351,0.27,2.162,0.541c0.541-0.811,1.081-1.892,1.351-2.973c-1.081-0.541-2.162-1.081-3.514-1.081
			C42.287,38.024,39.314,40.998,39.314,44.782"/>
	</g>
</g>
</svg>
