<svg xmlns="http://www.w3.org/2000/svg" xmlns:xlink="http://www.w3.org/1999/xlink" viewBox="0 0 1000 302.85"><defs><style>.cls-1{fill:url(#linear-gradient);}.cls-2{fill:#1c164c;}</style><linearGradient id="linear-gradient" x1="47.14" y1="207.87" x2="166.33" y2="36.23" gradientUnits="userSpaceOnUse"><stop offset="0" stop-color="#c3c"/><stop offset="0.15" stop-color="#b141da"/><stop offset="0.48" stop-color="#6c63fc"/><stop offset="0.5" stop-color="#66f"/><stop offset="0.99" stop-color="#69f"/></linearGradient></defs><g id="Layer_2" data-name="Layer 2"><g id="Layer_1-2" data-name="Layer 1"><path class="cls-1" d="M90.25,4.88l-72,41.59A36.41,36.41,0,0,0,0,78v83.2a36.4,36.4,0,0,0,18.2,31.52L90.25,234.3a36.34,36.34,0,0,0,36.39,0l72.05-41.59a36.4,36.4,0,0,0,18.2-31.52V78a36.41,36.41,0,0,0-18.2-31.52l-72-41.59A36.34,36.34,0,0,0,90.25,4.88ZM27.15,162.42V76.79a7.28,7.28,0,0,1,3.64-6.3l74-42.72a7.29,7.29,0,0,1,7.31,0l23.45,13.69L81.65,72.59h0v94L54.4,182.35,30.79,168.72A7.28,7.28,0,0,1,27.15,162.42Zm158.94,6.27-74,42.72a7.29,7.29,0,0,1-7.31,0L81.35,197.7l53.89-31.11h0v-94l27.25-15.73,23.61,13.63a7.26,7.26,0,0,1,3.64,6.3v85.63A7.26,7.26,0,0,1,186.09,168.69Z"/><path class="cls-2" d="M741.84,248.4h-7.49C734,241.14,728.79,238,721.22,238s-12.43,3.12-12.43,9.07,4.94,8,10.5,8.92l7,1.24c8.15,1.43,16.06,5.13,16.06,15.64s-8.8,16.49-20.31,16.49-22-5.95-22.4-19.31h7.5c.54,9,6.72,12.74,14.9,12.74S735,279,735,272.92s-5.37-8.14-11.2-9.19l-7-1.23c-7.41-1.32-15.37-5-15.37-15.37s9-15.72,19.85-15.72S741.38,236.82,741.84,248.4Z"/><path class="cls-2" d="M787.17,275.43c-1.16,6.11-6.41,13.91-19.15,13.91-13.29,0-20.39-8.11-20.39-21.24s7.88-21.24,20.23-21.24c12.52,0,19.16,8.11,19.16,19.31V270H754.54c.46,9,6,13.28,13.48,13.28s10.77-3.32,11.89-7.88Zm-32.44-11.2h25.34c-.31-7.41-4.87-11.35-12.21-11.35C761.22,252.88,755.89,256.67,754.73,264.23Z"/><path class="cls-2" d="M832.48,272.34c-.62,9.66-7.42,17-19.47,17s-20.62-7.57-20.62-21.24S801,246.86,813,246.86s18.69,7.33,19.16,15.83H825c-.69-5.64-4.24-9.65-12-9.65-8.11,0-13.59,5.4-13.59,15.06s5.48,15.06,13.59,15.06c7.8,0,11.74-4.48,12.28-10.82Z"/><path class="cls-2" d="M876.17,248v40.16H869.3V283.7c0-.39-.15-.54-.54-.54s-.54.23-.85.61c-2.7,3.4-6.72,5.57-12.59,5.57-10,0-16.22-5.8-16.22-16.22V248h6.95V272c0,7.34,3.87,11.2,10.82,11.2,7.72,0,12.35-4.64,12.35-14.29V248Z"/><path class="cls-2" d="M885.58,288.18V248h6.95v5.4c0,.39.16.54.54.54s.62-.23.77-.62c1.78-3.86,4.56-5.48,10-5.48h4.48v6.8H902.8c-6.71,0-10.27,3-10.27,10.73v22.79Z"/><path class="cls-2" d="M912.13,232.57h10v9.27h-10ZM913.68,248h7v40.16h-7Z"/><path class="cls-2" d="M925.94,254.19V248h9.26V237.2h7V248h11.58v6.17H942.16v26.65a1.07,1.07,0,0,0,1.15,1.16h10.43v6.18h-7c-7.84,0-11.59-3.75-11.59-11.59v-22.4Z"/><path class="cls-2" d="M957.77,249.56V248h7l11.51,33.75c.15.46.31.61.77.61s.62-.15.77-.61L989.36,248h7v1.54l-15.06,43.25c-2.63,7.57-6.49,10-15,10h-6.48v-6.18h11.5a1.5,1.5,0,0,0,1.63-1l2.16-5.83c.23-.62.31-1,.07-1.32s-.38-.38-1-.38h0a4.23,4.23,0,0,1-4-2.85Z"/><path class="cls-2" d="M380.74,88.55H361.31c-1-18.83-14.42-27-34.05-27S295,69.62,295,85c0,15.22,12.82,20.63,27.24,23.13l18.22,3.21c21.13,3.7,41.66,13.32,41.66,40.56s-22.83,42.75-52.67,42.75-57.08-15.42-58.08-50.07h19.42c1.41,23.44,17.43,33,38.66,33s33.44-9.71,33.44-25.53S349,131,333.87,128.3l-18.22-3.2c-19.23-3.41-39.86-13-39.86-39.86s23.44-40.75,51.47-40.75S379.54,58.51,380.74,88.55Z"/><path class="cls-2" d="M497,87.55v4L451.76,130.3,497,187.68v4H477.29l-38.85-50-19.53,16.72v33.25h-18V47.49h18V136l55-48.46Z"/><path class="cls-2" d="M507.24,91.55v-4h18.22l29.84,87.52c.4,1.2.81,1.6,2,1.6s1.6-.4,2-1.6l29.84-87.52h18.23v4L568.32,203.71c-6.81,19.62-16.82,26-38.85,26H512.65v-16h29.84c2.3,0,3.6-.8,4.2-2.5l5.61-15.12c.6-1.61.8-2.61.2-3.41s-1-1-2.6-1h0a11,11,0,0,1-10.38-7.38Z"/><path class="cls-2" d="M620.83,191.69V47.49h18V99c0,1,.4,1.4,1.4,1.4s1.4-.6,2.2-1.6c6.61-8.81,17.23-14.22,32.45-14.22,26,0,42.06,15,42.06,42.06v65.09h-18V129.6c0-19-10-29-28-29-20,0-32,12-32,37.06v54.07Z"/><path class="cls-2" d="M735.69,47.49h26v24h-26Zm4,40.06h18V191.69h-18Z"/><path class="cls-2" d="M795.62,195.09c2.1,13,13,21.63,32.24,21.63,21.73,0,34.25-12.81,34.25-35v-7.21a1.06,1.06,0,0,0-1.2-1.21,1.91,1.91,0,0,0-1.8,1c-8,10.41-19.83,14.42-34.05,14.42-26.24,0-50.27-18-50.27-52.08s24-52.07,50.27-52.07c14.22,0,25.63,4.41,34.25,14.62,1.4,1.8,2.2,2.2,3.2,2.2,1.2,0,1.4-.6,1.8-1.8l3.81-12h12v93.12c0,33.05-19.62,52.08-52.47,52.08-32.24,0-50-15.62-52.07-37.66Zm32.44-22.43c19,0,35.05-13,35.05-36s-16-36.05-35.05-36.05-35,13-35,36.05S809,172.66,828.06,172.66Z"/><path class="cls-2" d="M903.87,191.69V47.49h18V99c0,1,.4,1.4,1.4,1.4s1.41-.6,2.21-1.6c6.61-8.81,17.22-14.22,32.44-14.22,26,0,42.06,15,42.06,42.06v65.09H982V129.6c0-19-10-29-28-29-20,0-32.05,12-32.05,37.06v54.07Z"/></g></g></svg>