<?xml version="1.0" encoding="utf-8"?>
<!-- Generator: Adobe Illustrator 26.0.1, SVG Export Plug-In . SVG Version: 6.00 Build 0)  -->
<svg version="1.1" id="Layer_1" xmlns="http://www.w3.org/2000/svg" xmlns:xlink="http://www.w3.org/1999/xlink" x="0px" y="0px"
	 viewBox="0 0 500 500" style="enable-background:new 0 0 500 500;" xml:space="preserve">
<style type="text/css">
	.st0{fill:#FFFFFF;}
</style>
<path class="st0" d="M266,359.8h-32V237.1h32V359.8z M277.3,413.8c0-15.1-12.2-27.3-27.3-27.3s-27.3,12.2-27.3,27.3
	c0,15.1,12.2,27.3,27.3,27.3c0,0,0,0,0,0C265.1,441.1,277.3,428.9,277.3,413.8L277.3,413.8z M198.7,413.8c0-5.4,0.9-10.8,2.6-16
	h-97.5L250,144.4l146.3,253.4h-97.5c3.4,10.4,3.4,21.6,0,32h153L250,80.4L48.3,429.8h153C199.6,424.6,198.7,419.2,198.7,413.8
	L198.7,413.8z"/>
</svg>
