<?xml version="1.0" encoding="utf-8"?>
<!-- Generator: Adobe Illustrator 26.0.1, SVG Export Plug-In . SVG Version: 6.00 Build 0)  -->
<svg version="1.1" id="Layer_1" xmlns="http://www.w3.org/2000/svg" xmlns:xlink="http://www.w3.org/1999/xlink" x="0px" y="0px"
	 viewBox="0 0 500 500" style="enable-background:new 0 0 500 500;" xml:space="preserve">
<style type="text/css">
	.st0{fill:#FFFFFF;}
</style>
<path class="st0" d="M81.7,257.4h166.7v32H113.7v130.2h-32V257.4z M298,144.2c0,39.7-32.1,71.8-71.8,71.8s-71.8-32.1-71.8-71.8
	s32.1-71.8,71.8-71.8C265.8,72.5,298,104.6,298,144.2z M266,144.2c0-22-17.8-39.8-39.8-39.8c-22,0-39.8,17.8-39.8,39.8
	s17.8,39.8,39.8,39.8C248.1,184,266,166.2,266,144.2z M407.3,302.9v112.2l-53.8-27.4l-52.5,28V305.2c-21.2-28.9-15-69.6,14-90.8
	s69.6-15,90.8,14C421.9,250.4,422.5,280.2,407.3,302.9L407.3,302.9z M320.4,266.9c0,18.2,14.8,33,33,33c18.2,0,33-14.8,33-33
	c0-18.2-14.8-33-33-33c0,0,0,0,0,0C335.1,233.9,320.4,248.7,320.4,266.9z M375.3,363v-35c-13.7,4.9-28.6,5.1-42.4,0.6v33.9
	l20.2-10.8L375.3,363z"/>
</svg>
