<?xml version="1.0" encoding="utf-8"?>
<!-- Generator: Adobe Illustrator 26.0.1, SVG Export Plug-In . SVG Version: 6.00 Build 0)  -->
<svg version="1.1" id="Layer_1" xmlns="http://www.w3.org/2000/svg" xmlns:xlink="http://www.w3.org/1999/xlink" x="0px" y="0px"
	 viewBox="0 0 500 500" style="enable-background:new 0 0 500 500;" xml:space="preserve">
<style type="text/css">
	.st0{fill:#FFFFFF;}
</style>
<path class="st0" d="M328.8,310.3c0,2.9-0.1,5.9-0.5,8.8l-31.8-3.3c3-28.9-18.1-54.8-47-57.8c-7.7-0.8-15.6,0.1-22.9,2.7l15.7,3.5
	l-7,31.2L165,279.8l15.6-71.2l31.3,6.9l-4.1,18.5c42.3-20,92.7-2,112.8,40.2C326,285.5,328.8,297.8,328.8,310.3L328.8,310.3z
	 M244.2,367.6l18.7,4.2c-27.2,10.3-57.5-3.4-67.8-30.6c-3.5-9.3-4.3-19.4-2.3-29.1l-31.4-6.4c-9.3,45.8,20.2,90.5,66,99.8
	c17.1,3.5,34.9,1.6,50.9-5.4l-3.6,16.4l31.2,6.9l15.7-71.2l-70.4-15.7L244.2,367.6z M347.4,133.9c-2,0-4,0.1-6.1,0.2
	c-38.5-54.7-114.1-67.8-168.7-29.3c-22.8,16-39.3,39.4-46.8,66.2c-42.3,3.9-73.5,41.4-69.6,83.8c3.5,38.2,34.6,67.9,72.9,69.8
	c-0.2-2.4-0.2-4.9-0.2-7.4c0-8.2,0.9-16.5,2.7-24.5c-2.1-0.1-4.1-0.3-6.1-0.7c-24.5-4.6-40.5-28.2-35.9-52.7
	c4-21.3,22.6-36.7,44.3-36.7c1.2,0,2.4,0,3.6,0.1l14.7,1.2l2.4-14.6c8-48.6,53.8-81.4,102.4-73.5c26.3,4.3,49.3,20.2,62.6,43.3
	l5.6,9.7l11-2c34.4-6.6,67.6,16,74.2,50.5c6.5,34.3-15.9,67.4-50.1,74.1c-2.4,0.5-4.7,0.8-7.1,1c1.8,8.1,2.7,16.4,2.7,24.7
	c0,2.4-0.1,4.8-0.2,7.2c52.5-4.5,91.4-50.7,86.9-103.3C438.2,171.7,396.9,133.8,347.4,133.9L347.4,133.9z"/>
</svg>
