<?xml version="1.0" encoding="utf-8"?>
<!-- Generator: Adobe Illustrator 26.0.1, SVG Export Plug-In . SVG Version: 6.00 Build 0)  -->
<svg version="1.1" id="Layer_1" xmlns="http://www.w3.org/2000/svg" xmlns:xlink="http://www.w3.org/1999/xlink" x="0px" y="0px"
	 viewBox="0 0 500 500" style="enable-background:new 0 0 500 500;" xml:space="preserve">
<style type="text/css">
	.st0{fill:#FFFFFF;}
</style>
<path class="st0" d="M481,395.4v32H19v-32H481z M154.6,328.6h-49.2V111.4h299v217.3h-49.2v32h81.2V79.4h-363v281.3h81.2L154.6,328.6
	z M308.5,208.3v21.8h22.6v130.2H178.7V230.1h22.6v-21.8c-0.4-29.6,23.3-53.9,52.9-54.3s53.9,23.3,54.3,52.9
	C308.5,207.3,308.5,207.8,308.5,208.3z M233.3,230.1h43.2v-21.8c0.3-11.9-9.2-21.8-21.1-22.1c-11.9-0.3-21.8,9.2-22.1,21.1
	c0,0.3,0,0.6,0,0.9V230.1z M299.1,262.1h-88.4v66.2h88.4V262.1z"/>
</svg>
