<?xml version="1.0" encoding="utf-8"?>
<!-- Generator: Adobe Illustrator 26.4.1, SVG Export Plug-In . SVG Version: 6.00 Build 0)  -->
<svg version="1.1" id="Layer_1" xmlns="http://www.w3.org/2000/svg" xmlns:xlink="http://www.w3.org/1999/xlink" x="0px" y="0px"
	 viewBox="0 0 19.2 21.4" style="enable-background:new 0 0 19.2 21.4;" xml:space="preserve">
<style type="text/css">
	.st0{fill:#FFFFFF;}
</style>
<g id="ICON_ARTWORK">
	<path class="st0" d="M6.8,8.7H9v2.2H6.8V8.7z M6.8,14.2H9V12H6.8V14.2z M6.8,17.6H9v-2.2H6.8V17.6z M3.4,17.6h2.2v-2.2H3.4V17.6z
		 M3.4,14.2h2.2V12H3.4V14.2z M3.4,10.9h2.2V8.7H3.4V10.9z M13.4,14.2h2.2V12h-2.2L13.4,14.2z M13.4,8.7v2.2h2.2V8.7H13.4z
		 M13.4,17.6h2.2v-2.2h-2.2L13.4,17.6z M10.1,10.9h2.2V8.7h-2.2L10.1,10.9z M10.1,14.2h2.2V12h-2.2L10.1,14.2z M10.1,17.6h2.2v-2.2
		h-2.2L10.1,17.6z M19.2,2.1v19.2H0V2.1h3.1V0h2.9v2.1h7.3V0h2.9v2.1H19.2z M3.1,5.4v-1H2.2v14.9H17V4.4h-0.9v1h-2.9v-1H5.9v1
		L3.1,5.4z"/>
</g>
</svg>
