<?xml version="1.0" encoding="utf-8"?>
<!-- Generator: Adobe Illustrator 26.4.1, SVG Export Plug-In . SVG Version: 6.00 Build 0)  -->
<svg version="1.1" id="Layer_1" xmlns="http://www.w3.org/2000/svg" xmlns:xlink="http://www.w3.org/1999/xlink" x="0px" y="0px"
	 viewBox="0 0 22.1 20.8" style="enable-background:new 0 0 22.1 20.8;" xml:space="preserve">
<style type="text/css">
	.st0{fill:#FFFFFF;}
</style>
<g id="Layer_1_00000149379231906391937890000015595524639229197755_">
	<path class="st0" d="M18.9,9.3c0.2,0,0.4-0.1,0.5-0.2c1.9-0.8,3-2.9,2.6-5V4l-3.4,1l-0.2-0.6l3.4-0.9l0,0c-0.7-2.1-2.9-3.5-5-3
		c-0.7,0.1-1.3,0.4-1.9,0.9c-1.5,1.1-2.1,3-1.7,4.8l-1.4,1.4L9.2,5c0.5-0.4,1.1-0.6,1.8-0.8l1.4-0.4l-0.8-1.3C11.5,2.4,9.9,0,7.7,0
		C6.8,0,6,0.4,5.4,1L0,6.4l4,4.1l2.1-2.1l2.5,2.3L2,17.3l3.2,3.2l6.6-6.6l6.9,6.9l3.2-3.2L15,10.7l1.4-1.4
		C17.2,9.5,18.1,9.5,18.9,9.3z M10.6,12.4l-5.4,5.4l-0.5-0.5l5.4-5.4L10.6,12.4z M13.6,9.4l-0.5-0.5l2.4-2.4L15.3,6
		c-0.1-0.1-0.1-0.2-0.1-0.4c-0.4-1.4,0.5-2.9,2-3.3c0.5-0.1,1-0.1,1.5,0.1l-2.5,0.7l1.1,4.3l2.5-0.7c-0.9,0.9-2.2,1.1-3.2,0.6L16,7
		L13.6,9.4z M19.3,17.6l-0.5,0.5L6.1,5.6L4,7.7L2.7,6.3l4-3.9C7,2.1,7.4,2,7.7,2c0.6,0.1,1.1,0.3,1.5,0.8C8.3,3.2,7.5,3.7,7,4.4
		L6.6,4.9L19.3,17.6z"/>
</g>
</svg>
