<?xml version="1.0" encoding="utf-8"?>
<!-- Generator: Adobe Illustrator 26.4.1, SVG Export Plug-In . SVG Version: 6.00 Build 0)  -->
<svg version="1.1" id="Layer_1" xmlns="http://www.w3.org/2000/svg" xmlns:xlink="http://www.w3.org/1999/xlink" x="0px" y="0px"
	 viewBox="0 0 27.2 29.5" style="enable-background:new 0 0 27.2 29.5;" xml:space="preserve">
<style type="text/css">
	.st0{fill:#FFFFFF;}
</style>
<path class="st0" d="M20.8,22.2l2.2,2.2l-0.8,0.8L20,23l-2.3,2.2l-0.8-0.8l2.2-2.2L16.9,20l0.8-0.8l2.3,2.2l2.2-2.2L23,20L20.8,22.2
	z M6.8,7.9V7.8C6.7,7.8,6.6,7.9,6.5,8L6.4,8.1C6.3,8.2,6.2,8.3,6.1,8.4c-0.1,0-0.2,0-0.2,0c0.2,0,0.3,0.1,0.5,0.1s0.4,0.1,0.5,0.2
	S7.1,9,7,9.2v0.1c0,0.1,0.1,0.3,0.3,0.3c-0.1-0.2,0-0.5,0.1-0.7V8.8l0.1-0.1H7.4C7.2,8.5,6.8,8.4,6.8,7.9z M13.9,12.3
	c-0.4-0.2-0.8-0.4-1.3-0.5c-0.4-0.1-0.7-0.4-0.9-0.7c-0.3-0.4-0.7-0.8-1.1-1S9.9,9.7,9.5,9.5c-0.1,0-0.1-0.1-0.2-0.1s-0.1,0-0.2,0.1
	C8.8,9.6,8.6,9.8,8.3,10c-0.1,0.1-0.2,0.2-0.3,0.2H7.9C8,10.4,8.1,10.6,8,10.8c0,0.1-0.1,0.2-0.1,0.3l-0.1,0.1
	c-0.2,0.5-0.1,1.1,0.2,1.6c0.3,0.4,0.6,0.8,0.9,1.1L9,14c0.3,0.3,0.4,0.8,0.2,1.2c0,0.1,0,0.2,0,0.2c0,0.7-0.1,1.5-0.2,2.2v0.2
	c-0.1,0.4-0.1,0.9-0.2,1.3c0,0.5,0.1,0.9,0.4,1.3c0.1,0.1,0.3,0.2,0.5,0.3v-0.1c-0.1-0.3-0.1-0.7,0-1.1c0.3-0.7,0.7-1.3,1.2-1.9
	c0.2-0.2,0.3-0.4,0.5-0.6c0.1-0.2,0.3-0.4,0.4-0.7c0.1-0.2,0.1-0.3,0.2-0.4c0.2-0.4,0.5-0.6,0.8-0.9l0.1-0.1
	c0.2-0.2,0.4-0.5,0.5-0.8l0.1-0.2c0.2-0.5,0.4-0.9,0.5-1.4C14,12.4,14,12.3,13.9,12.3C14,12.3,13.9,12.3,13.9,12.3z M26.7,19.4
	c-0.5-1.2-1.3-2.2-2.3-3l0,0c0.4-1.3,0.6-2.6,0.6-3.9C25,5.6,19.4,0,12.5,0S0,5.7,0,12.6s5.6,12.5,12.5,12.5h0.9
	c1.6,3.7,5.8,5.4,9.5,3.8C26.5,27.4,28.2,23.1,26.7,19.4z M12.8,21.8c0,0.2,0,0.3,0,0.5s0,0.5,0,0.7h-0.3C6.8,23,2.1,18.4,2.1,12.7
	c0-2,0.6-4,1.7-5.7c0.3,0.8,1,1.4,1.9,1.7L5.9,8C5.8,8,5.8,7.9,5.7,7.9L5.6,7.8c0-0.1,0-0.1,0-0.2c0-0.3,0-0.6,0.1-0.8
	c0.3-0.3,0.6-0.5,1-0.5c0.2-0.1,0.4,0,0.5,0.2l0.7,1.4L8,6.5c0-0.1,0-0.2,0-0.3s0.1-0.4,0.2-0.4s0.2-0.1,0.3-0.1
	c0.1,0,0.3,0,0.4-0.1C9.2,5.5,9.5,5.3,9.7,5L10,4.8c0.4-0.3,0.9-0.6,1.4-0.8c0.1,0,0.3-0.1,0.4-0.2c0.2-0.2,0.2-0.5,0-0.7
	s-0.4-0.2-0.6-0.2H11c-0.1,0-0.2,0-0.2,0s-0.1,0-0.2-0.1c0-0.1,0-0.1,0.1-0.2c0.3-0.2,0.6-0.3,1-0.4c0.9-0.1,1.8-0.1,2.6,0.1
	c1.7,0.3,3.3,1,4.6,2.1c0.3,0.2,0.5,0.5,0.9,0.8c0.1,0.1,0.2,0.2,0.3,0.3c-0.9-0.1-1.7,0.3-2.3,0.9c-0.2,0.2-0.3,0.4-0.4,0.6
	c-0.1,0.1-0.1,0.2-0.2,0.3C16.6,8,16.4,9,16.6,9.9c0.2,0.3,0.4,0.6,0.7,0.9l0.1,0.1c0.2,0.2,0.4,0.4,0.7,0.5c0.1,0,0.2,0,0.3,0
	l0.8-0.2c0.1,0,0.2,0,0.3,0c0.1,0,0.1,0.1,0.1,0.1c0.4,0.5,0.6,1,0.8,1.6c0.1,0.3,0.1,0.5,0.1,0.8c0,0.1,0,0.3-0.1,0.4
	c-0.1,0.2-0.1,0.4-0.1,0.6c0,0.1,0,0.3,0.1,0.4C16.5,14.8,13.1,17.8,12.8,21.8z M20,27.4c-2.9,0-5.2-2.3-5.2-5.2S17.1,17,20,17
	s5.2,2.3,5.2,5.2S22.9,27.4,20,27.4z"/>
</svg>
