<?xml version="1.0" encoding="utf-8"?>
<!-- Generator: Adobe Illustrator 26.4.1, SVG Export Plug-In . SVG Version: 6.00 Build 0)  -->
<svg version="1.1" id="Layer_1" xmlns="http://www.w3.org/2000/svg" xmlns:xlink="http://www.w3.org/1999/xlink" x="0px" y="0px"
	 viewBox="0 0 19.6 20.2" style="enable-background:new 0 0 19.6 20.2;" xml:space="preserve">
<style type="text/css">
	.st0{fill:#FFFFFF;}
</style>
<g id="ICON_ARTWORK">
	<path class="st0" d="M14.3,12.7c2.6-3.5,1.9-8.5-1.6-11.1S4.2-0.3,1.6,3.2s-1.9,8.5,1.6,11.1c2.6,2,6.1,2.1,8.9,0.4l5.5,5.4
		l2.1-2.1L14.3,12.7z M13.9,7.9c0,3.3-2.7,5.9-5.9,5.9C4.7,13.9,2,11.2,2,7.9S4.7,2,8,2C11.2,2,13.9,4.6,13.9,7.9
		C13.9,7.9,13.9,7.9,13.9,7.9L13.9,7.9z"/>
</g>
</svg>
