<?xml version="1.0" encoding="utf-8"?>
<!-- Generator: Adobe Illustrator 26.4.1, SVG Export Plug-In . SVG Version: 6.00 Build 0)  -->
<svg version="1.1" id="Layer_1" xmlns="http://www.w3.org/2000/svg" xmlns:xlink="http://www.w3.org/1999/xlink" x="0px" y="0px"
	 viewBox="0 0 26.2 24.4" style="enable-background:new 0 0 26.2 24.4;" xml:space="preserve">
<style type="text/css">
	.st0{fill:#FFFFFF;}
</style>
<g id="ICON_ARTWORK">
	<path class="st0" d="M26.2,21.3V7h-6.3c-0.2-0.5-0.5-0.9-0.8-1.2c-0.6-0.5-1.4-0.9-2.2-0.9c-0.2-0.7-0.7-1.4-1.3-1.8
		c-0.8-0.5-1.7-0.7-2.6-0.6c-1-1.8-3-2.8-5-2.5c-2,0.1-3.8,1.5-4.5,3.4C1.3,3.9-0.1,5.8,0,7.9c0,1.2,0.4,2.4,1.3,3.2
		c1.1,0.9,2.5,1.4,4,1.4h0.9v8.8h6.4v1.2h-1.8v1.9h10.6v-1.9h-1.8v-1.2H26.2z M8.4,1.9c1.8,0,2.3,0.8,3,2l0.5,0.7l0.6-0.2
		c0.6-0.2,1.3-0.1,1.9,0.2C14.8,5,15.1,5.5,15.1,6l0.1,0.8l0.8,0c0.6,0,1.2,0.1,1.7,0.5H6.4v3.3h-1c-1,0-2-0.3-2.8-0.9
		C2.2,9.2,1.9,8.5,2,7.8C1.9,6.5,2.9,5.3,4.2,5.2c0,0,0,0,0,0h0.7l0.1-0.6c0.3-1.4,1.5-2.5,3-2.6L8.4,1.9z M8.2,19.4V8.9h16.1v10.4
		H8.2z M18.7,13.5v-0.8c0-1.3-1.1-2.4-2.4-2.4c-1.3,0-2.4,1.1-2.4,2.4v0.8h-0.4v4.7h5.7v-4.7H18.7z M15.1,13.5v-0.8
		c0-0.6,0.5-1.1,1.1-1.1c0,0,0,0,0,0c0.3,0,0.6,0.1,0.8,0.3c0.2,0.2,0.3,0.5,0.3,0.8v0.8L15.1,13.5z"/>
</g>
</svg>
