<?xml version="1.0" encoding="utf-8"?>
<!-- Generator: Adobe Illustrator 26.4.1, SVG Export Plug-In . SVG Version: 6.00 Build 0)  -->
<svg version="1.1" id="Layer_1" xmlns="http://www.w3.org/2000/svg" xmlns:xlink="http://www.w3.org/1999/xlink" x="0px" y="0px"
	 viewBox="0 0 16.8 22.2" style="enable-background:new 0 0 16.8 22.2;" xml:space="preserve">
<style type="text/css">
	.st0{fill:#FFFFFF;}
</style>
<path class="st0" d="M14.6,8.4V6.2c0-3.4-2.8-6.2-6.2-6.2S2.2,2.8,2.2,6.2v2.2H0v13.8h16.8V8.4H14.6z M2,20.3v-9.9h12.8v9.9H2z
	 M4.6,6.1c0-2.1,1.7-3.8,3.8-3.8s3.8,1.7,3.8,3.8v2.1H4.6C4.6,8.2,4.6,6.1,4.6,6.1z M10.4,14c0,0.8-0.4,1.5-1.1,1.8v2.8H7.4v-2.8
	c-0.7-0.4-1.1-1-1.1-1.8c0-1.1,0.9-2.1,2.1-2.1S10.4,12.9,10.4,14z"/>
</svg>
