<?xml version="1.0" encoding="utf-8"?>
<!-- Generator: Adobe Illustrator 26.4.1, SVG Export Plug-In . SVG Version: 6.00 Build 0)  -->
<svg version="1.1" id="Layer_1" xmlns="http://www.w3.org/2000/svg" xmlns:xlink="http://www.w3.org/1999/xlink" x="0px" y="0px"
	 viewBox="0 0 25.9 22" style="enable-background:new 0 0 25.9 22;" xml:space="preserve">
<style type="text/css">
	.st0{fill:#FFFFFF;}
</style>
<g id="ICON_ARTWORK">
	<path class="st0" d="M24.8,20V5.1h-6.6V0H7.7v5.2H1.1V20H0v2h25.9v-2H24.8z M22.8,7.3V20h-4.6V7.3H22.8z M13.8,17.6V20h-1.7v-2.4
		H13.8z M10.4,15.6v4.3H9.7V2.4h6.5V20h-0.7v-4.3L10.4,15.6z M7.7,7.3V20H3V7.3L7.7,7.3z M14.3,4.4v1.4h-0.8v0.8h-1.2V5.8h-0.8V4.4
		h0.8V3.6h1.2v0.8H14.3z M4.3,12.2v2.1h2v-2L4.3,12.2z M21.6,12.2v2.1h-2v-2L21.6,12.2z M12.3,12.2v2.1h-2v-2L12.3,12.2z M15.6,12.2
		v2.1h-2v-2L15.6,12.2z M6.3,8.7v2h-2v-2H6.3z M21.6,8.7v2h-2v-2H21.6z M12.3,8.7v2h-2v-2H12.3z M15.6,8.7v2h-2v-2H15.6z"/>
</g>
</svg>
