<?xml version="1.0" encoding="utf-8"?>
<!-- Generator: Adobe Illustrator 26.4.1, SVG Export Plug-In . SVG Version: 6.00 Build 0)  -->
<svg version="1.1" id="Layer_1" xmlns="http://www.w3.org/2000/svg" xmlns:xlink="http://www.w3.org/1999/xlink" x="0px" y="0px"
	 viewBox="0 0 25.2 23.3" style="enable-background:new 0 0 25.2 23.3;" xml:space="preserve">
<style type="text/css">
	.st0{fill:#FFFFFF;}
</style>
<g id="ICON_ARTWORK">
	<path class="st0" d="M12.9,9V7c0.3-3.5-2.3-6.7-5.8-7C3.5-0.3,0.4,2.3,0,5.8C0,6.2,0,6.6,0,7v0.5h2.7V7C2.6,4.9,4.2,3.1,6.3,3
		c2.1-0.1,3.9,1.5,4,3.6c0,0.1,0,0.3,0,0.4v2H8v14.3h17.2V9H12.9z M10,21.3V11h13.3v10.3H10z M18.8,14.9c0,0.8-0.4,1.5-1.1,1.9v2.8
		h-2v-2.8c-1-0.6-1.4-1.9-0.8-2.9s1.9-1.4,2.9-0.8C18.4,13.4,18.8,14.1,18.8,14.9L18.8,14.9z"/>
</g>
</svg>
