<?xml version="1.0" encoding="utf-8"?>
<!-- Generator: Adobe Illustrator 26.4.1, SVG Export Plug-In . SVG Version: 6.00 Build 0)  -->
<svg version="1.1" id="Layer_1" xmlns="http://www.w3.org/2000/svg" xmlns:xlink="http://www.w3.org/1999/xlink" x="0px" y="0px"
	 viewBox="0 0 26.6 16.5" style="enable-background:new 0 0 26.6 16.5;" xml:space="preserve">
<style type="text/css">
	.st0{fill:#FFFFFF;}
</style>
<g id="ICON_ARTWORK">
	<path class="st0" d="M26.6,13.3C26.6,6,20.7,0,13.3,0C6,0,0,6,0,13.3v1.1h10.3c0.6,1.7,2.4,2.5,4.1,1.9c0.9-0.3,1.6-1,1.9-1.9h10.3
		L26.6,13.3z M18.4,5.1l-1.6-0.8l-3.1,6c-1.5-0.2-2.9,0.7-3.3,2.1H2c0.2-2.2,1-4.3,2.4-6l1.5,1.2L7,6.3L5.6,5.1
		c1.9-1.8,4.3-2.8,6.9-3.1v1.8h1.8V2.1c2.6,0.2,5,1.3,6.9,3.1l-1.4,1.1l1.1,1.4l1.4-1.1c1.3,1.7,2.1,3.8,2.3,5.9h-8.4
		c-0.2-0.5-0.5-1-0.9-1.4L18.4,5.1z"/>
</g>
</svg>
