<?xml version="1.0" encoding="utf-8"?>
<!-- Generator: Adobe Illustrator 26.4.1, SVG Export Plug-In . SVG Version: 6.00 Build 0)  -->
<svg version="1.1" id="Layer_1" xmlns="http://www.w3.org/2000/svg" xmlns:xlink="http://www.w3.org/1999/xlink" x="0px" y="0px"
	 viewBox="0 0 26.9 25" style="enable-background:new 0 0 26.9 25;" xml:space="preserve">
<style type="text/css">
	.st0{fill:#FFFFFF;}
</style>
<g id="ICON_ARTWORK">
	<path class="st0" d="M6.1,14.6v2.2H3.9v-2.2H6.1z M3.9,11v2.2h2.2V11H3.9z M21.2,14.6v2.2h2.2v-2.2H21.2z M21.2,11v2.2h2.2V11H21.2
		z M21.2,7.4v2.2h2.2V7.4H21.2z M10.9,14.6v2.2h2.2v-2.2H10.9z M10.9,11v2.2h2.2V11H10.9z M10.9,7.4v2.2h2.2V7.4H10.9z M10.9,3.8
		v2.2h2.2V3.8H10.9z M14.6,14.6v2.2h2.2v-2.2H14.6z M14.6,11v2.2h2.2V11H14.6z M14.6,7.4v2.2h2.2V7.4H14.6z M14.6,3.8v2.2h2.2V3.8
		H14.6z M26.1,22.8V3.7h-5.5V0H7.1v7.7H0.8v15.1H0V25h26.9v-2.2H26.1z M24.1,5.8V23h-3.5V5.8H24.1z M15.1,20.3V23h-2.5v-2.7
		L15.1,20.3z M10.7,18.4V23H9.1V2h9.5v21H17v-4.6L10.7,18.4z M2.8,23.1V9.7h4.3V23L2.8,23.1z"/>
</g>
</svg>
