<?xml version="1.0" encoding="utf-8"?>
<!-- Generator: Adobe Illustrator 26.4.1, SVG Export Plug-In . SVG Version: 6.00 Build 0)  -->
<svg version="1.1" id="Layer_1" xmlns="http://www.w3.org/2000/svg" xmlns:xlink="http://www.w3.org/1999/xlink" x="0px" y="0px"
	 viewBox="0 0 27.2 23.1" style="enable-background:new 0 0 27.2 23.1;" xml:space="preserve">
<style type="text/css">
	.st0{fill:#FFFFFF;}
</style>
<g id="ICON_ARTWORK">
	<path class="st0" d="M27.2,19.3V0H0v19.3h8.8v1.4H6.4v2.4h14.5v-2.4h-2.5v-1.4H27.2z M24.9,2.3V17H2.3V2.3L24.9,2.3z M15.5,14h7.8
		v1.6h-7.8L15.5,14z M15.5,11.5v1.6h7.8v-1.6H15.5z M15.5,9.1v1.6h7.8V9.1H15.5z M8.1,4.1H8C5.8,4.1,4.1,5.8,4.1,8v0.2h4.1L8.1,4.1z
		 M9.1,5.2H8.9v3.7H5.2v0.2c0,2.2,1.7,3.9,3.9,3.9c2.2,0,3.9-1.7,3.9-3.9C13,7,11.2,5.2,9.1,5.2C9.1,5.2,9.1,5.2,9.1,5.2z"/>
</g>
</svg>
