<?xml version="1.0" encoding="utf-8"?>
<!-- Generator: Adobe Illustrator 26.4.1, SVG Export Plug-In . SVG Version: 6.00 Build 0)  -->
<svg version="1.1" id="Layer_1" xmlns="http://www.w3.org/2000/svg" xmlns:xlink="http://www.w3.org/1999/xlink" x="0px" y="0px"
	 viewBox="0 0 26.8 21.2" style="enable-background:new 0 0 26.8 21.2;" xml:space="preserve">
<style type="text/css">
	.st0{fill:#FFFFFF;}
</style>
<path class="st0" d="M25.7,19.1V0H1.1v19.1H0v2.1h26.8v-2.1C26.8,19.1,25.7,19.1,25.7,19.1z M16,16.5v2.7h-5.2v-2.7H16z M8.9,14.7
	v4.6H3V1.9h20.8v17.4h-5.9v-4.6H8.9z M7,7.3v2.1H4.8V7.3H7z M8.6,7.3v2.1h2.1V7.3H8.6z M12.3,7.3v2.1h2.1V7.3H12.3z M16.1,7.3v2.1
	h2.1V7.3H16.1z M19.8,7.3v2.1h2.1V7.3H19.8z M8.6,3.6v2.1h2.1V3.6C10.7,3.6,8.6,3.6,8.6,3.6z M4.8,3.6v2.1h2.1V3.6
	C6.9,3.6,4.8,3.6,4.8,3.6z M12.3,3.6v2.1h2.1V3.6C14.4,3.6,12.3,3.6,12.3,3.6z M16.1,3.6v2.1h2.1V3.6C18.2,3.6,16.1,3.6,16.1,3.6z
	 M19.8,3.6v2.1h2.1V3.6C21.9,3.6,19.8,3.6,19.8,3.6z M4.8,10.9V13h2.1v-2.1H4.8z M8.6,10.9V13h2.1v-2.1H8.6z M12.3,10.9V13h2.1v-2.1
	H12.3z M16.1,10.9V13h2.1v-2.1H16.1z M19.8,10.9V13h2.1v-2.1H19.8z"/>
</svg>
