<?xml version="1.0" encoding="utf-8"?>
<!-- Generator: Adobe Illustrator 26.4.1, SVG Export Plug-In . SVG Version: 6.00 Build 0)  -->
<svg version="1.1" id="Layer_1" xmlns="http://www.w3.org/2000/svg" xmlns:xlink="http://www.w3.org/1999/xlink" x="0px" y="0px"
	 viewBox="0 0 16.7 26.3" style="enable-background:new 0 0 16.7 26.3;" xml:space="preserve">
<style type="text/css">
	.st0{fill:#FFFFFF;}
</style>
<g id="ICON_ARTWORK">
	<path class="st0" d="M5,24.1h6.8v2.2H5L5,24.1z M5,21.2v2.2h6.8v-2.2H5z M6.5,19.2h2.4l2.9-6.9H8.6l1.5-4.8L8,6.9l-2.5,7.6h2.9
		L6.5,19.2z M8.4,0C3.7,0.1,0,3.9,0,8.6c0,3.3,4.8,11.3,4.9,11.4l0.3,0.5h6.3l0.3-0.5c0-0.1,4.9-8,4.9-11.4C16.7,3.9,13,0.1,8.4,0z
		 M6.4,18.2c-1.5-2.4-4.2-7.9-4.2-9.7c0-3.4,2.7-6.3,6.2-6.4c3.4,0.1,6.2,2.9,6.2,6.4c0,1.8-2.7,7.3-4.2,9.7L6.4,18.2z"/>
</g>
</svg>
