<?xml version="1.0" encoding="utf-8"?>
<!-- Generator: Adobe Illustrator 26.4.1, SVG Export Plug-In . SVG Version: 6.00 Build 0)  -->
<svg version="1.1" id="Layer_1" xmlns="http://www.w3.org/2000/svg" xmlns:xlink="http://www.w3.org/1999/xlink" x="0px" y="0px"
	 viewBox="0 0 30 26.7" style="enable-background:new 0 0 30 26.7;" xml:space="preserve">
<style type="text/css">
	.st0{fill:#FFFFFF;}
</style>
<path class="st0" d="M4,12.7l-2.3-0.2L1.8,12C2.5,4.6,9.1-0.7,16.4,0.1c5,0.5,9.2,3.8,11,8.4l0.5-1l2.1,1L27.7,13l-4.5-2.2l1-2.1
	l1.1,0.5c-1.5-3.8-5-6.4-9.1-6.9c-6-0.6-11.5,3.8-12.1,9.8L4,12.7z M25.9,14.8c-0.8,5.9-6.1,10.1-12.1,9.4c-4.1-0.4-7.6-3.1-9.1-6.9
	l1.1,0.5l0.9-2.1l-4.6-2L0,18.3l2.1,1l0.5-1c1.8,4.6,6,7.8,11,8.3c0.5,0.1,1,0.1,1.4,0.1c6.7,0,12.2-4.8,13.2-11.5l0.1-0.5L26,14.4
	L25.9,14.8z M22.9,11.3c-0.8,0-1.4,0.5-1.7,1.1h-4.1l3.1-3.1c0.2,0,0.3,0.1,0.5,0.1c0.5,0,0.9-0.2,1.3-0.5c0.7-0.7,0.7-1.9,0-2.6
	c-0.7-0.7-1.9-0.7-2.6,0c-0.5,0.5-0.7,1.3-0.4,2l-3,3V6.8c0.6-0.3,1.1-0.9,1.1-1.7c0-1-0.8-1.8-1.8-1.8s-1.8,0.8-1.8,1.8
	c0,0.7,0.4,1.3,0.9,1.6v4.6l-3-3c0.2-0.6,0-1.3-0.5-1.8c-0.7-0.7-1.9-0.7-2.6,0s-0.7,1.9,0,2.6c0.3,0.3,0.8,0.5,1.3,0.5
	c0.2,0,0.5,0,0.7-0.1l3,2.9H9.4c-0.3-0.7-0.9-1.2-1.7-1.2c-1,0-1.8,0.8-1.8,1.8s0.8,1.8,1.8,1.8c0.6,0,1.2-0.3,1.5-0.8h4.1l-2.8,2.7
	c-0.6-0.2-1.4-0.1-1.9,0.4c-0.7,0.7-0.7,1.9,0,2.6c0.3,0.3,0.8,0.5,1.3,0.5s0.9-0.2,1.3-0.5c0.5-0.5,0.6-1.2,0.4-1.9l2.8-2.8v3.9
	c-0.5,0.3-0.9,0.9-0.9,1.5c0,1,0.8,1.8,1.8,1.8s1.8-0.8,1.8-1.8c0-0.8-0.5-1.4-1.2-1.7V15l2.9,2.8c-0.1,0.2-0.2,0.5-0.2,0.7
	c0,0.5,0.2,0.9,0.5,1.3c0.3,0.3,0.8,0.5,1.3,0.5s0.9-0.2,1.3-0.5c0.7-0.7,0.7-1.9,0-2.6c-0.3-0.3-0.8-0.5-1.3-0.5l0,0
	c-0.1,0-0.3,0-0.4,0l-3-2.9h4.3c0.3,0.5,0.9,0.9,1.6,0.9c1,0,1.8-0.8,1.8-1.8S23.9,11.3,22.9,11.3z M23.2,13.1
	c0,0.2-0.2,0.4-0.4,0.4c-0.2,0-0.4-0.2-0.4-0.4c0-0.2,0.2-0.4,0.4-0.4C23.1,12.7,23.2,12.9,23.2,13.1z M20.2,7.6
	c0-0.1,0-0.2,0.1-0.3s0.2-0.1,0.3-0.1c0.1,0,0.2,0,0.3,0.1c0.1,0.1,0.1,0.4,0,0.5c-0.1,0.1-0.2,0.1-0.3,0.1l0,0
	c-0.1,0-0.2,0-0.3-0.1C20.3,7.8,20.2,7.7,20.2,7.6z M15.5,20.7c0,0.2-0.2,0.4-0.4,0.4c-0.2,0-0.4-0.2-0.4-0.4c0-0.2,0.2-0.4,0.4-0.4
	S15.5,20.5,15.5,20.7z M14.8,5.2c0-0.2,0.2-0.4,0.4-0.4c0.2,0,0.4,0.2,0.4,0.4s-0.2,0.4-0.4,0.4C14.9,5.6,14.8,5.4,14.8,5.2z
	 M9.7,8.1C9.6,8.2,9.5,8.2,9.4,8.2l0,0c-0.1,0-0.2,0-0.3-0.1C9,8,9,7.7,9.1,7.6s0.2-0.1,0.3-0.1s0.2,0,0.3,0.1S9.8,8,9.7,8.1z
	 M7.8,13.1c0,0.2-0.2,0.4-0.4,0.4S7,13.3,7,13.1c0-0.2,0.2-0.4,0.4-0.4S7.8,12.9,7.8,13.1z M9.4,18.3c0.1-0.1,0.2-0.1,0.3-0.1
	c0.1,0,0.2,0,0.3,0.1c0.1,0.1,0.1,0.4,0,0.5s-0.2,0.1-0.3,0.1l0,0c-0.1,0-0.2,0-0.3-0.1C9.3,18.7,9.3,18.5,9.4,18.3z M20.4,18.4
	c0.1,0,0.2,0,0.3,0.1c0.1,0.1,0.1,0.4,0,0.5s-0.4,0.1-0.5,0s-0.1-0.2-0.1-0.3s0-0.2,0.1-0.3C20.2,18.5,20.3,18.4,20.4,18.4z"/>
</svg>
