<?xml version="1.0" encoding="utf-8"?>
<!-- Generator: Adobe Illustrator 26.4.1, SVG Export Plug-In . SVG Version: 6.00 Build 0)  -->
<svg version="1.1" id="Layer_1" xmlns="http://www.w3.org/2000/svg" xmlns:xlink="http://www.w3.org/1999/xlink" x="0px" y="0px"
	 viewBox="0 0 26.3 26.3" style="enable-background:new 0 0 26.3 26.3;" xml:space="preserve">
<style type="text/css">
	.st0{fill:#FFFFFF;}
</style>
<g id="ICON_ARTWORK">
	<path class="st0" d="M21.3,13.9l0,0.4c-0.5,4.1-4,7.1-8.2,7.1c-0.3,0-0.6,0-0.9,0c-2.7-0.3-5.1-1.9-6.4-4.3l-0.6,1.4l-1.7-0.9
		l2-4.2l4.2,1.9L9,17l-1.2-0.6c1.8,3,5.8,3.9,8.8,2.1c1.6-1,2.7-2.7,3-4.5l0-0.4L21.3,13.9z M14,4.9c-4.5-0.5-8.6,2.8-9.1,7.3
		c0,0,0,0,0,0v0.4l1.9,0.2v-0.4c0.4-3.5,3.5-6,7-5.7c2,0.2,3.8,1.4,4.8,3.2l-1.3-0.6L16.6,11l4.2,2l2.1-4.1L21.1,8l-0.7,1.3
		C19.2,6.8,16.8,5.1,14,4.9L14,4.9z M13.1,0C5.9,0,0,5.9,0,13.1s5.9,13.1,13.1,13.1s13.1-5.9,13.1-13.1c0,0,0,0,0,0
		C26.3,5.9,20.4,0,13.1,0L13.1,0z M23.9,13.1c0,6-4.9,10.8-10.8,10.8c-6,0-10.8-4.9-10.8-10.8c0-6,4.8-10.8,10.8-10.8
		C19.1,2.3,23.9,7.2,23.9,13.1z"/>
</g>
</svg>
