<?xml version="1.0" encoding="utf-8"?>
<!-- Generator: Adobe Illustrator 26.4.1, SVG Export Plug-In . SVG Version: 6.00 Build 0)  -->
<svg version="1.1" id="Layer_1" xmlns="http://www.w3.org/2000/svg" xmlns:xlink="http://www.w3.org/1999/xlink" x="0px" y="0px"
	 viewBox="0 0 22.4 26.4" style="enable-background:new 0 0 22.4 26.4;" xml:space="preserve">
<style type="text/css">
	.st0{fill:#FFFFFF;}
</style>
<path class="st0" d="M22.4,7.3V0H0v7.3h10.1V8H0v7.3h10.1v0.8H0v7.3h10.1v0.9H0v2.1h22.3v-2.1H12.2v-0.9h10.1v-7.3H12.2v-0.8h10.1V8
	H12.2V7.3C12.2,7.3,22.4,7.3,22.4,7.3z M20.4,1.9v3.5H2V1.9H20.4z M2,13.4V9.9h18.5v3.5H2z M2,21.5V18h18.5v3.5H2z M5.3,3.6
	c0,0.7-0.6,1.3-1.3,1.3S2.7,4.3,2.7,3.6S3.3,2.3,4,2.3C4.8,2.4,5.3,2.9,5.3,3.6z M4.1,10.4c-0.7,0-1.3,0.6-1.3,1.3S3.4,13,4.1,13
	s1.3-0.6,1.3-1.3S4.8,10.4,4.1,10.4z M4.1,18.5c-0.7,0-1.3,0.6-1.3,1.3s0.6,1.3,1.3,1.3s1.3-0.6,1.3-1.3S4.8,18.5,4.1,18.5z
	 M6.4,20.6h12.5V19H6.4V20.6z M6.4,2.8v1.6h12.5V2.8H6.4z M6.4,12.5h12.5v-1.6H6.4V12.5z"/>
</svg>
