<?xml version="1.0" encoding="utf-8"?>
<!-- Generator: Adobe Illustrator 26.4.1, SVG Export Plug-In . SVG Version: 6.00 Build 0)  -->
<svg version="1.1" id="Layer_1" xmlns="http://www.w3.org/2000/svg" xmlns:xlink="http://www.w3.org/1999/xlink" x="0px" y="0px"
	 viewBox="0 0 32.2 16.2" style="enable-background:new 0 0 32.2 16.2;" xml:space="preserve">
<style type="text/css">
	.st0{fill:#FFFFFF;}
</style>
<g id="ICON_ARTWORK">
	<path class="st0" d="M30.7,7.8c-0.9-0.8-2.1-1.3-3.3-1.3C26.7,4.7,25,3.4,23,3.4c-0.3,0-0.7,0-1,0.1c-1.8-3.3-5.8-4.5-9.1-2.7
		c-1.1,0.6-2.1,1.6-2.7,2.7c-0.3-0.1-0.7-0.1-1-0.1c-2,0-3.7,1.3-4.4,3.1C3.6,6.5,2.4,7,1.5,7.8c-1.9,1.9-2,4.9-0.2,6.9
		c0.9,1,2.2,1.5,3.5,1.5h22.5c2.7,0,4.9-2.2,4.8-4.9C32.2,10,31.6,8.8,30.7,7.8z M29.7,11.2c0,1.5-1.2,2.7-2.7,2.7c0,0,0,0,0,0H5.3
		c-1.5-0.1-2.7-1.4-2.6-2.9c0.1-1.4,1.2-2.5,2.6-2.6c0.2,0,0.3,0,0.5,0l1,0.2l0.1-1c0.1-1.3,1.3-2.3,2.6-2.2c0.4,0,0.7,0.1,1.1,0.2
		l1,0.5l0.4-1c0.9-2.4,3.5-3.5,5.9-2.7C19,3,20,4,20.5,5.2l0.4,1l1-0.5c0.3-0.2,0.7-0.2,1.1-0.2c1.2,0.1,2.2,1,2.4,2.2l0.1,1l1-0.2
		c0.2,0,0.3,0,0.5,0C28.4,8.4,29.6,9.6,29.7,11.2C29.6,11.2,29.6,11.2,29.7,11.2L29.7,11.2z"/>
</g>
</svg>
