<?xml version="1.0" encoding="utf-8"?>
<!-- Generator: Adobe Illustrator 26.4.1, SVG Export Plug-In . SVG Version: 6.00 Build 0)  -->
<svg version="1.1" id="Layer_1" xmlns="http://www.w3.org/2000/svg" xmlns:xlink="http://www.w3.org/1999/xlink" x="0px" y="0px"
	 viewBox="0 0 19 27.9" style="enable-background:new 0 0 19 27.9;" xml:space="preserve">
<style type="text/css">
	.st0{fill:#FFFFFF;}
</style>
<g id="ICON_ARTWORK">
	<path class="st0" d="M14.6,3.4V2.3h-2.8c0-1.3-1-2.3-2.3-2.3C8.2,0,7.2,1,7.2,2.3H4.4v1.1H0v24.4h19V3.4H14.6z M14.6,7.2V5.6h2.3
		v20.1H2.1V5.6h2.3v1.6L14.6,7.2z M5.9,11.9l-2.5,0.8v-0.2c-0.3-1.4,0.5-2.7,1.8-3.2c0.2-0.1,0.4-0.1,0.6-0.1h0.1V11.9z M7.6,24.8
		h1.5v-5.3H7.5L7.6,24.8z M5.2,24.8h1.5v-2.9H5.2L5.2,24.8z M10,24.8h1.5v-7.6H9.9L10,24.8z M12.4,24.8h1.5v-10h-1.6L12.4,24.8z
		 M9.1,12.2c0-1.4-1-2.6-2.4-2.7H6.4v2.8l-2.6,0.9l0.1,0.2c0.4,1,1.4,1.6,2.5,1.6C7.9,14.9,9.1,13.7,9.1,12.2
		C9.1,12.2,9.1,12.2,9.1,12.2z M11.3,9.3v1.5h4.1V9.3H11.3z M11.3,13.3h4.1v-1.5h-4.1V13.3z"/>
</g>
</svg>
