<?xml version="1.0" encoding="utf-8"?>
<!-- Generator: Adobe Illustrator 26.4.1, SVG Export Plug-In . SVG Version: 6.00 Build 0)  -->
<svg version="1.1" id="Layer_1" xmlns="http://www.w3.org/2000/svg" xmlns:xlink="http://www.w3.org/1999/xlink" x="0px" y="0px"
	 viewBox="0 0 22.8 23.5" style="enable-background:new 0 0 22.8 23.5;" xml:space="preserve">
<style type="text/css">
	.st0{fill:#FFFFFF;}
</style>
<g id="ICON_ARTWORK">
	<path class="st0" d="M16.5,14.8c3.1-4,2.3-9.8-1.7-12.9S5-0.4,1.9,3.6s-2.3,9.8,1.7,12.9c3,2.3,7.2,2.5,10.4,0.5l6.5,6.4l2.4-2.4
		L16.5,14.8z M16.2,9.2c0,3.9-3.2,7-7.1,7s-7-3.2-7-7.1c0-3.9,3.2-7,7.1-7C13.1,2.1,16.2,5.2,16.2,9.2C16.2,9.1,16.2,9.1,16.2,9.2z"
		/>
</g>
</svg>
