<?xml version="1.0" encoding="utf-8"?>
<!-- Generator: Adobe Illustrator 26.4.1, SVG Export Plug-In . SVG Version: 6.00 Build 0)  -->
<svg version="1.1" id="Layer_1" xmlns="http://www.w3.org/2000/svg" xmlns:xlink="http://www.w3.org/1999/xlink" x="0px" y="0px"
	 viewBox="0 0 27 22.8" style="enable-background:new 0 0 27 22.8;" xml:space="preserve">
<style type="text/css">
	.st0{fill:#FFFFFF;}
</style>
<g id="ICON_ARTWORK">
	<path class="st0" d="M13.5,0L0,10.3l1.2,1.5l2-1.5v12.4h20.7V10.1l2,1.5L27,10L13.5,0z M5.4,20.5V9l8.1-6.2l8.1,6v11.7H5.4z
		 M7.2,10.8h3.2V14H7.2V10.8z M12,18.1h3.3v-3.3H12V18.1z M7.2,18.1h3.2v-3.3H7.2V18.1z M16.8,18.1H20v-3.3h-3.3V18.1z M16.8,10.8
		V14H20v-3.3L16.8,10.8z M12,14h3.3v-3.3H12V14z"/>
</g>
</svg>
