<?xml version="1.0" encoding="utf-8"?>
<!-- Generator: Adobe Illustrator 26.4.1, SVG Export Plug-In . SVG Version: 6.00 Build 0)  -->
<svg version="1.1" id="Layer_1" xmlns="http://www.w3.org/2000/svg" xmlns:xlink="http://www.w3.org/1999/xlink" x="0px" y="0px"
	 viewBox="0 0 26.3 26.3" style="enable-background:new 0 0 26.3 26.3;" xml:space="preserve">
<style type="text/css">
	.st0{fill:#FFFFFF;}
</style>
<g id="ICON_ARTWORK">
	<path class="st0" d="M7.5,18.9h11.4v2.4H7.5V18.9z M16.7,14.2l-1.2-1.6l-1.3,1.5V4.1h-2v10l-1.2-1.4l-1.4,1.6l3.7,4.2L16.7,14.2z
		 M13.2,0C5.9,0,0,5.9,0,13.2s5.9,13.2,13.2,13.2s13.2-5.9,13.2-13.2C26.3,5.9,20.4,0,13.2,0z M24,13.2c0,6-4.9,10.9-10.9,10.9
		S2.3,19.2,2.3,13.2S7.2,2.3,13.2,2.3l0,0C19.2,2.3,24,7.2,24,13.2z"/>
</g>
</svg>
