<?xml version="1.0" encoding="utf-8"?>
<!-- Generator: Adobe Illustrator 26.4.1, SVG Export Plug-In . SVG Version: 6.00 Build 0)  -->
<svg version="1.1" id="Layer_1" xmlns="http://www.w3.org/2000/svg" xmlns:xlink="http://www.w3.org/1999/xlink" x="0px" y="0px"
	 viewBox="0 0 20.7 26.2" style="enable-background:new 0 0 20.7 26.2;" xml:space="preserve">
<style type="text/css">
	.st0{fill:#FFFFFF;}
</style>
<g id="ICON_ARTWORK">
	<path class="st0" d="M10.4,0C5.6,0,0,1.2,0,4.5v18.7l0.4,0.3c3.1,1.8,6.5,2.7,10.1,2.7c3.4,0.1,6.8-0.9,9.8-2.7l0.4-0.3V4.5
		C20.8,1.2,15.1,0,10.4,0z M2.2,21.8v-17c0-1.2,3.3-2.5,8.2-2.5c2,0,4,0.2,5.9,0.8c0.7,0.2,2.2,0.8,2.2,1.7v17
		C14,24.6,7.1,24.6,2.2,21.8z M10.4,3C9.1,3,2.9,3.1,2.9,5.5S9.1,8,10.4,8s7.4-0.1,7.4-2.5S11.6,3,10.4,3z M10.4,4.8
		c1.8-0.1,3.6,0.2,5.3,0.8c-1.7,0.6-3.5,0.8-5.3,0.7C8.6,6.3,6.8,6.1,5.1,5.5C6.8,4.9,8.6,4.7,10.4,4.8z"/>
</g>
</svg>
