<?xml version="1.0" encoding="utf-8"?>
<!-- Generator: Adobe Illustrator 26.4.1, SVG Export Plug-In . SVG Version: 6.00 Build 0)  -->
<svg version="1.1" id="Layer_1" xmlns="http://www.w3.org/2000/svg" xmlns:xlink="http://www.w3.org/1999/xlink" x="0px" y="0px"
	 viewBox="0 0 27.5 25.4" style="enable-background:new 0 0 27.5 25.4;" xml:space="preserve">
<style type="text/css">
	.st0{fill:#FFFFFF;}
</style>
<g id="ICON_ARTWORK">
	<path class="st0" d="M24,14.3c0-0.1,0.1-0.3,0.1-0.5c0.1-0.4,0.2-0.8,0.2-1.2c0.1-0.8,0.2-1.6,0.1-2.4c0-0.8-0.2-1.6-0.4-2.4
		c-0.2-0.8-0.5-1.5-0.9-2.3c-0.4-0.7-0.8-1.4-1.4-2c-0.5-0.6-1.1-1.1-1.8-1.5c-0.7-0.5-1.3-0.9-2.1-1.2c-0.7-0.3-1.5-0.6-2.3-0.7
		C15,0,14.2,0,13.4,0h-0.1C7.3,0.3,2.7,5.4,3,11.4c0,1,0.2,2,0.6,3H0v11h27.5v-11L24,14.3z M2,23.3v-6.8h23.5v6.8L2,23.3z M11.5,5.2
		c0.4-0.8,0.9-1.5,1.4-2.2v2.1L11.5,5.2z M5.7,14.5c-0.4-0.9-0.6-1.8-0.7-2.7H8c0.1,0.9,0.3,1.8,0.6,2.7H5.7z M12.8,11.8v2.7h-2.2
		c-0.3-0.9-0.6-1.8-0.7-2.7H12.8z M12.8,7.1v2.7H9.9c0.1-1,0.3-1.9,0.7-2.8L12.8,7.1z M6.8,5.2C8,3.8,9.5,2.8,11.1,2.3
		c-0.6,0.9-1.2,1.9-1.7,2.9L6.8,5.2z M5,9.8c0.1-1,0.3-1.9,0.8-2.8h2.9C8.3,8,8.1,8.9,8,9.8L5,9.8z M14.7,5.2V3.1
		c0.5,0.7,0.9,1.4,1.4,2.1L14.7,5.2z M17.5,11.7c-0.1,0.9-0.3,1.8-0.7,2.7h-2.2v-2.7H17.5z M14.7,9.8V7.1h2.2
		c0.3,0.9,0.6,1.8,0.7,2.7L14.7,9.8z M18.9,14.4c0.3-0.9,0.5-1.8,0.6-2.7h3.1c-0.1,0.9-0.3,1.8-0.7,2.7H18.9z M19.4,9.8
		c-0.1-0.9-0.3-1.9-0.6-2.8h2.9c0.4,0.9,0.7,1.8,0.8,2.7L19.4,9.8z M18.1,5.2c-0.5-1-1.1-2-1.7-2.9c1.7,0.5,3.2,1.5,4.3,2.9H18.1z
		 M5.7,17.3h1.6v5H5.7V17.3z M3.3,22.3h1.6v-5H3.3V22.3z M20.9,17.7c-0.5,0-0.8,0.4-0.8,0.8c0,0.5,0.4,0.8,0.8,0.8
		c0.5,0,0.8-0.4,0.8-0.8c0,0,0,0,0,0C21.7,18.1,21.4,17.7,20.9,17.7C20.9,17.7,20.9,17.7,20.9,17.7L20.9,17.7z M23.3,17.7
		c-0.5,0.1-0.8,0.5-0.7,0.9c0,0.4,0.3,0.7,0.7,0.7c0.5-0.1,0.8-0.5,0.7-0.9C24,18.1,23.7,17.8,23.3,17.7z M8.1,22.3h1.6v-5H8.1V22.3
		z"/>
</g>
</svg>
