<?xml version="1.0" encoding="utf-8"?>
<!-- Generator: Adobe Illustrator 26.4.1, SVG Export Plug-In . SVG Version: 6.00 Build 0)  -->
<svg version="1.1" id="Layer_1" xmlns="http://www.w3.org/2000/svg" xmlns:xlink="http://www.w3.org/1999/xlink" x="0px" y="0px"
	 viewBox="0 0 20.8 24.9" style="enable-background:new 0 0 20.8 24.9;" xml:space="preserve">
<style type="text/css">
	.st0{fill:#FFFFFF;}
</style>
<g id="ICON_ARTWORK">
	<path class="st0" d="M16.5,14.6V4l-4-4H0v21.3h10.7c0.9,2.7,3.8,4.2,6.5,3.4c2.7-0.9,4.2-3.8,3.4-6.5C19.9,16.3,18.4,15,16.5,14.6z
		 M10.4,19.3H1.9V1.9h9.2v3.4h3.5v9.3C12.3,15.1,10.6,17,10.4,19.3z M15.6,22.9c-1.8,0-3.3-1.5-3.2-3.3c0-1.8,1.5-3.3,3.3-3.2
		c1.8,0,3.2,1.5,3.2,3.3C18.8,21.5,17.4,23,15.6,22.9z M2.8,8.9h2.8v2.8H2.8L2.8,8.9z M6.8,11.7h2.8V8.9H6.8V11.7z M13.5,8.9h-2.8
		v2.8h2.8L13.5,8.9z M16.6,17.6L15,20l-0.8-0.8l-1,1l2,1.9l2.6-3.6L16.6,17.6z"/>
</g>
</svg>
