<?xml version="1.0" encoding="utf-8"?>
<!-- Generator: Adobe Illustrator 26.4.1, SVG Export Plug-In . SVG Version: 6.00 Build 0)  -->
<svg version="1.1" id="Layer_1" xmlns="http://www.w3.org/2000/svg" xmlns:xlink="http://www.w3.org/1999/xlink" x="0px" y="0px"
	 viewBox="0 0 14 33.2" style="enable-background:new 0 0 14 33.2;" xml:space="preserve">
<style type="text/css">
	.st0{fill:#FFFFFF;}
</style>
<g id="ICON_ARTWORK">
	<path class="st0" d="M7.3,21.2l-1.5-0.1V3.6l1.4-0.1L7.3,21.2z M5.5,29.9C4.8,29,4.9,27.8,5.8,27c0.7-0.6,1.9-0.6,2.6,0
		C8.8,27.4,9,27.9,9,28.5c0,0.5-0.2,1-0.5,1.4c-0.4,0.4-0.9,0.6-1.4,0.6C6.5,30.5,5.9,30.3,5.5,29.9z M6.7,28.7
		c0.2,0.2,0.4,0.2,0.6,0c0,0,0,0,0,0c0.1-0.1,0.1-0.2,0.1-0.3c0-0.1,0-0.2-0.1-0.3c-0.2-0.1-0.4-0.1-0.6,0c-0.2,0.1-0.3,0.4-0.1,0.5
		C6.6,28.7,6.6,28.8,6.7,28.7z M14,26.2L14,26.2c0,3.9-3.1,7-7,7s-7-3.1-7-7c0-2.6,1.4-5,3.7-6.2V2.9L7,0l3.2,3v1.8l1.7,2l-1.5,1.9
		l1.4,2l-1.4,1.9l1.6,2l-1.6,1.9l1.6,1.8l-1.6,1.9C12.6,21.4,14,23.7,14,26.2z M1.6,26.2L1.6,26.2c0,3,2.4,5.4,5.3,5.4c0,0,0,0,0,0
		c3-0.1,5.4-2.5,5.3-5.5c0-2.3-1.5-4.3-3.7-5l-0.6-0.3l2.1-2.5l-1.6-1.8l1.6-1.9l-1.6-2l1.5-1.9l-1.4-2l1.4-1.9L8.7,5.4V3.7L7,2.2
		L5.3,3.6v17.3L5,21.1C2.9,21.9,1.6,23.9,1.6,26.2L1.6,26.2z"/>
</g>
</svg>
