<?xml version="1.0" encoding="utf-8"?>
<!-- Generator: Adobe Illustrator 26.4.1, SVG Export Plug-In . SVG Version: 6.00 Build 0)  -->
<svg version="1.1" id="Layer_1" xmlns="http://www.w3.org/2000/svg" xmlns:xlink="http://www.w3.org/1999/xlink" x="0px" y="0px"
	 viewBox="0 0 23.8 14.4" style="enable-background:new 0 0 23.8 14.4;" xml:space="preserve">
<style type="text/css">
	.st0{fill:#FFFFFF;}
</style>
<path class="st0" d="M23.8,9.3c0,2.5-1.6,5.1-6,5.1c-0.1,0-0.2,0-0.3,0H5.6c0,0-0.2,0-0.4,0c-1,0-3-0.2-4.2-1.5
	c-0.7-0.8-1.1-1.8-1-3.1C0.1,7.2,2.1,6.2,4,6c0.5-1.8,1.8-2.9,3.8-2.9c0.4,0,0.7,0,0.9,0.1c1-1.5,2.1-3.2,5.2-3.2c0.2,0,0.4,0,0.7,0
	c3.4,0.2,4.7,2.9,5.1,4.1C23,4.6,23.8,7.7,23.8,9.3z"/>
</svg>
