<?xml version="1.0" encoding="utf-8"?>
<!-- Generator: Adobe Illustrator 26.4.1, SVG Export Plug-In . SVG Version: 6.00 Build 0)  -->
<svg version="1.1" id="Layer_1" xmlns="http://www.w3.org/2000/svg" xmlns:xlink="http://www.w3.org/1999/xlink" x="0px" y="0px"
	 viewBox="0 0 29.9 27.3" style="enable-background:new 0 0 29.9 27.3;" xml:space="preserve">
<style type="text/css">
	.st0{fill:#FFFFFF;}
</style>
<path class="st0" d="M18.5,0C12.2,0,7.1,5.1,7.1,11.4c0,0.1,0,0.3,0,0.4C3.2,12.2,0,15.6,0,19.5c0,4.3,3.5,7.8,7.8,7.8
	c3.2,0,6.2-2.1,7.3-5.1c1.1,0.4,2.3,0.5,3.4,0.5c6.3,0,11.4-5.1,11.4-11.4S24.8,0,18.5,0z M18.5,20.7c-1,0-2-0.2-3-0.5
	c0-0.2,0-0.4,0-0.6c0-3.7-2.7-6.9-6.3-7.6c0-0.2,0-0.4,0-0.5c0-5.1,4.1-9.2,9.2-9.2s9.2,4.1,9.2,9.2S23.6,20.7,18.5,20.7z M7.8,25.2
	c-3.1,0-5.6-2.5-5.6-5.6S4.7,14,7.8,14s5.6,2.5,5.6,5.6S10.9,25.2,7.8,25.2z M10.3,17.5c0-0.7-0.3-1.3-0.7-1.8
	C9.1,15.2,8.5,15,7.8,15c-1.4,0-2.5,1.1-2.5,2.5v0.8H4.8v4.8h5.9v-4.8h-0.5v-0.8H10.3z M7.8,16.4c0.3,0,0.6,0.1,0.8,0.3
	c0.2,0.2,0.3,0.5,0.3,0.8v0.8H6.7v-0.8C6.7,16.9,7.2,16.4,7.8,16.4z M21.6,12.6l0.2,0.2l-1.4,1.1l-0.2-0.2c-0.4-0.5-1-0.8-1.6-0.8
	s-1.2,0.3-1.6,0.8l-0.2,0.2l-1.4-1.1l0.2-0.2c0.7-0.9,1.8-1.5,3-1.5S20.8,11.6,21.6,12.6z M25.5,9.8l-1.4,1.1l-0.2-0.2
	c-1.3-1.6-3.2-2.6-5.3-2.6s-4,0.9-5.4,2.6L13,10.9l-1.4-1.1l0.2-0.2c1.7-2.1,4.1-3.3,6.8-3.3s5.1,1.2,6.8,3.3L25.5,9.8z M19.9,14.8
	c0,0.7-0.6,1.4-1.4,1.4c-0.7,0-1.4-0.6-1.4-1.4s0.6-1.4,1.4-1.4C19.3,13.5,19.9,14.1,19.9,14.8z M23.5,11.1l0.2,0.2l-1.4,1.1
	l-0.2-0.2c-0.9-1.1-2.1-1.7-3.5-1.7s-2.6,0.6-3.5,1.7l-0.2,0.2l-1.4-1.1l0.2-0.2c1.2-1.5,3-2.4,4.9-2.4S22.3,9.6,23.5,11.1z"/>
</svg>
