<?xml version="1.0" encoding="utf-8"?>
<!-- Generator: Adobe Illustrator 26.4.1, SVG Export Plug-In . SVG Version: 6.00 Build 0)  -->
<svg version="1.1" id="Layer_1" xmlns="http://www.w3.org/2000/svg" xmlns:xlink="http://www.w3.org/1999/xlink" x="0px" y="0px"
	 viewBox="0 0 32.2 22.4" style="enable-background:new 0 0 32.2 22.4;" xml:space="preserve">
<style type="text/css">
	.st0{fill:#FFFFFF;}
</style>
<g id="ICON_ARTWORK">
	<path class="st0" d="M29,12.1v-0.4c0-0.8-0.7-1.4-1.4-1.4c-0.8,0-1.4,0.6-1.4,1.4c0,0,0,0,0,0v0.4h-0.3v2.8h3.4v-2.8H29z
		 M27.6,11.1c0.2,0,0.3,0.1,0.4,0.2c0.1,0.1,0.2,0.3,0.2,0.4v0.4H27v-0.4C27,11.4,27.3,11.1,27.6,11.1z M19.2,4.2
		c0-0.8-0.6-1.5-1.4-1.5c0,0,0,0,0,0c-0.8,0-1.5,0.7-1.5,1.5v0.4H16v2.9h3.5V4.6h-0.3V4.2z M17.1,4.6V4.2c0-0.3,0.3-0.6,0.7-0.6
		c0.1,0,0.2,0.1,0.3,0.1c0.1,0.1,0.2,0.3,0.2,0.4v0.4H17.1z M10.8,13c0-0.8-0.7-1.5-1.5-1.5S7.8,12.2,7.8,13v0.4H7.5v2.9H11v-2.9
		h-0.3L10.8,13z M9.3,12.4c0.2,0,0.3,0.1,0.4,0.2c0.1,0.1,0.2,0.3,0.2,0.4v0.4H8.7V13C8.7,12.7,8.9,12.4,9.3,12.4z M0,20.4h18.5v2H0
		L0,20.4z M27.4,5.7V0H8.1v8.4H1.5v11.2h15.6v-3.1h5.7v-2h-1.6v-0.7h1.8v6h9.3v-14H27.4z M10,8.4V1.9h15.6v3.9H23v6.1h-5.9V8.4H10z
		 M24.8,17.5V7.6h5.5v9.9H24.8z M3.4,17.7v-7.5h11.8v7.5H3.4z"/>
</g>
</svg>
