<?xml version="1.0" encoding="utf-8"?>
<!-- Generator: Adobe Illustrator 26.4.1, SVG Export Plug-In . SVG Version: 6.00 Build 0)  -->
<svg version="1.1" id="Layer_1" xmlns="http://www.w3.org/2000/svg" xmlns:xlink="http://www.w3.org/1999/xlink" x="0px" y="0px"
	 viewBox="0 0 39.1 34.2" style="enable-background:new 0 0 39.1 34.2;" xml:space="preserve">
<style type="text/css">
	.st0{fill:#FFFFFF;}
</style>
<g id="ICON_ARTWORK">
	<path class="st0" d="M27.9,0H11.3v11.9h16.6V0z M13.1,10V1.8h13V10L13.1,10z M29.6,14.8h-20V13h20V14.8z M21.3,31.3h16.6V19.4H21.3
		V31.3z M36.1,21.3v8.2h-13v-8.2L36.1,21.3z M39.1,32.4v1.8H20v-1.8L39.1,32.4z M17.9,19.4H1.3v11.9h16.7V19.4z M3.1,29.4v-8.2h13
		v8.2L3.1,29.4z M0,32.4h19v1.8H0L0,32.4z M20.7,19.3l-1.2-1.2l-1.2,1.2l-0.7-0.7l1.4-1.4v-1.9h1v1.9l0.2,0.2l0,0l1.2,1.2L20.7,19.3
		z"/>
</g>
</svg>
