<?xml version="1.0" encoding="utf-8"?>
<!-- Generator: Adobe Illustrator 26.4.1, SVG Export Plug-In . SVG Version: 6.00 Build 0)  -->
<svg version="1.1" id="Layer_1" xmlns="http://www.w3.org/2000/svg" xmlns:xlink="http://www.w3.org/1999/xlink" x="0px" y="0px"
	 viewBox="0 0 31 21.2" style="enable-background:new 0 0 31 21.2;" xml:space="preserve">
<style type="text/css">
	.st0{fill:#FFFFFF;}
</style>
<path class="st0" d="M27.3,11.7c0,0.1,0,0.1,0,0.2s0,0.2,0,0.2c-0.1,0.1-0.1,0.2-0.3,0.3h0.2v1.1h-1.1l0,0v-1.1l0,0h0.2
	c-0.1,0-0.1-0.1-0.2-0.2C26,12.1,26,12,26,11.8c0-0.1,0.1-0.3,0.1-0.4c0.1-0.2,0.3-0.3,0.5-0.3C27,11.2,27.3,11.4,27.3,11.7z
	 M31,8.7V16h-3.1v5.2H0V0h27.9v5.5C29.2,6,30,7.2,30,8.5v0.2H31z M24.6,10.9v2.9h4.2v-2.9H24.6z M22.4,16V8.7h1V8.5
	c0-1.4,0.9-2.6,2.2-3.1V2.2h-5.5V19h5.5v-3H22.4z M25.7,8.7h2.1V8.5c0-0.4-0.2-0.8-0.6-1c-0.3-0.1-0.5-0.1-0.8,0
	c-0.4,0.2-0.7,0.6-0.7,1V8.7z M18,2.2h-7.4v3.4h0.2l0.4-1l2.4-1.2l0.9,1.7L13,5.8c0.9,0.2,1.7,0.7,2.3,1.3c0.3,0.3,0.6,0.7,0.9,1.2
	l1.1-0.6L18,9V2.2z M10.6,13.9h1.2c0.8,0,1.6-0.3,2.2-0.9s0.9-1.4,0.9-2.3c0-0.8-0.3-1.6-0.9-2.2s-1.4-0.9-2.2-0.9h-1.2V13.9z
	 M10.6,19H18v-6.8l-0.6,1.3l-1-0.5c-0.2,0.5-0.5,0.9-0.9,1.3c-0.6,0.6-1.3,1-2.1,1.3l1.2,0.6l-0.8,1.7l-2.4-1.2L11,15.9h-0.4
	C10.6,15.9,10.6,19,10.6,19z M18,9.5l-1.1,0.6c0,0.2,0,0.4,0,0.6s0,0.3,0,0.5l1.1,0.6V9.5z M8.4,13.8V7.5H8.2
	c-1.5,0.3-2.6,1.6-2.6,3.1s1.1,2.8,2.6,3.1L8.4,13.8z M8.4,2.2H2.2V19h6.3v-2.8l-0.2,0.4l-2.4,1.2L5,16.1l1.7-0.9
	c-1.8-0.8-3-2.6-3-4.6s1.2-3.8,3-4.6V5.9L4.9,5l0.8-1.7l2.4,1.2l0.2,0.6L8.4,2.2L8.4,2.2z"/>
</svg>
