<?xml version="1.0" encoding="utf-8"?>
<!-- Generator: Adobe Illustrator 26.4.1, SVG Export Plug-In . SVG Version: 6.00 Build 0)  -->
<svg version="1.1" id="Layer_1" xmlns="http://www.w3.org/2000/svg" xmlns:xlink="http://www.w3.org/1999/xlink" x="0px" y="0px"
	 viewBox="0 0 31.1 25.6" style="enable-background:new 0 0 31.1 25.6;" xml:space="preserve">
<style type="text/css">
	.st0{fill:#FFFFFF;}
</style>
<g id="ICON_ARTWORK">
	<path class="st0" d="M10.9,25.6h9.3V0h-9.3V25.6z M18,2.2v21.2h-4.9V2.2H18z M0,25.6h9.3V0H0.1L0,25.6z M7.1,2.2v21.2H2.3V2.2H7.1z
		 M21.8,0v25.6h9.3V0H21.8z M24,23.4V2.2h4.9v21.2H24z M16.8,21.7c0,0.7-0.6,1.3-1.3,1.3s-1.3-0.6-1.3-1.3l0,0
		c0-0.7,0.6-1.3,1.3-1.3S16.8,21,16.8,21.7z M6.6,9.1H2.8V7.4h3.8V9.1z M17.5,12.3h-3.8v-1.6h3.8L17.5,12.3z M6.6,12.3H2.8v-1.6h3.8
		L6.6,12.3z M6,21.7c0,0.7-0.6,1.3-1.3,1.3s-1.3-0.6-1.3-1.3c0-0.7,0.6-1.3,1.3-1.3S6,21,6,21.7L6,21.7z M6.6,5.9H2.8V4.3h3.8
		L6.6,5.9z M24.6,10.6h3.8v1.6h-3.9L24.6,10.6z M24.6,7.4h3.8v1.6h-3.9L24.6,7.4z M24.6,4.3h3.8v1.6h-3.9L24.6,4.3z M17.5,5.9h-3.9
		V4.3h3.8L17.5,5.9z M17.5,9.1h-3.9V7.4h3.8L17.5,9.1z M27.7,21.7c0,0.7-0.6,1.3-1.3,1.3c-0.7,0-1.3-0.6-1.3-1.3
		c0-0.7,0.6-1.3,1.3-1.3l0,0C27.1,20.4,27.7,21,27.7,21.7z"/>
</g>
</svg>
