<?xml version="1.0" encoding="utf-8"?>
<!-- Generator: Adobe Illustrator 26.4.1, SVG Export Plug-In . SVG Version: 6.00 Build 0)  -->
<svg version="1.1" id="Layer_1" xmlns="http://www.w3.org/2000/svg" xmlns:xlink="http://www.w3.org/1999/xlink" x="0px" y="0px"
	 viewBox="0 0 14.2 14.2" style="enable-background:new 0 0 14.2 14.2;" xml:space="preserve">
<style type="text/css">
	.st0{fill:#FFFFFF;}
</style>
<g id="ICON_ARTWORK">
	<path class="st0" d="M7.1,0C3.2,0,0,3.2,0,7.1s3.2,7.1,7.1,7.1c3.9,0,7.1-3.2,7.1-7.1c0,0,0,0,0,0C14.2,3.2,11,0,7.1,0z M11.8,7.1
		c0,2.6-2.1,4.7-4.7,4.7S2.4,9.7,2.4,7.1s2.1-4.7,4.7-4.7c2.5-0.1,4.6,1.9,4.7,4.4C11.8,6.9,11.8,7,11.8,7.1z M10.1,5.4L8.4,7.1
		l1.8,1.7L9,10.1L7.1,8.3l-1.8,1.8L4.1,8.8l1.8-1.7L4.1,5.4l1.2-1.3l1.8,1.8L9,4.1L10.1,5.4z"/>
</g>
</svg>
