<?xml version="1.0" encoding="utf-8"?>
<!-- Generator: Adobe Illustrator 26.4.1, SVG Export Plug-In . SVG Version: 6.00 Build 0)  -->
<svg version="1.1" id="Layer_1" xmlns="http://www.w3.org/2000/svg" xmlns:xlink="http://www.w3.org/1999/xlink" x="0px" y="0px"
	 viewBox="0 0 35.6 26.2" style="enable-background:new 0 0 35.6 26.2;" xml:space="preserve">
<style type="text/css">
	.st0{fill:#FFFFFF;}
</style>
<g id="ICON_ARTWORK">
	<path class="st0" d="M35.6,13.1c0,2.8-2.2,5-5,5c-0.2,0-0.4,0-0.6,0c-1.9,4.6-6.2,7.8-11.2,8.1l0,0h-0.4h-1h-0.5
		c-5-0.4-9.4-3.5-11.2-8.2c-0.2,0-0.4,0-0.6,0c-2.8,0-5-2.2-5-5s2.2-5,5-5c0.2,0,0.4,0,0.6,0C7.5,3.5,11.9,0.4,16.8,0l0,0h0.4h1h0.4
		c5,0.4,9.3,3.5,11.2,8.1c0.2,0,0.4,0,0.6,0C33.3,8,35.5,10.3,35.6,13.1C35.6,13,35.6,13.1,35.6,13.1z M5.9,13.1l1.3,1.2l-0.9,0.9
		L5,14l-1.3,1.2l-0.9-0.9l1.2-1.2l-1.2-1.2L3.7,11L5,12.2L6.3,11l0.9,0.9L5.9,13.1z M32.1,11.3L30,13.4l-0.8-0.9l-0.9,0.9l1.3,1.4
		l0.4,0.4l3-3L32.1,11.3z M18.9,20v3c0.7-0.9,1.4-1.9,2-3H18.9z M14.7,20c0.6,1.1,1.2,2.1,2,3v-3H14.7z M5,9.7
		c-1.9,0-3.3,1.5-3.3,3.4c0,1.9,1.5,3.3,3.4,3.3c1.9,0,3.3-1.5,3.3-3.4C8.3,11.2,6.8,9.7,5,9.7z M16.7,6.1v-3c-0.7,0.9-1.4,1.9-2,3
		H16.7z M12.4,6.1c0.6-1.3,1.4-2.6,2.2-3.7C12.5,3,10.5,4.3,9.1,6.1H12.4z M11.5,8.5H7.8C7.8,8.6,7.7,8.8,7.6,8.9
		c1.2,0.6,2,1.8,2.3,3.1h0.8C10.9,10.8,11.1,9.6,11.5,8.5z M7.6,17.4l0.2,0.4h3.7c-0.4-1.1-0.6-2.3-0.7-3.5H9.9
		C9.6,15.6,8.8,16.7,7.6,17.4L7.6,17.4z M9.1,20.1c1.4,1.8,3.4,3.2,5.6,3.7c-0.9-1.2-1.6-2.4-2.2-3.7H9.1z M20.8,6.1
		c-0.6-1.1-1.2-2.1-2-3v3H20.8z M27.9,8.8c0-0.1-0.1-0.3-0.2-0.4H24c0.4,1.1,0.6,2.3,0.7,3.5h0.8C25.9,10.6,26.7,9.5,27.9,8.8z
		 M24,17.7h3.7l0.2-0.4c-1.2-0.6-2-1.8-2.3-3.1h-0.8C24.7,15.4,24.4,16.6,24,17.7z M26.4,6.1c-1.4-1.8-3.4-3.2-5.6-3.7
		c0.9,1.2,1.6,2.4,2.2,3.7H26.4z M23.1,20c-0.6,1.3-1.4,2.6-2.2,3.7c2.2-0.6,4.2-1.9,5.6-3.7H23.1z M30.5,9.7
		c-1.9,0-3.3,1.5-3.3,3.4s1.5,3.3,3.4,3.3c1.9,0,3.3-1.5,3.3-3.4C33.9,11.2,32.4,9.7,30.5,9.7C30.5,9.7,30.5,9.7,30.5,9.7z
		 M18.9,8.5V12h3.7c-0.1-1.2-0.4-2.4-0.9-3.5H18.9z M13.9,8.5c-0.5,1.1-0.8,2.3-0.9,3.5h3.7V8.5H13.9z M21.6,17.8
		c0.5-1.1,0.8-2.3,0.9-3.5h-3.7v3.5H21.6z M16.6,17.8v-3.5H13c0.1,1.2,0.4,2.4,0.9,3.5L16.6,17.8z"/>
</g>
</svg>
