<?xml version="1.0" encoding="utf-8"?>
<!-- Generator: Adobe Illustrator 26.4.1, SVG Export Plug-In . SVG Version: 6.00 Build 0)  -->
<svg version="1.1" id="Layer_1" xmlns="http://www.w3.org/2000/svg" xmlns:xlink="http://www.w3.org/1999/xlink" x="0px" y="0px"
	 viewBox="0 0 27.4 30.9" style="enable-background:new 0 0 27.4 30.9;" xml:space="preserve">
<style type="text/css">
	.st0{fill:#FFFFFF;}
</style>
<path class="st0" d="M17.9,15.7v-0.2c0-0.7-0.2-1.3-0.5-1.9l-0.1-0.2l-1.1,0.2c-0.1-0.1-0.2-0.2-0.3-0.3l0.2-1.1l-0.3-0.3
	c-0.6-0.3-1.2-0.5-1.9-0.5h-0.2l-0.5,1.1c-0.1,0-0.3,0.1-0.4,0.1l-0.9-0.7L11.7,12c-0.6,0.3-1,0.8-1.4,1.4l-0.1,0.2l0.7,0.9
	c0,0.1-0.1,0.3-0.1,0.4l-1.1,0.4v0.2c0,0.7,0.2,1.3,0.5,1.9l0.1,0.2l1.1-0.2c0.1,0.1,0.2,0.2,0.3,0.3l-0.1,1.2l0.2,0.1
	c0.6,0.3,1.2,0.5,1.9,0.5h0.2l0.4-1.1c0.1,0,0.3-0.1,0.4-0.1l0.9,0.7l0.2-0.1c0.6-0.3,1-0.8,1.4-1.4l0.1-0.2l-0.7-0.9
	c0-0.1,0.1-0.3,0.1-0.4L17.9,15.7z M14.5,15.9c-0.2,0.4-0.7,0.5-1,0.3c-0.2-0.1-0.3-0.3-0.4-0.5s0-0.4,0.1-0.6
	c0.2-0.3,0.7-0.5,1-0.3C14.6,15.1,14.7,15.5,14.5,15.9z M26.3,20.7c-0.6-0.3-1.3-0.4-1.9-0.1l-2.1-1.2c0.6-1.2,0.9-2.6,0.9-3.9
	c0-1.2-0.2-2.4-0.7-3.5l2.1-1.2c0.6,0.3,1.3,0.3,1.9-0.1c0.9-0.5,1.3-1.8,0.7-2.7c-0.3-0.5-0.7-0.8-1.2-0.9C25.5,7,25,7,24.5,7.3
	c-0.6,0.3-0.9,0.9-1,1.6l-2.1,1.2C19.9,8,17.6,6.6,15,6.2V3.7c0.6-0.4,0.9-1,0.9-1.7c0-1.1-0.9-2-2-2s-2,0.9-2,2
	c0,0.7,0.3,1.3,0.9,1.7v2.4c-2.6,0.2-4.9,1.5-6.6,3.6l-2-1.3c0-0.7-0.4-1.3-1-1.6c-0.5-0.3-1-0.3-1.5-0.2S0.8,7.1,0.5,7.5
	C0.2,8,0.2,8.5,0.3,9s0.5,0.9,0.9,1.2c0.6,0.3,1.3,0.4,1.9,0.1l2.1,1.2c-0.6,1.2-0.9,2.6-0.9,3.9c0,1.2,0.2,2.4,0.7,3.5l-2.1,1.2
	c-0.6-0.3-1.3-0.3-1.9,0.1c-0.5,0.3-0.8,0.7-0.9,1.2s-0.1,1,0.2,1.5s0.7,0.8,1.2,0.9s1,0.1,1.5-0.2c0.6-0.3,0.9-0.9,1-1.6l2.1-1.2
	c1.5,2.1,3.8,3.5,6.4,3.9v2.5c-0.6,0.4-0.9,1-0.9,1.7c0,1.1,0.9,2,2,2s2-0.9,2-2c0-0.7-0.3-1.3-0.9-1.7v-2.3
	c2.6-0.2,4.9-1.5,6.6-3.6l2.1,1.2c0,0.7,0.4,1.3,1,1.6c0.5,0.3,1,0.3,1.5,0.2c0.5-0.1,0.9-0.5,1.2-0.9c0.3-0.5,0.3-1,0.2-1.5
	C27.1,21.4,26.8,21,26.3,20.7z M13.8,22.7c-4,0-7.2-3.2-7.2-7.2s3.2-7.2,7.2-7.2s7.2,3.2,7.2,7.2S17.8,22.7,13.8,22.7z"/>
</svg>
