<?xml version="1.0" encoding="utf-8"?>
<!-- Generator: Adobe Illustrator 26.4.1, SVG Export Plug-In . SVG Version: 6.00 Build 0)  -->
<svg version="1.1" id="Layer_1" xmlns="http://www.w3.org/2000/svg" xmlns:xlink="http://www.w3.org/1999/xlink" x="0px" y="0px"
	 viewBox="0 0 26.7 26.7" style="enable-background:new 0 0 26.7 26.7;" xml:space="preserve">
<style type="text/css">
	.st0{fill:#FFFFFF;}
</style>
<g id="ICON_ARTWORK">
	<path class="st0" d="M22.8,3.9c-5.2-5.2-13.7-5.2-18.9,0s-5.2,13.7,0,18.9c5.2,5.2,13.6,5.2,18.8,0C28,17.6,28,9.1,22.8,3.9
		C22.8,3.9,22.8,3.9,22.8,3.9z M21.2,21.2c-4.3,4.3-11.3,4.3-15.6,0S1.3,9.8,5.6,5.5c4.3-4.3,11.3-4.3,15.6,0
		C25.5,9.8,25.5,16.8,21.2,21.2z M8.2,18.3h12.1v1.9h-14v-14h1.9V14l2.1-2.1l1.9,1.9l3.5-3.5h-1.3V8.3h4.5v4.6H17v-1.3l-4.8,4.8
		l-1.9-1.9l-2.1,2.1L8.2,18.3z"/>
</g>
</svg>
