<?xml version="1.0" encoding="utf-8"?>
<!-- Generator: Adobe Illustrator 26.4.1, SVG Export Plug-In . SVG Version: 6.00 Build 0)  -->
<svg version="1.1" id="Layer_1" xmlns="http://www.w3.org/2000/svg" xmlns:xlink="http://www.w3.org/1999/xlink" x="0px" y="0px"
	 viewBox="0 0 21.5 21.2" style="enable-background:new 0 0 21.5 21.2;" xml:space="preserve">
<style type="text/css">
	.st0{fill:#FFFFFF;}
</style>
<g id="ICON_ARTWORK">
	<path class="st0" d="M17.5,0l-7.4,1.5H10l-10,10l9.8,9.8l10-10l0.1-0.1L21.5,4L17.5,0z M9.8,18.2l-6.7-6.7l8-8l5.7-1.1l2.4,2.3
		l-1.3,5.4L9.8,18.2z M17.2,4c-1-0.9-2.5-0.8-3.4,0.2c-0.8,0.9-0.8,2.3,0,3.2c0.9,0.9,2.4,0.9,3.4,0c0,0,0,0,0,0
		C18.1,6.4,18.1,4.9,17.2,4C17.2,4,17.2,4,17.2,4z M15.9,6.1c-0.2,0.2-0.6,0.2-0.8,0c-0.2-0.2-0.2-0.6,0-0.8c0,0,0,0,0,0
		c0.2-0.2,0.6-0.2,0.8,0c0.1,0.1,0.2,0.3,0.2,0.4C16.1,5.8,16,6,15.9,6.1L15.9,6.1z M12,11.1h1.8v0.5c0,0.6-0.2,1.1-0.5,1.6
		c-0.6,1.1-1.8,1.8-3.1,1.8c-0.6,0-1.2-0.2-1.8-0.5c-1-0.6-1.7-1.7-1.8-2.9v-0.1c0-0.1,0-0.1,0-0.2v-0.2c0-0.6,0.2-1.1,0.4-1.6
		c0.3-0.5,0.8-1,1.3-1.3C9,8,9.6,7.9,10.2,7.9h0.4l0,0h0.1L11,6.5l2.3,2.9l-3.5,1.4l0.3-1.2c-0.3,0-0.5,0.1-0.8,0.2
		c-0.3,0.2-0.5,0.4-0.6,0.6c-0.2,0.3-0.2,0.6-0.2,0.9c0,0.3,0.1,0.6,0.2,0.9c0.2,0.3,0.4,0.5,0.6,0.6c0.5,0.3,1.2,0.3,1.8,0
		c0.3-0.2,0.5-0.4,0.6-0.6c0.2-0.3,0.2-0.6,0.2-0.9L12,11.1z"/>
</g>
</svg>
