<?xml version="1.0" encoding="utf-8"?>
<!-- Generator: Adobe Illustrator 26.4.1, SVG Export Plug-In . SVG Version: 6.00 Build 0)  -->
<svg version="1.1" id="Layer_1" xmlns="http://www.w3.org/2000/svg" xmlns:xlink="http://www.w3.org/1999/xlink" x="0px" y="0px"
	 viewBox="0 0 25.6 26.9" style="enable-background:new 0 0 25.6 26.9;" xml:space="preserve">
<style type="text/css">
	.st0{fill:#FFFFFF;}
</style>
<g id="ICON_ARTWORK">
	<path class="st0" d="M17.7,22.8V24H7.8v-1.2H17.7z M7.8,20.5v1.2h9.9v-1.2H7.8z M22,12.9c-0.5,0-0.9,0.4-0.9,0.9s0.4,0.9,0.9,0.9
		s0.9-0.4,0.9-0.9S22.5,12.9,22,12.9L22,12.9z M25.6,10.2v13.2h-4.4v3.5H4.4v-3.5H0V10.2h4.3V0h11.2l5.7,4.1v6.1L25.6,10.2z
		 M14.3,5.6V2.3H6.7v7.9h12.2V5.6L14.3,5.6z M21.2,17.6v3.5h2v-8.6h-21v8.6h2.1v-3.5H21.2z M18.9,24.6v-4.7H6.7v4.7L18.9,24.6z"/>
</g>
</svg>
