<?xml version="1.0" encoding="utf-8"?>
<!-- Generator: Adobe Illustrator 26.4.1, SVG Export Plug-In . SVG Version: 6.00 Build 0)  -->
<svg version="1.1" id="Layer_1" xmlns="http://www.w3.org/2000/svg" xmlns:xlink="http://www.w3.org/1999/xlink" x="0px" y="0px"
	 viewBox="0 0 24.3 26.3" style="enable-background:new 0 0 24.3 26.3;" xml:space="preserve">
<style type="text/css">
	.st0{fill:#FFFFFF;}
</style>
<g id="ICON_ARTWORK">
	<path class="st0" d="M22.4,7.6L24,6l-3.8-3.8l-1.6,1.6c-1.2-0.7-2.4-1.3-3.8-1.6V0H9.5v2.3C3,3.8-1.2,10.3,0.3,16.8
		s8,10.7,14.5,9.2s10.7-8,9.2-14.5C23.7,10.1,23.1,8.8,22.4,7.6z M21.9,15.3c-0.2,1.8-0.9,3.6-2.1,5l-1.1-1.1l-1.6,1.6l1.1,1.1
		c-1.5,1.1-3.2,1.8-5,2v-1.5H11v1.5c-1.8-0.2-3.5-0.9-4.9-2.1l1-1l-1.6-1.6l-1,1c-1.1-1.4-1.8-3.1-2-4.9h1.4V13H2.4
		c0.2-1.8,0.9-3.5,2-4.9l1,1L7,7.5l-1-1c1.4-1.1,3.1-1.8,5-2v1.5h2.3V4.4c1.8,0.2,3.6,0.9,5,2l-1.1,1.1l1.6,1.6L19.9,8
		c1.1,1.4,1.9,3.2,2.1,5h-1.6v2.3L21.9,15.3z M13.8,12.2c0.5,0.5,0.9,1.2,0.9,2c0,1.5-1.2,2.7-2.7,2.7c-1.5,0-2.7-1.2-2.7-2.7
		c0-1.5,1.2-2.7,2.7-2.7h0.2l2.3-5.7l1.6,0.7L13.8,12.2z"/>
</g>
</svg>
