<?xml version="1.0" encoding="utf-8"?>
<!-- Generator: Adobe Illustrator 26.4.1, SVG Export Plug-In . SVG Version: 6.00 Build 0)  -->
<svg version="1.1" id="Layer_1" xmlns="http://www.w3.org/2000/svg" xmlns:xlink="http://www.w3.org/1999/xlink" x="0px" y="0px"
	 viewBox="0 0 21.8 27" style="enable-background:new 0 0 21.8 27;" xml:space="preserve">
<style type="text/css">
	.st0{fill:#FFFFFF;}
</style>
<path class="st0" d="M20.4,1.5C18.7,1.1,14.5,0,10.9,0C7.4,0,3.1,1,1.4,1.5L0,1.9v19.7L10.9,27l10.9-5.4V1.9L20.4,1.5z M2.2,3.6
	C3.9,3.2,7.8,2.3,11,2.3s7.1,0.9,8.7,1.3v16.6l-8.8,4.3l-8.7-4.3C2.2,20.2,2.2,3.6,2.2,3.6z M9.8,18.8l0.1,0.1l-0.8,0.9L9,19.7
	c-0.1-0.1-2.6-2.4-2.6-5.2c0-2.5,2-4.5,4.5-4.5s4.5,2,4.5,4.5v0.2h-1.2v-0.2c0-1.8-1.5-3.3-3.3-3.3s-3.3,1.5-3.3,3.3
	C7.6,16.7,9.7,18.7,9.8,18.8z M15.9,10.4c1.1,1.2,1.6,2.7,1.4,4.2c-0.2,1.3-1.5,2.1-2.7,2c-1.4-0.1-2.3-1-2.5-2.6
	c-0.1-0.6-0.7-0.9-1.3-0.9c-0.7,0-1.3,0.6-1.3,1.3c0,0.5,0.2,1.1,0.7,1.8c0.4,0.6,0.8,1,0.9,1.1c0.7,0.6,1.4,1,2.4,1.4l0.2,0.1
	L13.3,20l-0.2-0.1c-1.1-0.4-1.9-0.9-2.7-1.5l0,0l-0.2-0.2l0,0C10,18,9.6,17.6,9.2,17c-0.6-0.9-0.9-1.8-0.9-2.5
	c0-1.4,1.2-2.6,2.6-2.6c1.3,0,2.3,0.8,2.5,1.9c0.2,1,0.6,1.4,1.4,1.5c0.6,0.1,1.2-0.3,1.3-0.9c0.1-1.1-0.3-2.3-1.1-3.3
	c-1-1.2-2.6-1.9-4.1-1.9c-2.9,0-5.2,2.3-5.2,5.2c0,0.8,0.2,1.6,0.6,2.5l0.1,0.2l-1.1,0.5l-0.1-0.2c-0.4-1-0.7-2-0.7-3
	c0-3.5,2.9-6.4,6.4-6.4C12.7,8.1,14.6,8.9,15.9,10.4z M15.6,16.9l0.3,1.2h-0.2c-0.4,0.1-0.8,0.2-1.2,0.2c-2.4,0-4.4-2-4.4-4.4v-0.2
	h1.2v0.2c0,1.7,1.4,3.2,3.2,3.2c0.3,0,0.6,0,0.9-0.1L15.6,16.9z M4.8,10.9l-1-0.7l0.1-0.1c1.5-2.4,4.2-3.9,7-3.9
	c2.4,0,4.8,1.1,6.4,2.9c0.3,0.3,0.5,0.6,0.7,0.9l0.1,0.1l-1,0.7L17,10.7c-0.2-0.3-0.4-0.5-0.6-0.8C15,8.3,13,7.4,10.9,7.4
	c-2.4,0-4.7,1.2-6,3.3L4.8,10.9z M5.8,7L5.1,6l0.2-0.1c3.3-2.2,7.7-2.2,11.2,0L16.6,6l-0.7,1.1l-0.1-0.2c-1.5-0.9-3.2-1.4-4.9-1.4
	C9.2,5.5,7.5,6,6,6.9L5.8,7z"/>
</svg>
