<?xml version="1.0" encoding="utf-8"?>
<!-- Generator: Adobe Illustrator 26.4.1, SVG Export Plug-In . SVG Version: 6.00 Build 0)  -->
<svg version="1.1" id="Layer_1" xmlns="http://www.w3.org/2000/svg" xmlns:xlink="http://www.w3.org/1999/xlink" x="0px" y="0px"
	 viewBox="0 0 31.1 27.1" style="enable-background:new 0 0 31.1 27.1;" xml:space="preserve">
<style type="text/css">
	.st0{fill:#FFFFFF;}
</style>
<g id="ICON_ARTWORK">
	<path class="st0" d="M25.7,0c-2.5,0-4.6,1.7-5.2,4.2H0v18.9h8.7v1.8H6.3v2.3h14.2v-2.3h-2.3v-1.8h8.7V10.5c2.9-0.6,4.7-3.5,4-6.3
		C30.4,1.7,28.2,0,25.7,0z M2.3,20.8V6.5h18.3c0.4,2,2,3.6,4,4v10.3H2.3z M25.7,2.3c1.7,0,3,1.3,3,3s-1.3,3-3,3c-1.7,0-3-1.3-3-3
		S24.1,2.3,25.7,2.3z M17.1,15.4c1.5-2.4,0.7-5.6-1.8-7s-5.6-0.7-7,1.8s-0.7,5.6,1.8,7c1.6,1,3.7,1,5.3,0l3.2,3.2l1.8-1.8L17.1,15.4
		z M12.7,9.6c1.8,0,3.2,1.4,3.2,3.2S14.5,16,12.8,16s-3.2-1.4-3.2-3.2c0,0,0,0,0,0C9.5,11,11,9.6,12.7,9.6z M27.9,4.6V6h-1.4v1.4H25
		V6h-1.4V4.6H25V3.2h1.4v1.4L27.9,4.6z"/>
</g>
</svg>
