<?xml version="1.0" encoding="utf-8"?>
<!-- Generator: Adobe Illustrator 26.4.1, SVG Export Plug-In . SVG Version: 6.00 Build 0)  -->
<svg version="1.1" id="Layer_1" xmlns="http://www.w3.org/2000/svg" xmlns:xlink="http://www.w3.org/1999/xlink" x="0px" y="0px"
	 viewBox="0 0 27.2 27.2" style="enable-background:new 0 0 27.2 27.2;" xml:space="preserve">
<style type="text/css">
	.st0{fill:#FFFFFF;}
</style>
<g id="ICON_ARTWORK">
	<path class="st0" d="M27.2,8.9V6.1h-2.1V2.2h-4V0h-2.8v2.2H17V0h-2.9v2.2H13V0h-2.9v2.2H8.9V0H6v2.2H1.9v3.9H0V9h1.9v1.2H0V13h1.9
		v1.2H0v2.9h1.9v1.2H0v2.9h1.9v4.2h4.2v1.9H9v-1.9h1.2v1.9H13v-1.9h1.2v1.9h2.9v-1.9h1.2v1.9h2.9v-1.9h3.9v-4.2h2.1v-2.9h-2.1v-1.2
		h2.1v-2.9h-2.1V13h2.1v-2.9h-2.1V8.9H27.2z M22.9,4.3v18.8H4.1V4.3H22.9z"/>
</g>
</svg>
