<?xml version="1.0" encoding="utf-8"?>
<!-- Generator: Adobe Illustrator 26.4.1, SVG Export Plug-In . SVG Version: 6.00 Build 0)  -->
<svg version="1.1" id="Layer_1" xmlns="http://www.w3.org/2000/svg" xmlns:xlink="http://www.w3.org/1999/xlink" x="0px" y="0px"
	 viewBox="0 0 27.7 18" style="enable-background:new 0 0 27.7 18;" xml:space="preserve">
<style type="text/css">
	.st0{fill:#FFFFFF;}
</style>
<g id="ICON_ARTWORK">
	<path class="st0" d="M3,3v15h24.7V3H3z M5,15.9V5h20.6v10.9H5z M24,2.1h-22v12.3H0V0h24.1L24,2.1z M15.3,6.5c-2.2,0-4,1.8-4,4
		s1.8,4,4,4s4-1.8,4-4C19.3,8.3,17.5,6.5,15.3,6.5L15.3,6.5z M17.6,10.5c0,1.3-1,2.3-2.3,2.3c-1.3,0-2.3-1-2.3-2.3
		c0-1.3,1-2.3,2.3-2.3C16.6,8.2,17.6,9.2,17.6,10.5C17.6,10.5,17.6,10.5,17.6,10.5L17.6,10.5z M22.6,13.2h1.9v1.9h-1.8L22.6,13.2z
		 M24.5,6v1.9h-1.8V5.9L24.5,6z M6.1,13.2h1.9v1.9H6.1V13.2z M6.1,5.9h1.9v1.9H6.1V5.9z"/>
</g>
</svg>
