<?xml version="1.0" encoding="utf-8"?>
<!-- Generator: Adobe Illustrator 26.4.1, SVG Export Plug-In . SVG Version: 6.00 Build 0)  -->
<svg version="1.1" id="Layer_1" xmlns="http://www.w3.org/2000/svg" xmlns:xlink="http://www.w3.org/1999/xlink" x="0px" y="0px"
	 viewBox="0 0 19.6 28.3" style="enable-background:new 0 0 19.6 28.3;" xml:space="preserve">
<style type="text/css">
	.st0{fill:#FFFFFF;}
</style>
<g id="ICON_ARTWORK">
	<path class="st0" d="M16,28.3l-5.1-16.1l0.1-0.1c0.7-0.8,0.7-1.9,0-2.7c-0.7-0.7-1.7-0.7-2.4-0.1c0,0,0,0-0.1,0.1
		c-0.7,0.8-0.7,1.9,0,2.7l0.1,0.1L3.5,28.2L16,28.3z M6.7,24.7l0.5-1.5L8,23.7L6.7,24.7z M11.5,26.2H8L9.7,25L11.5,26.2z M11.5,23.7
		l0.8-0.6l0.5,1.6L11.5,23.7z M9.7,22.5l-1.9-1.4l1.9-6l1.9,6L9.7,22.5z M15.9,9.8c0,2.1-1,4-2.7,5.1l-0.5,0.4l-0.7-2.1l0.3-0.2
		c1.7-1.3,2-3.8,0.7-5.5c-1.3-1.7-3.8-2-5.5-0.7s-2,3.8-0.7,5.5c0.2,0.3,0.5,0.5,0.7,0.7l0.3,0.2l-0.7,2.1l-0.5-0.4
		c-2.8-1.9-3.6-5.7-1.7-8.5s5.7-3.6,8.5-1.7C14.9,5.9,15.9,7.8,15.9,9.8L15.9,9.8z M9.7,0.5c-5.2,0-9.3,4.2-9.3,9.3
		c0,3.5,1.9,6.7,5,8.3L5.8,17C1.9,14.8,0.4,9.9,2.6,5.9s7.1-5.4,11.1-3.2s5.4,7.1,3.2,11.1c-0.7,1.4-1.9,2.5-3.2,3.2l0.4,1.1
		c4.6-2.4,6.4-8,4-12.6C16.4,2.5,13.2,0.5,9.7,0.5z M9.7,0C4.3,0.1,0,4.5,0,10c0,3.6,2,6.9,5.2,8.6l0.5,0.3l0.7-2.1l-0.4-0.2
		C2.4,14.5,1,9.8,3,6.1s6.7-5.1,10.4-3s5.1,6.7,3,10.4c-0.7,1.3-1.8,2.3-3,3l-0.4,0.2l0.7,2.1l0.5-0.3c4.8-2.5,6.7-8.5,4.2-13.3
		C16.7,2,13.4,0,9.7,0L9.7,0z"/>
</g>
</svg>
