<?xml version="1.0" encoding="utf-8"?>
<!-- Generator: Adobe Illustrator 26.4.1, SVG Export Plug-In . SVG Version: 6.00 Build 0)  -->
<svg version="1.1" id="Layer_1" xmlns="http://www.w3.org/2000/svg" xmlns:xlink="http://www.w3.org/1999/xlink" x="0px" y="0px"
	 viewBox="0 0 19.8 29.4" style="enable-background:new 0 0 19.8 29.4;" xml:space="preserve">
<style type="text/css">
	.st0{fill:#FFFFFF;}
</style>
<path class="st0" d="M9.9,4.1c-3.2,0-5.8,2.6-5.8,5.8s2.6,5.8,5.8,5.8s5.8-2.6,5.8-5.8C15.7,6.7,13.1,4.1,9.9,4.1z M13.6,9.9
	c0,2-1.6,3.7-3.7,3.7S6.2,12,6.2,9.9c0-2,1.6-3.7,3.7-3.7S13.6,7.9,13.6,9.9z M16.9,2.9C15,1,12.5,0,9.9,0C7.2,0,4.6,1.1,2.7,3
	C0.9,4.9-0.1,7.4,0,9.9c0.1,1.9,0.5,2.9,0.9,4l0.2,0.5c0.5,1.4,7.5,12.8,7.8,13.3l1,1.7l1-1.7c0.3-0.5,7-11.3,8-13.7l0.1-0.2
	c0.4-0.9,0.8-2,0.8-4C19.8,7.3,18.8,4.8,16.9,2.9z M17.4,9.9c0,1.5-0.3,2.2-0.6,3.1l-0.1,0.1c-0.7,1.6-4.9,8.6-6.8,11.6
	c-3.1-5.2-6.3-10.5-6.6-11.2L3.1,13c-0.4-1-0.7-1.7-0.7-3.2C2.3,7.9,3.1,6,4.4,4.6c1.4-1.5,3.4-2.3,5.4-2.3s3.9,0.8,5.3,2.2
	C16.6,6,17.4,7.9,17.4,9.9z M9.2,7.7c0-0.4,0.3-0.6,0.6-0.6c0.4,0,0.6,0.3,0.6,0.6c0,0.4-0.3,0.6-0.6,0.6C9.4,8.3,9.2,8,9.2,7.7z
	 M10.4,8.8v3.9H9.1V8.8C9.1,8.8,10.4,8.8,10.4,8.8z"/>
</svg>
