<?xml version="1.0" encoding="utf-8"?>
<!-- Generator: Adobe Illustrator 26.4.1, SVG Export Plug-In . SVG Version: 6.00 Build 0)  -->
<svg version="1.1" id="Layer_1" xmlns="http://www.w3.org/2000/svg" xmlns:xlink="http://www.w3.org/1999/xlink" x="0px" y="0px"
	 viewBox="0 0 26.8 15.6" style="enable-background:new 0 0 26.8 15.6;" xml:space="preserve">
<style type="text/css">
	.st0{fill:#FFFFFF;}
</style>
<g id="ICON_ARTWORK">
	<path class="st0" d="M12.1,10.2c0,0.3-0.2,0.5-0.5,0.5S11,10.5,11,10.2c0-0.3,0.2-0.5,0.5-0.5c0,0,0,0,0,0
		C11.9,9.7,12.1,9.9,12.1,10.2z M15.1,9.7c-0.3,0-0.5,0.2-0.5,0.5s0.2,0.5,0.5,0.5c0.3,0,0.5-0.3,0.5-0.5
		C15.7,9.9,15.4,9.7,15.1,9.7L15.1,9.7z M26.8,13.6v2H0v-2h1.8V0h23.2v13.6H26.8z M18.4,6.9v6.7h4.5V6.9H18.4z M14.4,6.9v6.7h1.9
		V6.9H14.4z M10.4,6.9v6.7h1.9V6.9H10.4z M3.8,6.9v6.7h4.5V6.9H3.8z M3.8,2v2.8h19V2L3.8,2z"/>
</g>
</svg>
