<?xml version="1.0" encoding="utf-8"?>
<!-- Generator: Adobe Illustrator 26.4.1, SVG Export Plug-In . SVG Version: 6.00 Build 0)  -->
<svg version="1.1" id="Layer_1" xmlns="http://www.w3.org/2000/svg" xmlns:xlink="http://www.w3.org/1999/xlink" x="0px" y="0px"
	 viewBox="0 0 28.1 20.9" style="enable-background:new 0 0 28.1 20.9;" xml:space="preserve">
<style type="text/css">
	.st0{fill:#FFFFFF;}
</style>
<g id="Layer_1_00000080925451959046417280000011747425270151865784_">
	<path class="st0" d="M0,0v20.9h28.1V0H0z M2.4,2.4V1.9h11.6v0.5L2.4,2.4z M25.2,2.5V1.8h0.7v0.7L25.2,2.5z M2.4,18.4V4.2h23.2v14.3
		H2.4z M8.4,8.3L5.6,9.2V9.1C5.2,7.5,6.1,5.9,7.7,5.5c0.2-0.1,0.4-0.1,0.6-0.1h0.1L8.4,8.3z M8.9,5.3H8.8v3.2l-3,1l0.1,0.1
		c0.5,1.1,1.6,1.8,2.8,1.8c1.7,0,3.1-1.3,3.1-3C11.8,6.9,10.6,5.5,8.9,5.3L8.9,5.3z M19.9,11.8h-0.1v2.7l1.6,2.2l0.1-0.1
		c0.6-0.5,0.9-1.2,0.9-2C22.3,13.1,21.2,11.9,19.9,11.8L19.9,11.8z M19.4,11.8h-0.1c-0.5,0-0.9,0.2-1.3,0.5c-0.6,0.4-1,1.1-1.1,1.8
		c-0.2,1.5,0.8,2.9,2.3,3.1c0.6,0.1,1.2,0,1.7-0.3l0.1-0.1l-1.6-2.2L19.4,11.8z M16,6.8v1.4h7.1V6.8L16,6.8z M16,10.1h7.1V8.7h-7.2
		L16,10.1z M5,12.9v1.4h7.1v-1.4L5,12.9z M5,16.2h7.1v-1.4H5L5,16.2z"/>
</g>
</svg>
