<?xml version="1.0" encoding="utf-8"?>
<!-- Generator: Adobe Illustrator 26.4.1, SVG Export Plug-In . SVG Version: 6.00 Build 0)  -->
<svg version="1.1" id="Layer_1" xmlns="http://www.w3.org/2000/svg" xmlns:xlink="http://www.w3.org/1999/xlink" x="0px" y="0px"
	 viewBox="0 0 21 27.1" style="enable-background:new 0 0 21 27.1;" xml:space="preserve">
<style type="text/css">
	.st0{fill:#FFFFFF;}
</style>
<g id="Layer_1_00000031918135025466339220000008192739325094378142_">
	<path class="st0" d="M21,5.1v22.1H0V0h15.9L21,5.1z M14.2,6.8V2.5H2.4v22.2h16.1V6.8L14.2,6.8z M4.5,23h3.2v-5.3H4.5V23z M8.8,23
		H12v-8.2H8.8L8.8,23z M13.1,13.3V23h3.2v-9.7H13.1z M6.8,7.4H6.6c-0.2,0-0.4,0.1-0.5,0.1c-1.3,0.4-2,1.7-1.7,3v0.2l2.4-0.8L6.8,7.4
		z M7.3,7.6H7.1v2.6L4.6,11l0.1,0.2C5.1,12.1,6,12.7,7,12.7c1.4,0,2.6-1.1,2.6-2.5C9.7,8.8,8.7,7.6,7.3,7.6L7.3,7.6z M11,8.6v1.2
		h5.3V8.6L11,8.6z M11,11.6h5.3v-1.2H11V11.6z"/>
</g>
</svg>
