<?xml version="1.0" encoding="utf-8"?>
<!-- Generator: Adobe Illustrator 26.4.1, SVG Export Plug-In . SVG Version: 6.00 Build 0)  -->
<svg version="1.1" id="Layer_1" xmlns="http://www.w3.org/2000/svg" xmlns:xlink="http://www.w3.org/1999/xlink" x="0px" y="0px"
	 viewBox="0 0 29.9 22" style="enable-background:new 0 0 29.9 22;" xml:space="preserve">
<style type="text/css">
	.st0{fill:#FFFFFF;}
</style>
<g id="Layer_1_00000090294635151276838080000006945395831065988783_">
	<path class="st0" d="M2.6,0v17.5h24.7V0H2.6z M5,15.1V2.4h20v12.8H5z M29.9,19.6V22H0v-2.4H29.9z M20.4,12.6l-1.6,1.6l-6.1-6.1
		c-0.2,0.1-0.4,0.1-0.7,0.1c-1.3,0-2.4-1.1-2.4-2.4c0-0.3,0-0.5,0.1-0.8l0.1-0.3l1.3,1.3l1.1-1.1l-1.3-1.3l0.2-0.1
		c0.3-0.1,0.5-0.1,0.8-0.1c1.3,0,2.4,1.1,2.4,2.4c0,0,0,0,0,0c0,0.2,0,0.5-0.1,0.7L20.4,12.6z"/>
</g>
</svg>
