<?xml version="1.0" encoding="utf-8"?>
<!-- Generator: Adobe Illustrator 26.4.1, SVG Export Plug-In . SVG Version: 6.00 Build 0)  -->
<svg version="1.1" id="Layer_1" xmlns="http://www.w3.org/2000/svg" xmlns:xlink="http://www.w3.org/1999/xlink" x="0px" y="0px"
	 viewBox="0 0 33.7 25.1" style="enable-background:new 0 0 33.7 25.1;" xml:space="preserve">
<style type="text/css">
	.st0{fill:#FFFFFF;}
</style>
<path class="st0" d="M28.9,13.3V0H0v21.3h22.1c0.9,2.3,3.1,3.8,5.6,3.8c3.3,0,6-2.7,6-6C33.8,16.3,31.7,13.8,28.9,13.3z M2.3,2.5V2
	h11.9v0.5H2.3z M25.8,2.7V2h0.7v0.8h-0.7V2.7z M27.7,15.5c2.1,0,3.7,1.7,3.7,3.7c0,2.1-1.7,3.7-3.7,3.7c-2.1,0-3.7-1.7-3.7-3.7
	C24,17.1,25.7,15.5,27.7,15.5z M26.6,4.2v9.1c-2.8,0.5-4.8,2.9-4.9,5.8H2.3V4.2H26.6z M29.1,18.5v-0.3c0-0.4-0.1-0.7-0.4-1
	c-0.3-0.3-0.6-0.4-1-0.4c-0.8,0-1.4,0.6-1.4,1.4v0.3h-0.2v2.7h3.2v-2.7H29.1z M27.2,18.1c0-0.3,0.2-0.5,0.5-0.5
	c0.2,0,0.3,0.1,0.4,0.1c0.1,0.1,0.1,0.2,0.1,0.4v0.3h-1C27.2,18.4,27.2,18.1,27.2,18.1z M19.8,11.7c0,3.4-2.7,6.1-6.1,6.1
	s-6.1-2.7-6.1-6.1s2.7-6.1,6.1-6.1S19.8,8.4,19.8,11.7z M9.1,14h1.8c-0.2-0.5-0.3-1.1-0.4-1.6H8.6C8.7,13,8.8,13.5,9.1,14z
	 M15.8,9.8h-1.6v1.6H16c0-0.1,0-0.2,0-0.3C16,10.7,15.9,10.2,15.8,9.8z M15.5,8.8c-0.4-0.9-1-1.6-1.3-2v2H15.5z M13.2,6.9
	c-0.4,0.4-0.9,1-1.3,1.9h1.3V6.9z M11.7,9.8c-0.1,0.4-0.2,0.8-0.2,1.3c0,0.1,0,0.2,0,0.3h1.8V9.8C13.3,9.8,11.7,9.8,11.7,9.8z
	 M10.7,9.8H8.9c-0.2,0.5-0.3,1-0.3,1.6h1.9c0-0.1,0-0.2,0-0.4C10.5,10.6,10.6,10.2,10.7,9.8z M11.9,14h1.3v-1.6h-1.7
	C11.5,12.9,11.7,13.5,11.9,14z M12.3,15c0.3,0.5,0.6,1,1,1.4V15H12.3z M14.1,16.5c0.4-0.5,0.8-1,1-1.5h-1V16.5z M15.5,14
	c0.2-0.5,0.4-1.1,0.4-1.6h-1.8V14H15.5z M16.6,14h1.9c0.3-0.5,0.4-1,0.5-1.6h-2C16.9,12.9,16.8,13.5,16.6,14z M18.9,11.4
	c0-0.6-0.1-1.1-0.3-1.6h-1.8c0.1,0.4,0.2,0.8,0.2,1.3c0,0.1,0,0.2,0,0.4L18.9,11.4L18.9,11.4z M15.1,6.6c0.4,0.5,1,1.2,1.3,2.2h1.7
	C17.5,7.7,16.4,6.9,15.1,6.6z M9.4,8.8h1.7c0.4-0.9,0.9-1.7,1.3-2.2C11.1,7,10,7.7,9.4,8.8z M12.5,16.8c-0.5-0.6-0.9-1.2-1.2-1.8
	H9.6C10.3,15.9,11.4,16.6,12.5,16.8z M17.9,15h-1.8c-0.3,0.6-0.7,1.2-1.2,1.9C16.1,16.6,17.2,16,17.9,15z"/>
</svg>
