<?xml version="1.0" encoding="utf-8"?>
<!-- Generator: Adobe Illustrator 26.4.1, SVG Export Plug-In . SVG Version: 6.00 Build 0)  -->
<svg version="1.1" id="Layer_1" xmlns="http://www.w3.org/2000/svg" xmlns:xlink="http://www.w3.org/1999/xlink" x="0px" y="0px"
	 viewBox="0 0 26.6 23" style="enable-background:new 0 0 26.6 23;" xml:space="preserve">
<style type="text/css">
	.st0{fill:#FFFFFF;}
</style>
<g id="Layer_1_00000052820790124932766730000004804803682402834094_">
	<path class="st0" d="M26.6,19.1V0H0v19.1h8.5v1.4H6.2V23h14.2v-2.6h-2.3v-1.4H26.6z M24.2,2.4v14.4H2.3V2.4H24.2z M13.3,14.9
		c-2.9,0-5.3-2.4-5.3-5.3s2.4-5.3,5.3-5.3c2.9,0,5.3,2.4,5.3,5.3c0,0,0,0,0,0C18.6,12.5,16.2,14.8,13.3,14.9z M13.3,6.2
		c-1.9,0-3.4,1.5-3.4,3.4c0,1.9,1.5,3.4,3.4,3.4c1.9,0,3.4-1.5,3.4-3.4c0,0,0,0,0,0C16.7,7.7,15.2,6.2,13.3,6.2
		C13.3,6.2,13.3,6.2,13.3,6.2z M14.8,9.6c0,0.8-0.7,1.5-1.5,1.5s-1.5-0.7-1.5-1.5s0.7-1.5,1.5-1.5S14.8,8.7,14.8,9.6z"/>
</g>
</svg>
