<?xml version="1.0" encoding="utf-8"?>
<!-- Generator: Adobe Illustrator 26.4.1, SVG Export Plug-In . SVG Version: 6.00 Build 0)  -->
<svg version="1.1" id="Layer_1" xmlns="http://www.w3.org/2000/svg" xmlns:xlink="http://www.w3.org/1999/xlink" x="0px" y="0px"
	 viewBox="0 0 18.9 22.9" style="enable-background:new 0 0 18.9 22.9;" xml:space="preserve">
<style type="text/css">
	.st0{fill:#FFFFFF;}
</style>
<g id="Layer_1_00000063626707037806157910000009862539788633311422_">
	<path class="st0" d="M18.9,10.9V0H0v10.9h7.5v5.8l-2.7-2.7l-2.1,2.2l6.8,6.7l6.8-6.7l-2.1-2.2l-2.7,2.7v-5.8H18.9z M16.7,2.2v6.4
		H2.2V2.2H16.7z M8.6,5.7C8.8,5.6,8.9,5.5,9,5.3c0.3-0.5,0.3-1.1-0.2-1.5C8.5,3.6,8.1,3.5,7.7,3.5H6.6v3.8h0.9V5.9h0.3l0.8,1.4l0,0
		h1L9.6,7.2L8.6,5.7z M7.5,4.3h0.2c0.2,0,0.4,0,0.5,0.1c0.1,0.1,0.2,0.2,0.1,0.3c0,0.1,0,0.2-0.1,0.3C8,5.1,7.8,5.2,7.7,5.2H7.5V4.3
		z M3.9,3.5h2.2v0.8H4.8v0.8H6v0.8H4.8v1.4H3.9V3.5z M9.9,3.5h2.3v0.8h-1.3V5h1.2v0.8h-1.2v0.8h1.3v0.8H9.9L9.9,3.5z M13.7,4.3V5H15
		v0.8h-1.3v0.8H15v0.8h-2.2V3.5H15v0.8L13.7,4.3z"/>
</g>
</svg>
