<?xml version="1.0" encoding="utf-8"?>
<!-- Generator: Adobe Illustrator 26.4.1, SVG Export Plug-In . SVG Version: 6.00 Build 0)  -->
<svg version="1.1" id="Layer_1" xmlns="http://www.w3.org/2000/svg" xmlns:xlink="http://www.w3.org/1999/xlink" x="0px" y="0px"
	 viewBox="0 0 32.2 27.5" style="enable-background:new 0 0 32.2 27.5;" xml:space="preserve">
<style type="text/css">
	.st0{fill:#FFFFFF;}
</style>
<g id="Layer_1_00000072275112228220575330000016554223075342001542_">
	<path class="st0" d="M31.7,7.3L31.7,7.3l-2-3l-2.2-3.8L27.4,0L26,0.3h-0.3l0,0L5.1,4.5H4.8l-2.4,4l-1.9,3H0.5L0,12.2l0.1,0.2
		c0.2,2.9,2.6,5.2,5.5,5.3c2.9-0.1,5.3-2.4,5.5-5.3l0.1-0.2l-0.5-0.8h-0.1l-1.9-3L7.4,6.2l7-1.4l-6,20.5H7.1v2.2H25v-2.2h-1.3
		L17.5,4.2l6.7-1.3l-2.7,4.5h0L21,8.1l0.1,0.2c0.2,2.9,2.6,5.2,5.5,5.3c2.9-0.1,5.3-2.4,5.5-5.3l0.1-0.2L31.7,7.3z M2.7,13.7h5.8
		c-0.5,1.1-1.6,1.8-2.9,1.9C4.3,15.6,3.2,14.8,2.7,13.7L2.7,13.7z M3.1,11.5l2.5-4.1l2.5,4.1H3.1z M10.7,25.3l5.4-18.2l5.4,18.2
		L10.7,25.3z M24.1,7.3l2.5-4.1L29,7.3H24.1z M29.5,9.5c-0.7,1.6-2.6,2.3-4.2,1.6c-0.7-0.3-1.3-0.9-1.6-1.6H29.5z"/>
</g>
</svg>
