<?xml version="1.0" encoding="utf-8"?>
<!-- Generator: Adobe Illustrator 26.4.1, SVG Export Plug-In . SVG Version: 6.00 Build 0)  -->
<svg version="1.1" id="Layer_1" xmlns="http://www.w3.org/2000/svg" xmlns:xlink="http://www.w3.org/1999/xlink" x="0px" y="0px"
	 viewBox="0 0 21 29.8" style="enable-background:new 0 0 21 29.8;" xml:space="preserve">
<style type="text/css">
	.st0{fill:#FFFFFF;}
</style>
<g id="Layer_1_00000102537510995871166330000014800297343094733205_">
	<path class="st0" d="M21,11.1h-5V7.2l5-5h-5V0H5v2H0l5,5v3.9H0l5,5v4H0l5,5v3.6h2.7v1.3h5.6v-1.2H16v-3.4l5-5h-5v-4L21,11.1z
		 M13.7,2.3v23.9H7.3V2.3H13.7z M10.5,11.9C9.1,11.9,8,13,8,14.4c0,1.4,1.1,2.5,2.5,2.5s2.5-1.1,2.5-2.5c0,0,0,0,0,0
		C13,13,11.9,11.9,10.5,11.9z M11.5,14.4c0,0.6-0.5,1.1-1.1,1c-0.6,0-1.1-0.5-1-1.1c0-0.6,0.5-1,1.1-1.1
		C11.1,13.3,11.5,13.8,11.5,14.4C11.5,14.4,11.5,14.4,11.5,14.4z M10.5,18.4c-1.4,0-2.5,1.1-2.5,2.5c0,1.4,1.1,2.5,2.5,2.5
		s2.5-1.1,2.5-2.5l0,0C13,19.6,11.9,18.4,10.5,18.4z M11.5,20.9c0,0.6-0.5,1.1-1.1,1.1c-0.6,0-1.1-0.5-1.1-1.1
		c0-0.6,0.5-1.1,1.1-1.1c0,0,0,0,0,0C11.1,19.9,11.5,20.3,11.5,20.9z M8,7.8c0-1.4,1.1-2.5,2.5-2.5S13,6.4,13,7.8s-1.1,2.5-2.5,2.5
		l0,0C9.1,10.3,8,9.2,8,7.8z"/>
</g>
</svg>
