<?xml version="1.0" encoding="utf-8"?>
<!-- Generator: Adobe Illustrator 26.4.1, SVG Export Plug-In . SVG Version: 6.00 Build 0)  -->
<svg version="1.1" id="Layer_1" xmlns="http://www.w3.org/2000/svg" xmlns:xlink="http://www.w3.org/1999/xlink" x="0px" y="0px"
	 viewBox="0 0 31.3 22.1" style="enable-background:new 0 0 31.3 22.1;" xml:space="preserve">
<style type="text/css">
	.st0{fill:#FFFFFF;}
</style>
<g id="Layer_1_00000013891466612739230490000010577365813816826038_">
	<path class="st0" d="M17.1,5.9v0.6h-2.8V5.9l0.4-0.6V4.5l0,0l0,0c0-0.5,0.4-0.8,0.9-0.8c-0.1,0-0.1-0.1-0.1-0.1
		c0-0.1,0.1-0.2,0.2-0.2s0.2,0.1,0.2,0.2c0,0.1,0,0.1-0.1,0.1c0.5,0,0.9,0.4,0.9,0.8l0,0l0,0v0.8L17.1,5.9z M11.1,13.3h2.2v-2.2H11
		L11.1,13.3z M18.1,11.1v2.2h2.2v-2.2L18.1,11.1z M14.5,13.3h2.2v-2.2h-2.3L14.5,13.3z M31.3,19.7v2.4H0v-2.4h1.6v-8.3h3.6V8.9
		L4.7,7.5L15.1,0h1.1l10.4,7.5L26.1,9v2.4h3.6v8.3L31.3,19.7z M14.4,17.2v2.5h2.5v-2.5H14.4z M19.1,14.9v4.7h4.6V9.4H7.5v10.3h4.7
		v-4.7H19.1z M22.1,7l-6.4-4.6L9.2,7H22.1z M26.1,13.7v6h1.3v-6H26.1z M3.9,13.7v6h1.3v-6H3.9z"/>
</g>
</svg>
