<?xml version="1.0" encoding="utf-8"?>
<!-- Generator: Adobe Illustrator 26.4.1, SVG Export Plug-In . SVG Version: 6.00 Build 0)  -->
<svg version="1.1" id="Layer_1" xmlns="http://www.w3.org/2000/svg" xmlns:xlink="http://www.w3.org/1999/xlink" x="0px" y="0px"
	 viewBox="0 0 30.8 28.1" style="enable-background:new 0 0 30.8 28.1;" xml:space="preserve">
<style type="text/css">
	.st0{fill:#FFFFFF;}
</style>
<path class="st0" d="M0,0v28.1h10.1V0H0z M2.3,25.7V2.3h5.5v23.5H2.3V25.7z M20.7,0v28.1h10.1V0H20.7z M23,25.7V2.3h5.5v23.5H23
	V25.7z M6.3,22.9c0,0.7-0.6,1.3-1.3,1.3s-1.2-0.6-1.2-1.3s0.6-1.3,1.3-1.3S6.3,22.2,6.3,22.9z M3.1,5.5h3.8v1.7H3.1V5.5z M3.1,8.6
	h3.8v1.7H3.1V8.6z M3.1,11.8h3.8v1.7H3.1V11.8z M27,22.9c0,0.7-0.6,1.3-1.3,1.3s-1.3-0.6-1.3-1.3c0-0.7,0.6-1.3,1.3-1.3
	S27,22.2,27,22.9z M27.7,5.5v1.7h-3.9V5.5H27.7z M23.8,8.6h3.8v1.7h-3.8V8.6z M23.8,11.8h3.8v1.7h-3.8V11.8z M14.1,9.8h6.5v1.7h-6.5
	l1.4,1.4l-1.2,1.2l-3.5-3.4l3.5-3.5l1.2,1.2L14.1,9.8z M16.5,13.9l3.5,3.4l-3.5,3.5l-1.2-1.2l1.4-1.4h-6.5v-1.7h6.5l-1.4-1.4
	L16.5,13.9z"/>
</svg>
