<?xml version="1.0" encoding="utf-8"?>
<!-- Generator: Adobe Illustrator 26.4.1, SVG Export Plug-In . SVG Version: 6.00 Build 0)  -->
<svg version="1.1" id="Layer_1" xmlns="http://www.w3.org/2000/svg" xmlns:xlink="http://www.w3.org/1999/xlink" x="0px" y="0px"
	 viewBox="0 0 15.9 25.4" style="enable-background:new 0 0 15.9 25.4;" xml:space="preserve">
<style type="text/css">
	.st0{fill:#FFFFFF;}
</style>
<g id="Layer_1_00000096057604820838156320000011907159241786035347_">
	<path class="st0" d="M0,0v25.4h15.9V0H0z M11,11.7c0.8-1,1-2.3,0.5-3.5C11,6.8,9.7,5.9,8.2,6H7.7C6.2,5.9,4.9,6.8,4.4,8.2
		c-0.5,1.2-0.3,2.5,0.5,3.5c0.2,0.2,0.4,0.4,0.5,0.6H2.3v-10h11.2v10h-3.1C10.6,12.1,10.8,11.9,11,11.7z M7.7,13.2
		c0.4-1.4-0.7-2.6-1.2-3.1c-0.2-0.3-0.2-0.7,0-1.1c0.1-0.4,0.5-0.8,1-0.8c0.1,0,0.3,0,0.4,0l0,0c0.1,0,0.2,0,0.3,0
		c0.5,0,1,0.3,1.1,0.8c0.1,0.3,0.1,0.7,0,1c-0.5,0.5-1.6,1.7-1.2,3.1c0.4,1,1.5,1.6,2.6,1.4h2.8v8.5H2.3v-8.5h2.8
		C6.2,14.8,7.3,14.2,7.7,13.2z"/>
</g>
</svg>
