<?xml version="1.0" encoding="utf-8"?>
<!-- Generator: Adobe Illustrator 26.4.1, SVG Export Plug-In . SVG Version: 6.00 Build 0)  -->
<svg version="1.1" id="Layer_1" xmlns="http://www.w3.org/2000/svg" xmlns:xlink="http://www.w3.org/1999/xlink" x="0px" y="0px"
	 viewBox="0 0 26.7 26.7" style="enable-background:new 0 0 26.7 26.7;" xml:space="preserve">
<style type="text/css">
	.st0{fill:#FFFFFF;}
</style>
<g id="Layer_1_00000119099585656466189410000010152962835809387657_">
	<path class="st0" d="M22.7,3.8C17.4-1.3,9-1.3,3.8,4S-1.3,17.7,4,22.9s13.7,5.1,18.9-0.2c2.5-2.5,3.8-5.9,3.8-9.4
		C26.7,9.7,25.2,6.3,22.7,3.8z M13.3,24.3c-6.1,0-11.1-5-11.1-11.1c0-6.1,5-11.1,11.1-11.1s11.1,5,11.1,11.1c0,2.9-1.2,5.7-3.2,7.8
		C19,23.2,16.2,24.3,13.3,24.3z M12.6,8.2h1.7v6.7L10,17.3l-0.8-1.5l3.4-1.9V8.2z M21.2,11.7l0.8-1l1.3,1.1l-2.6,3.1l-3.2-2.5l1-1.3
		l0.9,0.7c-0.8-3.4-4.2-5.4-7.6-4.6s-5.4,4.2-4.6,7.6c0.7,2.8,3.2,4.8,6.1,4.8h0.3v1.7h-0.3c-4.4,0-7.9-3.5-7.9-7.9S9,5.3,13.4,5.3
		C17.2,5.3,20.4,8,21.2,11.7z"/>
</g>
</svg>
