<?xml version="1.0" encoding="utf-8"?>
<!-- Generator: Adobe Illustrator 26.4.1, SVG Export Plug-In . SVG Version: 6.00 Build 0)  -->
<svg version="1.1" id="Layer_1" xmlns="http://www.w3.org/2000/svg" xmlns:xlink="http://www.w3.org/1999/xlink" x="0px" y="0px"
	 viewBox="0 0 26.8 26.8" style="enable-background:new 0 0 26.8 26.8;" xml:space="preserve">
<style type="text/css">
	.st0{fill:#FFFFFF;}
</style>
<g id="Layer_1_00000072996704666545133060000003236316722941606293_">
	<path class="st0" d="M13.4,0C6,0,0,6,0,13.4s6,13.4,13.4,13.4s13.4-6,13.4-13.4C26.8,6,20.8,0,13.4,0z M13.4,24.5
		c-6.1,0-11.1-5-11.1-11.1s5-11.1,11.1-11.1s11.1,5,11.1,11.1C24.5,19.5,19.5,24.5,13.4,24.5z M12.5,9.8L11,8.9l2.1-3.6h1.3l3.2,5.5
		L18,9.2l1.6,0.5L18.5,14l-4.3-1.1l0.4-1.6l1.5,0.4l-2.3-4.1L12.5,9.8z M10.6,13l-2.4,4.1h2.6v1.7H6.6l-0.7-1.1l3.2-5.5l-1.5,0.4
		l-0.4-1.6l4.3-1.1l1.2,4.3L11,14.6L10.6,13z M20.9,18.8h-6.4l1.1,1.1l-1.2,1.2L11.4,18l3.1-3.2l1.2,1.2l-1.1,1.1h4.8L18,14.9
		l1.5-0.9l2.1,3.6L20.9,18.8z"/>
</g>
</svg>
