<?xml version="1.0" encoding="utf-8"?>
<!-- Generator: Adobe Illustrator 26.4.1, SVG Export Plug-In . SVG Version: 6.00 Build 0)  -->
<svg version="1.1" id="Layer_1" xmlns="http://www.w3.org/2000/svg" xmlns:xlink="http://www.w3.org/1999/xlink" x="0px" y="0px"
	 viewBox="0 0 22.8 22.8" style="enable-background:new 0 0 22.8 22.8;" xml:space="preserve">
<style type="text/css">
	.st0{fill:#FFFFFF;}
</style>
<g id="Layer_1_00000088102337491635506840000008892728108759856018_">
	<path class="st0" d="M0,0v22.8h22.8V0H0z M2.3,20.4V2.3h18.1v18.1L2.3,20.4z M14,17.6v0.5h-2.2v-0.5c0-4.2-2.7-6.9-6.8-6.9H4.5V8.5
		H5C10.5,8.5,14,12.1,14,17.6z M9,16.2c0,1.3-1,2.3-2.3,2.3c-1.3,0-2.3-1-2.3-2.3c0-1.3,1-2.3,2.3-2.3c0,0,0,0,0,0
		C8,13.9,9,14.9,9,16.2L9,16.2z M18.2,17.6v0.5H16v-0.5c0-6.8-4.3-11.2-11-11.2H4.5V4.2H5C13.1,4.2,18.2,9.5,18.2,17.6L18.2,17.6z"
		/>
</g>
</svg>
