<?xml version="1.0" encoding="utf-8"?>
<!-- Generator: Adobe Illustrator 26.4.1, SVG Export Plug-In . SVG Version: 6.00 Build 0)  -->
<svg version="1.1" id="Layer_1" xmlns="http://www.w3.org/2000/svg" xmlns:xlink="http://www.w3.org/1999/xlink" x="0px" y="0px"
	 viewBox="0 0 23.2 28.8" style="enable-background:new 0 0 23.2 28.8;" xml:space="preserve">
<style type="text/css">
	.st0{fill:#FFFFFF;}
</style>
<g id="Layer_1_00000175313533813990609710000012343309530796542127_">
	<path class="st0" d="M7.8,3.6V9h5.5V3.6H7.8z M11.6,7.3H9.5V5.3h2.1V7.3z M7.8,22h5.5v-5.5H7.8V22z M9.5,18.2h2.1v2.1H9.5V18.2z
		 M7.8,15.4h5.5V9.9H7.8V15.4z M9.5,11.6h2.1v2.1H9.5V11.6z M23.2,3.3v25.5H4.7v-2.2H21V3.3H23.2z M1.2,0v3.2H0v2.2h1.2v1.2H0v2.2
		h1.2V10H0v2.2h1.2v1.2H0v2.2h1.2v1.2H0V19h1.2v1.2H0v2.2h1.2v3h18.5V0L1.2,0z M3.4,20.3V19h1.3v-2.2H3.4v-1.2h1.3v-2.2H3.4v-1.2
		h1.3V10H3.4V8.8h1.3V6.7H3.4V5.4h1.3V3.2H3.4v-1h14.1v21.1H3.4v-0.8h1.3v-2.2L3.4,20.3z"/>
</g>
</svg>
