<?xml version="1.0" encoding="utf-8"?>
<!-- Generator: Adobe Illustrator 26.4.1, SVG Export Plug-In . SVG Version: 6.00 Build 0)  -->
<svg version="1.1" id="Layer_1" xmlns="http://www.w3.org/2000/svg" xmlns:xlink="http://www.w3.org/1999/xlink" x="0px" y="0px"
	 viewBox="0 0 32.4 32.4" style="enable-background:new 0 0 32.4 32.4;" xml:space="preserve">
<style type="text/css">
	.st0{fill:#FFFFFF;}
</style>
<g id="Layer_1_00000063624910969420411800000004329313367000157099_">
	<path class="st0" d="M29.5,15C29,8.6,23.8,3.4,17.3,2.9V0H15v2.9C8.6,3.5,3.5,8.6,2.9,15H0v2.3h2.9C3.5,23.8,8.6,28.9,15,29.5v2.9
		h2.3v-2.9C23.8,29,29,23.8,29.5,17.3h2.9V15H29.5z M27.2,17.3c-0.5,5.2-4.7,9.3-9.9,9.8v-0.6H15v0.6c-5.2-0.5-9.3-4.6-9.8-9.8h0.6
		V15H5.2C5.8,9.8,9.9,5.7,15,5.2v0.6h2.3V5.2c5.2,0.5,9.3,4.6,9.9,9.8h-0.6v2.3L27.2,17.3z"/>
</g>
</svg>
