<?xml version="1.0" encoding="utf-8"?>
<!-- Generator: Adobe Illustrator 26.4.1, SVG Export Plug-In . SVG Version: 6.00 Build 0)  -->
<svg version="1.1" id="Layer_1" xmlns="http://www.w3.org/2000/svg" xmlns:xlink="http://www.w3.org/1999/xlink" x="0px" y="0px"
	 viewBox="0 0 16.8 28.8" style="enable-background:new 0 0 16.8 28.8;" xml:space="preserve">
<style type="text/css">
	.st0{fill:#FFFFFF;}
</style>
<g id="Layer_1_00000006680990246051850120000014994852956222534533_">
	<path class="st0" d="M16.8,8.1v1.6h-4.4V8.5l2-2.8h-1.9V4.1h4.3v1.2l-2,2.8H16.8z M11.5,3.4V2.5h-3v1.3h1.2L8.4,5.6v0.9h3.2V5.2
		h-1.3L11.5,3.4z M15.1,2.1h-1l1-1.4V0h-2.6v1.1h0.9l-1,1.3v0.8h2.6V2.1z M15.4,22.1v6.6H0v-6.6c0-3.2,2-6,4.9-7.2
		C3,13.4,2.7,10.6,4.2,8.7S8.5,6.5,10.4,8s2.2,4.3,0.7,6.3c-0.2,0.3-0.4,0.5-0.7,0.7C13.4,16.1,15.4,19,15.4,22.1L15.4,22.1z
		 M13.2,26.6v-4.4c0-3-2.5-5.5-5.5-5.5s-5.5,2.5-5.5,5.5v4.4L13.2,26.6z M7.7,13.8c1.2,0,2.3-1,2.3-2.3s-1-2.3-2.3-2.3
		s-2.3,1-2.3,2.3S6.4,13.8,7.7,13.8L7.7,13.8z"/>
</g>
</svg>
