<?xml version="1.0" encoding="utf-8"?>
<!-- Generator: Adobe Illustrator 26.4.1, SVG Export Plug-In . SVG Version: 6.00 Build 0)  -->
<svg version="1.1" id="Layer_1" xmlns="http://www.w3.org/2000/svg" xmlns:xlink="http://www.w3.org/1999/xlink" x="0px" y="0px"
	 viewBox="0 0 19.5 28.2" style="enable-background:new 0 0 19.5 28.2;" xml:space="preserve">
<style type="text/css">
	.st0{fill:#FFFFFF;}
</style>
<g id="Layer_1_00000079444785664257726030000009283059054517975173_">
	<path class="st0" d="M10.4,14.4c1.9-1.5,2.2-4.3,0.7-6.3C9.6,6.3,6.8,6,4.9,7.5s-2.2,4.3-0.7,6.3c0.2,0.3,0.4,0.5,0.7,0.7
		C2,15.6,0,18.4,0,21.6v6.6h15.4v-6.6C15.4,18.4,13.4,15.6,10.4,14.4z M2.2,26v-4.4c0-3,2.5-5.5,5.5-5.5s5.5,2.5,5.5,5.5V26H2.2z
		 M7.6,8.7c1.2,0,2.3,1,2.3,2.3s-1,2.3-2.3,2.3s-2.3-1-2.3-2.3C5.4,9.7,6.4,8.7,7.6,8.7C7.6,8.7,7.7,8.7,7.6,8.7L7.6,8.7z M19.5,9.8
		V9.7l-0.8-0.1c0-0.1-0.1-0.2-0.2-0.3l0.3-0.7l-0.1-0.1c-0.3-0.3-0.7-0.5-1.1-0.7h-0.1L17,8.5c-0.1,0-0.2,0-0.4,0l-0.5-0.7h-0.1
		c-0.4,0.1-0.8,0.3-1.1,0.6l-0.1,0.1l0.3,0.7C15.1,9.3,15,9.4,15,9.5l-0.8,0.1v0.1c-0.1,0.4-0.1,0.9,0,1.3v0.1l0.8,0.1
		c0.1,0.1,0.1,0.2,0.2,0.3l-0.3,0.7l0.1,0.1c0.3,0.3,0.7,0.5,1.1,0.7h0.1l0.5-0.6H17l0.5,0.6h0.1c0.4-0.1,0.8-0.3,1.1-0.6l0.1-0.1
		l-0.3-0.7c0.1-0.1,0.1-0.2,0.2-0.3l0.8-0.1v-0.1C19.6,10.7,19.6,10.3,19.5,9.8L19.5,9.8z M17.4,10.5c0,0.2-0.1,0.3-0.2,0.4l0,0
		C17.1,11,17,11.1,16.8,11c-0.2,0-0.3-0.1-0.4-0.2c-0.1-0.1-0.2-0.3-0.2-0.4c0-0.2,0.1-0.3,0.2-0.4c0.1-0.1,0.3-0.2,0.4-0.2
		c0.2,0,0.3,0.1,0.4,0.2C17.3,10.2,17.4,10.3,17.4,10.5L17.4,10.5z M14.6,8.1l0.1-1C14.9,7,15,7,15.2,6.9L16,7.6l0.1-0.1
		c0.4-0.3,0.8-0.6,1.1-1l0.1-0.1l-0.6-0.8c0.1-0.1,0.1-0.3,0.2-0.4l1-0.1V4.9c0.1-0.5,0.1-1,0-1.5V3.3l-1-0.1c0-0.1-0.1-0.3-0.2-0.4
		l0.7-0.8l-0.1-0.2c-0.3-0.4-0.6-0.8-1-1.1l-0.1-0.1l-0.8,0.6c-0.1-0.1-0.3-0.1-0.4-0.2l-0.1-1h-0.1c-0.5-0.1-1-0.1-1.5,0H13l-0.1,1
		c-0.1,0.1-0.3,0.1-0.4,0.2l-0.8-0.7l-0.1,0.1c-0.4,0.3-0.8,0.6-1.1,1l-0.1,0.1L11,2.6c-0.1,0.1-0.1,0.3-0.2,0.4l-1,0.1v0.1
		c-0.1,0.5-0.1,1,0,1.5v0.1l1,0.1c0.1,0.1,0.1,0.3,0.2,0.4l-0.6,0.8l0.1,0.1c0.3,0.4,0.6,0.8,1,1.1l0.1,0.1l0.8-0.6
		C12.5,6.9,12.6,7,12.8,7l0.1,1H13c0.3,0.1,0.5,0.1,0.8,0.1c0.2,0,0.4,0,0.7-0.1L14.6,8.1z M15.2,4.4c-0.2,0.7-1,1.2-1.7,1
		c-0.7-0.2-1.2-1-1-1.7c0.2-0.6,0.7-1,1.3-1c0.1,0,0.3,0,0.4,0C15,2.9,15.4,3.7,15.2,4.4C15.2,4.4,15.2,4.4,15.2,4.4z"/>
</g>
</svg>
