<?xml version="1.0" encoding="utf-8"?>
<!-- Generator: Adobe Illustrator 26.4.1, SVG Export Plug-In . SVG Version: 6.00 Build 0)  -->
<svg version="1.1" id="Layer_1" xmlns="http://www.w3.org/2000/svg" xmlns:xlink="http://www.w3.org/1999/xlink" x="0px" y="0px"
	 viewBox="0 0 26.4 26.4" style="enable-background:new 0 0 26.4 26.4;" xml:space="preserve">
<style type="text/css">
	.st0{fill:#FFFFFF;}
</style>
<g id="Layer_1_00000000920357598768270600000011150842298580180867_">
	<path class="st0" d="M13.2,0C5.9,0,0,5.9,0,13.2s5.9,13.2,13.2,13.2s13.2-5.9,13.2-13.2l0,0C26.4,5.9,20.5,0,13.2,0z M9.7,14.8
		l5.6-5.6l-0.4-0.3c-1-0.6-2.1-1.1-3.2-1.3c-0.1-0.5-0.4-1-0.8-1.4L9.9,5.2L8.5,6.7L9,7.2H8.8H7.7v1.1c0,0.1,0,0.2,0,0.2L5,5.7
		c4-4.4,10.8-4.9,15.4-1.1L4.6,20.3c-3.1-3.7-3.4-8.9-0.9-13l3,3c0.4,0.4,0.9,0.6,1.4,0.8c0.2,1.2,0.7,2.3,1.3,3.3L9.7,14.8z
		 M11.4,16.5c1.6,1,3.4,1.6,5.3,1.7v5.4l7.2-7.2c-1.7,5.9-7.9,9.3-13.8,7.6c-1.5-0.4-2.9-1.2-4-2.2L11.4,16.5z M18.7,16.2
		c-0.1-1.9-0.7-3.7-1.7-5.3l4.8-4.8c2.3,2.8,3.2,6.6,2.2,10.1H18.7z M10.4,9.9c0.2-0.2,0.6-0.3,0.9,0c0.2,0.2,0.3,0.6,0,0.9
		c-0.2,0.2-0.6,0.3-0.9,0c0,0,0,0,0,0C10.1,10.5,10.1,10.1,10.4,9.9C10.4,9.9,10.4,9.9,10.4,9.9z"/>
</g>
</svg>
