<?xml version="1.0" encoding="utf-8"?>
<!-- Generator: Adobe Illustrator 26.4.1, SVG Export Plug-In . SVG Version: 6.00 Build 0)  -->
<svg version="1.1" id="Layer_1" xmlns="http://www.w3.org/2000/svg" xmlns:xlink="http://www.w3.org/1999/xlink" x="0px" y="0px"
	 viewBox="0 0 26.6 26.6" style="enable-background:new 0 0 26.6 26.6;" xml:space="preserve">
<style type="text/css">
	.st0{fill:#FFFFFF;}
</style>
<g id="Layer_1_00000166638922036051803730000011661933580512272831_">
	<path class="st0" d="M17.2,7.2l-3.5,3.6V7.2H17.2z M17.9,4.2h-3.2v2.6h3.2V4.2z M11.6,4.2H8.5v2.6h3.2V4.2z M5.2,19.2l7.7-7.7V7.2
		H7.2l-2,8.3L5.2,19.2z M26.6,13.3c0,7.3-6,13.3-13.3,13.3C6,26.6,0,20.6,0,13.3C0,6,6,0,13.3,0h0C20.6,0,26.6,6,26.6,13.3
		L26.6,13.3z M6.3,21.9c4.7,3.9,11.7,3.3,15.6-1.5c3.4-4.1,3.4-10,0-14.1l-2.5,2.4l1.7,7v4.9h-6.3v-6.3h-1l-2,2v4.3H7.5L6.3,21.9z
		 M13.3,2.2c-6.1,0-11.1,5-11.1,11.1c0,2.6,0.9,5,2.5,7L20.3,4.7C18.3,3.1,15.9,2.2,13.3,2.2L13.3,2.2z"/>
</g>
</svg>
