<?xml version="1.0" encoding="utf-8"?>
<!-- Generator: Adobe Illustrator 26.4.1, SVG Export Plug-In . SVG Version: 6.00 Build 0)  -->
<svg version="1.1" id="Layer_1" xmlns="http://www.w3.org/2000/svg" xmlns:xlink="http://www.w3.org/1999/xlink" x="0px" y="0px"
	 viewBox="0 0 26.7 26.7" style="enable-background:new 0 0 26.7 26.7;" xml:space="preserve">
<style type="text/css">
	.st0{fill:#FFFFFF;}
</style>
<g id="Layer_1_00000101103662408123529450000011249918079980019622_">
	<path class="st0" d="M15.4,13.5l0.8-0.8L14.6,11l0.4-0.4l1.3,1.3L20.1,8l-3.9-3.8L12.5,8l1.4,1.4l-0.4,0.4l-1.7-1.7
		c-1-1-2.6-1-3.6,0c-1,1-1,2.6,0,3.6l1.7,1.7l-0.4,0.4l-1.4-1.4l-3.9,3.8l3.8,3.9l3.9-3.8L10.6,15l0.4-0.4l1.7,1.7l0.8-0.9l0.5,2.6
		l4-4L15.4,13.5z M14.1,12.6L12.6,14l-3.4-3.4c-0.4-0.4-0.4-1,0-1.4C9.4,9.1,9.7,9,10,9c0.3,0,0.5,0.1,0.7,0.3L14.1,12.6z M18,8
		l-0.3,0.3L16,6.7l0.3-0.3L18,8z M16.6,9.4l-0.3,0.3L14.7,8l0.3-0.3L16.6,9.4z M6.7,16l1.7,1.7L8,17.9l-1.7-1.7L6.7,16z M9.4,16.6
		l-1.6-1.7l0.3-0.3l1.6,1.7L9.4,16.6z M22.2,14.6c0.1,2-0.6,4-2,5.5c-1.5,1.4-3.5,2.1-5.5,2.1h-0.2v-1.5h0.2
		c1.7,0.1,3.3-0.5,4.5-1.6c1.1-1.2,1.6-2.8,1.5-4.4v-0.1h1.5L22.2,14.6z M14.6,19.7h-0.2l0-1.5h0.3c1.8,0.2,3.3-1.1,3.5-2.9
		c0-0.3,0-0.5,0-0.8v-0.2l1.5,0v0.2c0.1,1.4-0.4,2.8-1.3,3.8c-1,0.9-2.3,1.4-3.7,1.4L14.6,19.7z M22.8,3.9c-5.2-5.2-13.7-5.2-18.9,0
		s-5.2,13.7,0,18.9c5.2,5.2,13.7,5.2,18.9,0C28,17.6,28,9.1,22.8,3.9z M21.2,21.2c-4.3,4.3-11.3,4.3-15.6,0
		c-4.3-4.3-4.3-11.3,0-15.6s11.3-4.3,15.6,0S25.5,16.8,21.2,21.2C21.2,21.2,21.2,21.2,21.2,21.2z"/>
</g>
</svg>
