<?xml version="1.0" encoding="utf-8"?>
<!-- Generator: Adobe Illustrator 26.4.1, SVG Export Plug-In . SVG Version: 6.00 Build 0)  -->
<svg version="1.1" id="Layer_1" xmlns="http://www.w3.org/2000/svg" xmlns:xlink="http://www.w3.org/1999/xlink" x="0px" y="0px"
	 viewBox="0 0 26.6 26.6" style="enable-background:new 0 0 26.6 26.6;" xml:space="preserve">
<style type="text/css">
	.st0{fill:#FFFFFF;}
</style>
<g id="Layer_1_00000079470387141923900700000001658445129208402877_">
	<path class="st0" d="M13.3,0C6,0,0,5.9,0,13.3s5.9,13.3,13.3,13.3s13.3-5.9,13.3-13.3c0,0,0,0,0,0C26.6,6,20.6,0,13.3,0z
		 M24.3,14.4c-0.2,2.2-1.1,4.2-2.5,5.9l-1.2-1.2l-1.5,1.5l1.2,1.2c-1.7,1.4-3.8,2.2-5.9,2.4v-1.7h-2.2v1.7c-2.2-0.2-4.2-1.1-5.9-2.5
		l1.2-1.2l-1.6-1.5l-1.2,1.2c-1.4-1.7-2.2-3.8-2.4-5.9H4v-2.2H2.3C2.5,10,3.3,8,4.7,6.3l1.2,1.2l1.6-1.6L6.3,4.7
		C8,3.3,10,2.5,12.2,2.3V4h2.2V2.3c2.2,0.2,4.2,1.1,5.9,2.4L19.1,6l1.6,1.6l1.2-1.2c1.4,1.7,2.2,3.8,2.5,5.9h-1.8v2.2H24.3z
		 M15,11.1c0.6,0.6,1,1.4,1,2.2c0,1.6-1.3,2.9-2.9,2.9s-2.9-1.3-2.9-2.9s1.3-2.9,2.9-2.9l0,0h0.4l2.6-6.3l1.6,0.6L15,11.1z"/>
</g>
</svg>
