<?xml version="1.0" encoding="utf-8"?>
<!-- Generator: Adobe Illustrator 26.4.1, SVG Export Plug-In . SVG Version: 6.00 Build 0)  -->
<svg version="1.1" id="Layer_1" xmlns="http://www.w3.org/2000/svg" xmlns:xlink="http://www.w3.org/1999/xlink" x="0px" y="0px"
	 viewBox="0 0 26.4 26.4" style="enable-background:new 0 0 26.4 26.4;" xml:space="preserve">
<style type="text/css">
	.st0{fill:#FFFFFF;}
</style>
<g id="Layer_1_00000065780149331127405390000017804094630593847975_">
	<path class="st0" d="M13.2,0C5.9,0,0,5.9,0,13.2s5.9,13.2,13.2,13.2s13.2-5.9,13.2-13.2l0,0C26.4,5.9,20.5,0,13.2,0z M11.4,10.3
		c0,0.1-0.1,0.3-0.1,0.4c-0.2,0.2-0.5,0.2-0.7,0c-0.2-0.2-0.2-0.5,0-0.7c0.2-0.2,0.5-0.2,0.7,0C11.3,10,11.4,10.2,11.4,10.3z
		 M16.7,18.2v5.5l7.3-7.2c-1.7,5.9-7.9,9.3-13.9,7.6c-4.8-1.4-8-5.8-8-10.7c0-2.1,0.6-4.1,1.7-5.9l3,3c0.4,0.4,0.9,0.6,1.4,0.8
		c0.3,1.7,1.1,3.3,2.3,4.5C12.1,17.2,14.4,18.1,16.7,18.2z M18.7,16.2c-0.1-2.4-1-4.6-2.6-6.3c-1.3-1.2-2.8-2-4.5-2.3
		c-0.1-0.5-0.4-1-0.8-1.4L9.9,5.2L8.5,6.7L9,7.2H8.8H7.7v1.1c0,0.1,0,0.2,0,0.2L4.9,5.7c4.1-4.6,11.2-4.9,15.8-0.8
		c2.3,2.1,3.7,5.1,3.7,8.3c0,1-0.1,2-0.4,3L18.7,16.2z"/>
</g>
</svg>
