<?xml version="1.0" encoding="utf-8"?>
<!-- Generator: Adobe Illustrator 26.4.1, SVG Export Plug-In . SVG Version: 6.00 Build 0)  -->
<svg version="1.1" id="Layer_1" xmlns="http://www.w3.org/2000/svg" xmlns:xlink="http://www.w3.org/1999/xlink" x="0px" y="0px"
	 viewBox="0 0 26.8 26.8" style="enable-background:new 0 0 26.8 26.8;" xml:space="preserve">
<style type="text/css">
	.st0{fill:#FFFFFF;}
</style>
<g id="Layer_1_00000178903614612167542580000007902539851085503921_">
	<path class="st0" d="M13.4,0C6,0,0,6,0,13.4s6,13.4,13.4,13.4s13.4-6,13.4-13.4C26.8,6,20.8,0,13.4,0z M13.4,24.5
		c-6.1,0-11.1-5-11.1-11.1s5-11.1,11.1-11.1c6.1,0,11.1,5,11.1,11.1c0,0,0,0,0,0C24.5,19.5,19.5,24.5,13.4,24.5z M16,12.5
		c-0.1-0.3-0.3-0.6-0.5-0.9l3.3-6.1l-0.8-0.4c-3-1.7-6.6-1.6-9.5,0.1L7.8,5.7l3.5,5.9c-0.2,0.3-0.4,0.6-0.5,0.9H3.9v0.9
		c0,3.4,1.8,6.5,4.8,8.2l0.8,0.5l3.4-6c0.2,0,0.4,0.1,0.6,0.1h0.4l3.6,6l0.8-0.4c3-1.7,4.8-4.9,4.8-8.3v-0.9L16,12.5z M11.3,15.2
		l-2.5,4.4c-1.7-1.3-2.8-3.2-3-5.3h5.1C10.9,14.6,11.1,14.9,11.3,15.2z M16.4,6.3l-2.5,4.4c-0.2,0-0.4-0.1-0.6-0.1
		c-0.2,0-0.4,0-0.5,0.1l-2.6-4.4C12.2,5.5,14.4,5.4,16.4,6.3z M13.4,12.4c0.2,0,0.3,0,0.5,0.1c0.3,0.2,0.5,0.5,0.5,0.9
		c0,0.5-0.5,1-1,1l0,0c-0.2,0-0.3-0.1-0.5-0.1c-0.4-0.3-0.5-1-0.2-1.4C12.8,12.6,13.1,12.5,13.4,12.4L13.4,12.4z M21,14.3
		c-0.3,2.1-1.4,4-3.1,5.3l-2.6-4.3c0.3-0.3,0.5-0.6,0.6-1L21,14.3z"/>
</g>
</svg>
