<?xml version="1.0" encoding="utf-8"?>
<!-- Generator: Adobe Illustrator 26.4.1, SVG Export Plug-In . SVG Version: 6.00 Build 0)  -->
<svg version="1.1" id="Layer_1" xmlns="http://www.w3.org/2000/svg" xmlns:xlink="http://www.w3.org/1999/xlink" x="0px" y="0px"
	 viewBox="0 0 27 31.9" style="enable-background:new 0 0 27 31.9;" xml:space="preserve">
<style type="text/css">
	.st0{fill:#FFFFFF;}
</style>
<g id="Layer_1_00000059312159411531591300000002941691739660283785_">
	<path class="st0" d="M20.3,16.6v-8c0-1.4-1.2-2.6-2.6-2.6c-0.2,0-0.4,0-0.6,0.1V4.3c0-1.4-1.2-2.6-2.6-2.6l0,0
		c-0.2,0-0.5,0-0.7,0.1c-0.4-1.4-1.9-2.1-3.3-1.7C9.8,0.4,9.2,1,8.9,1.8C8.7,1.7,8.4,1.7,8.2,1.7c-1.4,0-2.6,1.2-2.6,2.6v9l-0.4-0.5
		c-0.9-1.3-2.7-1.6-4-0.7c-1.3,0.9-1.6,2.7-0.7,4l5.6,8v3.3h6.1c1.8,3.9,6.3,5.6,10.2,3.8c3.9-1.8,5.6-6.3,3.8-10.2
		C25.2,18.6,22.9,16.9,20.3,16.6z M24.9,24.2c0,3.1-2.5,5.7-5.7,5.7s-5.7-2.5-5.7-5.7s2.5-5.7,5.7-5.7S24.9,21.1,24.9,24.2
		L24.9,24.2z M11.6,25.4H8.2v-1.9l-6-8.6C2,14.7,2,14.5,2,14.3c0-0.2,0.2-0.4,0.3-0.5c0.4-0.3,0.9-0.2,1.1,0.2l4.1,5.9V4.3
		c0-0.3,0.3-0.6,0.6-0.6c0.3,0,0.6,0.2,0.6,0.6v10.5h2V2.6C10.7,2.3,11,2,11.3,2c0.3,0,0.6,0.2,0.6,0.6V14h2V4.3
		c0-0.3,0.3-0.5,0.6-0.5c0.3,0,0.5,0.2,0.5,0.5v11.8h2V8.5C17,8.2,17.3,8,17.6,8c0.3,0,0.6,0.3,0.6,0.6v8c-3.9,0.5-6.8,3.8-6.8,7.6
		C11.4,24.6,11.5,25,11.6,25.4z M21.3,23.5v-0.7c0-1.1-0.9-2.1-2.1-2.1c0,0,0,0,0,0c-1.2,0-2.1,0.9-2.1,2.1v0.7h-0.4v4.1h5v-4.1
		H21.3z M18.2,22.8c0-0.6,0.4-1,1-1c0.3,0,0.5,0.1,0.7,0.3c0.2,0.2,0.3,0.4,0.3,0.7v0.7h-2V22.8z"/>
</g>
</svg>
