<?xml version="1.0" encoding="utf-8"?>
<!-- Generator: Adobe Illustrator 26.4.1, SVG Export Plug-In . SVG Version: 6.00 Build 0)  -->
<svg version="1.1" id="Layer_1" xmlns="http://www.w3.org/2000/svg" xmlns:xlink="http://www.w3.org/1999/xlink" x="0px" y="0px"
	 viewBox="0 0 19.5 26.2" style="enable-background:new 0 0 19.5 26.2;" xml:space="preserve">
<style type="text/css">
	.st0{fill:#FFFFFF;}
</style>
<g id="Layer_1_00000092435576154694933750000006723910272510436231_">
	<path class="st0" d="M0,0v26.2h19.5V0H0z M2.2,22.4V2.2h15.1v20.2H2.2z M9.7,25C9.3,25,9,24.7,9,24.3c0-0.4,0.3-0.7,0.7-0.7
		c0.4,0,0.7,0.3,0.7,0.7l0,0C10.4,24.7,10.1,25,9.7,25 M8.5,3.7h2.2v2.2H8.5V3.7z M4.1,3.7h2.3v2.2H4.1L4.1,3.7z M15.4,3.7v2.2h-2.3
		V3.7H15.4z M8.5,7.4h2.2v2.2H8.5V7.4z M4.1,7.4h2.3v2.2H4.1L4.1,7.4z M13.1,7.4h2.3v2.2h-2.3V7.4z M8.5,11.2h2.2v2.3H8.5V11.2z
		 M4.1,11.2h2.3v2.3H4.1L4.1,11.2z M13.1,11.2h2.3v2.3h-2.3V11.2z M8.5,14.9h2.2v2.3H8.5V14.9z M4.1,14.9h2.3v2.3H4.1L4.1,14.9z
		 M13.1,14.9h2.3v2.3h-2.3V14.9z M8.5,18.7h2.2V21H8.5V18.7z M4.1,18.7h2.3V21H4.1L4.1,18.7z M13.1,18.7h2.3V21h-2.3V18.7z"/>
</g>
</svg>
