<?xml version="1.0" encoding="utf-8"?>
<!-- Generator: Adobe Illustrator 26.4.1, SVG Export Plug-In . SVG Version: 6.00 Build 0)  -->
<svg version="1.1" id="Layer_1" xmlns="http://www.w3.org/2000/svg" xmlns:xlink="http://www.w3.org/1999/xlink" x="0px" y="0px"
	 viewBox="0 0 28.4 28.9" style="enable-background:new 0 0 28.4 28.9;" xml:space="preserve">
<style type="text/css">
	.st0{fill:#FFFFFF;}
</style>
<path class="st0" d="M23.2,16.6h-0.5v-1c0-0.7-0.3-1.4-0.8-1.9s-1.2-0.8-1.9-0.8l0,0c-1.5,0-2.7,1.2-2.7,2.7v1h-0.5v5.2h6.4V16.6z
	 M19.1,14.7c0.2-0.2,0.6-0.4,0.9-0.4c0.4,0,0.7,0.1,0.9,0.4c0.2,0.2,0.4,0.6,0.4,0.9v1h-2.6v-1C18.7,15.2,18.8,14.9,19.1,14.7z
	 M28.3,9.9L27,9.6c-1.2-0.3-4.4-1.1-7-1.1c-0.3,0-0.7,0-1.1,0c-0.1-0.1-0.2-0.1-0.3-0.2C18.3,8.1,18,8,17.8,7.9c0,0,0,0-0.1,0
	c0,0,0,0,0-0.1c0.1-0.6,0.1-1.2,0-1.8c-0.1-1-0.5-1.9-1-2.8c-1-1.7-2.8-2.8-4.8-3.1L11.3,0v1.3c0,0.5,0.5,0.6,0.7,0.6
	c0.5,0.2,1,0.5,1.5,0.9c0.8,0.8,1.2,1.9,1,3c0,0.2-0.1,0.5-0.2,0.7c-1-0.7-2.3-1.1-3.5-1.1l0,0c-1.2,0-2.4,0.4-3.4,1.1
	C7.2,6,7.2,5.5,7.3,4.9C7.4,4,7.9,3.2,8.6,2.6c0.5-0.3,1-0.5,1.6-0.7c0.2,0,0.5-0.2,0.5-0.8v-1l-0.6,0.1C7.5,0.6,5.3,2.5,4.6,5
	C4.4,5.7,4.3,6.3,4.3,7c0,0.3,0,0.6,0.1,1c0,0,0,0-0.1,0C4.1,8.1,3.9,8.2,3.6,8.3C2.4,8.9,1.4,10,0.8,11.1c-0.9,1.7-1,3.8-0.3,5.6
	l0.2,0.5l1-0.6C2,16.4,2.1,16.2,2,15.8c-0.1-0.2-0.1-0.5-0.1-0.8c0-0.7,0.1-1.4,0.5-2c0.5-0.9,1.4-1.5,2.4-1.7c0,0.1,0,0.1,0,0.2
	c0,2.4,1.4,4.6,3.6,5.6c-0.2,0.3-0.5,0.5-0.8,0.7c-0.9,0.6-2.1,0.8-3.1,0.5c-0.5-0.2-1-0.4-1.5-0.8c-0.2-0.2-0.5-0.5-0.9-0.2l-1,0.6
	l0.5,0.6c1.7,2.2,4.7,3.1,7.3,2.3c0.7-0.2,1.4-0.6,2-1c0.1-0.1,0.2-0.1,0.3-0.2c0.2,0.2,0.4,0.3,0.6,0.4v4.8l8.3,4.1l8.3-4.1
	L28.3,9.9z M26.1,23.4l-6.1,3l-6.1-3V11.7c1.3-0.3,3.9-0.9,6.1-0.9l0,0c2.1,0,4.7,0.6,6,0.9L26.1,23.4z M12.9,8.6
	c-0.8,0.4-2.1,0.8-3.6,0c0.5-0.3,1.2-0.5,1.8-0.5l0,0C11.7,8.1,12.3,8.3,12.9,8.6z M9.2,14.8c-1-0.6-1.7-1.7-1.8-2.9
	c0.2,0.1,0.5,0.3,0.7,0.5c0.1,0.1,0.3,0.4,0.4,0.5c0.1,0.1,0.2,0.3,0.3,0.4v0.1C9.1,13.8,9.2,14.3,9.2,14.8z"/>
</svg>
