<?xml version="1.0" encoding="utf-8"?>
<!-- Generator: Adobe Illustrator 26.4.1, SVG Export Plug-In . SVG Version: 6.00 Build 0)  -->
<svg version="1.1" id="Layer_1" xmlns="http://www.w3.org/2000/svg" xmlns:xlink="http://www.w3.org/1999/xlink" x="0px" y="0px"
	 viewBox="0 0 26.6 26.6" style="enable-background:new 0 0 26.6 26.6;" xml:space="preserve">
<style type="text/css">
	.st0{fill:#FFFFFF;}
</style>
<path class="st0" d="M13.3,0C5.9,0,0,6,0,13.3s6,13.3,13.3,13.3c7.4,0,13.3-6,13.3-13.3S20.7,0,13.3,0z M13.3,24.4
	c-6.1,0-11.1-5-11.1-11.1s5-11.1,11.1-11.1s11,5,11,11.1S19.4,24.4,13.3,24.4z M19.4,17.2l2.1-2.6l-3.6-4.9l1.9-1.9l-1.5-0.3
	c0,0-1-0.2-2.4-0.1l-0.2-2L15,5.7C12.4,6,10.2,7.1,8.5,8.9c-2.6,2.7-3.1,6.6-3.2,8.6v0.8h1.9c0,0.5,0,0.8,0,0.8l0.1,0.7h9.8v-1.2
	l-0.2-0.2c0,0-0.9-1.2-1-2.7c0.1,0,0.3,0,0.4-0.1L19.4,17.2z M15.9,9.5l3.7,5L19,15.2l-1-0.5c0.1-0.1,0.2-0.2,0.3-0.4l0.1-0.1
	l-1.2-0.9l-0.1,0.1c-0.3,0.4-0.8,0.6-1.3,0.6c-0.9,0-1.6-0.7-1.6-1.6v-0.2h-1.5v0.2c0,1.2,0.7,2.3,1.7,2.8c0,1.2,0.3,2.2,0.7,3H8.7
	c0-0.2,0-0.6,0-1v-0.1V17c0-0.3,0.1-0.5,0.1-0.8v-0.1V16c0-0.2,0.1-0.4,0.1-0.6c0-0.1,0-0.2,0.1-0.3V15c0-0.2,0.1-0.3,0.1-0.5
	c0-0.1,0.1-0.3,0.2-0.4c0.1-0.2,0.1-0.3,0.2-0.5c0.1-0.1,0.1-0.3,0.2-0.4c0.1-0.2,0.2-0.4,0.3-0.6l0.1-0.1c0-0.1,0.1-0.1,0.1-0.2
	c0.2-0.3,0.4-0.6,0.7-0.8c0.2-0.2,0.5-0.5,0.8-0.7c0.1-0.1,0.2-0.1,0.2-0.2l0.1-0.1c0.2-0.1,0.4-0.3,0.6-0.4C12.7,10,12.9,10,13,9.9
	c0.2-0.1,0.5-0.2,0.8-0.3c0.1-0.1,0.3-0.1,0.4-0.1c0.3-0.1,0.6-0.1,0.8-0.2c0.5-0.1,0.9-0.1,1.2-0.2L15.9,9.5z M13.2,8.1
	c-0.4,0.2-0.8,0.3-1.2,0.5l0,0c-0.3,0.2-0.6,0.4-1,0.6c-0.1,0.1-0.2,0.1-0.2,0.2c-0.4,0.3-0.6,0.5-0.9,0.8c-0.2,0.2-0.4,0.4-0.6,0.7
	c0,0.1-0.1,0.1-0.1,0.2l-0.1,0.1c-0.1,0.2-0.2,0.3-0.3,0.5c-0.1,0.1-0.1,0.2-0.2,0.3c-0.1,0.1-0.2,0.3-0.2,0.4
	c-0.1,0.1-0.1,0.2-0.2,0.4c-0.1,0.1-0.1,0.3-0.2,0.4v0.1c0,0.1-0.1,0.2-0.1,0.3c-0.1,0.2-0.1,0.4-0.2,0.6v0.1v0.1
	c-0.1,0.3-0.1,0.5-0.2,0.8v0.1c-0.1,0.5-0.2,0.9-0.2,1.4H7c0.2-2.1,0.8-4.8,2.7-6.8c1.3-1.3,2.9-2.2,4.8-2.6v0.4
	C14,7.9,13.6,8,13.2,8.1z"/>
</svg>
