<?xml version="1.0" encoding="utf-8"?>
<!-- Generator: Adobe Illustrator 26.4.1, SVG Export Plug-In . SVG Version: 6.00 Build 0)  -->
<svg version="1.1" id="Layer_1" xmlns="http://www.w3.org/2000/svg" xmlns:xlink="http://www.w3.org/1999/xlink" x="0px" y="0px"
	 viewBox="0 0 22.5 28.5" style="enable-background:new 0 0 22.5 28.5;" xml:space="preserve">
<style type="text/css">
	.st0{fill:#FFFFFF;}
</style>
<g id="Layer_1_00000137837669502239674310000000120983257465245841_">
	<path class="st0" d="M22.4,17l-7.2-7V0H0l0,23.7h10.4l4.7,4.9h7.4L22.4,17z M13,2.2v15l-0.7-0.7c-0.6-0.6-1.4-1-2.2-1
		c-0.8,0-1.7,0.3-2.3,0.9c-0.6,0.6-1,1.4-1,2.2c0,0.6,0.2,1.3,0.5,1.8H2.2V2.2L13,2.2z M9.3,17.9c0.2-0.2,0.4-0.3,0.7-0.3h0
		c0.3,0,0.5,0.1,0.7,0.3l4.5,4.5v-9.4l5,4.9v8.4H16l-6.7-7C8.9,18.9,8.9,18.3,9.3,17.9C9.3,17.9,9.3,17.9,9.3,17.9L9.3,17.9z
		 M6.6,8.1H5.7V6.7h0.9V6.3c0-2.3,1.9-2.6,2.9-2.6c0.2,0,0.4,0,0.6,0v1.5c-0.1,0-0.2,0-0.4,0c-0.5,0-1.4,0.1-1.4,1.2v0.3h1.5v1.4
		H8.4v5.6H6.6V8.1z M7.6,22.5c-0.3,0-0.5-0.2-0.5-0.5c0-0.3,0.2-0.5,0.5-0.5c0.3,0,0.5,0.2,0.5,0.5S7.9,22.5,7.6,22.5L7.6,22.5"/>
</g>
</svg>
