<?xml version="1.0" encoding="utf-8"?>
<!-- Generator: Adobe Illustrator 26.4.1, SVG Export Plug-In . SVG Version: 6.00 Build 0)  -->
<svg version="1.1" id="Layer_1" xmlns="http://www.w3.org/2000/svg" xmlns:xlink="http://www.w3.org/1999/xlink" x="0px" y="0px"
	 viewBox="0 0 24.6 31.3" style="enable-background:new 0 0 24.6 31.3;" xml:space="preserve">
<style type="text/css">
	.st0{fill:#FFFFFF;}
</style>
<g id="Layer_1_00000127002921244641537830000009491543122606668211_">
	<path class="st0" d="M24.6,18.6L16.6,11V0H0v25.9h11.4l5.2,5.4h8L24.6,18.6z M14.3,2.3v16.6L13.5,18c-0.6-0.6-1.5-1-2.4-1
		c-0.9,0-1.8,0.3-2.5,1c-0.7,0.6-1.1,1.5-1.1,2.4c0,0.7,0.2,1.5,0.6,2.1H2.3V2.3L14.3,2.3z M10.2,19.6c0.2-0.2,0.5-0.3,0.8-0.3H11
		c0.3,0,0.6,0.1,0.8,0.4l4.9,4.8V14.2l5.6,5.4v9.3h-4.7l-7.4-7.7c-0.2-0.2-0.3-0.5-0.3-0.8C9.8,20.1,10,19.8,10.2,19.6z M6.2,12.7
		v1.6h1.4L8,13.4c0.7,0.1,1.3,0.1,2,0l0.4,0.9h1.4v-1.6c0.9-0.5,1.4-1.4,1.5-2.5c0-1.8-1.9-3.2-4.3-3.2c-0.3,0-0.7,0-1,0.1L7.5,6.6
		H6.2v1.2C5.7,8.1,5.3,8.6,5,9.1H4v2.3h1C5.3,12,5.7,12.4,6.2,12.7L6.2,12.7z M6.3,9.1c0.2-0.2,0.6-0.2,0.8,0c0,0,0,0,0,0
		c0.2,0.2,0.2,0.6,0,0.8c-0.2,0.2-0.6,0.2-0.8,0C6.1,9.7,6.1,9.3,6.3,9.1L6.3,9.1z M8.7,23.8c-0.3,0-0.5-0.2-0.5-0.5
		c0-0.3,0.2-0.5,0.5-0.5c0.3,0,0.5,0.2,0.5,0.5S9,23.8,8.7,23.8L8.7,23.8"/>
</g>
</svg>
