<?xml version="1.0" encoding="utf-8"?>
<!-- Generator: Adobe Illustrator 26.4.1, SVG Export Plug-In . SVG Version: 6.00 Build 0)  -->
<svg version="1.1" id="Layer_1" xmlns="http://www.w3.org/2000/svg" xmlns:xlink="http://www.w3.org/1999/xlink" x="0px" y="0px"
	 viewBox="0 0 23.4 31.6" style="enable-background:new 0 0 23.4 31.6;" xml:space="preserve">
<style type="text/css">
	.st0{fill:#FFFFFF;}
</style>
<path class="st0" d="M12,9L12,9L12,9c2.8-0.1,5.5-1.3,8.1-3.8l0.8-0.7l-0.8-0.7C17.5,1.3,14.8,0,12,0S6.5,1.3,3.9,3.8L3.1,4.5
	l0.8,0.7C6.5,7.7,9.2,9,12,9z M17.8,4.5c-0.5,0.4-1.1,0.8-1.6,1.2c0.1-0.4,0.2-0.8,0.2-1.2s-0.1-0.8-0.2-1.2
	C16.7,3.6,17.3,4,17.8,4.5z M11.9,2.1L11.9,2.1c0.6,0,1.2,0.3,1.7,0.7c0.5,0.5,0.7,1.1,0.7,1.7s-0.2,1.2-0.7,1.7s-1.1,0.7-1.7,0.7
	l0,0c-1.3,0-2.4-1.1-2.4-2.4S10.6,2.1,11.9,2.1z M7.6,3.4C7.5,3.8,7.5,4.1,7.5,4.5c0,0.4,0,0.7,0.1,1.1c-0.5-0.3-1-0.7-1.5-1.1
	C6.6,4.1,7.1,3.7,7.6,3.4z M11,5.4c-0.2-0.2-0.4-0.6-0.4-0.9c0-0.7,0.6-1.3,1.3-1.3l0,0c0.4,0,0.7,0.1,0.9,0.4
	c0.2,0.2,0.4,0.6,0.4,0.9c0,0.4-0.1,0.7-0.4,0.9c-0.2,0.2-0.6,0.4-0.9,0.4l0,0C11.6,5.8,11.2,5.7,11,5.4z M23.4,18.9L23.3,11H0
	l0.1,7.9h5.5v12.7h12.3V18.9H23.4z M7.7,16.1h7.9l0.1,13.4H7.8L7.7,16.1z M17.8,16.1h2.7v-2.2H2.9v2.2h2.7l0.1,0.6H2.4l-0.2-3.5
	h18.9l0.1,3.6h-3.3L17.8,16.1z M14.8,22.8c0-0.8-0.3-1.6-0.9-2.2c-0.6-0.6-1.3-0.9-2.2-0.9l0,0c-1.7,0-3.1,1.4-3.1,3.1
	s1.4,3.1,3.1,3.1l0,0c0.8,0,1.6-0.3,2.2-0.9C14.5,24.4,14.8,23.6,14.8,22.8z M12.9,23.9c-0.3,0.3-0.7,0.5-1.2,0.5l0,0
	c-0.4,0-0.9-0.2-1.2-0.5c-0.3-0.3-0.4-0.7-0.4-1.1c0-0.4,0.2-0.9,0.5-1.2c0.3-0.3,0.7-0.5,1.2-0.5l0,0c0.4,0,0.9,0.2,1.2,0.5
	c0.3,0.3,0.5,0.7,0.5,1.2C13.4,23.2,13.2,23.6,12.9,23.9z M10,27v1.4H8.6V27H10z M14.9,27v1.4h-1.4V27H14.9z M10,18.5H8.6v-1.4H10
	V18.5z M13.5,18.5v-1.4h1.4v1.4H13.5z"/>
</svg>
