<?xml version="1.0" encoding="utf-8"?>
<!-- Generator: Adobe Illustrator 26.4.1, SVG Export Plug-In . SVG Version: 6.00 Build 0)  -->
<svg version="1.1" id="Layer_1" xmlns="http://www.w3.org/2000/svg" xmlns:xlink="http://www.w3.org/1999/xlink" x="0px" y="0px"
	 viewBox="0 0 26.6 26.6" style="enable-background:new 0 0 26.6 26.6;" xml:space="preserve">
<style type="text/css">
	.st0{fill:#FFFFFF;}
</style>
<path class="st0" d="M19.3,15.4l-1-0.1v-0.5h3.4v-1.7h-3.4v-0.5l1.1-0.2l2.8-2.8L21,8.4l-2.4,2.4h-0.3V9.1h-1.4V8.2
	c0-2-1.6-3.6-3.6-3.6l0,0c-2,0-3.6,1.6-3.6,3.6v0.2h1.7V8.2c0-1.1,0.9-1.9,1.9-1.9l0,0c0.5,0,1,0.2,1.4,0.6c0.4,0.4,0.6,0.9,0.6,1.4
	v0.9H8.4v1.7H8.1L5.7,8.5L4.4,9.7l2.8,2.8l1.1,0.2v0.5H4.9v1.7h3.4v0.5l-1.1,0.2l-2.8,2.8l1.2,1.2L8,17.2h0.3V20h10v-2.8h0.3
	l2.4,2.4l1.2-1.2L19.3,15.4z M13.4,15.9h-0.2v-1.5L13,14.3c-0.3-0.1-0.5-0.4-0.5-0.7c0-0.4,0.3-0.8,0.8-0.8l0,0
	c0.2,0,0.4,0.1,0.5,0.2s0.2,0.3,0.2,0.5c0,0.3-0.2,0.6-0.5,0.7l-0.2,0.1L13.4,15.9z M22.7,3.9C20.2,1.4,16.8,0,13.3,0l0,0
	C9.7,0,6.4,1.4,3.9,3.9S0,9.8,0,13.3c0,3.6,1.4,6.9,3.9,9.4s5.9,3.9,9.4,3.9l0,0c3.6,0,6.9-1.4,9.4-3.9s3.9-5.9,3.9-9.4
	C26.6,9.7,25.2,6.4,22.7,3.9z M24.4,13.3c0,2.9-1.1,5.7-3.2,7.8s-4.9,3.2-7.8,3.2s-5.7-1.1-7.8-3.2s-3.2-4.9-3.2-7.8
	s1.1-5.7,3.2-7.8s4.9-3.2,7.8-3.2C19.4,2.2,24.3,7.2,24.4,13.3z"/>
</svg>
