<?xml version="1.0" encoding="utf-8"?>
<!-- Generator: Adobe Illustrator 26.4.1, SVG Export Plug-In . SVG Version: 6.00 Build 0)  -->
<svg version="1.1" id="Layer_1" xmlns="http://www.w3.org/2000/svg" xmlns:xlink="http://www.w3.org/1999/xlink" x="0px" y="0px"
	 viewBox="0 0 26.6 23" style="enable-background:new 0 0 26.6 23;" xml:space="preserve">
<style type="text/css">
	.st0{fill:#FFFFFF;}
</style>
<g id="Layer_1_00000112605765051511910820000017444774078029982386_">
	<path class="st0" d="M26.6,19.1V0H0v19.1h8.5v1.4H6.2V23h14.2v-2.6h-2.3v-1.4H26.6z M24.2,2.4v14.4H2.3V2.4H24.2z M8.1,9.3l2,2.1
		l-0.9,0.9l-1.9-2.1l-1.9,2.1l-0.9-0.9l2-2.1l-2-2.1l0.9-0.9l1.9,2.1l1.9-2.1l0.9,0.9L8.1,9.3z M14.2,9.3l1.9,2.1l-0.9,0.9l-1.9-2.1
		l-1.9,2.1l-0.9-0.9l2-2.1l-2-2.1l0.9-0.9l1.9,2.1l1.9-2.1l0.9,0.9L14.2,9.3z M22.3,11.4l-0.9,0.9l-1.9-2.1l-1.9,2.1l-0.9-0.9l2-2.1
		l-2-2.1l0.9-0.9l1.9,2.1l1.9-2.1l0.9,0.9l-2,2.1L22.3,11.4z"/>
</g>
</svg>
