<?xml version="1.0" encoding="utf-8"?>
<!-- Generator: Adobe Illustrator 26.4.1, SVG Export Plug-In . SVG Version: 6.00 Build 0)  -->
<svg version="1.1" id="Layer_1" xmlns="http://www.w3.org/2000/svg" xmlns:xlink="http://www.w3.org/1999/xlink" x="0px" y="0px"
	 viewBox="0 0 22.4 28.5" style="enable-background:new 0 0 22.4 28.5;" xml:space="preserve">
<style type="text/css">
	.st0{fill:#FFFFFF;}
</style>
<g id="Layer_1_00000116222234307401561070000002480113299434586776_">
	<path class="st0" d="M10.9,7.7c0,2.7-2.2,4.8-4.8,4.8c-0.9,0-1.8-0.3-2.6-0.8c0.2,0,0.4,0,0.6,0l0,0c0.2,0,0.3,0,0.5,0h0.1l0.3-0.1
		c0.3-0.1,0.6-0.3,0.8-0.5C2.5,9.7,4,6.2,4,6.2l0,0C4.9,7.3,6.2,7.9,7.5,8c0-0.1,0-0.3,0-0.4c0-0.9,0.8-1.7,1.7-1.7
		c0.5,0,0.9,0.2,1.2,0.5l1.1-0.4L11,7l0.8-0.2L10.9,7.7z M22.4,17v11.5h-7.4l-4.7-4.9H0V0h15.2v10L22.4,17z M2.2,20.4h5.1
		c-0.4-0.5-0.5-1.2-0.5-1.8c0-0.8,0.4-1.6,1-2.2c0.6-0.6,1.4-0.9,2.3-0.9c0.8,0,1.7,0.4,2.2,1l0.7,0.7v-15H2.2L2.2,20.4z M9,18.6
		c0,0.3,0.1,0.5,0.3,0.7l6.7,7h4.3v-8.4l-5-4.9v9.4L10.7,18c-0.2-0.2-0.4-0.3-0.7-0.3c-0.3,0-0.5,0.1-0.7,0.3
		C9.1,18.1,9,18.4,9,18.6z M7.6,22.5c0.3,0,0.5-0.2,0.5-0.5c0-0.3-0.2-0.5-0.5-0.5c-0.3,0-0.5,0.2-0.5,0.5
		C7.1,22.2,7.3,22.5,7.6,22.5L7.6,22.5"/>
</g>
</svg>
