<?xml version="1.0" encoding="utf-8"?>
<!-- Generator: Adobe Illustrator 26.4.1, SVG Export Plug-In . SVG Version: 6.00 Build 0)  -->
<svg version="1.1" id="Layer_1" xmlns="http://www.w3.org/2000/svg" xmlns:xlink="http://www.w3.org/1999/xlink" x="0px" y="0px"
	 viewBox="0 0 30.5 24.2" style="enable-background:new 0 0 30.5 24.2;" xml:space="preserve">
<style type="text/css">
	.st0{fill:#FFFFFF;}
</style>
<g id="Layer_1_00000175324131550560849000000014616269575971871366_">
	<path class="st0" d="M17.5,5.2l-3.8,3.6L9.9,5.2l1.4-1.4l1.5,1.4V0h2v5.2l1.5-1.4L17.5,5.2z M30.5,15.9v6.5h-3.9
		c-0.9,1.7-3,2.3-4.7,1.4c-0.6-0.3-1-0.8-1.4-1.4H9.8c-0.9,1.7-3,2.3-4.7,1.4c-0.6-0.3-1-0.8-1.4-1.4H0v-8.1l4.2-4.2h14.4l3.6,3.6
		L30.5,15.9z M14.7,12.2v1.5h4.5l-1.5-1.5H14.7z M5,12.2l-1.5,1.5h1.6l1.5-1.5H5z M9.5,12.2L8,13.7h4.7v-1.5H9.5z M21.6,15.7H2v4.7
		h1.3c0.1-1.9,1.8-3.4,3.8-3.2c1.7,0.1,3.1,1.5,3.2,3.2h9.8c0.1-1.9,1.8-3.4,3.8-3.2c1.7,0.1,3.1,1.5,3.2,3.2h1.3v-2.9L21.6,15.7z"
		/>
</g>
</svg>
