<?xml version="1.0" encoding="utf-8"?>
<!-- Generator: Adobe Illustrator 26.4.1, SVG Export Plug-In . SVG Version: 6.00 Build 0)  -->
<svg version="1.1" id="Layer_1" xmlns="http://www.w3.org/2000/svg" xmlns:xlink="http://www.w3.org/1999/xlink" x="0px" y="0px"
	 viewBox="0 0 26.7 26.7" style="enable-background:new 0 0 26.7 26.7;" xml:space="preserve">
<style type="text/css">
	.st0{fill:#FFFFFF;}
</style>
<g id="Layer_1_00000124853565199482469960000004120682869062197175_">
	<path class="st0" d="M13.4,0C6,0,0,6,0,13.3s6,13.4,13.3,13.4c7.4,0,13.4-6,13.4-13.3c0,0,0,0,0,0C26.7,6,20.7,0,13.4,0z
		 M13.4,24.4c-6.1,0-11.1-4.9-11.1-11c0-6.1,4.9-11.1,11-11.1c6.1,0,11.1,4.9,11.1,11c0,0,0,0.1,0,0.1
		C24.3,19.4,19.4,24.4,13.4,24.4z M19.5,6.2c-2.3,0-4.1,1.9-4.1,4.1v1c-0.6-2.2-2.9-3.5-5.1-2.9c-1.8,0.5-3.1,2.1-3.1,4v4.5
		c-1.2,0-2.1,1-2.1,2.1c0,1.2,1,2.1,2.1,2.1c2.3,0,4.1-1.9,4.1-4.1v-2.2c0.6,2.2,2.9,3.5,5.1,2.9c1.8-0.5,3.1-2.1,3.1-4v-3.3
		c1.2,0,2.1-1,2.1-2.1C21.6,7.1,20.6,6.1,19.5,6.2z M8.7,17.2c0-0.1,0-0.2,0-0.2v-0.5h1.1V17c0,0.4-0.1,0.8-0.3,1.2L8.7,17.2z
		 M8.5,19.3c-0.4,0.2-0.8,0.3-1.2,0.3c-0.3,0-0.6-0.3-0.6-0.6c0-0.3,0.3-0.6,0.6-0.6c0.1,0,0.3,0,0.4-0.1L8.5,19.3z M8.7,12.3
		c0-0.6,0.3-1.1,0.6-1.6l0.7,1.1c-0.1,0.2-0.1,0.3-0.1,0.5H8.7z M9.8,13.8V15H8.8v-1.3L9.8,13.8z M12.6,11.8l0.7-1.1
		c0.4,0.4,0.6,1,0.6,1.6h-1.2C12.8,12.1,12.7,11.9,12.6,11.8L12.6,11.8z M14.1,14.4l-0.7,1.1c-0.4-0.4-0.6-1-0.6-1.6h1.1
		C14,14,14,14.1,14.1,14.4L14.1,14.4z M12,9.9l-0.6,1l0,0l-0.6-1C11.1,9.8,11.6,9.8,12,9.9z M18,13.8c0,0.6-0.3,1.1-0.6,1.6
		l-0.6-1.1c0.1-0.2,0.1-0.3,0.1-0.5L18,13.8z M16,16.2c-0.4,0.1-0.9,0.1-1.3,0l0.6-1h0L16,16.2z M18,11.5v0.8h-1.1v-0.9L18,11.5z
		 M18.1,9.8l-0.1,0.2h-1.1c0.1-0.4,0.2-0.8,0.5-1.2L18.1,9.8z M20,8.3c0,0.3-0.3,0.6-0.6,0.6l0,0l-0.7-1c0.2-0.1,0.5-0.1,0.8-0.1
		C19.8,7.8,20,8,20,8.3L20,8.3z"/>
</g>
</svg>
