<?xml version="1.0" encoding="utf-8"?>
<!-- Generator: Adobe Illustrator 26.4.1, SVG Export Plug-In . SVG Version: 6.00 Build 0)  -->
<svg version="1.1" id="Layer_1" xmlns="http://www.w3.org/2000/svg" xmlns:xlink="http://www.w3.org/1999/xlink" x="0px" y="0px"
	 viewBox="0 0 26.6 26.6" style="enable-background:new 0 0 26.6 26.6;" xml:space="preserve">
<style type="text/css">
	.st0{fill:#FFFFFF;}
</style>
<path class="st0" d="M13.3,0C5.9,0,0,6,0,13.3c0,7.4,6,13.3,13.3,13.3c7.4,0,13.3-6,13.3-13.3C26.6,5.9,20.7,0,13.3,0z M13.3,24.4
	c-6.1,0-11.1-5-11.1-11.1s5-11.1,11.1-11.1s11,5,11,11.1S19.4,24.4,13.3,24.4z M19.5,16.9l1.6-1.6l-2-0.8c0.1-0.4,0.1-0.7,0.1-1.1
	c0-3.2-2.6-5.8-5.8-5.8s-5.8,2.6-5.8,5.8s2.6,5.8,5.8,5.8c0.8,0,1.6-0.2,2.3-0.5l0.6,1.4l1.6-1.6l1.8,1.8l1.6-1.6L19.5,16.9z
	 M17.7,13.4c0,0.2,0,0.3,0,0.5l-4.7-2l2.2,5.4c-0.6,0.3-1.1,0.4-1.7,0.4c-2.4,0-4.3-1.9-4.3-4.3s1.9-4.3,4.3-4.3S17.7,11,17.7,13.4z
	"/>
</svg>
