<?xml version="1.0" encoding="utf-8"?>
<!-- Generator: Adobe Illustrator 26.4.1, SVG Export Plug-In . SVG Version: 6.00 Build 0)  -->
<svg version="1.1" id="Layer_1" xmlns="http://www.w3.org/2000/svg" xmlns:xlink="http://www.w3.org/1999/xlink" x="0px" y="0px"
	 viewBox="0 0 22.4 28.5" style="enable-background:new 0 0 22.4 28.5;" xml:space="preserve">
<style type="text/css">
	.st0{fill:#FFFFFF;}
</style>
<g id="Layer_1_00000039106903382037346190000014996116235810223294_">
	<path class="st0" d="M9.1,7L8.6,5.9H6.7L6.2,7H3.6v5.2h8.1V7H9.1z M7.6,10.9c-0.7,0-1.3-0.6-1.3-1.3c0-0.7,0.6-1.3,1.3-1.3
		c0.7,0,1.3,0.6,1.3,1.3S8.3,10.9,7.6,10.9C7.6,10.9,7.6,10.9,7.6,10.9z M15.2,10V0H0v23.7h10.4l4.7,4.9h7.4V17L15.2,10z M2.2,2.2
		H13v15l-0.7-0.7c-0.6-0.6-1.4-1-2.2-1c-0.9,0-1.7,0.3-2.3,0.9c-1.1,1.1-1.3,2.8-0.5,4.1H2.2L2.2,2.2z M9.3,17.9
		c0.2-0.2,0.4-0.3,0.7-0.3c0.3,0,0.5,0.1,0.7,0.3l4.5,4.5v-9.4l5,4.9v8.4H16l-6.7-7C9.1,19.1,9,18.9,9,18.6
		C9,18.4,9.1,18.1,9.3,17.9L9.3,17.9z M7.6,22.5c-0.3,0-0.5-0.2-0.5-0.5s0.2-0.5,0.5-0.5c0.3,0,0.5,0.2,0.5,0.5
		C8.1,22.2,7.9,22.5,7.6,22.5C7.6,22.5,7.6,22.5,7.6,22.5"/>
</g>
</svg>
