<?xml version="1.0" encoding="utf-8"?>
<!-- Generator: Adobe Illustrator 26.4.1, SVG Export Plug-In . SVG Version: 6.00 Build 0)  -->
<svg version="1.1" id="Layer_1" xmlns="http://www.w3.org/2000/svg" xmlns:xlink="http://www.w3.org/1999/xlink" x="0px" y="0px"
	 viewBox="0 0 17 26.5" style="enable-background:new 0 0 17 26.5;" xml:space="preserve">
<style type="text/css">
	.st0{fill:#FFFFFF;}
</style>
<g id="Layer_1_00000111913173375261977400000006088270429982111631_">
	<path class="st0" d="M0,0v26.5h17V0H0z M2.2,23.1V2.2h12.6v20.9H2.2z M7.2,4h2.2v2.2H7.2L7.2,4z M3.4,4h2.3v2.2H3.4L3.4,4z M13.5,4
		v2.2h-2.2V4H13.5z M7.2,7.8h2.2V10H7.2L7.2,7.8z M3.4,7.8h2.3V10H3.4L3.4,7.8z M11.3,7.8h2.3V10h-2.2L11.3,7.8z M7.2,11.5h2.2v2.3
		H7.2V11.5z M3.4,11.5h2.3v2.3H3.4V11.5z M11.3,11.5h2.3v2.3h-2.3V11.5z M7.2,15.3h2.2v2.2H7.2V15.3z M3.4,15.3h2.3v2.2H3.4V15.3z
		 M11.3,15.3h2.3v2.2h-2.3V15.3z M7.2,19h2.2v2.3H7.2V19z M3.4,19h2.3v2.3H3.4V19z M11.3,19h2.3v2.3h-2.3V19z"/>
</g>
</svg>
