<?xml version="1.0" encoding="utf-8"?>
<!-- Generator: Adobe Illustrator 26.4.1, SVG Export Plug-In . SVG Version: 6.00 Build 0)  -->
<svg version="1.1" id="Layer_1" xmlns="http://www.w3.org/2000/svg" xmlns:xlink="http://www.w3.org/1999/xlink" x="0px" y="0px"
	 viewBox="0 0 20.1 28.7" style="enable-background:new 0 0 20.1 28.7;" xml:space="preserve">
<style type="text/css">
	.st0{fill:#FFFFFF;}
</style>
<g id="Layer_1_00000171713781499342382870000009725023755375980975_">
	<path class="st0" d="M13.6,10.4V5.7l-3.5-3.5H3.8v8.2H0v2.2h1.8v16.1h13.9V12.6h1.8v-2.2H13.6z M11.4,7.1v3.2H6v-6h2.6v2.7
		L11.4,7.1z M4,26.5V12.6h9.5v13.9L4,26.5z M20.1,3.5l-1.2,1.2l-1.6-1.5v5.3h-1.7V3.2l-1.6,1.5l-1.2-1.2L16.5,0L20.1,3.5z
		 M12.2,13.9v11.2h-1.5V13.9H12.2z M7.9,13.9h1.5v11.2H7.9V13.9z M5.2,13.9h1.5v11.2H5.2V13.9z M10.7,9.5H6.7V7.9h3.9V9.5z"/>
</g>
</svg>
