<?xml version="1.0" encoding="utf-8"?>
<!-- Generator: Adobe Illustrator 26.4.1, SVG Export Plug-In . SVG Version: 6.00 Build 0)  -->
<svg version="1.1" id="Layer_1" xmlns="http://www.w3.org/2000/svg" xmlns:xlink="http://www.w3.org/1999/xlink" x="0px" y="0px"
	 viewBox="0 0 20 28" style="enable-background:new 0 0 20 28;" xml:space="preserve">
<style type="text/css">
	.st0{fill:#FFFFFF;}
</style>
<g id="Layer_1_00000134957883918502794380000008814549445577591954_">
	<path class="st0" d="M20,28h-6.6l-4.5-4.6H0V0h13.7v11.5l6.2,6.2L20,28z M9.2,22.3H6.8v-3.2c0,0.5,0.2,1,0.5,1.4L9.2,22.3z
		 M10.7,11.7c0,2.1-1.7,3.9-3.9,3.9s-3.9-1.7-3.9-3.9s1.7-3.9,3.9-3.9l0,0C9,7.8,10.7,9.6,10.7,11.7z M9.2,11.7c0-1.3-1-2.3-2.3-2.3
		s-2.3,1-2.3,2.3s1,2.3,2.3,2.3l0,0C8.1,14,9.2,13,9.2,11.7C9.2,11.7,9.2,11.7,9.2,11.7z M2.7,20.8h1.8V19H2.7V20.8z M4.4,2.6H2.7
		v1.7h1.8V2.6z M9.2,2.6v1.7H11V2.6H9.2z M2.2,21.2h4.4c-1.2-1.2-1.2-3.1,0-4.2c1.2-1.2,3.1-1.2,4.2,0c0,0,0,0,0,0l0.6,0.6V2.2H2.2
		L2.2,21.2z M7.9,19.1c0,0.2,0.1,0.4,0.2,0.6l6,6h3.5v-7.1l-4-4v8.3l-4.3-4.3c-0.2-0.1-0.4-0.2-0.6-0.2l0,0
		C8.4,18.3,8,18.6,7.9,19.1C8,19.1,8,19.1,7.9,19.1L7.9,19.1z"/>
</g>
</svg>
