<?xml version="1.0" encoding="utf-8"?>
<!-- Generator: Adobe Illustrator 26.4.1, SVG Export Plug-In . SVG Version: 6.00 Build 0)  -->
<svg version="1.1" id="Layer_1" xmlns="http://www.w3.org/2000/svg" xmlns:xlink="http://www.w3.org/1999/xlink" x="0px" y="0px"
	 viewBox="0 0 26.8 18.8" style="enable-background:new 0 0 26.8 18.8;" xml:space="preserve">
<style type="text/css">
	.st0{fill:#FFFFFF;}
</style>
<g id="Layer_1_00000111190530980422573990000006013109199486568630_">
	<path class="st0" d="M0,0v18.8h26.8V0H0z M2.2,16.6V2.2h22.4v14.4H2.2z M22.4,5.9v1.1h-7.2V5.9H22.4z M15.2,8.8h7.2v1.1h-7.2V8.8z
		 M15.2,11.6h7.2v1.1h-7.2V11.6z M5.9,7.2c0-1.1,0.9-2,2-2s2,0.9,2,2s-0.9,2-2,2S5.9,8.3,5.9,7.2z M11.9,13.5L11.9,13.5L11.9,13.5
		l-8,0.1v-0.1l0,0c0-2.2,1.8-4,4-4S11.8,11.3,11.9,13.5L11.9,13.5z"/>
</g>
</svg>
