<?xml version="1.0" encoding="utf-8"?>
<!-- Generator: Adobe Illustrator 26.4.1, SVG Export Plug-In . SVG Version: 6.00 Build 0)  -->
<svg version="1.1" id="Layer_1" xmlns="http://www.w3.org/2000/svg" xmlns:xlink="http://www.w3.org/1999/xlink" x="0px" y="0px"
	 viewBox="0 0 22.4 28.5" style="enable-background:new 0 0 22.4 28.5;" xml:space="preserve">
<style type="text/css">
	.st0{fill:#FFFFFF;}
</style>
<g id="Layer_1_00000031194679392478406830000011184101131834157959_">
	<path class="st0" d="M12.3,7.1v5.3H2.9V7.1l4.7,3.2L12.3,7.1z M7.5,9.7L3.3,6.8h8.6L7.5,9.7L7.5,9.7z M15.2,10V0H0v23.6h10.4
		l4.7,4.9h7.4V17L15.2,10z M2.2,2.2H13v15l-0.7-0.7c-0.6-0.6-1.4-1-2.2-1c-1.8-0.1-3.2,1.3-3.3,3.1c0,0.7,0.2,1.3,0.5,1.9H2.2
		L2.2,2.2z M9.3,17.9c0.2-0.2,0.5-0.3,0.7-0.3c0.3,0,0.5,0.1,0.7,0.3l4.5,4.5v-9.4l5,4.9v8.4H16l-6.7-7C9.1,19.1,9,18.9,9,18.6
		C9,18.3,9.1,18.1,9.3,17.9z M7.6,22.5c-0.3,0-0.5-0.2-0.5-0.5c0-0.3,0.2-0.5,0.5-0.5c0.3,0,0.5,0.2,0.5,0.5c0,0,0,0,0,0
		C8.1,22.2,7.9,22.5,7.6,22.5C7.6,22.5,7.6,22.5,7.6,22.5"/>
</g>
</svg>
