<?xml version="1.0" encoding="utf-8"?>
<!-- Generator: Adobe Illustrator 26.4.1, SVG Export Plug-In . SVG Version: 6.00 Build 0)  -->
<svg version="1.1" id="Layer_1" xmlns="http://www.w3.org/2000/svg" xmlns:xlink="http://www.w3.org/1999/xlink" x="0px" y="0px"
	 viewBox="0 0 22.4 28.5" style="enable-background:new 0 0 22.4 28.5;" xml:space="preserve">
<style type="text/css">
	.st0{fill:#FFFFFF;}
</style>
<g id="Layer_1_00000168801145762633183310000014323134870209748870_">
	<path class="st0" d="M8.7,9.4l2.9,2.9l-0.2,0.2c-1.7,2-4.7,2.1-6.6,0.4S2.7,8.3,4.4,6.3s4.7-2.1,6.6-0.4c0.2,0.1,0.3,0.3,0.4,0.4
		l0.2,0.2L8.7,9.4z M22.4,17v11.5h-7.4l-4.7-4.9H0V0h15.2v10L22.4,17z M2.2,20.4h5.1c-0.8-1.3-0.6-3,0.5-4.1
		c0.6-0.6,1.4-0.9,2.3-0.9c0.8,0,1.7,0.4,2.2,1l0.7,0.7v-15H2.2V20.4z M9,18.6c0,0.3,0.1,0.5,0.3,0.7l6.7,7h4.3v-8.4l-5-4.8v9.4
		L10.8,18c-0.2-0.2-0.4-0.3-0.7-0.3c-0.3,0-0.5,0.1-0.7,0.3C9.1,18.1,9,18.4,9,18.6z M7.6,22.5c0.3,0,0.5-0.2,0.5-0.5
		c0-0.3-0.2-0.5-0.5-0.5c-0.3,0-0.5,0.2-0.5,0.5C7.1,22.2,7.3,22.5,7.6,22.5L7.6,22.5"/>
</g>
</svg>
