<?xml version="1.0" encoding="utf-8"?>
<!-- Generator: Adobe Illustrator 26.4.1, SVG Export Plug-In . SVG Version: 6.00 Build 0)  -->
<svg version="1.1" id="Layer_1" xmlns="http://www.w3.org/2000/svg" xmlns:xlink="http://www.w3.org/1999/xlink" x="0px" y="0px"
	 viewBox="0 0 22.3 25.8" style="enable-background:new 0 0 22.3 25.8;" xml:space="preserve">
<style type="text/css">
	.st0{fill:#FFFFFF;}
</style>
<g id="Layer_1_00000065071377561596570740000008213467024065119873_">
	<path class="st0" d="M3.4,3.3v22.4h18.9V3.3H3.4z M5.6,20.1V5.5h14.6v14.5H5.6z M18.3,0v2.2H2.2v20.1H0V0H18.3z M10.3,9.9
		c0-1.4,1.2-2.6,2.6-2.6s2.6,1.2,2.6,2.6s-1.2,2.6-2.6,2.6C11.5,12.5,10.3,11.4,10.3,9.9C10.3,9.9,10.3,9.9,10.3,9.9L10.3,9.9z
		 M17.8,18H7.9v-0.6c0.2-2.7,2.5-4.8,5.2-4.6c2.5,0.2,4.4,2.1,4.6,4.6l0,0L17.8,18z"/>
</g>
</svg>
