<?xml version="1.0" encoding="utf-8"?>
<!-- Generator: Adobe Illustrator 26.4.1, SVG Export Plug-In . SVG Version: 6.00 Build 0)  -->
<svg version="1.1" id="Layer_1" xmlns="http://www.w3.org/2000/svg" xmlns:xlink="http://www.w3.org/1999/xlink" x="0px" y="0px"
	 viewBox="0 0 22.3 25.8" style="enable-background:new 0 0 22.3 25.8;" xml:space="preserve">
<style type="text/css">
	.st0{fill:#FFFFFF;}
</style>
<g id="Layer_1_00000021808053635102021460000006280536649188011698_">
	<path class="st0" d="M3.4,3.3v22.4h18.9V3.3H3.4z M5.6,20.1V5.5h14.6v14.5H5.6z M18.3,0v2.2H2.2v20.1H0V0H18.3z M19,14.4v4.5H6.4
		l3.4-5.3l1.8,2.7l4.4-6.9L19,14.4z M8.7,10.9c0-0.6,0.4-1,1-1s1,0.4,1,1c0,0.5-0.4,1-0.9,1C9.2,11.9,8.7,11.5,8.7,10.9
		C8.7,10.9,8.7,10.9,8.7,10.9z"/>
</g>
</svg>
