<?xml version="1.0" encoding="utf-8"?>
<!-- Generator: Adobe Illustrator 26.4.1, SVG Export Plug-In . SVG Version: 6.00 Build 0)  -->
<svg version="1.1" id="Layer_1" xmlns="http://www.w3.org/2000/svg" xmlns:xlink="http://www.w3.org/1999/xlink" x="0px" y="0px"
	 viewBox="0 0 26.7 26.7" style="enable-background:new 0 0 26.7 26.7;" xml:space="preserve">
<style type="text/css">
	.st0{fill:#FFFFFF;}
</style>
<g id="Layer_1_00000023999247374958859150000000824005329385001371_">
	<path class="st0" d="M13.3,0C6,0,0,6,0,13.3s6,13.3,13.3,13.3s13.3-6,13.3-13.3l0,0C26.7,6,20.7,0,13.3,0z M13.3,24.4
		c-6.1,0-11-4.9-11-11s4.9-11,11-11s11,4.9,11,11v0C24.3,19.4,19.4,24.4,13.3,24.4z M11.9,17.5h2.9v2.8h-2.9V17.5z M18.1,9.7
		c0,1.5-0.8,2.8-2,3.6c-0.7,0.6-1.3,1.2-1.3,2v1h-2.9v-1.2c0.1-1.3,0.8-2.6,1.9-3.3c0.7-0.6,1.3-1.1,1.3-2c-0.1-0.8-0.8-1.4-1.6-1.4
		c0,0,0,0,0,0c-0.7,0.1-1.4,0.3-1.9,0.8l-0.2,0.2l-1.6-2l0.1-0.2c1-1,2.4-1.5,3.8-1.5C15.8,5.7,18.1,7.1,18.1,9.7z"/>
</g>
</svg>
