<?xml version="1.0" encoding="utf-8"?>
<!-- Generator: Adobe Illustrator 26.4.1, SVG Export Plug-In . SVG Version: 6.00 Build 0)  -->
<svg version="1.1" id="Layer_1" xmlns="http://www.w3.org/2000/svg" xmlns:xlink="http://www.w3.org/1999/xlink" x="0px" y="0px"
	 viewBox="0 0 23.5 25.6" style="enable-background:new 0 0 23.5 25.6;" xml:space="preserve">
<style type="text/css">
	.st0{fill:#FFFFFF;}
</style>
<path class="st0" d="M1.9,17.8c-0.4,0.2-0.7,0.4-1,0.7C0.3,19.1,0,19.9,0,20.8v2.6h6.2v-2.6c0-0.9-0.4-1.7-0.9-2.3
	c-0.3-0.3-0.6-0.5-1-0.7c0.6-0.4,1-1.1,1-1.8c0-1.2-1-2.2-2.2-2.2s-2.2,1-2.2,2.2C1,16.8,1.4,17.4,1.9,17.8z M19.2,17.8
	c-0.4,0.2-0.7,0.4-1,0.7c-0.6,0.6-0.9,1.4-0.9,2.3v2.6h6.2v-2.6c0-0.9-0.4-1.7-0.9-2.3c-0.3-0.3-0.6-0.5-1-0.7c0.6-0.4,1-1.1,1-1.8
	c0-1.2-1-2.2-2.2-2.2s-2.2,1-2.2,2.2C18.3,16.7,18.6,17.4,19.2,17.8z M16.6,15.3c-0.5-0.5-1.1-0.9-1.8-1.2c1.2-0.9,1.9-2.3,1.9-4
	c0-2.8-2.3-5.1-5-5.1c-2.8,0-5,2.3-5,5.1c0,1.6,0.8,3,1.9,4c-0.6,0.3-1.2,0.7-1.8,1.2c-1.4,1.2-2.1,3-2.1,4.7v5.6h14V20
	C18.8,18.3,18,16.5,16.6,15.3z M8.8,10.2c0-1.6,1.3-3,2.9-3s2.9,1.3,2.9,3c0,1.6-1.3,3-2.9,3C10.2,13.2,8.8,11.8,8.8,10.2z
	 M15.2,16.8c0.9,0.8,1.5,2,1.5,3.2v3.5H6.9V20c0-1.2,0.5-2.4,1.5-3.2c0.9-0.8,2.2-1.3,3.5-1.3S14.3,16,15.2,16.8z M8.7,0.4l1.6,3.7
	L8.7,4.8L7.1,1.1L8.7,0.4z M2.7,5.3l3.8,1.5L5.9,8.4L2.1,6.9L2.7,5.3z M10.9,0h1.7v4h-1.7V0z M5.1,2.3L8,5.1L6.8,6.3L3.9,3.5
	L5.1,2.3z M21.6,6.9l-3.8,1.5l-0.6-1.6L21,5.3L21.6,6.9z M19.6,3.5l-2.9,2.8l-1.2-1.2l2.9-2.8L19.6,3.5z M16.5,1.1l-1.6,3.7
	l-1.6-0.7l1.6-3.7L16.5,1.1z"/>
</svg>
