<?xml version="1.0" encoding="utf-8"?>
<!-- Generator: Adobe Illustrator 26.4.1, SVG Export Plug-In . SVG Version: 6.00 Build 0)  -->
<svg version="1.1" id="Layer_1" xmlns="http://www.w3.org/2000/svg" xmlns:xlink="http://www.w3.org/1999/xlink" x="0px" y="0px"
	 viewBox="0 0 25.2 24.1" style="enable-background:new 0 0 25.2 24.1;" xml:space="preserve">
<style type="text/css">
	.st0{fill:#FFFFFF;}
</style>
<g id="Layer_1_00000122002062645971520570000006914386274847243187_">
	<path class="st0" d="M25.2,6.3L17.9,1H5.3V0H0v15.6h5.2v-1l3.8,1.1l2.9,6.5c0.3,0.7,0.9,1.3,1.7,1.6c0.4,0.1,0.7,0.2,1.1,0.2
		c0.4,0,0.8-0.1,1.2-0.3c1.5-0.7,2.2-2.5,1.6-4l-1.7-3.9h9.3L25.2,6.3z M15.7,21.4c-0.1,0.2-0.3,0.4-0.5,0.5c-0.2,0.1-0.5,0.1-0.7,0
		c-0.2-0.1-0.4-0.3-0.5-0.5l-3.3-7.4l-5.3-1.6V3.1h11.9l5.9,4.3v6.4H12.7l3,6.8C15.8,20.9,15.8,21.2,15.7,21.4z M3.2,13.6H2.1V2h1.1
		V13.6z"/>
</g>
</svg>
