<?xml version="1.0" encoding="utf-8"?>
<!-- Generator: Adobe Illustrator 26.4.1, SVG Export Plug-In . SVG Version: 6.00 Build 0)  -->
<svg version="1.1" id="Layer_1" xmlns="http://www.w3.org/2000/svg" xmlns:xlink="http://www.w3.org/1999/xlink" x="0px" y="0px"
	 viewBox="0 0 26.7 26.7" style="enable-background:new 0 0 26.7 26.7;" xml:space="preserve">
<style type="text/css">
	.st0{fill:#FFFFFF;}
</style>
<g id="Layer_1_00000125564473068198011680000005569184092764117658_">
	<path class="st0" d="M13.3,0C6,0,0,6,0,13.3s6,13.3,13.3,13.3s13.3-6,13.3-13.3l0,0C26.7,6,20.7,0,13.3,0z M13.3,24.4
		c-6.1,0-11-4.9-11-11s4.9-11,11-11s11,4.9,11,11v0C24.3,19.4,19.4,24.4,13.3,24.4z M13.3,9.4c-2.2,0-3.9,1.8-3.9,3.9
		s1.8,3.9,3.9,3.9s3.9-1.8,3.9-3.9l0,0C17.2,11.2,15.5,9.4,13.3,9.4L13.3,9.4z M15.1,13.3c0,1-0.8,1.7-1.7,1.7c-1,0-1.7-0.8-1.7-1.7
		c0-1,0.8-1.7,1.7-1.7c0,0,0,0,0,0C14.3,11.6,15.1,12.4,15.1,13.3C15.1,13.3,15.1,13.3,15.1,13.3L15.1,13.3z"/>
</g>
</svg>
