<?xml version="1.0" encoding="utf-8"?>
<!-- Generator: Adobe Illustrator 26.4.1, SVG Export Plug-In . SVG Version: 6.00 Build 0)  -->
<svg version="1.1" id="Layer_1" xmlns="http://www.w3.org/2000/svg" xmlns:xlink="http://www.w3.org/1999/xlink" x="0px" y="0px"
	 viewBox="0 0 25.2 24.1" style="enable-background:new 0 0 25.2 24.1;" xml:space="preserve">
<style type="text/css">
	.st0{fill:#FFFFFF;}
</style>
<g id="Layer_1_00000147937736895142284990000017426171132417740705_">
	<path class="st0" d="M25.2,17.7V8.2h-9.3l1.7-3.9c0.7-1.6,0-3.4-1.6-4.1c-1.5-0.6-3.3,0-4,1.6L9.1,8.3L5.3,9.5v-1H0v15.7h5.2v-1
		h12.6L25.2,17.7z M15.2,2.2c0.2,0.1,0.4,0.3,0.5,0.5c0.1,0.2,0.1,0.5,0,0.7l-3,6.8h10.4v6.4L17.2,21H5.3v-9.4l5.3-1.5l3.3-7.4
		C14.1,2.2,14.7,2,15.2,2.2z M3.2,22.1H2.1V10.5h1.1V22.1z"/>
</g>
</svg>
