<?xml version="1.0" encoding="utf-8"?>
<!-- Generator: Adobe Illustrator 26.4.1, SVG Export Plug-In . SVG Version: 6.00 Build 0)  -->
<svg version="1.1" id="Layer_1" xmlns="http://www.w3.org/2000/svg" xmlns:xlink="http://www.w3.org/1999/xlink" x="0px" y="0px"
	 viewBox="0 0 30.4 29.1" style="enable-background:new 0 0 30.4 29.1;" xml:space="preserve">
<style type="text/css">
	.st0{fill:#FFFFFF;}
</style>
<path class="st0" d="M28.3,24.4c-0.2,0-0.4,0-0.6,0.1l-1.9-1.9c0.8-1.6,1.2-3.3,1.2-5.1c0-6-4.6-11.1-10.6-11.7V3.7
	c0.5-0.4,0.9-1,0.9-1.7c0-1.1-0.9-2-2-2s-2,0.9-2,2c0,0.7,0.3,1.3,0.9,1.7v2.1c-6,0.5-10.7,5.6-10.7,11.7c0,1.8,0.4,3.5,1.2,5.1
	l-1.9,1.9c-0.2-0.1-0.4-0.1-0.6-0.1c-1.2,0-2.2,1-2.2,2.2c0,1.2,1,2.2,2.2,2.2s2.2-1,2.2-2.2c0-0.2,0-0.4-0.1-0.6l1.5-1.6
	c2.2,3,5.7,4.7,9.4,4.7s7.2-1.7,9.4-4.7l1.5,1.5C26,26.1,26,26.3,26,26.5c0,1.2,1,2.2,2.2,2.2s2.2-1,2.2-2.2
	C30.5,25.4,29.5,24.4,28.3,24.4z M24.7,17.4c0,5.3-4.3,9.5-9.5,9.5s-9.5-4.3-9.5-9.5c0-5.3,4.3-9.5,9.5-9.5S24.7,12.2,24.7,17.4z
	 M20.2,12.4h-9.9V16H9v2.7h1.3v3.6h9.9v-3.6h1.2V16h-1.2V12.4z M13.6,20.3h-1v-2.8h1V20.3z M13.8,15.7h-1.3v-1.3h1.3V15.7z
	 M15.7,20.3h-1v-2.8h1V20.3z M17.8,20.3h-1v-2.8h1V20.3z M17.9,15.7h-1.3v-1.3h1.3V15.7z"/>
</svg>
