<?xml version="1.0" encoding="utf-8"?>
<!-- Generator: Adobe Illustrator 26.4.1, SVG Export Plug-In . SVG Version: 6.00 Build 0)  -->
<svg version="1.1" id="Layer_1" xmlns="http://www.w3.org/2000/svg" xmlns:xlink="http://www.w3.org/1999/xlink" x="0px" y="0px"
	 viewBox="0 0 23.8 26.7" style="enable-background:new 0 0 23.8 26.7;" xml:space="preserve">
<style type="text/css">
	.st0{fill:#FFFFFF;}
</style>
<path class="st0" d="M23.8,0v23.9h-8.7v-2.2h6.5V2.2H2.2v19.5h6.5v2.2H0V0H23.8z M18.5,17.7h-2.3v9H7.6v-9H5.3v-2.2h13.3L18.5,17.7
	L18.5,17.7z M15,17.7H8.8v7.8H15V17.7z M17.2,14.1H6.6V3.5h10.5v10.6H17.2z M15,5.7H8.8v6.2H15V5.7z M9.2,25.1h1.2v-1.2H9.2V25.1z
	 M14.6,20.7c0,1.5-1.2,2.7-2.7,2.7s-2.7-1.2-2.7-2.7s1.2-2.7,2.7-2.7C13.4,18,14.6,19.2,14.6,20.7z M11.9,19.4
	c-0.7,0-1.3,0.6-1.3,1.3c0,0.7,0.6,1.3,1.3,1.3s1.3-0.6,1.3-1.3C13.2,20,12.6,19.4,11.9,19.4z M13.4,25.1h1.2v-1.2h-1.2V25.1z
	 M18.5,12h1.6v-1.6h-1.6V12z M18.5,5.2v1.6h1.6V5.2H18.5z M18.5,9.4h1.6V7.8h-1.6V9.4z M3.5,12h1.6v-1.6H3.5V12z M3.5,6.9h1.6V5.3
	H3.5V6.9z M3.5,9.4h1.6V7.8H3.5V9.4z"/>
</svg>
