<?xml version="1.0" encoding="utf-8"?>
<!-- Generator: Adobe Illustrator 26.4.1, SVG Export Plug-In . SVG Version: 6.00 Build 0)  -->
<svg version="1.1" id="Layer_1" xmlns="http://www.w3.org/2000/svg" xmlns:xlink="http://www.w3.org/1999/xlink" x="0px" y="0px"
	 viewBox="0 0 26.6 26.6" style="enable-background:new 0 0 26.6 26.6;" xml:space="preserve">
<style type="text/css">
	.st0{fill:#FFFFFF;}
</style>
<path class="st0" d="M13.3,0C5.9,0,0,6,0,13.3c0,7.4,6,13.3,13.3,13.3c7.4,0,13.3-6,13.3-13.3C26.6,5.9,20.7,0,13.3,0z M13.3,24.4
	c-6.1,0-11.1-5-11.1-11.1s5-11.1,11.1-11.1s11.1,5,11.1,11.1S19.4,24.4,13.3,24.4z M20.3,13.1V8.5H19v3.4h-2.3l1.1-0.3L17,9.4
	L12.9,10l-1.8-2c0.8-0.3,1.4-1,1.4-1.9c0-1.1-0.9-2-2-2s-2,0.9-2,2c0,0.7,0.3,1.3,0.8,1.6C8.5,8.1,7.9,8.9,7.9,9.8v6.9H13l1.7,5.7
	l3-0.9l-2.3-7.8v-0.1h-3v-0.5l3.4-1v1H20.3z M10.5,6.8c-0.4,0-0.7-0.3-0.7-0.7s0.3-0.7,0.7-0.7c0.4,0,0.7,0.3,0.7,0.7
	S10.9,6.8,10.5,6.8z M15.6,20.8L14,15.6v-0.1H9.2V9.9c0-0.5,0.4-1,0.9-1l0.7,0.8l0,0l1.6,1.7l3.3-0.5l-3.6,1L10.2,10l-0.9,0.9
	l1.6,1.6v2.4h3.3l1.7,5.8L15.6,20.8z M7.4,17.2h5.1v1.3H9.9v4.1H8.6v-4.1H6.1v-7.4h1.3V17.2z"/>
</svg>
