<?xml version="1.0" encoding="utf-8"?>
<!-- Generator: Adobe Illustrator 26.4.1, SVG Export Plug-In . SVG Version: 6.00 Build 0)  -->
<svg version="1.1" id="Layer_1" xmlns="http://www.w3.org/2000/svg" xmlns:xlink="http://www.w3.org/1999/xlink" x="0px" y="0px"
	 viewBox="0 0 22.3 26.3" style="enable-background:new 0 0 22.3 26.3;" xml:space="preserve">
<style type="text/css">
	.st0{fill:#FFFFFF;}
</style>
<g id="Layer_1_00000154389896818827182580000015018259783957708473_">
	<path class="st0" d="M17.3,18.3c-0.8-0.7-1.7-1.3-2.7-1.7c2.9-1.9,3.7-5.7,1.8-8.6s-5.7-3.7-8.6-1.8C4.9,8.1,4.1,12,6,14.8
		c0.5,0.7,1.1,1.3,1.8,1.8c-1,0.4-1.9,1-2.7,1.7c-1.7,1.5-2.7,3.7-2.7,5.9v2.1h17.6v-2.1C19.9,21.9,19,19.8,17.3,18.3z M7,11.4
		c0-2.3,1.9-4.1,4.2-4.1s4.1,1.9,4.1,4.2c0,2.3-1.9,4.1-4.1,4.1C8.9,15.6,7,13.7,7,11.4z M15.9,19.8c1.3,1.1,2,2.7,2,4.4l-13.4,0v0
		c0-1.7,0.7-3.3,2-4.4C9.1,17.4,13.2,17.4,15.9,19.8z M14.4,12.2v0.1c-0.3,1.5-1.6,2.6-3.2,2.6c-1.6,0-2.9-1.1-3.2-2.7v-0.1l1.5-0.2
		V12c0.2,1,1.1,1.6,2.1,1.4c0.7-0.1,1.2-0.7,1.4-1.3v-0.1L14.4,12.2z M7.4,0.5l1.8,4.2L7.7,5.4L5.9,1.2L7.4,0.5z M0.6,6.3L4.9,8
		L4.3,9.6L0,7.8L0.6,6.3z M3.5,2.7l3.3,3.2L5.6,7.2L2.3,4L3.5,2.7z M10.3,0H12v4.5h-1.7V0z M22.3,7.8L18,9.6L17.4,8l4.3-1.7
		L22.3,7.8z M16.4,1.2l-1.8,4.2l-1.6-0.7l1.8-4.2L16.4,1.2z M20,4l-3.3,3.2l-1.2-1.2l3.3-3.2L20,4z"/>
</g>
</svg>
