<?xml version="1.0" encoding="utf-8"?>
<!-- Generator: Adobe Illustrator 26.4.1, SVG Export Plug-In . SVG Version: 6.00 Build 0)  -->
<svg version="1.1" id="Layer_1" xmlns="http://www.w3.org/2000/svg" xmlns:xlink="http://www.w3.org/1999/xlink" x="0px" y="0px"
	 viewBox="0 0 26.7 26.8" style="enable-background:new 0 0 26.7 26.8;" xml:space="preserve">
<style type="text/css">
	.st0{fill:#FFFFFF;}
</style>
<g id="Layer_1_00000164476360609930839140000004892303067359918500_">
	<path class="st0" d="M20.1,7.1c-0.6-1.9-2.5-2.7-3.4-3.1c-0.4-0.2-0.7-0.3-1-0.6c-0.8-0.6-1.7-0.9-2.7-1c-1,0.1-1.9,0.4-2.7,1
		c-0.3,0.2-0.7,0.4-1,0.6C8.5,4.5,6.7,5.2,6.1,7.1c-0.5,1.6-1,4,0.2,6.2c0.3,5.5,3.3,9.6,6.9,9.6s6.7-4.4,6.9-10
		C20.8,11.1,20.8,9,20.1,7.1z M18,12.4c0,4.6-2.2,8.4-4.8,8.4s-4.8-3.9-4.8-8.4c0-1.1,0.1-2.2,0.4-3.2c0.5,0.6,1.2,1.1,2,1.1
		c1.1,0,2.1-0.3,3.1-0.6c0.6-0.2,1.2-0.4,2-0.6l0.4-0.1c0.4-0.1,0.7-0.1,1.1-0.2C17.8,9.9,17.9,11.1,18,12.4L18,12.4z M26.7,0v7.1
		h-2.2V2.2h-4.9V0H26.7z M2.2,7.1H0V0h7.1v2.2H2.2V7.1z M2.2,24.5H7v2.2H0v-7.1h2.2V24.5z M24.5,19.6h2.2v7.1h-7v-2.2h4.9L24.5,19.6
		z"/>
</g>
</svg>
