<?xml version="1.0" encoding="utf-8"?>
<!-- Generator: Adobe Illustrator 26.4.1, SVG Export Plug-In . SVG Version: 6.00 Build 0)  -->
<svg version="1.1" id="Layer_1" xmlns="http://www.w3.org/2000/svg" xmlns:xlink="http://www.w3.org/1999/xlink" x="0px" y="0px"
	 viewBox="0 0 12.7 24.9" style="enable-background:new 0 0 12.7 24.9;" xml:space="preserve">
<style type="text/css">
	.st0{fill:#FFFFFF;}
</style>
<path class="st0" d="M7.5,6.6c0-0.5-0.2-1-0.4-1.5C6.6,4.2,5.8,3.6,4.6,3.3C3.8,3.1,3.3,2.8,3.1,2.4s-0.2-1,0-1.7l0.1-0.2L1.5,0
	L1.4,0.2C1,1.5,1.1,2.5,1.5,3.3C2.1,4.4,3.3,4.8,4.1,5c0.7,0.2,1.2,0.5,1.4,0.9c0.1,0.2,0.1,0.3,0.2,0.5C4.3,6.5,3,7.1,2,8.1
	c-1.2,1.2-1.9,2.7-1.9,4.4L0,18.6c0,3.4,2.8,6.2,6.2,6.3h0.1c1.7,0,3.2-0.6,4.4-1.8c1.2-1.2,1.9-2.7,1.9-4.4l0.1-6.1
	C12.8,9.7,10.5,7.1,7.5,6.6z M10.4,18.9c0,1-0.4,2-1.2,2.7c-0.8,0.7-1.8,1.1-2.8,1.1c-2.2,0-4-1.8-4-3.9l0.1-6.1
	c0-2.1,1.8-3.8,4-3.8l0,0c2.2,0,4,1.8,4,3.9L10.4,18.9z M5.5,10.3h1.8v3.2H5.5V10.3z"/>
</svg>
