<?xml version="1.0" encoding="utf-8"?>
<!-- Generator: Adobe Illustrator 26.4.1, SVG Export Plug-In . SVG Version: 6.00 Build 0)  -->
<svg version="1.1" id="Layer_1" xmlns="http://www.w3.org/2000/svg" xmlns:xlink="http://www.w3.org/1999/xlink" x="0px" y="0px"
	 viewBox="0 0 27.8 23.6" style="enable-background:new 0 0 27.8 23.6;" xml:space="preserve">
<style type="text/css">
	.st0{fill:#FFFFFF;}
</style>
<g id="Layer_1_00000137821429375175572470000008576233464438201521_">
	<path class="st0" d="M13.9,0L0,10.7l1.4,1.8l1.5-1.1v12.3h21.5v-13l2.1,1.6l1.4-1.8L13.9,0z M5.2,21.3V9.6l8.8-6.7l8.1,6v12.4H5.2z
		 M18.3,14.9L14,19.5l-4.4-4.6c-1.1-1.1-1.1-2.9,0-4c0.5-0.5,1.2-0.8,1.9-0.8l0,0c0.7,0,1.4,0.3,1.9,0.8l0.5,0.5l0.5-0.5
		c0.5-0.5,1.2-0.8,1.9-0.8l0,0c0.7,0,1.4,0.3,1.9,0.8C19.4,12,19.4,13.8,18.3,14.9z"/>
</g>
</svg>
