<?xml version="1.0" encoding="utf-8"?>
<!-- Generator: Adobe Illustrator 26.4.1, SVG Export Plug-In . SVG Version: 6.00 Build 0)  -->
<svg version="1.1" id="Layer_1" xmlns="http://www.w3.org/2000/svg" xmlns:xlink="http://www.w3.org/1999/xlink" x="0px" y="0px"
	 viewBox="0 0 26.7 20.2" style="enable-background:new 0 0 26.7 20.2;" xml:space="preserve">
<style type="text/css">
	.st0{fill:#FFFFFF;}
</style>
<g id="Layer_1_00000088844191398115565900000012162625014558763913_">
	<path class="st0" d="M13.2,13.1h-4v-1H2.3v-1.1h16.3l-1,1.2h-4.3V13.1z M21.6,13.7l-2.8,2.1l0.6,0.8l2.7-2L22,15.4l1,0.1l0.3-2.4
		L21,12.6l-0.2,1L21.6,13.7z M26.7,14.6c0,3.1-2.6,5.6-5.7,5.6c-2.2,0-4.1-1.2-5.1-3.1H0V2.3h6.1V0h9.8v2.3h6v6.8
		C24.6,9.5,26.7,11.8,26.7,14.6z M7.6,2.3h6.9V1.4H7.6V2.3z M15.3,14.8c0,0,0-0.1,0-0.1c0-2.6,1.8-4.8,4.3-5.4V4.6H2.3v10.2
		L15.3,14.8z M24.5,14.6c0.1-1.9-1.4-3.5-3.3-3.6c-1.9-0.1-3.5,1.4-3.6,3.3c-0.1,1.9,1.4,3.5,3.3,3.6c0.1,0,0.1,0,0.2,0
		C22.9,17.9,24.4,16.5,24.5,14.6z"/>
</g>
</svg>
