<?xml version="1.0" encoding="utf-8"?>
<!-- Generator: Adobe Illustrator 26.4.1, SVG Export Plug-In . SVG Version: 6.00 Build 0)  -->
<svg version="1.1" id="Layer_1" xmlns="http://www.w3.org/2000/svg" xmlns:xlink="http://www.w3.org/1999/xlink" x="0px" y="0px"
	 viewBox="0 0 26.6 23" style="enable-background:new 0 0 26.6 23;" xml:space="preserve">
<style type="text/css">
	.st0{fill:#FFFFFF;}
</style>
<g id="Layer_1_00000047030474550615088910000018039065734797128639_">
	<path class="st0" d="M26.6,19.1V0H0v19.1h8.5v1.4H6.2V23h14.2v-2.5h-2.3v-1.4H26.6z M24.2,2.4v14.4H2.3V2.4H24.2z M22.8,9H3.8V7.8
		h19.1V9z M22.8,10H3.8v1.2h19.1V10L22.8,10z M19.3,13.4H3.8v-1.1h15.6V13.4L19.3,13.4z M19.3,14.4H3.8v1.2h15.6V14.4L19.3,14.4z
		 M22.8,4.6H3.8V3.4h19.1V4.6L22.8,4.6z M22.8,5.6H3.8v1.2h19.1V5.6L22.8,5.6z"/>
</g>
</svg>
