<?xml version="1.0" encoding="utf-8"?>
<!-- Generator: Adobe Illustrator 26.4.1, SVG Export Plug-In . SVG Version: 6.00 Build 0)  -->
<svg version="1.1" id="Layer_1" xmlns="http://www.w3.org/2000/svg" xmlns:xlink="http://www.w3.org/1999/xlink" x="0px" y="0px"
	 viewBox="0 0 30 24.4" style="enable-background:new 0 0 30 24.4;" xml:space="preserve">
<style type="text/css">
	.st0{fill:#FFFFFF;}
</style>
<g id="Layer_1_00000052077550053156709180000003345925049772139709_">
	<path class="st0" d="M28.9,0.2L28.9,0.2C23.5-0.2,18.7,0.5,15,2.3C10.6,0.4,5.9-0.4,1.2,0.2L0,0.3v22l1.2-0.1
		c4.5-0.1,8.9,0.7,13.1,2.1l0.4,0.1h0.5l0.4-0.1c4.2-1.5,8.6-2.2,13.1-2.1l1.3,0.1v-22L28.9,0.2z M27.5,2.5v17.3
		c-3.8,0.1-7.7,0.7-11.3,1.8V4.4C19.8,2.9,23.7,2.2,27.5,2.5z M13.8,4.4v17.1c-3.7-1.1-7.5-1.7-11.4-1.8V2.5
		C6.3,2.2,10.2,2.9,13.8,4.4z"/>
</g>
</svg>
