<?xml version="1.0" encoding="utf-8"?>
<!-- Generator: Adobe Illustrator 26.4.1, SVG Export Plug-In . SVG Version: 6.00 Build 0)  -->
<svg version="1.1" id="Layer_1" xmlns="http://www.w3.org/2000/svg" xmlns:xlink="http://www.w3.org/1999/xlink" x="0px" y="0px"
	 viewBox="0 0 29 20.5" style="enable-background:new 0 0 29 20.5;" xml:space="preserve">
<style type="text/css">
	.st0{fill-rule:evenodd;clip-rule:evenodd;fill:#FFFFFF;}
</style>
<g id="Layer_1_00000054243578421465559070000015444902419144644513_">
	<path class="st0" d="M4.1,12.9L3,7.5l7.6-1.4l1.2,5.3L4.1,12.9z M4.1,8.3l0.8,3.5l5.8-1.1L9.8,7.1L4.2,8.2L4.1,8.3z M9,8.4L8.9,7.8
		l-4,0.8L5,9.1L9,8.4z M9.2,9.3L9.1,8.8l-4,0.8l0.1,0.5L9.2,9.3z M16.3,0H0v20.5h29V0H16.3z M16.3,11.2V2.4h10.2v15.8H2.4V2.4h10.2
		v8.8H16.3z"/>
</g>
</svg>
