<?xml version="1.0" encoding="utf-8"?>
<!-- Generator: Adobe Illustrator 26.4.1, SVG Export Plug-In . SVG Version: 6.00 Build 0)  -->
<svg version="1.1" id="Layer_1" xmlns="http://www.w3.org/2000/svg" xmlns:xlink="http://www.w3.org/1999/xlink" x="0px" y="0px"
	 viewBox="0 0 24.9 26" style="enable-background:new 0 0 24.9 26;" xml:space="preserve">
<style type="text/css">
	.st0{fill:#FFFFFF;}
</style>
<g id="Layer_1_00000160869721529362770060000013807963810880066717_">
	<path class="st0" d="M20.8,0H8v4.3H0V26h16.9v-4.2h8.1V4.1L20.8,0z M14.8,23.9H2.1V6.4H8V10H4.3v1.7H8v3.5H6.6L7.7,14l-1.2-1.2
		l-3.1,3.1l3.1,3.2L7.6,18l-1.1-1.1H8v4.9h6.8V23.9z M22.8,19.5H10.2v-2.7h3.7v-1.7h-3.7v-3.5h1.4l-1.1,1.1l1.2,1.2l3.1-3.1
		l-3.1-3.2l-1.2,1.2l1.1,1.1h-1.4V2.2h9.1v3.4h3.4V19.5z"/>
</g>
</svg>
