<?xml version="1.0" encoding="utf-8"?>
<!-- Generator: Adobe Illustrator 26.4.1, SVG Export Plug-In . SVG Version: 6.00 Build 0)  -->
<svg version="1.1" id="Layer_1" xmlns="http://www.w3.org/2000/svg" xmlns:xlink="http://www.w3.org/1999/xlink" x="0px" y="0px"
	 viewBox="0 0 22.2 29.5" style="enable-background:new 0 0 22.2 29.5;" xml:space="preserve">
<style type="text/css">
	.st0{fill:#FFFFFF;}
</style>
<g id="Layer_1_00000080920979338824248290000005577092127091372432_">
	<path class="st0" d="M16.5,27.1V15.7h3V0H2.7v15.7h3v11.5H0v2.3h22.2v-2.3H16.5z M14.1,15.7V27H8.1V15.7H14.1z M17.1,2.3v11.1H5
		V2.3L17.1,2.3z M15.6,3.6h-9v7.1h9V3.6z M8.4,8.8V5.5h5.3v3.4L8.4,8.8z M7.8,11.3h1.4v1.4H7.8L7.8,11.3z M14.3,11.3v1.4H13v-1.4
		L14.3,11.3z M10.3,11.3h1.4v1.4h-1.4L10.3,11.3z"/>
</g>
</svg>
