<?xml version="1.0" encoding="utf-8"?>
<!-- Generator: Adobe Illustrator 26.4.1, SVG Export Plug-In . SVG Version: 6.00 Build 0)  -->
<svg version="1.1" id="Layer_1" xmlns="http://www.w3.org/2000/svg" xmlns:xlink="http://www.w3.org/1999/xlink" x="0px" y="0px"
	 viewBox="0 0 18.7 24.9" style="enable-background:new 0 0 18.7 24.9;" xml:space="preserve">
<style type="text/css">
	.st0{fill:#FFFFFF;}
</style>
<g id="Layer_1_00000135663597018840135470000004379858149677386929_">
	<path class="st0" d="M6.3,23.5c0,0.8-0.6,1.4-1.4,1.4s-1.4-0.6-1.4-1.4c0-0.8,0.6-1.4,1.4-1.4l0,0C5.7,22.1,6.3,22.7,6.3,23.5z
		 M9.3,22.1c-0.8,0-1.4,0.6-1.4,1.4s0.6,1.4,1.4,1.4s1.4-0.6,1.4-1.4l0,0C10.7,22.7,10.1,22.1,9.3,22.1C9.3,22.1,9.3,22.1,9.3,22.1
		L9.3,22.1z M13.7,22.1c-0.8,0-1.4,0.6-1.4,1.4s0.6,1.4,1.4,1.4s1.4-0.6,1.4-1.4l0,0C15.1,22.7,14.4,22.1,13.7,22.1
		C13.7,22.1,13.7,22.1,13.7,22.1L13.7,22.1z M18.7,8.2v1.9h-1.9v6h-6.4v2.3h4.8v1.9H3.6v-1.9h4.9v-2.3H2v-6H0v-2h3V6
		c0.2-3.5,3.2-6.2,6.7-6c3.2,0.2,5.8,2.8,6,6v2.3H18.7z M13.7,11.1V6c0.1-2.4-1.8-4.5-4.2-4.6C7,1.2,5,3.1,4.9,5.6
		c0,0.1,0,0.3,0,0.4v5.1L13.7,11.1z M14.8,14.3V13H3.9v1.3H14.8z"/>
</g>
</svg>
