<?xml version="1.0" encoding="utf-8"?>
<!-- Generator: Adobe Illustrator 26.4.1, SVG Export Plug-In . SVG Version: 6.00 Build 0)  -->
<svg version="1.1" id="Layer_1" xmlns="http://www.w3.org/2000/svg" xmlns:xlink="http://www.w3.org/1999/xlink" x="0px" y="0px"
	 viewBox="0 0 17.6 24" style="enable-background:new 0 0 17.6 24;" xml:space="preserve">
<style type="text/css">
	.st0{fill:#FFFFFF;}
</style>
<g id="Layer_1_00000093170871463811237840000018236815211952263848_">
	<path class="st0" d="M17.5,10.5c0.3-1.7,0.1-3.5-0.4-5.1c-0.7-2.2-2.9-3.1-3.9-3.6c-0.5-0.2-0.9-0.4-1.3-0.7C11,0.5,10,0.1,8.9,0
		C7.7,0.1,6.7,0.5,5.8,1.2C5.4,1.5,5,1.7,4.6,1.9c-1.8,0.5-3.3,1.8-4,3.5C0,7.5-0.5,10.2,0.9,12.7C1.2,19.2,4.6,24,8.8,24
		c3.4,0,6.4-3.5,7.5-8.3c0.8-1.2,1.2-2.7,1.2-4.1V10.5z M3.4,7.3L3.4,7.3L3.4,7.3c0.2,0.2,0.3,0.3,0.4,0.4c0.5,0.8,1.4,1.2,2.3,1.3
		c1.3,0,2.6-0.3,3.9-0.8c0.6-0.2,1.3-0.4,2.1-0.6l0.5-0.1c0.5-0.2,1.1-0.3,1.6-0.2c0.5,1.5,0.7,3.1,0.7,4.6c0,1.1-0.1,2.1-0.3,3.2
		c-0.9,1.3-2.2,2.1-3.7,2.5c-0.4-0.4-0.9-0.6-1.4-0.6c-1,0-1.8,0.8-1.8,1.8c0,1,0.8,1.8,1.8,1.8c0.7,0,1.3-0.4,1.6-1
		c0.8-0.2,1.5-0.4,2.2-0.8c-1.1,2.1-2.7,3.4-4.4,3.4c-3.3,0-6-4.7-6-10.2C2.8,10.2,3,8.7,3.4,7.3z"/>
</g>
</svg>
