<?xml version="1.0" encoding="utf-8"?>
<!-- Generator: Adobe Illustrator 26.4.1, SVG Export Plug-In . SVG Version: 6.00 Build 0)  -->
<svg version="1.1" id="Layer_1" xmlns="http://www.w3.org/2000/svg" xmlns:xlink="http://www.w3.org/1999/xlink" x="0px" y="0px"
	 viewBox="0 0 33.7 19.4" style="enable-background:new 0 0 33.7 19.4;" xml:space="preserve">
<style type="text/css">
	.st0{fill:#FFFFFF;}
</style>
<path class="st0" d="M10.1,4.9C9.5,5.2,9,5.6,8.5,6l1.3,1.2L8.4,9L6.9,7.9C6.8,8,6.7,8.2,6.6,8.3L6.4,8.6H3.6l0.6-0.9
	c0.3-0.5,0.6-0.9,0.9-1.4H0.8V3.8h11.8L10.1,4.9z M0.5,8.8v2.5h2.1c-0.2,0.8-0.4,1.6-0.5,2.4L2,14.4h2.5l0.1-0.6
	c0.1-1.3,0.6-2.8,1.3-4.1l0.5-0.9H0.5z M28.1,9.7l1,2.5l-5.4,2.1c0,0-0.1,0-0.1,0.1h7.7c-0.2-2.4-1.2-4.7-2.7-6.6l-1.7,1.3l-1.5-1.8
	L27,6c-2.2-2.1-5-3.3-7.8-3.6v2.2h-2.6V2.5c-1.4,0.2-2.7,0.5-4,1.1h-0.2H7.5l1.5-1C11.7,0.9,14.7,0,17.8,0c8.8,0,15.9,7,15.9,15.7
	v1.2H21.5c-0.5,1.5-1.9,2.5-3.6,2.5s-3.1-1-3.6-2.5H0v-2.4h14.3c0.2-0.6,0.5-1.1,0.9-1.5c0.8-0.7,1.7-1.1,2.7-1.1
	c0.9,0,1.6,0.2,2.2,0.7c0.1,0.1,0.2,0.1,0.2,0.2l0,0l0,0c0,0,0.1,0.1,0.2,0.2l0,0h0.1L28.1,9.7z M21.1,14.9L21.1,14.9L21.1,14.9
	L21.1,14.9z"/>
</svg>
