<?xml version="1.0" encoding="utf-8"?>
<!-- Generator: Adobe Illustrator 26.4.1, SVG Export Plug-In . SVG Version: 6.00 Build 0)  -->
<svg version="1.1" id="Layer_1" xmlns="http://www.w3.org/2000/svg" xmlns:xlink="http://www.w3.org/1999/xlink" x="0px" y="0px"
	 viewBox="0 0 28.3 18.4" style="enable-background:new 0 0 28.3 18.4;" xml:space="preserve">
<style type="text/css">
	.st0{fill:#FFFFFF;}
</style>
<path class="st0" d="M4.5,12.6c-0.4-1-0.4-1-0.4-1c-1.5,0-1.5,0-1.5,0c-0.4,1-0.4,1-0.4,1c-2.2,0-2.2,0-2.2,0c0,4.3,0,4.3,0,4.3
	c6.8,0,6.8,0,6.8,0c0-4.3,0-4.3,0-4.3H4.5L4.5,12.6L4.5,12.6z M3.3,15.8c-0.6,0-1-0.4-1-1.1c0-0.6,0.4-1,1-1c0.7,0,1.1,0.4,1.1,1
	C4.4,15.4,3.9,15.8,3.3,15.8 M21.1,17c-1.4,0-1.4,0-1.4,0c0,1.4,0,1.4,0,1.4C18.5,17,18.5,17,18.5,17c-3.7,0-3.7,0-3.7,0
	c0-4.4,0-4.4,0-4.4c6.4,0,6.4,0,6.4,0L21.1,17L21.1,17L21.1,17z M11,12.3c-0.3,0-0.6,0.1-0.7,0.1C10,12,10,12,10,12c-1,0-1,0-1,0
	c0,0.8,0,0.8,0,0.8c-0.4,0.3-0.7,0.6-0.8,1c-0.7,0-0.7,0-0.7,0c0,1.5,0,1.5,0,1.5c0.7,0,0.7,0,0.7,0c0.1,0.4,0.4,0.7,0.8,1
	c0,1.1,0,1.1,0,1.1c1,0,1,0,1,0c0.3-0.7,0.3-0.7,0.3-0.7c0.1,0.1,0.4,0.1,0.7,0.1c0.1,0,0.4,0,0.7-0.1c0.3,0.7,0.3,0.7,0.3,0.7
	c1,0,1,0,1,0c0-1.1,0-1.1,0-1.1c0.6-0.4,1-1.1,1-1.7C13.9,13.4,12.5,12.3,11,12.3 M9.7,14.4c-0.3,0.1-0.4,0.1-0.7,0
	c-0.1-0.1-0.1-0.4,0-0.6c0.3-0.1,0.4-0.1,0.7,0C9.9,14,9.9,14.3,9.7,14.4 M28.3,11.2c0,2.7-2.1,4.8-4.7,4.8h-1.3v-2.1h1.2
	c1.5,0,2.6-1.2,2.6-2.7c0-1.4-1.2-2.6-2.6-2.6H23l-1.2,0.3V7.6c-0.1-1.1-1.1-2-2.4-2c-0.4,0-0.7,0-0.9,0.2l-1.1,0.6l-0.5-1.2
	c-0.6-1.7-2.2-2.9-4-2.9c-2.2,0-3.9,1.4-4.4,3.6v0.9H7.6C6,7,4.7,8.4,4.4,10l-0.1,0.4h-2V9.9c0.1-2.5,1.9-4.6,4.3-5.2
	C7.5,1.9,9.9,0,12.8,0c2.3,0,4.5,1.4,5.6,3.5c0.1,0,0.2,0,0.2,0c2.1-0.4,4.2,0.9,5,3C26.3,6.5,28.3,8.6,28.3,11.2z"/>
</svg>
