<?xml version="1.0" encoding="utf-8"?>
<!-- Generator: Adobe Illustrator 26.4.1, SVG Export Plug-In . SVG Version: 6.00 Build 0)  -->
<svg version="1.1" id="Layer_1" xmlns="http://www.w3.org/2000/svg" xmlns:xlink="http://www.w3.org/1999/xlink" x="0px" y="0px"
	 viewBox="0 0 26.8 26.8" style="enable-background:new 0 0 26.8 26.8;" xml:space="preserve">
<style type="text/css">
	.st0{fill:#FFFFFF;}
</style>
<path class="st0" d="M13.4,0C6,0,0,6,0,13.4s6,13.4,13.4,13.4s13.4-6,13.4-13.4S20.8,0,13.4,0z M13.4,24.5c-6.1,0-11.1-5-11.1-11.1
	s5-11.1,11.1-11.1s11.1,5,11.1,11.1S19.5,24.5,13.4,24.5z M20.5,11.1c-0.6,0.2-1.1,0.5-1.4,1.1H17c-0.5-1.7-2.1-2.9-3.9-2.8
	c-0.3,0-0.5,0.1-0.8,0.1l-1-1.7c0.2-0.4,0.3-0.8,0.3-1.3c0-0.6-0.3-1.2-0.7-1.6c-0.5-0.4-1-0.6-1.6-0.6C8,4.4,7.1,5.5,7.2,6.7
	c0,0.6,0.3,1.2,0.8,1.6c0.4,0.4,1,0.6,1.6,0.6c0.6,1,0.9,1.6,1.1,1.8c-0.7,0.8-1,1.8-0.9,2.8c0.1,0.9,0.4,1.7,1.1,2.4l-1.1,2
	c-0.9,0-1.6,0.4-2,1.2c-0.6,1.1-0.1,2.5,0.9,3.1c0.3,0.2,0.7,0.3,1.1,0.3c0.2,0,0.4,0,0.6-0.1c0.6-0.2,1.1-0.6,1.4-1.1
	c0.4-0.7,0.3-1.6-0.1-2.3l1.1-2c0.3,0.1,0.7,0.1,1.1,0.1c1.6-0.1,2.9-1.2,3.4-2.7h2.1c0.5,0.9,1.6,1.3,2.6,1.1
	c1.2-0.4,1.9-1.6,1.5-2.8c-0.2-0.6-0.5-1.1-1.1-1.3C21.6,11,21,11,20.5,11.1z M13.4,11.7c0.8,0,1.6,0.7,1.6,1.5
	c0,0.4-0.1,0.8-0.4,1.2c-0.3,0.3-0.7,0.5-1.1,0.6c-0.9,0.1-1.7-0.6-1.7-1.5c-0.1-0.9,0.6-1.7,1.5-1.7C13.3,11.7,13.3,11.7,13.4,11.7
	z"/>
</svg>
