<?xml version="1.0" encoding="utf-8"?>
<!-- Generator: Adobe Illustrator 26.4.1, SVG Export Plug-In . SVG Version: 6.00 Build 0)  -->
<svg version="1.1" id="Layer_1" xmlns="http://www.w3.org/2000/svg" xmlns:xlink="http://www.w3.org/1999/xlink" x="0px" y="0px"
	 viewBox="0 0 29.3 29.7" style="enable-background:new 0 0 29.3 29.7;" xml:space="preserve">
<style type="text/css">
	.st0{fill:#FFFFFF;}
</style>
<path class="st0" d="M24.6,23.7L24.6,23.7L24.6,23.7L24,22.1l0.2-0.1c0.4-0.1,0.7-0.4,0.9-0.8c0.2-0.4,0.2-0.8,0.1-1.2l-0.1-0.2
	l1.6-0.6l0,0l0,0l0.1,0.2c0.3,0.8,0.3,1.7-0.1,2.5s-1,1.4-1.8,1.7L24.6,23.7z M29,18.7l-0.1-0.2l0,0l0,0l-1.6,0.6l0.1,0.2
	c0.4,1,0.3,2.1-0.1,3c-0.4,1-1.2,1.7-2.2,2l-0.2,0.1l0.6,1.6l0,0l0,0l0.2-0.1C28.5,24.8,30,21.6,29,18.7z M8.8,19.6l-2.7,3.8L4.7,22
	l-1.2,1.2l2.8,2.7l3.8-5.4L8.8,19.6z M26.2,17.9c-0.1,0.3-0.4,0.5-0.7,0.5l-1.6,0.2l-0.8,4.1l-3.7,0.6L19.2,28h-7.8
	c-1.2,1-2.8,1.7-4.5,1.7c-3.8,0-6.9-3.1-6.9-6.9c0-3.2,2.2-5.9,5.1-6.6C5,16,5,15.8,4.9,15.6c-0.4-1.6-0.4-3-0.3-4
	c-1.1-0.3-3.2-1.2-3-4.5C1.8,2.6,4.8,0.3,7.5,0c2.1-0.2,3.6,1.2,4.3,2c2.4-0.7,7.6-1.5,12,4L24,6.2l-0.1,0.3c0,0.1-0.3,0.8-0.9,1.8
	c1,1.6,1.7,3,1.8,3.1l0.2,0.5l-1.2,1.6l2.4,3.5C26.3,17.3,26.3,17.6,26.2,17.9z M7,27.5c2.6,0,4.7-2.1,4.7-4.7
	c0-1.3-0.5-2.5-1.4-3.3l0,0c-0.2-0.2-0.4-0.3-0.6-0.5c-0.1,0-0.1-0.1-0.2-0.1c-0.2-0.1-0.4-0.2-0.6-0.3c-0.1,0-0.2-0.1-0.3-0.1
	c-0.2-0.1-0.4-0.1-0.6-0.2c-0.1,0-0.2,0-0.3-0.1c-0.2,0-0.4-0.1-0.7-0.1c-0.1,0-0.1,0-0.2,0c-2.6,0-4.6,2.1-4.6,4.7
	C2.3,25.4,4.4,27.5,7,27.5z M23.9,16.9l-2.3-3.4l1.3-1.7c-0.2-0.4-0.6-1.1-1.1-1.9c-1.3,1.6-3.4,3.5-6.6,5l-0.6,0.3v-0.7
	c0,0-0.1-1.3-1.8-1.7c-0.5-0.1-1,0-1.4,0.5c-0.8,0.8-1.1,2.3-0.9,3.1c0.1,0.3,0.1,0.5,0.2,0.6c0.3,0.2,0.5,0.3,0.7,0.5h0.8L11.9,18
	c1.2,1.2,2,3,2,4.8c0,1.3-0.4,2.5-1,3.5h4.8l0.2-4.4l3.9-0.7l0.8-4.1L23.9,16.9z"/>
</svg>
