<?xml version="1.0" encoding="utf-8"?>
<!-- Generator: Adobe Illustrator 26.4.1, SVG Export Plug-In . SVG Version: 6.00 Build 0)  -->
<svg version="1.1" id="Layer_1" xmlns="http://www.w3.org/2000/svg" xmlns:xlink="http://www.w3.org/1999/xlink" x="0px" y="0px"
	 viewBox="0 0 20.2 25.4" style="enable-background:new 0 0 20.2 25.4;" xml:space="preserve">
<style type="text/css">
	.st0{fill:#FFFFFF;}
</style>
<g id="Layer_1_00000088096103987016924790000014153714365096134548_">
	<path class="st0" d="M15.4,0H0v25.4h20.2V4.7L15.4,0z M18,5.6v17.6H2.2V2h12.2v3.6H18z M13.5,10.3c0,0.8-0.3,1.7-0.9,2.3l-0.1,0.1
		l-1.5,1.4v2.1h-2v-2.9l2.1-2c0.3-0.3,0.5-0.7,0.5-1.1c0-0.9-0.8-1.6-1.6-1.6c0,0,0,0,0,0c-0.9-0.1-1.7,0.6-1.7,1.5v0.5H6.4v-0.5
		c0-1.9,1.6-3.5,3.5-3.5c0.1,0,0.1,0,0.2,0C11.9,6.8,13.5,8.3,13.5,10.3C13.5,10.3,13.6,10.3,13.5,10.3z M9.1,17h2v2h-2V17z"/>
</g>
</svg>
