<?xml version="1.0" encoding="utf-8"?>
<!-- Generator: Adobe Illustrator 26.4.1, SVG Export Plug-In . SVG Version: 6.00 Build 0)  -->
<svg version="1.1" id="Layer_1" xmlns="http://www.w3.org/2000/svg" xmlns:xlink="http://www.w3.org/1999/xlink" x="0px" y="0px"
	 viewBox="0 0 26.7 26.7" style="enable-background:new 0 0 26.7 26.7;" xml:space="preserve">
<style type="text/css">
	.st0{fill:#FFFFFF;}
</style>
<g id="Layer_1_00000049200608744536480420000010814170447452710296_">
	<path class="st0" d="M13.3,0C6,0,0,6,0,13.3s6,13.3,13.3,13.3c7.4,0,13.3-5.9,13.3-13.3C26.7,6,20.7,0,13.3,0C13.4,0,13.3,0,13.3,0
		z M24.5,13.4c0,6.1-5,11.1-11.1,11.1c-2.7,0-5.3-1-7.4-2.8c5.7-5.8,11-11.1,14-14.1l1.6-1.7C23.5,8,24.5,10.6,24.5,13.4z M19.8,4.4
		C14.2,10,9.2,15.1,6.3,18.1L4.4,20C0.7,15,1.8,8.1,6.7,4.4C8.7,3,11,2.2,13.4,2.2C15.7,2.2,17.9,3,19.8,4.4L19.8,4.4z M10.2,13.6
		l-1.4,1.3H6.6v-1.6h2V13l-1.1-0.5l-1.1-2.1l1.4-0.6l0.8,1.6c0.1-1.5,1-2.8,2.4-3.4l-0.5-1.2L12,6.2l0.6,1.4h1.2l0.6-1.4l1.5,0.6
		L15.3,8l0,0l0.3,0.2l-1.1,1.2l-0.1,0c-0.2-0.1-0.5-0.1-0.7-0.1h-0.9c-0.9,0-1.7,0.5-2.2,1.2h2.9l-1.6,1.5h-1.6L10.2,13.6z M17.9,15
		v-0.1h1.8v-1.6h-1.8v-0.4l1-0.4l1-2.1l-1.4-0.6L17.9,11c-0.1-0.9-0.6-1.8-1.3-2.4l-0.2-0.1l-1.1,1.1l0.2,0.2
		c0.2,0.2,0.4,0.4,0.5,0.6h-1.6l-1.9,1.9v5.4c-1.2-0.2-2.1-1.2-2.1-2.4v-1l-1.5,1.5v0.1c0.3,1.9,2,3.3,4,3.3h0.9
		c1.7,0,3.3-1.1,3.9-2.7h0.1l0.8,1.6l1.4-0.7l-1-2.1L17.9,15z M14.1,17.7v-5.8h2.2v3.3C16.4,16.5,15.4,17.6,14.1,17.7L14.1,17.7z"/>
</g>
</svg>
