<?xml version="1.0" encoding="utf-8"?>
<!-- Generator: Adobe Illustrator 26.4.1, SVG Export Plug-In . SVG Version: 6.00 Build 0)  -->
<svg version="1.1" id="Layer_1" xmlns="http://www.w3.org/2000/svg" xmlns:xlink="http://www.w3.org/1999/xlink" x="0px" y="0px"
	 viewBox="0 0 18.5 25.3" style="enable-background:new 0 0 18.5 25.3;" xml:space="preserve">
<style type="text/css">
	.st0{fill:#FFFFFF;}
</style>
<g id="Layer_1_00000005977357598213510640000009510706602279699880_">
	<path class="st0" d="M0,0v25.3h18.5V0H0z M2.2,23.1V2.2h14.1v20.9H2.2z M5.9,12.3H3.6V10h2.2L5.9,12.3z M10.4,12.3H8.1V10h2.2V12.3
		z M14.9,12.3h-2.2V10h2.2V12.3z M5.9,16.8H3.6v-2.2h2.2L5.9,16.8z M10.4,16.8H8.1v-2.2h2.2V16.8z M5.8,21.3H3.6v-2.2h2.2L5.8,21.3z
		 M10.4,21.3H8.1v-2.2h2.2V21.3z M14.9,14.5v6.8h-2.2v-6.8L14.9,14.5z M3.1,3h12.4v5.2H3.1V3z M13.7,4.7h-9v1.8h9V4.7"/>
</g>
</svg>
