<?xml version="1.0" encoding="utf-8"?>
<!-- Generator: Adobe Illustrator 26.4.1, SVG Export Plug-In . SVG Version: 6.00 Build 0)  -->
<svg version="1.1" id="Layer_1" xmlns="http://www.w3.org/2000/svg" xmlns:xlink="http://www.w3.org/1999/xlink" x="0px" y="0px"
	 viewBox="0 0 28 24.8" style="enable-background:new 0 0 28 24.8;" xml:space="preserve">
<style type="text/css">
	.st0{fill:#FFFFFF;}
</style>
<path class="st0" d="M0,9.8v15h10.9v-15H0z M2,12.1h6.9v1.7H2V12.1z M8.9,15.5v1.2H7.8v-1.2H8.9z M3.1,22.6H2v-1.2h1.1
	C3.1,21.4,3.1,22.6,3.1,22.6z M3.1,19.7H2v-1.2h1.1C3.1,18.5,3.1,19.7,3.1,19.7z M3.1,16.7H2v-1.2h1.1C3.1,15.5,3.1,16.7,3.1,16.7z
	 M6,22.6H4.9v-1.2H6V22.6z M6,19.7H4.9v-1.2H6V19.7z M6,16.7H4.9v-1.2H6V16.7z M9,22.5H7.8v-4H9V22.5z M4.7,0v9.8h2.2V8h18.9v6.2
	H10.9v2.2H28V0H4.7z M25.8,2.2v2.3H6.9V2.2H25.8z M20.1,11.8v1.7h-9.2v-1.7H20.1z"/>
</svg>
