<?xml version="1.0" encoding="utf-8"?>
<!-- Generator: Adobe Illustrator 26.4.1, SVG Export Plug-In . SVG Version: 6.00 Build 0)  -->
<svg version="1.1" id="Layer_1" xmlns="http://www.w3.org/2000/svg" xmlns:xlink="http://www.w3.org/1999/xlink" x="0px" y="0px"
	 viewBox="0 0 27.8 24.5" style="enable-background:new 0 0 27.8 24.5;" xml:space="preserve">
<style type="text/css">
	.st0{fill:#FFFFFF;}
</style>
<g id="Layer_1_00000129901810837046864760000007462611680435758997_">
	<path class="st0" d="M23.3,0H8.9v4.8C6,5.5,3.9,8,3.9,11c0,1.2,0.3,2.3,0.9,3.3L0,19.1l2.2,2.2L7,16.5c0.6,0.3,1.2,0.6,1.9,0.7v7.2
		h18.9V4.6L23.3,0z M6.1,11c0-2.3,1.9-4.2,4.2-4.2s4.2,1.9,4.2,4.2c0,2.3-1.9,4.2-4.2,4.2C8,15.2,6.1,13.4,6.1,11
		C6.1,11,6.1,11,6.1,11L6.1,11z M25.6,22.3H11.1v-4.9c3.5-0.4,6-3.6,5.6-7.1C16.3,7.3,14,5,11.1,4.7V2.2h10.6v3.9h3.9V22.3z
		 M16.3,15.7H18v5.4h-1.7V15.7z M14,18h1.7v3.1H14V18z M18.7,13.3h1.7v7.8h-1.7L18.7,13.3z M22.8,11v10.1h-1.7V11H22.8z"/>
</g>
</svg>
