<?xml version="1.0" encoding="utf-8"?>
<!-- Generator: Adobe Illustrator 26.4.1, SVG Export Plug-In . SVG Version: 6.00 Build 0)  -->
<svg version="1.1" id="Layer_1" xmlns="http://www.w3.org/2000/svg" xmlns:xlink="http://www.w3.org/1999/xlink" x="0px" y="0px"
	 viewBox="0 0 24.8 27.3" style="enable-background:new 0 0 24.8 27.3;" xml:space="preserve">
<style type="text/css">
	.st0{fill:#FFFFFF;}
</style>
<g id="Layer_1_00000108990860188674627210000008815389910676116403_">
	<path class="st0" d="M24.3,6.8L24.3,6.8C23.8,6,23,5.4,22,5.2c-0.3-1.1-1.4-1.7-2.5-1.4c-0.6,0.2-1.1,0.7-1.4,1.3
		c-0.3,0-0.6,0.1-0.9,0.2C16.2,1.9,14.5,0,12.5,0S8.8,1.9,7.7,5.2C7.3,5.2,7,5.1,6.7,5c-3-0.4-5.1,0.2-6,1.8
		C0.3,7.7,0.2,8.7,0.5,9.6c-0.7,0.8-0.6,2.1,0.2,2.8c0.4,0.4,1,0.5,1.5,0.5c0.2,0.2,0.4,0.5,0.6,0.7c-2.3,2.6-3.1,5.1-2.1,6.8
		c0.5,0.9,1.6,1.9,4.3,1.9c0.6,0,1.2,0,1.8-0.1c0.3,0,0.6-0.1,0.9-0.2c1.1,3.3,2.9,5.2,4.8,5.2c1,0,2-0.5,2.6-1.3
		c1.1,0.2,2.1-0.5,2.3-1.6c0-0.1,0-0.3,0-0.4c0-0.5-0.1-0.9-0.4-1.2c0.1-0.2,0.2-0.5,0.2-0.7c3.6,0.7,6,0.1,7-1.6s0.2-4.2-2.1-6.8
		C24.5,11,25.3,8.5,24.3,6.8z M2.5,19.4c-0.4-0.7,0-2.2,1.8-4.3c0.7,0.7,1.5,1.3,2.3,2c0.1,1,0.3,2,0.5,3l-0.7,0.1
		C4.4,20.4,2.9,20.1,2.5,19.4z M6.4,7.1l0.7,0.1c-0.2,1-0.4,2-0.5,3c-0.8,0.6-1.6,1.2-2.3,1.9C4.1,12,4,11.9,3.9,11.7
		c0.1-0.3,0.2-0.6,0.2-0.9c0-1-0.7-1.8-1.7-2c-0.1-0.3,0-0.7,0.1-1l0,0C2.9,7.1,4.4,6.8,6.4,7.1z M6.4,14.2C6.2,14,6,13.8,5.7,13.6
		C6,13.4,6.2,13.2,6.4,13c0,0.2,0,0.4,0,0.6S6.4,14.1,6.4,14.2L6.4,14.2z M21.6,7.2c0.4,0.1,0.7,0.3,0.9,0.6c0.4,0.7,0,2.3-1.8,4.3
		c-0.7-0.7-1.5-1.3-2.3-1.9c-0.1-1-0.3-2-0.5-3l0.6-0.1C19.3,8,20.6,8.1,21.6,7.2C21.5,7.3,21.6,7.3,21.6,7.2L21.6,7.2z M18.6,13
		c0.2,0.2,0.5,0.4,0.7,0.6c-0.2,0.2-0.5,0.4-0.7,0.6c0-0.2,0-0.4,0-0.6S18.6,13.2,18.6,13L18.6,13z M18.4,17
		c0.8-0.6,1.6-1.2,2.3-1.9c1.8,2,2.1,3.6,1.8,4.3s-2,1.1-4.6,0.6C18.1,19,18.3,18.1,18.4,17L18.4,17z M15.6,8.3L15,8.1
		c0.3-0.1,0.6-0.2,0.9-0.3l0.2,0.9L15.6,8.3z M9.7,5.7c0.9-2.5,2-3.6,2.8-3.6s2,1.1,2.8,3.6c-1,0.3-1.9,0.7-2.8,1.1
		C11.6,6.4,10.6,6,9.7,5.7L9.7,5.7z M9,8.6C9,8.3,9.1,8,9.1,7.8L10,8L9.5,8.3L9,8.6z M8.6,11.4c0.6-0.4,1.2-0.8,1.9-1.2s1.3-0.7,2-1
		c0.7,0.3,1.3,0.7,2,1c0.7,0.4,1.3,0.8,1.9,1.2c0.1,0.7,0.1,1.5,0.1,2.3s0,1.5-0.1,2.2c-0.6,0.4-1.2,0.8-1.9,1.2s-1.3,0.7-2,1
		c-0.7-0.3-1.3-0.7-2-1s-1.3-0.8-1.9-1.2c0-0.7-0.1-1.5-0.1-2.2S8.5,12.1,8.6,11.4L8.6,11.4z M15.9,19.5L15,19.2l0.5-0.3l0.5-0.3
		L15.9,19.5z M9.5,18.9l0.5,0.3c-0.3,0.1-0.6,0.2-0.9,0.3C9.1,19.2,9,18.9,9,18.6L9.5,18.9z M12.5,20.4c0.9,0.4,1.9,0.8,2.8,1.1
		c0,0.2-0.1,0.3-0.2,0.5c-1,0.2-1.7,1-1.7,2c0,0.2,0,0.4,0.1,0.7c-0.3,0.3-0.7,0.5-1.1,0.5c-0.8,0-2-1.1-2.8-3.6
		C10.6,21.2,11.6,20.8,12.5,20.4L12.5,20.4z"/>
</g>
</svg>
