<?xml version="1.0" encoding="utf-8"?>
<!-- Generator: Adobe Illustrator 26.4.1, SVG Export Plug-In . SVG Version: 6.00 Build 0)  -->
<svg version="1.1" id="Layer_1" xmlns="http://www.w3.org/2000/svg" xmlns:xlink="http://www.w3.org/1999/xlink" x="0px" y="0px"
	 viewBox="0 0 23.8 23.8" style="enable-background:new 0 0 23.8 23.8;" xml:space="preserve">
<style type="text/css">
	.st0{fill:#FFFFFF;}
</style>
<path class="st0" d="M17.2,15c1.2-1.6,1.8-3.5,1.8-5.5C19,4.3,14.8,0,9.5,0S0,4.3,0,9.5S4.2,19,9.5,19c2,0,3.9-0.6,5.5-1.8l6.6,6.6
	l2.2-2.2L17.2,15z M16.7,9.5c0,4-3.3,7.3-7.3,7.3s-7.3-3.3-7.3-7.3s3.3-7.3,7.3-7.3S16.7,5.5,16.7,9.5z M14.4,8.2v5.3H8V8.2h0.9v-1
	c0-0.7-0.6-1.4-1.4-1.4c-0.7,0-1.4,0.6-1.4,1.4v1.5H4.8V7.2c0-1.5,1.2-2.7,2.7-2.7s2.7,1.2,2.7,2.7v1C10.2,8.2,14.4,8.2,14.4,8.2z
	 M11.9,10.2c0-0.4-0.3-0.7-0.7-0.7c-0.4,0-0.7,0.3-0.7,0.7c0,0.3,0.2,0.6,0.5,0.7V12h0.5v-1.1C11.7,10.8,11.9,10.6,11.9,10.2z"/>
</svg>
