<?xml version="1.0" encoding="utf-8"?>
<!-- Generator: Adobe Illustrator 26.4.1, SVG Export Plug-In . SVG Version: 6.00 Build 0)  -->
<svg version="1.1" id="Layer_1" xmlns="http://www.w3.org/2000/svg" xmlns:xlink="http://www.w3.org/1999/xlink" x="0px" y="0px"
	 viewBox="0 0 26.5 26.5" style="enable-background:new 0 0 26.5 26.5;" xml:space="preserve">
<style type="text/css">
	.st0{fill:#FFFFFF;}
</style>
<g id="Layer_1_00000149351062248393689370000010485266982458099118_">
	<path class="st0" d="M19.5,7.1L19.5,7.1c0.1-0.3,0.1-0.5,0.1-0.8c-0.1-1.4-1.2-2.5-2.6-2.4c-1.4,0.1-2.5,1.2-2.4,2.6
		s1.2,2.5,2.6,2.4c0,0,0,0,0,0c0.3,0,0.5-0.1,0.7-0.2l0,0h1v1h1v1h1v1h1.7v-1.5L19.5,7.1z M16.5,6.5c-0.4,0-0.7-0.3-0.7-0.7
		c0,0,0,0,0,0c0-0.4,0.3-0.7,0.7-0.7s0.7,0.3,0.7,0.7S16.9,6.5,16.5,6.5C16.5,6.5,16.5,6.5,16.5,6.5z M9.6,0v9.5H0v17h17V17h9.5V0
		H9.6z M2.2,24.4V11.7h12.6v12.6H2.2z M11.8,9.5V2.2h12.6v12.6H17V9.5H11.8z M9.3,17.2L9.3,17.2c0.1-0.3,0.1-0.5,0.1-0.8
		C9.4,15,8.2,13.9,6.8,14s-2.5,1.2-2.4,2.6C4.4,18,5.6,19.1,7,19c0,0,0,0,0,0c0.3,0,0.5-0.1,0.7-0.2l0,0h1v1h1v1h1v1h1.7v-1.5
		L9.3,17.2z M6.3,16.6c-0.4,0-0.7-0.3-0.7-0.7c0-0.4,0.3-0.7,0.7-0.7c0.4,0,0.7,0.3,0.7,0.7C7,16.3,6.7,16.6,6.3,16.6L6.3,16.6z"/>
</g>
</svg>
