<?xml version="1.0" encoding="utf-8"?>
<!-- Generator: Adobe Illustrator 26.4.1, SVG Export Plug-In . SVG Version: 6.00 Build 0)  -->
<svg version="1.1" id="Layer_1" xmlns="http://www.w3.org/2000/svg" xmlns:xlink="http://www.w3.org/1999/xlink" x="0px" y="0px"
	 viewBox="0 0 29.2 21.3" style="enable-background:new 0 0 29.2 21.3;" xml:space="preserve">
<style type="text/css">
	.st0{fill:#FFFFFF;}
</style>
<path class="st0" d="M0,21.2h13.8V0H0V21.2z M11.6,2.2v16H2.2v-16C2.2,2.2,11.6,2.2,11.6,2.2z M15.4,0v21.3h13.8V0H15.4z M17.6,18.2
	v-16H27v16H17.6z M22.3,20.1c-0.3,0-0.5-0.2-0.5-0.5s0.2-0.5,0.5-0.5s0.5,0.2,0.5,0.5S22.5,20.1,22.3,20.1z M6.9,20.1
	c-0.3,0-0.5-0.2-0.5-0.5s0.2-0.5,0.5-0.5s0.5,0.2,0.5,0.5S7.2,20.1,6.9,20.1z M24.8,8.6V7.8c0-0.6-0.3-1.3-0.7-1.7
	c-0.5-0.5-1.1-0.7-1.7-0.7c-1.3,0-2.4,1.1-2.4,2.4v0.8h-0.5v4.7h5.8V8.6C25.3,8.6,24.8,8.6,24.8,8.6z M21.2,8.6V7.8
	c0-0.6,0.5-1.1,1.1-1.1c0.3,0,0.6,0.1,0.8,0.3c0.2,0.2,0.3,0.5,0.3,0.8v0.8C23.4,8.6,21.2,8.6,21.2,8.6z M7.9,6.6l3.4,3.6l-3.4,3.6
	l-1.2-1.2L8.2,11H2.8V9.3h5.4L6.7,7.7L7.9,6.6z"/>
</svg>
