<?xml version="1.0" encoding="utf-8"?>
<!-- Generator: Adobe Illustrator 26.4.1, SVG Export Plug-In . SVG Version: 6.00 Build 0)  -->
<svg version="1.1" id="Layer_1" xmlns="http://www.w3.org/2000/svg" xmlns:xlink="http://www.w3.org/1999/xlink" x="0px" y="0px"
	 viewBox="0 0 32 26.7" style="enable-background:new 0 0 32 26.7;" xml:space="preserve">
<style type="text/css">
	.st0{fill:#FFFFFF;}
</style>
<path class="st0" d="M21.4,8.4h0.9v3.3h-0.9V8.4z M23,12.8h0.6v1.7h0.9v-1.7h1.1v1.7h0.9v-1.7h0.6V8.3H23V12.8z M27.9,8.4v3.3h0.9
	V8.4H27.9z M23,7.6c0-0.8,0.2-1.5,0.6-1.9l-0.5-0.5l0.4-0.4l0.6,0.6c0.3-0.1,0.6-0.2,0.9-0.2s0.7,0.1,0.9,0.2l0.6-0.6l0.4,0.4
	l-0.4,0.5c0.4,0.4,0.6,1.1,0.6,1.9H23z M25.6,6.4c0,0.2,0.2,0.4,0.4,0.4c0.2,0,0.4-0.2,0.4-0.4S26.2,6,26,6
	C25.7,6.1,25.6,6.2,25.6,6.4z M23.9,6.4c0,0.2,0.2,0.4,0.4,0.4c0.2,0,0.4-0.2,0.4-0.4S24.5,6,24.3,6C24,6.1,23.9,6.2,23.9,6.4z
	 M14.6,25.5c-0.3,0-0.5-0.2-0.5-0.5s0.2-0.5,0.5-0.5s0.5,0.2,0.5,0.5C15.1,25.2,14.9,25.5,14.6,25.5z M25.1,20.2
	c-0.3,0-0.5-0.2-0.5-0.5s0.2-0.5,0.5-0.5s0.5,0.2,0.5,0.5C25.5,20,25.3,20.2,25.1,20.2z M18.2,0v5.6h-2.9c-1-3.3-4-5.6-7.5-5.6
	C3.5,0,0,3.5,0,7.8c0,3.9,2.9,7.2,6.7,7.7v11.2h15.8v-5.3H32V0H18.2z M2.2,7.7c0-3.1,2.5-5.6,5.6-5.6s5.6,2.6,5.6,5.6
	s-2.5,5.6-5.6,5.6S2.2,10.8,2.2,7.7z M20.3,21.3v2H8.9v-7.9c3.8-0.5,6.7-3.8,6.7-7.7l0,0h2.6v13.6H20.3z M29.8,2.1v16.1h-9.4V2.1
	H29.8z M9.9,6.6V5.9c0-0.6-0.2-1.1-0.6-1.5C8.9,4,8.4,3.8,7.8,3.8c-1.1,0-2.1,0.9-2.1,2.1v0.7H5.3v4h4.9v-4
	C10.2,6.6,9.9,6.6,9.9,6.6z M6.9,6.6V5.9C6.9,5.4,7.3,5,7.8,5c0.3,0,0.5,0.1,0.7,0.3S8.8,5.7,8.8,6v0.7H6.9V6.6z"/>
</svg>
