<?xml version="1.0" encoding="utf-8"?>
<!-- Generator: Adobe Illustrator 26.4.1, SVG Export Plug-In . SVG Version: 6.00 Build 0)  -->
<svg version="1.1" id="Layer_1" xmlns="http://www.w3.org/2000/svg" xmlns:xlink="http://www.w3.org/1999/xlink" x="0px" y="0px"
	 viewBox="0 0 32 26.7" style="enable-background:new 0 0 32 26.7;" xml:space="preserve">
<style type="text/css">
	.st0{fill:#FFFFFF;}
</style>
<path class="st0" d="M18.2,0v5.6h-2.9c-1-3.3-4-5.6-7.5-5.6C3.5,0,0,3.5,0,7.8c0,3.9,2.9,7.2,6.7,7.7v11.2h15.8v-5.3H32V0H18.2z
	 M2.3,7.7c0-3.1,2.5-5.6,5.6-5.6s5.6,2.6,5.6,5.6s-2.5,5.6-5.6,5.6S2.3,10.8,2.3,7.7z M20.4,21.3v2H9v-7.9c3.8-0.5,6.7-3.8,6.7-7.7
	l0,0h2.6v13.6H20.4z M29.9,2.1v16.1h-9.4V2.1H29.9z M14.7,25.5c-0.3,0-0.5-0.2-0.5-0.5s0.2-0.5,0.5-0.5s0.5,0.2,0.5,0.5
	C15.2,25.2,15,25.5,14.7,25.5z M25.2,20.2c-0.3,0-0.5-0.2-0.5-0.5s0.2-0.5,0.5-0.5s0.5,0.2,0.5,0.5C25.6,20,25.4,20.2,25.2,20.2z
	 M10.3,6.5V5.7c0-0.6-0.3-1.3-0.7-1.7C9.1,3.5,8.5,3.3,7.9,3.3c-1.3,0-2.4,1.1-2.4,2.4v0.8H5v4.7h5.8V6.5H10.3z M6.8,6.5V5.7
	c0-0.6,0.5-1.1,1.1-1.1c0.3,0,0.6,0.1,0.8,0.3S9,5.4,9,5.7v0.8H6.8z"/>
</svg>
