<?xml version="1.0" encoding="utf-8"?>
<!-- Generator: Adobe Illustrator 26.4.1, SVG Export Plug-In . SVG Version: 6.00 Build 0)  -->
<svg version="1.1" id="Layer_1" xmlns="http://www.w3.org/2000/svg" xmlns:xlink="http://www.w3.org/1999/xlink" x="0px" y="0px"
	 viewBox="0 0 25.3 26.7" style="enable-background:new 0 0 25.3 26.7;" xml:space="preserve">
<style type="text/css">
	.st0{fill:#FFFFFF;}
</style>
<path class="st0" d="M11.4,0v5.6H0v21.1h15.8v-5.3h9.5V0H11.4z M13.6,21.3v2H2.2V7.7h9.3v13.6H13.6z M23,2.1v16.1h-9.4V2.1H23z
	 M7.9,25.5c-0.3,0-0.5-0.2-0.5-0.5s0.2-0.5,0.5-0.5s0.5,0.2,0.5,0.5C8.4,25.2,8.2,25.5,7.9,25.5z M18.3,20.2c-0.3,0-0.5-0.2-0.5-0.5
	s0.2-0.5,0.5-0.5s0.5,0.2,0.5,0.5S18.6,20.2,18.3,20.2z M14.9,8.2h0.6v0.5h-0.6V8.2z M14.9,9.1h0.6v2.3h-0.6V9.1z M17.6,8.2
	c0.9,0,1.6,0.7,1.6,1.6s-0.7,1.6-1.6,1.6S16,10.7,16,9.8C15.9,8.9,16.6,8.2,17.6,8.2z M17.6,10.9c0.6,0,1-0.5,1-1.1s-0.5-1.1-1-1.1
	c-0.6,0-1,0.5-1,1.1C16.5,10.4,17,10.9,17.6,10.9z M19.8,10.6c0,0,0.3,0.3,0.8,0.3c0.2,0,0.5-0.1,0.5-0.4c0-0.6-1.5-0.5-1.5-1.4
	c0-0.5,0.5-0.9,1.1-0.9s0.9,0.3,0.9,0.3L21.4,9c0,0-0.3-0.3-0.7-0.3c-0.3,0-0.5,0.2-0.5,0.4c0,0.6,1.5,0.4,1.5,1.4
	c0,0.5-0.4,0.9-1,0.9c-0.7,0-1.1-0.4-1.1-0.4L19.8,10.6z"/>
</svg>
