<?xml version="1.0" encoding="utf-8"?>
<!-- Generator: Adobe Illustrator 26.4.1, SVG Export Plug-In . SVG Version: 6.00 Build 0)  -->
<svg version="1.1" id="Layer_1" xmlns="http://www.w3.org/2000/svg" xmlns:xlink="http://www.w3.org/1999/xlink" x="0px" y="0px"
	 viewBox="0 0 19.5 26.3" style="enable-background:new 0 0 19.5 26.3;" xml:space="preserve">
<style type="text/css">
	.st0{fill:none;}
	.st1{fill:#FFFFFF;}
</style>
<g>
	<path class="st0" d="M6.3,7.9c0.3,0,0.8-0.6,0.8-1.6C7,6.2,6.9,6,6.8,5.9C6.6,6.1,6.2,6.5,5.5,6.7C5.7,7.4,6,7.9,6.3,7.9z"/>
	<path class="st0" d="M6.4,19.5c0.3,0,0.8-0.5,0.8-1.4c0-0.1,0-0.2,0-0.2l0,0c-0.5-0.3-1-0.3-1.5,0l0,0c0,0.1,0,0.2,0,0.2
		C5.6,19,6,19.5,6.4,19.5z"/>
	<path class="st0" d="M6.4,13.8c0.3,0,0.8-0.6,0.8-1.7c0-0.1,0-0.2,0-0.4c-0.6,0.1-1.3-0.3-1.5-0.5l0,0l0,0
		c-0.1,0.3-0.1,0.5-0.1,0.8C5.6,13.2,6,13.8,6.4,13.8z"/>
	<path class="st0" d="M2.3,22.4h15V2.2h-15V22.4z M9.7,6.4h5.8v1.4H9.7V6.4z M9.7,11.6h5.8V13H9.7V11.6z M9.7,16.8h5.8v1.4H9.7V16.8
		z M4.5,5.6c0-0.5,0.2-1,0.7-1.2c0-0.2-0.1-0.5,0.1-0.8s0.5-0.4,1-0.4s0.8,0.1,1,0.4c0.2,0.3,0.2,0.6,0.1,0.8
		c0.4,0.3,0.7,0.7,0.7,1.3c0,0.2,0.1,0.4,0.1,0.6C8.2,7.8,7.4,9,6.3,9S4.4,7.8,4.4,6.3C4.4,6,4.5,5.8,4.5,5.6z M4.4,11
		c0.1-0.7,0.9-0.9,1.3-0.9c0.9-0.4,1.6-0.1,1.9,0.2h0.1l0.1,0.1c0.2,0.2,0.4,0.5,0.4,0.7c0.1,0.3,0,0.8,0,1.1l0,0
		c0,1.5-0.8,2.8-1.9,2.8c-1,0-1.8-1.1-1.9-2.6C4.4,12.1,4.3,11.6,4.4,11z M4.8,16.7L4.8,16.7L4.8,16.7c0.7-0.6,1.5-0.9,1.6-0.9l0,0
		l0,0c0,0,0.9,0.3,1.5,0.8H8v0.1c0.3,0.3,0.4,0.6,0.4,0.9s-0.1,0.7-0.2,1c-0.2,1.2-0.9,2-1.8,2s-1.7-0.8-1.8-2
		c-0.1-0.3-0.1-0.6-0.1-0.9C4.4,17.3,4.5,17,4.8,16.7z"/>
	<rect x="9.7" y="6.4" class="st1" width="5.8" height="1.4"/>
	<rect x="9.7" y="11.6" class="st1" width="5.8" height="1.4"/>
	<rect x="9.7" y="16.8" class="st1" width="5.8" height="1.4"/>
	<path class="st1" d="M6.3,8.9c1,0,1.9-1.2,1.9-2.7c0-0.2,0-0.4-0.1-0.6c0-0.6-0.2-1-0.7-1.3c0-0.2,0.1-0.5-0.1-0.8s-0.5-0.4-1-0.4
		s-0.8,0.1-1,0.4C5.1,3.8,5.1,4.1,5.2,4.3C4.8,4.6,4.5,5,4.5,5.5c0,0.2-0.1,0.5-0.1,0.7C4.4,7.8,5.3,8.9,6.3,8.9z M6.8,5.9
		C6.9,6,6.9,6.1,7.1,6.3c0,1-0.5,1.6-0.8,1.6S5.6,7.4,5.5,6.7C6.3,6.4,6.7,6.1,6.8,5.9z"/>
	<path class="st1" d="M0,0v26.3h19.5V0H0z M9.8,25c-0.4,0-0.7-0.3-0.7-0.7s0.3-0.7,0.7-0.7s0.7,0.3,0.7,0.7
		C10.5,24.7,10.2,25,9.8,25z M17.3,22.4h-15V2.2h15V22.4z"/>
	<path class="st1" d="M6.4,20.6c0.9,0,1.6-0.8,1.8-2c0.1-0.4,0.1-0.7,0.2-1c0-0.3-0.1-0.6-0.4-0.9v-0.1H7.9
		c-0.6-0.5-1.4-0.8-1.5-0.8l0,0l0,0c0,0-0.9,0.3-1.5,0.8H4.8v0.1c-0.3,0.3-0.4,0.6-0.4,0.9s0.1,0.6,0.1,0.9
		C4.7,19.8,5.4,20.6,6.4,20.6z M5.6,17.8L5.6,17.8c0.5-0.3,1-0.4,1.5,0l0,0c0,0.1,0,0.2,0,0.2c0,0.9-0.5,1.4-0.8,1.4
		S5.5,18.9,5.5,18C5.6,18,5.6,17.9,5.6,17.8z"/>
	<path class="st1" d="M6.4,14.9c1.1,0,1.9-1.2,1.9-2.8l0,0c0.1-0.3,0.1-0.8,0-1.1c-0.1-0.2-0.2-0.5-0.4-0.7l-0.1-0.1H7.7
		c-0.3-0.3-1-0.6-1.9-0.2c-0.4,0-1.2,0.2-1.3,0.9c-0.1,0.6,0,1.2,0.1,1.4C4.6,13.8,5.4,14.9,6.4,14.9z M5.7,11.3L5.7,11.3L5.7,11.3
		c0.2,0.1,0.8,0.5,1.5,0.5c0,0.1,0,0.3,0,0.4c0,1-0.5,1.7-0.8,1.7s-0.8-0.6-0.8-1.7C5.6,11.9,5.6,11.6,5.7,11.3z"/>
</g>
</svg>
