<?xml version="1.0" encoding="utf-8"?>
<!-- Generator: Adobe Illustrator 26.4.1, SVG Export Plug-In . SVG Version: 6.00 Build 0)  -->
<svg version="1.1" id="Layer_1" xmlns="http://www.w3.org/2000/svg" xmlns:xlink="http://www.w3.org/1999/xlink" x="0px" y="0px"
	 viewBox="0 0 23.8 23.8" style="enable-background:new 0 0 23.8 23.8;" xml:space="preserve">
<style type="text/css">
	.st0{fill:#FFFFFF;}
</style>
<g id="Layer_1_00000129917082137577531960000013184300036264821894_">
	<path class="st0" d="M17.2,15c1.2-1.6,1.8-3.5,1.8-5.5c0-5.2-4.2-9.5-9.5-9.5C4.2,0,0,4.2,0,9.5c0,5.2,4.2,9.5,9.5,9.5h0
		c2,0,3.9-0.6,5.5-1.8l6.6,6.6l2.2-2.2L17.2,15z M16.8,9.5c0,4-3.3,7.3-7.3,7.3c-4,0-7.3-3.3-7.3-7.3s3.3-7.3,7.3-7.3
		C13.5,2.2,16.7,5.5,16.8,9.5z M13.9,5.1v2.7h-1.6V6.6h-1V5.1H13.9z M6.6,7.7H5.1V5.1h2.6v1.6H6.6V7.7z M6.6,12.3h1.1v1.5H5.1v-2.6
		h1.5V12.3z M12.3,11.2h1.6v2.6h-2.6v-1.5h1V11.2z M13.8,10.2H5.1V8.7h8.8L13.8,10.2z"/>
</g>
</svg>
