<?xml version="1.0" encoding="utf-8"?>
<!-- Generator: Adobe Illustrator 26.4.1, SVG Export Plug-In . SVG Version: 6.00 Build 0)  -->
<svg version="1.1" id="Layer_1" xmlns="http://www.w3.org/2000/svg" xmlns:xlink="http://www.w3.org/1999/xlink" x="0px" y="0px"
	 viewBox="0 0 26.6 23" style="enable-background:new 0 0 26.6 23;" xml:space="preserve">
<style type="text/css">
	.st0{fill:#FFFFFF;}
</style>
<path class="st0" d="M26.6,19.1V0H0v19.1h8.5v1.4H6.2V23h14.2v-2.5h-2.3v-1.4C18.1,19.1,26.6,19.1,26.6,19.1z M24.2,2.4v14.4H2.4
	V2.4H24.2z M8,5.5c-2.3,0-4.2,1.9-4.2,4.2s1.9,4.2,4.2,4.2s4.2-1.9,4.2-4.2S10.3,5.5,8,5.5z M10.9,9.8c0,1.6-1.3,3-3,3
	c-1.6,0-3-1.3-3-3c0-1.6,1.3-3,3-3S10.9,8.1,10.9,9.8z M9.1,7.7l1,0.7l-2.5,3.5l-1.9-1.8l0.9-0.9L7.4,10L9.1,7.7z M20.8,8.6
	l-1.1,1.1l1.1,1.1l-0.9,0.9l-1.2-1l-1.1,1.1l-0.9-0.9l1.1-1.1l-1.1-1.2l0.9-0.9l1.1,1.2l1.1-1.1L20.8,8.6z M18.7,5.5
	c-2.3,0-4.2,1.9-4.2,4.2s1.9,4.2,4.2,4.2c2.3,0,4.2-1.9,4.2-4.2S21.1,5.5,18.7,5.5z M18.7,12.7c-1.6,0-3-1.3-3-3c0-1.6,1.3-3,3-3
	c1.6,0,3,1.3,3,3S20.4,12.7,18.7,12.7z"/>
</svg>
