<?xml version="1.0" encoding="utf-8"?>
<!-- Generator: Adobe Illustrator 26.4.1, SVG Export Plug-In . SVG Version: 6.00 Build 0)  -->
<svg version="1.1" id="Layer_1" xmlns="http://www.w3.org/2000/svg" xmlns:xlink="http://www.w3.org/1999/xlink" x="0px" y="0px"
	 viewBox="0 0 22.5 28.5" style="enable-background:new 0 0 22.5 28.5;" xml:space="preserve">
<style type="text/css">
	.st0{fill:#FFFFFF;}
</style>
<path class="st0" d="M15.2,10V0H0v23.6h10.4l4.7,4.9h7.4V17L15.2,10z M2.2,2.1H13v15l-0.7-0.7c-1.2-1.3-3.2-1.3-4.5-0.1
	c-1.1,1.1-1.3,2.8-0.5,4.1H2.2V2.1z M9.3,17.9c0.4-0.4,1-0.4,1.4,0l4.5,4.5V13l5,4.9v8.4H16l-6.7-7C9.1,19.1,9,18.9,9,18.6
	S9.1,18.1,9.3,17.9z M7.6,22.4c-0.3,0-0.5-0.2-0.5-0.5s0.2-0.5,0.5-0.5s0.5,0.2,0.5,0.5C8.1,22.2,7.9,22.4,7.6,22.4z M12.2,4.8v2.7
	h-1.6V6.4H9.5V4.8C9.5,4.8,12.2,4.8,12.2,4.8z M4.6,7.5H3V4.8h2.7v1.6H4.6V7.5z M4.6,12.3h1.1v1.6H3v-2.7h1.6V12.3z M10.6,11.2h1.6
	v2.7H9.5v-1.6h1.1V11.2z M12.1,10.2H2.9V8.6h9.2V10.2z"/>
</svg>
