<?xml version="1.0" encoding="utf-8"?>
<!-- Generator: Adobe Illustrator 26.4.1, SVG Export Plug-In . SVG Version: 6.00 Build 0)  -->
<svg version="1.1" id="Layer_1" xmlns="http://www.w3.org/2000/svg" xmlns:xlink="http://www.w3.org/1999/xlink" x="0px" y="0px"
	 viewBox="0 0 22.4 28.5" style="enable-background:new 0 0 22.4 28.5;" xml:space="preserve">
<style type="text/css">
	.st0{fill:#FFFFFF;}
</style>
<g id="Layer_1_00000153682532955619316000000012960086799806994618_">
	<path class="st0" d="M15.2,10V0H0v23.6h10.4l4.7,4.9h7.4V17L15.2,10z M2.2,2.2H13v15l-0.7-0.7c-1.1-1.4-3.1-1.6-4.5-0.5
		s-1.6,3.1-0.5,4.5H2.2L2.2,2.2z M9.3,17.9c0.4-0.4,1-0.4,1.4,0c0,0,0,0,0,0l4.5,4.5V13l5,4.9v8.4H16l-6.7-7C9.1,19.1,9,18.9,9,18.6
		C9,18.3,9.1,18.1,9.3,17.9L9.3,17.9z M7.6,22.4c-0.3,0-0.5-0.2-0.5-0.5s0.2-0.5,0.5-0.5c0.3,0,0.5,0.2,0.5,0.5S7.9,22.4,7.6,22.4
		C7.6,22.4,7.6,22.4,7.6,22.4z M10.4,9.9c1-1.9,0.3-4.3-1.6-5.3S4.5,4.3,3.5,6.2s-0.3,4.3,1.6,5.3c1.2,0.6,2.5,0.6,3.7,0l2.2,2.2
		l1.6-1.6L10.4,9.9z M6.9,5.9c1.2,0,2.2,1,2.2,2.2s-1,2.2-2.2,2.2s-2.2-1-2.2-2.2l0,0C4.7,6.9,5.7,5.9,6.9,5.9L6.9,5.9z"/>
</g>
</svg>
