<?xml version="1.0" encoding="utf-8"?>
<!-- Generator: Adobe Illustrator 26.4.1, SVG Export Plug-In . SVG Version: 6.00 Build 0)  -->
<svg version="1.1" id="Layer_1" xmlns="http://www.w3.org/2000/svg" xmlns:xlink="http://www.w3.org/1999/xlink" x="0px" y="0px"
	 viewBox="0 0 31.1 26.6" style="enable-background:new 0 0 31.1 26.6;" xml:space="preserve">
<style type="text/css">
	.st0{fill:#FFFFFF;}
</style>
<g id="Layer_1_00000032619189394690230010000011657998975234011820_">
	<path class="st0" d="M25.7,0c-2.5,0-4.6,1.7-5.2,4.2H0v18.9h8.7v1.2H6.3v2.3h14.2v-2.3h-2.3v-1.3h8.7V10.5c2.9-0.6,4.7-3.5,4-6.3
		C30.4,1.7,28.2,0,25.7,0z M2.3,20.8V6.5h18.3c0.5,2,2,3.5,4,4v10.3H2.3z M28.8,5.3c0,1.7-1.3,3-3,3c-1.7,0-3-1.3-3-3s1.3-3,3-3
		C27.4,2.3,28.8,3.7,28.8,5.3z M17.8,12.8c0-2.8-2.2-5-5-5s-5,2.2-5,5s2.2,5,5,5c0.9,0,1.9-0.3,2.6-0.8l3.1,3.1l1.6-1.5L17,15.5
		C17.5,14.7,17.8,13.8,17.8,12.8L17.8,12.8z M16.1,12.8c0,1.8-1.5,3.3-3.3,3.3c-1.8,0-3.3-1.5-3.3-3.3c0-1.8,1.5-3.3,3.3-3.3
		c0,0,0,0,0,0C14.6,9.5,16.1,11,16.1,12.8L16.1,12.8z M27.7,4.6v1.5h-1.2v1.2H25V6.1h-1.2V4.6H25V3.3h1.5v1.2H27.7z"/>
</g>
</svg>
