<?xml version="1.0" encoding="utf-8"?>
<!-- Generator: Adobe Illustrator 26.4.1, SVG Export Plug-In . SVG Version: 6.00 Build 0)  -->
<svg version="1.1" id="Layer_1" xmlns="http://www.w3.org/2000/svg" xmlns:xlink="http://www.w3.org/1999/xlink" x="0px" y="0px"
	 viewBox="0 0 32.6 28.8" style="enable-background:new 0 0 32.6 28.8;" xml:space="preserve">
<style type="text/css">
	.st0{fill:#FFFFFF;}
</style>
<g>
	<path class="st0" d="M31.1,22.9c0-4-3.2-7.5-7.3-7.9v-0.5h1.3v-1.9h-4.6v1.9h1.3V15c-1.4,0.2-2.7,0.6-3.8,1.4l-3.6-1.3l-0.9,2.3
		l-2.2-1l-2.2,1l-0.9-2.3l-6.3,2.3H1.8L0,23.9h30.9v-1H31.1z M8.2,20.5c0-0.4,0.3-0.8,0.8-0.8s0.8,0.3,0.8,0.8S9.5,21.3,9,21.3
		S8.2,20.9,8.2,20.5z M16.5,21.9c0.5-2.9,3.2-5.1,6.3-5.1s5.8,2.2,6.3,5.1H16.5z M13,20.5c0-0.4,0.3-0.8,0.8-0.8s0.8,0.3,0.8,0.8
		s-0.3,0.8-0.8,0.8S13,20.9,13,20.5z"/>
	<path class="st0" d="M13.8,24.6v4.2h18.8v-4.2H13.8z M15.8,26.8v-0.3h14.9v0.3H15.8z"/>
	<path class="st0" d="M11.2,15.6c3,0,5.3-3.7,5.3-8.5c0-0.6,0-1.2-0.1-1.9V0H6.1v5.1l0,0C6,5.8,6,6.4,6,7C6,11.8,8.3,15.6,11.2,15.6
		z M8,3.6V2h6.4v1.6H8z M13.2,6l1.3,2.3c-0.3,3-1.7,5.3-3.3,5.3c-1.4,0-2.8-2-3.2-4.8C10.6,8.5,12.4,6.8,13.2,6z"/>
</g>
</svg>
