<?xml version="1.0" encoding="utf-8"?>
<!-- Generator: Adobe Illustrator 26.4.1, SVG Export Plug-In . SVG Version: 6.00 Build 0)  -->
<svg version="1.1" id="Layer_1" xmlns="http://www.w3.org/2000/svg" xmlns:xlink="http://www.w3.org/1999/xlink" x="0px" y="0px"
	 viewBox="0 0 26.6 23" style="enable-background:new 0 0 26.6 23;" xml:space="preserve">
<style type="text/css">
	.st0{fill:#FFFFFF;}
</style>
<g id="Layer_1_00000094590403437907959430000013800186681663409343_">
	<path class="st0" d="M26.6,19.1V0H0v19.1h8.5v1.4H6.2V23h14.2v-2.6h-2.3v-1.4H26.6z M24.2,2.4v14.4H2.3V2.4H24.2z M17.2,6.9
		c0,1.2-0.7,2.3-1.6,3c-0.6,0.5-1.1,0.9-1.1,1.6v0.9h-2.4v-1c0.1-1.1,0.6-2.1,1.5-2.7c0.6-0.5,1-0.9,1-1.5c-0.1-0.6-0.6-1.1-1.3-1
		c-0.6,0-1.1,0.2-1.5,0.6l-0.2,0.2l-1.4-1.7L10.4,5c0.8-0.8,2-1.2,3.1-1.2C15.4,3.7,17,5,17.2,6.9C17.2,6.9,17.2,6.9,17.2,6.9
		L17.2,6.9z M12.1,13.2h2.4v2.3h-2.4L12.1,13.2z"/>
</g>
</svg>
