<?xml version="1.0" encoding="utf-8"?>
<!-- Generator: Adobe Illustrator 26.4.1, SVG Export Plug-In . SVG Version: 6.00 Build 0)  -->
<svg version="1.1" id="Layer_1" xmlns="http://www.w3.org/2000/svg" xmlns:xlink="http://www.w3.org/1999/xlink" x="0px" y="0px"
	 viewBox="0 0 28.8 29.1" style="enable-background:new 0 0 28.8 29.1;" xml:space="preserve">
<style type="text/css">
	.st0{fill:#FFFFFF;}
</style>
<path class="st0" d="M18.3,0.1c-5,0.4-8.9,4.6-8.9,9.6C4.2,9.9,0,14.2,0,19.4c0,5.4,4.4,9.7,9.7,9.7c5.4,0,9.7-4.4,9.7-9.7
	c0,0,0,0,0.1,0h0.4l0,0c5-0.4,8.9-4.6,8.9-9.7c0-5-3.9-9.3-8.9-9.7C19.4,0,18.8,0,18.3,0.1z M20.9,14.8c-0.3,0.5-0.5,0.9-0.8,1.2
	v-1.2H20.9z M20.1,12.9v-2.2h2.3c-0.1,0.7-0.3,1.4-0.6,2.2H20.1z M25,14.8c-0.9,1-1.9,1.7-3.1,2.2c0.5-0.7,0.9-1.4,1.3-2.2H25z
	 M20.1,4.6V3.4c0.3,0.4,0.5,0.8,0.8,1.2H20.1z M23.1,4.6c-0.4-0.7-0.8-1.5-1.3-2.2c1.2,0.4,2.3,1.2,3.1,2.2H23.1z M20.1,8.8V6.6h1.7
	c0.3,0.8,0.5,1.5,0.6,2.2H20.1z M26.8,10.7c-0.1,0.8-0.3,1.5-0.6,2.2h-2.3c0.2-0.7,0.4-1.5,0.5-2.2H26.8z M26.8,8.8h-2.5
	c-0.1-0.7-0.2-1.5-0.5-2.2h2.3C26.5,7.3,26.7,8,26.8,8.8z M9.7,27.2c-4.3,0-7.8-3.5-7.8-7.8s3.5-7.8,7.8-7.8s7.8,3.5,7.8,7.8
	S14,27.2,9.7,27.2z M11.4,8.8C11.5,8,11.7,7.3,12,6.6h2.3c-0.2,0.7-0.4,1.5-0.5,2.2H11.4z M17.4,4.6c0.3-0.5,0.5-0.9,0.8-1.2v1.2
	H17.4z M18.2,6.6v2.2h-2.3c0.1-0.7,0.3-1.4,0.6-2.2H18.2z M13.3,4.6c0.9-1,1.9-1.7,3.1-2.2c-0.5,0.7-0.9,1.4-1.3,2.2H13.3z
	 M18.2,10.7v2.2H17c-0.2-0.2-0.4-0.5-0.7-0.7c-0.2-0.5-0.3-1-0.3-1.5H18.2z M14.1,17.5c-0.2-0.1-0.3-0.2-0.5-0.2c0,0,0,0-0.1,0
	c0,0,0,0,0-0.1c0-0.3,0-0.7,0-1c-0.1-0.6-0.3-1.1-0.6-1.6c-0.6-1-1.6-1.6-2.7-1.8H9.9v0.7c0,0.2,0.2,0.3,0.4,0.3
	c0.3,0.1,0.6,0.3,0.9,0.5c0.5,0.5,0.7,1.1,0.6,1.8c0,0.2-0.1,0.3-0.1,0.5c-1.2-0.9-2.9-0.9-4.1,0c-0.1-0.3-0.1-0.6-0.1-1
	c0.1-0.5,0.3-1,0.8-1.4c0.3-0.2,0.6-0.4,0.9-0.4c0.1,0,0.3-0.1,0.2-0.4v-0.5H9.1c-1.5,0.2-2.8,1.3-3.2,2.8c-0.1,0.4-0.2,0.8-0.2,1.2
	c0,0.2,0,0.4,0.1,0.6c0,0,0,0-0.1,0c-0.1,0.1-0.3,0.1-0.4,0.2c-0.7,0.4-1.3,1-1.6,1.6c-0.5,1-0.6,2.2-0.2,3.2l0.1,0.3l0.6-0.3
	c0.2-0.1,0.2-0.3,0.1-0.4c0-0.1-0.1-0.3-0.1-0.4c0-0.4,0.1-0.8,0.3-1.2c0.3-0.6,0.9-0.9,1.5-1c0,0.1,0,0.1,0,0.2
	c0,1.4,0.8,2.7,2.1,3.3c-0.1,0.2-0.3,0.4-0.5,0.5c-0.5,0.4-1.2,0.5-1.8,0.3c-0.3-0.1-0.6-0.3-0.9-0.5c-0.1-0.1-0.2-0.3-0.5-0.1
	l-0.6,0.3L4,23.7c0.8,0.9,1.9,1.5,3.1,1.5c0.4,0,0.8-0.1,1.1-0.2c0.4-0.1,0.8-0.3,1.1-0.6c0.1,0,0.1-0.1,0.2-0.1l0,0
	c0.2,0.2,0.4,0.3,0.6,0.4c0.7,0.4,1.5,0.5,2.3,0.4c1-0.1,2-0.7,2.6-1.5l0.2-0.2l-0.6-0.3c-0.1-0.1-0.3-0.1-0.5,0.1
	c-0.1,0.1-0.2,0.2-0.3,0.2c-0.6,0.4-1.3,0.4-1.9,0.2c-0.4-0.1-0.8-0.4-1-0.7c1.3-0.6,2.1-1.8,2.1-3.2c0-0.1,0-0.2,0-0.2
	c0.9,0.1,1.6,0.8,1.8,1.7c0.1,0.3,0.1,0.7,0,1c0,0.1,0,0.3,0.2,0.4l0.5,0.3l0.1-0.3C16.5,20.6,15.8,18.5,14.1,17.5z M10.8,20.9
	c0-0.2,0.1-0.4,0.2-0.5s0.1-0.2,0.2-0.3l0.1-0.1c0.2-0.2,0.3-0.3,0.6-0.5c0,0.8-0.4,1.4-1.1,1.8C10.7,21.1,10.8,21,10.8,20.9z
	 M10.9,17.6c-0.4,0.3-1.3,0.6-2.3,0C9.3,17.2,10.2,17.2,10.9,17.6z M8.7,21.3c-0.7-0.4-1.1-1.1-1.1-1.8c0.2,0.1,0.3,0.2,0.5,0.3
	c0,0,0.2,0.2,0.3,0.3c0.1,0.1,0.1,0.2,0.2,0.3C8.6,20.6,8.7,20.9,8.7,21.3z"/>
</svg>
