<?xml version="1.0" encoding="utf-8"?>
<!-- Generator: Adobe Illustrator 26.4.1, SVG Export Plug-In . SVG Version: 6.00 Build 0)  -->
<svg version="1.1" id="Layer_1" xmlns="http://www.w3.org/2000/svg" xmlns:xlink="http://www.w3.org/1999/xlink" x="0px" y="0px"
	 viewBox="0 0 22.4 28.5" style="enable-background:new 0 0 22.4 28.5;" xml:space="preserve">
<style type="text/css">
	.st0{fill:#FFFFFF;}
</style>
<g id="Layer_1_00000003065964437423111740000013619122231822049697_">
	<path class="st0" d="M7.6,22.4c-0.3,0-0.5-0.2-0.5-0.5s0.2-0.5,0.5-0.5c0.3,0,0.5,0.2,0.5,0.5S7.9,22.4,7.6,22.4
		C7.6,22.4,7.6,22.4,7.6,22.4z M15.2,10V0H0v23.6h10.4l4.7,4.9h7.4V17L15.2,10z M2.2,2.2H13v15l-0.7-0.7c-1.2-1.3-3.2-1.3-4.5-0.1
		c-0.6,0.6-1,1.4-1,2.3c0,0.6,0.2,1.3,0.5,1.8H2.2L2.2,2.2z M9.3,17.9c0.4-0.4,1-0.4,1.4,0c0,0,0,0,0,0l4.5,4.5V13l5,4.9v8.4H16
		l-6.7-7C8.9,18.9,8.9,18.3,9.3,17.9L9.3,17.9z M5.2,10l0.9,1.3h-1l-0.4-0.6l-0.4,0.6h-1L4.2,10L3.3,8.8h1l0.4,0.6L5,8.8h1L5.2,10z
		 M6.4,10h2.5v0.7H6.4L6.4,10z M6.4,9.1h2.5v0.7H6.4L6.4,9.1z M12.1,8.8L11,11.6c-0.1,0.4-0.5,0.7-1,0.7c-0.2,0-0.4-0.1-0.6-0.2
		l-0.1-0.1l0.3-0.7l0.1,0.1c0.1,0,0.1,0.1,0.2,0.1c0.1,0,0.2-0.1,0.3-0.2l0.1-0.1l-1-2.4h1l0.5,1.3l0.4-1.3L12.1,8.8z"/>
</g>
</svg>
