<?xml version="1.0" encoding="utf-8"?>
<!-- Generator: Adobe Illustrator 26.4.1, SVG Export Plug-In . SVG Version: 6.00 Build 0)  -->
<svg version="1.1" id="Layer_1" xmlns="http://www.w3.org/2000/svg" xmlns:xlink="http://www.w3.org/1999/xlink" x="0px" y="0px"
	 viewBox="0 0 22.4 28.5" style="enable-background:new 0 0 22.4 28.5;" xml:space="preserve">
<style type="text/css">
	.st0{fill:#FFFFFF;}
</style>
<g id="Layer_1_00000178184541732808581560000003491091704165946790_">
	<path class="st0" d="M7.6,22.4c-0.3,0-0.5-0.2-0.5-0.5c0-0.3,0.2-0.5,0.5-0.5c0.3,0,0.5,0.2,0.5,0.5C8.1,22.2,7.9,22.4,7.6,22.4
		C7.6,22.4,7.6,22.4,7.6,22.4z M15.2,10V0H0v23.6h10.4l4.7,4.9h7.4V17L15.2,10z M2.2,2.1H13v15l-0.7-0.7c-1.1-1.4-3.1-1.6-4.5-0.5
		S6.2,19,7.3,20.4H2.2L2.2,2.1z M9.3,17.9c0.4-0.4,1-0.4,1.4,0c0,0,0,0,0,0l4.5,4.5v-9.3l5,4.9v8.4H16l-6.7-7
		C9.1,19.1,9,18.9,9,18.6C9,18.3,9.1,18.1,9.3,17.9L9.3,17.9z M7,6.9h1.2v3L6.4,11L5.8,9.9L7,9.2L7,6.9z M7.6,5C5.1,5,3.1,7,3.1,9.5
		s2,4.5,4.5,4.5c2.5,0,4.5-2,4.5-4.5c0,0,0,0,0,0C12.1,7,10.1,5,7.6,5z M10.9,9.5c0,1.8-1.5,3.3-3.3,3.3c-1.8,0-3.3-1.5-3.3-3.3
		c0-1.8,1.5-3.3,3.3-3.3c0,0,0,0,0,0C9.4,6.2,10.9,7.7,10.9,9.5z"/>
</g>
</svg>
