<?xml version="1.0" encoding="utf-8"?>
<!-- Generator: Adobe Illustrator 26.4.1, SVG Export Plug-In . SVG Version: 6.00 Build 0)  -->
<svg version="1.1" id="Layer_1" xmlns="http://www.w3.org/2000/svg" xmlns:xlink="http://www.w3.org/1999/xlink" x="0px" y="0px"
	 viewBox="0 0 32 23.9" style="enable-background:new 0 0 32 23.9;" xml:space="preserve">
<style type="text/css">
	.st0{fill:#FFFFFF;}
</style>
<path class="st0" d="M14.5,7.7l-6.1,3.6v-7L14.5,7.7z M27.9,12.4h-1.7c1,1.3,1.6,2.8,1.6,4.4c0,3.9-3.2,7.1-7.1,7.1
	s-7.3-3.1-7.3-7.1c0-0.5,0-0.9,0.1-1.4H0V0h21.9v9.8c0.7,0.1,1.4,0.4,2.1,0.7l0.4,0.2L23,12.1L22.8,12c-0.7-0.3-1.5-0.5-2.2-0.5
	c-2.9,0-5.3,2.4-5.3,5.3s2.4,5.3,5.3,5.3s5.3-2.4,5.3-5.3c0-1.2-0.4-2.2-1.1-3.1l-0.5,0.5c0.5,0.8,0.8,1.7,0.8,2.7
	c0,2.5-2.1,4.6-4.6,4.6s-4.6-2.1-4.6-4.6s2.1-4.6,4.6-4.6c0.5,0,1,0.1,1.5,0.2l0.5,0.2L21,14.2h-0.2c-0.1,0-0.2,0-0.3,0
	c-1.5,0-2.8,1.2-2.8,2.8c0,1.5,1.2,2.8,2.8,2.8c1.5,0,2.8-1.2,2.8-2.8c0-0.5-0.1-0.9-0.3-1.3l-0.5,0.5c0.1,0.2,0.2,0.5,0.2,0.8
	c0,1.1-0.9,2.1-2.1,2.1c-1.1,0-2.1-0.9-2.1-2.1c0-1.1,0.9-2.1,2.1-2.1c0.2,0,0.4,0,0.5,0.1l3.7-3.7V9.5l4.1-4.1v3.1H32L27.9,12.4z
	 M14.2,13.5c1.1-2.1,3.2-3.6,5.7-3.8V1.9h-18v11.5h12.3V13.5z"/>
</svg>
