<?xml version="1.0" encoding="utf-8"?>
<!-- Generator: Adobe Illustrator 26.4.1, SVG Export Plug-In . SVG Version: 6.00 Build 0)  -->
<svg version="1.1" id="Layer_1" xmlns="http://www.w3.org/2000/svg" xmlns:xlink="http://www.w3.org/1999/xlink" x="0px" y="0px"
	 viewBox="0 0 33.9 29.6" style="enable-background:new 0 0 33.9 29.6;" xml:space="preserve">
<style type="text/css">
	.st0{fill:#FFFFFF;}
</style>
<path class="st0" d="M33.9,13.9h-3.1v-3.1l-4.1,4.1v1.8L23,20.4c-0.2,0-0.3-0.1-0.5-0.1c-1.1,0-2.1,0.9-2.1,2.1s0.9,2.1,2.1,2.1
	s2.1-0.9,2.1-2.1c0-0.3-0.1-0.6-0.2-0.8l0.5-0.5c0.2,0.4,0.3,0.8,0.3,1.3c0,1.5-1.2,2.8-2.8,2.8s-2.8-1.2-2.8-2.8s1.2-2.8,2.8-2.8
	c0.1,0,0.2,0,0.3,0h0.2l1.5-1.3l-0.5-0.2c-0.5-0.2-1-0.2-1.5-0.2c-2.5,0-4.6,2.1-4.6,4.6s2.1,4.6,4.6,4.6S27,25,27,22.5
	c0-1-0.3-1.9-0.9-2.7l0.5-0.5c0.7,0.9,1.1,2,1.1,3.1c0,2.9-2.4,5.3-5.3,5.3s-5.3-2.4-5.3-5.3s2.4-5.3,5.3-5.3c0.8,0,1.5,0.2,2.2,0.5
	l0.2,0.1l1.4-1.4l-0.4-0.2c-1-0.5-2.1-0.8-3.2-0.9c0-0.1,0-0.1,0-0.2l2.6-2.6l0.5-3l1.9-1.9L20.1,0L18,2.1l-4.2,0.8L9.6,2.1L7.5,0
	L0,7.5l1.9,1.9l0.5,3L10,20c0.9,0.9,2.4,0.9,3.3,0c0.1-0.1,0.2-0.2,0.2-0.3l1.2,1.2c0.1,0.1,0.3,0.2,0.5,0.4
	c-0.1,0.4-0.1,0.7-0.1,1.1c0,3.9,3.2,7.2,7.2,7.2c0.1,0,0.2,0,0.3,0l0,0l0,0c1.5-0.1,2.8-0.6,3.9-1.4l0,0c0.2-0.2,0.4-0.3,0.6-0.5
	l0,0c1.4-1.3,2.2-3.1,2.2-5.2c0-1.6-0.6-3.2-1.6-4.4h1.7L33.9,13.9z M30.4,14.3L30.4,14.3L30.4,14.3L30.4,14.3L30.4,14.3z M14.1,4.9
	L19,4l1.1-1.1l4.8,4.8l-1,1l-0.5,3l-1.9,1.9l-7.4-7.4H14l0,0l-3.6,0.6c-0.2,0-0.3,0-0.5-0.1C9.8,6.6,9.7,6.5,9.6,6.3
	C9.5,6,9.8,5.7,10.1,5.6l3.7-0.7H14.1z M13.6,17l-0.2-0.2l-4.3-4.3l-1.4,1.4l4.4,4.4c0.2,0.2,0.2,0.4,0,0.5s-0.4,0.2-0.5,0l-7.2-7.2
	l-0.5-3l-1-1l4.8-4.8l1.1,1.1H9C8.2,4.4,7.7,5.5,7.9,6.5C8,7.2,8.4,7.8,9,8.1c0.5,0.3,1,0.5,1.5,0.4l0,0L13.7,8l7.1,7.1
	c0.1,0.1,0.1,0.2,0.1,0.3c-0.2,0.1-0.5,0.1-0.7,0.2l-6.3-6.3l-1.1,1.1l-0.4,0.5l5.8,5.8c-0.2,0.2-0.4,0.3-0.6,0.5l-5.3-5.3l-1.4,1.4
	l5.5,5.5c-0.1,0.2-0.3,0.4-0.4,0.7L13.6,17z"/>
</svg>
