<?xml version="1.0" encoding="utf-8"?>
<!-- Generator: Adobe Illustrator 26.4.1, SVG Export Plug-In . SVG Version: 6.00 Build 0)  -->
<svg version="1.1" id="Layer_1" xmlns="http://www.w3.org/2000/svg" xmlns:xlink="http://www.w3.org/1999/xlink" x="0px" y="0px"
	 viewBox="0 0 25 30.6" style="enable-background:new 0 0 25 30.6;" xml:space="preserve">
<style type="text/css">
	.st0{fill:#FFFFFF;}
</style>
<path class="st0" d="M25,26.9v-18H0v18h8v1.3H5.8v2.4h13.4v-2.4H17v-1.3H25z M22.8,11.1v13.6H2.2V11.1H22.8z M13.6,3.9
	c0,0.6-0.5,1.1-1.1,1.1s-1.1-0.5-1.1-1.1s0.5-1.1,1.1-1.1S13.6,3.3,13.6,3.9z M19.5,3.3c-2.2-2.1-4.6-3.3-7-3.3s-4.7,1.2-7,3.3
	L4.9,3.9l0.6,0.6c2.2,2.1,4.6,3.3,7,3.3s4.7-1.2,7-3.3l0.6-0.6L19.5,3.3z M14.6,3.9c0,1.2-1,2.1-2.1,2.1s-2.1-1-2.1-2.1
	s1-2.1,2.1-2.1S14.6,2.7,14.6,3.9z M16.1,2.8c0.5,0.3,1,0.7,1.5,1.1c-0.5,0.4-1,0.8-1.5,1.1c0.1-0.4,0.2-0.7,0.2-1.1
	S16.2,3.2,16.1,2.8z M8.8,4.9c-0.5-0.3-0.9-0.6-1.4-1c0.5-0.4,0.9-0.7,1.4-1c-0.1,0.3-0.1,0.7-0.1,1S8.7,4.6,8.8,4.9z M19.6,16.4
	l-0.2,0.4l0.4-0.1l-0.6,0.7c0,1.1-0.8,2.1-2.2,2.1c-0.4,0-0.8-0.1-1.2-0.3l-0.5-0.3l0.6,0.1c0.1,0,0.2,0,0.2,0c0.1,0,0.1,0,0.2,0
	l0,0c0.1,0,0.1,0,0.1,0c0.1,0,0.1,0,0.2-0.1c-0.3-0.2-0.6-0.5-0.7-0.8c-0.2-0.6,0-1.3,0.1-1.4l0,0l0,0l0.2-0.5v0.5
	c0.3,0.4,0.8,0.6,1.2,0.7l0,0c0-0.5,0.4-0.8,0.8-0.8c0.2,0,0.4,0.1,0.6,0.2L19.6,16.4z M17.6,13.9c-2.2,0-4,1.8-4,4s1.8,4,4,4
	s4-1.8,4-4S19.8,13.9,17.6,13.9z M20.4,17.8c0,1.6-1.3,2.8-2.8,2.8c-1.6,0-2.8-1.3-2.8-2.8c0-1.6,1.3-2.8,2.8-2.8
	C19.2,15,20.4,16.3,20.4,17.8z M7.5,13.9c-2.2,0-4,1.8-4,4s1.8,4,4,4s4-1.8,4-4S9.7,13.9,7.5,13.9z M7.9,20.6v-2.2h0.7v-0.9H7.9l0,0
	c0-0.2,0.1-0.4,0.5-0.4c0.1,0,0.1,0,0.1,0h0.1v-1H8.5c0,0-0.1,0-0.3,0c-0.4,0-1.5,0.1-1.5,1.4l0,0H6.3v0.9h0.4v2.1
	c-1.3-0.3-2.2-1.4-2.2-2.7c0-1.6,1.3-2.8,2.8-2.8s2.8,1.3,2.8,2.8C10.3,19.2,9.3,20.4,7.9,20.6z"/>
</svg>
