<?xml version="1.0" encoding="utf-8"?>
<!-- Generator: Adobe Illustrator 26.4.1, SVG Export Plug-In . SVG Version: 6.00 Build 0)  -->
<svg version="1.1" id="Layer_1" xmlns="http://www.w3.org/2000/svg" xmlns:xlink="http://www.w3.org/1999/xlink" x="0px" y="0px"
	 viewBox="0 0 26.7 32.1" style="enable-background:new 0 0 26.7 32.1;" xml:space="preserve">
<style type="text/css">
	.st0{fill:#FFFFFF;}
</style>
<path class="st0" d="M18.8,19.9H16v-2.8h2.8V19.9z M19.8,27.2L19,26.4l-1,1l2.1,2l2.6-3.6l-1.2-0.9L19.8,27.2z M9.8,2.6L10,2.5
	L9,1.8L10.3,0l4,2.9L11.5,7L9.7,5.7l0.7-1.1L8.8,5.3c-1,0.4-1.8,1-2.6,1.6L5.5,7.6C5.4,7.7,5.3,7.8,5.1,8L4.8,8.3
	C4.7,8.4,4.6,8.5,4.5,8.6c-0.6,0.8-1,1.6-1.4,2.4C3,11.2,3,11.3,2.9,11.4l-0.1,0.5c0,0.1-0.1,0.2-0.1,0.3v0.1
	c-0.1,0.2-0.1,0.3-0.1,0.4c-0.2,0.9-0.3,1.8-0.3,2.7c0,0.2,0,0.4,0,0.5v0.5c0,0.1,0,0.3,0,0.4c0.1,1,0.4,1.8,0.7,2.7
	c0.3,0.7,0.6,1.2,0.8,1.6c0.4,0.7,0.9,1.3,1.3,1.8V8.1h12.7l4.1,4.1V22c0.1,0,0.3,0.1,0.4,0.2c1.5-1.9,2.2-4.3,2.2-6.7
	c0-3-1.2-5.8-3.3-7.9c-1-1-2.2-1.8-3.5-2.4c-0.4-0.2-1-0.4-1.4-0.5l-0.5-0.1l0.6-2.1l0.5,0.1c0.6,0.2,1.2,0.4,1.7,0.6
	c1.6,0.7,3,1.6,4.2,2.8c2.5,2.5,3.9,5.9,3.9,9.4c0,2.9-0.9,5.6-2.6,7.9c0.9,0.9,1.5,2.2,1.5,3.6c0,2.9-2.3,5.2-5.2,5.2
	c-1.2,0-2.3-0.4-3.2-1.1l0,0c-0.3-0.2-0.5-0.4-0.7-0.7c-0.1-0.1-0.2-0.2-0.3-0.3s-0.1-0.2-0.2-0.3c0-0.1-0.1-0.1-0.1-0.2H5.2v-3.6
	c-0.1-0.1-0.2-0.2-0.3-0.2l-0.2-0.1l-0.1-0.1l-0.2-0.2c-0.1-0.1-0.3-0.2-0.4-0.4l-0.1-0.1c-0.7-0.7-1.4-1.6-2-2.5
	c-0.1-0.2-0.2-0.3-0.3-0.5l-0.2-0.4c-0.1-0.2-0.1-0.3-0.2-0.4l-0.1-0.2C1,20.7,1,20.5,0.9,20.4c-0.4-1.1-0.7-2.1-0.8-3.2
	c0-0.3-0.1-0.4-0.1-0.6v-0.2V16c0-0.2,0-0.3,0-0.5v-0.1c0-1,0.1-2.1,0.4-3.2c0.1-0.2,0.1-0.4,0.1-0.5l0.3-1c0.1-0.2,0.1-0.4,0.2-0.5
	c0.5-1.1,1-2,1.6-2.8l0.1-0.1C2.8,7.2,2.9,7,3,6.9l0.4-0.5c0.1-0.2,0.3-0.3,0.4-0.5l0.1-0.1L4,5.7l0.3-0.3l0.1-0.1l0.8-0.7l0.1-0.1
	l0.4-0.3C5.8,4.1,6,4,6.1,4l0.1-0.1l0.1-0.1c0.1-0.1,0.2-0.1,0.3-0.2l0.1-0.1l0.1-0.1l0.6,0.1h0.1l0.4-0.2c0.2-0.1,0.3-0.1,0.4-0.2
	h0.1L8.6,3L9,2.9l0.2-0.1L9.8,2.6L9.8,2.6z M4.6,7.8L4.6,7.8L4.6,7.8L4.6,7.8z M23.5,26.9c0-1.7-1.4-3.1-3.1-3.1s-3.1,1.4-3.1,3.1
	s1.4,3.1,3.1,3.1S23.5,28.6,23.5,26.9z M15.3,27.4c0-0.1,0-0.3,0-0.4c0-2.6,1.9-4.7,4.5-5.1l0.1-0.1v-8.2h-3.5v-3.5H7.3v17.4
	L15.3,27.4L15.3,27.4z M12,19.9h2.8v-2.8H12V19.9z M8,19.9h2.8v-2.8H8V19.9z"/>
</svg>
