<?xml version="1.0" encoding="utf-8"?>
<!-- Generator: Adobe Illustrator 26.4.1, SVG Export Plug-In . SVG Version: 6.00 Build 0)  -->
<svg version="1.1" id="Layer_1" xmlns="http://www.w3.org/2000/svg" xmlns:xlink="http://www.w3.org/1999/xlink" x="0px" y="0px"
	 viewBox="0 0 28.8 26.7" style="enable-background:new 0 0 28.8 26.7;" xml:space="preserve">
<style type="text/css">
	.st0{fill:#FFFFFF;}
</style>
<path class="st0" d="M26,17c0.4-1.3,0.6-2.5,0.6-3.8c0-6.9-5.4-12.7-12.3-13.2h-0.8c-0.1,0-0.1,0-0.4,0h-0.7l0,0
	C5.4,0.5,0,6.2,0,13.2c0,6.9,5.4,12.7,12.3,13.2h0.5c0.3,0,0.6,0,1,0h0.5l0,0c1.9-0.1,3.6-0.7,5.3-1.6c1,1.2,2.4,1.9,4,1.9
	c2.9,0,5.2-2.3,5.2-5.2C28.8,19.6,27.7,17.9,26,17z M16.2,20.1c-0.6,1.1-1.2,2-1.8,2.8v-2.8H16.2z M18.7,6.3
	c-0.7-1.5-1.5-2.7-2.2-3.8c2.2,0.6,4.2,2,5.6,3.8H18.7z M23.6,18.5c1.7,0,3.1,1.4,3.1,3.1s-1.4,3.1-3.1,3.1s-3.1-1.4-3.1-3.1
	S21.9,18.5,23.6,18.5z M18.1,14.3c-0.1,1.2-0.4,2.4-0.9,3.6h-2.8v-3.6H18.1z M24.3,14.3c-0.1,0.7-0.2,1.4-0.4,2.1
	c-0.1,0-0.2,0-0.3,0c-1.4,0-2.6,0.5-3.6,1.5h-0.4c0.4-1.2,0.7-2.4,0.8-3.6H24.3z M20.3,12.1c-0.1-1.2-0.4-2.4-0.8-3.6h3.8
	c0.5,1.1,0.9,2.3,1,3.6H20.3z M14.4,12.1V8.5h2.8c0.5,1.2,0.8,2.4,0.9,3.6H14.4z M18.6,22.9c-0.7,0.4-1.4,0.7-2.1,0.9
	c0.7-1,1.4-2.2,2.1-3.5c-0.1,0.4-0.2,0.8-0.2,1.3C18.4,22,18.5,22.4,18.6,22.9z M16.2,6.3h-1.8V3.5C15,4.3,15.6,5.2,16.2,6.3z
	 M10.4,20.1h1.8v2.8C11.6,22.1,11,21.1,10.4,20.1z M7.1,17.9H3.3c-0.5-1.1-0.9-2.3-1-3.6h4C6.4,15.4,6.7,16.7,7.1,17.9z M2.3,12.1
	c0.1-1.3,0.5-2.5,1-3.6h3.8c-0.4,1.2-0.7,2.4-0.8,3.6H2.3z M8,20.1c0.7,1.5,1.5,2.8,2.2,3.8c-2.2-0.6-4.2-2-5.6-3.8
	C4.6,20.1,8,20.1,8,20.1z M12.2,14.3v3.6H9.4c-0.5-1.2-0.8-2.4-0.9-3.6H12.2z M4.6,6.3C6,4.5,8,3.2,10.2,2.5C9.5,3.5,8.7,4.8,8,6.3
	H4.6z M12.2,8.5v3.6H8.5c0.1-1.2,0.4-2.4,0.9-3.6H12.2z M12.2,3.5v2.8h-1.8C11,5.2,11.6,4.3,12.2,3.5z M24.8,20.8v-0.4
	c0-0.3-0.1-0.6-0.4-0.9c-0.2-0.2-0.5-0.4-0.9-0.4c-0.7,0-1.2,0.6-1.2,1.2v0.4h-0.2v2.5H25v-2.5L24.8,20.8L24.8,20.8z M23,20.4
	c0-0.3,0.3-0.6,0.6-0.6c0.2,0,0.3,0.1,0.4,0.2c0.1,0.1,0.2,0.2,0.2,0.4v0.4h-1.1v-0.4H23z"/>
</svg>
