<?xml version="1.0" encoding="UTF-8"?><svg id="Layer_1" xmlns="http://www.w3.org/2000/svg" viewBox="0 0 43.2 43.2"><defs><style>.cls-1{fill:#fff;}</style></defs><path class="cls-1" d="M15.2,30.66l-.77-2.36h.64v-.56h-2.66v-.21h-.21v-.35h-.56v.35h-.21v.21h-2.63v.56h.64l-.77,2.36h-.26c0,.62,.6,1.12,1.34,1.12s1.34-.5,1.34-1.12h-.28l-.77-2.36h1.39v.2h.21v4.15h-1.46v.56s3.48,0,3.48,0v-.56s-1.46,0-1.46,0v-4.15h.21v-.2h1.41l-.77,2.36h-.27c0,.62,.6,1.12,1.34,1.12s1.34-.5,1.34-1.12h-.27Zm-5.93,0l.48-1.48,.48,1.48h-.96Zm4.38,0l.48-1.48,.48,1.48h-.96Zm1.96-11.32c.04,.48,.2,1.6,1.62,1.71,.2,.02,.39,0,.57-.02,.52,1.24,2.61,1.92,3.97,.58,.1-.09,.25-.09,.35,0,.79,.78,2.51,1.08,3.74-.06,.07-.06,.17-.09,.26-.05,.69,.27,3.07,.61,4.08-.88,.11,.02,.2,.04,.31,.05,1.46,.12,1.86-.9,1.84-1.32-.52,.54-1.72-.07-1.41-1.24,.27-1,.59-1.1,.51-1.81-.09-.87-1.19-1.14-1.18-1.81,.01-.64,1.57-3.83-2.36-5.26-.16-.06-.29-.18-.37-.34-.25-.5-1.04-1.6-3.3-1.78-3.74-.3-4.33,1.93-4.6,2.17-.35,.32-1.25,.07-1.68,1.18-.37,.97,.32,1.21-.14,1.92-.42,.65-1.68,1.14-1.99,2.53-.42,1.93,1.09,2.3,1.13,3.61,.03,.82-.74,1.27-1.36,.81Zm11.35-8.81c.28,.96,.88,1.14,.79,1.76-.01,.08-.03,.16-.05,.23-.12,.5-.34,.9-.06,1.57,.32,.77,1.24,1.17,.89,2.43-.07,.25-.13,.51-.17,.77-.94,2.18-2.83,3.61-4.9,3.44-1.58-.13-2.91-1.16-3.71-2.66-.04-.29-.11-.59-.22-.91-1.64-4.94,6.13-3.37,7.43-6.62Zm6.93,14.01l-7.65-1.87-2.11,5.02-2.49-5.02-7.67,1.88c-.62-.22-1.28-.34-1.97-.34-3.28,0-5.96,2.67-5.96,5.96s2.67,5.96,5.96,5.96c2.19,0,4.1-1.19,5.13-2.95h20.03l-3.27-8.64Zm-17.75,7.05c-.21,.59-.53,1.13-.95,1.58-.8,.85-1.93,1.39-3.19,1.39-2.43,0-4.4-1.97-4.4-4.4s1.97-4.4,4.4-4.4c.5,0,.98,.1,1.43,.26,.51,.18,.98,.45,1.39,.79,.96,.81,1.59,2,1.59,3.35,0,.5-.1,.97-.26,1.42Zm-.22-5.89l4.86-1.19,1.93,3.88,1.54,3.09,1.34-3.18,1.59-3.77,5.55,1.35,2.1,5.71H17.77c.11-.46,.18-.93,.18-1.42,0-1.78-.79-3.37-2.03-4.47Z"/></svg>