<?xml version="1.0" encoding="UTF-8"?><svg id="Layer_1" xmlns="http://www.w3.org/2000/svg" viewBox="0 0 43.2 43.2"><defs><style>.cls-1{fill:#fff;}</style></defs><path class="cls-1" d="M26.87,12.02c-.43-1.42-1.84-2.01-2.52-2.29-.24-.1-.48-.26-.75-.43-.56-.36-1.2-.77-2-.77s-1.44,.41-2,.77c-.26,.17-.51,.33-.75,.43-.68,.28-2.09,.86-2.52,2.29-.37,1.22-.75,3.03,.16,4.68,.25,4.11,2.47,7.21,5.19,7.21s5.05-3.3,5.2-7.52c.7-1.57,.33-3.24,0-4.37Zm-1.62,3.92c0,3.43-1.63,6.32-3.57,6.32s-3.57-2.9-3.57-6.32c0-.83,.1-1.67,.29-2.44,.29,.34,.76,.82,1.51,.82,.88,0,1.58-.23,2.33-.47,.46-.15,.93-.3,1.49-.43l.31-.07c.33-.07,.64-.15,.84-.15,.24,.86,.37,1.8,.37,2.73Zm6.96,10.92l-.17-.4-7.63-2.77-.93,2.32-1.88-.9-1.88,.9-.93-2.32-7.69,2.79-2.2,8.18h25.41l-2.1-7.8Zm-7.93,1.19l.99-2.46,5.59,2.03,1.49,5.53h-9.46l.32-1.91-.98-2.5h.53l.25-1.3,1.26,.6Zm-11.94-.43l5.59-2.03,.99,2.46,1.26-.6,.23,1.29h.53l-.95,2.5,.32,1.91H10.85l1.49-5.53Z"/></svg>