<?xml version="1.0" encoding="UTF-8"?><svg id="Layer_1" xmlns="http://www.w3.org/2000/svg" viewBox="0 0 43.2 43.2"><defs><style>.cls-1{fill:#fff;}</style></defs><path class="cls-1" d="M14.14,30.6c-.16-.24-.38-.43-.68-.59-.29-.16-.63-.27-1.03-.34v-1.53c.24,.06,.42,.16,.57,.31,.15,.15,.23,.35,.24,.61h1.12c0-.33-.09-.64-.25-.91-.16-.27-.39-.49-.68-.67-.29-.17-.62-.28-1-.33v-.55h-.69v.54c-.37,.03-.7,.13-.98,.29-.29,.16-.51,.37-.67,.62-.16,.25-.24,.53-.24,.82,0,.47,.18,.83,.54,1.08,.36,.25,.81,.44,1.35,.57v1.58c-.26-.06-.48-.18-.65-.36-.17-.18-.26-.41-.27-.71h-1.09c-.01,.61,.18,1.08,.57,1.42,.39,.34,.87,.55,1.44,.63v.64h.69v-.61c.41-.02,.76-.11,1.05-.26,.29-.15,.52-.34,.67-.59,.15-.25,.23-.53,.23-.84s-.08-.6-.24-.83Zm-2.39-1.09c-.27-.07-.48-.16-.62-.26-.14-.1-.21-.24-.21-.42,0-.12,.03-.24,.1-.34,.06-.1,.16-.19,.28-.26,.12-.07,.27-.11,.45-.13v1.42Zm1.32,2.42c-.16,.12-.37,.19-.64,.22v-1.46c.19,.06,.35,.12,.48,.18,.13,.07,.23,.15,.3,.24,.07,.1,.1,.21,.1,.34,0,.2-.08,.35-.24,.47Z"/><g><path class="cls-1" d="M24.39,22.44c2.77,0,5.04-3.29,5.19-7.51,.7-1.56,.33-3.24,0-4.36-.43-1.42-1.84-2-2.52-2.28-.23-.1-.48-.26-.74-.43-.56-.36-1.19-.77-2-.77s-1.44,.41-2,.77c-.26,.17-.51,.33-.74,.43-.68,.28-2.09,.86-2.52,2.28-.37,1.22-.74,3.02,.16,4.67,.25,4.11,2.47,7.19,5.18,7.19Zm-3.27-10.39c.29,.34,.76,.82,1.51,.82,.88,0,1.58-.23,2.33-.47,.46-.15,.93-.3,1.49-.43l.31-.07c.33-.07,.64-.14,.84-.15,.24,.86,.37,1.8,.37,2.73,0,3.42-1.63,6.31-3.56,6.31s-3.56-2.89-3.56-6.31c0-.83,.1-1.66,.29-2.44Z"/><path class="cls-1" d="M34.91,25.39l-.17-.4-7.61-2.77-.93,2.32-1.88-.9-1.88,.9-.93-2.32-6.95,2.53c-.74-.33-1.56-.52-2.42-.52-3.27,0-5.94,2.66-5.94,5.94s2.66,5.94,5.94,5.94c2.17,0,4.07-1.18,5.1-2.92h19.76l-2.09-7.79Zm-18.67,6.29c-.21,.56-.52,1.07-.93,1.5-.8,.84-1.92,1.37-3.17,1.37-2.42,0-4.39-1.97-4.39-4.38s1.97-4.38,4.39-4.38c.5,0,.97,.1,1.42,.26,.5,.17,.95,.43,1.35,.76,.98,.8,1.62,2.01,1.62,3.37,0,.54-.11,1.04-.29,1.52Zm6.8,0h-5.16c.13-.49,.2-.99,.2-1.52,0-1.74-.76-3.3-1.95-4.39l4.53-1.65,.98,2.46,1.26-.6,.23,1.29h.53l-.95,2.5,.32,1.91Zm1.92-4.4h.53l.25-1.29,1.26,.6,.98-2.46,5.58,2.03,1.49,5.52h-9.44l.32-1.91-.98-2.5Z"/></g></svg>