<?xml version="1.0" encoding="utf-8"?>
<!-- Generator: Adobe Illustrator 26.4.1, SVG Export Plug-In . SVG Version: 6.00 Build 0)  -->
<svg version="1.1" id="Layer_1" xmlns="http://www.w3.org/2000/svg" xmlns:xlink="http://www.w3.org/1999/xlink" x="0px" y="0px"
	 viewBox="0 0 32.5 27.5" style="enable-background:new 0 0 32.5 27.5;" xml:space="preserve">
<style type="text/css">
	.st0{fill:#FFFFFF;}
</style>
<path class="st0" d="M10.2,14.6h1.1v4h-1.1V14.6z M10.4,9.5l0.5,0.5l0.4,0.4h0.6h0.7c0.3,0.4,0.5,0.9,0.5,1.4c0,1.3-1.1,2.4-2.4,2.4
	c-1.3,0-2.4-1.1-2.4-2.4C8.4,10.7,9.3,9.7,10.4,9.5z M9.5,11.9c0,0.7,0.6,1.2,1.2,1.2c0.7,0,1.2-0.6,1.2-1.2c0-0.7-0.6-1.2-1.2-1.2
	C10.1,10.6,9.5,11.2,9.5,11.9z M21.5,10.5h-1.1v3.4h1.1V10.5z M14.7,10.5h-1.1v3.4h1.1V10.5z M17,18.6h1.1v-4H17V18.6z M15.2,11.9
	c0-0.5,0.2-1,0.5-1.4h3.8c0.3,0.4,0.5,0.9,0.5,1.4c0,1.3-1.1,2.4-2.4,2.4C16.3,14.2,15.2,13.2,15.2,11.9z M16.3,11.9
	c0,0.7,0.6,1.2,1.2,1.2c0.7,0,1.2-0.6,1.2-1.2c0-0.7-0.6-1.2-1.2-1.2C16.9,10.6,16.3,11.2,16.3,11.9z M23.7,14.1v-1.3
	c-0.3-0.2-0.5-0.6-0.5-1s0.2-0.8,0.5-1v-0.4h-1.2c-0.3,0.4-0.5,0.9-0.5,1.4C22,12.9,22.7,13.8,23.7,14.1z M16.5,16.6
	c0,1.3-1.1,2.4-2.4,2.4s-2.4-1.1-2.4-2.4s1.1-2.4,2.4-2.4C15.5,14.3,16.5,15.3,16.5,16.6z M15.4,16.6c0-0.7-0.6-1.2-1.2-1.2
	c-0.7,0-1.2,0.6-1.2,1.2c0,0.7,0.6,1.2,1.2,1.2C14.9,17.9,15.4,17.3,15.4,16.6z M23.3,16.6c0,1.3-1.1,2.4-2.4,2.4s-2.4-1.1-2.4-2.4
	s1.1-2.4,2.4-2.4C22.3,14.3,23.3,15.3,23.3,16.6z M22.2,16.6c0-0.7-0.6-1.2-1.2-1.2c-0.7,0-1.2,0.6-1.2,1.2c0,0.7,0.6,1.2,1.2,1.2
	C21.7,17.9,22.2,17.3,22.2,16.6z M10.8,19c-1.2,0-2.1,0.8-2.3,1.9h1.1c0.2-0.5,0.6-0.8,1.1-0.8s1,0.3,1.1,0.8H13
	C12.9,19.8,11.9,19,10.8,19z M4.6,19.1v1.3C4.8,20.5,5,20.7,5.1,21h1.2C6.1,20,5.4,19.3,4.6,19.1z M13.6,20.9h1.1v-1.5h-1.1V20.9z
	 M20.4,20.9h1.1v-1.5h-1.1V20.9z M6.8,20.9h1.1v-1.5H6.8V20.9z M7.4,14.3c1.3,0,2.4,1.1,2.4,2.4s-1.1,2.4-2.4,2.4S5,18,5,16.7
	C5,15.3,6.1,14.3,7.4,14.3z M6.1,16.6c0,0.7,0.6,1.2,1.2,1.2c0.7,0,1.2-0.5,1.2-1.2c0-0.7-0.6-1.2-1.2-1.2C6.7,15.4,6.1,16,6.1,16.6
	z M17.6,19c-1.2,0-2.1,0.8-2.3,1.9h1.2c0.2-0.5,0.6-0.8,1.1-0.8s1,0.3,1.1,0.8h1.2C19.7,19.8,18.7,19,17.6,19z M7.9,9.8H6.8v4h1.1
	V9.8z M6.3,11.9c0-1.1-0.7-2-1.7-2.3v1.3c0.3,0.2,0.6,0.6,0.6,1s-0.2,0.8-0.6,1v1.3C5.6,13.8,6.3,12.9,6.3,11.9z M7.4,9.5
	c0.8,0,1.5-0.4,2-1L9,8.1H8.1C7.9,8.2,7.7,8.4,7.4,8.4S6.9,8.3,6.7,8.1H5.3C5.6,8.9,6.4,9.5,7.4,9.5z M28.6,21.3v3h-3.4v-2.9h0.3V21
	c0-0.8,0.6-1.4,1.4-1.4c0.4,0,0.7,0.1,1,0.4s0.4,0.6,0.4,1v0.4L28.6,21.3L28.6,21.3z M26.4,21.3h1.1v-0.4c0-0.1-0.1-0.3-0.2-0.4
	c-0.1-0.1-0.2-0.2-0.4-0.2c-0.3,0-0.5,0.2-0.5,0.6C26.4,20.9,26.4,21.3,26.4,21.3z M31.9,19.9V2.5H14.1L11.6,0H2.5v2.6h2.2V2.2h6
	l2.5,2.5h16.5v12.8c-0.5-0.3-1-0.5-1.6-0.6V6.5H12.3L9.6,3.8H0v21.1h22.3c1,1.6,2.8,2.6,4.7,2.6c3,0,5.5-2.5,5.5-5.5
	C32.4,21.3,32.2,20.6,31.9,19.9z M22.6,18.7c-0.4,0.4-0.6,0.9-0.8,1.4c-0.3,1-0.3,1.3-0.3,1.4v0.2c0,0.1,0,0.3,0,0.4
	c0,0.2,0,0.3,0,0.5H2.3V6.2h6.4l2.7,2.7h14.4v7.9c-0.8,0.2-1.5,0.5-2.2,1C23,18.3,22.7,18.7,22.6,18.7z M26.9,25.4
	c-1.8,0-3.3-1.5-3.3-3.3s1.5-3.3,3.3-3.3s3.3,1.5,3.3,3.3S28.7,25.4,26.9,25.4z"/>
</svg>
