<?xml version="1.0" encoding="UTF-8"?><svg id="Layer_1" xmlns="http://www.w3.org/2000/svg" viewBox="0 0 43.2 43.2"><defs><style>.cls-1{fill:#fff;}</style></defs><path class="cls-1" d="M24.95,19.34c-.14-.08-.29-.15-.44-.22-.04-.02-.08-.03-.11-.04,0-.04,.01-.08,.02-.12,.04-.3,.05-.61,0-.92-.06-.51-.24-1.02-.51-1.45-.54-.87-1.47-1.48-2.49-1.63l-.19-.03v.55c0,.17,.18,.21,.31,.23,.31,.1,.59,.28,.82,.51,.44,.44,.66,1.08,.59,1.7-.02,.19-.07,.37-.14,.54-.56-.42-1.24-.66-1.94-.66s-1.36,.22-1.91,.63c-.13-.32-.17-.67-.13-1.02,.06-.51,.33-.98,.72-1.32,.24-.2,.53-.35,.83-.43,.14-.03,.2-.14,.18-.35v-.4l-.19,.03c-1.35,.2-2.51,1.21-2.89,2.52-.1,.34-.15,.69-.14,1.05,0,.19,.02,.39,.06,.58-.04,.01-.07,.03-.11,.04-.12,.05-.23,.1-.34,.16-.62,.34-1.15,.86-1.47,1.49-.47,.9-.53,2-.15,2.94l.07,.18,.45-.26c.12-.07,.15-.16,.1-.31-.04-.14-.06-.28-.06-.42-.02-.38,.07-.78,.27-1.13,.31-.55,.87-.92,1.5-1.01,0,.08,0,.16,0,.24,0,1.32,.8,2.49,2.01,2.98-.14,.21-.32,.39-.52,.52-.51,.35-1.17,.45-1.76,.28-.3-.09-.58-.25-.83-.47-.09-.1-.19-.21-.32-.13l-.49,.28,.12,.15c.68,.86,1.72,1.34,2.79,1.34,.35,0,.69-.05,1.03-.16,.37-.12,.72-.29,1.04-.52,.07-.05,.14-.1,.21-.16,.02,.01,.03,.02,.05,.04,.17,.14,.36,.26,.55,.36,.63,.33,1.37,.47,2.08,.38,.92-.11,1.78-.59,2.35-1.32l.12-.15-.45-.26c-.12-.07-.23-.04-.34,.1-.09,.09-.2,.17-.3,.24-.56,.34-1.22,.42-1.8,.22-.41-.14-.77-.41-1.02-.77,1.17-.51,1.95-1.67,1.95-2.96,0-.09,0-.19-.01-.28,.87,.11,1.61,.77,1.8,1.64,.07,.32,.05,.66-.04,.98-.03,.09-.02,.22,.19,.31l.37,.21,.07-.18c.64-1.62-.01-3.5-1.53-4.38Zm-3.14,3.05c.03-.17,.09-.34,.17-.49,.06-.12,.13-.23,.21-.33l.07-.09c.15-.17,.33-.33,.54-.47,.03-.02,.06-.04,.09-.05,0,.02,0,.05,0,.08,0,.77-.45,1.48-1.13,1.82,0-.15,0-.31,.04-.46Zm.26-2.99c-.4,.25-1.32,.66-2.35-.02,.69-.48,1.67-.47,2.35,.02Zm-2.04,3.47c-.71-.33-1.17-1.04-1.17-1.84,0-.02,0-.05,0-.07,.2,.09,.38,.22,.54,.37,.03,.03,.17,.19,.25,.28,.07,.09,.12,.19,.17,.29,.14,.29,.21,.61,.21,.97Zm-9.68-2.64c-.01,.22-.03,.44-.03,.67,0,.21,.02,.41,.03,.61h-2.74v-1.28h2.74Zm10.56-9.93c-.21,0-.42,.02-.64,.03v-2.73h1.28v2.73c-.21-.01-.42-.03-.64-.03Zm7.9,16.22c1.19-1.66,1.81-3.6,1.81-5.64,0-5.36-4.36-9.73-9.73-9.73s-9.73,4.36-9.73,9.73,4.36,9.73,9.73,9.73c2.04,0,3.98-.63,5.64-1.81l6.8,6.8,2.27-2.27-6.8-6.8Zm-7.94,1.79c-4.1,0-7.43-3.33-7.43-7.43s3.33-7.43,7.43-7.43,7.43,3.33,7.43,7.43-3.33,7.43-7.43,7.43Zm.04,3.18c.22,0,.43-.02,.64-.03v2.67h-1.28v-2.67c.21,.01,.42,.03,.64,.03Zm10.6-10.6c0-.23-.02-.45-.03-.67h2.66v1.28h-2.65c.01-.2,.03-.4,.03-.61Z"/></svg>