<?xml version="1.0" encoding="iso-8859-1"?>
<!-- Generator: Adobe Illustrator 26.4.1, SVG Export Plug-In . SVG Version: 6.00 Build 0)  -->
<svg version="1.1" id="White" xmlns="http://www.w3.org/2000/svg" xmlns:xlink="http://www.w3.org/1999/xlink" x="0px" y="0px"
	 viewBox="0 0 52.121 80" style="enable-background:new 0 0 52.121 80;" xml:space="preserve">
<path style="fill:#FFFFFF;" d="M16.616,73.88H35.6V80H16.616V73.88z M16.616,65.768v6.12H35.6v-6.12H16.616z M26.061,0
	C11.935,0,0,12.201,0,26.644c0,10.361,15.011,35.19,15.161,35.417l1.014,1.521h19.77l1.015-1.519
	c0.151-0.228,15.161-25.057,15.161-35.418C52.122,12.201,40.187,0,26.061,0z M32.268,56.749H19.854
	C15.222,49.402,6.831,32.264,6.831,26.644c0-10.738,8.807-19.811,19.23-19.811s19.23,9.073,19.23,19.811
	C45.291,32.265,36.9,49.404,32.268,56.749z M30.442,22.593c-1.03-1.162-2.445-1.851-3.989-1.948
	c-0.579-0.035-1.143,0.016-1.681,0.143c-2.424,0.572-4.299,2.678-4.46,5.29c-0.093,1.545,0.421,3.034,1.448,4.196
	c1.027,1.16,2.443,1.852,3.986,1.946c1.543,0.096,3.034-0.416,4.194-1.445c1.162-1.03,1.852-2.445,1.948-3.989
	C31.983,25.244,31.469,23.754,30.442,22.593z M27.927,28.498c-0.348,0.306-0.755,0.518-1.192,0.621
	c-0.26,0.061-0.531,0.084-0.804,0.068c-0.733-0.044-1.407-0.375-1.896-0.926c-0.487-0.553-0.733-1.261-0.688-1.994
	c0.044-0.735,0.375-1.409,0.927-1.899c0.551-0.487,1.259-0.732,1.994-0.688c1.517,0.092,2.678,1.405,2.585,2.922
	C28.809,27.337,28.48,28.009,27.927,28.498z M38.296,25.764c-0.005-0.152-0.016-0.303-0.027-0.453l3.18-2.1l-0.335-1.184
	c-0.527-1.816-1.374-3.508-2.517-5.025l-0.741-0.984l-3.565,1.289c-0.114-0.105-0.226-0.204-0.344-0.302l0.767-3.737l-1.073-0.596
	c-1.656-0.912-3.45-1.51-5.331-1.78l-1.22-0.169l-1.611,3.434c-0.152,0.005-0.303,0.016-0.453,0.027L22.919,11l-1.174,0.339
	c-1.808,0.522-3.5,1.366-5.029,2.514l-0.984,0.741l1.289,3.564c-0.105,0.114-0.204,0.229-0.302,0.344l-3.736-0.764l-0.596,1.073
	c-0.91,1.65-1.511,3.444-1.78,5.331l-0.169,1.22l3.434,1.611c0.005,0.152,0.016,0.303,0.027,0.453l-3.186,2.101l0.34,1.182
	c0.526,1.813,1.37,3.506,2.514,5.029l0.743,0.98l3.565-1.289c0.113,0.102,0.226,0.204,0.341,0.303l-0.764,3.737l1.073,0.596
	c1.652,0.91,3.443,1.508,5.327,1.775l1.225,0.177l1.608-3.436c0.155-0.006,0.306-0.017,0.456-0.028l2.099,3.18l1.184-0.335
	c1.816-0.527,3.508-1.374,5.025-2.517l0.984-0.741l-1.289-3.565c0.102-0.113,0.204-0.226,0.3-0.341l3.739,0.764l0.596-1.072
	c0.91-1.65,1.508-3.443,1.774-5.33l0.177-1.222L38.296,25.764z M36.694,31.658l-1.806-0.368l-1.282-0.262l-0.838,1.005
	c-0.068,0.081-0.14,0.161-0.214,0.242l-0.882,0.976l0.447,1.237l0.615,1.701c-0.922,0.637-1.921,1.137-2.971,1.489l-1.014-1.535
	l-0.728-1.068l-1.279,0.092l-0.317,0.02l-1.334,0.051l-0.566,1.209l-0.764,1.635c-1.101-0.202-2.158-0.554-3.152-1.049l0.369-1.802
	l0.259-1.265l-0.982-0.838l-0.264-0.235l-0.976-0.881l-1.236,0.447l-1.704,0.616c-0.634-0.921-1.133-1.918-1.486-2.973l1.534-1.012
	l1.072-0.707l-0.094-1.281c-0.008-0.108-0.016-0.216-0.02-0.326l-0.046-1.338l-1.212-0.569l-1.642-0.771
	c0.203-1.102,0.556-2.158,1.051-3.15l1.802,0.369l1.266,0.257l0.839-0.981c0.071-0.083,0.141-0.167,0.217-0.248l0.902-0.978
	l-0.452-1.251l-0.615-1.7c0.922-0.636,1.917-1.134,2.97-1.486l1.016,1.536l0.708,1.071l1.28-0.095
	c0.108-0.008,0.216-0.016,0.325-0.02l1.337-0.046l0.569-1.212l0.77-1.641c1.102,0.205,2.159,0.557,3.15,1.051l-0.37,1.802
	l-0.264,1.287l1.012,0.839c0.077,0.063,0.15,0.128,0.223,0.197l0.978,0.903l1.252-0.453l1.701-0.615
	c0.637,0.922,1.137,1.92,1.489,2.971l-1.535,1.014l-1.071,0.707l0.094,1.28c0.008,0.108,0.016,0.217,0.02,0.326l0.046,1.338
	l1.213,0.569l1.637,0.767C37.54,29.608,37.189,30.667,36.694,31.658z"/>
</svg>
