<?xml version="1.0" encoding="UTF-8"?><svg id="b" xmlns="http://www.w3.org/2000/svg" viewBox="0 0 1386.196 297.322"><defs><style>.d{fill:#fff;}</style></defs><g id="c"><rect class="d" x="763.352" width="3.794" height="253.112"/><g><path class="d" d="M667.55,38.424h-16.42S681.15,0,681.15,0h16.42l-30.02,38.424Z"/><g><g><path class="d" d="M407.083,13.721h-24.15V0h62.13V13.721h-23.271V77.938h-14.709V13.721Z"/><path class="d" d="M445.064,19.759h14.27v8.672c1.828-3.293,4.573-5.799,8.233-7.519,3.659-1.718,8.159-2.176,13.502-1.372v15.259c-3.586-1.244-7.063-1.482-10.428-.714-3.367,.769-6.092,2.415-8.178,4.94-2.086,2.525-3.128,5.617-3.128,9.276v29.638h-14.27V19.759Z"/><path class="d" d="M513.696,78.815c-5.489,0-10.538-1.353-15.148-4.061-4.61-2.707-8.233-6.367-10.867-10.977-2.634-4.611-3.952-9.586-3.952-14.929,0-5.489,1.353-10.538,4.062-15.148,2.706-4.611,6.367-8.25,10.977-10.922,4.61-2.67,9.586-4.007,14.929-4.007,4.756,0,9.202,1.062,13.337,3.183,4.134,2.124,7.61,5.05,10.428,8.782,2.816,3.732,4.665,7.867,5.543,12.404,.804,3.88,.84,7.538,.11,10.977h-45.226c.511,2.563,1.518,4.758,3.019,6.586,1.499,1.83,3.365,3.203,5.598,4.116,2.231,.916,4.628,1.372,7.19,1.372,2.78,0,5.506-.53,8.178-1.591,2.671-1.06,4.921-2.542,6.751-4.446l12.514,3.403c-2.343,4.611-6.111,8.307-11.306,11.087-5.197,2.782-10.576,4.171-16.136,4.171Zm15.478-35.566c-.513-2.121-1.482-4.098-2.909-5.928-1.427-1.828-3.221-3.274-5.379-4.336-2.159-1.06-4.593-1.591-7.3-1.591s-5.159,.532-7.355,1.591c-2.195,1.062-4.007,2.508-5.434,4.336-1.427,1.83-2.398,3.806-2.909,5.928h31.285Z"/><path class="d" d="M550.224,0h14.16V77.938h-14.16V0Z"/><path class="d" d="M574.879,0h14.16V77.938h-14.16V0Z"/><path class="d" d="M598.946,19.759h14.16v58.179h-14.16V19.759Z"/></g><polygon class="d" points="682.229 77.925 636.763 19.759 620.343 19.759 643.066 48.829 620.343 77.925 636.763 77.925 651.28 59.337 665.809 77.925 682.229 77.925"/></g></g><g><g><path class="d" d="M198.924,141.549h28.415v11.998c8.306-8.42,20.109-13.683,34.753-13.683,31.475,0,57.485,26.103,57.485,57.467,0,32.208-26.01,57.468-57.485,57.468-14.426,0-26.447-5.684-34.753-14.104v56.626h-28.415V141.549Zm93.986,55.783c0-17.682-14.207-32.838-33.441-32.838-18.579,0-33.879,15.156-33.879,32.838,0,17.472,15.081,32.84,33.879,32.84,19.016,0,33.441-15.157,33.441-32.84Z"/><path class="d" d="M328.756,219.856c-.219-23.998,18.36-34.522,46.774-34.522l34.097-.21v-5.894c0-11.788-11.147-16.419-25.354-16.419-11.147,0-22.295,2.947-25.573,13.472l-27.103,.21c.218-22.734,24.043-36.838,52.02-36.838,28.196,0,52.895,14.104,52.895,36.417v77.044h-26.885v-13.893c-5.027,6.105-17.923,15.577-37.376,15.577-17.267,0-43.496-6.947-43.496-34.943Zm80.872-15.156h-28.852c-16.83,0-24.699,6.947-23.606,15.787,1.093,9.473,10.492,11.788,17.486,11.788,16.83,0,34.972-11.999,34.972-27.576Z"/><path class="d" d="M454.215,141.549h28.415v12.42c7.432-7.999,18.797-14.315,34.316-14.315,25.355,0,48.305,16.63,48.305,44.627v68.834h-28.415v-61.677c0-16.419-11.803-26.313-25.573-26.313-17.267,0-28.633,13.472-28.633,30.523v57.468h-28.415v-111.567Z"/><path class="d" d="M576.618,197.332c0-32.417,26.01-57.677,57.485-57.677,14.645,0,26.447,5.473,34.753,14.104v-47.995h28.415V253.116h-28.415v-11.999c-8.306,8.209-19.89,13.683-34.753,13.683-31.474,0-57.485-26.313-57.485-57.468Zm94.205,0c0-17.682-15.3-32.838-33.879-32.838-19.234,0-33.66,15.156-33.66,32.838s14.426,32.629,33.66,32.629c18.36,0,33.879-14.946,33.879-32.629Z"/></g><polygon class="d" points="184.905 253.112 49.06 85.74 0 85.74 67.893 169.389 0 253.112 49.06 253.112 92.433 199.625 135.846 253.112 184.905 253.112"/><polygon class="d" points="91.987 139.45 141.046 139.45 230.741 28.885 181.682 28.885 91.987 139.45"/></g><g><path class="d" d="M833.229,254.415V32.65h12.99V242.043h118.769v12.372h-131.76Z"/><path class="d" d="M1016.718,48.192c-2.424,2.32-5.311,3.479-8.66,3.479s-6.186-1.159-8.506-3.479c-2.32-2.32-3.48-5.155-3.48-8.506s1.16-6.237,3.48-8.66c2.32-2.422,5.128-3.634,8.428-3.634,3.608,0,6.572,1.213,8.892,3.634,2.32,2.424,3.48,5.311,3.48,8.66s-1.214,6.186-3.634,8.506Zm-14.923,206.223V86.622h12.527V254.415h-12.527Z"/><path class="d" d="M1111.749,254.415l-66.807-167.793h13.918l65.262,165.009,65.262-165.009h13.918l-67.117,167.793h-24.435Z"/><path class="d" d="M1301.501,256.889c-23.816,0-44.024-8.428-60.622-25.285-16.6-16.857-24.898-37.32-24.898-61.395s8.298-44.512,24.898-61.318c16.598-16.803,36.807-25.207,60.622-25.207,22.371,0,41.47,7.604,57.297,22.81,15.824,15.209,24.821,33.791,26.986,55.751,.41,6.289,.514,10.414,.309,12.371h-157.122c.823,20.105,8.274,36.859,22.346,50.261,14.073,13.403,30.799,20.105,50.184,20.105,13.299,0,25.645-3.325,37.038-9.975,11.391-6.65,20.387-15.593,26.986-26.832l12.99,1.547c-7.012,14.126-17.424,25.517-31.239,34.177-13.817,8.66-29.073,12.99-45.775,12.99Zm-72.53-93.407h143.822c-1.445-19.176-8.892-35.259-22.346-48.25-13.454-12.99-29.77-19.485-48.946-19.485-19.384,0-36.009,6.495-49.874,19.485-13.867,12.991-21.419,29.074-22.655,48.25Z"/></g></g></svg>