<?xml version="1.0" encoding="UTF-8"?><svg id="b" xmlns="http://www.w3.org/2000/svg" viewBox="0 0 723.599 446.703"><defs><style>.d{fill:#fff;}</style></defs><g id="c"><g><path class="d" d="M692.091,39.837h-17.024S706.191,0,706.191,0h17.024l-31.124,39.837Z"/><g><g><path class="d" d="M422.048,14.226h-25.037V0h64.415V14.226h-24.127V80.803h-15.25V14.226Z"/><path class="d" d="M461.425,20.485h14.795v8.991c1.896-3.414,4.741-6.012,8.535-7.796,3.793-1.782,8.459-2.256,13.998-1.423v15.82c-3.718-1.289-7.323-1.537-10.812-.74-3.491,.797-6.316,2.504-8.479,5.121-2.162,2.618-3.243,5.824-3.243,9.617v30.728h-14.795V20.485Z"/><path class="d" d="M532.581,81.713c-5.69,0-10.925-1.403-15.705-4.211-4.78-2.806-8.535-6.601-11.267-11.381-2.731-4.78-4.097-9.939-4.097-15.478,0-5.69,1.403-10.926,4.211-15.705,2.806-4.78,6.601-8.553,11.381-11.324,4.78-2.768,9.938-4.154,15.478-4.154,4.931,0,9.54,1.101,13.828,3.3,4.286,2.202,7.89,5.235,10.812,9.105,2.92,3.869,4.837,8.157,5.747,12.86,.834,4.023,.871,7.815,.114,11.381h-46.888c.53,2.657,1.574,4.933,3.13,6.828,1.554,1.898,3.489,3.32,5.804,4.268,2.314,.95,4.798,1.423,7.454,1.423,2.883,0,5.708-.549,8.479-1.65,2.769-1.099,5.102-2.636,6.999-4.61l12.974,3.528c-2.429,4.78-6.336,8.612-11.722,11.495-5.388,2.884-10.965,4.324-16.73,4.324Zm16.047-36.873c-.532-2.199-1.536-4.248-3.016-6.145-1.479-1.895-3.339-3.395-5.577-4.496-2.239-1.099-4.762-1.65-7.568-1.65s-5.349,.551-7.625,1.65c-2.276,1.101-4.154,2.6-5.633,4.496-1.48,1.897-2.486,3.946-3.016,6.145h32.435Z"/><path class="d" d="M570.452,0h14.681V80.803h-14.681V0Z"/><path class="d" d="M596.013,0h14.681V80.803h-14.681V0Z"/><path class="d" d="M620.965,20.485h14.681v60.318h-14.681V20.485Z"/></g><polygon class="d" points="707.31 80.789 660.172 20.485 643.148 20.485 666.707 50.624 643.148 80.789 660.172 80.789 675.222 61.518 690.286 80.789 707.31 80.789"/></g></g><g><g><path class="d" d="M206.237,146.753h29.459v12.44c8.611-8.729,20.848-14.186,36.03-14.186,32.632,0,59.598,27.062,59.598,59.58,0,33.392-26.967,59.581-59.598,59.581-14.956,0-27.419-5.893-36.03-14.622v58.708h-29.459V146.753Zm97.441,57.833c0-18.332-14.729-34.045-34.671-34.045-19.262,0-35.124,15.713-35.124,34.045,0,18.114,15.636,34.047,35.124,34.047,19.715,0,34.671-15.714,34.671-34.047Z"/><path class="d" d="M340.842,227.939c-.227-24.88,19.035-35.792,48.494-35.792l35.351-.218v-6.111c0-12.221-11.557-17.023-26.286-17.023-11.557,0-23.114,3.055-26.513,13.968l-28.099,.218c.226-23.57,24.927-38.192,53.933-38.192,29.233,0,54.84,14.622,54.84,37.756v79.877h-27.873v-14.404c-5.212,6.329-18.582,16.15-38.75,16.15-17.902,0-45.095-7.202-45.095-36.228Zm83.845-15.713h-29.912c-17.449,0-25.607,7.202-24.474,16.368,1.133,9.821,10.877,12.222,18.129,12.222,17.449,0,36.257-12.44,36.257-28.59Z"/><path class="d" d="M470.913,146.753h29.459v12.876c7.705-8.294,19.488-14.841,35.577-14.841,26.287,0,50.081,17.241,50.081,46.268v71.365h-29.459v-63.945c0-17.023-12.237-27.28-26.513-27.28-17.902,0-29.686,13.968-29.686,31.645v59.581h-29.459v-115.668Z"/><path class="d" d="M597.816,204.586c0-33.609,26.967-59.798,59.598-59.798,15.183,0,27.42,5.674,36.031,14.622v-49.759h29.459v152.77h-29.459v-12.44c-8.611,8.511-20.622,14.186-36.031,14.186-32.631,0-59.598-27.28-59.598-59.581Zm97.668,0c0-18.332-15.863-34.045-35.124-34.045-19.941,0-34.898,15.713-34.898,34.045s14.956,33.829,34.898,33.829c19.035,0,35.124-15.496,35.124-33.829Z"/></g><polygon class="d" points="191.703 262.417 50.863 88.892 0 88.892 70.389 175.616 0 262.417 50.863 262.417 95.831 206.964 140.84 262.417 191.703 262.417"/><polygon class="d" points="95.368 144.576 146.232 144.576 239.224 29.946 188.361 29.946 95.368 144.576"/></g><g><path class="d" d="M341.535,295.955h11.877v137.973h79.465v11.072h-91.342v-149.045Z"/><path class="d" d="M463.107,310.433c-2.736,0-5.004-.921-6.802-2.768-1.801-1.843-2.699-4.115-2.699-6.814,0-2.555,.898-4.791,2.699-6.707,1.798-1.916,4.066-2.875,6.802-2.875,2.878,0,5.217,.925,7.018,2.768,1.798,1.846,2.699,4.119,2.699,6.814s-.901,4.97-2.699,6.814c-1.801,1.846-4.14,2.768-7.018,2.768Zm-6.046,21.718h11.877v112.849h-11.877v-112.849Z"/><path class="d" d="M489.451,332.151h12.74l42.109,109.655,41.892-109.655h12.74l-44.051,112.849h-21.379l-44.051-112.849Z"/><path class="d" d="M665.873,446.703c-10.798,0-20.66-2.589-29.583-7.772-8.929-5.181-15.981-12.244-21.162-21.186-5.183-8.943-7.774-18.807-7.774-29.596,0-10.503,2.591-20.155,7.774-28.957,5.181-8.8,12.271-15.826,21.269-21.08,8.994-5.25,18.821-7.878,29.476-7.878,9.932,0,19.074,2.342,27.424,7.027,8.348,4.684,15.187,10.965,20.515,18.843,5.324,7.878,8.493,16.575,9.5,26.083,.289,3.55,.358,6.956,.217,10.22h-104.515c.575,8.234,3.023,15.686,7.343,22.357,4.319,6.674,9.896,11.89,16.735,15.65,6.837,3.762,14.43,5.642,22.782,5.642,8.638,0,16.59-2.056,23.861-6.175,7.269-4.115,13.065-9.582,17.384-16.395l11.228,1.704c-4.751,9.512-11.877,17.14-21.377,22.89-9.502,5.748-19.868,8.624-31.096,8.624Zm45.562-63.664c-.721-7.948-3.131-15.118-7.233-21.505s-9.502-11.425-16.196-15.117c-6.694-3.69-14.144-5.536-22.35-5.536s-15.728,1.883-22.565,5.642c-6.839,3.763-12.382,8.803-16.628,15.117-4.248,6.318-6.732,13.451-7.45,21.399h92.422Z"/></g></g></svg>