<?xml version="1.0" encoding="UTF-8"?><svg id="a" xmlns="http://www.w3.org/2000/svg" viewBox="0 0 410.38 65.53"><defs><style>.b{fill:#fff;}</style></defs><path class="b" d="M19.94,11.79H0V.46H51.29V11.79h-19.21v53.01h-12.14V11.79Z"/><path class="b" d="M51.29,16.77h11.78v7.16c1.51-2.72,3.78-4.79,6.8-6.21,3.02-1.42,6.74-1.8,11.15-1.13v12.6c-2.96-1.03-5.83-1.22-8.61-.59-2.78,.63-5.03,1.99-6.75,4.08-1.72,2.08-2.58,4.64-2.58,7.66v24.47h-11.78V16.77Z"/><path class="b" d="M107.95,65.53c-4.53,0-8.7-1.12-12.51-3.35-3.81-2.23-6.8-5.26-8.97-9.06-2.17-3.81-3.26-7.91-3.26-12.32s1.12-8.7,3.35-12.51c2.23-3.81,5.26-6.81,9.06-9.02,3.81-2.2,7.91-3.31,12.32-3.31,3.93,0,7.6,.88,11.01,2.63,3.41,1.75,6.28,4.17,8.61,7.25,2.32,3.08,3.85,6.49,4.58,10.24,.66,3.2,.69,6.22,.09,9.06h-37.34c.42,2.12,1.25,3.93,2.49,5.44,1.24,1.51,2.78,2.64,4.62,3.4,1.84,.76,3.82,1.13,5.94,1.13,2.3,0,4.55-.44,6.75-1.31,2.2-.88,4.06-2.1,5.57-3.67l10.33,2.81c-1.93,3.81-5.05,6.86-9.33,9.15-4.29,2.3-8.73,3.44-13.32,3.44Zm12.78-29.36c-.42-1.75-1.22-3.38-2.4-4.89-1.18-1.51-2.66-2.7-4.44-3.58-1.78-.87-3.79-1.31-6.03-1.31s-4.26,.44-6.07,1.31c-1.81,.88-3.31,2.07-4.49,3.58-1.18,1.51-1.98,3.14-2.4,4.89h25.83Z"/><path class="b" d="M138.11,.46h11.69V64.8h-11.69V.46Z"/><path class="b" d="M158.46,.46h11.69V64.8h-11.69V.46Z"/><path class="b" d="M178.33,16.77h11.69v48.03h-11.69V16.77Z"/><path class="b" d="M234.97,32.18h-13.56S246.2,.46,246.2,.46h13.56l-24.78,31.72Z"/><polygon class="b" points="247.09 64.79 209.55 16.77 196 16.77 214.75 40.77 196 64.79 209.55 64.79 221.54 49.45 233.53 64.79 247.09 64.79"/><path class="b" d="M302.66,.23h3.12l3.29,14.56h-1.89l-.79-3.47h-7.43l-1.83,3.47h-1.93L302.66,.23Zm3.39,9.43l-1.87-8.74-4.43,8.74h6.3Z"/><path class="b" d="M313.29,.21h4.81c4.16,0,7.03,3.2,6.47,7.43-.58,4.08-4.18,7.18-8.41,7.18h-4.93l2.06-14.61Zm3,12.88c3.33,0,6.05-2.48,6.49-5.7,.46-3.18-1.52-5.47-4.81-5.47h-3.08l-1.58,11.17h2.98Z"/><path class="b" d="M326.35,.23h1.98l2.77,13.77L337.86,.23h2.02l-7.26,14.56h-3.14l-3.12-14.56Z"/><path class="b" d="M343.89,.23h3.12l3.29,14.56h-1.89l-.79-3.47h-7.43l-1.83,3.47h-1.93L343.89,.23Zm3.39,9.43l-1.87-8.74-4.43,8.74h6.3Z"/><path class="b" d="M354.68,.23h3.43l4.99,13.69,1.96-13.69h1.79l-2.04,14.56h-3.39l-5.04-13.86-1.96,13.86h-1.79l2.04-14.56Z"/><path class="b" d="M368.58,7.32C369.14,3.27,372.8,0,376.84,0,379.94,0,382.19,1.91,382.94,4.58l-1.77,.37c-.58-1.93-2.12-3.2-4.35-3.2-3.23-.02-5.99,2.58-6.45,5.83-.42,3.06,1.48,5.56,4.62,5.56,2.35,0,4.31-1.35,5.43-3.29l1.73,.6c-1.48,2.62-4.14,4.43-7.18,4.43-4.16,0-6.97-3.41-6.39-7.55Z"/><path class="b" d="M386.12,.23h10.22l-.23,1.69h-8.38l-.69,4.76h7.55l-.23,1.64h-7.55l-.67,4.76h8.38l-.23,1.71h-10.22l2.04-14.56Z"/><path class="b" d="M399.03,.21h4.81c4.16,0,7.03,3.2,6.47,7.43-.58,4.08-4.18,7.18-8.41,7.18h-4.93l2.06-14.61Zm3,12.88c3.33,0,6.05-2.48,6.49-5.7,.46-3.18-1.52-5.47-4.81-5.47h-3.08l-1.58,11.17h2.98Z"/><path class="b" d="M281.11,25.19h6.16c2.83,0,4.39,2.21,4.04,4.72-.31,2.16-1.96,3.77-3.95,4.2l2.73,5.64h-1.96l-2.64-5.47h-3.83l-.75,5.47h-1.83l2.04-14.56Zm4.91,7.49c1.75,0,3.29-1.21,3.56-3.06,.21-1.52-.6-2.79-2.43-2.79h-4.43l-.83,5.85h4.14Z"/><path class="b" d="M294.63,25.19h10.22l-.23,1.69h-8.38l-.69,4.76h7.55l-.23,1.64h-7.55l-.67,4.76h8.38l-.23,1.71h-10.22l2.04-14.56Z"/><path class="b" d="M305.61,37.9l.21-2.02c1.19,1.19,3.25,2.31,5.33,2.31,2.33,0,3.66-1.27,3.83-2.48,.21-1.52-1.66-2.23-3.6-2.7-3.37-.79-4.91-1.85-4.62-4.06,.35-2.46,2.95-3.93,5.74-3.93,2.12,0,3.7,.64,5.12,1.58l-.17,1.89c-1-.87-2.87-1.87-4.95-1.87-1.91,0-3.77,1.02-3.97,2.54-.19,1.33,1.17,1.83,3.91,2.46,3.62,.79,4.58,2.48,4.31,4.35-.35,2.56-2.89,3.95-5.62,3.95-2.21,0-4.04-.83-5.51-2.02Z"/><path class="b" d="M320.86,25.19h10.22l-.23,1.69h-8.38l-.69,4.76h7.55l-.23,1.64h-7.55l-.67,4.76h8.38l-.23,1.71h-10.22l2.04-14.56Z"/><path class="b" d="M338.75,25.19h3.12l3.29,14.56h-1.89l-.79-3.47h-7.43l-1.83,3.47h-1.93l7.47-14.56Zm3.39,9.43l-1.87-8.74-4.43,8.74h6.3Z"/><path class="b" d="M349.49,25.19h6.16c2.83,0,4.39,2.21,4.04,4.72-.31,2.16-1.96,3.77-3.95,4.2l2.73,5.64h-1.96l-2.64-5.47h-3.83l-.75,5.47h-1.83l2.04-14.56Zm4.91,7.49c1.75,0,3.29-1.21,3.56-3.06,.21-1.52-.6-2.79-2.43-2.79h-4.43l-.83,5.85h4.14Z"/><path class="b" d="M361.39,32.29c.56-4.06,4.22-7.32,8.26-7.32,3.1,0,5.35,1.91,6.1,4.58l-1.77,.37c-.58-1.93-2.12-3.2-4.35-3.2-3.23-.02-5.99,2.58-6.45,5.83-.42,3.06,1.48,5.56,4.62,5.56,2.35,0,4.31-1.35,5.43-3.29l1.73,.6c-1.48,2.62-4.14,4.43-7.18,4.43-4.16,0-6.97-3.41-6.39-7.55Z"/><path class="b" d="M378.92,25.19h1.83l-.92,6.45h8.24l.92-6.45h1.81l-2.04,14.56h-1.81l.89-6.47h-8.24l-.89,6.47h-1.83l2.04-14.56Z"/><path class="b" d="M258.4,57.25c.56-4.06,4.22-7.32,8.26-7.32,3.1,0,5.35,1.91,6.1,4.58l-1.77,.37c-.58-1.93-2.12-3.2-4.35-3.2-3.23-.02-5.99,2.58-6.45,5.83-.42,3.06,1.48,5.56,4.62,5.56,2.35,0,4.31-1.35,5.43-3.29l1.73,.6c-1.48,2.62-4.14,4.43-7.18,4.43-4.16,0-6.97-3.41-6.39-7.55Z"/><path class="b" d="M275.94,50.15h10.22l-.23,1.69h-8.38l-.69,4.76h7.55l-.23,1.64h-7.55l-.67,4.76h8.38l-.23,1.71h-10.22l2.04-14.56Z"/><path class="b" d="M289.02,50.15h3.43l4.99,13.69,1.96-13.69h1.79l-2.04,14.56h-3.39l-5.04-13.86-1.96,13.86h-1.79l2.04-14.56Z"/><path class="b" d="M308.49,51.86h-4.97l.25-1.71h11.61l-.25,1.71h-4.83l-1.79,12.86h-1.81l1.79-12.86Z"/><path class="b" d="M317.81,50.15h10.22l-.23,1.69h-8.38l-.69,4.76h7.55l-.23,1.64h-7.55l-.67,4.76h8.38l-.23,1.71h-10.22l2.04-14.56Z"/><path class="b" d="M330.83,50.15h6.16c2.83,0,4.39,2.21,4.04,4.72-.31,2.16-1.96,3.77-3.95,4.2l2.73,5.64h-1.96l-2.64-5.47h-3.83l-.75,5.47h-1.83l2.04-14.56Zm4.91,7.49c1.75,0,3.29-1.21,3.56-3.06,.21-1.52-.6-2.79-2.43-2.79h-4.43l-.83,5.85h4.14Z"/></svg>