<?xml version="1.0" encoding="UTF-8"?><svg id="a" xmlns="http://www.w3.org/2000/svg" xmlns:xlink="http://www.w3.org/1999/xlink" viewBox="0 0 5677.93 441.46"><defs><style>.d{fill:url(#c);}.e{fill:url(#b);}</style><linearGradient id="b" x1="1502" y1="334.5" x2="1762" y2="334.5" gradientTransform="translate(0 442) scale(1 -1)" gradientUnits="userSpaceOnUse"><stop offset=".07" stop-color="#3600ff"/><stop offset=".12" stop-color="#2e18ff"/><stop offset=".25" stop-color="#1a54ff"/><stop offset=".36" stop-color="#0c80ff"/><stop offset=".45" stop-color="#039bff"/><stop offset=".5" stop-color="#00a5ff"/><stop offset="1" stop-color="#00d300"/></linearGradient><linearGradient id="c" x1="397.52" y1="-24.78" x2="613.9" y2="286.78" gradientTransform="translate(2111.93 356.19) scale(1 -1)" gradientUnits="userSpaceOnUse"><stop offset="0" stop-color="#c3c"/><stop offset=".15" stop-color="#b141da"/><stop offset=".48" stop-color="#6c63fc"/><stop offset=".5" stop-color="#66f"/><stop offset=".99" stop-color="#69f"/></linearGradient></defs><g><polygon points="1676.4 436.47 1421.73 110.67 1329.77 110.67 1457.04 273.5 1329.77 436.47 1421.73 436.47 1503.05 332.35 1584.43 436.47 1676.4 436.47"/><path d="M1209.92,110.67h79.31V436.54h-79.31V110.67Z"/><path d="M1075.11,0h79.31V436.54h-79.31V0Z"/><path d="M937.02,0h79.32V436.54h-79.32V0Z"/><path d="M732.42,441.46c-30.74,0-59.02-7.58-84.85-22.75-51.51-30.15-83.12-85.41-83-145.1,0-30.74,7.58-59.02,22.75-84.85,14.77-25.43,35.97-46.53,61.48-61.18,25.36-14.83,54.24-22.59,83.62-22.44,25.97-.16,51.6,5.96,74.7,17.83,22.96,11.73,42.94,28.55,58.41,49.19,15.57,20.45,26.2,44.23,31.05,69.48,4.51,21.73,4.71,42.23,.61,61.49h-253.31c2.86,14.35,8.5,26.65,16.91,36.89,8.34,10.21,19.13,18.14,31.36,23.06,12.79,5.18,26.47,7.8,40.27,7.69,15.7-.02,31.25-3.05,45.8-8.91,14.25-5.47,27.15-13.97,37.81-24.9l70.09,19.06c-13.12,25.82-34.23,46.52-63.33,62.1-29.11,15.58-59.24,23.37-90.38,23.36Zm86.69-199.21c-2.98-12.11-8.54-23.43-16.29-33.2-8.06-10.29-18.36-18.6-30.13-24.29-12.1-5.93-25.72-8.9-40.89-8.91-15.16,0-28.89,2.96-41.2,8.91-11.89,5.63-22.31,13.94-30.43,24.29-7.76,9.76-13.32,21.09-16.29,33.2h175.23Z"/><path d="M348,110.67h79.93v48.57c10.24-18.44,25.61-32.48,46.11-42.12s45.71-12.2,75.63-7.69v85.47c-20.09-6.97-39.56-8.3-58.41-4s-34.12,13.52-45.81,27.67c-11.68,14.14-17.52,31.46-17.52,51.95v166.01h-79.93V110.67Z"/><path d="M135.27,76.86H0V0H348V76.86H217.65V436.54h-82.39V76.86Z"/><polygon class="e" points="1594 215 1502 215 1670 0 1762 0 1594 215"/></g><g><path class="d" d="M2587.68,12.49l-130.79,75.5c-20.44,11.81-33.03,33.63-33.03,57.24v150.99c0,23.61,12.59,45.43,33.03,57.24l130.79,75.5c20.44,11.81,45.62,11.81,66.06,0l130.79-75.5c20.47-11.79,33.09-33.62,33.1-57.24V145.23c0-23.62-12.6-45.44-33.06-57.24l-130.82-75.5c-20.44-11.81-45.62-11.81-66.06,0Zm-114.52,285.98V143.05c-.02-4.7,2.45-9.07,6.51-11.45l134.4-77.55c4.11-2.38,9.17-2.38,13.28,0l42.56,24.86-97.82,56.49h0v170.68l-49.46,28.57-42.86-24.73c-4.09-2.36-6.61-6.73-6.61-11.45Zm288.52,11.39l-134.33,77.55c-4.1,2.37-9.15,2.37-13.24,0l-42.56-24.86,97.82-56.49h0V135.37l49.46-28.57,42.86,24.73c4.04,2.4,6.51,6.76,6.51,11.45v155.42c0,4.7-2.47,9.05-6.51,11.45Z"/><path d="M4523.05,163.1h-33.97c-1.76-32.93-25.25-47.32-59.58-47.32s-56.36,14.03-56.36,41,22.42,36.12,47.67,40.48l31.89,5.6c36.97,6.51,72.89,23.33,72.89,70.97s-39.96,74.85-92.16,74.85-99.9-27.01-101.66-87.64h34.01c2.44,41,30.49,57.83,67.65,57.83s58.58-16.99,58.58-44.68-24.5-36.97-50.96-41.69l-31.89-5.63c-33.62-5.96-69.7-22.78-69.7-69.74s41-71.3,90.04-71.3,91.48,24.54,93.56,77.25Z"/><path d="M4728.75,285.58c-5.27,27.69-29.09,63.1-86.92,63.1s-92.52-36.8-92.52-96.39,35.8-96.36,91.83-96.36,86.89,36.77,86.89,87.6v17.51h-147.35c2.12,41,27.34,60.3,61.15,60.3s48.81-15.1,53.99-35.8l32.93,.03Zm-147.19-50.9h114.94c-1.4-33.62-22.06-51.48-55.32-51.48-30.17,.07-54.38,17.21-59.62,51.48Z"/><path d="M4934.31,271.56c-2.8,43.8-33.65,77.12-88.32,77.12s-93.56-34.36-93.56-96.39,39.05-96.36,93.56-96.36,84.8,33.19,86.85,71.82h-32.54c-3.25-25.58-19.26-43.8-54.31-43.8-36.8,0-61.67,24.54-61.67,68.34s24.86,68.34,61.67,68.34,53.27-20.34,55.71-49.07h32.61Z"/><path d="M5132.59,161.18v182.23h-31.18v-20.34c0-1.72-.72-2.44-2.47-2.44s-2.44,1.04-3.84,2.8c-12.27,15.39-30.49,25.15-57.14,25.15-45.56,0-73.58-26.29-73.58-73.61v-113.9h31.53v108.72c0,33.32,17.54,50.83,49.07,50.83,35.05,0,56.07-21.02,56.07-64.82v-94.63h31.53Z"/><path d="M5175.29,343.41V161.18h31.53v24.7c0,1.76,.72,2.44,2.44,2.44s2.83-1.04,3.51-2.8c8.07-17.51,20.7-24.86,45.56-24.86h20.34v30.82h-25.25c-30.49,0-46.6,13.67-46.6,48.81v103.39l-31.53-.26Z"/><path d="M5295.76,91.08h45.56v42.08h-45.56v-42.08Zm7,70.1h31.57v182.23h-31.57V161.18Z"/><path d="M5358.4,189.13v-27.95h42.04v-49.07h31.53v49.07h52.56v27.95h-52.56v120.99c-.23,2.67,1.75,5.02,4.42,5.24,.28,.02,.57,.02,.85,0h47.28v28.05h-31.53c-35.57,0-52.56-16.99-52.56-52.56v-101.73h-42.04Z"/><path d="M5502.85,168.17v-7h32.02l52.07,153.14c.72,2.12,1.4,2.8,3.51,2.8s2.8-.68,3.51-2.8l52.07-153.14h31.89v7l-68.34,196.26c-11.91,34.36-29.29,45.56-67.98,45.56h-29.45v-28.02h52.23c3.19,.5,6.28-1.35,7.35-4.39l9.76-26.46c1.07-2.8,1.43-4.56,.36-5.96s-1.72-1.76-4.56-1.76h0c-8.21-.02-15.5-5.25-18.16-13.02l-56.3-162.22Z"/><path d="M3132.6,163.1h-33.91c-1.76-32.83-25.15-47.19-59.42-47.19s-56.26,14.16-56.26,41.07,22.36,36.02,47.51,40.38l31.83,5.6c36.87,6.51,72.7,23.23,72.7,70.78s-39.83,74.62-91.93,74.62-99.61-27.07-101.37-87.64h33.91c2.44,40.87,30.43,57.66,67.46,57.66s58.38-16.95,58.38-44.55-24.31-36.9-50.7-41.62l-31.79-5.6c-33.55-5.92-69.54-22.78-69.54-69.54s40.87-71.14,89.82-71.14,91.22,24.57,93.33,77.16Z"/><path d="M3335.53,161.21v6.96l-78.98,67.65,78.98,100.13v7h-34.43l-67.82-87.21-34.07,29.29v58.02h-31.44V91.28h31.44V245.79l95.97-84.61,40.35,.03Z"/><path d="M3353.36,168.17v-6.96h31.83l52.07,152.72c.72,2.12,1.4,2.8,3.48,2.8s2.8-.68,3.51-2.8l52.07-152.72h31.83v6.96l-68.18,195.74c-11.88,34.27-29.29,45.56-67.82,45.56h-29.29v-27.99h52.07c3.17,.5,6.25-1.33,7.32-4.36l9.76-26.39c1.04-2.8,1.4-4.52,.36-5.92-1.04-1.4-1.76-1.76-4.56-1.76h0c-8.2-.02-15.47-5.25-18.09-13.02l-56.36-161.86Z"/><path d="M3551.64,342.96V91.28h31.44v89.85c0,1.72,.72,2.44,2.44,2.44s2.47-1.04,3.87-2.8c11.52-15.39,30.04-24.83,56.62-24.83,45.56,0,73.38,26.23,73.38,73.41v113.6h-31.44v-108.27c0-33.19-17.48-50.67-48.81-50.67-34.95,0-55.94,20.96-55.94,64.66v94.37l-31.57-.1Z"/><path d="M3752.1,91.28h45.56v41.95h-45.56v-41.95Zm6.96,69.93h31.57v181.75h-31.57V161.21Z"/><path d="M3856.66,348.88c3.68,22.78,22.78,37.78,56.3,37.78,37.91,0,59.75-22.39,59.75-61.18v-12.69c.16-.99-.52-1.93-1.52-2.08-.19-.03-.38-.03-.56,0-1.34-.15-2.63,.53-3.25,1.72-13.96,18.19-34.59,25.19-59.42,25.19-45.79,0-87.86-31.47-87.86-90.89s42.14-90.79,87.96-90.79c24.83,0,44.75,7.71,59.78,25.55,2.44,3.25,3.84,3.84,5.6,3.84s2.44-1.07,3.25-3.25l6.67-20.96h20.96v162.61c0,57.66-34.27,90.89-91.57,90.89s-87.21-27.27-90.89-65.73h34.82Zm56.62-39.05c33.23,0,61.18-22.78,61.18-62.9s-27.95-63-61.18-63-61.15,22.78-61.15,62.9,27.95,62.9,61.15,62.9v.1Z"/><path d="M4045.59,342.96V91.28h31.4v89.85c0,1.72,.68,2.44,2.44,2.44s2.44-1.04,3.84-2.8c11.52-15.39,30.07-24.83,56.62-24.83,45.56,0,73.41,26.23,73.41,73.41v113.6h-31.47v-108.27c0-33.19-17.48-50.67-48.81-50.67-35.02-.1-56.04,20.86-56.04,64.56v94.37h-31.4Z"/></g><circle cx="2052.66" cy="220.73" r="45"/></svg>