<?xml version="1.0" standalone="no"?>
<!DOCTYPE svg PUBLIC "-//W3C//DTD SVG 20010904//EN"
 "http://www.w3.org/TR/2001/REC-SVG-20010904/DTD/svg10.dtd">
<svg version="1.0" xmlns="http://www.w3.org/2000/svg"
 width="660.000000pt" height="413.000000pt" viewBox="0 0 660.000000 413.000000"
 preserveAspectRatio="xMidYMid meet">

<g transform="translate(0.000000,413.000000) scale(0.100000,-0.100000)"
fill="#000000" stroke="none">
<path d="M1220 4059 c-286 -40 -354 -58 -459 -120 -141 -85 -267 -188 -334
-274 l-32 -40 29 23 c28 21 34 22 257 20 205 -1 257 -6 217 -21 -7 -2 -10 -7
-7 -11 3 -4 42 30 85 75 95 98 209 188 326 258 86 52 89 52 135 43 47 -10 68
-8 47 6 -17 11 -24 52 -9 52 8 0 17 5 20 10 9 15 -48 11 -275 -21z"/>
<path d="M4985 3191 c-66 -31 -101 -71 -151 -171 -26 -52 -52 -98 -58 -102 -6
-4 -82 -8 -168 -8 -145 0 -160 -2 -178 -20 -27 -27 -27 -55 -1 -40 23 12 307
14 315 2 4 -7 -29 -247 -39 -288 -2 -6 -36 -18 -77 -28 -149 -34 -171 -44
-206 -91 -46 -60 -82 -179 -89 -290 -4 -57 -11 -96 -20 -107 -8 -9 -27 -40
-42 -69 -15 -29 -32 -54 -38 -56 -6 -2 -30 11 -54 30 -85 64 -88 154 -7 260
34 47 38 57 38 112 0 61 24 171 61 275 19 54 26 145 11 138 -4 -1 -26 -23 -48
-48 -116 -130 -172 -236 -209 -397 -28 -120 -15 -352 24 -456 l11 -28 147 3
148 3 -3 27 c-7 59 57 124 129 130 l34 3 5 -115 5 -115 527 -3 526 -2 7 85 c4
46 5 95 2 107 -4 13 -2 30 3 37 13 22 83 -3 125 -45 28 -28 35 -42 35 -74 l0
-40 145 0 145 0 11 28 c25 64 42 174 42 277 1 136 -24 247 -84 369 -41 83
-160 245 -186 254 -24 7 -14 -79 23 -192 20 -61 41 -155 48 -209 10 -73 18
-103 34 -120 32 -34 62 -108 62 -154 0 -33 -7 -50 -31 -78 -27 -31 -76 -65
-93 -65 -3 0 -17 24 -31 53 -15 28 -32 59 -39 67 -7 8 -18 60 -24 115 -13 116
-48 226 -92 289 -33 49 -47 55 -200 91 -41 10 -81 25 -87 33 -7 9 -13 36 -13
61 0 25 -7 84 -15 131 -8 47 -15 89 -15 93 0 10 310 4 332 -6 13 -7 16 -5 11
13 -12 44 -37 50 -204 50 -126 0 -159 3 -169 15 -7 8 -34 56 -60 107 -42 84
-53 97 -109 136 -71 47 -104 52 -166 23z m542 -863 c7 -6 13 -17 13 -24 0 -12
-80 -14 -484 -14 -326 0 -487 3 -491 10 -4 6 -1 17 5 25 10 12 90 14 478 14
315 0 471 -4 479 -11z"/>
<path d="M1396 2807 c-17 -27 -356 -929 -356 -947 0 -32 342 -341 376 -340 5
0 83 188 174 418 91 229 174 436 186 460 l21 42 -31 73 c-76 175 -193 287
-323 311 -27 4 -35 1 -47 -17z"/>
<path d="M1990 1564 c-108 -92 -296 -208 -323 -199 -153 47 -286 106 -375 167
-24 17 -46 27 -49 24 -4 -3 -1 -6 5 -6 7 0 12 -7 12 -15 0 -12 -40 -14 -292
-9 -190 3 -296 8 -305 15 -8 7 -13 7 -13 2 0 -15 133 -118 212 -164 133 -78
319 -139 421 -139 39 0 544 75 682 101 65 13 104 28 73 29 -10 0 -18 8 -19 18
-3 64 0 163 6 172 3 5 3 10 -1 10 -4 0 3 11 16 25 37 40 20 29 -50 -31z"/>
<path d="M5850 1572 c-41 -7 -108 -19 -149 -25 -41 -7 -76 -17 -78 -23 -2 -6
20 -17 49 -25 l53 -14 3 -474 c1 -322 -1 -478 -8 -485 -6 -6 -29 -16 -52 -21
-23 -6 -43 -16 -46 -23 -3 -9 47 -12 212 -12 126 0 216 4 216 9 0 5 -24 17
-54 25 -30 9 -57 23 -60 32 -4 9 -6 248 -6 532 0 283 -1 515 -2 516 -2 1 -37
-4 -78 -12z"/>
<path d="M4429 1501 c-58 -59 -29 -159 51 -175 41 -8 104 19 121 51 23 42 16
103 -15 130 -42 36 -118 33 -157 -6z"/>
<path d="M757 1138 c-115 -308 -175 -466 -203 -540 l-25 -67 -62 -3 c-59 -3
-62 -4 -62 -28 l0 -25 378 -3 378 -2 -3 27 c-3 26 -6 28 -48 26 -25 -1 -52 2
-59 6 -10 7 12 72 99 297 125 323 132 344 103 344 -47 0 -300 99 -375 146 -21
13 -39 24 -42 24 -2 0 -38 -91 -79 -202z"/>
<path d="M3495 1149 c-55 -10 -115 -21 -132 -24 -47 -8 -41 -20 20 -37 l52
-15 3 -270 c3 -299 5 -286 -63 -301 -21 -4 -40 -13 -43 -20 -3 -9 45 -12 203
-12 157 0 206 3 203 12 -3 7 -20 16 -39 21 -58 14 -59 17 -59 289 l0 248 26
17 c34 22 144 30 184 13 16 -7 40 -29 52 -49 22 -34 23 -48 26 -259 2 -160 0
-227 -8 -237 -7 -8 -27 -17 -46 -21 -19 -3 -34 -12 -34 -20 0 -11 36 -14 200
-14 202 0 241 8 158 31 -24 7 -49 17 -55 22 -10 7 -13 65 -13 226 -1 231 -8
286 -45 342 -61 93 -250 107 -382 29 -50 -29 -63 -26 -63 15 0 41 2 41 -145
14z"/>
<path d="M4505 1155 c-33 -7 -93 -18 -132 -25 -40 -6 -73 -15 -73 -19 0 -5 24
-14 52 -22 l53 -14 8 -55 c5 -30 6 -185 4 -345 -5 -332 -8 -345 -87 -469 -50
-77 -57 -106 -25 -106 8 0 64 48 125 106 86 83 117 121 143 173 37 75 35 54
40 514 l2 277 -25 -1 c-14 -1 -52 -7 -85 -14z"/>
<path d="M5024 1155 c-28 -7 -72 -20 -98 -30 -38 -15 -46 -22 -44 -39 3 -24 4
-24 108 -6 103 18 164 8 206 -34 33 -33 49 -90 42 -151 l-3 -30 -120 -12
c-148 -14 -220 -39 -268 -93 -57 -63 -62 -159 -10 -228 67 -89 236 -107 345
-36 21 13 42 24 48 24 6 0 23 -15 39 -33 28 -31 32 -32 108 -32 131 1 215 40
119 56 -20 3 -42 11 -49 18 -8 8 -14 86 -17 259 -4 204 -8 252 -21 277 -42 75
-111 105 -239 104 -52 -1 -118 -7 -146 -14z m204 -357 c8 -8 12 -48 12 -115 0
-118 -9 -136 -78 -148 -48 -8 -124 21 -141 53 -6 12 -11 46 -11 77 0 51 3 60
33 90 25 25 45 35 83 40 27 3 56 8 64 9 8 2 17 4 21 5 3 0 10 -4 17 -11z"/>
<path d="M6295 1149 c-55 -10 -115 -22 -132 -24 -47 -8 -41 -20 20 -36 l52
-14 3 -269 c1 -180 -1 -273 -8 -280 -6 -6 -29 -16 -52 -21 -23 -6 -43 -16 -46
-23 -3 -9 47 -12 212 -12 126 0 216 4 216 9 0 5 -24 17 -54 25 -30 9 -57 23
-60 32 -4 10 -6 155 -6 323 l1 306 -23 2 c-13 0 -68 -7 -123 -18z"/>
<path d="M5680 214 c0 -95 2 -105 18 -102 15 3 17 16 17 106 0 90 -2 102 -17
102 -16 0 -18 -12 -18 -106z"/>
<path d="M5780 214 c0 -80 3 -105 13 -101 8 3 11 25 9 75 -2 41 0 72 5 72 6 0
32 -34 59 -75 27 -41 55 -75 62 -75 9 0 12 28 12 105 0 85 -3 105 -14 105 -12
0 -14 -13 -9 -70 4 -45 2 -70 -4 -70 -6 0 -30 32 -53 70 -28 47 -49 70 -61 70
-17 0 -19 -9 -19 -106z"/>
<path d="M6009 313 c0 -5 -1 -51 -2 -103 l-1 -95 45 -3 c30 -2 54 4 76 17 61
38 67 136 9 176 -21 15 -125 21 -127 8z m106 -38 c43 -42 30 -114 -22 -132
-47 -17 -53 -8 -53 78 0 78 0 79 25 79 14 0 37 -11 50 -25z"/>
<path d="M6230 215 c0 -87 3 -105 15 -105 12 0 15 18 15 105 0 87 -3 105 -15
105 -12 0 -15 -18 -15 -105z"/>
<path d="M6336 222 c-41 -113 -41 -112 -20 -112 8 0 20 14 25 30 10 27 16 30
51 30 35 0 41 -4 51 -30 7 -18 19 -30 29 -30 23 0 23 -3 -14 112 -30 92 -34
98 -59 98 -25 0 -29 -7 -63 -98z m82 21 c12 -37 8 -43 -30 -43 -26 0 -28 3
-22 23 24 77 32 81 52 20z"/>
<path d="M420 297 c-18 -9 -26 -22 -28 -45 -3 -27 1 -35 28 -50 63 -34 76 -48
61 -66 -8 -10 -29 -16 -52 -16 -43 0 -52 -14 -16 -24 41 -10 96 12 103 41 9
34 -4 53 -52 80 -54 31 -53 57 4 61 43 3 55 15 26 26 -24 9 -46 7 -74 -7z"/>
<path d="M574 297 c-10 -28 1 -200 14 -205 8 -2 12 10 12 40 0 59 9 70 56 66
39 -3 39 -3 44 -51 9 -87 25 -56 28 56 2 89 0 107 -12 107 -10 0 -16 -13 -18
-42 l-3 -43 -45 0 -45 0 -3 43 c-3 41 -17 56 -28 29z"/>
<path d="M845 298 c-3 -7 -20 -54 -39 -105 -18 -51 -31 -95 -28 -98 12 -12 24
-3 34 25 12 35 47 48 84 31 13 -6 24 -19 24 -30 0 -22 29 -37 35 -18 3 6 -10
55 -28 107 -27 79 -36 96 -55 98 -12 2 -24 -3 -27 -10z m43 -61 c19 -51 16
-59 -20 -55 -35 3 -37 12 -18 64 13 33 24 30 38 -9z"/>
<path d="M1017 303 c-4 -3 -7 -53 -7 -110 0 -79 3 -104 13 -101 6 3 13 24 15
47 3 39 5 42 30 39 20 -2 32 -14 47 -42 26 -50 51 -62 41 -20 -4 16 -15 40
-25 54 -18 25 -18 27 1 50 24 30 20 61 -12 77 -27 14 -92 17 -103 6z m93 -38
c16 -19 6 -43 -22 -54 -34 -13 -48 -3 -48 35 0 31 3 34 29 34 16 0 34 -7 41
-15z"/>
<path d="M1222 302 c-17 -12 -13 -203 5 -209 8 -3 13 11 15 38 3 40 6 44 38
52 19 5 43 16 53 24 21 20 22 66 2 83 -19 16 -96 24 -113 12z m86 -34 c19 -19
14 -44 -13 -56 -37 -17 -55 -5 -55 34 0 31 3 34 28 34 15 0 33 -5 40 -12z"/>
<path d="M1400 306 c-3 -2 -3 -51 0 -108 l5 -103 58 -3 c46 -2 57 0 57 13 0
11 -11 15 -46 15 -45 0 -45 0 -42 33 3 28 7 32 36 35 17 2 32 7 32 12 0 5 -15
10 -32 12 -29 3 -33 7 -36 35 -3 31 -2 32 40 35 24 2 42 8 41 13 -3 10 -105
20 -113 11z"/>
<path d="M1590 301 c-22 -14 -22 -206 0 -206 11 0 16 13 18 43 3 40 5 43 30
40 18 -2 32 -14 46 -42 26 -50 52 -62 42 -20 -4 16 -16 41 -26 55 -19 27 -19
27 0 50 23 26 25 39 7 63 -15 21 -93 32 -117 17z m90 -41 c8 -16 6 -24 -10
-40 -31 -31 -54 -22 -58 23 -3 35 -2 37 27 37 20 0 34 -7 41 -20z"/>
<path d="M1860 200 c0 -85 3 -111 13 -108 6 3 13 25 15 51 4 60 22 61 59 5 28
-43 42 -58 56 -58 15 0 6 27 -28 77 -19 29 -35 56 -35 61 0 4 14 21 30 37 33
31 38 45 16 45 -7 0 -26 -18 -41 -40 -35 -50 -53 -51 -57 -3 -2 20 -9 38 -15
41 -10 3 -13 -23 -13 -108z"/>
<path d="M2064 297 c-2 -7 -3 -56 -2 -108 l3 -94 58 0 c68 0 81 18 17 25 -42
5 -45 7 -45 35 0 27 4 30 33 33 17 2 32 7 32 12 0 5 -15 10 -32 12 -29 3 -33
7 -36 36 -3 32 -3 32 43 32 66 0 55 24 -13 28 -37 2 -54 -1 -58 -11z"/>
<path d="M2227 303 c-4 -3 5 -27 20 -52 15 -26 29 -67 32 -100 7 -67 31 -83
31 -20 0 30 10 61 36 106 34 61 39 83 15 69 -6 -4 -19 -27 -30 -51 -11 -25
-22 -45 -25 -45 -3 0 -17 23 -31 50 -25 48 -34 57 -48 43z"/>
</g>
</svg>
