<svg width="26" height="26" viewBox="0 0 26 26" xmlns="http://www.w3.org/2000/svg"><path d="M20.85 10.46L11.35 19.96C11.28 20.03 11.18 20.07 11.07 20.07C10.96 20.07 10.86 20.03 10.79 19.96L5.14 14.29C5.07 14.22 5.03 14.12 5.03 14.01C5.03 13.91 5.07 13.81 5.14 13.73L7.11 11.77C7.19 11.69 7.29 11.65 7.39 11.65C7.40 11.65 7.40 11.65 7.40 11.65C7.50 11.65 7.60 11.69 7.68 11.77L11.07 15.17L18.32 7.93C18.47 7.78 18.72 7.78 18.88 7.93L20.85 9.90C20.92 9.97 20.96 10.08 20.96 10.18C20.96 10.29 20.92 10.39 20.85 10.46Z" fill="#2814ff"/></svg>