<svg id="Network_Security" data-name="Network Security" xmlns="http://www.w3.org/2000/svg" xmlns:xlink="http://www.w3.org/1999/xlink" viewBox="0 0 223.99 198.35"><defs><style>.cls-1{fill:url(#linear-gradient);}</style><linearGradient id="linear-gradient" x1="45.18" y1="166.59" x2="178.48" y2="33.29" gradientUnits="userSpaceOnUse"><stop offset="0.1" stop-color="#2814ff"/><stop offset="0.14" stop-color="#2324ff"/><stop offset="0.3" stop-color="#145bff"/><stop offset="0.43" stop-color="#0983ff"/><stop offset="0.54" stop-color="#029bff"/><stop offset="0.61" stop-color="#00a4ff"/><stop offset="0.66" stop-color="#00acce"/><stop offset="0.72" stop-color="#00b590"/><stop offset="0.79" stop-color="#00bd5d"/><stop offset="0.84" stop-color="#00c434"/><stop offset="0.9" stop-color="#00c818"/><stop offset="0.95" stop-color="#00cb06"/><stop offset="0.98" stop-color="#0c0"/></linearGradient></defs><path class="cls-1" d="M191,132.86a12.52,12.52,0,0,0-11.85-.36l-13.21-7.63a59.74,59.74,0,0,0,5.5-24.93,58.86,58.86,0,0,0-4.34-22.19l13.53-7.81a12.53,12.53,0,1,0-6.93-12l-13.24,7.65A59.36,59.36,0,0,0,120.24,41V25.38a12.54,12.54,0,1,0-13.86,0v15.3A59.29,59.29,0,0,0,65,63.21L51.46,55.39a12.53,12.53,0,1,0-6.92,12L57.75,75a59.74,59.74,0,0,0-5.5,24.93,58.82,58.82,0,0,0,4.34,22.19l-13.53,7.81a12.54,12.54,0,1,0,6.93,12l13.25-7.65a59.31,59.31,0,0,0,40.19,24.62V174.5a12.54,12.54,0,1,0,13.85,0V159.21a59.35,59.35,0,0,0,41.37-22.53l13.55,7.82A12.53,12.53,0,1,0,191,132.86Zm-79.14,12.81a45.73,45.73,0,1,1,45.73-45.73A45.78,45.78,0,0,1,111.83,145.67ZM130,85.87v-5a18.69,18.69,0,1,0-37.37,0v5h-7v42.71H137V85.87Zm-28.8,0v-5a10.12,10.12,0,1,1,20.24,0v5Zm-7,34.15V94.43h34.22V120Zm23.63-16.81a6.51,6.51,0,0,1-3.51,5.76v8.81h-6V109a6.5,6.5,0,1,1,9.5-5.76Z"/></svg>