<?xml version="1.0" encoding="utf-8"?>
<!-- Generator: Adobe Illustrator 26.2.1, SVG Export Plug-In . SVG Version: 6.00 Build 0)  -->
<svg version="1.1" id="Layer_1" xmlns="http://www.w3.org/2000/svg" xmlns:xlink="http://www.w3.org/1999/xlink" x="0px" y="0px"
	 viewBox="0 0 32.5 27.6" style="enable-background:new 0 0 32.5 27.6;" xml:space="preserve">
<style type="text/css">
	.st0{fill:url(#SVGID_1_);}
</style>
<g id="Layer_1_00000080896970447417378980000013988881553978608302_">
	
		<linearGradient id="SVGID_1_" gradientUnits="userSpaceOnUse" x1="2.3494" y1="4.2914" x2="29.5686" y2="31.5206" gradientTransform="matrix(1 0 0 -1 0 31.64)">
		<stop  offset="0.1" style="stop-color:#2814FF"/>
		<stop  offset="0.14" style="stop-color:#2324FF"/>
		<stop  offset="0.3" style="stop-color:#145BFF"/>
		<stop  offset="0.43" style="stop-color:#0983FF"/>
		<stop  offset="0.54" style="stop-color:#029BFF"/>
		<stop  offset="0.61" style="stop-color:#00A4FF"/>
		<stop  offset="0.66" style="stop-color:#00ACCE"/>
		<stop  offset="0.72" style="stop-color:#00B590"/>
		<stop  offset="0.79" style="stop-color:#00BD5D"/>
		<stop  offset="0.84" style="stop-color:#00C434"/>
		<stop  offset="0.9" style="stop-color:#00C818"/>
		<stop  offset="0.95" style="stop-color:#00CB06"/>
		<stop  offset="0.98" style="stop-color:#00CC00"/>
	</linearGradient>
	<path class="st0" d="M10.2,14.6h1.1v4h-1.1V14.6z M10.4,9.5l0.5,0.5l0.4,0.4h1.3c0.8,1.1,0.5,2.5-0.5,3.3c-1.1,0.8-2.5,0.5-3.3-0.5
		c-0.8-1.1-0.5-2.5,0.5-3.3C9.7,9.7,10.1,9.6,10.4,9.5z M9.6,11.9c0,0.7,0.6,1.2,1.2,1.2c0.7,0,1.2-0.6,1.2-1.2
		c0-0.7-0.6-1.2-1.2-1.2c0,0,0,0,0,0C10.1,10.6,9.6,11.2,9.6,11.9z M21.6,10.5h-1.1v3.4h1.2L21.6,10.5z M14.8,10.5h-1.1v3.4h1.1
		L14.8,10.5z M17,18.6h1.1v-4H17L17,18.6z M15.2,11.9c0-0.5,0.2-1,0.5-1.4h3.8c0.3,0.4,0.5,0.9,0.5,1.4c0,1.3-1.1,2.4-2.4,2.4
		C16.3,14.2,15.2,13.2,15.2,11.9z M16.4,11.9c0,0.7,0.6,1.2,1.2,1.2c0.7,0,1.2-0.6,1.2-1.2c0-0.7-0.5-1.2-1.2-1.2
		C17,10.6,16.4,11.2,16.4,11.9C16.4,11.8,16.4,11.9,16.4,11.9z M23.7,14.1v-1.3c-0.6-0.3-0.7-1.1-0.4-1.6c0.1-0.2,0.2-0.3,0.4-0.4
		v-0.4h-1.2c-0.3,0.4-0.5,0.9-0.5,1.4C22,12.9,22.7,13.8,23.7,14.1z M16.6,16.6c0,1.3-1.1,2.4-2.4,2.4s-2.4-1.1-2.4-2.4
		s1.1-2.4,2.4-2.4c0,0,0,0,0,0C15.6,14.3,16.6,15.3,16.6,16.6z M15.5,16.6c0-0.7-0.6-1.2-1.2-1.2c-0.7,0-1.2,0.6-1.2,1.2
		c0,0.7,0.6,1.2,1.2,1.2l0,0C14.9,17.9,15.4,17.3,15.5,16.6L15.5,16.6z M23.5,16.6c0,1.3-1.1,2.4-2.4,2.4s-2.4-1.1-2.4-2.4
		c0-1.3,1.1-2.4,2.4-2.4c0,0,0,0,0,0C22.4,14.3,23.4,15.4,23.5,16.6L23.5,16.6z M22.3,16.6c0-0.7-0.6-1.2-1.2-1.2
		c-0.7,0-1.2,0.6-1.2,1.2c0,0.7,0.6,1.2,1.2,1.2l0,0c0.6-0.1,1.1-0.6,1.1-1.2H22.3z M10.8,19c-1.1,0-2.1,0.8-2.3,1.9h1.2
		c0.2-0.6,1-0.9,1.6-0.7c0.3,0.1,0.6,0.4,0.7,0.7h1.2C12.9,19.8,11.9,19,10.8,19z M4.6,19.1v1.2c0.2,0.1,0.4,0.3,0.5,0.6h1.2
		C6.1,20.1,5.5,19.4,4.6,19.1L4.6,19.1z M13.6,20.9h1.1v-1.6h-1.1L13.6,20.9z M20.4,20.9h1.2v-1.6h-1.2L20.4,20.9z M6.8,20.9H8v-1.6
		H6.8L6.8,20.9z M7.4,14.3c1.3,0,2.4,1.1,2.4,2.4C9.7,18,8.7,19,7.4,19C6.1,19,5,18,5,16.7C5,15.3,6.1,14.3,7.4,14.3
		C7.4,14.3,7.4,14.3,7.4,14.3L7.4,14.3z M6.2,16.7c0,0.7,0.6,1.2,1.2,1.2c0.7,0,1.2-0.6,1.2-1.2c0-0.7-0.6-1.2-1.2-1.2h0
		C6.7,15.4,6.2,16,6.2,16.7L6.2,16.7z M17.6,19c-1.1,0-2.1,0.8-2.3,1.9h1.2c0.2-0.5,0.6-0.8,1.1-0.8c0.5,0,1,0.3,1.1,0.8h1.2
		C19.7,19.8,18.8,19,17.6,19z M8,9.8H6.8v4H8V9.8z M6.4,11.8c0-1-0.7-1.9-1.7-2.2v1.2c0.6,0.3,0.7,1.1,0.4,1.6
		c-0.1,0.2-0.2,0.3-0.4,0.4v1.2C5.6,13.8,6.3,12.9,6.4,11.8L6.4,11.8z M7.4,9.5c0.8,0,1.5-0.4,2-1L9,8.1H8.1c-0.4,0.3-1,0.3-1.4,0
		H5.2C5.6,8.9,6.5,9.5,7.4,9.5L7.4,9.5z M28.6,21.3v3h-3.4v-3h0.3v-0.4c0-0.8,0.6-1.4,1.4-1.4s1.4,0.6,1.4,1.4v0.4H28.6z M26.4,21.3
		h1.1v-0.4c0-0.1-0.1-0.3-0.2-0.4c-0.1-0.1-0.3-0.2-0.4-0.2c-0.3,0-0.5,0.3-0.5,0.6c0,0,0,0,0,0L26.4,21.3z M31.9,19.9V2.5H14.1
		L11.6,0H2.5v2.6h2.2V2.2h6l2.5,2.5h16.5v12.8c-0.5-0.3-1.1-0.5-1.6-0.6V6.5H12.3L9.7,3.9H0V25h22.3c1.6,2.6,5,3.4,7.6,1.8
		c1.6-1,2.6-2.8,2.6-4.7C32.5,21.4,32.3,20.6,31.9,19.9z M22.6,18.8c-0.4,0.4-0.6,0.9-0.8,1.4c-0.2,0.4-0.3,0.9-0.3,1.4v0.2
		c0,0.1,0,0.3,0,0.4c0,0.2,0,0.4,0,0.5H2.3V6.2h6.4l2.6,2.6h14.4v8c-0.8,0.2-1.5,0.5-2.1,1C23.3,18.1,22.9,18.4,22.6,18.8z
		 M26.9,25.4c-1.8,0-3.3-1.5-3.3-3.3c0-1.8,1.5-3.3,3.3-3.3c1.8,0,3.3,1.5,3.3,3.3C30.2,23.9,28.8,25.4,26.9,25.4L26.9,25.4z"/>
</g>
</svg>
