<svg id="Helix_SecOps_Platform" data-name="Helix SecOps Platform" xmlns="http://www.w3.org/2000/svg" xmlns:xlink="http://www.w3.org/1999/xlink" viewBox="0 0 223.99 198.35"><defs><style>.cls-1{fill:url(#linear-gradient);}</style><linearGradient id="linear-gradient" x1="40.7" y1="170.84" x2="181.28" y2="30.25" gradientUnits="userSpaceOnUse"><stop offset="0.1" stop-color="#2814ff"/><stop offset="0.14" stop-color="#2324ff"/><stop offset="0.3" stop-color="#145bff"/><stop offset="0.43" stop-color="#0983ff"/><stop offset="0.54" stop-color="#029bff"/><stop offset="0.61" stop-color="#00a4ff"/><stop offset="0.66" stop-color="#00acce"/><stop offset="0.72" stop-color="#00b590"/><stop offset="0.79" stop-color="#00bd5d"/><stop offset="0.84" stop-color="#00c434"/><stop offset="0.9" stop-color="#00c818"/><stop offset="0.95" stop-color="#00cb06"/><stop offset="0.98" stop-color="#0c0"/></linearGradient></defs><path class="cls-1" d="M94.3,133.47h26.29v6.35H94.3ZM126,119.36a3,3,0,0,0,3.17-3.18,3.18,3.18,0,0,0-6.35,0A3,3,0,0,0,126,119.36ZM94.3,130.24h26.29v-6.93H94.3ZM126,123.75a3,3,0,0,0-3.18,3.17,3.18,3.18,0,1,0,6.35,0A3,3,0,0,0,126,123.75ZM94.3,119.94h26.29V113H94.3ZM126,133.47a3.18,3.18,0,1,0,3.17,3.17A3.36,3.36,0,0,0,126,133.47Zm85.3-11.78a20.71,20.71,0,0,1-20.69,20.69l-.63,0a87.93,87.93,0,0,1-16.57,23.18,85.39,85.39,0,0,1-7.13,6.29,19.59,19.59,0,0,1,.68,5.09,20.71,20.71,0,0,1-20.69,20.69,20.42,20.42,0,0,1-16.56-8.42,84.9,84.9,0,0,1-37.1-.06A20.43,20.43,0,0,1,76,197.61a20.71,20.71,0,0,1-20.69-20.69,20.1,20.1,0,0,1,.73-5.27,84.13,84.13,0,0,1-6.9-6.11,87.08,87.08,0,0,1-16.51-23.18,20.63,20.63,0,0,1-9.12-39.45,88.33,88.33,0,0,1,8.23-36.69,20.35,20.35,0,0,1-5.2-13.63A20.71,20.71,0,0,1,57,34.34a87.86,87.86,0,0,1,34.5-16.47,20.62,20.62,0,0,1,40.79.31A87.94,87.94,0,0,1,166.4,35a20.42,20.42,0,0,1,9-2.11A20.7,20.7,0,0,1,196.08,53.6a20.45,20.45,0,0,1-4.9,13.32,86.78,86.78,0,0,1,8,36A20.64,20.64,0,0,1,211.33,121.69Zm-80.44,37H91.52L90,161.78a20.34,20.34,0,0,1,6.66,14.35,75.3,75.3,0,0,0,28.93.06,20.7,20.7,0,0,1,6.71-14.46Zm-97-45.15a8.1,8.1,0,0,0-1.92-.25,8.26,8.26,0,0,0-3.94,1,8.34,8.34,0,0,0,3.66,15.72l.28,0a8.46,8.46,0,0,0,8.33-7.83,8.17,8.17,0,0,0-1.14-4.82A8.31,8.31,0,0,0,33.93,113.54ZM89.09,60.76V145.1h44.47V60.76Zm96.5,41a73.48,73.48,0,0,0-6.17-27.88A19.76,19.76,0,0,1,163,70.12L146.55,83v21.88l26.34,6.26A20.82,20.82,0,0,1,185.59,101.72Zm-1.8-48.12A8.37,8.37,0,0,0,168,49.81a8.35,8.35,0,0,0-1,3.79,8,8,0,0,0,.4,2.35,8.26,8.26,0,0,0,2.77,4.15,7.72,7.72,0,0,0,7.09,1.68,8.5,8.5,0,0,0,6.54-8.18Zm-29.08,0a20.49,20.49,0,0,1,2-8.93,73,73,0,0,0-27-13.15A20.59,20.59,0,0,1,117.47,41v6.21h29.08V67.39l9.25-7.25A20.39,20.39,0,0,1,154.71,53.6ZM120.27,21.12a7.88,7.88,0,0,0-.15-1.38A8.36,8.36,0,1,0,109,29a7.34,7.34,0,0,0,5,.25,8.43,8.43,0,0,0,6.32-8.09ZM68,52.59a19.79,19.79,0,0,1-1.41,7.31l9.56,7.49V47.18h29.08V40.67a20.74,20.74,0,0,1-11.34-9.41A74.08,74.08,0,0,0,66.19,44.38,20,20,0,0,1,68,52.59ZM43.64,72.91a75.12,75.12,0,0,0-6.55,28.82,20.89,20.89,0,0,1,12.68,9.42l26.33-6.26V83L59,69.57A19.4,19.4,0,0,1,43.64,72.91Zm12-20.32A8.34,8.34,0,0,0,55,49.28,8.46,8.46,0,0,0,50.83,45a8.33,8.33,0,0,0-12,7.56,8.23,8.23,0,0,0,1.88,5.2,8.32,8.32,0,0,0,14.34-2.23A8.16,8.16,0,0,0,55.66,52.59Zm-10.3,84.87a73.92,73.92,0,0,0,13.41,18.48c1.47,1.46,3.08,2.93,4.9,4.43A20.56,20.56,0,0,1,76,156.23h.07V117.52l-23.45,5.57A20.59,20.59,0,0,1,45.36,137.46Zm22.27,39.46a8.35,8.35,0,0,0,14.82,5.32h0a8.3,8.3,0,0,0,2-5.32,8.61,8.61,0,0,0-2.73-6.15,8.33,8.33,0,0,0-4.48-2.12,9.43,9.43,0,0,0-1.19-.13,8.56,8.56,0,0,0-8.24,6.76A9.6,9.6,0,0,0,67.63,176.92Zm70.3-.19a8.5,8.5,0,0,0,8.37,8.59,8.41,8.41,0,0,0,8.41-8.4,7.53,7.53,0,0,0-.17-1.52,8.51,8.51,0,0,0-8.24-6.88,7.46,7.46,0,0,0-1,.1,8.5,8.5,0,0,0-4.69,2.14A8.26,8.26,0,0,0,137.93,176.73Zm25.91-20.79a73.64,73.64,0,0,0,13.44-18.48A20.67,20.67,0,0,1,170,123.1l-23.45-5.57v38.7a20.54,20.54,0,0,1,12.26,4.24C160.72,158.9,162.35,157.43,163.84,155.94ZM191,132.87h0l-.1-2.82a8.39,8.39,0,0,0-.29-16.76,8.6,8.6,0,0,0-7.18,4.14,8.24,8.24,0,0,0-1.22,4.26,8.81,8.81,0,0,0,3.1,6.44,8.31,8.31,0,0,0,5.3,2Z"/></svg>