<svg xmlns="http://www.w3.org/2000/svg" xmlns:xlink="http://www.w3.org/1999/xlink" viewBox="0 0 40 35.27"><defs><style>.Graphic-Style{fill:url(#linear-gradient);}</style><linearGradient id="linear-gradient" x1="33.17" y1="4.26" x2="8.52" y2="28.91" gradientUnits="userSpaceOnUse"><stop offset="0" stop-color="#00cd00"/><stop offset="0.4" stop-color="#00a5ff"/><stop offset="1" stop-color="#2814ff"/></linearGradient></defs><g id="Layer_2" data-name="Layer 2"><g id="Layer_1-2" data-name="Layer 1"><path class="Graphic-Style" d="M28.18,23.57a9.08,9.08,0,0,1-.05.91l-3.29-.34a5.44,5.44,0,0,0-5.42-6,5.57,5.57,0,0,0-1.82.31l1.63.36L18.51,22l-7.29-1.63L12.84,13l3.24.71-.42,1.91a8.76,8.76,0,0,1,12.52,7.91ZM19.42,29.5l1.93.43A5.45,5.45,0,0,1,14,24.84a5.07,5.07,0,0,1,.11-1.1l-3.25-.66a8.62,8.62,0,0,0-.18,1.76,8.76,8.76,0,0,0,12.28,8l-.37,1.7,3.24.71,1.62-7.38-7.29-1.62ZM30.11,5.3c-.21,0-.42,0-.63,0A12.54,12.54,0,0,0,7.16,9.14a8,8,0,0,0-.65,15.79,8.11,8.11,0,0,0,1,.12c0-.25,0-.51,0-.76a11.7,11.7,0,0,1,.27-2.54,4.52,4.52,0,0,1-.63-.08A4.66,4.66,0,0,1,8,12.42h.37l1.52.12L10.13,11a9.25,9.25,0,0,1,9.1-7.73,9.28,9.28,0,0,1,8,4.61l.58,1,1.14-.2a6.57,6.57,0,0,1,2.5,12.9c-.24.05-.49.08-.74.11A12,12,0,0,1,31,24.29c0,.25,0,.49,0,.74a10.78,10.78,0,0,0,1.14-.16,9.89,9.89,0,0,0-2-19.57Z"/></g></g></svg>