<svg id="Network_Forensics" data-name="Network Forensics" xmlns="http://www.w3.org/2000/svg" xmlns:xlink="http://www.w3.org/1999/xlink" viewBox="0 0 223.99 198.35"><defs><style>.cls-1{fill:url(#linear-gradient);}</style><linearGradient id="linear-gradient" x1="52.85" y1="168.1" x2="189.76" y2="31.18" gradientUnits="userSpaceOnUse"><stop offset="0.1" stop-color="#2814ff"/><stop offset="0.14" stop-color="#2324ff"/><stop offset="0.3" stop-color="#145bff"/><stop offset="0.43" stop-color="#0983ff"/><stop offset="0.54" stop-color="#029bff"/><stop offset="0.61" stop-color="#00a4ff"/><stop offset="0.66" stop-color="#00acce"/><stop offset="0.72" stop-color="#00b590"/><stop offset="0.79" stop-color="#00bd5d"/><stop offset="0.84" stop-color="#00c434"/><stop offset="0.9" stop-color="#00c818"/><stop offset="0.95" stop-color="#00cb06"/><stop offset="0.98" stop-color="#0c0"/></linearGradient></defs><path class="cls-1" d="M92.75,66v53.28h36.83V66Zm11.4,41.56V77.76h14v29.83ZM44.35,87.24v8h-8v-8ZM107.46,86v8h8V86Zm71.87,1.27v8h8v-8Zm24.9,41.57v-10.2h16.2V61.84H173.7a68.32,68.32,0,0,0-123.5,0H3.36v56.77h16.2v10.2H54.79a68.34,68.34,0,0,0,97.74,17.51l38.92,38.91,14.33-14.33L166.89,132c.75-1,1.3-2.15,2-3.2ZM44.67,103.62H18.35V76.84H45a66.89,66.89,0,0,0-.36,26.78Zm17.54-12.4a49.72,49.72,0,0,1,96.84-15.88l.5,1.47a49.59,49.59,0,0,1,0,28.92l-.12.41A49.74,49.74,0,0,1,62.21,91.22ZM178.87,76.84h26.57v26.78H179.16a67.73,67.73,0,0,0,1.26-12.4A68.78,68.78,0,0,0,178.87,76.84Z"/></svg>