<svg xmlns="http://www.w3.org/2000/svg" xmlns:xlink="http://www.w3.org/1999/xlink" viewBox="0 0 38.73 40"><defs><style>.cls-1{fill:url(#linear-gradient);}</style><linearGradient id="linear-gradient" x1="-531.44" y1="8193.78" x2="-561.47" y2="8163.76" gradientTransform="matrix(1, 0, 0, -1, 564, 8206.29)" gradientUnits="userSpaceOnUse"><stop offset="0" stop-color="#00cd00"/><stop offset="0.4" stop-color="#00a5ff"/><stop offset="1" stop-color="#2814ff"/></linearGradient></defs><g id="Layer_2" data-name="Layer 2"><g id="Layer_1-2" data-name="Layer 1"><path class="cls-1" d="M0,21.27H19.18v3.64H3.64V40H0Zm24.91-13A8.28,8.28,0,1,1,16.64,0,8.31,8.31,0,0,1,24.91,8.27Zm-3.73,0a4.55,4.55,0,0,0-9.09,0,4.55,4.55,0,1,0,9.09,0ZM37.45,26.55v12.9l-6.18-3.09-6.09,3.19V26.82a7.48,7.48,0,1,1,12.27-.27Zm-10-4.19a3.82,3.82,0,1,0,3.82-3.81A3.9,3.9,0,0,0,27.45,22.36Zm6.37,11.09v-4a7.73,7.73,0,0,1-2.55.46,7.17,7.17,0,0,1-2.36-.36v3.9l2.36-1.27Z"/></g></g></svg>