<svg id="Insights" xmlns="http://www.w3.org/2000/svg" xmlns:xlink="http://www.w3.org/1999/xlink" viewBox="0 0 223.99 198.35"><defs><style>.cls-1{fill:url(#linear-gradient);}</style><linearGradient id="linear-gradient" x1="51.29" y1="177.32" x2="190.36" y2="38.25" gradientUnits="userSpaceOnUse"><stop offset="0.1" stop-color="#2814ff"/><stop offset="0.14" stop-color="#2324ff"/><stop offset="0.3" stop-color="#145bff"/><stop offset="0.43" stop-color="#0983ff"/><stop offset="0.54" stop-color="#029bff"/><stop offset="0.61" stop-color="#00a4ff"/><stop offset="0.66" stop-color="#00acce"/><stop offset="0.72" stop-color="#00b590"/><stop offset="0.79" stop-color="#00bd5d"/><stop offset="0.84" stop-color="#00c434"/><stop offset="0.9" stop-color="#00c818"/><stop offset="0.95" stop-color="#00cb06"/><stop offset="0.98" stop-color="#0c0"/></linearGradient></defs><path class="cls-1" d="M202.07,137a96.53,96.53,0,0,0,8-38.36,97.6,97.6,0,0,0-12.76-48.25l-.35-.93-.57-.67a98.22,98.22,0,0,0-169.37-.36l-.71.86-.3.82a97.66,97.66,0,0,0-1.36,94.6l-.15.08L26,147.19l1,1.51a99,99,0,0,0,84.64,48.38A96.78,96.78,0,0,0,148,189.9a38.05,38.05,0,0,0,54-53Zm-30.2.13a23.1,23.1,0,1,1-23.22,23.1A23.19,23.19,0,0,1,171.87,137.08ZM191,121a98.84,98.84,0,0,0-9.62-11.06c-3.06-3.09-6.61-6.35-10.56-9.71,0-.4,0-.79,0-1.18a12.56,12.56,0,0,0-.16-2c4-3.42,7.61-6.7,10.67-9.79A99.78,99.78,0,0,0,191,76.18,80.55,80.55,0,0,1,191,121ZM141.87,98.08c0,.33,0,.65,0,1v.08c-7,4.87-14.37,9.53-21.89,13.87s-15.28,8.41-22.82,12c-.35-.23-.72-.45-1.1-.65-.68-8.3-1-16.94-1-25.73s.33-17.21,1-25.34a13.6,13.6,0,0,0,1.47-.88c7.4,3.51,15,7.48,22.48,11.82S134.87,93.22,141.87,98.08Zm28.24-22c-2.81,2.83-6.12,5.86-9.86,9a14,14,0,0,0-8.76.33c-7.58-5.29-15.51-10.32-23.59-15S111.68,61.5,103.37,57.6A14.47,14.47,0,0,0,99,49.81C103.5,25.05,109.82,16.37,111.62,16A82.72,82.72,0,0,1,183,57.1C183.25,58.38,181.44,64.62,170.11,76ZM103.48,139.5c8.43-4,16.63-8.23,24.42-12.72s15.48-9.37,22.73-14.39a14.31,14.31,0,0,0,10.4.38c3.37,2.89,6.42,5.7,9.08,8.38.3.29.58.59.86.88a38.28,38.28,0,0,0-37.43,38.15,37.62,37.62,0,0,0,3.92,16.63,80.55,80.55,0,0,1-25.79,4.36c-1.83-.36-8.11-9-12.6-33.47A14.46,14.46,0,0,0,103.48,139.5ZM83.32,47.21a14,14,0,0,0-2.12,1.15C70.34,44.46,60.55,42,52.43,41.11a82.8,82.8,0,0,1,39-22.48C88.14,26.11,85.37,35.83,83.32,47.21ZM74.85,63a14.48,14.48,0,0,0,5.33,8.86c-.73,8.82-1.1,17.82-1.1,26.76s.38,18.12,1.13,27.11A14.49,14.49,0,0,0,75,134.17c-24.89,8.83-33.9,6.66-34.57,6a81.89,81.89,0,0,1-.23-82.76c.36-.41,2-1,5.45-1C50.78,56.38,60,57.71,74.85,63Zm6,86a13.91,13.91,0,0,0,2.56,1.42c2,11.19,4.78,20.78,8,28.17a82.8,82.8,0,0,1-39-22.43C60.45,155.23,70.1,152.79,80.83,149Zm101.86,4.9v-3a10.83,10.83,0,1,0-21.65,0v3h-2v22.35h25.57V153.86Zm-15.13,0v-3a4.29,4.29,0,0,1,4.24-4.31,4.5,4.5,0,0,1,3.11,1.26,4.24,4.24,0,0,1,1.26,3.05v3Z"/></svg>