<?xml version="1.0" encoding="utf-8"?>
<!-- Generator: Adobe Illustrator 26.2.1, SVG Export Plug-In . SVG Version: 6.00 Build 0)  -->
<svg version="1.1" id="Layer_1" xmlns="http://www.w3.org/2000/svg" xmlns:xlink="http://www.w3.org/1999/xlink" x="0px" y="0px"
	 viewBox="0 0 25.7 25.7" style="enable-background:new 0 0 25.7 25.7;" xml:space="preserve">
<style type="text/css">
	.st0{fill:url(#SVGID_1_);}
</style>
<g id="Layer_1_00000030447347183913095700000006538184546730728629_">
	
		<linearGradient id="SVGID_1_" gradientUnits="userSpaceOnUse" x1="6.6153" y1="5.7273" x2="21.0053" y2="20.1173" gradientTransform="matrix(1 0 0 -1 0 26.8325)">
		<stop  offset="0.1" style="stop-color:#2814FF"/>
		<stop  offset="0.14" style="stop-color:#2324FF"/>
		<stop  offset="0.3" style="stop-color:#145BFF"/>
		<stop  offset="0.43" style="stop-color:#0983FF"/>
		<stop  offset="0.54" style="stop-color:#029BFF"/>
		<stop  offset="0.61" style="stop-color:#00A4FF"/>
		<stop  offset="0.66" style="stop-color:#00ACCE"/>
		<stop  offset="0.72" style="stop-color:#00B590"/>
		<stop  offset="0.79" style="stop-color:#00BD5D"/>
		<stop  offset="0.84" style="stop-color:#00C434"/>
		<stop  offset="0.9" style="stop-color:#00C818"/>
		<stop  offset="0.95" style="stop-color:#00CB06"/>
		<stop  offset="0.98" style="stop-color:#00CC00"/>
	</linearGradient>
	<path class="st0" d="M8.7,11.7H7.5V7.5h1.2V11.7z M15.7,7.5h-1.1v4.2h1.2L15.7,7.5z M14.1,9.6c0-1.4-1.1-2.5-2.5-2.5
		c-1.4,0-2.5,1.1-2.5,2.5c0,1.4,1.1,2.5,2.5,2.5C12.9,12.1,14.1,11,14.1,9.6 M12.9,9.6c0,0.7-0.6,1.3-1.3,1.3s-1.3-0.6-1.3-1.3
		s0.6-1.3,1.3-1.3l0,0C12.3,8.3,12.9,8.9,12.9,9.6C12.9,9.6,12.9,9.6,12.9,9.6 M12.6,12.7h-1.2v4.2h1.2V12.7z M17,7.9
		c-0.9,1-0.9,2.6,0.1,3.5c0.1,0.1,0.1,0.1,0.2,0.2c0.1-0.4,0.1-0.9,0.1-1.3C17.4,9.4,17.2,8.6,17,7.9 M14.7,7.1
		c0.6,0,1.2-0.2,1.6-0.6c-0.2-0.4-0.4-0.7-0.7-1c-0.5,0.5-1.3,0.6-1.8,0.1c-0.5-0.4-0.6-1.2-0.2-1.7c-0.4-0.2-0.7-0.4-1.1-0.5
		c-0.7,1.2-0.2,2.7,1,3.3C13.8,7,14.3,7.1,14.7,7.1 M11.5,6.7V3.2c-0.4-0.1-0.8-0.1-1.2-0.1v3.6L11.5,6.7z M7.4,7.1
		c1.4,0,2.5-1.1,2.5-2.5c0-0.5-0.2-1.1-0.5-1.5c-0.5,0.1-1,0.2-1.5,0.3c0.6,0.3,0.9,1,0.7,1.7C8.3,5.6,7.9,5.9,7.4,5.9
		c-0.7,0-1.3-0.6-1.3-1.3c0,0,0,0,0,0c0-0.1,0-0.2,0-0.3C5.7,4.6,5.3,4.9,5,5.3C5.3,6.3,6.2,7.1,7.4,7.1 M3.9,6.7h0.5V5.9
		C4.2,6.2,4.1,6.4,3.9,6.7 M4.6,12.1c-0.5,0-1.1-0.2-1.5-0.5C3,11.1,3,10.7,3,10.2c0-1,0.2-2,0.6-2.9c0.3-0.1,0.7-0.2,1-0.2
		C5.9,7.2,7,8.4,6.9,9.7C6.8,11,5.8,12,4.6,12.1 M4.6,10.9c0.7,0,1.3-0.6,1.3-1.3c0-0.7-0.6-1.3-1.3-1.3S3.3,8.9,3.3,9.6
		c0,0,0,0,0,0C3.3,10.3,3.9,10.9,4.6,10.9 M4.1,12.7V14c0.3,0.5,0.7,1,1.2,1.5v-2.8H4.1z M8.6,17.3c-0.9-0.2-1.8-0.6-2.5-1.1
		c-0.7-1.2-0.4-2.7,0.8-3.4c1.2-0.7,2.7-0.4,3.4,0.8c0.7,1.2,0.4,2.7-0.8,3.4C9.2,17.1,8.9,17.2,8.6,17.3 M9.5,14.8
		c0-0.7-0.6-1.3-1.3-1.3s-1.3,0.6-1.3,1.3c0,0.7,0.6,1.3,1.3,1.3C8.9,16.1,9.5,15.5,9.5,14.8C9.5,14.8,9.5,14.8,9.5,14.8 M13.1,15
		c0,0.6,0.2,1.1,0.6,1.6c0.3-0.2,0.7-0.4,1-0.7c-0.2-0.2-0.4-0.6-0.4-0.9c0-0.7,0.6-1.3,1.3-1.3c0,0,0,0,0,0c0.3,0,0.5,0.1,0.8,0.2
		c0.2-0.3,0.4-0.7,0.5-1.1c-0.4-0.2-0.8-0.4-1.3-0.4C14.2,12.5,13.1,13.6,13.1,15 M18.3,16.3c3.4-4.5,2.5-10.9-2-14.3
		S5.4-0.4,2.1,4.1s-2.5,10.9,2,14.3c3.6,2.7,8.6,2.7,12.3,0l7.4,7.4l2-2L18.3,16.3z M10.2,18.1c-4.3,0-7.8-3.5-7.8-7.8
		s3.5-7.8,7.8-7.8S18,5.9,18,10.2l0,0C18,14.6,14.5,18.1,10.2,18.1C10.2,18.1,10.2,18.1,10.2,18.1L10.2,18.1z"/>
</g>
</svg>
