<svg id="Layer_3" data-name="Layer 3" xmlns="http://www.w3.org/2000/svg" xmlns:xlink="http://www.w3.org/1999/xlink" viewBox="0 0 223.99 198.35"><defs><style>.cls-1{fill:url(#linear-gradient);}</style><linearGradient id="linear-gradient" x1="20.77" y1="188.58" x2="203.17" y2="6.18" gradientUnits="userSpaceOnUse"><stop offset="0.1" stop-color="#2814ff"/><stop offset="0.14" stop-color="#2324ff"/><stop offset="0.3" stop-color="#145bff"/><stop offset="0.43" stop-color="#0983ff"/><stop offset="0.54" stop-color="#029bff"/><stop offset="0.61" stop-color="#00a4ff"/><stop offset="0.66" stop-color="#00acce"/><stop offset="0.72" stop-color="#00b590"/><stop offset="0.79" stop-color="#00bd5d"/><stop offset="0.84" stop-color="#00c434"/><stop offset="0.9" stop-color="#00c818"/><stop offset="0.95" stop-color="#00cb06"/><stop offset="0.98" stop-color="#0c0"/></linearGradient></defs><path class="cls-1" d="M7.29,19.67V175.1H216.65V19.67Zm18.08,17.9V34.06h86.87v3.51Zm169.06,1V33.3l5.34-.26v5.55ZM25.37,157V50.72h173.2V157Zm44.3-75.68L48.85,88.09l-.22-1A22.79,22.79,0,0,1,63.91,60.54a21.64,21.64,0,0,1,4.74-1l1-.1Zm3.64-21.79-1-.1V83.23L49.65,90.58l.41.94A22.48,22.48,0,0,0,71,105.13a22.85,22.85,0,0,0,2.33-45.59Zm81.74,48-1-.11v19.86l11.67,16.06.77-.67a19.48,19.48,0,0,0,6.66-15A20.18,20.18,0,0,0,155.05,107.56Zm-3.67-.11-1,.1a19.42,19.42,0,0,0-9.75,3.76,20.25,20.25,0,0,0-4.48,28.25,20.26,20.26,0,0,0,26.45,5.66l.89-.52L151.38,128ZM126.11,70.13V80.24h53.18V70.13Zm0,24.4h53.18V84.42H126.11Zm-81.72,21v10.12H97.57V115.52Zm0,24.4H97.57V129.81H44.39Z"/></svg>