<?xml version="1.0" encoding="utf-8"?>
<!-- Generator: Adobe Illustrator 26.2.1, SVG Export Plug-In . SVG Version: 6.00 Build 0)  -->
<svg version="1.1" id="Layer_1" xmlns="http://www.w3.org/2000/svg" xmlns:xlink="http://www.w3.org/1999/xlink" x="0px" y="0px"
	 viewBox="0 0 30.6 29.2" style="enable-background:new 0 0 30.6 29.2;" xml:space="preserve">
<style type="text/css">
	.st0{fill:url(#SVGID_1_);}
</style>
<g id="ICON_ARTWORK">
	
		<linearGradient id="SVGID_1_" gradientUnits="userSpaceOnUse" x1="4.3889" y1="0.1074" x2="26.1789" y2="21.9074" gradientTransform="matrix(1 0 0 -1 0 32)">
		<stop  offset="0.1" style="stop-color:#2814FF;stop-opacity:0.9"/>
		<stop  offset="0.15" style="stop-color:#2326FF;stop-opacity:0.91"/>
		<stop  offset="0.3" style="stop-color:#145CFF;stop-opacity:0.95"/>
		<stop  offset="0.44" style="stop-color:#0983FF;stop-opacity:0.98"/>
		<stop  offset="0.54" style="stop-color:#029BFF;stop-opacity:0.99"/>
		<stop  offset="0.61" style="stop-color:#00A4FF"/>
		<stop  offset="0.66" style="stop-color:#00ACCE"/>
		<stop  offset="0.72" style="stop-color:#00B590"/>
		<stop  offset="0.79" style="stop-color:#00BD5D"/>
		<stop  offset="0.84" style="stop-color:#00C434"/>
		<stop  offset="0.9" style="stop-color:#00C818"/>
		<stop  offset="0.95" style="stop-color:#00CB06"/>
		<stop  offset="0.98" style="stop-color:#00CC00"/>
	</linearGradient>
	<path class="st0" d="M20.6,20.9V13h-11v7.9h3.7v0.8h-0.9v1.5h5.4v-1.5h-0.9v-0.8H20.6z M19,14.5v4.9h-7.9v-4.9H19z M28.3,24.4
		c-0.2,0-0.4,0-0.6,0.1l-1.9-1.9c0.8-1.6,1.2-3.3,1.2-5.1c0-6-4.6-11.1-10.6-11.7V3.7c0.6-0.4,0.9-1,0.9-1.7c0-1.1-0.9-2-2-2
		c-1.1,0-2,0.9-2,2c0,0.7,0.3,1.3,0.9,1.6v2.1C7.8,6.3,3,12,3.5,18.4c0.1,1.4,0.5,2.8,1.1,4.1l-1.9,1.9c-0.2,0-0.4-0.1-0.6-0.1
		c-1.2,0-2.2,1-2.2,2.2c0,1.2,1,2.2,2.2,2.2c1.2,0,2.2-1,2.2-2.2c0,0,0,0,0,0c0-0.2,0-0.4-0.1-0.6l1.6-1.5
		c3.9,5.2,11.2,6.2,16.4,2.4c0.9-0.7,1.7-1.5,2.4-2.4l1.6,1.5c-0.1,0.2-0.1,0.4-0.1,0.6c0,1.2,1,2.2,2.2,2.2c1.2,0,2.2-1,2.2-2.2
		C30.6,25.4,29.6,24.4,28.3,24.4C28.4,24.4,28.3,24.4,28.3,24.4L28.3,24.4z M24.8,17.4c0,5.3-4.3,9.5-9.5,9.5s-9.5-4.3-9.5-9.5
		s4.3-9.5,9.5-9.5C20.5,7.9,24.8,12.2,24.8,17.4z"/>
</g>
</svg>
