<svg id="Email_Service" data-name="Email Service" xmlns="http://www.w3.org/2000/svg" xmlns:xlink="http://www.w3.org/1999/xlink" viewBox="0 0 223.99 198.88"><defs><style>.cls-1{fill:url(#linear-gradient);}</style><linearGradient id="linear-gradient" x1="24.11" y1="175.56" x2="179.13" y2="20.55" gradientUnits="userSpaceOnUse"><stop offset="0.1" stop-color="#2814ff"/><stop offset="0.14" stop-color="#2324ff"/><stop offset="0.3" stop-color="#145bff"/><stop offset="0.43" stop-color="#0983ff"/><stop offset="0.54" stop-color="#029bff"/><stop offset="0.61" stop-color="#00a4ff"/><stop offset="0.66" stop-color="#00acce"/><stop offset="0.72" stop-color="#00b590"/><stop offset="0.79" stop-color="#00bd5d"/><stop offset="0.84" stop-color="#00c434"/><stop offset="0.9" stop-color="#00c818"/><stop offset="0.95" stop-color="#00cb06"/><stop offset="0.98" stop-color="#0c0"/></linearGradient></defs><path class="cls-1" d="M185.46,80.7V26.88H4.37v112L4.59,156h132.9a47.28,47.28,0,1,0,48-75.34ZM166.37,43.3,94.83,87.4,23.32,43.3ZM23.67,62.49,51.16,81.6,23.67,113.28Zm103.59,64.22a47,47,0,0,0,1.61,12.23H24.19L64.51,91.81l30.11,18.86,28-18.33,10.53,11.5A47,47,0,0,0,127.26,126.71ZM136,81.86l29.55-19.11-.17,17.57a47.09,47.09,0,0,0-21.45,10.4Zm38.56,77.75a32.91,32.91,0,1,1,32.9-32.9A32.94,32.94,0,0,1,174.55,159.61ZM188,114.7a13.61,13.61,0,0,0-27.22,0v3.48h-2.42v26.57H190.4V118.17H188Zm-8.53,3.47H169.3V114.7a5,5,0,0,1,5-5.08,5.36,5.36,0,0,1,3.7,1.48,5.09,5.09,0,0,1,1.48,3.6Z"/></svg>