<svg xmlns="http://www.w3.org/2000/svg" xmlns:xlink="http://www.w3.org/1999/xlink" viewBox="0 0 47 43.8"><defs><style>.cls-1{fill:url(#linear-gradient);}</style><linearGradient id="linear-gradient" x1="-528.25" y1="8201.54" x2="-554.95" y2="8174.84" gradientTransform="matrix(1, 0, 0, -1, 564, 8210.09)" gradientUnits="userSpaceOnUse"><stop offset="0" stop-color="#00cd00"/><stop offset="0.4" stop-color="#00a5ff"/><stop offset="1" stop-color="#2814ff"/></linearGradient></defs><g id="Layer_2" data-name="Layer 2"><g id="Layer_1-2" data-name="Layer 1"><path class="cls-1" d="M17.6,31.6a9.7,9.7,0,0,0,0-19.4,9.53,9.53,0,0,0-9.4,7.6H0V24H8.2A9.72,9.72,0,0,0,17.6,31.6Zm0-15.2a5.5,5.5,0,1,1-5.5,5.5A5.55,5.55,0,0,1,17.6,16.4ZM47,24H39.4A21.92,21.92,0,0,1,17.6,43.8V39.6a17.7,17.7,0,0,0,0-35.4V0A21.92,21.92,0,0,1,39.4,19.8H47Z"/></g></g></svg>