<svg xmlns="http://www.w3.org/2000/svg" xmlns:xlink="http://www.w3.org/1999/xlink" viewBox="0 0 40 37.37"><defs><style>.cls-1{fill:url(#linear-gradient);}</style><linearGradient id="linear-gradient" x1="-525.57" y1="8201.75" x2="-560.6" y2="8166.72" gradientTransform="matrix(1, 0, 0, -1, 564, 8203.66)" gradientUnits="userSpaceOnUse"><stop offset="0" stop-color="#00cd00"/><stop offset="0.4" stop-color="#00a5ff"/><stop offset="1" stop-color="#2814ff"/></linearGradient></defs><g id="Layer_2" data-name="Layer 2"><g id="Layer_1-2" data-name="Layer 1"><path class="cls-1" d="M36.52,26.16V0h-3.4V26.16H29.64V37.37H40V26.16Zm0,7.81H33V29.55h3.48ZM5.52,0A5.67,5.67,0,0,0,0,5.77,5.69,5.69,0,0,0,3.82,11V37.37h3.4V11A5.6,5.6,0,0,0,10.7,3.82,5.55,5.55,0,0,0,5.52,0Zm0,7.81a2.25,2.25,0,0,1-2.21-2.2A2.25,2.25,0,0,1,5.52,3.4a2.21,2.21,0,1,1,0,4.41Zm16.31,4.84V0h-3.4V12.57l-5.78,10h5.78V37.37h3.4V22.59H27.6ZM18.6,19.19l1.53-2.71,1.53,2.71Z"/></g></g></svg>