<svg id="Layer_19" data-name="Layer 19" xmlns="http://www.w3.org/2000/svg" xmlns:xlink="http://www.w3.org/1999/xlink" viewBox="0 0 223.99 198.35"><defs><style>.cls-1{fill:url(#linear-gradient);}</style><linearGradient id="linear-gradient" x1="49.73" y1="180.25" x2="187.32" y2="42.66" gradientUnits="userSpaceOnUse"><stop offset="0.1" stop-color="#2814ff"/><stop offset="0.14" stop-color="#2324ff"/><stop offset="0.3" stop-color="#145bff"/><stop offset="0.43" stop-color="#0983ff"/><stop offset="0.54" stop-color="#029bff"/><stop offset="0.61" stop-color="#00a4ff"/><stop offset="0.66" stop-color="#00acce"/><stop offset="0.72" stop-color="#00b590"/><stop offset="0.79" stop-color="#00bd5d"/><stop offset="0.84" stop-color="#00c434"/><stop offset="0.9" stop-color="#00c818"/><stop offset="0.95" stop-color="#00cb06"/><stop offset="0.98" stop-color="#0c0"/></linearGradient></defs><path class="cls-1" d="M169.85,74.81a31.17,31.17,0,0,0-29.68-30.48,29.93,29.93,0,0,0-27.77-19,30.24,30.24,0,0,0-5.38.49,42.6,42.6,0,0,0-77.22,8,37,37,0,0,0,9.11,72.8H53.75v77.7H219.47V74.81Zm-42.88,0L111.5,59.33H53.75v32H38.91A21.69,21.69,0,0,1,36.7,48l5.61-.57,1.11-5.54a27.33,27.33,0,0,1,52.42-4.19l2.9,7.77,7.5-3.52a14.47,14.47,0,0,1,20.55,11.32l1,8.06,8-1.49a15.65,15.65,0,0,1,18.8,15ZM69,74.61h36.15l15.48,15.48H204.2V169H69ZM151.31,122v-5.52a14.7,14.7,0,1,0-29.4,0v5.53h-2.86v28.63h35.11V122Zm-22.13-5.52a7.43,7.43,0,0,1,7.38-7.43,7.74,7.74,0,0,1,5.3,2.18,7.37,7.37,0,0,1,2.17,5.25V122H129.18Z"/></svg>