<svg id="Intrusion_Prevention" data-name="Intrusion Prevention" xmlns="http://www.w3.org/2000/svg" xmlns:xlink="http://www.w3.org/1999/xlink" viewBox="0 0 223.99 198.35"><defs><style>.cls-1{fill:url(#linear-gradient);}</style><linearGradient id="linear-gradient" x1="55.7" y1="156.19" x2="167.11" y2="44.79" gradientUnits="userSpaceOnUse"><stop offset="0.1" stop-color="#2814ff"/><stop offset="0.14" stop-color="#2324ff"/><stop offset="0.3" stop-color="#145bff"/><stop offset="0.43" stop-color="#0983ff"/><stop offset="0.54" stop-color="#029bff"/><stop offset="0.61" stop-color="#00a4ff"/><stop offset="0.66" stop-color="#00acce"/><stop offset="0.72" stop-color="#00b590"/><stop offset="0.79" stop-color="#00bd5d"/><stop offset="0.84" stop-color="#00c434"/><stop offset="0.9" stop-color="#00c818"/><stop offset="0.95" stop-color="#00cb06"/><stop offset="0.98" stop-color="#0c0"/></linearGradient></defs><path class="cls-1" d="M216.25,93.92c-21.4-21.39-66.24-57.63-101-60.41l-3.15-.12-3.15,0C79.94,34.65,45.49,55,6.58,93.92L0,100.49l6.57,6.57c40.43,40.42,73.17,59.66,103,60.55l1.28-.05.39.11,4.58-.12v-.1c37.63-2.91,78.86-38.87,100.38-60.39l6.58-6.57Zm-42.63,6.48a59.28,59.28,0,0,0-4.87-23.57,277.49,277.49,0,0,1,28.87,23.73,278.24,278.24,0,0,1-29.54,24.85A58.89,58.89,0,0,0,173.62,100.4Zm-18-.05a44.48,44.48,0,1,1-44.48-44.47A44.53,44.53,0,0,1,155.64,100.35Zm-101.38,25a291.09,291.09,0,0,1-29.1-24.89A288.86,288.86,0,0,1,54,75.91a59.23,59.23,0,0,0,.25,49.48Zm85.83-25A28.33,28.33,0,1,1,111.76,72,28.36,28.36,0,0,1,140.09,100.35Z"/></svg>