<?xml version="1.0" encoding="utf-8"?>
<!-- Generator: Adobe Illustrator 26.2.1, SVG Export Plug-In . SVG Version: 6.00 Build 0)  -->
<svg version="1.1" id="Layer_1" xmlns="http://www.w3.org/2000/svg" xmlns:xlink="http://www.w3.org/1999/xlink" x="0px" y="0px"
	 viewBox="0 0 30.6 29.3" style="enable-background:new 0 0 30.6 29.3;" xml:space="preserve">
<style type="text/css">
	.st0{fill:url(#SVGID_1_);}
</style>
<g id="Layer_1_00000056421342638101985470000008571304594840173497_">
	
		<linearGradient id="SVGID_1_" gradientUnits="userSpaceOnUse" x1="4.4038" y1="0.5113" x2="26.2862" y2="22.3937" gradientTransform="matrix(1 0 0 -1 0 32.4811)">
		<stop  offset="0.1" style="stop-color:#2814FF"/>
		<stop  offset="0.14" style="stop-color:#2324FF"/>
		<stop  offset="0.3" style="stop-color:#145BFF"/>
		<stop  offset="0.43" style="stop-color:#0983FF"/>
		<stop  offset="0.54" style="stop-color:#029BFF"/>
		<stop  offset="0.61" style="stop-color:#00A4FF"/>
		<stop  offset="0.66" style="stop-color:#00ACCE"/>
		<stop  offset="0.72" style="stop-color:#00B590"/>
		<stop  offset="0.79" style="stop-color:#00BD5D"/>
		<stop  offset="0.84" style="stop-color:#00C434"/>
		<stop  offset="0.9" style="stop-color:#00C818"/>
		<stop  offset="0.95" style="stop-color:#00CB06"/>
		<stop  offset="0.98" style="stop-color:#00CC00"/>
	</linearGradient>
	<path class="st0" d="M28.4,24.4c-0.2,0-0.4,0-0.6,0.1l-1.9-1.9c2.8-5.8,0.4-12.9-5.5-15.7c-1.3-0.6-2.6-1-4-1.1V3.7
		c0.9-0.6,1.2-1.8,0.6-2.8s-1.8-1.2-2.8-0.6s-1.2,1.8-0.6,2.8c0.1,0.2,0.3,0.4,0.6,0.6v2.1C7.8,6.3,3,12,3.6,18.5
		c0.1,1.4,0.5,2.8,1.1,4.1l-1.9,1.9c-0.2-0.1-0.4-0.1-0.6-0.1c-1.2,0-2.2,1-2.2,2.2c0,1.2,1,2.2,2.2,2.2s2.2-1,2.2-2.2l0,0
		c0-0.2,0-0.4-0.1-0.6l1.6-1.6c3.8,5.2,11.2,6.3,16.4,2.4c0.9-0.7,1.8-1.5,2.4-2.4l1.6,1.6c-0.1,0.2-0.1,0.4-0.1,0.6
		c0,1.2,1,2.2,2.2,2.2c1.2,0,2.2-1,2.2-2.2C30.6,25.4,29.7,24.4,28.4,24.4C28.4,24.4,28.4,24.4,28.4,24.4z M24.9,17.4
		c0,5.3-4.3,9.6-9.6,9.6s-9.6-4.3-9.6-9.6s4.3-9.6,9.6-9.6c0,0,0,0,0,0C20.6,7.9,24.9,12.2,24.9,17.4C24.9,17.5,24.9,17.5,24.9,17.4
		L24.9,17.4z M19.1,14.5v-1c0.1-2-1.5-3.8-3.5-3.9c-2-0.1-3.8,1.5-3.9,3.5c0,0.1,0,0.3,0,0.4v1h-1.4V23h10.2v-8.4L19.1,14.5z
		 M13.4,14.5v-1c0-1.1,0.9-2,2-2s2,0.9,2,2v1H13.4z M12,21.3v-5h6.7v5.1L12,21.3z M16.7,17.9c0,0.5-0.3,0.9-0.7,1.1v1.7h-1.2v-1.7
		c-0.6-0.3-0.9-1.1-0.6-1.7c0.3-0.6,1.1-0.9,1.7-0.6C16.4,17,16.7,17.5,16.7,17.9L16.7,17.9z"/>
</g>
</svg>
