<svg id="Detect_Response" data-name="Detect Response" xmlns="http://www.w3.org/2000/svg" xmlns:xlink="http://www.w3.org/1999/xlink" viewBox="0 0 223.99 198.88"><defs><style>.cls-1{fill:url(#linear-gradient);}</style><linearGradient id="linear-gradient" x1="49.65" y1="161.48" x2="191.71" y2="19.42" gradientUnits="userSpaceOnUse"><stop offset="0.1" stop-color="#2814ff"/><stop offset="0.14" stop-color="#2324ff"/><stop offset="0.3" stop-color="#145bff"/><stop offset="0.43" stop-color="#0983ff"/><stop offset="0.54" stop-color="#029bff"/><stop offset="0.61" stop-color="#00a4ff"/><stop offset="0.66" stop-color="#00acce"/><stop offset="0.72" stop-color="#00b590"/><stop offset="0.79" stop-color="#00bd5d"/><stop offset="0.84" stop-color="#00c434"/><stop offset="0.9" stop-color="#00c818"/><stop offset="0.95" stop-color="#00cb06"/><stop offset="0.98" stop-color="#0c0"/></linearGradient></defs><path class="cls-1" d="M129.35,91.87l65.09-65.25,2.23-2.23L186.59,14.33,169.32,31.64A88.93,88.93,0,0,0,119.26,10.9V2.35H105V10.9a88.48,88.48,0,0,0-81,81H15.51v14.24h8.61a87.85,87.85,0,0,0,2.26,14.3l1.16,4.6,3.8-2.85a11.68,11.68,0,0,1,5.85-2.25l3.59-.36-.83-3.5a71.31,71.31,0,0,1-1.57-9.94H57.57A55.44,55.44,0,0,0,105,153.56v19.18a74.9,74.9,0,0,1-54.22-32l-2-3-2.69,2.4a11.53,11.53,0,0,1-5.61,2.8l-4.7.87,2.64,4A89.06,89.06,0,0,0,105,187v8.6h14.24v-8.54a88.48,88.48,0,0,0,81-81h8.54V91.87Zm-10,60.9a53,53,0,0,0,28.21-12.38l3.25-2.78-4-1.46a12.13,12.13,0,0,1-5.39-3.91l-1.53-2-2,1.53a40.35,40.35,0,0,1-18.56,8V106.17H153a36.2,36.2,0,0,1-.82,4l-.64,2.4,2.4.64a12,12,0,0,1,5.74,3.46l2.92,3.17,1.29-4.11a50.51,50.51,0,0,0,1.92-9.59h20.13a73.46,73.46,0,0,1-66.61,66.62ZM159.75,41.69,145.61,55.86a53,53,0,0,0-26.54-11v-20A73.69,73.69,0,0,1,159.75,41.69ZM136.31,65.58,118.84,83.1V58.35A40.39,40.39,0,0,1,136.31,65.58ZM79.93,72.42l1.6-1.94-2-1.58a12,12,0,0,1-3.83-5.36l-1.41-4-2.8,3.13A53,53,0,0,0,58.36,91.8h-20A73.48,73.48,0,0,1,105,25.18V45.31a50.42,50.42,0,0,0-8.25,1.57l-4,1.16,3,3a12.08,12.08,0,0,1,3.2,5.82l.55,2.46,2.46-.59c1-.24,2-.44,3.13-.61V91.8H71.36A40.2,40.2,0,0,1,79.93,72.42Zm25.36,33.42v33.74a40.45,40.45,0,0,1-33.74-33.74ZM96,59.55a8.57,8.57,0,0,1-8.59,8.59A8.22,8.22,0,0,1,83,66.77a7.76,7.76,0,0,1-1.65-1.14,8.54,8.54,0,0,1-2.52-6.08,7.3,7.3,0,0,1,.38-2.13,6.15,6.15,0,0,1,.29-1.21A8.59,8.59,0,0,1,87.38,51a4.11,4.11,0,0,1,1.1.18,8.71,8.71,0,0,1,6.81,5.07,8.19,8.19,0,0,1,.53,2.45Zm63.43,65a8.54,8.54,0,0,1-6,8.09,8.35,8.35,0,0,1-2.61.5,8.5,8.5,0,0,1-7.2-4.12,8.32,8.32,0,0,1-1.39-4.47,8.6,8.6,0,0,1,8.59-8.6,3.67,3.67,0,0,1,1.09.18,8.59,8.59,0,0,1,7.38,7.65ZM46.92,131.48a8.6,8.6,0,1,1-8.59-8.59A8.61,8.61,0,0,1,46.92,131.48Z"/></svg>