<?xml version="1.0" encoding="utf-8"?>
<!-- Generator: Adobe Illustrator 26.2.1, SVG Export Plug-In . SVG Version: 6.00 Build 0)  -->
<svg version="1.1" id="Layer_1" xmlns="http://www.w3.org/2000/svg" xmlns:xlink="http://www.w3.org/1999/xlink" x="0px" y="0px"
	 viewBox="0 0 26.6 26.6" style="enable-background:new 0 0 26.6 26.6;" xml:space="preserve">
<style type="text/css">
	.st0{fill:url(#SVGID_1_);}
</style>
<g id="ICON_ARTWORK">
	
		<linearGradient id="SVGID_1_" gradientUnits="userSpaceOnUse" x1="3.8984" y1="6.6984" x2="22.6984" y2="25.4984" gradientTransform="matrix(1 0 0 -1 0 29.42)">
		<stop  offset="0.1" style="stop-color:#2814FF;stop-opacity:0.9"/>
		<stop  offset="0.15" style="stop-color:#2326FF;stop-opacity:0.91"/>
		<stop  offset="0.3" style="stop-color:#145CFF;stop-opacity:0.95"/>
		<stop  offset="0.44" style="stop-color:#0983FF;stop-opacity:0.98"/>
		<stop  offset="0.54" style="stop-color:#029BFF;stop-opacity:0.99"/>
		<stop  offset="0.61" style="stop-color:#00A4FF"/>
		<stop  offset="0.66" style="stop-color:#00ACCE"/>
		<stop  offset="0.72" style="stop-color:#00B590"/>
		<stop  offset="0.79" style="stop-color:#00BD5D"/>
		<stop  offset="0.84" style="stop-color:#00C434"/>
		<stop  offset="0.9" style="stop-color:#00C818"/>
		<stop  offset="0.95" style="stop-color:#00CB06"/>
		<stop  offset="0.98" style="stop-color:#00CC00"/>
	</linearGradient>
	<path class="st0" d="M16.6,12.7l2.9,3.6l-1.4,1.2l-1-1.2c-1,3.2-4.4,5-7.6,4c-2.6-0.8-4.3-3.1-4.3-5.8v-0.3H7v0.3
		c0,2.4,1.9,4.3,4.3,4.3c1.7,0,3.3-1,3.9-2.6L14.1,17L13,15.5L16.6,12.7z M15.4,6.1c-2.7,0-5,1.8-5.8,4.3L8.6,9.3l-1.4,1.1l2.9,3.6
		l3.7-2.8l-1.1-1.5l-1.2,0.9c0.9-2.2,3.3-3.3,5.5-2.4c1.6,0.6,2.7,2.2,2.7,4v0.3h1.8v-0.3C21.5,8.8,18.7,6.1,15.4,6.1L15.4,6.1z
		 M26.6,13.3c0,7.4-6,13.3-13.3,13.3S0,20.7,0,13.3S6,0,13.3,0C20.7,0,26.6,6,26.6,13.3z M13.3,2.2c-6.1,0-11.1,5-11.1,11.1
		s5,11.1,11.1,11.1s11.1-5,11.1-11.1C24.4,7.2,19.4,2.2,13.3,2.2z"/>
</g>
</svg>
