<?xml version="1.0" encoding="utf-8"?>
<!-- Generator: Adobe Illustrator 26.3.1, SVG Export Plug-In . SVG Version: 6.00 Build 0)  -->
<svg version="1.1" id="Layer_1" xmlns="http://www.w3.org/2000/svg" xmlns:xlink="http://www.w3.org/1999/xlink" x="0px" y="0px"
	 viewBox="0 0 24 24" style="enable-background:new 0 0 24 24;" xml:space="preserve">
<style type="text/css">
	.st0{fill-rule:evenodd;clip-rule:evenodd;fill:#FFFFFF;}
</style>
<path class="st0" d="M23.8,21.1l-6-5.8c2.9-3.9,2.3-9.3-1.5-12.4c-3.7-3.1-9.3-3-12.8,0.4C0,6.6-0.3,12,2.8,15.7
	c3.1,3.7,8.6,4.5,12.7,1.8l6.1,5.9L23.8,21.1z M3.4,9.9c0-3.6,3-6.5,6.7-6.5c3.7,0,6.7,2.9,6.7,6.5c0,3.6-3,6.5-6.7,6.5
	c-1.8,0-3.5-0.7-4.7-1.9C4.1,13.2,3.4,11.6,3.4,9.9z"/>
</svg>
