<?xml version="1.0" encoding="utf-8"?>
<!-- Generator: Adobe Illustrator 26.4.1, SVG Export Plug-In . SVG Version: 6.00 Build 0)  -->
<svg version="1.1" id="Layer_1" xmlns="http://www.w3.org/2000/svg" xmlns:xlink="http://www.w3.org/1999/xlink" x="0px" y="0px"
	 viewBox="0 0 29.8 21.8" style="enable-background:new 0 0 29.8 21.8;" xml:space="preserve">
<style type="text/css">
	.st0{fill:url(#SVGID_1_);}
</style>
<linearGradient id="SVGID_1_" gradientUnits="userSpaceOnUse" x1="2.7083" y1="0.1583" x2="27.2044" y2="24.6544" gradientTransform="matrix(1 0 0 -1 0 24.6)">
	<stop  offset="0.1" style="stop-color:#2814FF"/>
	<stop  offset="0.1435" style="stop-color:#2324FF"/>
	<stop  offset="0.2998" style="stop-color:#145BFF"/>
	<stop  offset="0.4347" style="stop-color:#0983FF"/>
	<stop  offset="0.5417" style="stop-color:#029BFF"/>
	<stop  offset="0.6072" style="stop-color:#00A4FF"/>
	<stop  offset="0.6551" style="stop-color:#00ACCE"/>
	<stop  offset="0.7216" style="stop-color:#00B590"/>
	<stop  offset="0.7855" style="stop-color:#00BD5D"/>
	<stop  offset="0.8449" style="stop-color:#00C434"/>
	<stop  offset="0.8989" style="stop-color:#00C818"/>
	<stop  offset="0.9457" style="stop-color:#00CB06"/>
	<stop  offset="0.98" style="stop-color:#00CC00"/>
</linearGradient>
<path class="st0" d="M27.3,0H2.7v17.4h24.6V0z M4.9,15.2v-13H25v12.9H4.9V15.2z M29.8,19.6v2.2H0v-2.2H29.8z M9.4,7.2h0.9v3H9.4V7.2
	z M14.5,7.2h0.9v3h-0.9V7.2z M12.4,7c-1,0-1.8,0.8-1.8,1.8s0.8,1.8,1.8,1.8s1.8-0.8,1.8-1.8S13.4,7,12.4,7z M12.4,9.7
	c-0.5,0-0.9-0.4-0.9-0.9s0.4-0.9,0.9-0.9s0.9,0.4,0.9,0.9S12.9,9.7,12.4,9.7z M17.5,7c-1,0-1.8,0.8-1.8,1.8s0.8,1.8,1.8,1.8
	s1.8-0.8,1.8-1.8S18.5,7,17.5,7z M17.5,9.7c-0.5,0-0.9-0.4-0.9-0.9s0.4-0.9,0.9-0.9s0.9,0.4,0.9,0.9S18,9.7,17.5,9.7z M5.5,8.7
	c0,1,0.8,1.8,1.8,1.8s1.8-0.8,1.8-1.8S8.3,6.9,7.3,6.9C6.3,7,5.5,7.8,5.5,8.7z M7.3,7.8c0.5,0,0.9,0.4,0.9,0.9S7.8,9.6,7.3,9.6
	S6.4,9.2,6.4,8.7S6.8,7.8,7.3,7.8z M9.4,11.1h0.9v3H9.4V11.1z M14.5,11.1h0.9v3h-0.9V11.1z M12.4,10.8c-1,0-1.8,0.8-1.8,1.8
	s0.8,1.8,1.8,1.8s1.8-0.8,1.8-1.8S13.4,10.8,12.4,10.8z M12.4,13.5c-0.5,0-0.9-0.4-0.9-0.9s0.4-0.9,0.9-0.9s0.9,0.4,0.9,0.9
	C13.3,13.1,12.9,13.5,12.4,13.5z M17.5,10.8c-1,0-1.8,0.8-1.8,1.8s0.8,1.8,1.8,1.8s1.8-0.8,1.8-1.8S18.5,10.8,17.5,10.8z M17.5,13.5
	c-0.5,0-0.9-0.4-0.9-0.9s0.4-0.9,0.9-0.9s0.9,0.4,0.9,0.9C18.4,13.1,18,13.5,17.5,13.5z M19.6,7.2h0.9v3h-0.9V7.2z M22.6,7
	c-1,0-1.8,0.8-1.8,1.8s0.8,1.8,1.8,1.8s1.8-0.8,1.8-1.8C24.4,7.8,23.6,7,22.6,7z M22.6,9.7c-0.5,0-0.9-0.4-0.9-0.9s0.4-0.9,0.9-0.9
	s0.9,0.4,0.9,0.9S23.1,9.7,22.6,9.7z M19.6,11.1h0.9v3h-0.9V11.1z M22.6,10.8c-1,0-1.8,0.8-1.8,1.8s0.8,1.8,1.8,1.8s1.8-0.8,1.8-1.8
	C24.4,11.6,23.6,10.8,22.6,10.8z M22.6,13.5c-0.5,0-0.9-0.4-0.9-0.9s0.4-0.9,0.9-0.9s0.9,0.4,0.9,0.9C23.5,13.1,23.1,13.5,22.6,13.5
	z M5.5,12.6c0,1,0.8,1.8,1.8,1.8s1.8-0.8,1.8-1.8s-0.8-1.8-1.8-1.8S5.5,11.6,5.5,12.6z M7.3,11.7c0.5,0,0.9,0.4,0.9,0.9
	s-0.4,0.9-0.9,0.9s-0.9-0.4-0.9-0.9S6.8,11.7,7.3,11.7z M9.4,3.2h0.9v3H9.4V3.2z M14.5,3.2h0.9v3h-0.9V3.2z M12.4,3
	c-1,0-1.8,0.8-1.8,1.8s0.8,1.8,1.8,1.8s1.8-0.8,1.8-1.8C14.2,3.8,13.4,3,12.4,3z M12.4,5.7c-0.5,0-0.9-0.4-0.9-0.9s0.4-0.9,0.9-0.9
	s0.9,0.4,0.9,0.9S12.9,5.7,12.4,5.7z M17.5,3c-1,0-1.8,0.8-1.8,1.8s0.8,1.8,1.8,1.8s1.8-0.8,1.8-1.8C19.3,3.8,18.5,3,17.5,3z
	 M17.5,5.7c-0.5,0-0.9-0.4-0.9-0.9s0.4-0.9,0.9-0.9s0.9,0.4,0.9,0.9S18,5.7,17.5,5.7z M5.5,4.7c0,1,0.8,1.8,1.8,1.8s1.8-0.8,1.8-1.8
	S8.3,2.9,7.3,2.9C6.3,3,5.5,3.8,5.5,4.7z M7.3,3.8c0.5,0,0.9,0.4,0.9,0.9S7.8,5.6,7.3,5.6S6.4,5.2,6.4,4.7S6.8,3.8,7.3,3.8z
	 M19.6,3.2h0.9v3h-0.9V3.2z M22.6,3c-1,0-1.8,0.8-1.8,1.8s0.8,1.8,1.8,1.8s1.8-0.8,1.8-1.8C24.4,3.8,23.6,3,22.6,3z M22.6,5.7
	c-0.5,0-0.9-0.4-0.9-0.9s0.4-0.9,0.9-0.9s0.9,0.4,0.9,0.9S23.1,5.7,22.6,5.7z"/>
</svg>
