<?xml version="1.0" encoding="utf-8"?>
<!-- Generator: Adobe Illustrator 26.4.1, SVG Export Plug-In . SVG Version: 6.00 Build 0)  -->
<svg version="1.1" id="Layer_1" xmlns="http://www.w3.org/2000/svg" xmlns:xlink="http://www.w3.org/1999/xlink" x="0px" y="0px"
	 viewBox="0 0 31 27.2" style="enable-background:new 0 0 31 27.2;" xml:space="preserve">
<style type="text/css">
	.st0{fill:url(#SVGID_1_);}
</style>
<g id="Layer_1_00000016047083803859519810000013401717992932774074_">
	
		<linearGradient id="SVGID_1_" gradientUnits="userSpaceOnUse" x1="1.985" y1="4.9891" x2="27.401" y2="30.405" gradientTransform="matrix(1 0 0 -1 0 29.9482)">
		<stop  offset="0.1" style="stop-color:#2814FF"/>
		<stop  offset="0.14" style="stop-color:#2324FF"/>
		<stop  offset="0.3" style="stop-color:#145BFF"/>
		<stop  offset="0.43" style="stop-color:#0983FF"/>
		<stop  offset="0.54" style="stop-color:#029BFF"/>
		<stop  offset="0.61" style="stop-color:#00A4FF"/>
		<stop  offset="0.66" style="stop-color:#00ACCE"/>
		<stop  offset="0.72" style="stop-color:#00B590"/>
		<stop  offset="0.79" style="stop-color:#00BD5D"/>
		<stop  offset="0.84" style="stop-color:#00C434"/>
		<stop  offset="0.9" style="stop-color:#00C818"/>
		<stop  offset="0.95" style="stop-color:#00CB06"/>
		<stop  offset="0.98" style="stop-color:#00CC00"/>
	</linearGradient>
	<path class="st0" d="M6.9,10.6h3.6v8.1H6.9V10.6z M11.6,18.7h3.6v-5.6h-3.6V18.7z M16.4,8.4v10.3H20V8.4H16.4z M31,5.2
		c0,2.5-1.8,4.6-4.2,5.1V23h-8.7v2h2.3v2.2H6.3V25h2.3v-2H0V4.1h20.5c0.6-2.8,3.4-4.6,6.3-4C29.2,0.6,30.9,2.8,31,5.2L31,5.2z
		 M24.6,10.4c-2-0.4-3.6-2-4-4H2.2v14.4h22.4V10.4z M28.8,5.2c0-1.7-1.4-3.1-3.1-3.1s-3.1,1.4-3.1,3.1c0,1.7,1.4,3.1,3.1,3.1
		c0,0,0,0,0,0C27.4,8.3,28.7,6.9,28.8,5.2C28.7,5.3,28.8,5.2,28.8,5.2z M26.5,3.4l-1.4,1.9l-0.6-0.6l-0.9,0.9l1.7,1.6l2.2-3.1
		L26.5,3.4z"/>
</g>
</svg>
