<svg id="Layer_1" data-name="Layer 1" xmlns="http://www.w3.org/2000/svg" viewBox="0 0 293.8 279.7"><defs><style>.cls-1{fill:#fff;}.cls-2{fill:#2814ff;}</style></defs><circle class="cls-1" cx="146.9" cy="168.1" r="105.7"/><path class="cls-2" d="M280.5,247a16.35,16.35,0,0,0-7,1.6l-24-24a110.26,110.26,0,0,0,12.7-51.5c0-59.4-46.6-107.9-105.2-111.3V33.3a14.8,14.8,0,1,0-12,0V61.8A111.58,111.58,0,0,0,39,173.1a110.26,110.26,0,0,0,12.7,51.5l-24,24a16.35,16.35,0,0,0-7-1.6,17,17,0,1,0,17,16.9,16.35,16.35,0,0,0-1.6-7l21.8-21.8a111.49,111.49,0,0,0,185.4.1L265.1,257a16.35,16.35,0,0,0-1.6,7,17,17,0,1,0,17-17ZM150.6,272.8a99.7,99.7,0,1,1,99.7-99.7C250.4,228.1,205.6,272.8,150.6,272.8Z" transform="translate(-3.7 -5)"/><path class="cls-2" d="M194.6,128.4H107v31.9H95.6V184H107v32h87.5V184.1h11.1V160.4H194.5v-32Zm-57.8,69.8H128V173h8.9v25.2Zm1.5-40.6H126.4V146.1h11.9Zm16.9,40.6h-8.9V173h8.9Zm18.4,0h-8.9V173h8.9Zm1.2-40.6H162.9V146.1h11.9Z" transform="translate(-3.7 -5)"/></svg>