<svg id="ICON_ARTWORK" data-name="ICON ARTWORK" xmlns="http://www.w3.org/2000/svg" viewBox="0 0 25.6 25.6"><defs><style>.cls-1{fill:#fff;}.cls-2{fill:#2814ff;}</style></defs><circle class="cls-1" cx="12.8" cy="12.8" r="12.2"/><path class="cls-2" d="M17.5,15v-.9h3.4V12.9H17.5V12l1.2-.2,2.6-2.6-.8-.8-2.3,2.3-.6.1V9H16.2V7.8a3.4,3.4,0,1,0-6.8,0h1.2a2.2,2.2,0,1,1,4.4,0V9H8v1.8l-.7-.1L5.1,8.3l-.9.9,2.6,2.6,1.2.1v.9H4.6V14H8v1l-1.3.2L4.1,17.8l.8.8,2.3-2.3.8-.1V19h9.5V16.2l.6.1,2.3,2.3.8-.8-2.6-2.6Zm-5.7-1.9a1,1,0,1,1,2,0,1.2,1.2,0,0,1-.7,1v1.6h-.7V14A.87.87,0,0,1,11.8,13.1Z"/><path class="cls-2" d="M12.8,0A12.8,12.8,0,1,0,25.6,12.8,12.76,12.76,0,0,0,12.8,0Zm0,24.4A11.6,11.6,0,1,1,24.4,12.8,11.61,11.61,0,0,1,12.8,24.4Z"/></svg>