<svg id="Layer_1" data-name="Layer 1" xmlns="http://www.w3.org/2000/svg" viewBox="0 0 295 295"><defs><style>.cls-1{fill:#fff;}.cls-2{fill:#2814ff;}</style></defs><circle class="cls-1" cx="147.5" cy="147.5" r="140.6"/><path class="cls-2" d="M264,191.7H208.4c-1.8-31.5-11.3-56.5-28.4-74.3l-.2-.2c-13.5-13-31.1-21.6-52.6-25.8a28.09,28.09,0,0,0-8.1-16.6l-7.3-7.3-9.7,9.7,7.3,7.3a14.23,14.23,0,0,1,3.1,4.7c-4.4-.4-9-.7-13.7-.8l-7.2-.1.2,7.2c.1,4.7.4,9.3.8,13.7a14.23,14.23,0,0,1-4.7-3.1L44.2,62.4l-9.7,9.7,43.7,43.7a28.37,28.37,0,0,0,16.6,8.1c4.2,21.5,12.8,39.2,25.9,52.7,17.7,17.2,42.8,26.6,74.3,28.4v55.6Z" transform="translate(-2.5 -5.2)"/><circle class="cls-1" cx="120" cy="114" r="7.2"/><path class="cls-2" d="M150,5.2C68.7,5.2,2.5,71.4,2.5,152.7S68.7,300.2,150,300.2,297.5,234,297.5,152.7,231.3,5.2,150,5.2Zm0,281.3c-73.7,0-133.7-60-133.7-133.7S76.3,19,150,19,283.7,79,283.7,152.7,223.7,286.5,150,286.5Z" transform="translate(-2.5 -5.2)"/></svg>