<svg id="Layer_1" data-name="Layer 1" xmlns="http://www.w3.org/2000/svg" viewBox="0 0 298.2 298.2"><defs><style>.cls-1{fill:#fff;}.cls-2,.cls-3{fill:#2814ff;}.cls-3{fill-rule:evenodd;}</style></defs><path class="cls-1" d="M149.9,8.9C71.7,8.9,8.1,72.5,8.1,150.7S71.7,292.5,149.9,292.5s141.8-63.6,141.8-141.8S228.1,8.9,149.9,8.9Z" transform="translate(-0.8 -1.6)"/><path class="cls-2" d="M149.9,1.6C67.7,1.6.8,68.5.8,150.7S67.7,299.8,149.9,299.8,299,232.9,299,150.7,232.1,1.6,149.9,1.6Zm0,284.3c-74.5,0-135.2-60.6-135.2-135.2S75.4,15.5,149.9,15.5,285.1,76.1,285.1,150.7,224.4,285.9,149.9,285.9Z" transform="translate(-0.8 -1.6)"/><path class="cls-3" d="M126.8,141.6,92.3,111.8H222.6l-64.4,58.9-22.8-21.2-8.6-7.9Zm0,18.1-7.8-8.6L82.1,120.5v87.2H233.6V118.9l-75.3,67.6-31.5-26.8ZM71.1,100.8H202.9V88.2H58.5v89.5H71.1V100.8Z" transform="translate(-0.8 -1.6)"/></svg>