<?xml version="1.0" encoding="utf-8"?>
<svg version="1.1" id="Layer_1" xmlns="http://www.w3.org/2000/svg" xmlns:xlink="http://www.w3.org/1999/xlink" x="0px" y="0px"
	 viewBox="0 0 1200 1200">
<style type="text/css">
	.st0{fill:#FFFFFF;}
</style>
<path class="st0" d="M770.61,516.54c-1.01-0.36-2.03-0.71-3.05-1.04l-2.39-0.82l-0.02,0.07c-9.17-2.72-18.78-4.13-28.61-4.13
	c-8.43,0-16.69,1.04-24.66,3.04c0.77-7.09,0.96-14.23,0.58-21.35l98.29-98.29h218.77v-42.87H801.86c-5.69,0-11.14,2.26-15.16,6.28
	l-86.41,86.41c-3.61-7.7-8.02-15.12-13.21-22.13l94-94h218.77v-42.87H772.2c-5.69,0-11.14,2.26-15.16,6.28l-99.54,99.54
	c-5.4-4.63-11.09-8.73-17.01-12.34l83.8-83.8c4.02-4.02,6.28-9.47,6.28-15.16V51.71h-42.87v218.77l-91.07,91.07
	c-14.38-2.68-29.13-2.94-43.59-0.78c-0.95-11.49-5.86-22.17-14.11-30.41l-17.17-17.17c-27.29-27.29-63.58-42.32-102.18-42.32
	c-17.25,0-34.03,3.01-49.76,8.77c-9.67-9.62-13.72-13.49-15.88-15.36c-0.1-0.1-0.2-0.22-0.32-0.35c-2.12-2.29-7.07-7.66-19.45-20.89
	c-11.09-11.84-17.39-21.96-19.82-31.85c-4.4-17.91,5.42-26.48,11.66-30c10.37-5.84,26.26-6.32,38.37,5.8l30.32-30.32
	c-23.88-23.87-60.77-29.15-89.73-12.84c-27.38,15.43-40.04,45.88-32.25,77.58c4.25,17.32,13.84,33.51,30.16,50.93
	c12.27,13.11,17.15,18.39,19.23,20.65c1.62,1.75,2.72,2.95,4.29,4.15c0.54,0.49,1.75,1.63,4.38,4.2c-4.66,3.64-9.13,7.6-13.38,11.85
	c-5.51,5.51-10.51,11.4-15,17.59c-2.93-3-4.19-4.34-4.72-4.91c-1.2-1.57-2.4-2.68-4.15-4.29c-2.26-2.08-7.54-6.96-20.65-19.23
	c-17.43-16.32-33.61-25.91-50.94-30.16c-31.7-7.78-62.15,4.87-77.58,32.25c-16.32,28.96-11.04,65.86,12.84,89.74l30.32-30.32
	c-12.12-12.12-11.64-28-5.8-38.37c3.52-6.24,12.09-16.06,30-11.66c9.89,2.43,20.01,8.73,31.85,19.82
	c13.22,12.38,18.59,17.34,20.89,19.45c0.13,0.12,0.24,0.22,0.35,0.32c1.98,2.29,6.2,6.69,17.15,17.69
	c-4.53,14.12-6.89,29.02-6.89,44.28c0,38.6,15.03,74.89,42.32,102.18l17.16,17.16c8.05,8.05,18.41,12.94,29.59,14.04
	c-1.05,6.7-1.59,13.53-1.59,20.45c0,8.2,0.76,16.28,2.23,24.17l-94.04,94.04H51.98v42.87h227.65c5.69,0,11.14-2.26,15.16-6.28
	l86.81-86.81c3.63,5.94,7.76,11.62,12.36,16.99l-99.54,99.54c-4.02,4.02-6.28,9.47-6.28,15.16v227.65h42.87V777.77l94-94
	c7.01,5.2,14.43,9.6,22.13,13.21l-89.94,89.94c-4.02,4.02-6.28,9.47-6.28,15.16v227.65h42.87V810.96l101.82-101.82
	c2.38,0.13,4.76,0.2,7.14,0.2c4.74,0,9.49-0.27,14.21-0.78c-2.01,7.96-3.04,16.23-3.04,24.66c0,9.97,1.45,19.72,4.24,29l-0.54,0.19
	l135.79,387.87l22.77-14.34c3.81-2.4,88.62-57.27,97.97-180.79c47.05-0.58,93.92-18.76,129.73-54.58
	c35.11-35.11,54.51-81.74,54.69-131.37c124.68-8.72,180.02-94.26,182.44-98.09l14.45-22.94L770.61,516.54z M373.23,504.41
	c-1.43,1.43-3.06,1.73-4.17,1.73c-1.12,0-2.74-0.3-4.17-1.73l-17.17-17.17c-19.2-19.2-29.77-44.72-29.77-71.86
	s10.57-52.67,29.77-71.86c19.81-19.81,45.84-29.72,71.86-29.72c26.03,0,52.05,9.91,71.86,29.72l17.17,17.17
	c1.43,1.43,1.73,3.06,1.73,4.17c0,1.12-0.3,2.74-1.73,4.17l-28.51,28.51l-79.26,79.26L373.23,504.41z M440.65,640.81l-9.5-9.5
	c-16.59-16.59-25.72-38.64-25.72-62.1c0-23.46,9.14-45.51,25.72-62.1l79.26-79.26c17.12-17.12,39.61-25.68,62.1-25.68
	c22.49,0,44.98,8.56,62.1,25.68l9.49,9.49c16.59,16.59,25.72,38.64,25.72,62.1s-9.14,45.51-25.72,62.1l-79.27,79.27
	c-17.12,17.11-39.6,25.67-62.09,25.67C480.27,666.49,457.77,657.93,440.65,640.81z M595.17,671.13l24.47-24.47l237.64,237.64
	c-25.29,18.69-55.36,28.05-85.44,28.04c-36.84,0-73.69-14.03-101.73-42.07l-96.55-96.55c-10.82-10.82-16.77-25.2-16.77-40.49
	c0-15.3,5.96-29.68,16.77-40.49l21.58-21.58C595.15,671.15,595.16,671.14,595.17,671.13z M693.01,1059.48
	c-6.29,8.71-12.63,15.96-18.33,21.8l-78.55-224.35l43.66,43.66c26.1,26.1,58.07,42.84,91.7,50.23
	C728.59,991.62,715.69,1028.1,693.01,1059.48z M887.61,853.99L649.96,616.34l18.37-18.37l27.71-27.71
	c10.82-10.82,25.2-16.77,40.49-16.77c15.3,0,29.68,5.96,40.49,16.77l96.55,96.55c27.17,27.17,42.14,63.3,42.14,101.73
	C915.71,799.72,905.85,829.39,887.61,853.99z M1064.54,687.95c-31.89,23.04-69.06,35.99-110.67,38.61
	c-7.74-33.85-24.82-64.92-49.98-90.07l-44.15-44.15l226.42,77.46C1080.35,675.46,1073.15,681.72,1064.54,687.95z"/>
</svg>
