<?xml version="1.0" encoding="utf-8"?>
<svg version="1.1" id="Layer_7" xmlns="http://www.w3.org/2000/svg" xmlns:xlink="http://www.w3.org/1999/xlink" x="0px" y="0px"
	 viewBox="0 0 1080 1080">
<style type="text/css">
	.st0{fill:#FFFFFF;}
</style>
<path class="st0" d="M282.02,633.32h501.77c7.73,0,14-6.27,14-14V295.86c0-7.73-6.27-14-14-14H282.02c-7.73,0-14,6.27-14,14v323.47
	C268.02,627.05,274.29,633.32,282.02,633.32z M296.02,309.86h473.77v295.47H296.02V309.86z M954.61,845.85
	c0-0.41-0.02-0.82-0.06-1.23c-0.01-0.11-0.02-0.22-0.04-0.34c-0.04-0.33-0.09-0.65-0.15-0.98c-0.02-0.09-0.03-0.19-0.05-0.28
	c-0.08-0.36-0.17-0.72-0.28-1.08c-0.04-0.15-0.09-0.29-0.14-0.43c-0.09-0.26-0.18-0.52-0.28-0.77c-0.05-0.12-0.09-0.24-0.14-0.35
	c-0.14-0.33-0.3-0.66-0.47-0.99c-0.07-0.13-0.14-0.26-0.21-0.38c-0.06-0.1-0.11-0.21-0.17-0.31l-95.85-159.72
	c-2.4-4-6.62-6.52-11.24-6.77c8.31-11.32,13.23-25.27,13.23-40.35V284.78c0-37.67-30.65-68.32-68.32-68.32H267.85
	c-37.67,0-68.32,30.65-68.32,68.32v347.09c0,15.08,4.92,29.04,13.23,40.35c-5.14,0.28-9.75,3.37-11.93,8.08l-74.14,159.72
	c-0.02,0.05-0.03,0.1-0.06,0.14c-0.22,0.49-0.42,0.99-0.59,1.5c0,0,0,0.01,0,0.01c-0.17,0.52-0.3,1.06-0.4,1.6
	c-0.02,0.13-0.04,0.26-0.06,0.39c-0.06,0.39-0.11,0.78-0.14,1.18c-0.01,0.19-0.02,0.38-0.03,0.57c-0.01,0.16-0.02,0.32-0.02,0.49
	v53.74c0,7.73,6.27,14,14,14h801.23c7.73,0,14-6.27,14-14v-53.74C954.62,845.9,954.61,845.88,954.61,845.85z M227.53,284.78
	c0-22.23,18.09-40.32,40.32-40.32h522.59c22.23,0,40.32,18.09,40.32,40.32v347.09c0,22.23-18.09,40.32-40.32,40.32H267.85
	c-22.23,0-40.32-18.09-40.32-40.32V284.78z M222.47,700.2h45.39h522.59h46.4l79.05,131.72H161.32L222.47,700.2z M926.62,885.66
	H153.38v-25.74h773.23V885.66z M811.9,741.72c0,7.73-6.27,14-14,14H256.06c-7.73,0-14-6.27-14-14s6.27-14,14-14H797.9
	C805.63,727.72,811.9,733.99,811.9,741.72z"/>
</svg>
