<?xml version="1.0" encoding="utf-8"?>
<svg version="1.1" id="Layer_2" xmlns="http://www.w3.org/2000/svg" xmlns:xlink="http://www.w3.org/1999/xlink" x="0px" y="0px"
	 viewBox="0 0 1200 1200">
<style type="text/css">
	.st0{fill:#FFFFFF;}
</style>
<path class="st0" d="M1137.02,293.83c-21.15-52.14-52.21-98.93-92.33-139.04c-40.12-40.12-86.9-71.18-139.04-92.33
	C855.29,42.04,802.08,31.69,747.5,31.69S639.71,42.04,589.35,62.46c-52.14,21.15-98.93,52.21-139.04,92.33
	c-40.12,40.12-71.18,86.9-92.33,139.04c-20.42,50.36-30.78,103.57-30.78,158.15c0,54.58,10.35,107.79,30.78,158.15
	c4.42,10.89,9.27,21.55,14.55,31.96l-26.86,26.86c-9.65,9.65-12.53,24.21-8.12,40.99c3.42,13.02,11.07,26.38,21.72,38.12
	L48.36,1058.99c-9.8,9.79-15.19,22.82-15.19,36.67s5.39,26.88,15.19,36.67l18.79,18.79c9.8,9.79,22.82,15.19,36.67,15.19
	c13.85,0,26.88-5.39,36.67-15.19L451.31,840.3c12.55,12.42,27.34,21.34,41.71,25.12c5.14,1.35,10.06,2.02,14.7,2.02
	c10.53,0,19.59-3.44,26.29-10.13l28.03-28.03c8.93,4.38,18.03,8.47,27.31,12.23c50.36,20.42,103.57,30.78,158.15,30.78
	s107.79-10.35,158.15-30.78c52.14-21.15,98.93-52.21,139.04-92.33c40.12-40.12,71.18-86.9,92.33-139.04
	c20.42-50.36,30.78-103.57,30.78-158.15C1167.8,397.4,1157.44,344.19,1137.02,293.83z M123.61,1134.23
	c-5.28,5.28-12.31,8.19-19.78,8.19s-14.5-2.91-19.78-8.19l-18.79-18.79c-5.28-5.28-8.19-12.31-8.19-19.78s2.91-14.5,8.19-19.78
	l310.81-310.81l52.17,52.17l6.19,6.19L123.61,1134.23z M517.12,840.41c-7.54,7.54-30.24,1.69-49.34-17.41l-11.08-11.08l-76.72-76.72
	c-19.11-19.11-24.95-41.81-17.42-49.35l21.89-21.89c18.07,30.92,40.09,59.44,65.86,85.21c26.99,26.99,57.01,49.88,89.64,68.41
	L517.12,840.41z M1114.88,601.16c-19.94,49.17-49.24,93.28-87.08,131.13c-37.84,37.84-81.96,67.14-131.13,87.08
	c-47.49,19.26-97.68,29.03-149.17,29.03c-51.49,0-101.68-9.77-149.17-29.03c-49.17-19.94-93.28-49.24-131.13-87.08
	c-37.84-37.84-67.14-81.96-87.08-131.13c-19.26-47.49-29.03-97.68-29.03-149.17c0-51.49,9.77-101.68,29.03-149.17
	c19.94-49.17,49.24-93.28,87.08-131.13c37.84-37.84,81.96-67.14,131.13-87.08c47.49-19.26,97.68-29.03,149.17-29.03
	c51.49,0,101.68,9.77,149.17,29.03c49.17,19.94,93.28,49.24,131.13,87.08c37.84,37.84,67.14,81.96,87.08,131.13
	c19.26,47.49,29.03,97.68,29.03,149.17C1143.91,503.47,1134.14,553.66,1114.88,601.16z M1090.6,305.87
	c-18.73-44.29-45.55-84.07-79.71-118.22c-34.16-34.15-73.93-60.97-118.22-79.71c-45.86-19.4-94.57-29.23-144.78-29.23
	c-50.21,0-98.92,9.84-144.78,29.23c-44.29,18.73-84.07,45.55-118.22,79.71c-34.16,34.16-60.97,73.93-79.71,118.22
	c-19.4,45.86-29.23,94.57-29.23,144.78c0,50.21,9.84,98.92,29.23,144.78c18.73,44.29,45.55,84.07,79.71,118.22
	c34.15,34.15,73.93,60.97,118.22,79.71c45.86,19.4,94.57,29.23,144.78,29.23c50.21,0,98.92-9.84,144.78-29.23
	c44.29-18.73,84.07-45.55,118.22-79.71c34.15-34.15,60.97-73.93,79.71-118.22c19.4-45.86,29.23-94.57,29.23-144.78
	C1119.83,400.45,1110,351.73,1090.6,305.87z M1068.6,586.13c-17.53,41.45-42.63,78.67-74.6,110.64
	c-31.97,31.97-69.19,57.07-110.64,74.6c-42.9,18.15-88.48,27.35-135.48,27.35s-92.57-9.2-135.48-27.35
	c-41.44-17.53-78.67-42.63-110.64-74.6c-31.97-31.97-57.07-69.19-74.6-110.64c-18.15-42.9-27.35-88.48-27.35-135.48
	c0-46.99,9.2-92.57,27.35-135.48c17.53-41.45,42.63-78.67,74.6-110.64c31.97-31.97,69.19-57.07,110.64-74.6
	c42.9-18.15,88.48-27.35,135.48-27.35s92.57,9.2,135.48,27.35c41.45,17.53,78.67,42.63,110.64,74.6
	c31.97,31.97,57.07,69.19,74.6,110.64c18.15,42.9,27.35,88.48,27.35,135.48C1095.95,497.65,1086.74,543.23,1068.6,586.13z"/>
</svg>
