<svg width="26" height="26" viewBox="0 0 26 26" fill="none" xmlns="http://www.w3.org/2000/svg">
<path fill-rule="evenodd" clip-rule="evenodd" d="M20.8508 10.4682L11.3579 19.9608C11.2828 20.0356 11.1814 20.0778 11.0757 20.0778C10.9691 20.0778 10.8674 20.0356 10.7929 19.9602L5.14857 14.2998C5.07346 14.2249 5.03186 14.1232 5.03186 14.0175C5.03186 13.9115 5.07404 13.8101 5.14915 13.7353L7.11822 11.7717C7.19275 11.6972 7.29415 11.6553 7.39988 11.6553C7.40046 11.6553 7.40046 11.6553 7.40046 11.6553C7.5059 11.6553 7.60759 11.6977 7.6827 11.7726L11.0795 15.1786L18.3202 7.93756C18.4759 7.78156 18.7287 7.78156 18.8849 7.93756L20.8508 9.90373C20.9254 9.97856 20.9681 10.08 20.9681 10.186C20.9681 10.2917 20.9254 10.3934 20.8508 10.4682Z" fill="#2E72DF"/>
</svg>
