<svg id="Layer_1" data-name="Layer 1" xmlns="http://www.w3.org/2000/svg" xmlns:xlink="http://www.w3.org/1999/xlink" width="500" height="500" viewBox="0 0 500 500"><defs><style>.cls-1,.cls-5{fill:none;}.cls-2{opacity:0.85;}.cls-3{clip-path:url(#clip-path);}.cls-4{fill:url(#radial-gradient);}.cls-5{stroke:#000;stroke-miterlimit:10;stroke-width:0.45px;isolation:isolate;opacity:0.57;}.cls-6{clip-path:url(#clip-path-2);}.cls-7{fill:url(#radial-gradient-2);}.cls-8{fill:url(#linear-gradient);}.cls-9{fill:url(#linear-gradient-2);}</style><clipPath id="clip-path"><rect class="cls-1" x="71.92" y="604.72" width="358.7" height="355.1"/></clipPath><radialGradient id="radial-gradient" cx="-2651.33" cy="1977.43" r="528.16" gradientTransform="matrix(-0.52, 0, 0, 0.49, -1115.5, -161.06)" gradientUnits="userSpaceOnUse"><stop offset="0" stop-color="#73cc30"/><stop offset="0.51" stop-color="#5ca3fc"/><stop offset="0.74" stop-color="#281bfa"/></radialGradient><clipPath id="clip-path-2"><rect class="cls-1" x="70.3" y="72.8" width="358.7" height="355.1"/></clipPath><radialGradient id="radial-gradient-2" cx="-2645.15" cy="1982.69" r="528.16" gradientTransform="matrix(-0.52, 0, 0, 0.49, -1113.87, -695.59)" xlink:href="#radial-gradient"/><linearGradient id="linear-gradient" x1="107.7" y1="189.09" x2="392.3" y2="189.09" gradientTransform="matrix(1, 0, 0, -1, 0, 502)" gradientUnits="userSpaceOnUse"><stop offset="0" stop-color="#281bfa"/><stop offset="0.6" stop-color="#5ca3fc"/><stop offset="0.66" stop-color="#60aada"/><stop offset="0.78" stop-color="#68b991"/><stop offset="0.88" stop-color="#6ec35d"/><stop offset="0.96" stop-color="#72c93c"/><stop offset="1" stop-color="#73cc30"/></linearGradient><linearGradient id="linear-gradient-2" x1="134.4" y1="318.85" x2="365.7" y2="318.85" xlink:href="#linear-gradient"/></defs><g class="cls-2"><g class="cls-3"><path class="cls-4" d="M163.52,649l-3.9-9.6-1,.9,3.9,9.6Zm1,49.9-6-10.2-.9,1.2,6,10.2Zm-1.4-74.9-3-9.2-1,.8,3,9.2Zm.9,50-4.9-10-.9,1.1,4.9,10Zm-1.4-100.2-2.1-7.9-1.1.7,2.1,7.9Zm.1,25.2-2.3-8.7-1.1.7,2.3,8.7Zm3.7,174.1-10-10-.6,1.5,10,10Zm-1.3-49.4-7.2-10.3-.8,1.3,7.2,10.3Zm2,74-11.6-9.5-.6,1.6,11.6,9.5Zm-21-274.5-1.9-6.3-1.1.7,1.9,6.3Zm0-25.1-1.7-5.7-1.1.7,1.7,5.7Zm19.6,250.4-8.5-10.3-.7,1.4,8.5,10.3Zm-3.2-199.9-1.9-7.2-1.1.7,1.9,7.2Zm16.5,50.6-2-8.9-1.1.6,2,8.9Zm-32.8-50.8-2.1-6.9-1.1.7,2.1,6.9Zm33.1,75.8-2.7-9.5-1.1.7,2.7,9.5Zm.4,25-3.6-10-1,.8,3.6,10Zm-.9-100.5-1.6-7.4-1.1.6,1.6,7.4Zm1.4,125.5-4.6-10.5-1,1,4.6,10.5Zm-1.3-100.3-1.8-8.1-1.1.6,1.8,8.1Zm1.8,125.3-5.7-10.8-.9,1.1,5.7,10.8Zm2.7,99-11.3-10.6-.6,1.5,11.3,10.6Zm-21-299.9-1.5-5.9-1.1.7,1.5,5.9Zm20.2,275.3-9.7-10.9-.7,1.4,9.7,10.9Zm-20.2-250.2-1.7-6.5-1.1.7,1.7,6.5Zm18.9,200.7-6.9-11-.8,1.2,6.9,11Zm-2.6-200.6-1.5-6.7-1.1.6,1.5,6.7Zm3.2,225.4-8.2-11.1-.8,1.3,8.2,11.1Zm-50-50.7-6.6-9-.8,1.3,6.6,9Zm.6,24.7-7.8-8.9-.7,1.4,7.8,8.9Zm.6,24.7L124,739l-.6,1.5,9.1,8.6Zm-2.5-124-3.6-8.5-1,1,3.6,8.5Zm.8,49.8-5.5-8.9-.9,1.2,5.5,8.9Zm2.4,98.7-10.5-8.1-.5,1.6,10.5,8.1Zm-19.5-148.8-3.9-8.1-.9,1,3.9,8.1Zm-.4-24.9-3.1-7.8-1,.9,3.1,7.8Zm-.2-50.3-2.6-6.4-1,.9,2.6,6.4Zm20.8,248.5-12-7.4-.4,1.6,12,7.4Zm-4.3-198-2.8-8.1-1,.8,2.8,8.1Zm-16.4-25.4-2.8-7.1-1,.9,2.8,7.1Zm-.3-50.3-2.3-5.8-1,.9,2.3,5.8Zm-.1-25.1-2.1-5.3-1,.9,2.1,5.3Zm16.7,75.6-2.6-7.4-1,.8,2.6,7.4Zm17.6,100.3-5.2-9.5-.9,1.1,5.2,9.5Zm.5,24.8-6.3-9.6-.8,1.3,6.3,9.6Zm.6,24.8-7.5-9.6-.8,1.4,7.5,9.6Zm-2.4-149.7-2.3-7.6-1.1.7,2.3,7.6Zm.1,25.2-2.6-8.4-1.1.7,2.6,8.4Zm.3,25-3.3-8.8-1,.9,3.3,8.8Zm.4,25-4.2-9.2-1,1,4.2,9.2Zm-17.4-125.7-2.1-6.1-1,.8,2.1,6.1Zm0-25.1-1.9-5.5-1,.8,1.9,5.5Zm.2,50.2-2.4-6.7-1,.8L129,549ZM149.42,748l-8.8-9.4-.7,1.5,8.8,9.4Zm1.4,49.1-11.8-8.4-.5,1.6,11.8,8.4Zm-.7-24.5-10.3-9.1-.6,1.5,10.3,9.1ZM131,648.52l-4.5-8.7-.9,1.1,4.5,8.7Zm96.5-149.7-.7-6.5-1.2.3.7,6.5Zm3.1,251.3-7.1-13.3-.9,1.1,7.1,13.3Zm-3-201-.8-7.9-1.2.3.8,7.9Zm-48.9-50.7-1.3-6.1-1.1.6,1.3,6.1Zm48.9,76-.9-8.7-1.2.3.9,8.7Zm18.6,151.1-5.4-13.5-1,.9,5.4,13.5Zm1.4,50-8.3-14.4-.9,1.2,8.3,14.4Zm.8,24.8-10-14.6-.8,1.3,10,14.6Zm-20.7-200.7-1-9.6-1.2.3,1,9.6Zm2.3,125.5-5.8-12.9-1,1,5.8,12.9Zm-1.1-50.1-3.5-11.8-1.1.7,3.5,11.8Zm.5,25.1-4.6-12.4-1,.9,4.6,12.4Zm-1-50.2-2.5-11.1-1.1.6,2.5,11.1Zm-.4-25.1-1.7-10.3-1.1.4,1.7,10.3Zm-.4-100.9-.8-7.2-1.2.3.8,7.2Zm16.2.1-.5-7.3-1.2.2.5,7.3Zm1.8,176.4-4.1-12.9-1.1.8,4.1,12.9Zm18.2,75.5-7.8-15.2-.9,1.1,7.8,15.2Zm.8,24.9-9.5-15.5-.9,1.2,9.5,15.5Zm-2.2-75-4.9-14.1-1,.8,4.9,14.1Zm.6,25.1-6.3-14.7-1,1,6.3,14.7Zm-19.2-252-.5-6.6-1.1.1.5,6.6Zm.8,151.2-2.2-11.4-1.1.5,2.2,11.4Zm-.3-25.2-1.4-10.6-1.1.3,1.4,10.6Zm.8,50.4-3.1-12.2-1.1.6,3.1,12.2Zm-1.2-75.5-.7-9.7-1.2.2.7,9.7Zm0-50.6-.6-8-1.2.2.6,8Zm0,25.3-.6-8.8-1.2.2.6,8.8Zm2.9,176-6.7-14-.9,1,6.7,14Zm-51.7-176.4-1.5-8.3-1.1.5,1.5,8.3Zm.9,75.4-3.2-10.4-1.1.8,3.2,10.4Zm-.4-25.1-2.4-9.8-1.1.6,2.4,9.8Zm-.4-25.1-1.7-9.2-1.1.5,1.7,9.2Zm-.2-100.8-1.1-6.3-1.1.5,1.1,6.3Zm.1,50.4-1.4-7.6-1.1.5,1.4,7.6Zm-.1-25.2-1.2-6.9-1.1.5,1.2,6.9Zm4.7,275.1-11-11.6-.7,1.5,11,11.6Zm-3.3-124.3-4.2-10.9-1,.9,4.2,10.9Zm1.8,74.8-7.9-11.8-.8,1.3,7.9,11.8Zm17.7,50-10.7-12.6-.7,1.4,10.7,12.6Zm-17-25.2-9.4-11.8-.7,1.4,9.4,11.8Zm-231.8-177.8-5-4.2-.6,1.5,5,4.2Zm230.4,128.1-6.5-11.7-.9,1.1,6.5,11.7Zm33.9,50.6-8.7-13.6-.8,1.2,8.7,13.6Zm-20.1-251.2-1-7-1.1.4,1,7Zm0,25.2-1.1-7.7-1.1.4,1.1,7.7Zm.1,25.2-1.2-8.5-1.1.4,1.2,8.5Zm.1,25.3-1.3-9.4-1.1.4,1.3,9.4Zm20.7,200.3-10.4-13.6-.8,1.3,10.4,13.6Zm-21-301.2-.9-6.4-1.1.4.9,6.4Zm3.9,276-9-12.7-.8,1.3,9,12.7Zm-1.9-74.8-4.9-11.9-1,.9,4.9,11.9Zm.6,25-6.2-12.3-.9,1.1,6.2,12.3Zm.6,24.9-7.5-12.6-.9,1.2,7.5,12.6Zm-1.7-74.9-3.8-11.4-1,.8,3.8,11.4Zm-.5-25.1-2.9-10.7-1.1.7,2.9,10.7Zm-.4-25.1-2.1-10.1-1.1.5,2.1,10.1Zm-112.4,72.9-7.1-7.7-.7,1.4,7.1,7.7Zm-84-200.7-3.1-3.8-.7,1.4,3.1,3.8Zm37.2,297-12.5-1.9-.1,1.8,12.5,1.9ZM-.78,521.72l-3.5-3.8-.7,1.4,3.5,3.8Zm18.1,149.4-7-4.8-.5,1.6,7,4.8Zm-1.7-149.2-3.4-4.2-.7,1.4,3.4,4.2Zm.3,50.1-4.1-5-.7,1.4,4.1,5Zm-.1-25.1-3.7-4.6-.7,1.4,3.7,4.6Zm.7,74.9-5.3-5.4-.7,1.5,5.3,5.4Zm3.2,172.6v-1.8l-12.4.3v1.8Zm-.5-25.8-11.3-1.2-.1,1.8,11.3,1.2ZM-.88,496.72l-3.2-3.5-.7,1.4,3.2,3.5Zm19.6,247.7L8.62,742l-.2,1.8,10.1,2.4Zm-.5-24.4-9.1-3.4-.3,1.7,9.1,3.4Zm-.5-24.4-8-4.2-.4,1.7,8,4.2Zm-1.6-98.5-4.5-5.5-.7,1.4,4.5,5.5Zm16.2-24.9-3.9-5.4-.8,1.3,3.9,5.4Zm-.2-25.1-3.6-4.9-.8,1.3,3.6,4.9Zm.4,50.2-4.3-5.9-.8,1.3,4.3,5.9Zm-.6-75.3-3.2-4.5-.8,1.3,3.2,4.5Zm.9,100.1-5.1-5.9-.7,1.4,5.1,5.9Zm-1-125.1-2.9-4.1-.8,1.3,2.9,4.1Zm4.4,296.2-12.5-.8v1.8l12.5.8Zm-1.1-48.4L25,741.52l-.3,1.7,10.1,3.3Zm-1.9-98-6-5.7-.6,1.5,6,5.7Zm1.4,73.7-8.9-4.2-.3,1.7,8.9,4.2Zm1,48.6-11.2-2.2-.1,1.8,11.2,2.2Zm-2-97.7-6.9-5.4-.5,1.6,6.9,5.4Zm.5,24.6-7.9-4.9-.4,1.6,7.9,4.9Zm-17.2-49.5-6.1-5.2-.6,1.6,6.1,5.2ZM-15,694.92l-8.2-2.8-.3,1.7,8.2,2.8Zm.4,24.3-9.2-1.8-.2,1.8,9.2,1.8Zm-.8-48.8-7.3-3.5-.4,1.7,7.3,3.5Zm-.4-24.5-6.4-4-.4,1.6,6.4,4Zm-.7-49.3-4.9-4.7-.6,1.5,4.9,4.7Zm.3,24.7-5.6-4.4-.5,1.6,5.6,4.4Zm2.1,122.2-10.2-.7-.1,1.8,10.2.7Zm-19-172.2-4.5-3.9-.6,1.5,4.5,3.9Zm-.2-25-4.1-3.5-.6,1.5,4.1,3.5Zm-.2-25-3.8-3.2-.6,1.5,3.8,3.2Zm19.9,248.1-.1-1.8-11.2.7.1,1.8Zm-3.1-197.9-4.4-4.3-.6,1.5,4.4,4.3Zm3.6,221.9-.2-1.8-12.2,2.4.2,1.8Zm-20.6-297.1-3.4-2.9-.6,1.5,3.4,2.9Zm36.5,271.8-11.2-.2v1.8l11.2.2Zm-19.7-221.6-4-3.9-.6,1.5,4,3.9ZM.92,670.72l-7.2-4.1-.4,1.7,7.2,4.1Zm.5,24.5-8.1-3.5-.3,1.7,8.1,3.5Zm-1.2-73.7-5.5-4.9-.6,1.5,5.5,4.9Zm-.4-24.7-4.7-5.1-.7,1.4,4.7,5.1Zm-.2-25-4.3-4.6-.7,1.4,4.3,4.6Zm.9,74.4-6.3-4.6-.5,1.6,6.3,4.6Zm2.8,147.7-.1-1.8-12.3,1.4.1,1.8Zm-1.5-74.3-9.1-2.6-.2,1.7,9.1,2.6Zm-18.9-198.1-3.6-3.5-.6,1.5,3.6,3.5Zm-.2-25-3.3-3.2-.6,1.5,3.3,3.2Zm19.6,247.4-10.2-1.6-.1,1.8,10.2,1.6Zm-2.9-197.2-3.9-4.2-.7,1.4,3.9,4.2Zm49.4,50.8-4.1-6.3-.8,1.2,4.1,6.3Zm32.1-74.9-2.7-5.3-.9,1.1,2.7,5.3Zm20.9,272.8-12.3-5.2-.3,1.7,12.3,5.2Zm-21-297.9-2.5-4.8-.9,1.1,2.5,4.8Zm18.1,175.2-6-7.8-.8,1.3,6,7.8Zm162.9,28-3.7-13.3-1.1.7,3.7,13.3Zm-161.9,21.4-8.3-7.4-.6,1.5,8.3,7.4Zm.6,24.6-9.5-6.9-.5,1.6,9.5,6.9Zm.6,24.4L90.22,765l-.4,1.7,10.9,6.2Zm-20-223.4-3-5.9-.9,1.1,3,5.9Zm.6,75.1-4.4-7.2-.9,1.2,4.4,7.2Zm.9,49.6-6.3-7.2-.7,1.4,6.3,7.2Zm-.5-24.7-5.3-7.3-.8,1.3,5.3,7.3Zm-.7-49.7-3.6-7.1-.9,1.1,3.6,7.1Zm-.2-25.2-3.3-6.4-.9,1.1,3.3,6.4Zm16.3.2-3.1-6.8-1,1,3.1,6.8Zm19.3,174.1-9.3-7.7-.6,1.6,9.3,7.7Zm1.4,48.9-12.2-6.3-.4,1.7,12.2,6.3Zm-2-73.5-8-8.1-.6,1.5,8,8.1Zm1.3,49.1-10.7-7.1-.5,1.6,10.7,7.1Zm-1.8-73.8-6.9-8.3-.7,1.4,6.9,8.3Zm-.5-24.8-5.8-8.4-.8,1.3,5.8,8.4Zm-18-150.2-2.5-5.6-1,1,2.5,5.6Zm-14.1,174.3-7.3-7-.6,1.5,7.3,7Zm14.6-98.9-3.4-7.4-1,1,3.4,7.4Zm.3,24.9-4.2-7.7-.9,1.1,4.2,7.7Zm.4,24.8-5.1-7.8-.8,1.2,5.1,7.8Zm-1.3-150.2-2.3-5.1-1,1,2.3,5.1Zm.3,50.2-2.8-6.1-1,1,2.8,6.1Zm-47,148.5-7.7-5.6-.5,1.6,7.7,5.6Zm-2.3-199.2-2.8-4.3-.8,1.2,2.8,4.3Zm.2,25-3.1-4.8-.8,1.2,3.1,4.8Zm.1,25.1-3.4-5.2-.8,1.2,3.4,5.2Zm35.2,174.4-8.5-6.6-.5,1.6,8.5,6.6Zm-35-149.3-3.7-5.8-.8,1.2,3.7,5.8Zm19.8,197.7-11.1-4.2-.3,1.7,11.1,4.2Zm46.3-121.9-4.8-8.3-.9,1.2,4.8,8.3ZM50,671.72l-6.7-6-.6,1.5,6.7,6Zm2,97.9-11.2-3.2-.2,1.7,11.2,3.2Zm-.5-24.3-10-4.2-.3,1.7,10,4.2Zm-2.4-123-4.9-6.4-.8,1.3,4.9,6.4Zm18.7,123.4-9.9-5.1-.4,1.7,9.9,5.1Zm-18.3-98.6-5.8-6.2-.7,1.4,5.8,6.2ZM69,794.32l-12.5-3-.2,1.8,12.5,3Zm-4.3-246.8-3.2-5.6-.9,1.2,3.2,5.6Zm-.2-50.2-2.6-4.6-.9,1.2,2.6,4.6Zm.1,25.1-2.9-5-.9,1.2,2.9,5Zm20.8,272.5L73,790.82l-.2,1.7,12.4,4.1Zm-.6-24.3-11-5.2-.3,1.7,11,5.2Zm-.6-24.4-9.7-6-.4,1.6,9.7,6Zm-16.9-24.9-8.7-5.8-.5,1.6,8.7,5.8Zm-1-49.2-6.5-6.6-.7,1.5,6.5,6.6Zm.5,24.6-7.6-6.3-.6,1.6,7.5,6.3Zm-1-49.3-5.5-6.8-.7,1.4,5.5,6.8Zm-.4-24.8-4.7-6.8-.8,1.3,4.7,6.8Zm-.3-24.8-3.9-6.7-.9,1.2,3.9,6.7Zm-.2-25.2-3.5-6.1-.9,1.2,3.5,6.1ZM197,699.52l-5.3-11.4-1,1,5.3,11.4Zm245.2-58.1-.8-1.2-5.1,7.8.8,1.2Zm18.5,100.4-.4-1.6-9.7,6,.4,1.6Zm.6,25.3-.3-1.7-11,5.2.3,1.7Zm-1.7-75.5-.6-1.5-7.3,7,.6,1.5Zm2.4,100.9-.2-1.7-12.4,4.1.2,1.7Zm-3.3-150.8-.8-1.3-5.3,7.3.8,1.3Zm.4,24.9-.7-1.4-6.3,7.2.7,1.4Zm-.8-49.8-.9-1.2-4.4,7.2.9,1.2Zm-17.4-123.2-1-1-2.3,5.1,1,1Zm.5,98.2-1-1-3.4,7.4,1,1Zm.4,24.8-.9-1.1-4.2,7.7.9,1.1Zm-.5-49.3-1-1-3.1,6.8,1,1Zm-.2-24.6-1-1-2.8,6.1,1,1Zm-30.4,172.8-.7-1.4-7.8,8.9.7,1.4Zm49.4,1.2-.5-1.6-8.5,6.6.5,1.6Zm17.1,25.6-.4-1.7-9.9,5.1.4,1.7ZM457.92,592l-.9-1.1-3.6,7.1.9,1.1Zm18.7,125.1-.5-1.6-8.7,5.8.5,1.6Zm-1-50.2-.7-1.5-6.5,6.6.7,1.5Zm-.4-24.9-.7-1.4-5.5,6.8.7,1.4Zm-.4-24.9-.8-1.3-4.7,6.8.8,1.3Zm1.3,74.9-.6-1.6-7.5,6.3.6,1.6Zm-18.5-149.1-.9-1.1-3,5.9.9,1.1Zm.2,24.6-.9-1.1-3.3,6.4.9,1.1Zm16.6,24.7-.9-1.2-3.9,6.7.9,1.2Zm-16.9-73.9-.9-1.1-2.7,5.3.9,1.1Zm20.9,274.8-.2-1.8-12.5,3,.2,1.8Zm-21.1-299.3-.9-1.1-2.5,4.8.9,1.1Zm20.4,273.8-.3-1.7-11.1,4.2.3,1.7Zm-69.5-225.2-1-.8-2.4,6.7,1,.8Zm-.1-24.6-1-.8-2.1,6.1,1,.8Zm21,273.6-.4-1.7-12.2,6.3.4,1.7Zm-2.4-100.5-.7-1.4-6.9,8.3.7,1.4Zm.5,25-.6-1.5-8,8.1.6,1.5Zm1.2,50.2-.5-1.6-10.7,7.1.5,1.6Zm-.6-25.2-.6-1.5-9.3,7.7.6,1.6Zm14.8-74.6-.8-1.3-6,7.8.8,1.3Zm-33-.6-.9-1.2-5.5,8.9.9,1.2Zm-.4-24.9-.9-1.1-4.5,8.7.9,1.1Zm-.9-73.9-1-.8-2.6,7.4,1,.8Zm1.9,123.6-.8-1.3-6.6,9,.8,1.3Zm-1.8-99.1-1-.8-2.8,8.1,1,.8Zm.4,24.7-1-1-3.6,8.5,1,1Zm-.8-122.8-1-.8-1.9,5.5,1,.8Zm36.9,273.3-.4-1.7-10.9,6.2.4,1.7Zm-20.5-273.2-1-.9-2.1,5.3,1,.9ZM445.62,792l-.3-1.7-12.3,5.2.3,1.7Zm-1.3-50.6-.5-1.6-9.5,6.9.5,1.6Zm-.6-25.1-.6-1.5-8.3,7.4.6,1.5Zm-.6-25.1-.7-1.4-7.1,7.7.7,1.4Zm-18.5-148.6-1-.9-2.6,6.4,1,.9Zm.7,73.7-.9-1-3.9,8.1.9,1Zm-.4-24.7-1-.9-3.1,7.8,1,.9Zm.8,49.5-.9-1.2-4.8,8.3.9,1.2ZM424.52,518l-1-.9-2.3,5.8,1,.9Zm1.6,148-.8-1.3-5.8,8.4.8,1.3Zm-1.3-98.9-1-.9-2.8,7.1,1,.9Zm16.2-48.9-1-1-2.5,5.6,1,1Zm83.2,99.7-.7-1.5-5.3,5.4.7,1.5Zm-.4-25-.7-1.4-4.5,5.5.7,1.4Zm.8,50-.6-1.6-6.1,5.2.6,1.6Zm-50.4-75.2-.9-1.2-3.5,6.1.9,1.2Zm49.1-48.6-.7-1.4-3.4,4.2.7,1.4Zm1.7,148.8-.5-1.6-7,4.8.5,1.6Zm-1.4-99.6-.7-1.4-4.1,5,.7,1.4Zm1.8,124.8-.4-1.7-8,4.2.4,1.7Zm2,99.9-12.4-.3v1.8l12.4.3Zm-20.7-298.7-.8-1.3-2.9,4.1.8,1.3Zm20.2,274.8-.1-1.8-11.3,1.2.1,1.8Zm-3.8-274.7-.7-1.4-3.1,3.8.7,1.4Zm2.8,223.9-.3-1.7-9.1,3.4.3,1.7Zm.5,25.4-.2-1.8-10.1,2.4.2,1.8Zm15.4-50.2-.3-1.7-8.1,3.5.3,1.7Zm-1.2-75.4-.6-1.5-5.5,4.9.6,1.5Zm3.2,175.4-12.3-1.4-.1,1.8,12.3,1.4Zm-3.5-200.4-.7-1.4-4.7,5.1.7,1.4Zm-.4-49.2-.7-1.4-3.9,4.2.7,1.4Zm-.2-24.6-.7-1.4-3.5,3.8.7,1.4Zm-.2-24.7-.7-1.4-3.2,3.5.7,1.4Zm.6,73.9-.7-1.4-4.3,4.6.7,1.4Zm.9,74.7-.5-1.6-6.3,4.6.5,1.6Zm2.2,126.4v-1.8L532,768v1.8Zm-.9-50.9-.2-1.7-9.1,2.6.2,1.7Zm.4,25.4-.1-1.8-10.2,1.6.1,1.8Zm-35.9-225.2-.8-1.3-3.2,4.5.8,1.3Zm34.6,149.4-.4-1.7-7.2,4.1.4,1.7Zm-18-124.6-.7-1.4-3.7,4.6.7,1.4Zm-31.3,123.6-.6-1.5-6.7,6,.6,1.5Zm.9,50.2-.4-1.7-8.8,5,.4,1.7Zm-1.4-75.2-.7-1.4-5.8,6.2.7,1.4Zm-.9-74.4-.8-1.2-3.7,5.8.8,1.2Zm.5,49.4-.8-1.3-4.9,6.4.8,1.3Zm-.3-24.9-.8-1.2-4.1,6.3.8,1.2Zm1.6,99.9-.5-1.6-7.7,5.6.5,1.6Zm-18.6-173.8-.9-1.2-2.9,5,.9,1.2Zm19.7,224.3-.3-1.7-10,4.2.3,1.7Zm-19.5-199.7-.9-1.2-3.2,5.6.9,1.2Zm-.3-49.2-.9-1.2-2.6,4.6.9,1.2Zm33.2,49.6-.8-1.3-3.6,4.9.8,1.3Zm-12.9,224.6-.2-1.7-11.2,3.2.2,1.7Zm.6,25.6-.1-1.8-12.5,1.9.1,1.8Zm14.3-101-.4-1.6-7.9,4.9.4,1.6Zm-18.5-149.4-.8-1.2-3.4,5.2.8,1.2Zm17.2,74.3-.7-1.4-5.1,5.9.7,1.4Zm.4,25-.6-1.5-6,5.7.6,1.5Zm-.9-74.5-.8-1.3-3.9,5.4.8,1.3Zm.2,24.6-.8-1.3-4.3,5.9.8,1.3Zm1.1,74.9L508,666l-6.9,5.4.5,1.6Zm2.6,126.6v-1.8l-12.5.8V795Zm-1.6-76.3-.3-1.7-8.9,4.2.3,1.7Zm-19.1-199.2-.8-1.2-3.1,4.8.8,1.2Zm-.2-24.6-.8-1.2-2.8,4.3.8,1.2ZM510,743.22l-.3-1.7-10.1,3.3.3,1.7Zm.5,25.4-.1-1.8-11.2,2.2.1,1.8Zm-118.8-226.4-1.1-.7-2.1,6.9,1.1.7Zm-66.1-.6-1.1-.4-1.1,7.7,1.1.4Zm-16.4,24.3-1.2-.3-.9,8.7,1.2.3Zm2.3,147.3-1-1-5.8,12.9,1,1Zm.6,24.7-.9-1.1-7.1,13.3.9,1.1Zm-2.9-147.6L308,590l-1,9.6,1.2.3Zm.3,24.6-1.1-.4-1.7,10.3,1.1.4Zm.4,24.5-1.1-.6-2.5,11.1,1.1.6Zm.5,24.6-1.1-.7-3.5,11.8,1.1.7Zm-17.8-147.1-1.2-.2-.5,7.3,1.2.2Zm0,24.5-1.2-.2-.6,8,1.2.2Zm20.3,221.3-.8-1.2-8.7,13.6.8,1.2Zm-20.3-196.9-1.2-.2-.6,8.8,1.2.2Zm-.1-73.4-1.2-.2-.5,6.6,1.2.2Zm21.2,295.2-.8-1.3-10.4,13.6.8,1.3Zm15.7-24.4-.8-1.3-9,12.7.8,1.3Zm-1.9-74.3-1-.9-4.9,11.9,1,.9Zm-1-49.3-1.1-.7-2.9,10.7,1.1.7Zm.5,24.6-1-.8-3.8,11.4,1,.8Zm-17.9-122.7-1.2-.3-.8,7.9,1.2.3Zm16.6,24.6-1.1-.4-1.2,8.5,1.1.4Zm0,24.4-1.1-.4-1.3,9.4,1.1.4Zm.4,24.5-1.1-.5-2.1,10.1,1.1.5Zm4.1,173.1-.7-1.4-10.7,12.6.7,1.4ZM309,492.52l-1.2-.3-.7,6.5,1.2.3Zm.1,24.5-1.2-.3-.8,7.2,1.2.3Zm-16.5,73.2-1.2-.2-.7,9.7,1.2.2Zm35.5,123.4-.9-1.1-6.2,12.3.9,1.1Zm.6,24.7-.9-1.2-7.5,12.6.9,1.2Zm-17.8-49.7-1-.9-4.6,12.4,1,.9Zm-31.2,73.2-.9-1.1-7.8,15.2.9,1.1ZM260.12,499l-.2-6.7-1.2.1.2,6.7Zm20.4,287.6-.9-1.2-9.5,15.5.9,1.2Zm-1.5-49.4-1-1-6.3,14.7,1,1Zm-2.2-98.2-1.1-.4-1.8,11.7,1.1.4Zm.9,49-1.1-.7-3.7,13.3,1.1.7Zm.6,24.6-1-.8-4.9,14.1,1,.8Zm-1.1-49.1-1.1-.5-2.7,12.5,1.1.5Zm-17-63.6-.3-9.9-1.2.1.3,9.9Zm-.1-75.8-.3-7.4-1.2.1.3,7.4Zm.8,126.2-1.8-11.7-1.1.4,1.8,11.7Zm-.4-25.2-1-10.8-1.2.2,1,10.8Zm-.4-50.5-.3-9-1.2.1.3,9Zm0-25.3-.3-8.2-1.2.1.3,8.2Zm15.9-32.5-1.2-.1-.3,7.4,1.2.1Zm18.9,196.1-1-.9-5.4,13.5,1,.9Zm.7,24.6-.9-1-6.7,14,.9,1Zm-1.3-49.2-1.1-.8-4.1,12.9,1.1.8Zm-.9-49.1-1.1-.5-2.2,11.4,1.1.5Zm-17-24.6-1.2-.2-1,10.8,1.2.2Zm134.9,125.9-.6-1.5-9.1,8.6.6,1.5Zm-115,21.8-.9-1.2-8.3,14.4.9,1.2Zm.8,24.8-.8-1.3-10,14.6.8,1.3Zm-21-197-1.2-.1-.3,9.9,1.2.1Zm0-48.8-1.2-.1-.3,8.2,1.2.1Zm0,24.4-1.2-.1-.3,9,1.2.1Zm-.1-73.4-1.2-.1-.2,6.7,1.2.1Zm17,122.4-1.1-.3-1.4,10.6,1.1.3Zm.8,49-1.1-.6-3.1,12.2,1.1.6Zm81.4-121.6-1.1-.7-1.9,7.2,1.1.7Zm.1,24.4-1.1-.7-2.1,7.9,1.1.7Zm.4,49.1-1-.8-3,9.2,1,.8Zm4.1,174.1-.6-1.6-11.6,9.5.6,1.6Zm16.4.6-.5-1.6-11.8,8.4.5,1.6Zm-21.1-272.8-1.1-.7-1.7,6.5,1.1.7ZM375,493l-1.1-.7-1.5,5.9,1.1.7Zm.4,98-1.1-.7L372,599l1.1.7Zm2.3,123.7-.8-1.3-7.2,10.3.8,1.3Zm-52.1-197.6-1.1-.4-1,7,1.1.4ZM379,764.62l-.6-1.5-10,10,.6,1.5Zm-2.4-99.5-.9-1.1-4.9,10,.9,1.1Zm.5,24.7-.9-1.2-6,10.2.9,1.2Zm-1-49.5-1-.9-3.9,9.6,1,.9Zm19.4,124.8-.6-1.5-10.3,9.1.6,1.5Zm-3.9-247.4-1.1-.7-1.9,6.3,1.1.7Zm.2,49-1.1-.7-2.3,7.6,1.1.7Zm-.3-73.6-1.1-.7-1.7,5.7,1.1.7Zm-130.2,182.4-2.7-12.5-1.1.5,2.7,12.5Zm151.4,115.4-.4-1.6-12,7.4.4,1.6Zm-.7-25.3-.5-1.6-10.5,8.1.5,1.6ZM394.82,740l-.7-1.5-8.8,9.4.7,1.5Zm-1.2-49.8-.8-1.3-6.3,9.6.8,1.3Zm-1.7-99-1.1-.7-2.6,8.4,1.1.7Zm1.2,74.1-.9-1.1-5.2,9.5.9,1.1Zm1.1,49.8-.8-1.4-7.5,9.6.8,1.4Zm-1.5-74.5-1-1-4.2,9.2,1,1Zm-.4-24.7-1-.9-3.3,8.8,1,.9Zm-14,123.7-.7-1.4-8.5,10.3.7,1.4Zm-35.7-124.4-1.1-.6-2.3,9.8,1.1.6Zm-.5-97.9-1.1-.5-1.2,6.9,1.1.5Zm.9,122.5-1.1-.8-3.2,10.4,1.1.8Zm-.9-98-1.1-.5-1.4,7.6,1.1.5Zm1.4,122.7-1-.9-4.2,10.9,1,.9Zm-1.3-98.3-1.1-.5-1.5,8.3,1.1.5Zm.1,24.4-1.1-.5-1.7,9.2,1.1.5Zm1.7,98.6-1-1-5.3,11.4,1,1Zm-18.5-196.6-1.1-.4-.9,6.4,1.1.4Zm20.5,271-.7-1.4-9.4,11.8.7,1.4Zm.8,25-.7-1.5-11,11.6.7,1.5Zm-2.2-74.7-.9-1.1-6.5,11.6.9,1.1Zm.7,24.8-.8-1.3-7.9,11.8.8,1.3Zm15.9-24.4-.8-1.2-6.9,11,.8,1.2Zm-2.5-147.9-1.1-.6-1.8,8.1,1.1.6Zm.1,24.4-1.1-.6-2,8.9,1.1.6Zm.4,24.6-1.1-.7-2.7,9.5,1.1.7Zm.4,24.7-1-.8-3.6,10,1,.8Zm-.9-98.2-1.1-.6-1.6,7.4,1.1.6Zm-.1-24.5-1.1-.6-1.5,6.7,1.1.6Zm1.5,147.4-1-1-4.6,10.5,1,1Zm2.4,99.3-.7-1.4-9.7,10.9.7,1.4ZM342,492.72l-1.1-.5-1.1,6.3,1.1.5Zm21.3,296.5-.6-1.5-11.3,10.6.6,1.5Zm-1.5-50-.8-1.3-8.2,11.1.8,1.3Zm-3.3-246.3-1.1-.6-1.3,6.1,1.1.6Zm2.1,196.6-.9-1.1-5.7,10.8.9,1.1Zm-309.7,31.4-8.8-5-.4,1.7,8.8,5Zm236.7,140.3,7.3,15.1.9-1-7.3-15.1Zm.8,25.1,5.7,14.4,1-.9-5.7-14.4Zm-1.6-50.2,9,15.7.9-1.2-9-15.7Zm-1-24.9,11,16,.8-1.3-11-16Zm3.2,100.3,4.4,13.6,1.1-.8-4.4-13.6Zm1,50.4,2.2,11.8,1.1-.5-2.1-11.8Zm-.4-25.2,3.2,12.7,1.1-.6-3.2-12.7Zm16.7,25.4,2.6,11.5,1.1-.6-2.6-11.5Zm-.5-25.2,3.6,12.3,1.1-.7-3.6-12.3Zm-15.3,50.3,1.4,10.8,1.1-.3-1.4-10.8Zm14.7-75.4,4.8,13.1,1-.9-4.8-13.1Zm1.9,126.1.9,8.7,1.2-.3-.9-8.7Zm-2.5-151.2,6.2,13.8,1-1-6.2-13.8Zm2.1,100.6,1.8,10.6,1.1-.4-1.8-10.6Zm.3,25.2,1,9.7,1.2-.3-1-9.7ZM274.22,987l1,11,1.2-.2-1-11Zm.4,25.3.3,10,1.2-.1-.3-10Zm-.8-50.6,1.8,12.1,1.1-.4-1.8-12.1Zm.8,75.9.3,9,1.2-.1-.3-9Zm-20.9-211.1.9,1.2,10.5-17-.9-1.3Zm19.7,110,2.8,13.1,1.1-.5-2.8-13.1Zm-3.7-125.9,10.5,17,.9-1.2-10.5-17Zm21.1,201.8.7,9.9,1.2-.2-.7-9.9Zm0,25.3.6,8.9,1.2-.2-.6-8.9Zm-20.2-202,8.5,16.5.9-1.1-8.5-16.5Zm2.2,75.5,3.9,14.1,1.1-.7-3.9-14.1Zm-1.3-50.4,6.8,15.8,1-1-6.8-15.8Zm.7,25.2,5.3,15,1-.8-5.3-15Zm30.8-49.4,9.4,14.8.8-1.2-9.4-14.8Zm32.4,1,10.2,12.9.7-1.4-10.1-12.8Zm1.6,49.8,7,12.5.9-1.1-7-12.5Zm-33.2-25.8,7.7,14.4.9-1.1-7.7-14.4Zm33.8,50.8,5.6,12,1-1-5.6-12Zm1.5,75.3,2.5,10,1.1-.6-2.5-10Zm-.9-50.2,4.4,11.4,1-.9-4.4-11.4Zm.5,25.1,3.4,10.8,1.1-.8-3.4-10.8Zm17,50.4,2,9.1,1.1-.6-2-9.1Zm-.8-50.2,3.7,10.4,1-.8-3.7-10.4Zm-20.4-149.9,12.2,12.8.7-1.5-12.2-12.8Zm20.9,175,2.8,9.7,1.1-.7-2.8-9.7Zm-1-50.1,4.8,10.9,1-1-4.8-10.9Zm-14.9,75,1.7,9.3,1.1-.5-1.7-9.3Zm16.3,25.5,1.8,8.2,1.1-.6-1.8-8.2Zm-19.6-175.8,8.5,12.8.8-1.3-8.5-12.8ZM323.32,1038l1.2,8.6,1.1-.4-1.2-8.6Zm16.3.1,1.5,8.4,1.1-.5-1.5-8.4Zm-16.7-50.6,2.1,10.3,1.1-.5L324,987ZM302,811.72l11.4,15,.8-1.3-11.4-15Zm-47.3,39.4.9,1.1,8.5-16.5-.9-1.1Zm67.8,111.3,3,11.1,1.1-.7-3-11.1Zm.8,50.3,1.4,9.5,1.1-.4-1.4-9.5Zm-4.1-175.6,9.9,13.8.8-1.3-9.9-13.8ZM320,862l8.1,13.6.9-1.2-8.1-13.6Zm-1.7-49.7,11.8,13.9.7-1.4L319,810.92Zm3.7,124.9,4,11.9,1-.8-4-11.9Zm-.6-25.1,5.2,12.6,1-.9-5.2-12.6Zm-.6-25.1,6.6,13.1.9-1.1-6.6-13.1Zm-78.7,135.1,1.2.2.7-9.9-1.2-.2Zm-54.7-197.9.7,1.5,12.2-12.8-.7-1.5Zm21.6,197.6,1.1.4,1.4-9.5-1.1-.4Zm-20.7-172.7.7,1.4,10.2-12.9-.7-1.4Zm20.7,197.1,1.1.4,1.2-8.6-1.1-.4Zm-18.5-122.8,1,1,5.6-12-1-1Zm-1.3-49.4.8,1.3,8.5-12.8-.8-1.3Zm.7,24.7.9,1.1,7-12.5-.9-1.1Zm18.3,74.1,1.1.7,3-11.1-1.1-.7Zm-1.7-73.7.9,1.1,6.6-13.1-.9-1.1Zm-.8-24.7.9,1.2,8.1-13.6-.9-1.2Zm2.9,122.9,1.1.5,2.1-10.3-1.1-.5Zm-1.5-73.6,1,.9,5.2-12.6-1-.9Zm-16,24.3,1,.9,4.4-11.4-1-.9Zm13.8-98.3.8,1.3,9.9-13.8-.8-1.3Zm2.8,98.6,1,.8,4-11.9-1-.8Zm-33.1-.6,1,1,4.8-10.9-1-1Zm.5,24.6,1,.8,3.7-10.4-1-.8Zm-1.1-49.2.9,1.1,6-11.4-.9-1.1Zm17.6,49.5,1.1.8,3.4-10.8-1.1-.8Zm-18.3-74.3.8,1.2,7.3-11.7-.8-1.2Zm2.6,123.2,1.1.6,2-9.1-1.1-.6Zm-.4-24.6,1.1.7,2.8-9.7-1.1-.7Zm16.9,24.8,1.1.5,1.7-9.3-1.1-.5Zm.1,24.4,1.1.5,1.5-8.4-1.1-.5Zm-.4-49,1.1.6,2.5-10-1.1-.6Zm-20.3-148.5.7,1.4,10.6-11.9-.7-1.4Zm.8,24.9.8,1.3,8.9-11.9-.8-1.3Zm-1.7-49.9.6,1.5,12.5-11.6-.6-1.5Zm68,51.7.9,1,7.3-15.1-.9-1Zm16.6.4,1,1,6.8-15.8-1-1Zm-17.4-25.1.9,1.2,9-15.7-.9-1.2Zm-1-24.7.8,1.3,11-16-.8-1.3Zm-61.1,220,1.1.6,1.8-8.2-1.1-.6Zm63.6-146.1,1,.9,5.7-14.4-1-.9Zm19.1,146.8,1.2.1.3-9-1.2-.1Zm-18.4-122.3,1.1.8,4.4-13.6-1.1-.8Zm17.1,24.7,1.1.5,2.8-13.1-1.1-.5Zm-.5-24.4,1.1.7,3.9-14.1-1.1-.7Zm-15.6,48.6,1.1.5,2.2-11.8-1.1-.5Zm14.9-73.1,1,.8,5.3-15-1-.8Zm2.1,97.7,1.2.2,1-11-1.2-.2Zm-.4-24.4,1.1.4,1.8-12.1-1.1-.4Zm.7,48.8,1.2.1.3-10-1.2-.1Zm-16.9-24.5,1.1.3,1.4-10.8-1.1-.3Zm-16.5-.2,1.1.4,1.8-10.6-1.1-.4Zm-.5-24.5,1.1.6,2.6-11.5-1.1-.6Zm-.4-24.5,1.1.7,3.6-12.3-1.1-.7Zm-.6-24.5,1,.9,4.8-13.1-1-.9Zm1.8,98,1.2.3,1-9.7-1.2-.3Zm.1,24.3,1.2.3.9-8.7-1.2-.3Zm-5.1-220.9.8,1.3,11.4-15-.8-1.3Zm21.6,221.1,1.2.2.6-8.9-1.2-.2Zm111.7-133.7,6,11.4.9-1.1-6-11.4Zm-149.8-88,.7,1.4,11.8-13.9-.7-1.4Zm19,74.7,1,1,6.2-13.8-1-1Zm-1.5-49.4.8,1.2,9.4-14.8-.8-1.2Zm.8,24.7.9,1.1,7.7-14.4-.9-1.1Zm18.5,74,1.1.6,3.2-12.7-1.1-.6Zm243.8-8.4,7,6.3.6-1.5-7-6.3Zm.9,49.4,5,6.5.8-1.3-5-6.5Zm16.7,25.1,4.4,6,.8-1.3-4.4-6Zm-16.3-.2,4.2,6.4.8-1.2-4.2-6.4Zm.2,25.1,3.7,5.8.8-1.2-3.7-5.8ZM465.82,842l12.1,4.6.3-1.7-12.1-4.6Zm-.7-24.2,13.7,3.3.2-1.8-13.7-3.3Zm17.8,49,10.8,4.6.3-1.7-10.8-4.6Zm-1.4-48.4,13.7,2.1.1-1.8-13.7-2.1Zm21,221.6,3.9,5.4.8-1.3-3.9-5.4Zm-20.3-197.5,12.2,3.5.2-1.7-12.2-3.5Zm1.3,48.7,9.4,5.4.4-1.7-9.4-5.4Zm.6,24.5,8.2,5.9.5-1.6-8.2-5.9Zm-17.6-49.4,10.6,5.5.4-1.7-10.6-5.5Zm18.6,98.8,6,6.5.7-1.4-6-6.5Zm-34.9-99.3,10.5,6.5.4-1.6-10.5-6.5Zm.6,24.5,9.1,7,.5-1.6-9.1-7Zm-1.3-48.9,12,5.6.3-1.7-12-5.6Zm2.5,98.3,6.6,7.6.7-1.4-6.6-7.6Zm-.5-24.7,7.8,7.4.6-1.5-7.8-7.4Zm-2.8-97.8,13.6,4.5.2-1.7-13.6-4.5Zm18.5,73.6,9.2,6.2.5-1.6-9.2-6.2Zm1.6,74,5.7,7,.7-1.4-5.7-7Zm-.5-24.8,6.8,6.9.7-1.5-6.8-6.9Zm-.5-24.7,8,6.7.6-1.6-8-6.7Zm1.4,74.3,4.8,7,.8-1.3-4.8-7Zm.6,50,3.5,6.1.9-1.2-3.5-6.1Zm-.2-25.2,3.9,6.8.9-1.2-3.9-6.8Zm63.5-97.5,8.6,3.7.3-1.7-8.6-3.7Zm2,123.6,4.3,4.7.7-1.4-4.3-4.7Zm-.2-25.1,4.8,5.2.7-1.4-4.8-5.2Zm-.4-24.7,5.6,5,.6-1.5-5.6-5Zm9.8-173.8-13.6,1.5.1,1.8,13.6-1.5Zm-28.7,50.9,10.9,2.6.2-1.8-10.9-2.6Zm-1.2-50v1.8l13.7-.3v-1.8Zm.6,25.8,12.3,1.3.1-1.8-12.3-1.3ZM534.12,966l6.5,4.8.5-1.6-6.5-4.8Zm-2-97.7,11,1.7.1-1.8-11-1.7Zm.5,24.2,9.7,2.8.2-1.7-9.7-2.8Zm-1.1-48.4,12.2.3v-1.8l-12.2-.3Zm2.1,97.3,7.5,4.3.4-1.7-7.5-4.3Zm-17.4-49.3,9.7,3.7.3-1.7-9.7-3.7Zm-63.7,72.4,5.5,7.6.8-1.3-5.5-7.6Zm64.8-23.4,7.4,5,.5-1.6-7.4-5Zm-17.4-49.5,9.5,4.5.3-1.7-9.5-4.5Zm-.6-24.3,10.9,3.6.3-1.7-10.9-3.6Zm1.1,48.8,8.3,5.2.4-1.6-8.3-5.2Zm1,49.3,6.2,5.9.6-1.5-6.2-5.9Zm-.5-24.7,7.2,5.6.5-1.6-7.2-5.6Zm-2.3-97.6,12.3,2.4.1-1.8-12.3-2.4Zm20.2,197.2,4.1,5.1.7-1.4-4.1-5.1Zm-1.1-74.6L524,971l.6-1.6-6.3-5.3Zm-15.9,24.4,5.2,6,.7-1.4-5.2-6Zm16.4.3,5.4,5.5.7-1.5-5.4-5.5ZM497.92,819l13.7.9v-1.8l-13.7-.9Zm18.9,97.5,8.5,4.4.4-1.7-8.5-4.4Zm1.8,98.6,4.6,5.6.7-1.4-4.6-5.6Zm-147.9-77,5.1,10.4.9-1.1-5.1-10.4Zm17.7,100.5,2.3,7.7,1.1-.7-2.3-7.7Zm-1.5-100.2,5.4,9.9.9-1.1-5.4-9.9Zm-1.2-49.8,8,10.3.8-1.4-8-10.3Zm-.7-24.7,9.5,10.2.7-1.5-9.5-10.2Zm3.2,149.5,2.6,8.5,1.1-.7-2.6-8.5Zm-.3-25.1,3.4,9,1-.9-3.4-9Zm-.5-25,4.4,9.5,1-1-4.4-9.5Zm-1.1-49.8,6.7,10.1.8-1.3-6.7-10.1Zm18.2,100.1,2.9,8.2,1-.8-2.9-8.2Zm48.4-24.3,4.5,7.4.9-1.2-4.5-7.4Zm-49.7-50.6L409,948l.9-1.2-5.8-9.3Zm1.4,100.1,2.6,7.4,1-.8-2.6-7.4Zm-21.3-224.1,13,9.3.5-1.6-13-9.3Zm.9,24.5,11.2,9.9.6-1.5-11.2-9.9Zm19.5,124.4,4.7,9.1.9-1.1-4.7-9.1Zm-31.6,74.9,2.1,7.9,1.1-.7-2.1-7.9Zm-.1-25.3,2.3,8.8,1.1-.7-2.3-8.8Zm-21.3-199.7,12.5,11.6.6-1.5L351.32,812Zm20.9,174.6,3.1,9.4,1-.8-3.1-9.4Zm-20-150,10.6,11.9.7-1.4-10.6-11.9Zm.9,24.8,8.9,11.9.8-1.3-8.9-11.9Zm.7,24.9,7.3,11.7.8-1.2-7.3-11.7Zm18,75.3,4,10,1-.9-4-10Zm-3.3-124.4,10.9,10.9.6-1.5-10.9-10.9Zm1.5,49.5,7.7,11,.8-1.3-7.7-11Zm-.7-24.8,9.2,11.1.7-1.4-9.2-11.1Zm1.4,49.7,6.3,10.8.9-1.2-6.3-10.8Zm-3.1-99,12.8,10.5.6-1.6-12.8-10.5Zm37.1,174.5,3.7,8.7,1-1-3.7-8.7Zm32.6.5L441,997l.9-1.1-4.3-7.9Zm-.5-24.9,5.2,8.1.8-1.2L437,963Zm-.5-24.9,6.3,8.2.8-1.3-6.3-8.2Zm1.5,99.9,3.1,6.8,1-1-3.1-6.8Zm-.1-25.2,3.4,7.6,1-1-3.4-7.6Zm-1.9-99.4,7.5,8.1.7-1.4-7.5-8.1Zm-1.3-49.3,10.3,7.4.5-1.6-10.3-7.4Zm19.6,174.1,3.3,6.5.9-1.1-3.3-6.5Zm-.2-25.2,3.7,7.2.9-1.1-3.7-7.2Zm-21-197.6,13.5,5.7.3-1.7-13.5-5.7Zm2.2,73.3,8.8,7.9.6-1.5-8.8-7.9Zm-1.4-49,11.9,6.7.4-1.7-11.9-6.7Zm-17.1-25,13.4,6.9.4-1.7-13.4-6.9Zm-16.4-.6,13.2,8.1.4-1.6-13.2-8.1Zm.9,24.5,11.4,8.8.5-1.6-11.4-8.8Zm2.1,74,7,9.5.8-1.3-7-9.5Zm18.2,100,3.2,7.9,1-.9-3.2-7.9Zm.1,25.2,2.8,7.1,1-.9-2.8-7.1Zm-19.6-174.7,9.8,9.3.6-1.5-9.8-9.3ZM402,889l8.3,9.5.7-1.4-8.3-9.5Zm16.9,25.2,7.2,8.8.7-1.4-7.2-8.8Zm-2.1-73.9,11.7,7.8.5-1.6-11.7-7.8Zm1.4,49.2,8.6,8.7.6-1.5-8.6-8.7Zm-.7-24.7,10.1,8.4.6-1.6-10.1-8.4Zm1.9,74.2,6,8.8.8-1.3-6-8.8Zm.5,24.9,5,8.6.9-1.2-5-8.6Zm.5,24.9,4,8.3.9-1-4-8.3ZM6.72,819.32l13.7.3v-1.8l-13.7-.3Zm-96.5,73.9,9.8,1.4.1-1.8-9.8-1.4Zm-.5-25.6,10.7,3,.2-1.7-10.7-3Zm-.5-25.8,11.7,4.9.3-1.7-11.7-4.9Zm17.9,75.5.1,1.8,8.8-.6-.1-1.8Zm-23.3-174.2-.3-1.7-9.8,3.6.3,1.7Zm7.4,199.2.1,1.8,7.9-1-.1-1.8Zm.4,25.3.2,1.7,7-1.8-.2-1.7Zm.7,50.3.4,1.7,5.5-2.9-.4-1.7Zm15.6-50,.3,1.7,7-2.4-.3-1.7Zm-.4-25.2.2,1.8,7.9-1.6-.2-1.8Zm.8,50.4.4,1.7,6.1-3-.4-1.7Zm.6,49.7.5,1.6,4.8-3.1-.5-1.6Zm-20.2-227,12.6,7.1.4-1.7-12.6-7.1Zm20,202.3.5,1.6,5.3-3.4-.5-1.6Zm-17.9-99.4,8.8.1V917l-8.8-.1Zm-15,98.9.3,1.7,5.5-2.5-.3-1.7Zm16.7,25,.4,1.7,4.9-2.6-.4-1.7Zm-16.4-.2.3,1.7,5-2.2-.3-1.7Zm8.5-251.6-.5-1.6-11.2,7.4.5,1.6Zm-9.4,176.5.1,1.8,7.1-1.2-.1-1.8Zm9-200.3-.4-1.7-10.5,5.4.4,1.7Zm-8.7,225.5.2,1.7,6.3-1.9-.2-1.7Zm-2.6-151.2,11.5,5.8.4-1.7-11.5-5.8Zm83.8,102.4.4,1.7,7.6-3.6-.4-1.7Zm-83.3-76.6L-96,871l.3-1.7-10.6-3.9Zm1,51.3,8.8.8.1-1.8-8.8-.8Zm.4,23.6v1.8l7.9-.3v-1.8Zm-.9-49.2,9.7,2.2.2-1.8-9.7-2.2Zm18,100,.3,1.7,6.2-2.5-.3-1.7Zm48.4-49.4.3,1.7,7.7-3-.3-1.7Zm-.4-25.3.2,1.8,8.8-2.2-.2-1.8Zm-.5-25.4.1,1.8,9.8-1.1-.1-1.8Zm2.1,125.9.6,1.5,5.1-4.3-.6-1.5Zm-.7-50.1.4,1.7,6.8-3.6-.4-1.7Zm-1.9-99.5,11,.2v-1.8l-11-.2Zm2.3,124.6.5,1.6,5.9-4-.5-1.6Zm16.4.3.5,1.6,5.8-4.5-.5-1.6Zm-15.8,49.4.6,1.5,4.6-3.9-.6-1.5Zm-3.6-200,12.1,1.9.1-1.8-12.1-1.9Zm19,125.6.4,1.6,6.7-4.2-.4-1.6Zm.8,50,.6,1.5,4.9-4.8-.6-1.5Zm-20.4-201.4,13.3,3.8.2-1.7-13.3-3.8Zm20.6,226,.6,1.5,4.4-4.3-.6-1.5ZM-57,892.32v1.8l9.8-.3V892Zm-18-75.9,12.9,6,.3-1.7-12.9-6Zm19.7,176.9.4,1.7,6-3.5-.4-1.7Zm.4,25.1.5,1.6,5.2-3.9-.5-1.6Zm.3,24.6.5,1.6,4.7-3.5-.5-1.6Zm-4.1-226.1,13.1,4.9.3-1.7-13.1-4.9Zm-15.8,25.4,11.8,3.9.2-1.7-11.8-3.9Zm.6,25.8,10.8,2.1.1-1.8-10.8-2.1Zm16.4.4,10.9,1.2.1-1.8-10.9-1.2Zm-.6-25.7,12,2.9.2-1.8-12-2.9Zm2.5,125.4.3,1.7,6.9-3-.3-1.7Zm-17.8-74.5,9.8.6v-1.8l-9.8-.6Zm16.9,24,.1,1.8,8.8-1.4-.1-1.8Zm.4,25.3.2,1.7,7.8-2.3-.2-1.7Zm-51.5-127.7,12.3,8.2.5-1.6-12.3-8.2ZM-66.38,496l-3.6-2.3-.5,1.6,3.6,2.3Zm1.8,173.4-7.5-1.6-.2,1.8,7.5,1.6Zm17.7,75-.1-1.8-10.1,1.1.1,1.8Zm.5,24-.2-1.8-11,2.6.2,1.8Zm-2.2-123.1-6.7-2.9-.3,1.7,6.7,2.9Zm.8,48.8-8.3-1.3-.1,1.8,8.3,1.3Zm.4,24.3-9.2-.2V720l9.2.2Zm-.8-48.7-7.5-2.2-.2,1.7,7.5,2.2Zm-17.1-49.3-6-2.9-.4,1.7,6,2.9Zm.4,24.6-6.7-2.3-.3,1.7,6.7,2.3Zm-.7-49.2-5.3-3.3-.5,1.6,5.3,3.3Zm-.6-74.9-4-2.5-.5,1.6,4,2.5Zm.4,50-4.8-3-.5,1.6,4.8,3Zm-.2-25-4.4-2.8-.5,1.6,4.4,2.8Zm20,246.4-.3-1.7-11.9,4.5.3,1.7Zm15-73.5-9.2-1-.1,1.8,9.2,1Zm-.4-24.3-8.3-2-.2,1.8,8.3,2Zm.8,50.3V743l-10.2.2V745Zm-1.6-99.2-6.6-3.5-.4,1.7,6.6,3.5Zm2.2,123.3-.1-1.8-11.1,1.7.1,1.8Zm-1.8-98.8-7.4-2.8-.3,1.7,7.4,2.8Zm-17.6-99-4.7-3.5-.5,1.6,4.7,3.5Zm19.9,221.7-.2-1.7-12.1,3.5.2,1.7Zm-19.7-196.7-5.1-3.8-.5,1.6,5.1,3.8Zm-.5-50-4.2-3.1-.5,1.6,4.2,3.1Zm.8,74.6-5.9-3.4-.4,1.7,5.9,3.4Zm-1-99.6-3.9-2.9-.5,1.6,3.9,2.9Zm-.1-25-3.5-2.6-.5,1.6,3.5,2.6Zm-12.9,271.8-.2-1.7-10.9,3.6.2,1.7Zm-17.3-48.5-.1-1.8-9.1,1.3.1,1.8ZM-99,520.52l-4.1-1.8-.3,1.7,4.1,1.8Zm20.1,270.8-.4-1.7-11.5,6.5.4,1.7Zm-20.3-295.7-3.7-1.7-.3,1.7,3.7,1.7Zm19.4,247.9-.2-1.7-9.9,2.8.2,1.7Zm.5,24-.3-1.7-10.7,4.5.3,1.7Zm-19.5-222-4.5-2-.3,1.7,4.5,2Zm1.4,123.3-7.6-.3v1.8l7.6.3Zm-1.2-98.4-5-2.2-.3,1.7,5,2.2Zm1.6,124.4-.1-1.8-8.3.8.1,1.8Zm-.7-50.4-6.8-1.2-.1,1.8,6.8,1.2Zm-.3-24.5-6.1-1.9-.2,1.7,6.1,1.9Zm-.3-24.5-5.5-2.4-.3,1.7,5.5,2.4Zm16.7,24.8-6.1-2.4-.3,1.7,6.1,2.4Zm19.2,171.6-.3-1.7-11.7,5.5.3,1.7ZM-96.58,719l-.2-1.8-9.1,2.1.2,1.8Zm13.8-223.2-3.7-2-.4,1.7,3.7,2Zm19,224V718l-9.2.5v1.8Zm.5,24.1-.1-1.8-10,1.9.1,1.8Zm-19.3-223.2-4-2.2-.4,1.7,4,2.2Zm.7,74.9-5.4-2.9-.4,1.7,5.4,2.9Zm-.5-49.9-4.4-2.4-.4,1.7,4.4,2.4Zm1.1,99-6.8-1.7-.2,1.7,6.8,1.7Zm.3,24.4-7.6-.9-.1,1.8,7.6.9Zm16.8,24.7-8.4-.6-.1,1.8,8.4.6Zm-18-123.2-4.9-2.6-.4,1.7,4.9,2.6Zm1.6,124.6v-1.8l-8.3.1v1.8Zm207,350.2,1,.8,2.6-7.4-1-.8Zm-16.6-24.7,1,.9,3.2-7.9-1-.9Zm.1,24.5,1,.9,2.8-7.1-1-.9Zm-.5-49.2.9,1,4-8.3-.9-1Zm-20-150.1.4,1.7,11.9-6.7-.4-1.7Zm-.8-25.4.3,1.7,13.5-5.7-.3-1.7Zm1.5,50.6.5,1.6,10.3-7.4-.5-1.6Zm.7,25.1.6,1.5,8.8-7.9-.6-1.5Zm18.2,75.1.9,1.2,5-8.6-.9-1.2Zm-3.2-124.8.5,1.6,11.7-7.8-.5-1.6Zm-.8-25.4.4,1.7,13.4-6.9-.4-1.7Zm3.4,125.4.8,1.3,6-8.8-.8-1.3Zm-1.8-74.9.6,1.6,10.1-8.4-.6-1.6Zm1.3,50,.7,1.4,7.2-8.8-.7-1.4Zm-.6-24.9.6,1.5,8.6-8.7-.6-1.5Zm-15.4,49.4.8,1.3,6.3-8.2-.8-1.3Zm-17.6-50.3.5,1.6,9.1-7-.5-1.6Zm-.7-25.2.4,1.6,10.5-6.5-.4-1.6Zm1.3,50.2.6,1.5,7.8-7.4-.6-1.5Zm1,49.9.8,1.3,5.5-7.6-.8-1.3Zm-.4-24.9.7,1.4,6.6-7.6-.7-1.4Zm-2.6-100.4.3,1.7,12-5.6-.3-1.7Zm-.8-25.5.2,1.7,13.6-4.5-.2-1.7Zm20.8,175.9.9,1.1,4.3-7.9-.9-1.1Zm-.5-24.8.8,1.2,5.2-8.1-.8-1.2Zm62-148,.6,1.6,12.8-10.5-.6-1.6Zm-63,98.2.7,1.4,7.5-8.1-.7-1.4Zm2.1,123.8,1,1,3.1-6.8-1-1Zm-.2-24.5,1,1,3.4-7.6-1-1Zm48.7-48.7,1,1,4.4-9.5-1-1Zm17.5,73.9,1.1.7,2.1-7.9-1.1-.7Zm-.5-49,1,.8,3.1-9.4-1-.8Zm-21.1-174.3.5,1.6,13-9.3-.5-1.6Zm21.5,198.9,1.1.7,2.3-8.8-1.1-.7Zm-19.1-123.8.8,1.4,8-10.3-.8-1.4Zm-.7-24.9.7,1.5,9.5-10.2-.7-1.5Zm-.8-25.1.6,1.5,11.2-9.9-.6-1.5Zm18,50.4.8,1.3,7.7-11-.8-1.3Zm-.7-24.8.7,1.4,9.2-11.1-.7-1.4Zm-15.2,49.3.8,1.3,6.7-10.1-.8-1.3Zm14.4-74.3.6,1.5,10.9-10.9-.6-1.5Zm3.2,124,1,.9,4-10-1-.9Zm-1.1-49.4.9,1.2,6.3-10.8-.9-1.2Zm.6,24.7.9,1.1,5.1-10.4-.9-1.1ZM122.32,847l.5,1.6,11.4-8.8-.5-1.6Zm2.1,75,.8,1.3,7-9.5-.8-1.3Zm.6,24.8.9,1.2,5.8-9.3-.9-1.2Zm-148.7-28.3.3,1.7,8.7-2.9-.3-1.7Zm149.2,53.1.9,1.1,4.7-9.1-.9-1.1Zm-2.4-99.5.6,1.5,9.8-9.3-.6-1.5Zm2.8,124.2,1,1,3.7-8.7-1-1Zm15.6-49.2.9,1.1,5.4-9.9-.9-1.1Zm.9,49.4,1,.9,3.4-9-1-.9Zm.4,24.6,1.1.7,2.6-8.5-1.1-.7Zm-66.4-25.6.9,1.2,4.5-7.4-.9-1.2Zm49.9,25.5,1,.8,2.9-8.2-1-.8Zm-4.9-199.2.4,1.6,13.2-8.1-.4-1.6Zm21.6,223.8,1.1.7,2.3-7.7-1.1-.7Zm-19.2-148.5.7,1.4,8.3-9.5-.7-1.4ZM8.62,894l.3,1.7,9.7-3.7-.4-1.6Zm1.5,75.5.6,1.6,6.3-5.3-.6-1.6Zm66.7,50.8.9,1.1,3.7-7.2-.9-1.1Zm-67.2-75.9.5,1.6,7.4-5-.5-1.6Zm1.5,99.5.7,1.4,4.1-5.1-.7-1.4Zm-.2-24.5.7,1.4,4.6-5.6-.7-1.4Zm-20.6-200.7,13.6,1.5.1-1.8-13.6-1.5Zm20.2,175.8.7,1.5,5.4-5.5-.7-1.5ZM8,868.72l.2,1.7,10.9-2.6-.2-1.8Zm19.3,150.9.8,1.3,4.4-6-.8-1.3Zm-.3-24.9.7,1.4,5.2-6-.7-1.4Zm.6,49.5.8,1.3,3.9-5.4-.8-1.3Zm-20.2-201,.1,1.8,12.3-1.3-.1-1.8ZM-32.48,621l-5.8-3.9-.5,1.6,5.8,3.9Zm25.2,297.9.3,1.7,8.6-3.7-.3-1.7Zm-18.8-100.8,13.4,2.7.2-1.8-13.4-2.7Zm20.8,225.6.7,1.4,4.3-4.7L-1,1039ZM-9,842.62v1.8l12.2-.3v-1.8Zm-15.8,25.1.1,1.8,11-.7-.1-1.8Zm.6,25.5.2,1.8,9.8-2-.2-1.8Zm18.6,125.9.7,1.4,4.8-5.2-.7-1.4Zm-19.8-175.2,12.2.8.1-1.8-12.2-.8Zm17.6,49.7.2,1.7,9.7-2.8-.2-1.7Zm-.6-25.4.1,1.8,11-1.7-.1-1.8Zm2.4,126,.6,1.5,5.6-5-.6-1.5Zm32.5-24.4.6,1.5,6.2-5.9-.6-1.5Zm-33.3-25.7.4,1.7,7.5-4.3-.4-1.7Zm.4,25.1.5,1.6L.62,966l-.5-1.6Zm15.5-49.9.4,1.7,8.5-4.4-.4-1.7Zm50.8,76,.8,1.3,4.8-7-.8-1.3Zm-.9-49.8.7,1.5,6.8-6.9-.7-1.5Zm1.3,74.6.9,1.2,3.9-6.8-.9-1.2Zm-.8-49.7.7,1.4,5.7-7-.7-1.4Zm-20.1-151.7.1,1.8,13.7-2.1-.1-1.8Zm21.1,225.9.9,1.2,3.5-6.1-.9-1.2Zm-4-199.8.3,1.7,12.1-4.6-.3-1.7Zm-.7-25.5.2,1.8,13.7-3.3-.2-1.8Zm-15.7,24.9.2,1.7,12.2-3.5-.2-1.7ZM77,1044.82l.9,1.1,3.3-6.5-.9-1.1Zm-19.2-149.4.5,1.6,9.2-6.2-.5-1.6Zm-.6-25.3.4,1.7,10.6-5.5-.4-1.7Zm1.2,50.4.6,1.6,8-6.7-.6-1.6Zm-32.9-.8.4,1.6,8.3-5.2-.4-1.6Zm-1.8-76,.1,1.8,12.3-2.4-.1-1.8Zm-.7-25.6v1.8l13.7-.9v-1.8Zm1.4,51.1.3,1.7,10.9-3.6-.3-1.7ZM44,1044.42l.8,1.2,3.7-5.8-.8-1.2Zm-18-99.6.5,1.6,7.2-5.6-.5-1.6Zm-1-50.3.3,1.7,9.5-4.5-.3-1.7Zm18.8,125.4.8,1.2,4.2-6.4-.8-1.2ZM42,920.12l.5,1.6,8.2-5.9-.5-1.6Zm-.6-25.2.4,1.7,9.4-5.4-.4-1.7Zm1.1,50.2.6,1.5,7-6.3-.6-1.5Zm.5,25,.7,1.4,6-6.5-.7-1.4Zm-2.2-100.5.3,1.7,10.8-4.6-.3-1.7ZM43.42,995l.8,1.3,5-6.5-.8-1.3Z"/></g></g><rect class="cls-5" x="41" y="42.5" width="415" height="415"/><g class="cls-2"><g class="cls-6"><path class="cls-7" d="M161.9,117.1l-3.9-9.6-1,.9,3.9,9.6Zm.5,24.9-4.9-10-.9,1.1,4.9,10Zm-1.2-74.9-2.3-8.7-1.1.7,2.3,8.7Zm-.1-25.3L159,34l-1.1.7,2.1,7.9Zm1.8,125.1-6-10.2-.9,1.2,6,10.2Zm-1.4-74.8-3-9.2-1,.8,3,9.2Zm2.6,124.4-8.5-10.3-.7,1.4,8.5,10.3ZM144.5-33.8l-1.7-5.7-1.1.7,1.7,5.7Zm21.1,299.6L154,256.3l-.6,1.6,11.6,9.5ZM144.6-8.7,142.7-15l-1.1.7L143.5-8Zm18.9,200.5-7.2-10.3-.8,1.3,7.2,10.3Zm1.3,49.4-10-10-.6,1.5,10,10ZM161,16.6l-1.9-7.2-1.1.7,1.9,7.2Zm-.2-50.3-1.5-5.9-1.1.7,1.5,5.9Zm17,126-2.7-9.5-1.1.7,2.7,9.5Zm.8,50L174,131.8l-1,1,4.6,10.5Zm-.4-25-3.6-10-1,.8,3.6,10Zm-.8-50.1-2-8.9-1.1.6,2,8.9ZM177.3,42l-1.8-8.1-1.1.6,1.8,8.1Zm-.1-25.2-1.6-7.4-1.1.6,1.6,7.4ZM180.4,217l-8.2-11.1-.8,1.3,8.2,11.1Zm1.5,49.3-11.3-10.6-.6,1.5,11.3,10.6Zm-.8-24.6-9.7-10.9-.7,1.4,9.7,10.9ZM144.7,16.5l-2.1-6.9-1.1.7,2.1,6.9Zm34.5,150.8-5.7-10.8-.9,1.1,5.7,10.8Zm.5,24.9-6.9-11-.8,1.2,6.9,11ZM160.9-8.5,159.2-15l-1.1.7,1.7,6.5ZM146.1,141.7l-5.2-9.5-.9,1.1,5.2,9.5ZM130.9,191l-7.8-8.9-.7,1.4,7.8,8.9Zm.7,24.6-9.1-8.6-.6,1.5,9.1,8.6Zm-1.2-49.3-6.6-9-.8,1.3,6.6,9Zm1.8,73.9-10.5-8.1-.5,1.6,10.5,8.1ZM128.6,66.7l-2.8-8.1-1,.8,2.8,8.1Zm.8,49.9-4.5-8.7L124,109l4.5,8.7Zm.5,24.8-5.5-8.9-.9,1.2,5.5,8.9Zm-17.2-50-3.9-8.1-.9,1,3.9,8.1Zm32.1-49.7-2.3-7.6-1.1.7,2.3,7.6ZM112.4,66.5l-3.1-7.8-1,.9,3.1,7.8Zm-.3-50.4-2.6-6.4-1,.9,2.6,6.4Zm.1,25.2-2.8-7.1-1,.9,2.8,7.1ZM112-9l-2.3-5.8-1,.9L111-8.1Zm-.1-25.1-2.1-5.3-1,.9,2.1,5.3Zm21,298.7-12-7.4-.4,1.6,12,7.4Zm12.8-147.8-4.2-9.2-1,1,4.2,9.2ZM177.2-8.4l-1.5-6.7-1.1.6,1.5,6.7Zm-30.5,175-6.3-9.6-.8,1.3,6.3,9.6Zm-1.8-99.7-2.6-8.4-1.1.7,2.6,8.4Zm2.3,124.5-7.5-9.6-.8,1.4,7.5,9.6Zm-1.9-99.5L142,83.1l-1,.9,3.3,8.8Zm3.2,148.8-10.3-9.1-.6,1.5,10.3,9.1ZM128.3-8.8l-2.1-6.1-1,.8L127.3-8Zm.1,25.1L126,9.6l-1,.8,2.4,6.7Zm-.2-50.2-1.9-5.5-1,.8,1.9,5.5Zm21.1,299.1-11.8-8.4-.5,1.6,11.8,8.4ZM128.5,41.5l-2.6-7.4-1,.8,2.6,7.4Zm19.3,174.6-8.8-9.4-.7,1.5,8.8,9.4ZM129,91.6l-3.6-8.5-1,1,3.6,8.5ZM226-8l-.8-7.2-1.2.3.8,7.2Zm0-25.2-.7-6.5-1.2.3.7,6.5Zm.1,75.6-.9-8.7L224,34l.9,8.7ZM226,17.2l-.8-7.9-1.2.3.8,7.9Zm20.8,251.2-10-14.6-.8,1.3,10,14.6Zm-1.5-49.8-6.7-14-.9,1,6.7,14ZM177.1-33.5l-1.3-6.1-1.1.6,1.3,6ZM226.9,118l-2.5-11.1-1.1.6,2.5,11.1Zm-.8-50.3-1-9.6-1.2.3,1,9.6Zm1.2,75.4-3.5-11.8-1.1.7,3.5,11.8Zm1.1,50.1-5.8-12.9-1,1,5.8,12.9Zm-.6-25-4.6-12.4-1,.9,4.6,12.4Zm16.8,25.4-5.4-13.5-1,.9,5.4,13.5ZM226.5,92.9l-1.7-10.3-1.1.4,1.7,10.3Zm35,126.1-6.3-14.7-1,1,6.3,14.7Zm.7,25-7.8-15.2-.9,1.1,7.8,15.2ZM242.3-7.9l-.5-7.3-1.2.2.5,7.3Zm0-25.2-.5-6.6-1.2.2.5,6.6Zm20.7,302-9.5-15.5-.9,1.2,9.5,15.5Zm-2.2-75-4.9-14.1-1,.8,4.9,14.1Zm-31.7,24.3L222,204.9l-1,1.1,7.1,13.3Zm14.4-74.9-3.1-12.2-1.1.6,3.1,12.2ZM242.7,93l-1.4-10.6-1.1.3,1.4,10.6Zm.4,25.2-2.2-11.4-1.1.5,2.2,11.4Zm-.8-100.9-.6-8-1.2.2.6,8ZM244,168.5l-4.1-12.9-1.1.8,4.1,12.9ZM242.4,67.8l-.7-9.7-1.2.2.7,9.7Zm-.1-25.2-.6-8.8-1.2.2.6,8.8ZM246,243.5l-8.3-14.4-.9,1.2,8.3,14.4ZM193.7,67.4,192,58.2l-1.1.5,1.7,9.2Zm-.1-25.2-1.5-8.3-1.1.5,1.5,8.3Zm.4,50.3-2.4-9.8-1.1.6,2.4,9.8Zm-.5-75.6-1.4-7.6-1.1.5,1.4,7.6Zm-.1-50.3-1.1-6.3-1.1.5,1.1,6.3Zm21,300.8-10.7-12.6-.7,1.4,10.7,12.6ZM193.5-8.2l-1.2-6.9-1.1.5,1.2,6.9Zm.9,125.8-3.2-10.4-1.1.8,3.2,10.4Zm2.9,124.6-9.4-11.8-.7,1.4,9.4,11.8Zm.8,24.6-11-11.6-.7,1.5,11,11.6Zm-1.5-49.4-7.9-11.8-.8,1.3,7.9,11.8Zm-.6-24.9-6.5-11.7-.9,1.1,6.5,11.7Zm-.6-24.9-5.3-11.4-1,1,5.3,11.4Zm34.4,75.5-8.7-13.6-.8,1.2,8.7,13.6ZM194.9,142.6l-4.2-10.9-1,.9,4.2,10.9ZM209.8,17.1l-1.1-7.7-1.1.4,1.1,7.7Zm0,25.2-1.2-8.5-1.1.4,1.2,8.5Zm-.1-50.4-1-7-1.1.4,1,7Zm0-25.2-.9-6.4-1.1.4.9,6.4Zm.2,100.9-1.3-9.4-1.1.4,1.3,9.4Zm20.7,200.3-10.4-13.6-.8,1.3,10.4,13.6Zm-18.4-75L206,180.6l-.9,1.1,6.2,12.3Zm1.4,49.7-9-12.7-.8,1.3,9,12.7ZM210.2,92.7l-2.1-10.1-1.1.5,2.1,10.1Zm2.7,125.1-7.5-12.6-.9,1.2L212,219Zm-1.3-49.9L206.7,156l-1,.9,4.9,11.9Zm-1-50.1-2.9-10.7-1.1.7,2.9,10.7Zm.5,25.1-3.8-11.4-1,.8,3.8,11.4ZM1.8,262l-.1-1.8-12.3,1.4.1,1.8ZM14.9,89.9,9.6,84.5,9,85.9l5.3,5.4Zm-.3-24.8-4.5-5.5L9.3,61l4.5,5.5Zm1.1,74.1-7-4.8L8.2,136l7,4.8Zm-.4-24.7-6.1-5.2-.6,1.6,6.1,5.2ZM13.9-35.1l-3.1-3.8-.7,1.4,3.1,3.8Zm.1,25-3.4-4.2-.7,1.4,3.4,4.2ZM14.2,15l-3.7-4.6-.7,1.4,3.7,4.6Zm.2,25-4.1-5-.7,1.4,4.1,5Zm3.8,222.5v-1.8L5.7,261v1.8Zm-2-98.8-8-4.2-.4,1.7,8,4.2ZM-2.5-35.3l-3.2-3.5-.7,1.4,3.2,3.5Zm20.1,272L6.3,235.5l-.1,1.8,11.3,1.2Zm-1-48.6-9.1-3.4-.3,1.7,9.1,3.4Zm.5,24.3L7,210l-.2,1.8,10.1,2.4ZM34,237.2,22.8,235l-.1,1.8L33.9,239ZM30.7,40.3l-3.9-5.4L26,36.2l3.9,5.4Zm.2,25.1-4.3-5.9-.8,1.3,4.3,5.9Zm.4,24.7-5.1-5.9-.7,1.4,5.1,5.9Zm-.8-74.9L27,10.3l-.8,1.3,3.6,4.9ZM30.4-9.9l-3.2-4.5L26.3-13l3.2,4.5Zm-.2-25L27.3-39l-.8,1.3,2.9,4.1Zm1.9,174.4-6.9-5.4-.5,1.6,6.9,5.4Zm-.5-24.7-6-5.7-.6,1.5,6,5.7ZM-2.3-10.3l-3.5-3.8-.7,1.4L-3-8.8ZM33,188.5l-8.9-4.2-.3,1.7,8.9,4.2Zm.5,24.4-10.1-3.3-.3,1.7,10.1,3.3Zm1.1,48.4-12.5-.8v1.8l12.5.8Zm-2.1-97.2-7.9-4.9-.4,1.6,7.9,4.9ZM-.6,138.8l-7.2-4.1-.4,1.7,7.2,4.1Zm-16,24.1-8.2-2.8-.3,1.7,8.2,2.8Zm.4,24.4-9.2-1.8-.2,1.8,9.2,1.8Zm-.8-48.8-7.3-3.5-.4,1.7,7.3,3.5Zm-1.1-73.8L-23,60l-.6,1.5,4.9,4.7Zm.7,49.2-6.4-4-.4,1.6,6.4,4Zm1.7,97.7-10.2-.7-.1,1.8,10.2.7Zm-2-122.3-5.6-4.4-.5,1.6,5.6,4.4Zm-17-49.9-4.5-3.9-.6,1.5,4.5,3.9Zm-.3-50-3.8-3.2-.6,1.5,3.8,3.2Zm.1,25L-39,10.9l-.6,1.5,4.1,3.5Zm16.6,25.2-4.4-4.3-.6,1.5,4.4,4.3Zm3.7,221.8-.2-1.8L-27,262l.2,1.8Zm-20.6-297-3.4-2.9-.6,1.5,3.4,2.9Zm20,273.1-.1-1.8-11.2.7.1,1.8ZM.2,187.7l-9.1-2.6-.2,1.7L0,189.4ZM-1,114.2l-6.3-4.6-.5,1.6,6.3,4.6ZM51,261.8,38.6,260l-.1,1.8L51,263.7ZM-1.4,89.6l-5.5-4.9-.6,1.5L-2,91.1Zm-.3-24.7-4.7-5.1-.7,1.4,4.7,5.1ZM-18.5,14.6l-4-3.9-.6,1.5,4,3.9ZM-2,39.8l-4.3-4.6L-7,36.6l4.3,4.6ZM-.2,163.3l-8.1-3.5-.3,1.7L-.5,165Zm-2-148.5L-6,10.6-6.7,12l3.9,4.2ZM-18.9-35.4l-3.3-3.2-.6,1.5,3.3,3.2Zm.2,25-3.6-3.5-.6,1.5,3.6,3.5ZM260.2,168.7l-3.7-13.3-1.1.7,3.7,13.3ZM.7,212l-10.2-1.6-.1,1.8L.6,213.8Zm.5,24.2L-10,236v1.8l11.2.2ZM79.3-9.3l-2.7-5.3-.9,1.1,2.7,5.3Zm20.9,272.8-12.3-5.2-.3,1.7,12.3,5.2ZM79.2-34.4l-2.5-4.8-.9,1.1,2.5,4.8ZM99.6,239.2,88.7,233l-.4,1.7,10.9,6.2Zm-.7-24.5-9.5-6.9-.5,1.6,9.5,6.9Zm-48.4,23-11.2-3.2-.2,1.7,11.2,3.2Zm47.8-47.5L90,182.8l-.6,1.5,8.3,7.4Zm14.8-73.9-4.8-8.3-.9,1.2,4.8,8.3ZM97.3,140.8l-6-7.8-.8,1.3,6,7.8ZM80.6,115.7l-5.3-7.3-.8,1.3,5.3,7.3Zm.4,24.8-6.3-7.2-.7,1.4,6.3,7.2Zm.5,24.7-7.3-7-.6,1.5,7.3,7ZM79.6,40.9l-3.3-6.4-.9,1.1L78.7,42Zm-.1-25.1-3-5.9L75.6,11l3,5.9Zm.3,50.3L76.2,59l-.9,1.1,3.6,7.1Zm.4,24.8-4.4-7.2-.9,1.2,4.4,7.2Zm35.1,124.3-9.3-7.7-.6,1.6,9.3,7.7Zm.6,24.5-10.7-7.1-.5,1.6,10.7,7.1Zm-1.2-49.1-8-8.1-.6,1.5,8,8.1Zm-.6-24.7-6.9-8.3-.7,1.4,6.9,8.3Zm2.5,98.2-12.2-6.3-.4,1.7,12.2,6.3Zm-3-123-5.8-8.4L107,134l5.8,8.4ZM95.7-9.2l-2.5-5.6-1,1,2.5,5.6Zm.4,75.5-3.4-7.4-1,1,3.4,7.4Zm-.2-25.2-3.1-6.8-1,1,3.1,6.8Zm.6,50.1-4.2-7.7-.9,1.1,4.2,7.7Zm.4,24.8-5.1-7.8-.8,1.2,5.1,7.8ZM95.6-34.3l-2.3-5.1-1,1,2.3,5.1ZM95.8,16,93,9.8l-1,1,2.8,6.1Zm2,149.5-7.1-7.7-.7,1.4,7.1,7.7ZM82,189.8l-8.5-6.6-.5,1.6,8.5,6.6ZM47,40.5l-3.7-5.8L42.5,36l3.7,5.8ZM46.7-9.7l-3.1-4.8-.8,1.2,3.1,4.8ZM67.5,262.4l-12.5-3-.2,1.8,12.5,3Zm-1.2-48.6-9.9-5.1-.4,1.7,9.9,5.1Zm.5,24.4L55.7,234l-.3,1.7,11.1,4.2ZM47.2,65.6l-4.1-6.3-.8,1.2,4.1,6.3ZM46.6-34.8l-2.8-4.3L43-37.9l2.8,4.3Zm2.3,199.2-7.7-5.6-.5,1.6,7.7,5.6Zm.5,24.5-8.8-5-.4,1.7,8.8,5Zm.5,24.5-10-4.2-.3,1.7,10,4.2Zm-2.3-123L42.7,84l-.8,1.3,4.9,6.4Zm.8,49.4-6.7-6-.6,1.5,6.7,6ZM48,115.1l-5.8-6.2-.7,1.4,5.8,6.2ZM46.9,15.4l-3.4-5.2-.8,1.2,3.4,5.2Zm16-50-2.6-4.6L59.4-38,62-33.4ZM63-9.5l-2.9-5-.9,1.2,2.9,5Zm.2,25.1L60,10l-.9,1.2,3.2,5.6ZM83.9,262.9l-12.4-4.1-.2,1.7,12.4,4.1Zm-1.3-48.6-9.7-6-.4,1.6,9.7,6ZM65.7,189.4,57,183.6l-.5,1.6,8.7,5.8Zm17.5,49.3-11-5.2-.3,1.7,11,5.2ZM64.7,140.2l-6.5-6.6-.7,1.5,6.5,6.6Zm.5,24.6-7.5-6.3-.6,1.6,7.5,6.3Zm-.9-49.4-5.5-6.8L58,110l5.5,6.8Zm-1-74.7-3.5-6.1-.9,1.2,3.5,6.1Zm.6,50-4.7-6.8-.8,1.3L63.1,92Zm-.4-24.9-3.9-6.7-.9,1.2L62.6,67Zm475.9,45.4-.5-1.6-6.3,4.6.5,1.6Zm-80.2,98.7-.4-1.6-9.7,6,.4,1.6Zm.6,25.3-.3-1.7-11,5.2.3,1.7Zm.6,25.4-.2-1.7L447.8,263l.2,1.7Zm-1.8-75.9-.5-1.6-8.5,6.6.5,1.6Zm-1.5-74.9-.8-1.3-5.3,7.3.8,1.3Zm.5,24.9-.7-1.4-6.3,7.2.7,1.4Zm.5,25-.6-1.5-7.3,7,.6,1.5ZM440.2,84.6l-.9-1.1-4.2,7.7.9,1.1Zm-.9-122.9-1-1L436-34.2l1,1Zm.4,73.6-1-1-3.1,6.8,1,1Zm17,49.6-.9-1.2-4.4,7.2.9,1.2ZM439.9,59.8l-1-1-3.4,7.4,1,1Zm-.5-73.5-1-1-2.5,5.6,1,1Zm.2,24.5-1-1-2.8,6.1,1,1ZM475,185.2l-.5-1.6-8.7,5.8.5,1.6Zm-.5-25.2-.6-1.6-7.5,6.3.6,1.6Zm-.5-25-.7-1.5-6.5,6.6.7,1.5Zm-33.4-25.5-.8-1.2-5.1,7.8.8,1.2Zm32.6-24.4-.8-1.3-4.7,6.8.8,1.3Zm-.4-24.8-.9-1.2L468,65.8l1,1.2Zm2.8,150.1-.4-1.7-9.9,5.1.4,1.7ZM455.8-38.2l-.9-1.1-2.5,4.8.9,1.1ZM456,11l-.9-1.1-3,5.9.9,1.1Zm20.2,224.7-.3-1.7-11.1,4.2.3,1.7Zm-20-200.2-.9-1.1L452,40.8l.9,1.1Zm-.3-49.1-.9-1.1-2.7,5.3.9,1.1Zm.5,73.7-.9-1.1-3.6,7.1.9,1.1Zm20.4,201.1-.2-1.8-12.5,3,.2,1.8ZM473.6,110l-.7-1.4-5.5,6.8.7,1.4Zm-46,149.5-.4-1.7L415,264.1l.4,1.7ZM406.4-38.6l-1-.8-1.9,5.5,1,.8Zm.1,24.5-1-.8-2.1,6.1,1,.8Zm34.6,148.5-.8-1.3-6,7.8.8,1.3Zm-15.5,49.5-.6-1.5-8,8.1.6,1.5Zm-16.5-.4-.7-1.4-7.8,8.9.7,1.4Zm17.8,50.7-.5-1.6-10.7,7.1.5,1.6ZM406.8,59.4l-1-.8L403,66.7l1,.8Zm1.3,74.3-.9-1.2-5.5,8.9.9,1.2Zm.5,24.9-.8-1.3-6.6,9,.8,1.3Zm-1-49.7-.9-1.1-4.5,8.7.9,1.1ZM406.7,35l-1-.8-2.6,7.4,1,.8Zm.5,49.2-1-1-3.6,8.5,1,1Zm17.9,74.7-.7-1.4-6.9,8.3.7,1.4ZM406.6,10.5l-1-.8-2.4,6.7,1,.8Zm36.1,199-.5-1.6-9.5,6.9.5,1.6Zm.6,25.2-.4-1.7L432,239.2l.4,1.7Zm.7,25.4-.3-1.7-12.3,5.2.3,1.7ZM424.6,134l-.8-1.3-5.8,8.4.8,1.3Zm17,25.3-.7-1.4-7.1,7.7.7,1.4Zm.5,25-.6-1.5-8.3,7.4.6,1.5ZM422.9-38.5l-1-.9-2.1,5.3,1,.9Zm.8,122.9-.9-1-3.9,8.1.9,1Zm-.3-24.8-1-.9-3.1,7.8,1,.9Zm.7,49.6-.9-1.2-4.8,8.3.9,1.2ZM423-13.9l-1-.9L419.6-9l1,.9Zm.2,49-1-.9-2.8,7.1,1,.9Zm-.1-24.5-1-.9-2.6,6.4,1,.9ZM426.2,209l-.6-1.6-9.3,7.7.6,1.6ZM522.3,61l-.7-1.4-4.5,5.5.7,1.4Zm.3,24.9-.7-1.5-5.3,5.4.7,1.5Zm.4,25-.6-1.6-6.1,5.2.6,1.6Zm.4,25.1-.5-1.6-7,4.8.5,1.6ZM521.7-12.8l-.7-1.4L517.6-10l.7,1.4Zm.2,24.6-.7-1.4L517.5,15l.7,1.4Zm.2,24.6-.7-1.4-4.1,5,.7,1.4Zm2.7,175.4-.2-1.8-10.1,2.4.2,1.8Zm.5,25.4-.1-1.8-11.3,1.2.1,1.8Zm.6,23.8-12.4-.3v1.8l12.4.3ZM505.1-37.7l-.8-1.3-2.9,4.1.8,1.3Zm19.2,224.1-.3-1.7-9.1,3.4.3,1.7ZM521.5-37.5l-.7-1.4-3.1,3.8.7,1.4Zm2.3,198.7-.4-1.7-8,4.2.4,1.7ZM-34.4,64.4l-5-4.2-.6,1.5,5,4.2Zm294.1,79.2L257,131.1l-1.1.5,2.7,12.5Zm278.8-107-.7-1.4-4.3,4.6.7,1.4Zm.2,24.6-.7-1.4-4.7,5.1.7,1.4ZM538.3,12l-.7-1.4-3.9,4.2.7,1.4Zm-.2-24.7-.7-1.4-3.5,3.8.7,1.4ZM538-37.3l-.7-1.4-3.2,3.5.7,1.4Zm1.1,123.5-.6-1.5L533,89.6l.6,1.5Zm2.1,126-.1-1.8L530.9,212l.1,1.8Zm.5,25.5v-1.8l-11.2.2v1.8Zm-1-50.9-.2-1.7-9.1,2.6.2,1.7Zm-.9-50.5-.4-1.7-7.2,4.1.4,1.7ZM505.3-13l-.8-1.3-3.2,4.5.8,1.3Zm35,174.5-.3-1.7-8.1,3.5.3,1.7Zm-50.2-51.2-.7-1.4-5.8,6.2.7,1.4Zm.4,25-.6-1.5-6.7,6,.6,1.5Zm.5,25.1-.5-1.6-7.7,5.6.5,1.6ZM472.7,35.8l-.9-1.2-3.5,6.1.9,1.2Zm16.4.2-.8-1.2-3.7,5.8.8,1.2Zm.2,24.5-.8-1.2-4.1,6.3.8,1.2Zm2.2,125.1-.4-1.7-8.8,5,.4,1.7ZM489.7,85.4l-.8-1.3L484,90.5l.8,1.3ZM492,210.8l-.3-1.7-10,4.2.3,1.7ZM472.2-38l-.9-1.2-2.6,4.6.9,1.2Zm.3,49.2-.9-1.2-3.2,5.6.9,1.2Zm-.1-24.6-.9-1.2-2.9,5,.9,1.2Zm20.2,249.6-.2-1.7-11.2,3.2.2,1.7Zm.6,25.5L493,260l-12.5,1.9.1,1.8Zm16.3.6v-1.8l-12.5.8v1.8Zm-3-151.7-.6-1.5-6,5.7.6,1.5Zm.5,25.1-.5-1.6-6.9,5.4.5,1.6Zm-.9-50-.7-1.4-5.1,5.9.7,1.4Zm1.3,75.1-.4-1.6-7.9,4.9.4,1.6ZM505.6,36.2l-.8-1.3-3.9,5.4.8,1.3Zm.2,24.5-.8-1.3-4.3,5.9.8,1.3ZM507.9,186l-.3-1.7-8.9,4.2.3,1.7ZM505.4,11.6l-.8-1.3L501,15.2l.8,1.3ZM488.7-37.8l-.8-1.2-2.8,4.3.8,1.2Zm.3,49.2-.8-1.2-3.4,5.2.8,1.2Zm-.2-24.6-.8-1.2-3.1,4.8.8,1.2Zm20.1,249.9-.1-1.8-11.2,2.2.1,1.8Zm-.5-25.4-.3-1.7L498,212.9l.3,1.7Zm33.8,50.3-12.3-1.4-.1,1.8,12.3,1.4ZM308.8,132.1l-1.1-.7-3.5,11.8,1.1.7Zm.5,24.6-1-.9-4.6,12.4,1,.9Zm.6,24.6-1-1-5.8,12.9,1,1ZM307.6,58.4l-1.2-.3-1,9.6,1.2.3Zm.8,49.1-1.1-.6L304.8,118l1.1.6Zm2.2,98.5-.9-1.1-7.1,13.3.9,1.1Zm-3-172-1.2-.3-.9,8.7,1.2.3Zm.4,49-1.1-.4-1.7,10.3,1.1.4ZM291,9.5l-1.2-.2-.6,8,1.2.2Zm.1,24.4-1.2-.2-.6,8.8,1.2.2ZM291-15l-1.2-.2-.5,7.3,1.2.2Zm21.1,270.7-.8-1.3L301,267.9l.8,1.3Zm-.8-24.9-.8-1.2-8.7,13.6.8,1.2ZM291-39.5l-1.2-.2-.5,6.6,1.2.2Zm37.7,295.7-.7-1.4-10.7,12.6.7,1.4Zm-3.8-148.5-1.1-.7-2.9,10.7,1.1.7Zm.5,24.6-1-.8-3.8,11.4,1,.8Zm-.9-49.2-1.1-.5-2.1,10.1,1.1.5Zm1.4,73.9-1-.9L320,168l1,.9ZM324.1,34.1l-1.1-.4-1.2,8.5,1.1.4ZM307.5,9.6l-1.2-.3-.8,7.9,1.2.3Zm16.7,49-1.1-.4-1.3,9.4,1.1.4Zm-16.7-98-1.2-.3-.7,6.5,1.2.3ZM291.1,58.3l-1.2-.2-.7,9.7,1.2.2ZM409.8,208.6l-.6-1.5-9.1,8.6.6,1.5Zm-83.3-27-.9-1.1-6.2,12.3.9,1.1Zm1.4,49.6-.8-1.3-9,12.7.8,1.3Zm-.8-24.8-.9-1.2-7.5,12.6.9,1.2ZM274.5,58.2l-1.2-.1L273,68l1.2.1Zm3.6,171.7-.9-1.1L269.4,244l.9,1.1Zm-.7-24.7-1-1-6.3,14.7,1,1Zm1.6,49.4-.9-1.2-9.5,15.5.9,1.2Zm-2.2-73.9-1-.8L270.9,194l1,.8Zm-1.1-49.1-1.1-.5-2.7,12.5,1.1.5ZM258.5-33l-.2-6.7-1.2.1.2,6.7Zm17.7,189.1-1.1-.7-3.7,13.3,1.1.7Zm-16.9-37.7-1.8-11.7-1.1.4,1.8,11.7Zm-.4-25.2-1-10.8-1.2.2,1,10.8ZM258.6,68l-.3-9.9-1.2.1.3,9.9Zm16.6,39.1-1.1-.4-1.8,11.7,1.1.4ZM258.6,17.4l-.3-8.2-1.2.1.3,8.2Zm0,25.3-.3-9-1.2.1.3,9Zm-.1-50.5-.3-7.4-1.2.1.3,7.4Zm16.3,90.4-1.2-.2-1,10.8,1.2.2ZM293.3,181l-1-.9-5.4,13.5,1,.9Zm1.4,49.3-.9-1.2-8.3,14.4.9,1.2Zm-1.9-73.9-1.1-.8-4.1,12.9,1.1.8Zm1.2,49.2-.9-1-6.7,14,.9,1Zm-1.8-73.8-1.1-.6L288,143.4l1.1.6Zm-.8-49-1.1-.3L288.9,93l1.1.3Zm.4,24.5-1.1-.5-2.2,11.4,1.1.5ZM274.5,33.8l-1.2-.1-.3,9,1.2.1ZM324.1,9.7,323,9.3,321.9,17l1.1.4Zm-49.6-.3-1.2-.1-.3,8.2,1.2.1Zm0-49-1.2-.1-.2,6.7,1.2.1Zm21,294.7-.8-1.3-10,14.6.8,1.3Zm-21-270.2-1.2-.1L273-7.8l1.2.1Zm33,.2-1.2-.3L305.6-8l1.2.3Zm66.1,25-1.1-.7-1.9,7.2,1.1.7Zm.6,73.6-1-.8-3,9.2,1,.8Zm-.4-24.6-1.1-.7-2.3,8.7,1.1.7Zm-.1-24.5-1.1-.7-2.1,7.9,1.1.7Zm21,223.8-.5-1.6-11.8,8.4.5,1.6ZM373.5-14.4l-1.1-.7-1.7,6.5,1.1.7Zm-.1-24.5-1.1-.7-1.5,5.9,1.1.7ZM324-14.8l-1.1-.4-1,7,1.1.4Zm52.1,197.5-.8-1.3-7.2,10.3.8,1.3Zm.7,25-.7-1.4-8.5,10.3.7,1.4Zm.6,25-.6-1.5-10,10,.6,1.5Zm-1.9-74.8-.9-1.2-6,10.2.9,1.2Zm-.5-24.8-.9-1.1-4.9,10,.9,1.1Zm-.4-24.7-1-.9-3.9,9.6,1,.9Zm18,74.7-.8-1.4-7.5,9.6.8,1.4ZM389.9-38.8l-1.1-.7-1.7,5.7,1.1.7Zm.1,24.6-1.1-.7L387-8.7l1.1.7Zm3.3,222.3-.7-1.5-8.8,9.4.7,1.5ZM390.1,10.3,389,9.5l-2.1,6.9,1.1.7Zm21,248.6-.4-1.6-12,7.4.4,1.6Zm-.7-25.2-.5-1.6-10.5,8.1.5,1.6ZM390.2,34.8l-1.1-.7-2.3,7.6,1.1.7Zm1.9,123.4-.8-1.3-6.3,9.6.8,1.3Zm-.5-24.8-.9-1.1-5.2,9.5.9,1.1Zm-1.3-74.2-1.1-.7-2.6,8.4,1.1.7ZM378.2,257.8l-.6-1.6L366,265.7l.6,1.6ZM390.7,83.9l-1-.9-3.3,8.8,1,.9Zm.4,24.8-1-1-4.2,9.2,1,1Zm2.8,124.5-.6-1.5L383,240.8l.6,1.5ZM340.7,58.7l-1.1-.5-1.7,9.2,1.1.5Zm.4,24.6-1.1-.6-2.4,9.8,1.1.6Zm.8,49.3-1-.9-4.2,10.9,1,.9ZM357-39.1l-1.1-.6-1.3,6.1,1.1.6ZM340.6,9.8l-1.1-.5-1.4,7.6,1.1.5Zm.1,24.5-1.1-.5-1.5,8.3,1.1.5Zm1.8,123-1-1-5.3,11.4,1,1Zm1.9,74.4-.7-1.4-9.4,11.8.7,1.4Zm.8,25-.7-1.5-11,11.6.7,1.5ZM324-39.3l-1.1-.4-.9,6.4,1.1.4ZM343,182l-.9-1.1-6.5,11.7.9,1.1ZM340.5-14.7l-1.1-.5-1.2,6.9,1.1.5Zm3.2,221.5-.8-1.3L335,217.3l.8,1.3Zm-2.2-98.9-1.1-.8-3.2,10.4,1.1.8Zm15.8-49-1.1-.6-2,8.9,1.1.6Zm-.1-24.5-1.1-.6-1.8,8.1,1.1.6Zm.4,49.1-1.1-.7-2.7,9.5,1.1.7ZM357.1,10,356,9.4l-1.6,7.4,1.1.6Zm.9,98.2-1-.8-3.6,10,1,.8ZM357-14.5l-1.1-.6-1.5,6.7,1.1.6Zm4.7,271.8-.6-1.5-11.3,10.6.6,1.5Zm-.8-25.1-.7-1.4-9.7,10.9.7,1.4Zm-.7-25-.8-1.3L351.2,217l.8,1.3ZM340.5-39.2l-1.1-.5-1.1,6.3,1.1.5Zm19.1,221.6-.8-1.2-6.9,11,.8,1.2Zm-1.1-49.6-1-1-4.6,10.5,1,1Zm.5,24.8-.9-1.1-5.7,10.8.9,1.1ZM270.6,354.1l5.3,15,1-.8-5.3-15Zm16.2.3,5.7,14.4,1-.9-5.7-14.4Zm-.7-25.1,7.3,15.1.9-1L287,328.3Zm-.9-25.1,9,15.7.9-1.2-9-15.7Zm2.2,75.4,4.4,13.6,1.1-.8-4.4-13.6Zm1.1,50.4,2.2,11.8,1.1-.5-2.2-11.8Zm-34.6-86.3,1,1,6.8-15.8-1-1ZM288,404.8l3.2,12.7,1.1-.6-3.2-12.7Zm-3.7-125.5,11,16,.8-1.3-11-16ZM304.2,405l3.6,12.3,1.1-.7-3.6-12.3Zm.5,25.2,2.6,11.5,1.1-.6-2.6-11.5Zm-1.1-50.3,4.8,13.1,1-.9L304.6,379Zm1.5,75.5,1.8,10.6,1.1-.4L306.2,455Zm.4,50.5.9,8.7,1.2-.3-.9-8.7Zm0-25.3,1,9.7,1.2-.3-1-9.7ZM271.3,379.3l3.9,14.1,1.1-.7-3.9-14.1ZM273,480.4l.3,10,1.2-.1-.3-10Zm-.3-25.3,1,11,1.2-.2-1-11Zm.3,50.6.3,9,1.2-.1-.3-9Zm-.7-75.9,1.8,12.1,1.1-.4-1.8-12.1Zm16.9,50.7.7,9.9,1.2-.2-.7-9.9ZM253.1,319.2l.9,1.1,8.5-16.5-.9-1.1Zm-.9-24.7.9,1.2,10.5-17-.9-1.2Zm15.9-15.8,10.5,17,.9-1.2-10.5-17Zm.9,25,8.5,16.5.9-1.1-8.5-16.5Zm20.3,202.1.6,8.9,1.2-.2-.6-8.9ZM271.8,404.5l2.8,13.1,1.1-.5L272.9,404ZM303,354.7l6.2,13.8,1-1L304,353.7Zm-33.1-25.8,6.8,15.8,1-1-6.8-15.8Zm19,126.4,1.4,10.8,1.1-.3L290,455Zm46.5-99.8,7,12.5.9-1.1-7-12.5Zm2.5,125.4,1.7,9.3,1.1-.5-1.7-9.3Zm-1.8-100.4,5.6,12,1-1-5.6-12Zm-1.4-50,8.5,12.8.8-1.3-8.5-12.8Zm2.9,125.3,2.5,10,1.1-.6-2.5-10Zm-.5-25.1,3.4,10.8,1.1-.8-3.4-10.8Zm-.5-25.1L341,417l1-.9-4.4-11.4Zm-2.8-99.9L344,318.6l.7-1.4-10.2-12.9Zm-31.6,24,7.7,14.4.9-1.1-7.7-14.4ZM353.8,456l2.8,9.7,1.1-.7-2.8-9.7Zm-.9-50.2,4.8,10.9,1-1-4.8-10.9ZM332.9,281l12.2,12.8.7-1.5-12.2-12.8Zm21.4,225.4,1.8,8.2,1.1-.6-1.8-8.2Zm-.1-25.3,2,9.1,1.1-.6-2-9.1Zm-.8-50.2,3.7,10.4,1-.8-3.7-10.4Zm-32.5-.5,3,11.1,1.1-.7-3-11.1Zm.8,50.4,1.4,9.5,1.1-.4-1.4-9.5Zm-.4-25.2,2.1,10.3,1.1-.5-2.1-10.3Zm.5,50.5,1.2,8.6,1.1-.4-1.2-8.6ZM300.5,279.8l11.4,15,.8-1.3-11.4-15ZM338,506.2l1.5,8.4,1.1-.5-1.5-8.4ZM301.4,304.7l9.4,14.8.8-1.2-9.4-14.8Zm16.2.5,9.9,13.8.8-1.3-9.9-13.8Zm-.9-24.8,11.8,13.9.7-1.4L317.4,279Zm1.8,49.7,8.1,13.6.9-1.2-8.1-13.6Zm1.9,75.2,4,11.9,1-.8-4-11.9Zm-.6-25.1,5.2,12.6,1-.9-5.2-12.6Zm-.6-25.1,6.6,13.1.9-1.1L320.1,354ZM240.5,514.5l1.2.2.6-8.9-1.2-.2ZM186.8,317.2l.7,1.4,10.2-12.9-.7-1.4Zm-.9-24.9.7,1.5L198.8,281l-.7-1.5Zm3.7,123.8,1,.9,4.4-11.4-1-.9Zm17.9,98.2,1.1.4,1.2-8.6-1.1-.4ZM189,391.5l1,1,5.6-12-1-1Zm-1.4-49.4.8,1.3,8.5-12.8-.8-1.3Zm.7,24.7.9,1.1,7-12.5-.9-1.1Zm19.1,123.1,1.1.4,1.4-9.5-1.1-.4Zm-2.5-122.7.9,1.1,6.6-13.1-.9-1.1Zm-1.6-49.5.8,1.3,9.9-13.8-.8-1.3Zm2.3,74.1,1,.9,5.2-12.6-1-.9Zm1.4,73.6,1.1.5,2.1-10.3-1.1-.5Zm-.4-24.5,1.1.7,3-11.1-1.1-.7Zm-.5-24.5,1,.8,4-11.9-1-.8Zm-1.9-73.9.9,1.2,8.1-13.6-.9-1.2Zm-32.4,23.9.8,1.2,7.3-11.7-.8-1.2Zm1.7,74,1,.8,3.7-10.4-1-.8Zm16.6.3,1.1.8,3.4-10.8-1.1-.8ZM173,415.8l1,1,4.8-10.9-1-1Zm1.3,73.8,1.1.6,2-9.1-1.1-.6Zm-.4-24.6,1.1.7,2.8-9.7-1.1-.7Zm-1.5-73.9.9,1.1,6-11.4-.9-1.1Zm18.5,98.7,1.1.5,1.7-9.3-1.1-.5Zm0,24.3,1.1.5,1.5-8.4-1.1-.5Zm-.4-48.9,1.1.6,2.5-10-1.1-.6ZM170.2,316.7l.7,1.4,10.6-11.9-.7-1.4Zm-.9-25,.6,1.5,12.5-11.6-.6-1.5Zm1.7,49.9.8,1.3,8.9-11.9-.8-1.3Zm53,172.8,1.2.3.9-8.7-1.2-.3Zm14.1-146.5,1,.9,5.7-14.4-1-.9Zm-.8-24.6.9,1,7.3-15.1-.9-1Zm-.8-24.6.9,1.2,9-15.7-.9-1.2Zm-.9-24.7.8,1.3,11-16-.8-1.3Zm3.7,122.9,1.1.6,3.2-12.7-1.1-.6Zm-.6-24.5,1.1.8,4.4-13.6-1.1-.8Zm18.4,122.2,1.2.1.3-9-1.2-.1ZM202.4,292.9l.7,1.4,11.8-13.9-.7-1.4Zm53.5,124.2,1.1.5,2.8-13.1-1.1-.5Zm-16.1,24.2,1.1.5,2.2-11.8-1.1-.5Zm15.5-48.6,1.1.7,3.9-14.1-1.1-.7Zm1.4,73.2,1.2.2,1-11-1.2-.2Zm.4,24.4,1.2.1.3-10-1.2-.1Zm-.8-48.8,1.1.4,1.8-12.1-1.1-.4Zm-33.1-.4,1.1.6,2.6-11.5-1.1-.6Zm-.5-24.5,1.1.7,3.6-12.3-1.1-.7Zm-.6-24.5,1,.9,4.8-13.1-1-.9Zm1.5,73.5,1.1.4,1.8-10.6-1.1-.4Zm31.1-97.4,1,.8,5.3-15-1-.8ZM224,490.1l1.2.3,1-9.7-1.2-.3Zm16.2-24.4,1.1.3,1.4-10.8-1.1-.3ZM219,293.4l.8,1.3,11.4-15-.8-1.3Zm133.3,87.4,6,11.4.9-1.1-6-11.4ZM240.5,490.2l1.2.2.7-9.9-1.2-.2Zm-19-122.7,1,1,6.2-13.8-1-1Zm-.8-24.6.9,1.1,7.7-14.4-.9-1.1Zm-.8-24.7.8,1.2,9.4-14.8-.8-1.2Zm147.2,13.3,9.2,11.1.7-1.4-9.2-11.1Zm116,76.9,7,6.3.6-1.5-7-6.3Zm1.3,74.3,4.2,6.4.8-1.2-4.2-6.4Zm-.9-49.6,6,6.5.7-1.4-6-6.5ZM465,334.4l10.6,5.5.4-1.7-10.6-5.5Zm-.7-24.4,12.1,4.6.3-1.7-12.1-4.6Zm-.8-24.1,13.7,3.3.2-1.8-13.7-3.3Zm21.1,222,3.7,5.8.8-1.2-3.7-5.8Zm-.6-50,5,6.5.8-1.3-5-6.5Zm-4.1-171.4,13.7,2.1.1-1.8L480,284.7Zm2.6,97.3,8.2,5.9.5-1.6-8.2-5.9Zm-1.9-73.2,12.2,3.5.2-1.7-12.2-3.5Zm20.3,197.5,3.9,5.4.8-1.3-3.9-5.4Zm-19-148.8,9.4,5.4.4-1.7-9.4-5.4Zm-.6-24.4,10.8,4.6.3-1.7-10.8-4.6Zm-34.2-49.6,13.6,4.5.2-1.7-13.6-4.5ZM500.7,483l4.4,6,.8-1.3-4.4-6ZM448.6,333.9l10.5,6.5.4-1.6L449,332.3Zm-97,22,7.3,11.7.8-1.2-7.3-11.7Zm97.7,2.5,9.1,7,.5-1.6-9.1-7Zm.6,24.6,7.8,7.4.6-1.5-7.8-7.4Zm.5,24.7,6.6,7.6.7-1.4-6.6-7.6Zm17.7,74.8,3.9,6.8.9-1.2-3.9-6.8Zm-1.4-74.4,6.8,6.9.7-1.5-6.8-6.9Zm-.5-24.7,8,6.7.6-1.6-8-6.7Zm1,49.4,5.7,7,.7-1.4-5.7-7Zm1.1,74.9,3.5,6.1.9-1.2-3.5-6.1Zm-2.7-148.9,9.2,6.2.5-1.6-9.2-6.2Zm2.1,98.8,4.8,7,.8-1.3-4.8-7Zm62.2-145.4,12.2.3v-1.8l-12.2-.3ZM-34.1,89.1l-5.8-3.9-.5,1.6,5.8,3.9ZM533.3,483.5l4.8,5.2.7-1.4L534,482ZM542.8,285l-13.6,1.5.1,1.8,13.6-1.5ZM500.3,458.2l5.2,6,.7-1.4-5.2-6Zm13.8-122.3,10.9,2.6.2-1.8-10.9-2.6Zm-.6-24.2,12.3,1.3.1-1.8-12.3-1.3Zm-.7-25.8v1.8l13.7-.3v-1.8Zm20.8,222.7,4.3,4.7.7-1.4-4.3-4.7Zm-3.1-172.3,11,1.7.1-1.8-11-1.7Zm-79.6,96.2,5.5,7.6.8-1.3-5.5-7.6Zm81.6,1.6,6.5,4.8.5-1.6-6.5-4.8ZM531,360.6l9.7,2.8.2-1.7-9.7-2.8Zm1.1,48.9,7.5,4.3.4-1.7-7.5-4.3Zm-.5-24.5,8.6,3.7.3-1.7-8.6-3.7Zm1.3,73.7,5.6,5,.6-1.5-5.6-5Zm-34.6-99,9.5,4.5.3-1.7-9.5-4.5Zm.6,24.5,8.3,5.2.4-1.6-8.3-5.2Zm-1.2-48.8,10.9,3.6.3-1.7L498,333.7Zm2.2,98.1,6.2,5.9.6-1.5-6.2-5.9ZM497,311.1l12.3,2.4.1-1.8-12.3-2.4Zm2.4,97.7,7.2,5.6.5-1.6-7.2-5.6Zm17.2,49.7L522,464l.7-1.5-5.4-5.5Zm-1.4-73.9,8.5,4.4.4-1.7-8.5-4.4Zm1,49.2,6.3,5.3.6-1.6-6.3-5.3Zm-.5-24.7,7.4,5,.5-1.6-7.4-5Zm-19.3-122,13.7.9v-1.8l-13.7-.9Zm20.8,221.2,4.1,5.1.7-1.4-4-5Zm-.2-25.1,4.6,5.6.7-1.4-4.6-5.6ZM447.9,309.5l12,5.6.3-1.7-12-5.6Zm-62.6,96.9,5.4,9.9.9-1.1-5.4-9.9Zm-1.9-74.5,9.5,10.2.7-1.5-9.5-10.2Zm.7,24.8,8,10.3.8-1.4-8-10.3Zm.7,24.8,6.7,10.1.8-1.3-6.7-10.1Zm2,125.2,2.3,7.7,1.1-.7-2.3-7.7Zm-.5-50.3,3.4,9,1-.9-3.4-9Zm-.5-25,4.4,9.5,1-1-4.4-9.5Zm.9,50.1,2.6,8.5,1.1-.7-2.6-8.5Zm-4.1-174.2,11.2,9.9.6-1.5-11.2-9.9Zm20.3,174.3,2.9,8.2,1-.8-2.9-8.2Zm-.8-49.9,4.7,9.1.9-1.1-4.7-9.1Zm.4,24.9,3.7,8.7,1-1-3.7-8.7ZM381.7,282.8l13,9.3.5-1.6-13-9.3Zm21.4,224.1,2.6,7.4,1-.8-2.6-7.4ZM174.4,514l1.1.6,1.8-8.2-1.1-.6Zm196.1-7.5,2.1,7.9,1.1-.7-2.1-7.9ZM349.2,281.6l12.5,11.6.6-1.5-12.5-11.6ZM370,456.2l3.1,9.4,1-.8-3.1-9.4Zm.4,25.1,2.3,8.8,1.1-.7-2.3-8.8Zm-4.9-199.1,12.8,10.5.6-1.6L366,280.6ZM350.9,331l8.9,11.9.8-1.3-8.9-11.9Zm-.8-24.8,10.6,11.9.7-1.4-10.6-11.9Zm51.5,100.6,5.8,9.3.9-1.2-5.8-9.3Zm-32,24.3,4,10,1-.9-4-10Zm-3.3-124.3,10.9,10.9.6-1.5L367,305.3Zm1.6,49.5,7.7,11,.8-1.3-7.7-11Zm.6,24.9,6.3,10.8.9-1.2L369.4,380Zm.6,24.9,5.1,10.4.9-1.1L370,405Zm61.7-121.5,13.5,5.7.3-1.7-13.5-5.7Zm4.3,172.5,4.3,7.9.9-1.1L436,456Zm-.5-24.9,5.2,8.1.8-1.2-5.2-8.1Zm-.5-24.8,6.3,8.2.8-1.3-6.3-8.2Zm1.6,99.9,3.1,6.8,1-1-3.1-6.8Zm-.2-25.2,3.4,7.6,1-1-3.4-7.6Zm-1.9-99.5,7.5,8.1.7-1.4-7.5-8.1ZM452,507.5l3.3,6.5.9-1.1-3.3-6.5ZM433,358l8.8,7.9.6-1.5-8.8-7.9Zm18.4,99.4,4.5,7.4.9-1.2-4.5-7.4ZM401,381.9l7,9.5.8-1.3-7-9.5ZM414.4,284l13.4,6.9.4-1.7-13.4-6.9Zm17.2,24.9,11.9,6.7.4-1.7L432,307.2Zm.7,24.5,10.3,7.4.5-1.6-10.3-7.4Zm19.5,148.9,3.7,7.2.9-1.1-3.7-7.2ZM398.9,307.8l11.4,8.8.5-1.6-11.4-8.8Zm-.8-24.4,13.2,8.1.4-1.6-13.2-8.1Zm21.3,223.7,2.8,7.1,1-.9-2.8-7.1Zm-4.2-198.7,11.7,7.8.5-1.6-11.7-7.8Zm-15.5,24,9.8,9.3.6-1.5-9.8-9.3Zm19.5,149.5,3.2,7.9,1-.9-3.2-7.9ZM400.4,357.1l8.3,9.5.7-1.4-8.3-9.5Zm16.3.4,8.6,8.7.6-1.5-8.6-8.7Zm-.7-24.6,10.1,8.4.6-1.6-10.1-8.4Zm1.3,49.4,7.2,8.8.7-1.4-7.2-8.8Zm.6,24.8,6,8.8.8-1.3-6-8.8Zm.9,49.8,4,8.3.9-1-4-8.3Zm-.4-24.9,5,8.6.9-1.2-5-8.6Zm96.3-71.8,9.7,3.7.3-1.7-9.7-3.7Zm-612.4-149-.3-1.7-9.8,3.6.3,1.7Zm6.9,175.6,8.8.1v-1.8l-8.8-.1Zm-1.1-51.1,10.7,3,.2-1.7-10.7-3Zm1.5,74.7.1,1.8,7.9-1-.1-1.8Zm-2-100.5,11.7,4.9.3-1.7-11.7-4.9Zm2.8,151,.3,1.7,6.2-2.5-.3-1.7Zm-.4-25.2.2,1.7,7-1.8-.2-1.7Zm16-24.9.2,1.8,7.9-1.6-.2-1.8Zm.4,25.2.3,1.7,7-2.4-.3-1.7ZM152.8,291.1l.6,1.6,12.8-10.5-.6-1.6ZM-89.3,486l.4,1.7,5.5-2.9-.4-1.7Zm-3.6-202.1,12.6,7.1.4-1.7-12.6-7.1Zm20,202.3.5,1.6,5.3-3.4-.5-1.6Zm.3,24.7.5,1.6,4.8-3.1-.5-1.6Zm-35.1-150,9.7,2.2.2-1.8-9.7-2.2Zm1.3,74.5.1,1.8,7.1-1.2-.1-1.8Zm.4,25.2.2,1.7,6.3-1.9-.2-1.7Zm.6,49.8.3,1.7,5-2.2-.3-1.7Zm16.4.3.4,1.7,4.9-2.6-.4-1.7Zm-8.3-275.6-.4-1.7-10.5,5.4.4,1.7Zm.3,23.8-.5-1.6-11.2,7.4.5,1.6Zm-8.7,226.8.3,1.7,5.5-2.5-.3-1.7Zm-2.5-150.5,10.6,3.9.3-1.7-10.6-3.9Zm-.5-25.8,11.5,5.8.4-1.7-11.5-5.8Zm-.5-26,12.3,8.2.5-1.6-12.3-8.2Zm2.4,126.7v1.8l7.9-.3v-1.8Zm-.4-23.7,8.8.8.1-1.8-8.8-.8Zm32.8-1,.1,1.8,8.8-.6-.1-1.8Zm-16.9-24.1,9.8,1.4.1-1.8-9.8-1.4Zm50.1,50.1.3,1.7,7.7-3-.3-1.7Zm-.5-25.2.2,1.8,8.8-2.2-.2-1.8Zm-1-49.1,11,.2v-1.8l-11-.2Zm.5,23.7.1,1.8,9.8-1.1-.1-1.8Zm2.4,150.5.6,1.5,4.6-3.9-.6-1.5Zm-1-74.7.4,1.7,6.8-3.6L-34,433Zm.4,25.1.5,1.6,5.9-4-.5-1.6Zm.4,25,.6,1.5,5.1-4.3-.6-1.5Zm16.4.3.6,1.5,4.9-4.8-.6-1.5Zm-.4-25,.5,1.6,5.8-4.5-.5-1.6ZM-43.3,311.4l12.1,1.9.1-1.8-12.1-1.9Zm18.9,125.5.4,1.6,6.7-4.2-.4-1.6Zm1,74.7.6,1.5,4.4-4.3-.6-1.5ZM-44,285.6l13.3,3.8.2-1.7-13.3-3.8Zm-31.5,50.5,10.8,2.1.1-1.8-10.8-2.1Zm19.3,175,.5,1.6,4.7-3.5-.5-1.6ZM-76.6,284.4l12.9,6,.3-1.7-12.9-6Zm20.1,202.1.5,1.6,5.2-3.9-.5-1.6ZM-74.9,361.7l9.8.6v-1.8l-9.8-.6ZM-76,310.4l11.8,3.9.2-1.7-11.8-3.9Zm19.2,151,.4,1.7,6-3.5-.4-1.7Zm-2.3-124.8,10.9,1.2.1-1.8L-59,334.8ZM-60.3,285l13.1,4.9.3-1.7L-60,283.3Zm.6,25.9,12,2.9.2-1.8-12-2.9Zm2.5,125.4.3,1.7,6.9-3-.3-1.7Zm-1.3-75.9v1.8l9.8-.3v-1.8Zm.9,50.7.2,1.7,7.8-2.3-.2-1.7Zm-.5-25.3.1,1.8,8.8-1.4-.1-1.8Zm6.7-396.6-3.9-2.9-.5,1.6,3.9,2.9ZM-48,236.5l-.2-1.8-11,2.6.2,1.8Zm-.5-24.1-.1-1.8-10.1,1.1.1,1.8Zm1,48-.3-1.7-11.9,4.5.3,1.7Zm-50.7-73.3-.2-1.8-9.1,2.1.2,1.8ZM-68-36l-3.6-2.3-.5,1.6,3.6,2.3Zm18.6,198.2-8.3-1.3-.1,1.8,8.3,1.3Zm.4,24.3-9.2-.2v1.8l9.2.2ZM-67.4,38.9l-4.8-3-.5,1.6,4.8,3ZM-67.8-11l-4-2.5-.5,1.6,4,2.5Zm1,99.5-6-2.9-.4,1.7,6,2.9Zm.3,24.5-6.7-2.3-.3,1.7,6.7,2.3Zm-.6-49.1-5.3-3.3-.5,1.6,5.3,3.3Zm17,49.4-6.7-2.9-.3,1.7,6.7,2.9ZM-67.6,13.9-72,11.1l-.5,1.6,4.4,2.8Zm42.8,397.9.4,1.7,7.6-3.6-.4-1.7Zm-7.8-224.9-9.2-1-.1,1.8,9.2,1Zm-.4-24.3-8.3-2-.2,1.8,8.3,2Zm.9,50.3v-1.8l-10.2.2v1.8ZM-50.5,88.8l-5.9-3.4-.4,1.7,5.9,3.4Zm16.8,24.8-6.6-3.5-.4,1.7,6.6,3.5ZM-31.6,237l-.1-1.8-11.1,1.7.1,1.8Zm-1.8-98.9-7.4-2.8-.3,1.7,7.4,2.8ZM-51,39.2l-4.7-3.5-.5,1.6,4.7,3.5Zm-.2-25-4.2-3.1-.5,1.6,4.2,3.1Zm.4,50-5.1-3.8-.5,1.6,5.1,3.8Zm-.8-100-3.5-2.6-.5,1.6,3.5,2.6ZM-66.2,137.5l-7.5-1.6-.2,1.8,7.5,1.6Zm35.1,123.4-.2-1.7-12.1,3.5.2,1.7ZM-49.8,137.8l-7.5-2.2-.2,1.7,7.5,2.2ZM-100.7-36.3l-3.7-1.7-.3,1.7,3.7,1.7Zm.3,49.8-4.5-2-.3,1.7,4.5,2Zm-.2-24.9-4.1-1.8-.3,1.7,4.1,1.8Zm20.1,270.8-.4-1.7-11.5,6.5.4,1.7Zm-.4-23.8-.3-1.7-10.7,4.5.3,1.7Zm-.4-24-.2-1.7-9.9,2.8.2,1.7ZM-99.9,63.4l-5.5-2.4-.3,1.7,5.5,2.4Zm.9,73.4-7.6-.3v1.8l7.6.3Zm33.2,25-8.4-.6-.1,1.8,8.4.6Zm-32.8,1.1-.1-1.8-8.3.8.1,1.8Zm-.7-50.5-6.8-1.2-.1,1.8,6.8,1.2Zm17.5,75.1-.1-1.8L-91,187l.1,1.8ZM-99.6,88l-6.1-1.9-.2,1.7,6.1,1.9Zm-.5-49.5-5-2.2-.3,1.7,5,2.2ZM-64.4,236l-.2-1.7-10.9,3.6.2,1.7Zm.4,23.9-.3-1.7L-76,263.7l.3,1.7Zm-20.4-296-3.7-2-.4,1.7,3.7,2Zm19,224v-1.8l-9.2.5v1.8Zm.5,24.1-.1-1.8-10,1.9.1,1.8ZM-84.2-11.2l-4-2.2-.4,1.7,4,2.2Zm2,174.5v-1.8l-8.3.1v1.8ZM-84,13.7l-4.4-2.4-.4,1.7,4.4,2.4Zm.8,74.5-6.1-2.4-.3,1.7,6.1,2.4Zm.6,49-7.6-.9-.1,1.8,7.6.9Zm-.3-24.5-6.8-1.7-.2,1.7,6.8,1.7Zm-.9-74-4.9-2.6-.4,1.7,4.9,2.6Zm.3,25-5.4-2.9-.4,1.7,5.4,2.9Zm10.3,397.4.4,1.7,6.1-3-.4-1.7Zm180.6-21.7.9,1.2,5-8.6-.9-1.2ZM-25.3,386.6l.3,1.7,8.7-2.9-.3-1.7Zm100.1,77,.9,1.2,4.5-7.4-.9-1.2Zm14.4-99.3.6,1.5,8.8-7.9-.6-1.5Zm-.7-25.1.5,1.6,10.3-7.4-.5-1.6ZM87,288.6l.3,1.7,13.5-5.7-.3-1.7Zm.8,25.4.4,1.7,11.9-6.7-.4-1.7Zm20.4,174.8,1,.9,3.2-7.9-1-.9Zm-4-174.3.5,1.6,11.7-7.8-.5-1.6Zm-.8-25.3.4,1.7,13.4-6.9-.4-1.7Zm1.6,50.5.6,1.6,10.1-8.4-.6-1.6Zm1.3,50,.7,1.4,7.2-8.8-.7-1.4Zm.6,24.9.8,1.3,6-8.8-.8-1.3Zm-1.2-49.9.6,1.5,8.6-8.7-.6-1.5ZM91.9,513.1l1,1,3.1-6.8-1-1ZM72.7,363.9l.5,1.6,9.1-7-.5-1.6Zm.6,25,.6,1.5,7.8-7.4-.6-1.5Zm-1.2-50.2.4,1.6L83,333.8l-.4-1.6Zm1.8,75.2.7,1.4,6.6-7.6-.7-1.4ZM71.4,313.4l.3,1.7,12-5.6-.3-1.7Zm3,125.4.8,1.3,5.5-7.6-.8-1.3Zm16.9,25.1.9,1.1,4.3-7.9-.9-1.1ZM70.6,288l.2,1.7,13.6-4.5-.2-1.7ZM90.9,439.1l.8,1.2,5.2-8.1-.8-1.2Zm-.5-24.9.8,1.3,6.3-8.2-.8-1.3Zm-.6-24.9.7,1.4,7.5-8.1-.7-1.4Zm35.1,124.2,1,.8,2.6-7.4-1-.8ZM91.7,488.6l1,1,3.4-7.6-1-1Zm16.7,24.7,1,.9,2.8-7.1-1-.9Zm49.5.5,1.1.7,2.1-7.9-1.1-.7ZM136.3,290.5l.5,1.6,13-9.3-.5-1.6Zm21.5,198.9,1.1.7,2.3-8.8-1.1-.7ZM138.7,365.6l.8,1.4,8-10.3-.8-1.4Zm18.7,99.2,1,.8,3.1-9.4-1-.8ZM137.2,315.6l.6,1.5,11.2-9.9-.6-1.5Zm.8,25.1.7,1.5,9.5-10.2-.7-1.5Zm1.3,49.7.8,1.3,6.7-10.1-.8-1.3ZM155.2,366l.8,1.3,7.7-11-.8-1.3Zm-.7-24.9.7,1.4,9.2-11.1-.7-1.4Zm-.8-24.9.6,1.5,10.9-10.9-.6-1.5Zm2.8,99.3.9,1.1,5.1-10.4-.9-1.1Zm-.6-24.7.9,1.2,6.3-10.8-.9-1.2Zm1.1,49.4,1,.9,4-10-1-.9Zm-35.5-100,.6,1.5,9.8-9.3-.6-1.5Zm1.3,49.9.8,1.3,7-9.5-.8-1.3Zm-.6-24.9.7,1.4,8.3-9.5-.7-1.4Zm1.2,49.7.9,1.2,5.8-9.3-.9-1.2Zm.5,24.7.9,1.1,4.7-9.1-.9-1.1Zm.8,49.4,1,.8,2.9-8.2-1-.8Zm15.2-73.8.9,1.1,5.4-9.9-.9-1.1Zm-15.6,49.1,1,1,3.7-8.7-1-1Zm-3.6-149.2.5,1.6,11.4-8.8-.5-1.6Zm20.6,174.1,1.1.7,2.6-8.5-1.1-.7Zm-.9-49.3,1,1,4.4-9.5-1-1Zm.5,24.7,1,.9,3.4-9-1-.9Zm.5,49,1.1.7,2.3-7.7-1.1-.7ZM119.9,289.8l.4,1.6,13.2-8.1-.4-1.6ZM107.8,464.1l.9,1,4-8.3-.9-1ZM-11.3,286.7l13.6,1.5.1-1.8-13.6-1.5ZM8,412.5l.5,1.6,7.4-5-.5-1.6ZM7,362.1l.3,1.7,9.7-3.7-.3-1.7Zm.5,25.3.4,1.7,8.5-4.4L16,383Zm1.4,75.1.7,1.5,5.4-5.5-.7-1.5ZM9.5,512l.7,1.4,4.1-5.1-.7-1.4Zm-.2-24.5.7,1.4,4.6-5.6-.7-1.4Zm-.8-49.9.6,1.6,6.3-5.3-.6-1.6ZM6.4,336.7l.2,1.8,10.9-2.6-.2-1.8Zm19.4,151,.8,1.3,4.4-6-.8-1.3Zm-.4-24.9.7,1.4,5.2-6-.7-1.4Zm.6,49.4.8,1.3,3.9-5.4-.8-1.3ZM5.8,311.2l.1,1.8,12.3-1.3-.1-1.8Zm-.7-23.9,13.7.3v-1.8l-13.7-.3ZM25,437.9l.6,1.5,6.2-5.9-.6-1.5Zm-51.9-126,12.2.8.1-1.8-12.2-.8ZM75.2,488.4l.9,1.1,3.7-7.2-.9-1.1Zm-82.4-1.2.7,1.4,4.8-5.2-.7-1.4Zm.3,24.6.7,1.4,4.3-4.7-.7-1.4Zm-19.4-176,.1,1.8,11-.7-.1-1.8Zm.5,25.4.2,1.8,9.8-2-.2-1.8Zm17.9,76,.5,1.6L-.9,434l-.5-1.6Zm.4,25.1.6,1.5,5.6-5-.6-1.5Zm-2.5-126,.1,1.8,11-1.7L1,334.6ZM-8.9,387l.3,1.7L0,385l-.3-1.7Zm-.5-25.3.2,1.7,9.7-2.8-.2-1.7Zm1,50.4.4,1.7,7.5-4.3-.4-1.7Zm-2.2-101.4v1.8l12.2-.3v-1.8Zm-17-24.5,13.4,2.7.2-1.8-13.4-2.7Zm66.1,26.1.2,1.7,12.2-3.5-.2-1.7Zm19.8,151,.8,1.3,4.8-7-.8-1.3Zm-.4-24.8.7,1.4,5.7-7-.7-1.4ZM37.8,286.8l.1,1.8,13.7-2.1-.1-1.8ZM57.4,413.5l.7,1.5,6.8-6.9-.7-1.5Zm1.5,99.2.9,1.2,3.5-6.1-.9-1.2Zm-.2-24.5.9,1.2,3.9-6.8-.9-1.2ZM54.2,287.4l.2,1.8,13.7-3.3-.2-1.8ZM75.4,512.9l.9,1.1,3.3-6.5-.9-1.1Zm-50.9-100,.5,1.6,7.2-5.6-.5-1.6Zm30.4-100,.3,1.7L67.3,310l-.3-1.7Zm.7,25.3.4,1.7,10.6-5.5-.4-1.7Zm.7,25.2.5,1.6,9.2-6.2-.5-1.6Zm.6,25.1.6,1.6,8-6.7-.6-1.6Zm-14.4,124,.8,1.2,3.7-5.8-.8-1.2ZM22.8,337.2,23,339l10.9-3.6-.3-1.7Zm-1.3-51V288l13.7-.9v-1.8Zm.7,25.6.1,1.8,12.3-2.4-.1-1.8Zm1.2,50.8.3,1.7,9.5-4.5L33,358Zm.6,25.2.4,1.6,8.3-5.2-.4-1.6ZM42.2,487.9l.8,1.2,4.2-6.4-.8-1.2Zm-3-150.2.3,1.7,10.8-4.6-.3-1.7Zm.6,25.3.4,1.7,9.4-5.4-.4-1.7Zm1.1,50.2.6,1.5,7-6.3-.6-1.5Zm-.5-25.1.5,1.6,8.2-5.9-.5-1.6Zm1.5,75,.8,1.3,5-6.5-.8-1.3Zm-.5-24.9.7,1.4,6-6.5-.7-1.4Z"/></g></g><path class="cls-8" d="M119.3,285.8a10.8,10.8,0,0,1-5.8-1.6,10.61,10.61,0,0,1-4.2-4.2,11.76,11.76,0,0,1-1.6-5.8,10.8,10.8,0,0,1,1.6-5.8,10.61,10.61,0,0,1,4.2-4.2,11.76,11.76,0,0,1,5.8-1.6,10.8,10.8,0,0,1,5.8,1.6,10.61,10.61,0,0,1,4.2,4.2,11.63,11.63,0,0,1,.1,11.6,10.61,10.61,0,0,1-4.2,4.2A11.14,11.14,0,0,1,119.3,285.8Zm0-4.1a6.63,6.63,0,0,0,3.7-1,7.46,7.46,0,0,0,2.6-2.7,7.79,7.79,0,0,0,.9-3.7,8.19,8.19,0,0,0-.9-3.8,6.18,6.18,0,0,0-2.6-2.7,7.57,7.57,0,0,0-3.7-1,6.86,6.86,0,0,0-3.7,1,7.46,7.46,0,0,0-2.6,2.7,8.19,8.19,0,0,0-.9,3.8,7.24,7.24,0,0,0,3.5,6.4A7.11,7.11,0,0,0,119.3,281.7Zm14.3-18.8h16.5v4H137.9v5.3h10.9v3.9H137.9v9.4h-4.4V262.9Zm39.1,22.8a10.8,10.8,0,0,1-5.8-1.6,10.61,10.61,0,0,1-4.2-4.2,11.76,11.76,0,0,1-1.6-5.8,10.8,10.8,0,0,1,1.6-5.8,10.61,10.61,0,0,1,4.2-4.2,11.76,11.76,0,0,1,5.8-1.6,10.35,10.35,0,0,1,6.2,1.9,11.81,11.81,0,0,1,4.1,5l-4.1,1.2a7.06,7.06,0,0,0-2.5-2.9,6.71,6.71,0,0,0-3.7-1.1,6.63,6.63,0,0,0-3.7,1,8.39,8.39,0,0,0-2.6,2.7,8.06,8.06,0,0,0,0,7.4,7.46,7.46,0,0,0,2.6,2.7,7.35,7.35,0,0,0,7.4,0,6.78,6.78,0,0,0,2.5-2.8l4.2,1.1a11.81,11.81,0,0,1-4.1,5A10.48,10.48,0,0,1,172.7,285.7Zm23.6.1a10.8,10.8,0,0,1-5.8-1.6,10.61,10.61,0,0,1-4.2-4.2,11.76,11.76,0,0,1-1.6-5.8,10.8,10.8,0,0,1,1.6-5.8,10.61,10.61,0,0,1,4.2-4.2,11.76,11.76,0,0,1,5.8-1.6,10.8,10.8,0,0,1,5.8,1.6,10.61,10.61,0,0,1,4.2,4.2,11.63,11.63,0,0,1,.1,11.6,10.61,10.61,0,0,1-4.2,4.2A11.65,11.65,0,0,1,196.3,285.8Zm0-4.1a6.63,6.63,0,0,0,3.7-1,7.46,7.46,0,0,0,2.6-2.7,7.79,7.79,0,0,0,.9-3.7,8.19,8.19,0,0,0-.9-3.8,6.18,6.18,0,0,0-2.6-2.7,7.57,7.57,0,0,0-3.7-1,6.86,6.86,0,0,0-3.7,1,7.46,7.46,0,0,0-2.6,2.7,8.19,8.19,0,0,0-.9,3.8,7.24,7.24,0,0,0,3.5,6.4A6.63,6.63,0,0,0,196.3,281.7Zm14.3-18.8h7.2l8.4,18.8V262.9h4.3v22.6h-6.9L215,266.2v19.3h-4.3V262.9Zm32.1,22.9a16.22,16.22,0,0,1-9.2-3.1v-4.5a24.94,24.94,0,0,0,4.8,2.6,13.65,13.65,0,0,0,4.6,1,6.65,6.65,0,0,0,2.1-.3,2.54,2.54,0,0,0,1.3-.9,2.11,2.11,0,0,0,.5-1.3c0-.8-.5-1.4-1.4-2a19.52,19.52,0,0,0-4.6-1.6,17,17,0,0,1-4.2-1.5,6.28,6.28,0,0,1-2.4-2.1,5.12,5.12,0,0,1-.8-2.8,6.06,6.06,0,0,1,1.1-3.5,6.39,6.39,0,0,1,3-2.3,9.28,9.28,0,0,1,4.2-.8,14.05,14.05,0,0,1,4.7.7,19,19,0,0,1,3.8,1.7v4.5a16.35,16.35,0,0,0-4.2-2,14.62,14.62,0,0,0-4.3-.8,6,6,0,0,0-2,.3,2.84,2.84,0,0,0-1.4.9,2.17,2.17,0,0,0-.5,1.4,1.61,1.61,0,0,0,.6,1.3,3.93,3.93,0,0,0,1.7.9c.7.2,1.7.5,2.9.8.2,0,.3.1.5.1s.3.1.5.1a10.88,10.88,0,0,1,5.6,2.8,5.74,5.74,0,0,1,1.6,4.1,5.58,5.58,0,0,1-1.2,3.6,7,7,0,0,1-3.1,2.2A18.59,18.59,0,0,1,242.7,285.8Zm20.6,0a9.65,9.65,0,0,1-8.3-4.5,9,9,0,0,1-1.3-4.9V263h4.4v13.4a5.3,5.3,0,0,0,.7,2.8,5.75,5.75,0,0,0,1.9,1.9,4.51,4.51,0,0,0,2.5.7,4.84,4.84,0,0,0,2.6-.7,5.75,5.75,0,0,0,1.9-1.9,5.07,5.07,0,0,0,.7-2.8V263h4.3v13.4a9.5,9.5,0,0,1-1.2,4.8,9.24,9.24,0,0,1-3.4,3.4A9.77,9.77,0,0,1,263.3,285.8Zm12.9-22.9h4.4v18.6h10.8v4H276.3V262.9Zm19.8,4h-7.1v-4h18.3v4h-6.9v18.6H296Zm18.2-4H321l7.7,22.6h-4.5l-1.6-4.7H312.5l-1.6,4.7h-4.5Zm7.1,14-3.7-11.2-3.8,11.2Zm9.9-14h7.2l8.4,18.8V262.9h4.3v22.6h-6.9l-8.6-19.3v19.3h-4.3V262.9Zm30,4h-7.1v-4h18.3v4h-6.9v18.6h-4.3Zm22.6,18.9a16.22,16.22,0,0,1-9.2-3.1v-4.5a24.94,24.94,0,0,0,4.8,2.6,13.65,13.65,0,0,0,4.6,1,6.65,6.65,0,0,0,2.1-.3,2.54,2.54,0,0,0,1.3-.9,2.11,2.11,0,0,0,.5-1.3c0-.8-.5-1.4-1.4-2a19.52,19.52,0,0,0-4.6-1.6,17,17,0,0,1-4.2-1.5,6.28,6.28,0,0,1-2.4-2.1,5.12,5.12,0,0,1-.8-2.8,6.06,6.06,0,0,1,1.1-3.5,6.39,6.39,0,0,1,3-2.3,9.28,9.28,0,0,1,4.2-.8,14.05,14.05,0,0,1,4.7.7,19,19,0,0,1,3.8,1.7v4.5a16.35,16.35,0,0,0-4.2-2,14.62,14.62,0,0,0-4.3-.8,6,6,0,0,0-2,.3,2.84,2.84,0,0,0-1.4.9,2.17,2.17,0,0,0-.5,1.4,1.61,1.61,0,0,0,.6,1.3,3.93,3.93,0,0,0,1.7.9c.7.2,1.7.5,2.9.8.2,0,.3.1.5.1s.3.1.5.1a10.88,10.88,0,0,1,5.6,2.8,5.74,5.74,0,0,1,1.6,4.1,5.58,5.58,0,0,1-1.2,3.6,7,7,0,0,1-3.1,2.2A18.59,18.59,0,0,1,383.8,285.8ZM143.1,301.7h6.8l7.7,22.6H153l-1.6-4.7H141.3l-1.6,4.7h-4.5Zm7.1,13.9-3.7-11.2-3.8,11.2Zm9.9-13.9h7.2l8.4,18.8V301.7H180v22.6h-7L164.4,305v19.3h-4.3V301.7Zm23.4-.1h8.3a11.4,11.4,0,0,1,5.8,1.5,11.18,11.18,0,0,1,.1,19.6,11.77,11.77,0,0,1-5.9,1.5h-8.3V301.6Zm8.3,18.7a7.9,7.9,0,0,0,3.8-.9,6.51,6.51,0,0,0,2.6-2.6,7.79,7.79,0,0,0,.9-3.7,7.9,7.9,0,0,0-.9-3.8,6.51,6.51,0,0,0-2.6-2.6,7.9,7.9,0,0,0-3.8-.9h-3.9v14.6h3.9Zm23.3-18.7h8.3a11.4,11.4,0,0,1,5.8,1.5,11.18,11.18,0,0,1,.1,19.6,11.77,11.77,0,0,1-5.9,1.5h-8.3V301.6Zm8.3,18.7a7.9,7.9,0,0,0,3.8-.9,6.51,6.51,0,0,0,2.6-2.6,7.79,7.79,0,0,0,.9-3.7,7.9,7.9,0,0,0-.9-3.8,6.51,6.51,0,0,0-2.6-2.6,7.9,7.9,0,0,0-3.8-.9h-3.9v14.6h3.9Zm14.4-18.6H254v4H242.1V311h10.6v3.9H242.1v5.3H254v4H237.7V301.7Zm19.5,0h4.4v18.6h10.8v4H257.4V301.7Zm18.1,0h4.4v22.6h-4.4Zm7.3,0h4.8l6.1,19.6,6.3-19.6h4.7l-7.5,22.6h-6.9Zm24.7,0h16.3v4H311.8V311h10.6v3.9H311.8v5.3h11.9v4H307.4Zm19.6,0h9.9a7.32,7.32,0,0,1,3.9,1,7.56,7.56,0,0,1,3.8,6.6,6.71,6.71,0,0,1-.6,2.8,8.07,8.07,0,0,1-1.7,2.4,6.08,6.08,0,0,1-2.4,1.5l5,8.2h-4.7l-4.7-7.7h-4.3v7.7H327Zm9.8,11.1a3.78,3.78,0,0,0,2.7-1,3.63,3.63,0,0,0,1.1-2.6,3.43,3.43,0,0,0-3.6-3.6h-5.6v7.2Zm15.9,4.4-7.9-15.5h4.6l5.4,10.6,5.4-10.6h4.6L357,317.1v7.2h-4.4v-7.1ZM168.6,340.5h9.9a7.39,7.39,0,0,1,3.9,1.1,7.56,7.56,0,0,1,3.8,6.6,7,7,0,0,1-1,3.8,6.62,6.62,0,0,1-2.8,2.7,7.67,7.67,0,0,1-4,1h-5.6V363h-4.4V340.5Zm9.7,11.4a3.76,3.76,0,0,0,2.8-1.1,3.86,3.86,0,0,0,1.1-2.7,3.47,3.47,0,0,0-1.1-2.6,3.86,3.86,0,0,0-2.8-1H173V352Zm15.3-11.4h6.8l7.7,22.6h-4.5l-1.6-4.7H191.9l-1.6,4.7h-4.5Zm7,13.9-3.7-11.2-3.8,11.2Zm9.9-13.9h9.9a7.32,7.32,0,0,1,3.9,1,7.56,7.56,0,0,1,3.8,6.6,6.71,6.71,0,0,1-.6,2.8,8.07,8.07,0,0,1-1.7,2.4,6.08,6.08,0,0,1-2.4,1.5l5,8.2h-4.7l-4.7-7.7h-4.3V363h-4.4V340.5Zm9.8,11.1a3.39,3.39,0,0,0,2.6-1A3.63,3.63,0,0,0,224,348a3.43,3.43,0,0,0-3.6-3.6h-5.6v7.2Zm16.8-7.1H230v-4h18.3v4h-6.9v18.6h-4.3Zm14.2-4h7.2l8.4,18.8V340.5h4.3v22.6h-6.9l-8.6-19.3v19.3h-4.3V340.5Zm23.5,0h16.3v4H279.2v5.3h10.6v3.9H279.2V359h11.9v4H274.8Zm19.6,0h9.9a7.32,7.32,0,0,1,3.9,1,7.56,7.56,0,0,1,3.8,6.6,6.71,6.71,0,0,1-.6,2.8,8.07,8.07,0,0,1-1.7,2.4,6.08,6.08,0,0,1-2.4,1.5l5,8.2h-4.7l-4.7-7.7h-4.3V363h-4.4V340.5Zm9.8,11.1a3.78,3.78,0,0,0,2.7-1A3.63,3.63,0,0,0,308,348a3.43,3.43,0,0,0-3.6-3.6h-5.6v7.2Zm19.5,11.7a16.22,16.22,0,0,1-9.2-3.1v-4.5a24.94,24.94,0,0,0,4.8,2.6,13.65,13.65,0,0,0,4.6,1,6.65,6.65,0,0,0,2.1-.3,2.54,2.54,0,0,0,1.3-.9,2.11,2.11,0,0,0,.5-1.3c0-.8-.5-1.4-1.4-2a19.52,19.52,0,0,0-4.6-1.6,17,17,0,0,1-4.2-1.5,6.28,6.28,0,0,1-2.4-2.1,5.12,5.12,0,0,1-.8-2.8,6.06,6.06,0,0,1,1.1-3.5,6.39,6.39,0,0,1,3-2.3,9.28,9.28,0,0,1,4.2-.8,14.05,14.05,0,0,1,4.7.7,19,19,0,0,1,3.8,1.7v4.5a16.35,16.35,0,0,0-4.2-2,14.62,14.62,0,0,0-4.3-.8,6,6,0,0,0-2,.3,2.84,2.84,0,0,0-1.4.9,2.17,2.17,0,0,0-.5,1.4,1.61,1.61,0,0,0,.6,1.3,5.4,5.4,0,0,0,1.7.9c.7.2,1.7.5,2.9.8.2,0,.3.1.5.1s.3.1.5.1a10.88,10.88,0,0,1,5.6,2.8,5.74,5.74,0,0,1,1.6,4.1,5.58,5.58,0,0,1-1.2,3.6,7,7,0,0,1-3.1,2.2A14.24,14.24,0,0,1,323.7,363.3Z"/><path class="cls-9" d="M152.1,159H134.4V145.4h31.8v76.5H152.1Zm55.3,63a29,29,0,0,1-16.7-4.8A29.33,29.33,0,0,1,180,203.6a54.65,54.65,0,0,1-3.7-20.7c0-8,1.2-15,3.7-20.9a30.45,30.45,0,0,1,10.8-13.7,28.7,28.7,0,0,1,16.6-4.8,29,29,0,0,1,16.7,4.8A30.45,30.45,0,0,1,234.9,162a52.9,52.9,0,0,1,3.8,20.8,52.73,52.73,0,0,1-3.8,20.7,30.16,30.16,0,0,1-10.8,13.6A28.57,28.57,0,0,1,207.4,222Zm0-13.7a14.11,14.11,0,0,0,9.2-3.2,19.57,19.57,0,0,0,5.8-9,40.7,40.7,0,0,0,2-13.2,38.68,38.68,0,0,0-2.1-13.3,19.84,19.84,0,0,0-6-9,14,14,0,0,0-9-3.2,13.6,13.6,0,0,0-9.1,3.3,19.64,19.64,0,0,0-5.8,9.1,41.78,41.78,0,0,0-2,13.3,38.87,38.87,0,0,0,2.1,13.4,19.81,19.81,0,0,0,5.9,8.8A14.76,14.76,0,0,0,207.4,208.3ZM277.5,222a29,29,0,0,1-16.7-4.8,29.33,29.33,0,0,1-10.7-13.6,54.65,54.65,0,0,1-3.7-20.7c0-8,1.2-15,3.7-20.9a30.45,30.45,0,0,1,10.8-13.7,28.7,28.7,0,0,1,16.6-4.8,29,29,0,0,1,16.7,4.8A30.45,30.45,0,0,1,305,162a52.9,52.9,0,0,1,3.8,20.8,52.73,52.73,0,0,1-3.8,20.7,30.16,30.16,0,0,1-10.8,13.6A28.14,28.14,0,0,1,277.5,222Zm0-13.7a14.11,14.11,0,0,0,9.2-3.2,19.57,19.57,0,0,0,5.8-9,40.7,40.7,0,0,0,2-13.2,38.68,38.68,0,0,0-2.1-13.3,19.84,19.84,0,0,0-6-9,14,14,0,0,0-9-3.2,13.6,13.6,0,0,0-9.1,3.3,19.64,19.64,0,0,0-5.8,9.1,41.78,41.78,0,0,0-2,13.3,38.87,38.87,0,0,0,2.1,13.4,19.81,19.81,0,0,0,5.9,8.8A15,15,0,0,0,277.5,208.3Zm64.4,14.5a43.71,43.71,0,0,1-11.8-1.7,53.2,53.2,0,0,1-11.9-5.2V201.6a49.77,49.77,0,0,0,10.9,6.1,32.22,32.22,0,0,0,12.8,2.8,17.27,17.27,0,0,0,4.7-.6,8.53,8.53,0,0,0,3.3-1.7,3.93,3.93,0,0,0,1.3-2.9c0-1.7-1.1-3.2-3.2-4.2s-5.8-2.1-10.9-3.2c-7-1.5-12.1-3.5-15.4-6.2a13.27,13.27,0,0,1-4.9-10.9,15.05,15.05,0,0,1,3.1-9.5,19.24,19.24,0,0,1,8.5-6.1,33.57,33.57,0,0,1,12.2-2.1,39.85,39.85,0,0,1,11.7,1.7,65.38,65.38,0,0,1,10.6,4.6v12.8a48.58,48.58,0,0,0-12.1-5.4,36.91,36.91,0,0,0-10.2-1.6,14.48,14.48,0,0,0-4.9.7,6.78,6.78,0,0,0-3.2,2,3.84,3.84,0,0,0-1.1,2.8,3.64,3.64,0,0,0,2.2,3.4,30.35,30.35,0,0,0,7.4,2.2,24.6,24.6,0,0,0,2.9.7c1,.2,2,.4,3.1.7,6.6,1.7,11.3,4,14.3,6.9a14.55,14.55,0,0,1,4.4,10.9c0,6-2.4,10.4-7.1,13.2A33.06,33.06,0,0,1,341.9,222.8Z"/></svg>