<svg width="16" height="15" viewBox="0 0 16 15" fill="none" xmlns="http://www.w3.org/2000/svg">
<path d="M9.99984 9.66659C10.7071 9.66659 11.3854 9.38563 11.8855 8.88554C12.3856 8.38544 12.6665 7.70716 12.6665 6.99992V2.99992C12.6665 2.29267 12.3856 1.6144 11.8855 1.1143C11.3854 0.614204 10.7071 0.333252 9.99984 0.333252H3.33317C2.62593 0.333252 1.94765 0.614204 1.44755 1.1143C0.947455 1.6144 0.666504 2.29267 0.666504 2.99992V11.3333C0.666504 11.4217 0.701623 11.5064 0.764135 11.569C0.826647 11.6315 0.911432 11.6666 0.999837 11.6666C1.04344 11.6663 1.08654 11.6574 1.12662 11.6402C1.16669 11.623 1.20292 11.598 1.23317 11.5666L2.5665 10.2333C2.75606 10.0487 2.98035 9.90357 3.22639 9.8063C3.47243 9.70903 3.73532 9.66154 3.99984 9.66659H9.99984ZM1.99984 8.99992V2.99992C1.99984 2.6463 2.14031 2.30716 2.39036 2.05711C2.64041 1.80706 2.97955 1.66659 3.33317 1.66659H9.99984C10.3535 1.66659 10.6926 1.80706 10.9426 2.05711C11.1927 2.30716 11.3332 2.6463 11.3332 2.99992V6.99992C11.3332 7.35354 11.1927 7.69268 10.9426 7.94273C10.6926 8.19278 10.3535 8.33325 9.99984 8.33325H3.99984C3.2786 8.33325 2.57682 8.56718 1.99984 8.99992ZM13.9998 2.99992V8.33325C13.9998 9.0405 13.7189 9.71877 13.2188 10.2189C12.7187 10.719 12.0404 10.9999 11.3332 10.9999H3.33317C3.33317 11.3535 3.47365 11.6927 3.72369 11.9427C3.97374 12.1928 4.31288 12.3333 4.6665 12.3333H11.9998C12.2635 12.3326 12.5247 12.3841 12.7684 12.4848C13.0121 12.5855 13.2335 12.7334 13.4198 12.9199L14.7532 14.2533C14.7834 14.2846 14.8197 14.3097 14.8597 14.3268C14.8998 14.344 14.9429 14.353 14.9865 14.3533C15.0749 14.3533 15.1597 14.3181 15.2222 14.2556C15.2847 14.1931 15.3198 14.1083 15.3198 14.0199V4.33325C15.3199 3.98193 15.1812 3.64479 14.934 3.39513C14.6869 3.14546 14.3511 3.00343 13.9998 2.99992Z" fill="white"/>
</svg>
