<svg width="16" height="16" viewBox="0 0 16 16" fill="none" xmlns="http://www.w3.org/2000/svg">
<path d="M7.99697 8C8.7881 8 9.56146 7.76541 10.2193 7.32588C10.8771 6.88635 11.3897 6.26164 11.6925 5.53074C11.9952 4.79983 12.0745 3.99556 11.9201 3.21964C11.7658 2.44372 11.3848 1.73098 10.8254 1.17157C10.266 0.612164 9.55326 0.231202 8.77734 0.0768607C8.00141 -0.0774802 7.19714 0.00173312 6.46624 0.304484C5.73534 0.607234 5.11062 1.11992 4.6711 1.77772C4.23157 2.43552 3.99697 3.20888 3.99697 4C3.99697 5.06087 4.4184 6.07828 5.16855 6.82843C5.91869 7.57857 6.93611 8 7.99697 8ZM7.99697 2C8.39254 2 8.77922 2.1173 9.10811 2.33706C9.43701 2.55683 9.69336 2.86918 9.84473 3.23463C9.99611 3.60009 10.0357 4.00222 9.95854 4.39018C9.88137 4.77814 9.69089 5.13451 9.41119 5.41422C9.13148 5.69392 8.77512 5.8844 8.38715 5.96157C7.99919 6.03874 7.59706 5.99914 7.23161 5.84776C6.86616 5.69639 6.5538 5.44004 6.33403 5.11114C6.11427 4.78224 5.99697 4.39556 5.99697 4C5.99697 3.46957 6.20769 2.96086 6.58276 2.58579C6.95783 2.21072 7.46654 2 7.99697 2ZM15.887 14.55L13.997 10.66C13.7438 10.1527 13.3521 9.72744 12.8671 9.43364C12.3822 9.13984 11.8239 8.98949 11.257 9H4.73697C4.17852 8.9989 3.63085 9.1537 3.15561 9.44698C2.68037 9.74025 2.29641 10.1604 2.04697 10.66L0.106974 14.55C0.0302641 14.7022 -0.00625804 14.8715 0.000876328 15.0419C0.0080107 15.2122 0.0585645 15.3778 0.147737 15.5231C0.236909 15.6684 0.36174 15.7885 0.510373 15.8719C0.659007 15.9554 0.82651 15.9995 0.996974 16H14.997C15.1674 15.9995 15.3349 15.9554 15.4836 15.8719C15.6322 15.7885 15.757 15.6684 15.8462 15.5231C15.9354 15.3778 15.9859 15.2122 15.9931 15.0419C16.0002 14.8715 15.9637 14.7022 15.887 14.55ZM2.61697 14L3.83697 11.55C3.92084 11.3836 4.04954 11.2439 4.20856 11.1467C4.36759 11.0495 4.55061 10.9987 4.73697 11H11.257C11.4433 10.9987 11.6264 11.0495 11.7854 11.1467C11.9444 11.2439 12.0731 11.3836 12.157 11.55L13.377 14H2.61697Z" fill="white"/>
</svg>
