<svg width="1440" height="404" viewBox="0 0 1440 404" fill="none" xmlns="http://www.w3.org/2000/svg">
<g style="mix-blend-mode:soft-light" opacity="0.5">
<path d="M361.963 153.307L359.987 151.484L337.903 175.49L339.878 177.314L361.963 153.307ZM360.038 114.461L357.809 112.993L339.98 140.291L342.208 141.76L360.038 114.461ZM363.584 192.457L361.963 190.381L336.231 210.437L337.852 212.513L363.584 192.457ZM400.611 229.48L398.99 227.403L373.258 247.459L374.879 249.536L400.611 229.48ZM357.809 75.9699L355.378 74.9063L342.259 104.788L344.69 105.851L357.809 75.9699ZM352.795 0.202586L350.161 0L347.476 32.5151L350.11 32.7177L352.795 0.202586ZM402.687 308.438L401.826 305.905L370.979 316.491L371.84 319.023L402.687 308.438ZM401.826 268.883L400.56 266.553L371.891 282.101L373.157 284.431L401.826 268.883ZM403.093 348.145L402.637 345.511L370.473 350.88L370.928 353.513L403.093 348.145ZM364.85 231.86L363.584 229.53L334.914 245.079L336.181 247.409L364.85 231.86ZM355.378 37.8836L352.795 37.2252L344.792 68.8794L347.375 69.5378L355.378 37.8836ZM403.042 385.167H370.422V387.801H403.042V385.167ZM323.011 77.4893L320.782 76.0205L302.953 103.319L305.181 104.788L323.011 77.4893ZM289.53 118.462L287.909 116.386L262.177 136.442L263.798 138.518L289.53 118.462ZM283.755 1.97522L281.324 0.911638L268.205 30.7931L270.636 31.8567L283.755 1.97522ZM327.823 194.837L326.557 192.508L297.887 208.056L299.154 210.386L327.823 194.837ZM328.634 234.392L327.772 231.86L296.925 242.445L297.786 244.978L328.634 234.392ZM365.661 271.415L364.799 268.883L333.952 279.468L334.813 282L365.661 271.415ZM287.909 79.3126L285.933 77.4893L263.849 101.496L265.824 103.319L287.909 79.3126ZM285.984 40.4666L283.755 38.9979L265.926 66.2964L268.155 67.7651L285.984 40.4666ZM318.351 0.860992L315.768 0.202586L307.765 31.8061L310.348 32.4645L318.351 0.860992ZM366.066 311.122L365.61 308.488L333.446 313.857L333.901 316.491L366.066 311.122ZM320.782 38.9979L318.351 37.9343L305.232 67.8158L307.663 68.8794L320.782 38.9979ZM326.557 155.434L324.936 153.358L299.204 173.414L300.825 175.49L326.557 155.434ZM324.936 116.285L322.96 114.461L300.876 138.468L302.851 140.291L324.936 116.285ZM329.039 274.099L328.583 271.466L296.419 276.834L296.874 279.468L329.039 274.099ZM429.533 31.8567L421.53 0.253233L418.947 0.911638L426.95 32.5151L429.533 31.8567ZM424.164 37.0227L421.53 37.2252L424.215 69.7403L426.849 69.5378L424.164 37.0227ZM476.437 463.416L445.59 452.831L444.729 455.363L475.577 465.949L476.437 463.416ZM474.361 431.306L475.627 428.977L446.958 413.428L445.692 415.758L474.361 431.306ZM421.479 106.56L424.114 106.763L426.798 74.2479L424.164 74.0453L421.479 106.56ZM429.381 111.929L426.798 111.271L418.795 142.874L421.378 143.532L429.381 111.929ZM475.88 342.877L474.614 340.548L445.945 356.096L447.211 358.426L475.88 342.877ZM473.044 264.375L471.068 262.552L448.984 286.558L450.959 288.382L473.044 264.375ZM476.741 382.483L475.88 379.951L445.033 390.536L445.894 393.068L476.741 382.483ZM471.068 225.529L468.84 224.06L451.01 251.359L453.239 252.828L471.068 225.529ZM431.813 150.015L429.381 148.952L416.262 178.833L418.694 179.897L431.813 150.015ZM474.614 303.525L472.993 301.448L447.262 321.505L448.883 323.581L474.614 303.525ZM389.872 32.5151L387.137 0L384.503 0.202586L387.188 32.7177L389.872 32.5151ZM434.041 188.507L431.813 187.038L413.983 214.336L416.212 215.805L434.041 188.507ZM398.99 190.33L397.014 188.507L374.93 212.513L376.905 214.336L398.99 190.33ZM438.549 428.926L439.41 426.394L408.563 415.808L407.702 418.341L438.549 428.926ZM392.405 74.9063L389.822 74.2479L381.819 105.851L384.402 106.51L392.405 74.9063ZM394.836 112.993L392.405 111.929L379.286 141.81L381.717 142.874L394.836 112.993ZM397.014 151.484L394.786 150.015L376.956 177.314L379.185 178.782L397.014 151.484ZM389.822 37.2252L387.188 37.0227L384.503 69.5378L387.137 69.7403L389.822 37.2252ZM436.017 227.353L434.041 225.529L411.957 249.536L413.932 251.359L436.017 227.353ZM437.638 266.502L436.017 264.426L410.285 284.482L411.906 286.558L437.638 266.502ZM438.853 305.905L437.587 303.576L408.918 319.124L410.184 321.454L438.853 305.905ZM440.12 385.117L439.664 382.483L407.499 387.852L407.955 390.485L440.12 385.117ZM468.84 187.038L466.408 185.974L453.289 215.856L455.721 216.919L468.84 187.038ZM439.714 345.46L438.853 342.928L408.006 353.513L408.867 356.046L439.714 345.46ZM66.2029 249.536L44.1184 225.529L42.143 227.353L64.2275 251.359L66.2029 249.536ZM46.347 261.083L44.1184 262.552L61.9482 289.85L64.1768 288.382L46.347 261.083ZM69.2421 171.034L40.5727 155.485L39.3064 157.815L67.9758 173.363L69.2421 171.034ZM43.5107 594.49L61.3402 621.788L63.5689 620.319L45.7394 593.021L43.5107 594.49ZM39.7622 672.485L65.4938 692.541L67.1146 690.465L41.3832 670.409L39.7622 672.485ZM42.1937 190.381L40.5727 192.457L66.3043 212.513L67.925 210.437L42.1937 190.381ZM63.5689 657.342L65.5445 655.519L43.46 631.512L41.4846 633.336L63.5689 657.342ZM9.32026 224.06L7.09135 225.529L24.9211 252.828L27.1498 251.359L9.32026 224.06ZM56.4271 443.208L53.7931 443.006L51.1086 475.521L53.7424 475.723L56.4271 443.208ZM48.3731 517.912L56.3764 549.515L58.9597 548.857L50.9565 517.254L48.3731 517.912ZM61.8975 326.873L48.7785 296.992L46.347 298.055L59.4662 327.937L61.8975 326.873ZM51.3618 333.356L48.7785 334.014L56.7815 365.618L59.3648 364.959L51.3618 333.356ZM58.9597 585.88L61.3909 584.816L48.272 554.935L45.8405 555.998L58.9597 585.88ZM53.9956 370.125L51.3618 370.328L54.0463 402.843L56.6803 402.64L53.9956 370.125ZM16.7153 475.723L19.3494 475.521L16.6649 443.006L14.0308 443.208L16.7153 475.723ZM24.8704 289.85L11.7515 259.969L9.32026 261.033L22.4392 290.914L24.8704 289.85ZM11.3464 480.889L19.3494 512.493L21.9327 511.834L13.9294 480.231L11.3464 480.889ZM14.3348 296.333L11.7515 296.992L19.7545 328.595L22.3378 327.937L14.3348 296.333ZM21.9327 548.857L24.3639 547.793L11.245 517.912L8.81373 518.976L21.9327 548.857ZM6.53437 557.467L24.3639 584.765L26.5926 583.297L8.76303 555.998L6.53437 557.467ZM290.796 157.815L289.53 155.485L260.86 171.034L262.127 173.363L290.796 157.815ZM16.7153 438.701L19.4001 406.186L16.766 405.983L14.0815 438.498L16.7153 438.701ZM37.5336 751.443L68.3809 762.029L69.2421 759.496L38.3947 748.911L37.5336 751.443ZM32.8737 15.042H0.253262V17.6757H32.8737V15.042ZM67.1653 727.386L68.4316 725.057L39.7622 709.508L38.4959 711.838L67.1653 727.386ZM16.9181 402.894L19.6026 370.378L16.9686 370.176L14.2841 402.691L16.9181 402.894ZM19.6533 365.618L16.9686 333.103L14.3348 333.305L17.0193 365.82L19.6533 365.618ZM213.906 5.26724L211.93 3.44397L189.846 27.4504L191.821 29.2737L213.906 5.26724ZM254.985 200.054L254.529 197.42L222.364 202.789L222.821 205.423L254.985 200.054ZM253.769 120.792L252.503 118.462L223.834 134.011L225.1 136.341L253.769 120.792ZM254.63 160.398L253.769 157.865L222.922 168.451L223.783 170.983L254.63 160.398ZM216.742 83.8201L215.476 81.4903L186.807 97.0389L188.073 99.3686L216.742 83.8201ZM215.526 44.4171L213.906 42.3405L188.174 62.3966L189.795 64.4731L215.526 44.4171ZM250.882 42.2899L248.907 40.4666L226.822 64.4731L228.797 66.2964L250.882 42.2899ZM291.607 197.42L290.745 194.888L259.898 205.473L260.759 208.006L291.607 197.42ZM292.012 237.077L291.556 234.443L259.391 239.812L259.847 242.445L292.012 237.077ZM252.503 81.4397L250.882 79.3632L225.15 99.4193L226.771 101.496L252.503 81.4397ZM248.957 3.44397L246.728 1.97522L228.899 29.2737L231.128 30.7425L248.957 3.44397ZM217.603 123.375L216.742 120.843L185.895 131.428L186.756 133.96L217.603 123.375ZM53.7424 512.746L56.3764 512.543L53.6916 480.028L51.0579 480.231L53.7424 512.746ZM143.549 49.3298L142.688 46.7974L111.841 57.3826L112.702 59.9149L143.549 49.3298ZM106.927 52.014L106.472 49.3804L74.3073 54.749L74.7631 57.3826L106.927 52.014ZM143.954 89.0367L143.499 86.4031L111.334 91.7716L111.79 94.4052L143.954 89.0367ZM106.522 12.3071L105.661 9.77479L74.8138 20.4106L75.675 22.9429L106.522 12.3071ZM69.9004 14.9914L69.4446 12.3578L37.2803 17.7263L37.7361 20.3599L69.9004 14.9914ZM218.009 163.031L217.552 160.398L185.388 165.766L185.844 168.4L218.009 163.031ZM69.85 52.0647H37.2296V54.6983H69.85V52.0647ZM178.5 7.3944L176.879 5.31789L151.097 25.3233L152.717 27.3998L178.5 7.3944ZM179.715 46.7974L178.449 44.4677L149.78 60.0162L151.046 62.3459L179.715 46.7974ZM180.982 126.009L180.526 123.375L148.361 128.744L148.817 131.377L180.982 126.009ZM142.688 9.77479L141.422 7.44505L112.753 22.9936L114.019 25.3233L142.688 9.77479ZM180.576 86.3524L179.715 83.8201L148.868 94.4052L149.729 96.9376L180.576 86.3524ZM56.5282 406.236L48.5252 437.84L51.1086 438.498L59.1116 406.895L56.5282 406.236ZM661.572 59.9656L632.903 44.4171L631.637 46.7468L660.306 62.2953L661.572 59.9656ZM634.473 79.3126L632.852 81.3891L658.584 101.445L660.205 99.3686L634.473 79.3126ZM632.093 561.468L657.824 581.524L659.445 579.448L633.713 559.392L632.093 561.468ZM660.711 614.039L632.042 598.491L630.776 600.82L659.445 616.369L660.711 614.039ZM624.545 22.9429L595.876 7.3944L594.61 9.72414L623.279 25.2726L624.545 22.9429ZM661.522 648.479L630.674 637.894L629.813 640.426L660.661 651.011L661.522 648.479ZM655.899 546.325L657.875 544.501L635.79 520.495L633.815 522.318L655.899 546.325ZM598.814 446.45L616.644 473.748L618.872 472.279L601.043 444.981L598.814 446.45ZM635.841 483.472L653.67 510.771L655.899 509.302L638.07 482.004L635.841 483.472ZM648.656 438.498L651.239 437.84L643.236 406.236L640.653 406.895L648.656 438.498ZM651.239 474.862L653.67 473.799L640.552 443.917L638.12 444.981L651.239 474.862ZM658.533 138.518L636.449 114.512L634.473 116.335L656.558 140.342L658.533 138.518ZM638.627 150.066L636.398 151.535L654.278 178.782L656.507 177.314L638.627 150.066ZM606.614 185.316L604.031 185.974L612.034 217.578L614.618 216.919L606.614 185.316ZM597.446 42.2899L595.826 44.3664L621.557 64.4225L623.178 62.3459L597.446 42.2899ZM617.15 178.833L604.031 148.952L601.6 150.015L614.719 179.897L617.15 178.833ZM603.828 364.959L616.947 335.078L614.516 334.014L601.397 363.896L603.828 364.959ZM621.506 101.496L599.422 77.4893L597.446 79.3126L619.531 103.319L621.506 101.496ZM618.872 509.302L620.848 507.479L598.763 483.472L596.788 485.296L618.872 509.302ZM595.066 524.445L620.797 544.501L622.418 542.425L596.686 522.369L595.066 524.445ZM640.856 401.982L653.974 372.1L651.543 371.037L638.424 400.918L640.856 401.982ZM616.947 372.151L599.118 399.45L601.347 400.918L619.176 373.62L616.947 372.151ZM609.248 291.826L611.933 259.311L609.299 259.108L606.614 291.623L609.248 291.826ZM603.575 406.895L601.144 407.958L614.263 437.84L616.694 436.776L603.575 406.895ZM611.984 254.6L609.299 222.085L606.665 222.288L609.35 254.803L611.984 254.6ZM606.463 328.595L614.466 296.992L611.882 296.333L603.879 327.937L606.463 328.595ZM601.6 113.043L599.371 114.512L617.201 141.81L619.43 140.342L601.6 113.043ZM675.147 482.004L688.266 511.885L690.698 510.821L677.579 480.94L675.147 482.004ZM678.085 222.997L675.654 224.06L688.773 253.942L691.204 252.878L678.085 222.997ZM683.049 438.701L685.683 438.498L682.998 405.983L680.364 406.186L683.049 438.701ZM670.791 559.29L692.876 583.297L694.851 581.473L672.767 557.467L670.791 559.29ZM693.483 214.387L675.654 187.088L673.425 188.557L691.255 215.856L693.483 214.387ZM690.698 547.793L692.926 546.325L675.097 519.026L672.868 520.495L690.698 547.793ZM685.683 475.521L688.266 474.862L680.263 443.259L677.68 443.917L685.683 475.521ZM654.177 215.856L641.058 185.974L638.627 187.038L651.746 216.919L654.177 215.856ZM683.302 296.131L680.668 296.333L683.353 328.848L685.987 328.646L683.302 296.131ZM688.671 290.965L680.668 259.361L678.085 260.02L686.088 291.623L688.671 290.965ZM680.516 402.64L688.52 371.037L685.936 370.378L677.933 401.982L680.516 402.64ZM680.618 365.618L683.252 365.82L685.936 333.305L683.302 333.103L680.618 365.618ZM700.018 17.7263L667.853 12.3578L667.397 14.9914L699.562 20.3599L700.018 17.7263ZM646.225 328.848L648.909 296.333L646.275 296.131L643.591 328.646L646.225 328.848ZM662.484 20.4106L631.637 9.82544L630.776 12.3578L661.623 22.9429L662.484 20.4106ZM648.96 291.623L646.275 259.108L643.641 259.311L646.326 291.826L648.96 291.623ZM643.49 365.618L651.493 334.014L648.909 333.356L640.906 364.959L643.49 365.618ZM673.425 151.535L671.45 153.358L693.534 177.364L695.51 175.541L673.425 151.535ZM643.641 222.339L641.058 222.997L649.061 254.6L651.644 253.942L643.641 222.339ZM698.549 685.502L667.701 674.916L666.84 677.449L697.688 688.034L698.549 685.502ZM694.851 618.496L696.472 616.42L670.74 596.364L669.12 598.44L694.851 618.496ZM697.232 136.391L671.5 116.335L669.879 118.412L695.611 138.468L697.232 136.391ZM669.879 81.4397L668.613 83.7694L697.282 99.318L698.549 96.9882L669.879 81.4397ZM699.511 57.4332L668.664 46.8481L667.803 49.3804L698.65 59.9656L699.511 57.4332ZM667.752 637.843L696.421 653.392L697.688 651.062L669.018 635.513L667.752 637.843ZM527.242 326.873L545.072 299.575L542.843 298.106L525.013 325.404L527.242 326.873ZM498.218 111.068L495.584 111.271L498.269 143.786L500.903 143.583L498.218 111.068ZM495.534 180.555L498.167 180.758L500.852 148.243L498.218 148.04L495.534 180.555ZM492.748 253.942L505.867 224.06L503.435 222.997L490.316 252.878L492.748 253.942ZM527.596 38.9979L525.368 40.4666L543.198 67.7651L545.426 66.2964L527.596 38.9979ZM503.587 105.902L495.584 74.2985L493.001 74.9569L501.004 106.56L503.587 105.902ZM495.432 217.578L503.435 185.974L500.852 185.316L492.849 216.919L495.432 217.578ZM550.492 537.462L519.644 526.876L518.783 529.409L549.63 539.994L550.492 537.462ZM547.047 338.37L545.072 336.547L522.987 360.553L524.963 362.376L547.047 338.37ZM549.63 502.971L520.961 487.423L519.695 489.752L548.364 505.301L549.63 502.971ZM548.668 377.52L547.047 375.443L521.316 395.499L522.937 397.576L548.668 377.52ZM544.818 435.257L546.794 433.433L524.709 409.427L522.734 411.25L544.818 435.257ZM623.684 577.017L595.015 561.468L593.749 563.798L622.418 579.346L623.684 577.017ZM508.399 29.2737L490.569 1.97522L488.341 3.44397L506.171 30.7425L508.399 29.2737ZM493.001 37.9343L490.569 38.9979L503.689 68.8794L506.12 67.8158L493.001 37.9343ZM513.464 500.439L482.617 489.854L481.756 492.386L512.603 502.971L513.464 500.439ZM461.141 143.786L463.825 111.271L461.191 111.068L458.507 143.583L461.141 143.786ZM463.876 106.56L461.191 74.0453L458.557 74.2479L461.242 106.763L463.876 106.56ZM512.654 465.949L483.985 450.4L482.718 452.73L511.388 468.278L512.654 465.949ZM458.405 180.555L466.408 148.952L463.825 148.293L455.822 179.897L458.405 180.555ZM469.093 30.7931L455.974 0.911638L453.543 1.97522L466.662 31.8567L469.093 30.7931ZM508.095 262.552L505.867 261.083L488.037 288.382L490.266 289.85L508.095 262.552ZM509.767 433.433L511.388 431.357L485.656 411.301L484.035 413.377L509.767 433.433ZM510.02 301.398L508.045 299.575L485.96 323.581L487.936 325.404L510.02 301.398ZM512.907 379.9L511.641 377.57L482.972 393.119L484.238 395.449L512.907 379.9ZM511.641 340.548L510.02 338.471L484.289 358.527L485.91 360.604L511.641 340.548ZM548.415 468.329L522.683 448.273L521.062 450.349L546.794 470.405L548.415 468.329ZM569.486 291.623L577.489 260.02L574.906 259.361L566.903 290.965L569.486 291.623ZM577.591 179.897L569.587 148.293L567.004 148.952L575.007 180.555L577.591 179.897ZM569.537 254.6L572.171 254.803L574.855 222.288L572.221 222.085L569.537 254.6ZM566.801 327.937L579.921 298.055L577.489 296.992L564.37 326.873L566.801 327.937ZM572.272 185.063L569.638 185.265L572.323 217.78L574.957 217.578L572.272 185.063ZM567.055 111.929L564.623 112.993L577.742 142.874L580.174 141.81L567.055 111.929ZM586.202 25.3233L560.47 5.26724L558.849 7.34375L584.581 27.3998L586.202 25.3233ZM582.099 373.62L560.014 397.626L561.989 399.45L584.074 375.443L582.099 373.62ZM582.453 103.319L564.623 76.0205L562.395 77.4893L580.224 104.788L582.453 103.319ZM624.545 611.456L593.698 600.871L592.837 603.403L623.684 613.989L624.545 611.456ZM559.761 448.273L581.845 472.279L583.821 470.456L561.736 446.45L559.761 448.273ZM564.016 407.958L561.787 409.427L579.617 436.725L581.845 435.257L564.016 407.958ZM532.611 111.271L530.028 111.929L538.031 143.532L540.614 142.874L532.611 111.271ZM564.269 363.896L582.099 336.597L579.87 335.128L562.04 362.427L564.269 363.896ZM532.459 254.6L540.462 222.997L537.879 222.339L529.876 253.942L532.459 254.6ZM537.93 180.555L535.245 148.04L532.611 148.243L535.296 180.758L537.93 180.555ZM543.096 104.788L529.977 74.9063L527.546 75.9699L540.665 105.851L543.096 104.788ZM529.775 290.914L542.894 261.033L540.462 259.969L527.343 289.85L529.775 290.914ZM535.194 217.78L537.879 185.265L535.245 185.063L532.561 217.578L535.194 217.78ZM458.557 37.2252L455.974 37.8836L463.977 69.4871L466.56 68.8287L458.557 37.2252ZM585.442 505.352L559.71 485.296L558.089 487.372L583.821 507.428L585.442 505.352ZM562.395 40.4666L560.419 42.2899L582.504 66.2964L584.479 64.4731L562.395 40.4666ZM587.518 574.434L556.671 563.848L555.81 566.381L586.657 576.966L587.518 574.434ZM547.452 27.4504L525.368 3.44397L523.392 5.26724L545.477 29.2737L547.452 27.4504ZM586.657 539.994L557.988 524.445L556.722 526.775L585.391 542.324L586.657 539.994ZM151.603 303.525L177.334 323.581L178.955 321.505L153.224 301.448L151.603 303.525ZM336.434 579.397L338.055 581.473L363.786 561.417L362.165 559.341L336.434 579.397ZM298.445 379.951L297.583 382.483L328.431 393.068L329.292 390.536L298.445 379.951ZM267.952 778.083L281.071 807.965L283.502 806.901L270.383 777.02L267.952 778.083ZM335.168 539.994L336.434 542.324L365.103 526.775L363.837 524.445L335.168 539.994ZM334.357 500.439L335.218 502.971L366.066 492.386L365.204 489.854L334.357 500.439ZM333.952 460.732L334.408 463.366L366.572 457.997L366.116 455.363L333.952 460.732ZM347.223 771.651L349.857 771.854L352.541 739.339L349.908 739.136L347.223 771.651ZM366.015 348.145H333.395V350.778H366.015V348.145ZM297.178 348.145L329.343 353.513L329.798 350.88L297.634 345.511L297.178 348.145ZM347.172 776.362L349.857 808.877L352.491 808.674L349.806 776.159L347.172 776.362ZM342.208 695.884L344.64 696.948L357.759 667.066L355.327 666.003L342.208 695.884ZM334.003 423.709H366.623V421.076H334.003V423.709ZM344.64 733.97L347.223 734.629L355.226 703.025L352.643 702.367L344.64 733.97ZM339.98 657.393L342.208 658.861L360.038 631.563L357.809 630.094L339.98 657.393ZM372.195 577.017L373.461 579.346L402.13 563.798L400.864 561.468L372.195 577.017ZM334.205 385.117L366.37 390.485L366.826 387.852L334.661 382.483L334.205 385.117ZM371.384 537.462L372.245 539.994L403.093 529.409L402.232 526.876L371.384 537.462ZM375.082 655.569L377.057 657.393L399.142 633.386L397.166 631.563L375.082 655.569ZM370.979 497.755L371.435 500.388L403.599 495.02L403.143 492.386L370.979 497.755ZM371.03 460.681H403.65V458.048H371.03V460.681ZM373.461 616.42L375.082 618.496L400.813 598.44L399.192 596.364L373.461 616.42ZM402.839 423.709L370.624 418.341L370.169 420.974L402.333 426.343L402.839 423.709ZM384.25 808.674L386.884 808.877L389.568 776.362L386.935 776.159L384.25 808.674ZM439.816 460.732L407.651 455.363L407.196 457.997L439.36 463.366L439.816 460.732ZM379.235 732.856L381.667 733.92L394.786 704.038L392.354 702.975L379.235 732.856ZM377.007 694.365L379.235 695.833L397.065 668.535L394.836 667.066L377.007 694.365ZM381.667 770.993L384.25 771.651L392.253 740.048L389.67 739.39L381.667 770.993ZM261.164 465.949L262.431 468.278L291.1 452.78L289.834 450.451L261.164 465.949ZM262.38 505.352L264.001 507.428L289.732 487.372L288.112 485.296L262.38 505.352ZM265.976 583.347L268.205 584.816L286.035 557.518L283.806 556.049L265.976 583.347ZM264.001 544.501L265.976 546.325L288.061 522.318L286.085 520.495L264.001 544.501ZM262.684 377.57L261.418 379.9L290.087 395.449L291.353 393.119L262.684 377.57ZM260.303 426.394L261.164 428.926L292.012 418.341L291.151 415.808L260.303 426.394ZM260.607 345.46L291.455 356.046L292.316 353.513L261.468 342.928L260.607 345.46ZM275.904 665.091L273.22 697.606L275.854 697.809L278.538 665.294L275.904 665.091ZM273.118 702.316L275.803 734.831L278.437 734.629L275.752 702.114L273.118 702.316ZM278.639 628.322L270.636 659.925L273.22 660.583L281.223 628.98L278.639 628.322ZM268.205 621.839L270.636 622.902L283.755 593.021L281.324 591.957L268.205 621.839ZM278.488 771.651L281.071 770.993L273.068 739.39L270.484 740.048L278.488 771.651ZM299.407 542.374L301.028 544.451L326.759 524.395L325.139 522.318L299.407 542.374ZM301.028 581.524L303.003 583.347L325.088 559.341L323.112 557.518L301.028 581.524ZM296.925 423.709L297.381 426.343L329.545 420.974L329.089 418.341L296.925 423.709ZM303.003 620.37L305.232 621.839L323.062 594.54L320.833 593.072L303.003 620.37ZM305.181 658.861L307.613 659.925L320.732 630.044L318.301 628.98L305.181 658.861ZM298.191 502.971L299.458 505.301L328.127 489.752L326.861 487.423L298.191 502.971ZM297.33 463.416L298.191 465.949L329.039 455.363L328.178 452.831L297.33 463.416ZM328.988 311.173H296.368V313.806H328.988V311.173ZM260.202 311.122L292.366 316.491L292.822 313.857L260.658 308.488L260.202 311.122ZM307.511 777.02L315.515 808.623L318.098 807.965L310.095 776.362L307.511 777.02ZM312.881 771.854L315.515 771.651L312.83 739.136L310.196 739.339L312.881 771.854ZM307.613 696.948L310.196 697.606L318.199 666.003L315.616 665.344L307.613 696.948ZM315.565 702.316L312.931 702.114L310.247 734.629L312.881 734.831L315.565 702.316ZM338.055 618.547L340.03 620.37L362.115 596.364L360.139 594.54L338.055 618.547ZM550.897 571.8L518.732 566.431L518.276 569.065L550.441 574.434L550.897 571.8ZM587.924 608.823L555.759 603.454L555.303 606.088L587.468 611.456L587.924 608.823ZM519.087 608.772H551.707V606.138H519.087V608.772ZM557.279 762.079L558.545 764.409L587.215 748.86L585.948 746.531L557.279 762.079ZM556.468 722.524L557.33 725.057L588.177 714.471L587.316 711.939L556.468 722.524ZM556.063 682.817L556.519 685.451L588.683 680.082L588.228 677.449L556.063 682.817ZM523.139 803.609L525.115 805.433L547.199 781.426L545.224 779.603L523.139 803.609ZM29.2266 212.564L7.14205 188.557L5.16665 190.381L27.2512 214.387L29.2266 212.564ZM556.114 645.795H588.734V643.161H556.114V645.795ZM519.441 685.502L520.303 688.034L551.15 677.449L550.289 674.916L519.441 685.502ZM520.303 725.057L521.569 727.386L550.238 711.838L548.972 709.508L520.303 725.057ZM519.036 645.845L519.492 648.479L551.656 643.11L551.201 640.477L519.036 645.845ZM558.545 801.482L560.166 803.559L585.898 783.503L584.277 781.426L558.545 801.482ZM698.954 719.84L666.79 714.471L666.334 717.105L698.498 722.474L698.954 719.84ZM624.951 645.845L592.786 640.477L592.331 643.11L624.495 648.479L624.951 645.845ZM630.117 756.863L630.573 759.496L662.737 754.128L662.281 751.494L630.117 756.863ZM630.168 719.789H662.788V717.156H630.168V719.789ZM667.144 756.812H699.764V754.178H667.144V756.812ZM667.144 793.885L667.6 796.519L699.764 791.15L699.308 788.517L667.144 793.885ZM630.522 796.57L631.383 799.102L662.231 788.517L661.37 785.984L630.522 796.57ZM661.927 682.817L629.763 677.449L629.307 680.082L661.471 685.451L661.927 682.817ZM593.495 759.547L594.357 762.079L625.204 751.494L624.343 748.962L593.495 759.547ZM418.694 807.965L421.277 808.623L429.28 777.02L426.697 776.362L418.694 807.965ZM593.09 719.84L593.546 722.474L625.71 717.105L625.255 714.471L593.09 719.84ZM593.141 682.767H625.761V680.133H593.141V682.767ZM594.306 799.102L595.572 801.432L624.242 785.883L622.975 783.553L594.306 799.102ZM408.006 497.704H440.626V495.07H408.006V497.704ZM408.411 574.434L409.272 576.966L440.12 566.381L439.259 563.848L408.411 574.434ZM408.006 534.777L408.462 537.411L440.626 532.042L440.17 529.409L408.006 534.777ZM476.843 497.755L444.678 492.386L444.222 495.02L476.387 500.388L476.843 497.755ZM453.289 806.901L455.721 807.965L468.84 778.083L466.408 777.02L453.289 806.901ZM451.06 768.41L453.289 769.879L471.119 742.58L468.89 741.112L451.06 768.41ZM416.262 769.879L418.694 770.942L431.813 741.061L429.381 739.997L416.262 769.879ZM414.034 731.387L416.262 732.856L434.092 705.558L431.863 704.089L414.034 731.387ZM449.085 729.564L451.06 731.387L473.145 707.381L471.17 705.558L449.085 729.564ZM409.222 614.039L410.488 616.369L439.157 600.82L437.891 598.491L409.222 614.039ZM410.488 653.392L412.109 655.468L437.84 635.412L436.219 633.336L410.488 653.392ZM412.109 692.541L414.084 694.365L436.169 670.358L434.193 668.535L412.109 692.541ZM488.088 805.433L490.316 806.901L508.146 779.603L505.917 778.134L488.088 805.433ZM484.491 727.437L486.112 729.513L511.844 709.457L510.223 707.381L484.491 727.437ZM483.276 688.034L484.542 690.364L513.211 674.815L511.945 672.485L483.276 688.034ZM486.112 766.587L488.088 768.41L510.172 744.404L508.197 742.58L486.112 766.587ZM482.415 648.479L483.276 651.011L514.123 640.426L513.262 637.894L482.415 648.479ZM482.06 571.749H514.68V569.116H482.06V571.749ZM482.009 608.823L482.465 611.456L514.629 606.088L514.174 603.454L482.009 608.823ZM447.515 690.414L449.136 692.491L474.867 672.435L473.246 670.358L447.515 690.414ZM445.388 611.456L446.249 613.989L477.096 603.403L476.235 600.871L445.388 611.456ZM513.87 534.777L481.705 529.409L481.249 532.042L513.414 537.411L513.87 534.777ZM446.249 651.062L447.515 653.392L476.184 637.843L474.918 635.513L446.249 651.062ZM445.033 534.727H477.653V532.093H445.033V534.727ZM444.982 571.8L445.438 574.434L477.603 569.065L477.147 566.431L444.982 571.8ZM521.518 764.46L523.139 766.536L548.871 746.48L547.25 744.404L521.518 764.46ZM143.904 126.059H111.284V128.693H143.904V126.059ZM112.499 785.883L141.169 801.432L142.435 799.102L113.766 783.553L112.499 785.883ZM75.4722 160.398L106.32 170.983L107.181 168.451L76.3334 157.865L75.4722 160.398ZM120.097 436.725L137.927 409.427L135.698 407.958L117.868 435.257L120.097 436.725ZM133.469 401.982L135.901 400.918L122.782 371.037L120.35 372.1L133.469 401.982ZM138.231 362.427L120.401 335.128L118.172 336.597L136.002 363.896L138.231 362.427ZM75.0671 126.009L107.231 131.377L107.687 128.744L75.5229 123.375L75.0671 126.009ZM291.961 274.15H259.341V276.784H291.961V274.15ZM81.1454 262.552L79.17 264.375L101.255 288.382L103.23 286.558L81.1454 262.552ZM104.952 247.409L79.2207 227.353L77.5997 229.429L103.331 249.485L104.952 247.409ZM75.4722 748.911L104.142 764.46L105.408 762.13L76.7385 746.581L75.4722 748.911ZM102.571 729.564L104.192 727.488L78.4609 707.432L76.8399 709.508L102.571 729.564ZM139.548 766.536L141.169 764.46L115.437 744.404L113.816 746.48L139.548 766.536ZM118.172 299.575L116.197 301.398L138.281 325.404L140.257 323.581L118.172 299.575ZM115.538 707.381L137.623 731.387L139.598 729.564L117.514 705.558L115.538 707.381ZM135.394 695.833L137.623 694.365L119.793 667.066L117.564 668.535L135.394 695.833ZM141.979 284.431L116.247 264.375L114.627 266.452L140.358 286.508L141.979 284.431ZM127.796 517.051L125.112 549.566L127.746 549.769L130.43 517.254L127.796 517.051ZM113.36 231.86L142.03 247.409L143.296 245.079L114.627 229.53L113.36 231.86ZM78.5114 670.358L100.596 694.365L102.571 692.541L80.487 668.535L78.5114 670.358ZM133.216 443.917L120.097 473.799L122.529 474.862L135.648 444.981L133.216 443.917ZM125.061 554.276L127.746 586.791L130.38 586.589L127.695 554.074L125.061 554.276ZM130.532 480.231L122.529 511.834L125.112 512.493L133.115 480.889L130.532 480.231ZM130.43 623.561L133.014 622.902L125.011 591.299L122.427 591.957L130.43 623.561ZM119.895 630.044L133.014 659.925L135.445 658.861L122.326 628.98L119.895 630.044ZM37.027 791.15L69.1914 796.519L69.6472 793.885L37.4828 788.517L37.027 791.15ZM32.6204 756.863L0.45607 751.494L0 754.128L32.1643 759.496L32.6204 756.863ZM0.506525 714.421L31.3541 725.006L32.215 722.474L1.36772 711.888L0.506525 714.421ZM0.810489 793.835H33.4306V791.201H0.810489V793.835ZM112.499 197.42L143.347 208.006L144.208 205.473L113.36 194.888L112.499 197.42ZM1.06375 52.014L33.2281 57.3826L33.6839 54.749L1.51957 49.3804L1.06375 52.014ZM30.1382 690.414L31.4045 688.084L2.73543 672.536L1.46912 674.866L30.1382 690.414ZM98.418 658.811L100.647 657.342L82.8168 630.044L80.5882 631.512L98.418 658.811ZM26.5926 620.319L28.5682 618.496L6.48367 594.49L4.50827 596.313L26.5926 620.319ZM2.78589 635.463L28.5175 655.519L30.1382 653.442L4.40687 633.386L2.78589 635.463ZM33.1774 94.4559L2.33006 83.8708L1.46912 86.4031L32.3164 96.9882L33.1774 94.4559ZM5.16665 153.358L3.54567 155.434L29.2773 175.49L30.898 173.414L5.16665 153.358ZM38.4959 123.375L69.3435 133.96L70.2044 131.428L39.3571 120.843L38.4959 123.375ZM32.2657 134.011L3.59638 118.462L2.33006 120.792L30.9994 136.341L32.2657 134.011ZM96.1893 406.895L83.0701 436.776L85.5016 437.84L98.6205 407.958L96.1893 406.895ZM88.3382 370.378L85.7548 371.037L93.7578 402.64L96.3411 401.982L88.3382 370.378ZM82.8675 593.021L95.9865 622.902L98.418 621.839L85.299 591.957L82.8675 593.021ZM85.8055 334.014L83.3741 335.078L96.493 364.959L98.9245 363.896L85.8055 334.014ZM101.204 325.404L83.3741 298.106L81.1454 299.575L98.9752 326.873L101.204 325.404ZM38.0908 89.0367L70.2551 94.4052L70.7109 91.7716L38.5466 86.4031L38.0908 89.0367ZM93.4034 586.538L95.9865 585.88L87.9835 554.276L85.4002 554.935L93.4034 586.538ZM106.877 89.0873H74.2566V91.721H106.877V89.0873ZM93.5046 443.259L85.5016 474.862L88.0849 475.521L96.0879 443.917L93.5046 443.259ZM74.5606 788.466L105.408 799.051L106.269 796.519L75.4218 785.934L74.5606 788.466ZM90.7694 480.028L88.0849 512.543L90.7187 512.746L93.4034 480.231L90.7694 480.028ZM88.0342 517.254L90.7187 549.769L93.3527 549.566L90.668 517.051L88.0342 517.254ZM76.3334 194.837L105.003 210.386L106.269 208.056L77.5997 192.508L76.3334 194.837ZM209.752 482.004L191.923 509.302L194.151 510.771L211.981 483.472L209.752 482.004ZM186.553 271.415L217.401 282L218.262 279.468L187.414 268.883L186.553 271.415ZM241.511 628.322L238.877 628.119L236.193 660.634L238.827 660.837L241.511 628.322ZM228.646 779.552L246.475 806.851L248.704 805.382L230.874 778.083L228.646 779.552ZM238.827 697.809L241.461 697.606L238.776 665.091L236.142 665.294L238.827 697.809ZM187.364 305.905L216.033 321.454L217.299 319.124L188.63 303.576L187.364 305.905ZM254.985 237.127H222.364V239.761H254.985V237.127ZM189.998 470.456L191.973 472.279L214.058 448.273L212.082 446.45L189.998 470.456ZM188.63 340.548L214.361 360.604L215.982 358.527L190.251 338.471L188.63 340.548ZM209.448 769.879L211.677 768.41L193.847 741.112L191.619 742.58L209.448 769.879ZM192.176 373.62L190.2 375.443L212.285 399.45L214.26 397.626L192.176 373.62ZM188.377 431.306L189.998 433.383L215.729 413.327L214.108 411.25L188.377 431.306ZM186.148 237.077L218.312 242.445L218.768 239.812L186.604 234.443L186.148 237.077ZM227.278 375.443L225.657 377.52L251.388 397.576L253.009 395.499L227.278 375.443ZM224.137 428.977L225.404 431.306L254.073 415.758L252.807 413.428L224.137 428.977ZM224.391 342.877L253.06 358.426L254.326 356.096L225.657 340.548L224.391 342.877ZM225.353 468.329L226.974 470.405L252.706 450.349L251.085 448.273L225.353 468.329ZM233.458 702.975L241.461 734.578L244.044 733.92L236.041 702.316L233.458 702.975ZM223.175 274.099L255.339 279.468L255.795 276.834L223.631 271.466L223.175 274.099ZM223.58 308.438L254.428 319.023L255.289 316.491L224.441 305.905L223.58 308.438ZM244.246 554.935L231.128 584.816L233.559 585.88L246.678 555.998L244.246 554.935ZM241.612 591.299L233.609 622.902L236.193 623.561L244.196 591.957L241.612 591.299ZM228.949 546.325L231.178 547.793L249.008 520.495L246.779 519.026L228.949 546.325ZM244.044 770.942L246.475 769.879L233.356 739.997L230.925 741.061L244.044 770.942ZM226.974 507.479L228.949 509.302L251.034 485.296L249.058 483.472L226.974 507.479ZM173.029 400.868L175.258 399.399L157.428 372.1L155.199 373.569L173.029 400.868ZM167.559 517.254L159.555 548.857L162.139 549.515L170.142 517.912L167.559 517.254ZM154.592 705.558L172.421 732.856L174.65 731.387L156.82 704.089L154.592 705.558ZM167.457 554.276L164.823 554.074L162.139 586.589L164.773 586.791L167.457 554.276ZM170.243 480.94L157.124 510.821L159.555 511.885L172.675 482.004L170.243 480.94ZM169.99 696.948L172.421 695.884L159.302 666.003L156.871 667.066L169.99 696.948ZM164.773 623.814L167.407 623.611L164.722 591.096L162.088 591.299L164.773 623.814ZM159.404 628.98L167.407 660.583L169.99 659.925L161.987 628.322L159.404 628.98ZM180.931 163.082H148.311V165.716H180.931V163.082ZM150.843 783.553L176.575 803.609L178.196 801.533L152.464 781.477L150.843 783.553ZM177.284 360.604L155.199 336.597L153.224 338.421L175.308 362.427L177.284 360.604ZM112.094 163.031L144.258 168.4L144.714 165.766L112.55 160.398L112.094 163.031ZM154.895 435.257L176.98 411.25L175.004 409.427L152.92 433.433L154.895 435.257ZM174.65 768.41L176.625 766.587L154.541 742.58L152.565 744.404L174.65 768.41ZM199.115 628.322L201.8 660.837L204.434 660.634L201.749 628.119L199.115 628.322ZM201.85 591.046L199.166 623.561L201.8 623.763L204.484 591.248L201.85 591.046ZM204.586 554.276L196.582 585.88L199.166 586.538L207.169 554.935L204.586 554.276ZM204.434 697.606L207.017 696.948L199.014 665.344L196.431 666.003L204.434 697.606ZM193.898 704.089L207.017 733.97L209.448 732.907L196.329 703.025L193.898 704.089ZM189.592 781.426L211.677 805.433L213.652 803.609L191.568 779.603L189.592 781.426ZM207.27 517.912L194.151 547.793L196.582 548.857L209.701 518.976L207.27 517.912ZM150.387 268.883L179.057 284.431L180.323 282.101L151.654 266.553L150.387 268.883ZM172.725 444.981L154.895 472.279L157.124 473.748L174.954 446.45L172.725 444.981ZM217.958 200.105H185.338V202.738H217.958V200.105ZM149.121 200.054L181.285 205.423L181.741 202.789L149.577 197.42L149.121 200.054ZM149.526 234.392L180.374 244.978L181.235 242.445L150.387 231.86L149.526 234.392Z" fill="white"/>
<path d="M1092.78 37.2252L1090.14 37.0227L1087.46 69.5378L1090.09 69.7403L1092.78 37.2252ZM1097.79 112.993L1095.36 111.929L1082.24 141.81L1084.67 142.874L1097.79 112.993ZM1095.36 74.9063L1092.78 74.2479L1084.77 105.851L1087.36 106.51L1095.36 74.9063ZM1099.97 151.484L1097.74 150.015L1079.91 177.314L1082.14 178.782L1099.97 151.484ZM1104.78 268.883L1103.52 266.553L1074.85 282.101L1076.11 284.431L1104.78 268.883ZM1101.94 190.33L1099.97 188.507L1077.89 212.513L1079.86 214.336L1101.94 190.33ZM1103.57 229.48L1101.94 227.403L1076.21 247.459L1077.83 249.536L1103.57 229.48ZM1092.83 32.5151L1090.09 0L1087.46 0.202586L1090.14 32.7177L1092.83 32.5151ZM1140.59 266.502L1138.97 264.426L1113.24 284.482L1114.86 286.558L1140.59 266.502ZM1142.67 345.46L1141.81 342.928L1110.96 353.513L1111.82 356.046L1142.67 345.46ZM1141.81 305.905L1140.54 303.576L1111.87 319.124L1113.14 321.454L1141.81 305.905ZM1141.5 428.926L1142.37 426.394L1111.52 415.808L1110.66 418.341L1141.5 428.926ZM1143.07 385.117L1142.62 382.483L1110.45 387.852L1110.91 390.485L1143.07 385.117ZM1068.62 271.415L1067.75 268.883L1036.91 279.468L1037.77 282L1068.62 271.415ZM1138.97 227.353L1137 225.529L1114.91 249.536L1116.89 251.359L1138.97 227.353ZM1067.75 231.86L1066.49 229.53L1037.82 245.079L1039.09 247.409L1067.75 231.86ZM1023.74 38.9979L1021.31 37.9343L1008.19 67.8158L1010.62 68.8794L1023.74 38.9979ZM1021.31 0.860992L1018.72 0.202586L1010.72 31.8061L1013.3 32.4645L1021.31 0.860992ZM1064.92 153.307L1062.94 151.484L1040.86 175.49L1042.83 177.314L1064.92 153.307ZM1069.02 311.122L1068.57 308.488L1036.4 313.857L1036.86 316.491L1069.02 311.122ZM1106.05 348.145L1105.59 345.511L1073.43 350.88L1073.88 353.513L1106.05 348.145ZM1106 385.167H1073.38V387.801H1106V385.167ZM1055.75 0.202586L1053.12 0L1050.43 32.5151L1053.07 32.7177L1055.75 0.202586ZM1105.64 308.438L1104.78 305.905L1073.93 316.491L1074.8 319.023L1105.64 308.438ZM1058.33 37.8836L1055.75 37.2252L1047.75 68.8287L1050.33 69.4871L1058.33 37.8836ZM1060.76 75.9699L1058.33 74.9063L1045.21 104.788L1047.65 105.851L1060.76 75.9699ZM1062.99 114.461L1060.76 112.993L1042.93 140.291L1045.16 141.76L1062.99 114.461ZM1066.54 192.457L1064.92 190.381L1039.19 210.437L1040.81 212.513L1066.54 192.457ZM1164.1 143.786L1166.78 111.271L1164.15 111.068L1161.46 143.583L1164.1 143.786ZM1172.05 30.7931L1158.93 0.911638L1156.5 1.97522L1169.62 31.8567L1172.05 30.7931ZM1166.83 106.56L1164.15 74.0453L1161.51 74.2479L1164.2 106.763L1166.83 106.56ZM1216.42 500.439L1185.57 489.854L1184.71 492.386L1215.56 502.971L1216.42 500.439ZM1137 188.507L1134.77 187.038L1116.94 214.336L1119.17 215.805L1137 188.507ZM1161.51 37.2252L1158.93 37.8836L1166.93 69.4871L1169.52 68.8287L1161.51 37.2252ZM1214.6 340.548L1212.98 338.471L1187.24 358.527L1188.86 360.604L1214.6 340.548ZM1171.79 187.038L1169.36 185.974L1156.24 215.856L1158.68 216.919L1171.79 187.038ZM1212.98 301.398L1211 299.575L1188.92 323.581L1190.89 325.404L1212.98 301.398ZM1211.05 262.552L1208.82 261.083L1190.99 288.382L1193.22 289.85L1211.05 262.552ZM1215.86 379.9L1214.6 377.57L1185.93 393.119L1187.19 395.449L1215.86 379.9ZM1212.72 433.433L1214.34 431.357L1188.61 411.301L1186.99 413.377L1212.72 433.433ZM1215.61 465.949L1186.94 450.4L1185.67 452.73L1214.34 468.278L1215.61 465.949ZM1161.36 180.555L1169.36 148.952L1166.78 148.293L1158.78 179.897L1161.36 180.555ZM1124.43 106.56L1127.07 106.763L1129.75 74.2479L1127.12 74.0453L1124.43 106.56ZM1127.12 37.0227L1124.49 37.2252L1127.17 69.7403L1129.8 69.5378L1127.12 37.0227ZM1132.49 31.8567L1124.49 0.253233L1121.9 0.911638L1129.91 32.5151L1132.49 31.8567ZM1132.34 111.929L1129.75 111.271L1121.75 142.874L1124.33 143.532L1132.34 111.929ZM1179.39 463.416L1148.55 452.831L1147.68 455.363L1178.53 465.949L1179.39 463.416ZM1134.77 150.015L1132.34 148.952L1119.22 178.833L1121.65 179.897L1134.77 150.015ZM1175.95 264.375L1173.97 262.552L1151.89 286.558L1153.86 288.382L1175.95 264.375ZM1174.02 225.529L1171.79 224.06L1153.97 251.359L1156.19 252.828L1174.02 225.529ZM1177.32 431.306L1178.58 428.977L1149.91 413.428L1148.65 415.758L1177.32 431.306ZM1177.57 303.525L1175.95 301.448L1150.22 321.505L1151.84 323.581L1177.57 303.525ZM1179.65 382.483L1178.78 379.951L1147.94 390.536L1148.8 393.068L1179.65 382.483ZM1178.84 342.877L1177.57 340.548L1148.9 356.096L1150.17 358.426L1178.84 342.877ZM751.328 517.912L759.331 549.515L761.915 548.857L753.912 517.254L751.328 517.912ZM883.937 126.009L883.481 123.375L851.316 128.744L851.772 131.377L883.937 126.009ZM772.805 52.0647H740.185V54.6983H772.805V52.0647ZM756.698 512.746L759.331 512.543L756.647 480.028L754.013 480.231L756.698 512.746ZM1195.96 37.9343L1193.52 38.9979L1206.64 68.8794L1209.07 67.8158L1195.96 37.9343ZM756.951 370.125L754.317 370.328L757.001 402.843L759.635 402.64L756.951 370.125ZM759.484 406.236L751.48 437.84L754.064 438.498L762.067 406.895L759.484 406.236ZM809.477 12.3071L808.616 9.77479L777.769 20.3599L778.63 22.8923L809.477 12.3071ZM846.91 89.0367L846.454 86.4031L814.289 91.7716L814.745 94.4052L846.91 89.0367ZM772.856 14.9914L772.4 12.3578L740.236 17.7263L740.691 20.3599L772.856 14.9914ZM845.643 9.77479L844.377 7.44505L815.708 22.9936L816.974 25.3233L845.643 9.77479ZM1025.97 77.4893L1023.74 76.0205L1005.91 103.319L1008.14 104.788L1025.97 77.4893ZM722.608 365.618L719.924 333.103L717.29 333.305L719.975 365.82L722.608 365.618ZM754.317 333.356L751.734 334.014L759.737 365.618L762.32 364.959L754.317 333.356ZM759.382 443.208L756.748 443.006L754.064 475.521L756.698 475.723L759.382 443.208ZM740.489 751.443L771.336 762.029L772.197 759.496L741.35 748.911L740.489 751.443ZM770.121 727.386L771.387 725.057L742.718 709.508L741.451 711.838L770.121 727.386ZM772.197 171.034L743.528 155.485L742.262 157.815L770.931 173.363L772.197 171.034ZM719.873 402.894L722.558 370.378L719.924 370.176L717.239 402.691L719.873 402.894ZM745.149 190.381L743.528 192.457L769.259 212.513L770.88 210.437L745.149 190.381ZM735.829 15.042H703.209V17.6757H735.829V15.042ZM766.524 657.342L768.5 655.519L746.415 631.512L744.44 633.336L766.524 657.342ZM742.718 672.485L768.449 692.541L770.07 690.465L744.338 670.409L742.718 672.485ZM749.302 261.083L747.074 262.552L764.903 289.85L767.132 288.382L749.302 261.083ZM761.915 585.88L764.346 584.816L751.227 554.935L748.796 555.998L761.915 585.88ZM746.466 594.49L764.296 621.788L766.524 620.319L748.694 593.021L746.466 594.49ZM764.802 326.873L751.683 296.992L749.252 298.055L762.371 327.937L764.802 326.873ZM769.158 249.536L747.074 225.529L745.098 227.353L767.183 251.359L769.158 249.536ZM846.504 49.3298L845.643 46.7974L814.796 57.3826L815.657 59.9149L846.504 49.3298ZM992.485 118.462L990.864 116.386L965.133 136.442L966.753 138.518L992.485 118.462ZM883.531 86.3524L882.67 83.8201L851.823 94.4052L852.684 96.9376L883.531 86.3524ZM993.751 157.815L992.485 155.485L963.816 171.034L965.082 173.363L993.751 157.815ZM951.912 3.44397L949.684 1.97522L931.854 29.2737L934.083 30.7425L951.912 3.44397ZM994.967 237.077L994.511 234.443L962.347 239.812L962.803 242.445L994.967 237.077ZM994.562 197.42L993.701 194.888L962.853 205.473L963.714 208.006L994.562 197.42ZM990.864 79.3126L988.889 77.4893L966.804 101.496L968.78 103.319L990.864 79.3126ZM1029.51 155.434L1027.89 153.358L1002.16 173.414L1003.78 175.49L1029.51 155.434ZM986.711 1.97522L984.279 0.911638L971.16 30.7931L973.592 31.8567L986.711 1.97522ZM1027.89 116.285L1025.92 114.461L1003.83 138.468L1005.81 140.291L1027.89 116.285ZM1030.78 194.837L1029.51 192.508L1000.84 208.056L1002.11 210.386L1030.78 194.837ZM1031.59 234.392L1030.73 231.86L999.88 242.445L1000.74 244.978L1031.59 234.392ZM1031.99 274.099L1031.54 271.466L999.374 276.834L999.83 279.468L1031.99 274.099ZM988.939 40.4666L986.711 38.9979L968.881 66.2964L971.11 67.7651L988.939 40.4666ZM920.964 163.031L920.508 160.398L888.343 165.766L888.799 168.4L920.964 163.031ZM920.559 123.375L919.697 120.843L888.85 131.428L889.711 133.96L920.559 123.375ZM919.697 83.8201L918.431 81.4903L889.762 97.0389L891.028 99.3686L919.697 83.8201ZM881.455 7.3944L879.834 5.31789L854.052 25.3233L855.673 27.3998L881.455 7.3944ZM918.482 44.4171L916.861 42.3405L891.129 62.3966L892.75 64.4731L918.482 44.4171ZM882.67 46.7974L881.404 44.4677L852.735 60.0162L854.001 62.3459L882.67 46.7974ZM955.458 81.4397L953.837 79.3632L928.106 99.4193L929.726 101.496L955.458 81.4397ZM956.724 120.792L955.458 118.462L926.789 134.011L928.055 136.341L956.724 120.792ZM953.837 42.2899L951.862 40.4666L929.777 64.4731L931.753 66.2964L953.837 42.2899ZM957.94 200.054L957.484 197.42L925.32 202.789L925.776 205.423L957.94 200.054ZM957.535 160.398L956.674 157.865L925.826 168.451L926.687 170.983L957.535 160.398ZM916.861 5.26724L914.885 3.44397L892.801 27.4504L894.776 29.2737L916.861 5.26724ZM809.883 52.014L809.427 49.3804L777.262 54.749L777.718 57.3826L809.883 52.014ZM1401.55 96.9882L1372.89 81.4397L1371.62 83.7694L1400.29 99.318L1401.55 96.9882ZM1402.47 57.4332L1371.62 46.8481L1370.76 49.3804L1401.61 59.9656L1402.47 57.4332ZM1369.8 677.398L1400.64 687.983L1401.5 685.451L1370.66 674.866L1369.8 677.398ZM1399.43 653.392L1400.69 651.062L1372.02 635.513L1370.76 637.843L1399.43 653.392ZM1349.18 328.848L1351.86 296.333L1349.23 296.131L1346.55 328.646L1349.18 328.848ZM1365.44 20.4106L1334.59 9.82544L1333.73 12.3578L1364.58 22.9429L1365.44 20.4106ZM1378.61 187.038L1376.38 188.507L1394.21 215.805L1396.44 214.336L1378.61 187.038ZM1398.52 175.541L1376.43 151.535L1374.46 153.358L1396.54 177.364L1398.52 175.541ZM1351.92 291.623L1349.23 259.108L1346.6 259.311L1349.28 291.826L1351.92 291.623ZM1375.82 520.495L1393.65 547.793L1395.88 546.325L1378.05 519.026L1375.82 520.495ZM1395.88 583.297L1397.86 581.473L1375.77 557.467L1373.8 559.29L1395.88 583.297ZM1372.07 598.44L1397.81 618.496L1399.43 616.42L1373.7 596.364L1372.07 598.44ZM1363.67 614.039L1335 598.491L1333.73 600.82L1362.4 616.369L1363.67 614.039ZM1335.05 561.468L1360.78 581.524L1362.4 579.448L1336.67 559.392L1335.05 561.468ZM1358.85 546.325L1360.83 544.501L1338.75 520.495L1336.77 522.318L1358.85 546.325ZM1391.22 511.834L1393.65 510.771L1380.53 480.889L1378.1 481.953L1391.22 511.834ZM1361.49 138.518L1339.4 114.512L1337.43 116.335L1359.51 140.342L1361.49 138.518ZM1364.53 59.9656L1335.86 44.4171L1334.59 46.7468L1363.26 62.2953L1364.53 59.9656ZM1337.43 79.3126L1335.81 81.3891L1361.54 101.445L1363.16 99.3686L1337.43 79.3126ZM1341.58 150.066L1339.35 151.535L1357.18 178.833L1359.41 177.364L1341.58 150.066ZM1343.81 401.982L1356.93 372.1L1354.5 371.037L1341.38 400.918L1343.81 401.982ZM1357.13 215.856L1344.01 185.974L1341.58 187.038L1354.7 216.919L1357.13 215.856ZM1346.6 222.339L1344.01 222.997L1352.02 254.6L1354.6 253.942L1346.6 222.339ZM1346.44 365.618L1354.45 334.014L1351.86 333.356L1343.86 364.959L1346.44 365.618ZM1351.61 438.498L1354.19 437.84L1346.19 406.236L1343.61 406.895L1351.61 438.498ZM1338.8 483.472L1356.63 510.771L1358.85 509.302L1341.02 482.004L1338.8 483.472ZM1354.19 474.862L1356.63 473.799L1343.51 443.917L1341.08 444.981L1354.19 474.862ZM1374.46 116.335L1372.83 118.412L1398.57 138.468L1400.19 136.391L1374.46 116.335ZM1394.16 252.878L1381.04 222.997L1378.61 224.06L1391.73 253.942L1394.16 252.878ZM1410.77 596.313L1432.86 620.319L1434.83 618.496L1412.75 594.49L1410.77 596.313ZM1433.47 251.359L1415.64 224.06L1413.41 225.529L1431.24 252.828L1433.47 251.359ZM1418.07 260.02L1415.64 261.083L1428.76 290.965L1431.19 289.901L1418.07 260.02ZM1413.41 188.557L1411.43 190.381L1433.52 214.387L1435.49 212.564L1413.41 188.557ZM1437.21 173.414L1411.48 153.358L1409.86 155.434L1435.59 175.49L1437.21 173.414ZM1415.13 518.976L1428.25 548.857L1430.68 547.793L1417.56 517.912L1415.13 518.976ZM1420.3 443.208L1422.98 475.723L1425.61 475.521L1422.93 443.006L1420.3 443.208ZM1423.08 405.983L1420.4 438.498L1423.03 438.701L1425.72 406.186L1423.08 405.983ZM1423.28 370.125L1420.6 402.64L1423.23 402.843L1425.92 370.328L1423.28 370.125ZM1428.65 327.987L1420.65 296.384L1418.07 297.042L1426.07 328.646L1428.65 327.987ZM1434.83 655.519L1436.45 653.442L1410.72 633.386L1409.1 635.463L1434.83 655.519ZM1423.28 333.153L1420.65 333.356L1423.34 365.871L1425.97 365.668L1423.28 333.153ZM1430.68 584.816L1432.91 583.347L1415.08 556.049L1412.85 557.518L1430.68 584.816ZM1388.89 370.378L1380.89 401.982L1383.47 402.64L1391.47 371.037L1388.89 370.378ZM1385.95 405.983L1383.32 406.186L1386 438.701L1388.64 438.498L1385.95 405.983ZM1386.21 365.871L1388.89 333.356L1386.26 333.153L1383.57 365.668L1386.21 365.871ZM1388.94 328.646L1386.26 296.131L1383.62 296.333L1386.31 328.848L1388.94 328.646ZM1383.62 259.311L1381.04 259.969L1389.04 291.572L1391.63 290.914L1383.62 259.311ZM1380.64 443.867L1388.64 475.47L1391.22 474.812L1383.22 443.208L1380.64 443.867ZM1440 54.749L1407.84 49.3804L1407.38 52.014L1439.54 57.3826L1440 54.749ZM1406.82 714.421L1437.67 725.006L1438.53 722.474L1407.68 711.888L1406.82 714.421ZM1409.86 118.462L1408.6 120.792L1437.26 136.341L1438.53 134.011L1409.86 118.462ZM1439.49 94.4559L1408.65 83.8708L1407.78 86.4031L1438.63 96.9882L1439.49 94.4559ZM1407.73 674.866L1436.4 690.414L1437.67 688.084L1409 672.536L1407.73 674.866ZM1439.14 15.042H1406.52V17.6757H1439.14V15.042ZM1280.55 179.897L1272.54 148.293L1269.96 148.952L1277.96 180.555L1280.55 179.897ZM1235.41 254.6L1243.42 222.997L1240.83 222.339L1232.83 253.942L1235.41 254.6ZM1240.88 180.555L1238.2 148.04L1235.57 148.243L1238.25 180.758L1240.88 180.555ZM1238.15 217.78L1240.83 185.265L1238.2 185.063L1235.52 217.578L1238.15 217.78ZM1246.05 104.788L1232.93 74.9063L1230.5 75.9699L1243.62 105.851L1246.05 104.788ZM1235.52 111.271L1232.93 111.929L1240.94 143.532L1243.52 142.874L1235.52 111.271ZM1250.41 27.4504L1228.32 3.44397L1226.35 5.26724L1248.43 29.2737L1250.41 27.4504ZM1265.35 40.4666L1263.37 42.2899L1285.46 66.2964L1287.43 64.4731L1265.35 40.4666ZM1267.22 363.896L1285.05 336.597L1282.83 335.128L1265 362.427L1267.22 363.896ZM1285.41 103.319L1267.58 76.0205L1265.35 77.4893L1283.18 104.788L1285.41 103.319ZM1232.73 290.914L1245.85 261.033L1243.42 259.969L1230.3 289.85L1232.73 290.914ZM1290.47 574.434L1259.63 563.848L1258.77 566.381L1289.61 576.966L1290.47 574.434ZM1289.61 539.994L1260.94 524.445L1259.68 526.775L1288.35 542.324L1289.61 539.994ZM1288.4 505.352L1262.67 485.296L1261.04 487.372L1286.78 507.428L1288.4 505.352ZM1251.37 468.329L1225.64 448.273L1224.02 450.349L1249.75 470.405L1251.37 468.329ZM1253.45 537.462L1222.6 526.876L1221.74 529.409L1252.59 539.994L1253.45 537.462ZM1211.35 29.2737L1193.52 1.97522L1191.3 3.44397L1209.13 30.7425L1211.35 29.2737ZM1198.49 180.555L1201.12 180.758L1203.81 148.243L1201.17 148.04L1198.49 180.555ZM1201.17 111.068L1198.54 111.271L1201.22 143.786L1203.86 143.583L1201.17 111.068ZM1230.2 326.873L1248.03 299.575L1245.8 298.106L1227.97 325.404L1230.2 326.873ZM1198.39 217.578L1206.39 185.974L1203.81 185.316L1195.8 216.919L1198.39 217.578ZM1206.54 105.902L1198.54 74.2985L1195.96 74.9569L1203.96 106.56L1206.54 105.902ZM1250 338.37L1248.03 336.547L1225.94 360.553L1227.92 362.376L1250 338.37ZM1230.55 38.9979L1228.32 40.4666L1246.15 67.7651L1248.38 66.2964L1230.55 38.9979ZM1251.62 377.52L1250 375.443L1224.27 395.499L1225.89 397.576L1251.62 377.52ZM1252.59 502.971L1223.92 487.423L1222.65 489.752L1251.32 505.301L1252.59 502.971ZM1247.77 435.257L1249.75 433.433L1227.66 409.427L1225.69 411.25L1247.77 435.257ZM1269.96 111.929L1267.53 112.993L1280.65 142.874L1283.08 141.81L1269.96 111.929ZM1326.64 577.017L1297.97 561.468L1296.7 563.798L1325.37 579.346L1326.64 577.017ZM1306.78 364.959L1319.9 335.078L1317.47 334.014L1304.35 363.896L1306.78 364.959ZM1309.42 328.595L1317.42 296.992L1314.84 296.333L1306.83 327.937L1309.42 328.595ZM1309.57 185.316L1306.99 185.974L1314.99 217.578L1317.57 216.919L1309.57 185.316ZM1320.11 178.833L1306.99 148.952L1304.55 150.015L1317.67 179.897L1320.11 178.833ZM1324.46 101.496L1302.38 77.4893L1300.4 79.3126L1322.49 103.319L1324.46 101.496ZM1304.55 113.043L1302.33 114.512L1320.16 141.81L1322.38 140.342L1304.55 113.043ZM1319.85 372.151L1302.02 399.45L1304.25 400.918L1322.08 373.62L1319.85 372.151ZM1301.77 446.45L1319.6 473.748L1321.83 472.279L1304 444.981L1301.77 446.45ZM1327.5 22.9429L1298.83 7.3944L1297.57 9.72414L1326.23 25.2726L1327.5 22.9429ZM1306.53 406.895L1304.1 407.958L1317.22 437.84L1319.65 436.776L1306.53 406.895ZM1314.94 254.6L1312.25 222.085L1309.62 222.288L1312.3 254.803L1314.94 254.6ZM1321.83 509.302L1323.8 507.479L1301.72 483.472L1299.74 485.296L1321.83 509.302ZM1312.2 291.826L1314.89 259.311L1312.25 259.108L1309.57 291.623L1312.2 291.826ZM1327.5 611.456L1296.65 600.871L1295.79 603.403L1326.64 613.989L1327.5 611.456ZM1298.02 524.445L1323.75 544.501L1325.37 542.425L1299.64 522.369L1298.02 524.445ZM1285.05 373.62L1262.97 397.626L1264.94 399.45L1287.03 375.443L1285.05 373.62ZM1272.49 254.6L1275.13 254.803L1277.81 222.288L1275.18 222.085L1272.49 254.6ZM1195.7 253.942L1208.82 224.06L1206.39 222.997L1193.27 252.878L1195.7 253.942ZM1266.97 407.958L1264.74 409.427L1282.57 436.725L1284.8 435.257L1266.97 407.958ZM1272.44 291.623L1280.44 260.02L1277.86 259.361L1269.86 290.965L1272.44 291.623ZM1275.23 185.063L1272.59 185.265L1275.28 217.78L1277.91 217.578L1275.23 185.063ZM1300.4 42.2899L1298.78 44.3664L1324.51 64.4225L1326.13 62.3459L1300.4 42.2899ZM1364.48 648.479L1333.63 637.894L1332.77 640.426L1363.62 651.011L1364.48 648.479ZM1262.72 448.273L1284.8 472.279L1286.78 470.456L1264.69 446.45L1262.72 448.273ZM1289.16 25.3233L1263.43 5.26724L1261.8 7.34375L1287.54 27.3998L1289.16 25.3233ZM1269.76 327.937L1282.88 298.055L1280.44 296.992L1267.33 326.873L1269.76 327.937ZM1425.67 512.543L1428.25 511.885L1420.25 480.282L1417.66 480.94L1425.67 512.543ZM1045.16 695.884L1047.59 696.948L1060.71 667.066L1058.28 666.003L1045.16 695.884ZM1042.93 657.393L1045.16 658.861L1062.99 631.563L1060.76 630.094L1042.93 657.393ZM1039.39 579.397L1041.01 581.473L1066.74 561.417L1065.12 559.341L1039.39 579.397ZM1041.01 618.547L1042.99 620.37L1065.07 596.364L1063.09 594.54L1041.01 618.547ZM1038.12 539.994L1039.39 542.324L1068.06 526.775L1066.79 524.445L1038.12 539.994ZM1037.31 500.439L1038.17 502.971L1069.02 492.386L1068.16 489.854L1037.31 500.439ZM1000.13 348.145L1032.3 353.513L1032.75 350.88L1000.59 345.511L1000.13 348.145ZM999.88 423.709L1000.34 426.343L1032.5 420.974L1032.04 418.341L999.88 423.709ZM1047.59 733.97L1050.18 734.629L1058.18 703.025L1055.6 702.367L1047.59 733.97ZM1068.97 348.145H1036.35V350.778H1068.97V348.145ZM1001.4 379.951L1000.54 382.483L1031.39 393.068L1032.25 390.536L1001.4 379.951ZM1050.13 776.362L1052.81 808.877L1055.45 808.674L1052.76 776.159L1050.13 776.362ZM1050.18 771.651L1052.81 771.854L1055.5 739.339L1052.86 739.136L1050.18 771.651ZM1036.91 460.732L1037.36 463.366L1069.53 457.997L1069.07 455.363L1036.91 460.732ZM1075.15 577.017L1076.42 579.346L1105.09 563.798L1103.82 561.468L1075.15 577.017ZM1142.77 460.732L1110.61 455.363L1110.15 457.997L1142.32 463.366L1142.77 460.732ZM1076.42 616.42L1078.04 618.496L1103.77 598.44L1102.15 596.364L1076.42 616.42ZM1073.98 460.681H1106.61V458.048H1073.98V460.681ZM1078.04 655.569L1080.01 657.393L1102.1 633.386L1100.12 631.563L1078.04 655.569ZM1073.93 497.755L1074.39 500.388L1106.55 495.02L1106.1 492.386L1073.93 497.755ZM1079.96 694.365L1082.19 695.833L1100.02 668.535L1097.79 667.066L1079.96 694.365ZM1105.74 423.709L1073.58 418.341L1073.12 420.974L1105.29 426.343L1105.74 423.709ZM1037.16 385.117L1069.32 390.485L1069.78 387.852L1037.62 382.483L1037.16 385.117ZM1087.21 808.674L1089.84 808.877L1092.52 776.362L1089.89 776.159L1087.21 808.674ZM1084.62 770.993L1087.21 771.651L1095.21 740.048L1092.62 739.39L1084.62 770.993ZM1082.19 732.856L1084.62 733.92L1097.74 704.038L1095.31 702.975L1082.19 732.856ZM1036.96 423.709H1069.58V421.076H1036.96V423.709ZM1074.34 537.462L1075.2 539.994L1106.05 529.409L1105.19 526.876L1074.34 537.462ZM966.956 544.501L968.932 546.325L991.016 522.318L989.041 520.495L966.956 544.501ZM968.932 583.347L971.16 584.816L988.99 557.518L986.761 556.049L968.932 583.347ZM971.11 621.839L973.541 622.902L986.66 593.021L984.229 591.957L971.11 621.839ZM981.443 771.651L984.026 770.993L976.023 739.39L973.44 740.048L981.443 771.651ZM963.258 426.394L964.12 428.926L994.967 418.341L994.106 415.808L963.258 426.394ZM965.335 505.352L966.956 507.428L992.688 487.372L991.067 485.296L965.335 505.352ZM964.12 465.949L965.386 468.278L994.055 452.73L992.789 450.4L964.12 465.949ZM994.916 274.15H962.296V276.784H994.916V274.15ZM926.13 274.099L958.295 279.468L958.75 276.834L926.586 271.466L926.13 274.099ZM981.595 628.322L973.592 659.925L976.175 660.583L984.178 628.98L981.595 628.322ZM970.907 778.083L984.026 807.965L986.457 806.901L973.338 777.02L970.907 778.083ZM976.073 702.316L978.758 734.831L981.392 734.629L978.708 702.114L976.073 702.316ZM978.859 665.091L976.175 697.606L978.809 697.809L981.493 665.294L978.859 665.091ZM1002.36 542.374L1003.98 544.451L1029.71 524.395L1028.09 522.318L1002.36 542.374ZM1005.91 620.37L1008.14 621.839L1025.97 594.54L1023.74 593.072L1005.91 620.37ZM965.639 377.57L964.373 379.9L993.042 395.449L994.308 393.119L965.639 377.57ZM1003.98 581.524L1005.96 583.347L1028.04 559.341L1026.07 557.518L1003.98 581.524ZM1000.29 463.416L1001.15 465.949L1031.99 455.363L1031.13 452.831L1000.29 463.416ZM1001.15 502.971L1002.41 505.301L1031.08 489.752L1029.82 487.423L1001.15 502.971ZM1010.57 696.948L1013.15 697.606L1021.15 666.003L1018.57 665.344L1010.57 696.948ZM1008.14 658.861L1010.57 659.925L1023.69 630.044L1021.26 628.98L1008.14 658.861ZM963.157 311.122L995.321 316.491L995.777 313.857L963.613 308.488L963.157 311.122ZM1018.52 702.316L1015.89 702.114L1013.2 734.629L1015.84 734.831L1018.52 702.316ZM963.512 345.46L994.359 356.046L995.22 353.513L964.373 342.928L963.512 345.46ZM1031.94 311.173H999.323V313.806H1031.94V311.173ZM1010.47 777.02L1018.47 808.623L1021.05 807.965L1013.05 776.362L1010.47 777.02ZM1015.79 771.854L1018.42 771.651L1015.73 739.136L1013.1 739.339L1015.79 771.854ZM1110.96 497.704H1143.58V495.07H1110.96V497.704ZM1261.5 801.482L1263.12 803.559L1288.85 783.503L1287.23 781.426L1261.5 801.482ZM1226.09 803.609L1228.07 805.433L1250.15 781.426L1248.18 779.603L1226.09 803.609ZM1259.02 682.817L1259.47 685.451L1291.64 680.082L1291.18 677.449L1259.02 682.817ZM1259.42 722.524L1260.28 725.057L1291.13 714.471L1290.27 711.939L1259.42 722.524ZM1327.86 645.845L1295.69 640.477L1295.23 643.11L1327.4 648.479L1327.86 645.845ZM1297.26 799.102L1298.53 801.432L1327.2 785.883L1325.93 783.553L1297.26 799.102ZM1259.07 645.795H1291.69V643.161H1259.07V645.795ZM1222.4 685.502L1223.26 688.034L1254.11 677.449L1253.24 674.916L1222.4 685.502ZM1223.26 725.057L1224.52 727.386L1253.19 711.838L1251.93 709.508L1223.26 725.057ZM1290.88 608.823L1258.71 603.454L1258.26 606.088L1290.42 611.456L1290.88 608.823ZM1224.47 764.46L1226.09 766.536L1251.83 746.48L1250.2 744.404L1224.47 764.46ZM1222.04 608.772H1254.66V606.138H1222.04V608.772ZM1221.99 645.845L1222.45 648.479L1254.61 643.11L1254.16 640.477L1221.99 645.845ZM1260.23 762.079L1261.5 764.409L1290.17 748.86L1288.9 746.531L1260.23 762.079ZM1370.1 756.812H1402.72V754.178H1370.1V756.812ZM1121.65 807.965L1124.23 808.623L1132.24 777.02L1129.65 776.362L1121.65 807.965ZM1370.05 793.885L1370.5 796.519L1402.67 791.15L1402.21 788.517L1370.05 793.885ZM1370.35 14.9914L1402.52 20.3599L1402.97 17.7263L1370.81 12.3578L1370.35 14.9914ZM1407.13 793.835H1439.75V791.201H1407.13V793.835ZM1438.94 756.863L1406.77 751.494L1406.32 754.128L1438.48 759.496L1438.94 756.863ZM1401.91 719.84L1369.74 714.471L1369.29 717.105L1401.45 722.474L1401.91 719.84ZM1296.1 682.767H1328.72V680.133H1296.1V682.767ZM1333.07 719.789H1365.69V717.156H1333.07V719.789ZM1364.88 682.817L1332.72 677.449L1332.26 680.082L1364.43 685.451L1364.88 682.817ZM1296.05 719.84L1296.5 722.474L1328.67 717.105L1328.21 714.471L1296.05 719.84ZM1333.48 796.57L1334.34 799.102L1365.19 788.517L1364.32 785.984L1333.48 796.57ZM1333.07 756.863L1333.53 759.496L1365.69 754.128L1365.24 751.494L1333.07 756.863ZM1296.45 759.547L1297.31 762.079L1328.16 751.494L1327.3 748.962L1296.45 759.547ZM1179.8 497.755L1147.63 492.386L1147.18 495.02L1179.34 500.388L1179.8 497.755ZM926.535 308.438L957.383 319.023L958.244 316.491L927.397 305.905L926.535 308.438ZM1110.96 534.777L1111.42 537.411L1143.58 532.042L1143.13 529.409L1110.96 534.777ZM1156.24 806.901L1158.68 807.965L1171.79 778.083L1169.36 777.02L1156.24 806.901ZM1150.42 690.414L1152.04 692.491L1177.77 672.435L1176.15 670.358L1150.42 690.414ZM1152.04 729.564L1154.02 731.387L1176.1 707.381L1174.12 705.558L1152.04 729.564ZM1154.02 768.41L1156.24 769.879L1174.07 742.58L1171.85 741.112L1154.02 768.41ZM1116.99 731.387L1119.22 732.856L1137.05 705.558L1134.82 704.089L1116.99 731.387ZM1115.06 692.541L1117.04 694.365L1139.12 670.358L1137.15 668.535L1115.06 692.541ZM1119.22 769.879L1121.65 770.942L1134.77 741.061L1132.34 739.997L1119.22 769.879ZM1112.18 614.039L1113.44 616.369L1142.11 600.82L1140.85 598.491L1112.18 614.039ZM1111.37 574.434L1112.23 576.966L1143.07 566.381L1142.21 563.848L1111.37 574.434ZM1113.44 653.392L1115.06 655.468L1140.8 635.412L1139.17 633.336L1113.44 653.392ZM1186.23 688.034L1187.5 690.364L1216.17 674.815L1214.9 672.485L1186.23 688.034ZM1253.85 571.8L1221.69 566.431L1221.23 569.065L1253.4 574.434L1253.85 571.8ZM1185.37 648.479L1186.23 651.011L1217.08 640.426L1216.22 637.894L1185.37 648.479ZM1187.45 727.437L1189.07 729.513L1214.8 709.457L1213.18 707.381L1187.45 727.437ZM1184.96 608.823L1185.42 611.456L1217.58 606.088L1217.13 603.454L1184.96 608.823ZM1189.07 766.587L1191.04 768.41L1213.13 744.404L1211.15 742.58L1189.07 766.587ZM1185.02 571.749H1217.64V569.116H1185.02V571.749ZM1149.2 651.062L1150.47 653.392L1179.14 637.843L1177.87 635.513L1149.2 651.062ZM1148.34 611.456L1149.2 613.989L1180.05 603.403L1179.19 600.871L1148.34 611.456ZM1147.94 571.8L1148.39 574.434L1180.56 569.065L1180.1 566.431L1147.94 571.8ZM1216.82 534.777L1184.66 529.409L1184.2 532.042L1216.37 537.411L1216.82 534.777ZM1191.04 805.433L1193.27 806.901L1211.1 779.603L1208.87 778.134L1191.04 805.433ZM1147.99 534.727H1180.61V532.093H1147.99V534.727ZM895.131 373.62L893.155 375.443L915.24 399.45L917.215 397.626L895.131 373.62ZM818.494 707.381L840.578 731.387L842.554 729.564L820.469 705.558L818.494 707.381ZM784.1 262.552L782.125 264.375L804.21 288.382L806.185 286.558L784.1 262.552ZM805.527 729.564L807.147 727.488L781.416 707.432L779.795 709.508L805.527 729.564ZM778.428 748.911L807.097 764.46L808.363 762.13L779.694 746.581L778.428 748.911ZM778.428 160.398L809.275 170.983L810.136 168.451L779.288 157.865L778.428 160.398ZM781.467 670.358L803.551 694.365L805.527 692.541L783.442 668.535L781.467 670.358ZM779.288 194.837L807.958 210.386L809.224 208.056L780.555 192.508L779.288 194.837ZM799.144 406.895L786.025 436.776L788.457 437.84L801.576 407.958L799.144 406.895ZM801.322 658.811L803.551 657.342L785.721 630.044L783.493 631.512L801.322 658.811ZM791.293 370.378L788.71 371.037L796.713 402.64L799.296 401.982L791.293 370.378ZM785.823 593.021L798.942 622.902L801.373 621.839L788.254 591.957L785.823 593.021ZM796.358 586.538L798.942 585.88L790.939 554.276L788.355 554.935L796.358 586.538ZM804.159 325.404L786.329 298.106L784.1 299.575L801.93 326.873L804.159 325.404ZM788.761 334.014L786.329 335.078L799.448 364.959L801.88 363.896L788.761 334.014ZM833.386 623.561L835.969 622.902L827.966 591.299L825.382 591.957L833.386 623.561ZM828.016 554.276L830.701 586.791L833.335 586.589L830.65 554.074L828.016 554.276ZM822.85 630.044L835.969 659.925L838.4 658.861L825.281 628.98L822.85 630.044ZM778.022 126.009L810.187 131.377L810.643 128.744L778.478 123.375L778.022 126.009ZM838.349 695.833L840.578 694.365L822.748 667.066L820.52 668.535L838.349 695.833ZM836.171 443.917L823.052 473.799L825.484 474.862L838.603 444.981L836.171 443.917ZM833.487 480.231L825.484 511.834L828.067 512.493L836.07 480.889L833.487 480.231ZM815.455 785.883L844.124 801.432L845.39 799.102L816.721 783.553L815.455 785.883ZM830.751 517.051L828.067 549.566L830.701 549.769L833.386 517.254L830.751 517.051ZM841.186 362.427L823.356 335.128L821.128 336.597L838.957 363.896L841.186 362.427ZM846.859 126.059H814.239V128.693H846.859V126.059ZM823.052 436.725L840.882 409.427L838.653 407.958L820.824 435.257L823.052 436.725ZM836.425 401.982L838.856 400.918L825.737 371.037L823.306 372.1L836.425 401.982ZM807.907 247.409L782.176 227.353L780.555 229.429L806.286 249.485L807.907 247.409ZM736.133 94.4559L705.285 83.8708L704.424 86.4031L735.272 96.9882L736.133 94.4559ZM729.548 620.319L731.523 618.496L709.439 594.49L707.463 596.313L729.548 620.319ZM712.275 224.06L710.047 225.529L727.876 252.828L730.105 251.359L712.275 224.06ZM732.131 212.564L710.047 188.557L708.071 190.381L730.156 214.387L732.131 212.564ZM708.122 153.358L706.501 155.434L732.232 175.49L733.853 173.414L708.122 153.358ZM735.221 134.011L706.552 118.462L705.285 120.792L733.955 136.341L735.221 134.011ZM705.741 635.463L731.473 655.519L733.094 653.442L707.362 633.386L705.741 635.463ZM717.29 296.333L714.707 296.992L722.71 328.595L725.293 327.937L717.29 296.333ZM796.46 443.259L788.457 474.862L791.04 475.521L799.043 443.917L796.46 443.259ZM719.671 475.723L722.304 475.521L719.62 443.006L716.986 443.208L719.671 475.723ZM709.439 557.467L727.269 584.765L729.497 583.297L711.667 555.998L709.439 557.467ZM724.888 548.857L727.319 547.793L714.2 517.912L711.769 518.976L724.888 548.857ZM727.826 289.85L714.707 259.969L712.275 261.033L725.394 290.914L727.826 289.85ZM714.301 480.889L722.304 512.493L724.888 511.834L716.885 480.231L714.301 480.889ZM777.516 788.466L808.363 799.051L809.224 796.519L778.377 785.934L777.516 788.466ZM809.832 89.0873H777.212V91.721H809.832V89.0873ZM740.995 89.0367L773.16 94.4052L773.616 91.7716L741.451 86.4031L740.995 89.0367ZM927.346 342.877L956.015 358.426L957.282 356.096L928.612 340.548L927.346 342.877ZM790.989 517.254L793.674 549.769L796.308 549.566L793.623 517.051L790.989 517.254ZM741.401 123.375L772.248 133.96L773.109 131.428L742.262 120.843L741.401 123.375ZM703.462 714.421L734.309 725.006L735.17 722.474L704.323 711.888L703.462 714.421ZM735.575 756.863L703.411 751.494L702.955 754.128L735.12 759.496L735.575 756.863ZM733.094 690.414L734.36 688.084L705.691 672.536L704.424 674.866L733.094 690.414ZM703.766 793.835H736.386V791.201H703.766V793.835ZM704.019 52.014L736.183 57.3826L736.639 54.749L704.424 49.3804L704.019 52.014ZM739.982 791.15L772.147 796.519L772.603 793.885L740.438 788.517L739.982 791.15ZM793.724 480.028L791.04 512.543L793.674 512.746L796.358 480.231L793.724 480.028ZM892.953 470.456L894.928 472.279L917.013 448.273L915.037 446.45L892.953 470.456ZM719.671 438.701L722.355 406.186L719.721 405.983L717.037 438.498L719.671 438.701ZM891.332 431.306L892.953 433.383L918.684 413.327L917.063 411.25L891.332 431.306ZM891.585 340.548L917.317 360.604L918.938 358.527L893.206 338.471L891.585 340.548ZM889.508 271.415L920.356 282L921.217 279.468L890.37 268.883L889.508 271.415ZM902.07 628.322L904.755 660.837L907.389 660.634L904.704 628.119L902.07 628.322ZM910.225 517.912L897.106 547.793L899.538 548.857L912.657 518.976L910.225 517.912ZM907.389 697.606L909.972 696.948L901.969 665.344L899.386 666.003L907.389 697.606ZM907.541 554.276L899.538 585.88L902.121 586.538L910.124 554.935L907.541 554.276ZM896.853 704.089L909.972 733.97L912.403 732.907L899.284 703.025L896.853 704.089ZM912.707 482.004L894.878 509.302L897.106 510.771L914.936 483.472L912.707 482.004ZM912.403 769.879L914.632 768.41L896.802 741.112L894.574 742.58L912.403 769.879ZM889.103 237.077L921.268 242.445L921.723 239.812L889.559 234.443L889.103 237.077ZM890.319 305.905L918.988 321.454L920.255 319.124L891.585 303.576L890.319 305.905ZM928.308 468.329L929.929 470.405L955.661 450.349L954.04 448.273L928.308 468.329ZM929.929 507.479L931.905 509.302L953.989 485.296L952.014 483.472L929.929 507.479ZM931.905 546.325L934.133 547.793L951.963 520.495L949.734 519.026L931.905 546.325ZM957.94 237.127H925.269V239.761H957.889V237.127H957.94ZM927.093 428.977L928.359 431.306L957.028 415.758L955.762 413.428L927.093 428.977ZM946.999 770.942L949.43 769.879L936.311 739.997L933.88 741.061L946.999 770.942ZM930.233 375.443L928.612 377.52L954.344 397.576L955.965 395.499L930.233 375.443ZM941.782 697.809L944.416 697.606L941.731 665.091L939.097 665.294L941.782 697.809ZM947.202 554.935L934.083 584.816L936.514 585.88L949.633 555.998L947.202 554.935ZM944.466 628.322L941.833 628.119L939.148 660.634L941.782 660.837L944.466 628.322ZM931.601 779.552L949.43 806.851L951.659 805.382L933.829 778.083L931.601 779.552ZM936.413 702.975L944.416 734.578L946.999 733.92L938.996 702.316L936.413 702.975ZM944.568 591.299L936.565 622.902L939.148 623.561L947.151 591.957L944.568 591.299ZM842.503 766.536L844.124 764.46L818.392 744.404L816.771 746.48L842.503 766.536ZM862.359 628.98L870.362 660.583L872.945 659.925L864.942 628.322L862.359 628.98ZM853.798 783.553L879.53 803.609L881.151 801.533L855.419 781.477L853.798 783.553ZM857.851 435.257L879.935 411.25L877.96 409.427L855.875 433.433L857.851 435.257ZM880.239 360.604L858.155 336.597L856.179 338.421L878.264 362.427L880.239 360.604ZM870.413 554.276L867.779 554.074L865.094 586.589L867.728 586.791L870.413 554.276ZM867.728 623.814L870.362 623.611L867.677 591.096L865.043 591.299L867.728 623.814ZM875.984 400.868L878.213 399.399L860.383 372.1L858.155 373.569L875.984 400.868ZM821.128 299.575L819.152 301.398L841.237 325.404L843.212 323.581L821.128 299.575ZM904.806 591.046L902.121 623.561L904.755 623.763L907.439 591.248L904.806 591.046ZM883.886 163.082H851.266V165.716H883.886V163.082ZM844.934 284.431L819.203 264.375L817.582 266.452L843.313 286.508L844.934 284.431ZM815.049 163.031L847.214 168.4L847.669 165.766L815.505 160.398L815.049 163.031ZM815.455 197.42L846.302 208.006L847.163 205.473L816.316 194.888L815.455 197.42ZM816.316 231.86L844.985 247.409L846.251 245.079L817.582 229.53L816.316 231.86ZM852.481 234.392L883.329 244.978L884.19 242.445L853.343 231.86L852.481 234.392ZM852.076 200.054L884.241 205.423L884.696 202.789L852.532 197.42L852.076 200.054ZM870.514 517.254L862.511 548.857L865.094 549.515L873.097 517.912L870.514 517.254ZM920.913 200.105H888.293V202.738H920.913V200.105ZM892.497 781.426L914.581 805.433L916.557 803.609L894.472 779.603L892.497 781.426ZM854.558 303.525L880.29 323.581L881.911 321.505L856.179 301.448L854.558 303.525ZM853.292 268.883L881.961 284.431L883.228 282.101L854.558 266.553L853.292 268.883ZM872.945 696.948L875.376 695.884L862.257 666.003L859.826 667.066L872.945 696.948ZM873.198 480.94L860.079 510.821L862.511 511.885L875.63 482.004L873.198 480.94ZM875.68 444.981L857.851 472.279L860.079 473.748L877.909 446.45L875.68 444.981ZM877.605 768.41L879.58 766.587L857.496 742.58L855.521 744.404L877.605 768.41ZM857.547 705.558L875.376 732.856L877.605 731.387L859.776 704.089L857.547 705.558Z" fill="white"/>
</g>
</svg>
