<svg width="24" height="24" viewBox="0 0 24 24" fill="none" xmlns="http://www.w3.org/2000/svg">
<path fill-rule="evenodd" clip-rule="evenodd" d="M23.8089 21.1337L17.8089 15.2959C20.7024 11.4229 20.069 6.03973 16.3507 2.90323C12.6325 -0.233273 7.06586 -0.0800735 3.53577 3.25591C0.00567806 6.5919 -0.313967 12.0013 2.79991 15.7089C5.91378 19.4166 11.4257 20.1895 15.4889 17.4883L21.5555 23.391L23.8089 21.1337ZM3.43554 9.86009C3.43554 6.2777 6.42031 3.3736 10.1022 3.3736C13.7841 3.3736 16.7689 6.2777 16.7689 9.86009C16.7689 13.4425 13.7841 16.3466 10.1022 16.3466C8.3341 16.3466 6.63841 15.6632 5.38816 14.4467C4.13792 13.2303 3.43554 11.5804 3.43554 9.86009Z" fill="black"/>
</svg>
