<svg id="Layer_1" data-name="Layer 1" xmlns="http://www.w3.org/2000/svg" xmlns:xlink="http://www.w3.org/1999/xlink" width="500" height="500" viewBox="0 0 500 500"><defs><style>.cls-1,.cls-2{fill:none;}.cls-2{stroke:#000;stroke-miterlimit:10;stroke-width:0.45px;isolation:isolate;opacity:0.57;}.cls-3{opacity:0.85;}.cls-4{clip-path:url(#clip-path);}.cls-5{fill:url(#radial-gradient);}.cls-6{clip-path:url(#clip-path-2);}.cls-7{fill:url(#linear-gradient);}.cls-8{fill:url(#linear-gradient-2);}</style><clipPath id="clip-path"><rect class="cls-1" x="71.8" y="72.8" width="358.7" height="355.1"/></clipPath><radialGradient id="radial-gradient" cx="-2651.45" cy="1445.51" r="528.16" gradientTransform="matrix(-0.52, 0, 0, 0.49, -1115.69, -432.34)" gradientUnits="userSpaceOnUse"><stop offset="0" stop-color="#73cc30"/><stop offset="0.51" stop-color="#5ca3fc"/><stop offset="0.74" stop-color="#281bfa"/></radialGradient><clipPath id="clip-path-2"><path class="cls-1" d="M114.7,277.7,106,260.5h5.1l5.9,11.8,5.9-11.8H128l-8.6,17.1v8h-4.8v-7.9Zm15.6-17.2h18v4.4H135.1v5.9h11.8v4.4H135.1v5.9h13.2v4.5h-18Zm29.5,0h7.5l8.5,25.1h-5l-1.8-5.2H157.8l-1.8,5.2h-5Zm7.8,15.5-4.1-12.4L159.3,276Zm10.9-15.5h11a9.26,9.26,0,0,1,4.4,1.1,8.38,8.38,0,0,1,3.1,3.1,7.77,7.77,0,0,1,1.1,4.2,7.11,7.11,0,0,1-.7,3.2,8.06,8.06,0,0,1-1.8,2.6,7.71,7.71,0,0,1-2.7,1.7l5.6,9.1h-5.2l-5.2-8.5h-4.8v8.5h-4.8v-25Zm10.9,12.3a4,4,0,0,0,2.9-1.1,3.85,3.85,0,0,0,1.2-2.9,3.93,3.93,0,0,0-1.1-2.8,3.77,3.77,0,0,0-2.9-1.1h-6.2v8h6.1Zm21.7,13a16.26,16.26,0,0,1-5.2-.9,19.51,19.51,0,0,1-5-2.5v-5a25.08,25.08,0,0,0,5.3,2.9,14.22,14.22,0,0,0,5.1,1.1,8,8,0,0,0,2.3-.3,3.07,3.07,0,0,0,1.5-1,2.46,2.46,0,0,0,.5-1.5,2.55,2.55,0,0,0-1.5-2.2,20.32,20.32,0,0,0-5.1-1.8,18.56,18.56,0,0,1-4.6-1.7,7.49,7.49,0,0,1-2.6-2.3,5.38,5.38,0,0,1-.9-3.1,6.15,6.15,0,0,1,1.2-3.8,7.84,7.84,0,0,1,3.3-2.6,11.44,11.44,0,0,1,4.6-.9,16.69,16.69,0,0,1,5.2.8,27.86,27.86,0,0,1,4.2,1.8v4.9a22,22,0,0,0-4.6-2.3,14.45,14.45,0,0,0-4.8-.9,7.32,7.32,0,0,0-2.2.3,2.84,2.84,0,0,0-1.5,1,2,2,0,0,0-.6,1.5,1.8,1.8,0,0,0,.7,1.5,6.74,6.74,0,0,0,1.9,1,22.32,22.32,0,0,0,3.2.9c.2,0,.3.1.5.1s.3.1.5.1c2.9.7,5,1.7,6.2,3.1a6.44,6.44,0,0,1,1.8,4.5,6,6,0,0,1-1.3,4,8.62,8.62,0,0,1-3.4,2.5A10.85,10.85,0,0,1,211.1,285.8Zm30-25.3h7.5l8.5,25.1h-5l-1.8-5.2H239.1l-1.8,5.2h-5ZM249,276l-4.1-12.4L240.7,276Zm6.5-15.5h5.3l6.8,21.7,7-21.7h5.2l-8.4,25.1h-7.7Zm27.4,0h18v4.4H287.7v5.9h11.8v4.4H287.7v5.9h13.2v4.5h-18Zm21.6,0h11a9.26,9.26,0,0,1,4.4,1.1,8.38,8.38,0,0,1,3.1,3.1,7.77,7.77,0,0,1,1.1,4.2,7.11,7.11,0,0,1-.7,3.2,8.06,8.06,0,0,1-1.8,2.6,7.71,7.71,0,0,1-2.7,1.7l5.6,9.1h-5.2l-5.2-8.5h-4.8v8.5h-4.8Zm10.9,12.3a4,4,0,0,0,2.9-1.1,3.85,3.85,0,0,0,1.2-2.9,3.93,3.93,0,0,0-1.1-2.8,3.77,3.77,0,0,0-2.9-1.1h-6.2v8h6.1Zm19.7-12.3h7.5l8.5,25.1h-5l-1.8-5.2H333.1l-1.8,5.2h-5Zm7.8,15.5-4.1-12.4L334.6,276Zm20.9,9.8a12.75,12.75,0,0,1-6.4-1.7,13.23,13.23,0,0,1-4.7-4.7A12,12,0,0,1,351,273a12.75,12.75,0,0,1,1.7-6.4,13.23,13.23,0,0,1,4.7-4.7,12.9,12.9,0,0,1,13.3.3,13.75,13.75,0,0,1,4.6,5.5l-4.6,1.3a7,7,0,0,0-2.8-3.1,7.74,7.74,0,0,0-4-1.1,8.11,8.11,0,0,0-4.1,1.1,6.78,6.78,0,0,0-2.8,3,8.68,8.68,0,0,0-1,4.2,7.81,7.81,0,0,0,7.9,8.2,8.66,8.66,0,0,0,3.2-.6,7,7,0,0,0,2.6-1.9,7.21,7.21,0,0,0,1.6-3H364l-.1-4.1H376v1.8a12.42,12.42,0,0,1-1.6,6.4,11,11,0,0,1-4.4,4.4A12.64,12.64,0,0,1,363.8,285.8Zm15.1-25.3h18v4.4H383.7v5.9h11.8v4.4H383.7v5.9h13.2v4.5h-18ZM176.7,328.9a16.26,16.26,0,0,1-5.2-.9,19.51,19.51,0,0,1-5-2.5v-5a25.08,25.08,0,0,0,5.3,2.9,14.22,14.22,0,0,0,5.1,1.1,8,8,0,0,0,2.3-.3,3.07,3.07,0,0,0,1.5-1,2.46,2.46,0,0,0,.5-1.5,2.55,2.55,0,0,0-1.5-2.2,20.32,20.32,0,0,0-5.1-1.8A18.56,18.56,0,0,1,170,316a7.49,7.49,0,0,1-2.6-2.3,5.38,5.38,0,0,1-.9-3.1,6.15,6.15,0,0,1,1.2-3.8,7.84,7.84,0,0,1,3.3-2.6,11.44,11.44,0,0,1,4.6-.9,17.85,17.85,0,0,1,5.3.8,27.86,27.86,0,0,1,4.2,1.8v4.9a22,22,0,0,0-4.6-2.3,14.45,14.45,0,0,0-4.8-.9,7.32,7.32,0,0,0-2.2.3,2.84,2.84,0,0,0-1.5,1,2,2,0,0,0-.6,1.5,1.8,1.8,0,0,0,.7,1.5,6.74,6.74,0,0,0,1.9,1,22.32,22.32,0,0,0,3.2.9c.2,0,.3.1.5.1s.3.1.5.1c2.9.7,5,1.7,6.2,3.1a6.44,6.44,0,0,1,1.8,4.5,6,6,0,0,1-1.3,4,8.62,8.62,0,0,1-3.4,2.5A15.1,15.1,0,0,1,176.7,328.9Zm12.5-25.4h18v4.4H194.1v5.9h11.8v4.4H194.1v5.9h13.2v4.5h-18V303.5Zm32.9,25.3a12.75,12.75,0,0,1-6.4-1.7,12.23,12.23,0,0,1-4.6-4.7,13,13,0,0,1-1.7-6.4,12.75,12.75,0,0,1,1.7-6.4,13,13,0,0,1,4.6-4.7,11.81,11.81,0,0,1,6.4-1.7,12,12,0,0,1,6.9,2.1,13.75,13.75,0,0,1,4.6,5.5l-4.6,1.3a8.67,8.67,0,0,0-2.8-3.2,7.07,7.07,0,0,0-4.1-1.2,8.11,8.11,0,0,0-4.1,1.1,6.78,6.78,0,0,0-2.8,3,8.68,8.68,0,0,0-1,4.2,7.81,7.81,0,0,0,7.9,8.2,7.24,7.24,0,0,0,4-1.1,7.45,7.45,0,0,0,2.7-3.1l4.7,1.3a13,13,0,0,1-4.6,5.5A11.85,11.85,0,0,1,222.1,328.8Zm25,.1a10.67,10.67,0,0,1-5.3-1.3,9.66,9.66,0,0,1-3.8-3.7,9.91,9.91,0,0,1-1.4-5.4v-15h4.8v14.9a6.5,6.5,0,0,0,.8,3.1,5.3,5.3,0,0,0,2.1,2.1,5.3,5.3,0,0,0,5.6,0,5.3,5.3,0,0,0,2.1-2.1,6.21,6.21,0,0,0,.8-3.1V303.5h4.8v14.9a10.85,10.85,0,0,1-1.4,5.4,9.66,9.66,0,0,1-3.8,3.7A10.76,10.76,0,0,1,247.1,328.9Zm14.3-25.4h11a9.26,9.26,0,0,1,4.4,1.1,8.38,8.38,0,0,1,3.1,3.1,7.77,7.77,0,0,1,1.1,4.2,7.11,7.11,0,0,1-.7,3.2,8.06,8.06,0,0,1-1.8,2.6,7.71,7.71,0,0,1-2.7,1.7l5.6,9.1h-5.2L271,320h-4.8v8.5h-4.8Zm10.9,12.3a4,4,0,0,0,2.9-1.1,3.85,3.85,0,0,0,1.2-2.9,3.93,3.93,0,0,0-1.1-2.8,3.77,3.77,0,0,0-2.9-1.1h-6.2v8h6.1Zm12.4-12.3h4.8v25.1h-4.8Zm16,4.5h-7.9v-4.5h20.3V308h-7.6v20.6h-4.8ZM324,320.7l-8.7-17.2h5.1l5.9,11.8,5.9-11.8h5.1l-8.6,17.1v8h-4.8v-7.9ZM143.7,346.5h18v4.4H148.5v5.9h11.8v4.4H148.5v5.9h13.2v4.5h-18ZM173,359l-8.5-12.5h5.6l6.3,9.7,6.4-9.7h5.6L179.9,359l8.5,12.5h-5.6l-6.4-9.7-6.3,9.7h-5.6Zm18.3-12.5h11a8.71,8.71,0,0,1,7.5,4.3,7.77,7.77,0,0,1,1.1,4.2,8.86,8.86,0,0,1-1.1,4.3,8.11,8.11,0,0,1-3.1,3,9.26,9.26,0,0,1-4.4,1.1h-6.2v8.1h-4.8Zm10.6,12.6a4.14,4.14,0,0,0,3.1-1.2,4.07,4.07,0,0,0,1.2-3A3.85,3.85,0,0,0,205,352a4.17,4.17,0,0,0-3.2-1.1H196v8.3ZM214,346.5h18v4.4H218.8v5.9h11.8v4.4H218.8v5.9H232v4.5H214Zm21.7,0h11a9.26,9.26,0,0,1,4.4,1.1,8.38,8.38,0,0,1,3.1,3.1,7.77,7.77,0,0,1,1.1,4.2,7.11,7.11,0,0,1-.7,3.2,8.06,8.06,0,0,1-1.8,2.6,7.71,7.71,0,0,1-2.7,1.7l5.6,9.1h-5.2l-5.2-8.5h-4.8v8.5h-4.8v-25Zm10.9,12.3a4,4,0,0,0,2.9-1.1,3.85,3.85,0,0,0,1.2-2.9,3.93,3.93,0,0,0-1.1-2.8,3.77,3.77,0,0,0-2.9-1.1h-6.2v8h6.1Zm12.3-12.3h4.8v25.1h-4.8Zm9,0h18v4.4H272.7v5.9h11.8v4.4H272.7v5.9h13.2v4.5h-18Zm21.8,0h8l9.3,20.9V346.5h4.7v25.1H304l-9.5-21.4v21.4h-4.7V346.5Zm38,25.3a12.75,12.75,0,0,1-6.4-1.7,12.23,12.23,0,0,1-4.6-4.7A13,13,0,0,1,315,359a12.75,12.75,0,0,1,1.7-6.4,13,13,0,0,1,4.6-4.7,11.81,11.81,0,0,1,6.4-1.7,12,12,0,0,1,6.9,2.1,13.75,13.75,0,0,1,4.6,5.5l-4.6,1.3a8.67,8.67,0,0,0-2.8-3.2,7.07,7.07,0,0,0-4.1-1.2,8.11,8.11,0,0,0-4.1,1.1,6.78,6.78,0,0,0-2.8,3,8.68,8.68,0,0,0-1,4.2,7.81,7.81,0,0,0,7.9,8.2,7.24,7.24,0,0,0,4-1.1,7.45,7.45,0,0,0,2.7-3.1l4.7,1.3a13,13,0,0,1-4.6,5.5A11.85,11.85,0,0,1,327.7,371.8Zm14.6-25.3h18v4.4H347.1v5.9h11.8v4.4H347.1v5.9h13.2v4.5h-18Z"/></clipPath><linearGradient id="linear-gradient" x1="140.63" y1="-1018.17" x2="383.48" y2="-775.32" gradientTransform="matrix(1, 0, 0, -1, 0, -561.84)" gradientUnits="userSpaceOnUse"><stop offset="0" stop-color="#281bfa"/><stop offset="0.6" stop-color="#5ca3fc"/><stop offset="0.66" stop-color="#60aada"/><stop offset="0.78" stop-color="#68b991"/><stop offset="0.88" stop-color="#6ec35d"/><stop offset="0.96" stop-color="#72c93c"/><stop offset="1" stop-color="#73cc30"/></linearGradient><linearGradient id="linear-gradient-2" x1="191.5" y1="-736.9" x2="311.55" y2="-736.9" xlink:href="#linear-gradient"/></defs><path class="cls-1" d="M470.28,344.68h17.1l17.5,52.5h-11.6l-3.4-10.4h-22.3l-3.4,10.4h-11.7Zm16.3,31.9-7.7-24.1-7.9,24.1Zm27.5-31.9h23.2a17.53,17.53,0,0,1,9.3,2.5,18,18,0,0,1,6.7,6.7,17,17,0,0,1,2.5,9,16.51,16.51,0,0,1-2.5,9,17.18,17.18,0,0,1-6.7,6.4,18.78,18.78,0,0,1-9.4,2.4l-11.8.1v16.4h-11.3Zm22.4,25.9a8.37,8.37,0,0,0,6.1-2.4,7.85,7.85,0,0,0,2.4-5.8,7.2,7.2,0,0,0-2.4-5.5,8.93,8.93,0,0,0-6.1-2.2l-11.1.1v15.8Zm29.4-25.9h23.2a17.53,17.53,0,0,1,9.3,2.5,18,18,0,0,1,6.7,6.7,17,17,0,0,1,2.5,9,16.4,16.4,0,0,1-1.3,6.5,17.26,17.26,0,0,1-9.2,9.2l11.2,18.7h-12l-10.4-17.2h-8.8v17.2h-11.2Zm23.2,25.5a7.54,7.54,0,0,0,5.5-2.2,7.39,7.39,0,0,0,2.2-5.5,7.16,7.16,0,0,0-2.2-5.4,7.39,7.39,0,0,0-5.5-2.2h-11.8v15.4h11.8Zm29.4-25.5h38v10.4h-26.8v10.7h23.8V376h-23.8v10.7h26.8v10.4h-38Zm49.5,0h18l17.7,41.7-.1-41.7h11v52.5h-17.5l-18.1-43v43H668v-52.5Zm58.4-.1h19.9a27.16,27.16,0,0,1,13.5,3.5,26.28,26.28,0,0,1,9.8,9.5,26.37,26.37,0,0,1,0,26.6,26,26,0,0,1-9.7,9.5,27.54,27.54,0,0,1-13.6,3.5h-19.9Zm19.9,42.2a16.25,16.25,0,0,0,8.3-2.1,14.61,14.61,0,0,0,5.6-5.7,16.76,16.76,0,0,0,2-8.1,17.15,17.15,0,0,0-2-8.2,13.73,13.73,0,0,0-5.6-5.6,17.27,17.27,0,0,0-8.3-2h-8.5v31.6h8.5Zm37-42.1h38v10.4h-26.8v10.7h23.8V376h-23.8v10.7h26.8v10.4h-38Zm49.3,0h23.2a17.53,17.53,0,0,1,9.3,2.5,18,18,0,0,1,6.7,6.7,17,17,0,0,1,2.5,9,16.4,16.4,0,0,1-1.3,6.5,17.26,17.26,0,0,1-9.2,9.2l11.2,18.7H863l-10.4-17.2h-8.7v17.2h-11.3Zm23.1,25.5a7.54,7.54,0,0,0,5.5-2.2,7.39,7.39,0,0,0,2.2-5.5,7.16,7.16,0,0,0-2.2-5.4,7.39,7.39,0,0,0-5.5-2.2h-11.8v15.4h11.8Zm-196.3,78.6h-12.1v-9.7h12.1v-11.4h9.7v11.4h12.1v9.7h-12.1v11.3h-9.7ZM446,481.28h17.1l17.5,52.5H469l-3.4-10.4h-22.3l-3.4,10.4h-11.7Zm16.3,31.9-7.7-24.1-7.9,24.1Zm27.1-32h19.9a27.16,27.16,0,0,1,13.5,3.5,26.28,26.28,0,0,1,9.8,9.5,26.37,26.37,0,0,1,0,26.6,26,26,0,0,1-9.7,9.5,27.54,27.54,0,0,1-13.6,3.5h-19.9Zm19.9,42.1a16.25,16.25,0,0,0,8.3-2.1,14.61,14.61,0,0,0,5.6-5.7,16.76,16.76,0,0,0,2-8.1,17.15,17.15,0,0,0-2-8.2,13.73,13.73,0,0,0-5.6-5.6,17.27,17.27,0,0,0-8.3-2h-8.5v31.6h8.5Zm48.7-42h17.1l17.5,52.5h-11.7l-3.4-10.4h-22.3l-3.4,10.4h-11.7Zm16.2,31.9-7.7-24.1-7.9,24.1Zm27.5-31.9h23.2a17.53,17.53,0,0,1,9.3,2.5,18,18,0,0,1,6.7,6.7,17,17,0,0,1,2.5,9,16.51,16.51,0,0,1-2.5,9,17.18,17.18,0,0,1-6.7,6.4,18.78,18.78,0,0,1-9.4,2.4l-11.8.1v16.4h-11.3Zm22.5,25.9a8.37,8.37,0,0,0,6.1-2.4,7.85,7.85,0,0,0,2.4-5.8,7.2,7.2,0,0,0-2.4-5.5,8.93,8.93,0,0,0-6.1-2.2l-11.1.1v15.8Zm43.9-15.4h-16v-10.5h42.6v10.5h-15.4v42h-11.2v-42Zm46.1-10.5h17.1l17.5,52.5h-11.6l-3.4-10.4h-22.3l-3.4,10.4h-11.7Zm16.3,31.9-7.7-24.1-7.9,24.1Zm27.5-31.9h23.2a17.53,17.53,0,0,1,9.3,2.5,18,18,0,0,1,6.7,6.7,17,17,0,0,1,2.5,9,16.4,16.4,0,0,1-1.3,6.5,17.26,17.26,0,0,1-9.2,9.2l11.2,18.7h-12L778,516.68h-8.8v17.2h-11.3v-52.6Zm23.1,25.5a7.54,7.54,0,0,0,5.5-2.2,7.39,7.39,0,0,0,2.2-5.5,7.16,7.16,0,0,0-2.2-5.4,7.39,7.39,0,0,0-5.5-2.2h-11.8v15.4h11.8Zm49.2,27.6a38.64,38.64,0,0,1-10.8-2,42.82,42.82,0,0,1-10.5-5.2v-11.5a61.17,61.17,0,0,0,11.5,6.1,30.93,30.93,0,0,0,10.6,2.2,17,17,0,0,0,4.1-.5,5.15,5.15,0,0,0,2.7-1.6,4.06,4.06,0,0,0,1-2.7c0-1.5-1-2.8-3-4s-5.6-2.4-10.8-3.7a31.12,31.12,0,0,1-9.3-3.6,15.45,15.45,0,0,1-5.4-5,12.48,12.48,0,0,1-1.7-6.4,13.63,13.63,0,0,1,2.5-8.1,17.24,17.24,0,0,1,6.9-5.5,23.36,23.36,0,0,1,9.7-2,34.93,34.93,0,0,1,11.4,1.8,51.37,51.37,0,0,1,8.7,3.8V498a43.85,43.85,0,0,0-10-4.7,32.61,32.61,0,0,0-10-1.8,13.09,13.09,0,0,0-4.1.6,7,7,0,0,0-2.8,1.7,3.62,3.62,0,0,0-1,2.7,3.47,3.47,0,0,0,1.5,2.8,15,15,0,0,0,3.8,1.9c1.5.5,3.7,1.1,6.4,1.8l.9.3c.3.1.7.1,1,.2,6.1,1.5,10.4,3.7,12.8,6.5a14,14,0,0,1,3.6,9.4,13.7,13.7,0,0,1-2.7,8.5,16,16,0,0,1-7.2,5.2A33.69,33.69,0,0,1,830.28,534.38Zm29.9-53.1h38v10.4h-26.8v10.7h23.8v10.2h-23.8v10.7h26.8v10.4h-38Z"/><rect class="cls-2" x="42.5" y="42.5" width="415" height="415"/><g class="cls-3"><g class="cls-4"><path class="cls-5" d="M163.4,117.1l-3.9-9.6-1,.9,3.9,9.6Zm1,49.9-6-10.2-.9,1.2,6,10.2ZM163,92.1l-3-9.2-1,.8,3,9.2Zm.9,50-4.9-10-.9,1.1,4.9,10ZM162.5,41.9,160.4,34l-1.1.7,2.1,7.9Zm.1,25.2-2.3-8.7-1.1.7,2.3,8.7Zm3.7,174.1-10-10-.6,1.5,10,10ZM165,191.8l-7.2-10.3-.8,1.3,7.2,10.3Zm2,74-11.6-9.5-.6,1.6,11.6,9.5ZM146-8.7,144.1-15l-1.1.7L144.9-8Zm0-25.1-1.7-5.7-1.1.7,1.7,5.7Zm19.6,250.4-8.5-10.3-.7,1.4,8.5,10.3ZM162.4,16.7l-1.9-7.2-1.1.7,1.9,7.2Zm16.5,50.6-2-8.9-1.1.6,2,8.9ZM146.1,16.5,144,9.6l-1.1.7,2.1,6.9Zm33.1,75.8-2.7-9.5-1.1.7,2.7,9.5Zm.4,25-3.6-10-1,.8,3.6,10Zm-.9-100.5-1.6-7.4L176,10l1.6,7.4Zm1.4,125.5-4.6-10.5-1,1,4.6,10.5ZM178.8,42,177,33.9l-1.1.6,1.8,8.1Zm1.8,125.3-5.7-10.8-.9,1.1,5.7,10.8Zm2.7,99L172,255.7l-.6,1.5,11.3,10.6Zm-21-299.9-1.5-5.9-1.1.7,1.5,5.9Zm20.2,275.3-9.7-10.9-.7,1.4,9.7,10.9ZM162.3-8.5,160.6-15l-1.1.7,1.7,6.5Zm18.9,200.7-6.9-11-.8,1.2,6.9,11ZM178.6-8.4l-1.5-6.7-1.1.6,1.5,6.7ZM181.8,217l-8.2-11.1-.8,1.3,8.2,11.1Zm-50-50.7-6.6-9-.8,1.3,6.6,9Zm.6,24.7-7.8-8.9-.7,1.4,7.8,8.9Zm.6,24.7-9.1-8.6-.6,1.5,9.1,8.6Zm-2.5-124-3.6-8.5-1,1,3.6,8.5Zm.8,49.8-5.5-8.9-.9,1.2,5.5,8.9Zm2.4,98.7-10.5-8.1-.5,1.6,10.5,8.1ZM114.2,91.4l-3.9-8.1-.9,1,3.9,8.1Zm-.4-24.9-3.1-7.8-1,.9,3.1,7.8Zm-.2-50.3L111,9.8l-1,.9,2.6,6.4Zm20.8,248.5-12-7.4-.4,1.6,12,7.4Zm-4.3-198-2.8-8.1-1,.8,2.8,8.1ZM113.7,41.3l-2.8-7.1-1,.9,2.8,7.1ZM113.4-9l-2.3-5.8-1,.9,2.3,5.8Zm-.1-25.1-2.1-5.3-1,.9,2.1,5.3ZM130,41.5l-2.6-7.4-1,.8,2.6,7.4Zm17.6,100.3-5.2-9.5-.9,1.1,5.2,9.5Zm.5,24.8-6.3-9.6-.8,1.3,6.3,9.6Zm.6,24.8-7.5-9.6-.8,1.4,7.5,9.6ZM146.3,41.7,144,34.1l-1.1.7,2.3,7.6Zm.1,25.2-2.6-8.4-1.1.7,2.6,8.4Zm.3,25-3.3-8.8-1,.9,3.3,8.8Zm.4,25-4.2-9.2-1,1,4.2,9.2ZM129.7-8.8l-2.1-6.1-1,.8L128.7-8Zm0-25.1-1.9-5.5-1,.8,1.9,5.5Zm.2,50.2-2.4-6.7-1,.8,2.4,6.7Zm19.4,199.8-8.8-9.4-.7,1.5,8.8,9.4Zm1.4,49.1-11.8-8.4-.5,1.6,11.8,8.4Zm-.7-24.5-10.3-9.1-.6,1.5,10.3,9.1ZM130.9,116.6l-4.5-8.7-.9,1.1,4.5,8.7ZM227.4-33.1l-.7-6.5-1.2.3.7,6.5Zm3.1,251.3-7.1-13.3-.9,1.1,7.1,13.3Zm-3-201-.8-7.9-1.2.3.8,7.9ZM178.6-33.5l-1.3-6.1-1.1.6,1.3,6.1Zm48.9,76-.9-8.7-1.2.3.9,8.7Zm18.6,151.1-5.4-13.5-1,.9,5.4,13.5Zm1.4,50-8.3-14.4-.9,1.2,8.3,14.4Zm.8,24.8-10-14.6-.8,1.3,10,14.6ZM227.6,67.7l-1-9.6-1.2.3,1,9.6Zm2.3,125.5-5.8-12.9-1,1,5.8,12.9Zm-1.1-50.1-3.5-11.8-1.1.7,3.5,11.8Zm.5,25.1-4.6-12.4-1,.9,4.6,12.4Zm-1-50.2-2.5-11.1-1.1.6,2.5,11.1Zm-.4-25.1-1.7-10.3-1.1.4,1.7,10.3ZM227.5-8l-.8-7.2-1.2.3.8,7.2Zm16.2.1-.5-7.3L242-15l.5,7.3Zm1.8,176.4-4.1-12.9-1.1.8,4.1,12.9ZM263.7,244l-7.8-15.2-.9,1.1,7.8,15.2Zm.8,24.9L255,253.4l-.9,1.2,9.5,15.5Zm-2.2-75-4.9-14.1-1,.8,4.9,14.1Zm.6,25.1-6.3-14.7-1,1,6.3,14.7ZM243.7-33l-.5-6.6-1.1.1.5,6.6Zm.8,151.2-2.2-11.4-1.1.5,2.2,11.4ZM244.2,93l-1.4-10.6-1.1.3,1.4,10.6Zm.8,50.4-3.1-12.2-1.1.6,3.1,12.2Zm-1.2-75.5-.7-9.7-1.2.2.7,9.7Zm0-50.6-.6-8-1.2.2.6,8Zm0,25.3-.6-8.8L242,34l.6,8.8Zm2.9,176-6.7-14-.9,1,6.7,14ZM195,42.2l-1.5-8.3-1.1.5,1.5,8.3Zm.9,75.4-3.2-10.4-1.1.8,3.2,10.4Zm-.4-25.1-2.4-9.8-1.1.6,2.4,9.8Zm-.4-25.1-1.7-9.2-1.1.5,1.7,9.2Zm-.2-100.8-1.1-6.3-1.1.5,1.1,6.3ZM195,17l-1.4-7.6-1.1.5,1.4,7.6Zm-.1-25.2-1.2-6.9-1.1.5,1.2,6.9Zm4.7,275.1-11-11.6-.7,1.5,11,11.6Zm-3.3-124.3-4.2-10.9-1,.9,4.2,10.9Zm1.8,74.8-7.9-11.8-.8,1.3,7.9,11.8Zm17.7,50-10.7-12.6-.7,1.4,10.7,12.6Zm-17-25.2-9.4-11.8-.7,1.4,9.4,11.8ZM-33,64.4l-5-4.2-.6,1.5,5,4.2ZM197.4,192.5l-6.5-11.7-.9,1.1,6.5,11.7Zm33.9,50.6-8.7-13.6-.8,1.2,8.7,13.6ZM211.2-8.1l-1-7-1.1.4,1,7Zm0,25.2-1.1-7.7-1.1.4,1.1,7.7Zm.1,25.2-1.2-8.5-1.1.4,1.2,8.5Zm.1,25.3-1.3-9.4-1.1.4,1.3,9.4Zm20.7,200.3-10.4-13.6-.8,1.3,10.4,13.6Zm-21-301.2-.9-6.4-1.1.4.9,6.4Zm3.9,276L206,230l-.8,1.3,9,12.7Zm-1.9-74.8L208.2,156l-1,.9,4.9,11.9Zm.6,25-6.2-12.3-.9,1.1,6.2,12.3Zm.6,24.9-7.5-12.6-.9,1.2,7.5,12.6Zm-1.7-74.9-3.8-11.4-1,.8,3.8,11.4Zm-.5-25.1-2.9-10.7-1.1.7,2.9,10.7Zm-.4-25.1-2.1-10.1-1.1.5,2.1,10.1ZM99.3,165.6l-7.1-7.7-.7,1.4,7.1,7.7ZM15.3-35.1l-3.1-3.8-.7,1.4,3.1,3.8Zm37.2,297L40,260l-.1,1.8,12.5,1.9ZM-.9-10.2-4.4-14l-.7,1.4,3.5,3.8ZM17.2,139.2l-7-4.8L9.7,136l7,4.8ZM15.5-10l-3.4-4.2-.7,1.4,3.4,4.2Zm.3,50.1-4.1-5L11,36.5l4.1,5ZM15.7,15,12,10.4l-.7,1.4L15,16.4Zm.7,74.9-5.3-5.4L10.4,86l5.3,5.4Zm3.2,172.6v-1.8L7.2,261v1.8Zm-.5-25.8L7.8,235.5l-.1,1.8L19,238.5ZM-1-35.2l-3.2-3.5-.7,1.4,3.2,3.5ZM18.6,212.5,8.5,210.1l-.2,1.8,10.1,2.4Zm-.5-24.4L9,184.7l-.3,1.7,9.1,3.4Zm-.5-24.4-8-4.2-.4,1.7,8,4.2ZM16,65.2l-4.5-5.5-.7,1.4,4.5,5.5ZM32.2,40.3l-3.9-5.4-.8,1.3,3.9,5.4ZM32,15.2l-3.6-4.9-.8,1.3,3.6,4.9Zm.4,50.2-4.3-5.9-.8,1.3,4.3,5.9ZM31.8-9.9l-3.2-4.5-.8,1.3L31-8.6Zm.9,100.1-5.1-5.9-.7,1.4L32,91.6Zm-1-125.1L28.8-39,28-37.7l2.9,4.1Zm4.4,296.2-12.5-.8v1.8l12.5.8ZM35,212.9l-10.1-3.3-.3,1.7,10.1,3.3Zm-1.9-98-6-5.7-.6,1.5,6,5.7Zm1.4,73.7-8.9-4.2-.3,1.7,8.9,4.2Zm1,48.6L24.3,235l-.1,1.8L35.4,239Zm-2-97.7-6.9-5.4-.5,1.6,6.9,5.4Zm.5,24.6-7.9-4.9-.4,1.6,7.9,4.9ZM16.8,114.6l-6.1-5.2-.6,1.6,6.1,5.2ZM-15.1,163l-8.2-2.8-.3,1.7,8.2,2.8Zm.4,24.3-9.2-1.8-.2,1.8,9.2,1.8Zm-.8-48.8-7.3-3.5-.4,1.7,7.3,3.5Zm-.4-24.5-6.4-4-.4,1.6,6.4,4Zm-.7-49.3L-21.5,60l-.6,1.5,4.9,4.7Zm.3,24.7L-21.9,85l-.5,1.6,5.6,4.4Zm2.1,122.2-10.2-.7-.1,1.8,10.2.7Zm-19-172.2-4.5-3.9-.6,1.5,4.5,3.9Zm-.2-25-4.1-3.5-.6,1.5,4.1,3.5Zm-.2-25-3.8-3.2-.6,1.5,3.8,3.2Zm19.9,248.1-.1-1.8-11.2.7.1,1.8ZM-16.8,39.6l-4.4-4.3-.6,1.5,4.4,4.3Zm3.6,221.9-.2-1.8-12.2,2.4.2,1.8ZM-33.8-35.6l-3.4-2.9-.6,1.5,3.4,2.9ZM2.7,236.2-8.5,236v1.8l11.2.2ZM-17,14.6l-4-3.9-.6,1.5,4,3.9ZM.8,138.8l-7.2-4.1-.4,1.7,7.2,4.1Zm.5,24.5-8.1-3.5-.3,1.7L1,165ZM.1,89.6l-5.5-4.9L-6,86.2l5.5,4.9ZM-.3,64.9-5,59.8l-.7,1.4L-1,66.3Zm-.2-25-4.3-4.6-.7,1.4,4.3,4.6Zm.9,74.4-6.3-4.6-.5,1.6,6.3,4.6ZM3.2,262l-.1-1.8-12.3,1.4.1,1.8ZM1.7,187.7l-9.1-2.6-.2,1.7,9.1,2.6ZM-17.2-10.4l-3.6-3.5-.6,1.5,3.6,3.5Zm-.2-25-3.3-3.2-.6,1.5,3.3,3.2ZM2.2,212-8,210.4l-.1,1.8,10.2,1.6ZM-.7,14.8l-3.9-4.2L-5.3,12l3.9,4.2ZM48.7,65.6l-4.1-6.3-.8,1.2,4.1,6.3ZM80.8-9.3l-2.7-5.3-.9,1.1,2.7,5.3Zm20.9,272.8-12.3-5.2-.3,1.7,12.3,5.2ZM80.7-34.4l-2.5-4.8-.9,1.1,2.5,4.8ZM98.8,140.8l-6-7.8-.8,1.3,6,7.8Zm162.9,28L258,155.5l-1.1.7,3.7,13.3ZM99.8,190.2l-8.3-7.4-.6,1.5,8.3,7.4Zm.6,24.6-9.5-6.9-.5,1.6,9.5,6.9Zm.6,24.4-10.9-6.1-.4,1.7,10.9,6.2ZM81,15.8,78,9.9,77.1,11l3,5.9Zm.6,75.1-4.4-7.2-.9,1.2,4.4,7.2Zm.9,49.6-6.3-7.2-.7,1.4,6.3,7.2ZM82,115.8l-5.3-7.3-.8,1.3,5.3,7.3Zm-.7-49.7L77.7,59l-.9,1.1,3.6,7.1Zm-.2-25.2-3.3-6.4-.9,1.1L80.2,42Zm16.3.2-3.1-6.8-1,1,3.1,6.8Zm19.3,174.1-9.3-7.7-.6,1.6,9.3,7.7Zm1.4,48.9-12.2-6.3-.4,1.7,12.2,6.3Zm-2-73.5-8-8.1-.6,1.5,8,8.1Zm1.3,49.1-10.7-7.1-.5,1.6,10.7,7.1Zm-1.8-73.8-6.9-8.3L108,159l6.9,8.3Zm-.5-24.8-5.8-8.4-.8,1.3,5.8,8.4ZM97.1-9.1l-2.5-5.6-1,1,2.5,5.6ZM83,165.2l-7.3-7-.6,1.5,7.3,7ZM97.6,66.3l-3.4-7.4-1,1,3.4,7.4Zm.3,24.9-4.2-7.7-.9,1.1L97,92.3Zm.4,24.8-5.1-7.8-.8,1.2,5.1,7.8ZM97-34.2l-2.3-5.1-1,1L96-33.2ZM97.3,16,94.5,9.9l-1,1L96.3,17Zm-47,148.5-7.7-5.6-.5,1.6,7.7,5.6ZM48-34.7,45.2-39l-.8,1.2,2.8,4.3Zm.2,25-3.1-4.8-.8,1.2,3.1,4.8Zm.1,25.1-3.4-5.2-.8,1.2,3.4,5.2ZM83.5,189.8,75,183.2l-.5,1.6,8.5,6.6ZM48.5,40.5l-3.7-5.8L44,35.9l3.7,5.8ZM68.3,238.2,57.2,234l-.3,1.7L68,239.9Zm46.3-121.9-4.8-8.3-.9,1.2,4.8,8.3ZM49.9,139.8l-6.7-6-.6,1.5,6.7,6Zm2,97.9-11.2-3.2-.2,1.7,11.2,3.2Zm-.5-24.3-10-4.2-.3,1.7,10,4.2ZM49,90.4,44.1,84l-.8,1.3,4.9,6.4ZM67.7,213.8l-9.9-5.1-.4,1.7,9.9,5.1ZM49.4,115.2,43.6,109l-.7,1.4,5.8,6.2ZM68.9,262.4l-12.5-3-.2,1.8,12.5,3ZM64.6,15.6,61.4,10l-.9,1.2,3.2,5.6Zm-.2-50.2-2.6-4.6L60.9-38l2.6,4.6Zm.1,25.1-2.9-5-.9,1.2,2.9,5ZM85.3,263l-12.4-4.1-.2,1.7,12.4,4.1Zm-.6-24.3-11-5.2-.3,1.7,11,5.2Zm-.6-24.4-9.7-6-.4,1.6,9.7,6ZM67.2,189.4l-8.7-5.8-.5,1.6,8.7,5.8Zm-1-49.2-6.5-6.6-.7,1.5,6.5,6.6Zm.5,24.6-7.6-6.3-.6,1.6,7.5,6.3Zm-1-49.3-5.5-6.8-.7,1.4,5.5,6.8Zm-.4-24.8-4.7-6.8-.8,1.3L64.5,92ZM65,65.9l-3.9-6.7-.9,1.2,3.9,6.7Zm-.2-25.2-3.5-6.1-.9,1.2,3.5,6.1ZM196.9,167.6l-5.3-11.4-1,1,5.3,11.4Zm245.2-58.1-.8-1.2-5.1,7.8.8,1.2Zm18.5,100.4-.4-1.6-9.7,6,.4,1.6Zm.6,25.3-.3-1.7-11,5.2.3,1.7Zm-1.7-75.5-.6-1.5-7.3,7,.6,1.5Zm2.4,100.9-.2-1.7L449.3,263l.2,1.7Zm-3.3-150.8-.8-1.3-5.3,7.3.8,1.3Zm.4,24.9-.7-1.4-6.3,7.2.7,1.4Zm-.8-49.8-.9-1.2-4.4,7.2.9,1.2ZM440.8-38.3l-1-1-2.3,5.1,1,1Zm.5,98.2-1-1-3.4,7.4,1,1Zm.4,24.8-.9-1.1-4.2,7.7.9,1.1Zm-.5-49.3-1-1-3.1,6.8,1,1ZM441,10.8l-1-1-2.8,6.1,1,1ZM410.6,183.6l-.7-1.4-7.8,8.9.7,1.4Zm49.4,1.2-.5-1.6-8.5,6.6.5,1.6Zm17.1,25.6-.4-1.7-9.9,5.1.4,1.7ZM457.8,60.1l-.9-1.1-3.6,7.1.9,1.1Zm18.7,125.1-.5-1.6-8.7,5.8.5,1.6Zm-1-50.2-.7-1.5-6.5,6.6.7,1.5Zm-.4-24.9-.7-1.4-5.5,6.8.7,1.4Zm-.4-24.9-.8-1.3-4.7,6.8L470,92Zm1.3,74.9-.6-1.6-7.5,6.3.6,1.6ZM457.5,11l-.9-1.1-3,5.9.9,1.1Zm.2,24.6-.9-1.1-3.3,6.4.9,1.1Zm16.6,24.7-.9-1.2-3.9,6.7.9,1.2ZM457.4-13.6l-.9-1.1-2.7,5.3.9,1.1Zm20.9,274.8-.2-1.8-12.5,3,.2,1.8ZM457.2-38.1l-.9-1.1-2.5,4.8.9,1.1Zm20.4,273.8-.3-1.7-11.1,4.2.3,1.7ZM408.1,10.5l-1-.8-2.4,6.7,1,.8ZM408-14.1l-1-.8-2.1,6.1,1,.8Zm21,273.6-.4-1.7-12.2,6.3.4,1.7ZM426.6,159l-.7-1.4-6.9,8.3.7,1.4Zm.5,25-.6-1.5-8,8.1.6,1.5Zm1.2,50.2-.5-1.6-10.7,7.1.5,1.6Zm-.6-25.2-.6-1.5-9.3,7.7.6,1.6Zm14.8-74.6-.8-1.3-6,7.8.8,1.3Zm-33-.6-.9-1.2-5.5,8.9.9,1.2Zm-.4-24.9-.9-1.1-4.5,8.7.9,1.1ZM408.2,35l-1-.8-2.6,7.4,1,.8Zm1.9,123.6-.8-1.3-6.6,9,.8,1.3Zm-1.8-99.1-1-.8-2.8,8.1,1,.8Zm.4,24.7-1-1-3.6,8.5,1,1Zm-.8-122.8-1-.8L405-33.9l1,.8Zm36.9,273.3-.4-1.7-10.9,6.2.4,1.7ZM424.3-38.5l-1-.9-2.1,5.3,1,.9Zm21.2,298.6-.3-1.7-12.3,5.2.3,1.7Zm-1.3-50.6-.5-1.6-9.5,6.9.5,1.6Zm-.6-25.1-.6-1.5-8.3,7.4.6,1.5Zm-.6-25.1-.7-1.4-7.1,7.7.7,1.4ZM424.5,10.7l-1-.9-2.6,6.4,1,.9Zm.7,73.7-.9-1-3.9,8.1.9,1Zm-.4-24.7-1-.9-3.1,7.8,1,.9Zm.8,49.5-.9-1.2-4.8,8.3.9,1.2ZM424.4-13.9l-1-.9L421.1-9l1,.9Zm1.6,148-.8-1.3-5.8,8.4.8,1.3Zm-1.3-98.9-1-.9-2.8,7.1,1,.9Zm16.2-48.9-1-1-2.5,5.6,1,1ZM524.1,86l-.7-1.5-5.3,5.4.7,1.5Zm-.4-25-.7-1.4-4.5,5.5.7,1.4Zm.8,50-.6-1.6-6.1,5.2.6,1.6ZM474.1,35.8l-.9-1.2-3.5,6.1.9,1.2Zm49.1-48.6-.7-1.4L519.1-10l.7,1.4ZM524.9,136l-.5-1.6-7,4.8.5,1.6Zm-1.4-99.6-.7-1.4-4.1,5,.7,1.4Zm1.8,124.8-.4-1.7-8,4.2.4,1.7Zm2,99.9-12.4-.3v1.8l12.4.3ZM506.6-37.6l-.8-1.3-2.9,4.1.8,1.3Zm20.2,274.8-.1-1.8-11.3,1.2.1,1.8ZM523-37.5l-.7-1.4-3.1,3.8.7,1.4Zm2.8,223.9-.3-1.7-9.1,3.4.3,1.7Zm.5,25.4-.2-1.8L516,212.4l.2,1.8Zm15.4-50.2-.3-1.7-8.1,3.5.3,1.7Zm-1.2-75.4-.6-1.5-5.5,4.9.6,1.5Zm3.2,175.4-12.3-1.4-.1,1.8,12.3,1.4ZM540.2,61.2l-.7-1.4-4.7,5.1.7,1.4ZM539.8,12l-.7-1.4-3.9,4.2.7,1.4Zm-.2-24.6-.7-1.4-3.5,3.8.7,1.4Zm-.2-24.7-.7-1.4-3.2,3.5.7,1.4Zm.6,73.9-.7-1.4L535,39.8l.7,1.4Zm.9,74.7-.5-1.6-6.3,4.6.5,1.6Zm2.2,126.4v-1.8l-11.2.2v1.8Zm-.9-50.9-.2-1.7-9.1,2.6.2,1.7Zm.4,25.4-.1-1.8L532.3,212l.1,1.8ZM506.7-13l-.8-1.3-3.2,4.5.8,1.3Zm34.6,149.4-.4-1.7-7.2,4.1.4,1.7Zm-18-124.6-.7-1.4L518.9,15l.7,1.4ZM492,135.4l-.6-1.5-6.7,6,.6,1.5Zm.9,50.2-.4-1.7-8.8,5,.4,1.7Zm-1.4-75.2-.7-1.4-5.8,6.2.7,1.4ZM490.6,36l-.8-1.2-3.7,5.8.8,1.2Zm.5,49.4-.8-1.3-4.9,6.4.8,1.3Zm-.3-24.9-.8-1.2-4.1,6.3.8,1.2Zm1.6,99.9-.5-1.6-7.7,5.6.5,1.6ZM473.8-13.4l-.9-1.2-2.9,5,.9,1.2Zm19.7,224.3-.3-1.7-10,4.2.3,1.7ZM474,11.2l-.9-1.2-3.2,5.6.9,1.2ZM473.7-38l-.9-1.2-2.6,4.6.9,1.2Zm33.2,49.6-.8-1.3-3.6,4.9.8,1.3ZM494,236.2l-.2-1.7-11.2,3.2.2,1.7Zm.6,25.6-.1-1.8L482,261.9l.1,1.8Zm14.3-101-.4-1.6-7.9,4.9.4,1.6ZM490.4,11.4l-.8-1.2-3.4,5.2.8,1.2Zm17.2,74.3-.7-1.4-5.1,5.9.7,1.4Zm.4,25-.6-1.5-6,5.7.6,1.5Zm-.9-74.5-.8-1.3-3.9,5.4.8,1.3Zm.2,24.6-.8-1.3-4.3,5.9.8,1.3Zm1.1,74.9-.5-1.6-6.9,5.4.5,1.6ZM511,262.3v-1.8l-12.5.8v1.8ZM509.4,186l-.3-1.7-8.9,4.2.3,1.7ZM490.3-13.2l-.8-1.2-3.1,4.8.8,1.2Zm-.2-24.6-.8-1.2-2.8,4.3.8,1.2Zm19.8,249.1-.3-1.7-10.1,3.3.3,1.7Zm.5,25.4-.1-1.8-11.2,2.2.1,1.8ZM391.6,10.3l-1.1-.7-2.1,6.9,1.1.7Zm-66.1-.6-1.1-.4L323.3,17l1.1.4ZM309.1,34l-1.2-.3-.9,8.7,1.2.3Zm2.3,147.3-1-1-5.8,12.9,1,1ZM312,206l-.9-1.1L304,218.2l.9,1.1ZM309.1,58.4l-1.2-.3-1,9.6,1.2.3Zm.3,24.6-1.1-.4-1.7,10.3,1.1.4Zm.4,24.5-1.1-.6L306.2,118l1.1.6Zm.5,24.6-1.1-.7-3.5,11.8,1.1.7ZM292.5-15l-1.2-.2-.5,7.3,1.2.2Zm0,24.5-1.2-.2-.6,8,1.2.2Zm20.3,221.3-.8-1.2-8.7,13.6.8,1.2ZM292.5,33.9l-1.2-.2-.6,8.8,1.2.2Zm-.1-73.4-1.2-.2-.5,6.6,1.2.2Zm21.2,295.2-.8-1.3L302.4,268l.8,1.3Zm15.7-24.4-.8-1.3-9,12.7.8,1.3ZM327.4,157l-1-.9L321.5,168l1,.9Zm-1-49.3-1.1-.7-2.9,10.7,1.1.7Zm.5,24.6-1-.8-3.8,11.4,1,.8ZM309,9.6l-1.2-.3-.8,7.9,1.2.3Zm16.6,24.6-1.1-.4-1.2,8.5,1.1.4Zm0,24.4-1.1-.4-1.3,9.4,1.1.4Zm.4,24.5-1.1-.5-2.1,10.1,1.1.5Zm4.1,173.1-.7-1.4-10.7,12.6.7,1.4ZM308.9-39.4l-1.2-.3-.7,6.5,1.2.3Zm.1,24.5-1.2-.3L307-8l1.2.3ZM292.5,58.3l-1.2-.2-.7,9.7,1.2.2ZM328,181.7l-.9-1.1-6.2,12.3.9,1.1Zm.6,24.7-.9-1.2-7.5,12.6.9,1.2Zm-17.8-49.7-1-.9-4.6,12.4,1,.9Zm-31.2,73.2-.9-1.1L270.9,244l.9,1.1ZM260-32.9l-.2-6.7-1.2.1.2,6.7Zm20.4,287.6-.9-1.2L270,269l.9,1.2Zm-1.5-49.4-1-1L271.6,219l1,1Zm-2.2-98.2-1.1-.4-1.8,11.7,1.1.4Zm.9,49-1.1-.7-3.7,13.3,1.1.7Zm.6,24.6-1-.8L272.3,194l1,.8Zm-1.1-49.1-1.1-.5-2.7,12.5,1.1.5ZM260.1,68l-.3-9.9-1.2.1.3,9.9ZM260-7.8l-.3-7.4-1.2.1.3,7.4Zm.8,126.2L259,106.7l-1.1.4,1.8,11.7Zm-.4-25.2-1-10.8-1.2.2,1,10.8ZM260,42.7l-.3-9-1.2.1.3,9Zm0-25.3-.3-8.2-1.2.1.3,8.2Zm15.9-32.5-1.2-.1-.3,7.4,1.2.1ZM294.8,181l-1-.9-5.4,13.5,1,.9Zm.7,24.6-.9-1-6.7,14,.9,1Zm-1.3-49.2-1.1-.8L289,168.5l1.1.8Zm-.9-49.1-1.1-.5L290,118.2l1.1.5Zm-17-24.6-1.2-.2-1,10.8,1.2.2ZM411.2,208.6l-.6-1.5-9.1,8.6.6,1.5Zm-115,21.8-.9-1.2L287,243.6l.9,1.2Zm.8,24.8-.8-1.3-10,14.6.8,1.3Zm-21-197-1.2-.1-.3,9.9,1.2.1Zm0-48.8-1.2-.1-.3,8.2,1.2.1Zm0,24.4-1.2-.1-.3,9,1.2.1Zm-.1-73.4-1.2-.1-.2,6.7,1.2.1Zm17,122.4-1.1-.3-1.4,10.6,1.1.3Zm.8,49-1.1-.6-3.1,12.2,1.1.6ZM375.1,10.2,374,9.5l-1.9,7.2,1.1.7Zm.1,24.4-1.1-.7L372,41.8l1.1.7Zm.4,49.1-1-.8-3,9.2,1,.8Zm4.1,174.1-.6-1.6-11.6,9.5.6,1.6Zm16.4.6-.5-1.6-11.8,8.4.5,1.6ZM375-14.4l-1.1-.7-1.7,6.5,1.1.7Zm-.1-24.5-1.1-.7-1.5,5.9,1.1.7Zm.4,98-1.1-.7-2.3,8.7,1.1.7Zm2.3,123.7-.8-1.3-7.2,10.3.8,1.3ZM325.5-14.8l-1.1-.4-1,7,1.1.4Zm53.4,247.5-.6-1.5-10,10,.6,1.5Zm-2.4-99.5-.9-1.1-4.9,10,.9,1.1Zm.5,24.7-.9-1.2-6,10.2.9,1.2Zm-1-49.5-1-.9-3.9,9.6,1,.9Zm19.4,124.8-.6-1.5-10.3,9.1.6,1.5ZM391.5-14.2l-1.1-.7-1.9,6.3,1.1.7Zm.2,49-1.1-.7-2.3,7.6,1.1.7Zm-.3-73.6-1.1-.7-1.7,5.7,1.1.7ZM261.2,143.6l-2.7-12.5-1.1.5,2.7,12.5ZM412.6,259l-.4-1.6-12,7.4.4,1.6Zm-.7-25.3-.5-1.6-10.5,8.1.5,1.6Zm-17.2-25.6-.7-1.5-8.8,9.4.7,1.5Zm-1.2-49.8-.8-1.3-6.3,9.6.8,1.3Zm-1.7-99-1.1-.7L388.1,67l1.1.7Zm1.2,74.1-.9-1.1-5.2,9.5.9,1.1Zm1.1,49.8-.8-1.4-7.5,9.6.8,1.4Zm-1.5-74.5-1-1-4.2,9.2,1,1ZM392.2,84l-1-.9-3.3,8.8,1,.9Zm-14,123.7-.7-1.4L369,216.6l.7,1.4ZM342.5,83.3l-1.1-.6-2.3,9.8,1.1.6ZM342-14.6l-1.1-.5-1.2,6.9,1.1.5Zm.9,122.5-1.1-.8-3.2,10.4,1.1.8Zm-.9-98-1.1-.5L339.5,17l1.1.5Zm1.4,122.7-1-.9-4.2,10.9,1,.9Zm-1.3-98.3-1.1-.5-1.5,8.3,1.1.5Zm.1,24.4-1.1-.5-1.7,9.2,1.1.5Zm1.7,98.6-1-1-5.3,11.4,1,1ZM325.4-39.3l-1.1-.4-.9,6.4,1.1.4Zm20.5,271-.7-1.4-9.4,11.8.7,1.4Zm.8,25-.7-1.5-11,11.6.7,1.5ZM344.5,182l-.9-1.1-6.5,11.6.9,1.1Zm.7,24.8-.8-1.3-7.9,11.8.8,1.3Zm15.9-24.4-.8-1.2-6.9,11,.8,1.2ZM358.6,34.5l-1.1-.6L355.7,42l1.1.6Zm.1,24.4-1.1-.6-2,8.9,1.1.6Zm.4,24.6-1.1-.7-2.7,9.5,1.1.7Zm.4,24.7-1-.8-3.6,10,1,.8ZM358.6,10l-1.1-.6-1.6,7.4,1.1.6Zm-.1-24.5-1.1-.6-1.5,6.7,1.1.6ZM360,132.9l-1-1-4.6,10.5,1,1Zm2.4,99.3-.7-1.4L352,241.7l.7,1.4ZM341.9-39.2l-1.1-.5-1.1,6.3,1.1.5Zm21.3,296.5-.6-1.5-11.3,10.6.6,1.5Zm-1.5-50-.8-1.3-8.2,11.1.8,1.3ZM358.4-39l-1.1-.6L356-33.5l1.1.6Zm2.1,196.6-.9-1.1-5.7,10.8.9,1.1ZM50.8,189,42,184l-.4,1.7,8.8,5ZM287.5,329.3l7.3,15.1.9-1-7.3-15.1Zm.8,25.1,5.7,14.4,1-.9-5.7-14.4Zm-1.6-50.2,9,15.7.9-1.2-9-15.7Zm-1-24.9,11,16,.8-1.3-11-16Zm3.2,100.3,4.4,13.6,1.1-.8L290,378.8Zm1,50.4,2.2,11.8,1.1-.5-2.1-11.8Zm-.4-25.2,3.2,12.7,1.1-.6-3.2-12.7Zm16.7,25.4,2.6,11.5,1.1-.6-2.6-11.5Zm-.5-25.2,3.6,12.3,1.1-.7-3.6-12.3Zm-15.3,50.3,1.4,10.8,1.1-.3L291.5,455Zm14.7-75.4,4.8,13.1,1-.9L306.1,379ZM307,506l.9,8.7,1.2-.3-.9-8.7Zm-2.5-151.2,6.2,13.8,1-1-6.2-13.8Zm2.1,100.6,1.8,10.6,1.1-.4L307.7,455Zm.3,25.2,1,9.7,1.2-.3-1-9.7Zm-32.8-25.5,1,11,1.2-.2-1-11Zm.4,25.3.3,10,1.2-.1-.3-10Zm-.8-50.6,1.8,12.1,1.1-.4-1.8-12.1Zm.8,75.9.3,9,1.2-.1-.3-9ZM253.6,294.6l.9,1.2,10.5-17-.9-1.3Zm19.7,110,2.8,13.1,1.1-.5-2.8-13.1Zm-3.7-125.9,10.5,17,.9-1.2-10.5-17Zm21.1,201.8.7,9.9,1.2-.2-.7-9.9Zm0,25.3.6,8.9,1.2-.2-.6-8.9Zm-20.2-202,8.5,16.5.9-1.1-8.5-16.5Zm2.2,75.5,3.9,14.1,1.1-.7-3.9-14.1Zm-1.3-50.4,6.8,15.8,1-1-6.8-15.8Zm.7,25.2,5.3,15,1-.8-5.3-15Zm30.8-49.4,9.4,14.8.8-1.2-9.4-14.8Zm32.4,1,10.2,12.9.7-1.4-10.1-12.8Zm1.6,49.8,7,12.5.9-1.1-7-12.5Zm-33.2-25.8,7.7,14.4.9-1.1-7.7-14.4Zm33.8,50.8,5.6,12,1-1-5.6-12Zm1.5,75.3,2.5,10,1.1-.6-2.5-10Zm-.9-50.2,4.4,11.4,1-.9-4.4-11.4Zm.5,25.1,3.4,10.8,1.1-.8-3.4-10.8Zm17,50.4,2,9.1,1.1-.6-2-9.1Zm-.8-50.2,3.7,10.4,1-.8-3.7-10.4ZM334.4,281l12.2,12.8.7-1.5-12.2-12.8Zm20.9,175,2.8,9.7,1.1-.7-2.8-9.7Zm-1-50.1,4.8,10.9,1-1-4.8-10.9Zm-14.9,75,1.7,9.3,1.1-.5-1.7-9.3Zm16.3,25.5,1.8,8.2,1.1-.6-1.8-8.2ZM336.1,330.6l8.5,12.8.8-1.3-8.5-12.8ZM323.2,506.1l1.2,8.6,1.1-.4-1.2-8.6Zm16.3.1,1.5,8.4,1.1-.5-1.5-8.4Zm-16.7-50.6,2.1,10.3,1.1-.5-2.1-10.3ZM301.9,279.8l11.4,15,.8-1.3-11.4-15Zm-47.3,39.4.9,1.1,8.5-16.5-.9-1.1Zm67.8,111.3,3,11.1,1.1-.7-3-11.1Zm.8,50.3,1.4,9.5,1.1-.4-1.4-9.5Zm-4.1-175.6L329,319l.8-1.3-9.9-13.8Zm.8,24.9,8.1,13.6.9-1.2-8.1-13.6Zm-1.7-49.7L330,294.3l.7-1.4L318.9,279Zm3.7,124.9,4,11.9,1-.8-4-11.9Zm-.6-25.1,5.2,12.6,1-.9-5.2-12.6Zm-.6-25.1,6.6,13.1.9-1.1L321.6,354ZM242,490.2l1.2.2.7-9.9-1.2-.2ZM187.3,292.3l.7,1.5L200.2,281l-.7-1.5Zm21.6,197.6,1.1.4,1.4-9.5-1.1-.4ZM188.2,317.2l.7,1.4,10.2-12.9-.7-1.4Zm20.7,197.1,1.1.4,1.2-8.6-1.1-.4ZM190.4,391.5l1,1,5.6-12-1-1Zm-1.3-49.4.8,1.3,8.5-12.8-.8-1.3Zm.7,24.7.9,1.1,7-12.5-.9-1.1Zm18.3,74.1,1.1.7,3-11.1-1.1-.7Zm-1.7-73.7.9,1.1,6.6-13.1-.9-1.1Zm-.8-24.7.9,1.2,8.1-13.6-.9-1.2Zm2.9,122.9,1.1.5,2.1-10.3-1.1-.5ZM207,391.8l1,.9,5.2-12.6-1-.9Zm-16,24.3,1,.9,4.4-11.4-1-.9Zm13.8-98.3.8,1.3,9.9-13.8-.8-1.3Zm2.8,98.6,1,.8,4-11.9-1-.8Zm-33.1-.6,1,1,4.8-10.9-1-1Zm.5,24.6,1,.8,3.7-10.4-1-.8Zm-1.1-49.2.9,1.1,6-11.4-.9-1.1Zm17.6,49.5,1.1.8,3.4-10.8-1.1-.8Zm-18.3-74.3.8,1.2,7.3-11.7-.8-1.2Zm2.6,123.2,1.1.6,2-9.1-1.1-.6Zm-.4-24.6,1.1.7,2.8-9.7-1.1-.7Zm16.9,24.8,1.1.5,1.7-9.3-1.1-.5Zm.1,24.4,1.1.5,1.5-8.4-1.1-.5Zm-.4-49,1.1.6,2.5-10-1.1-.6ZM171.7,316.7l.7,1.4L183,306.2l-.7-1.4Zm.8,24.9.8,1.3,8.9-11.9-.8-1.3Zm-1.7-49.9.6,1.5,12.5-11.6-.6-1.5Zm68,51.7.9,1,7.3-15.1-.9-1Zm16.6.4,1,1,6.8-15.8-1-1ZM238,318.7l.9,1.2,9-15.7L247,303ZM237,294l.8,1.3,11-16L248,278ZM175.9,514l1.1.6,1.8-8.2-1.1-.6Zm63.6-146.1,1,.9,5.7-14.4-1-.9Zm19.1,146.8,1.2.1.3-9-1.2-.1ZM240.2,392.4l1.1.8,4.4-13.6-1.1-.8Zm17.1,24.7,1.1.5,2.8-13.1-1.1-.5Zm-.5-24.4,1.1.7,3.9-14.1-1.1-.7Zm-15.6,48.6,1.1.5,2.2-11.8-1.1-.5Zm14.9-73.1,1,.8,5.3-15-1-.8Zm2.1,97.7,1.2.2,1-11-1.2-.2Zm-.4-24.4,1.1.4,1.8-12.1-1.1-.4Zm.7,48.8,1.2.1.3-10-1.2-.1Zm-16.9-24.5,1.1.3,1.4-10.8L243,455Zm-16.5-.2,1.1.4,1.8-10.6-1.1-.4Zm-.5-24.5,1.1.6,2.6-11.5-1.1-.6Zm-.4-24.5,1.1.7,3.6-12.3-1.1-.7Zm-.6-24.5,1,.9,4.8-13.1-1-.9Zm1.8,98,1.2.3,1-9.7-1.2-.3Zm.1,24.3,1.2.3.9-8.7-1.2-.3Zm-5.1-220.9.8,1.3,11.4-15-.8-1.3ZM242,514.6l1.2.2.6-8.9-1.2-.2ZM353.7,380.9l6,11.4.9-1.1-6-11.4Zm-149.8-88,.7,1.4,11.8-13.9-.7-1.4Zm19,74.7,1,1,6.2-13.8-1-1Zm-1.5-49.4.8,1.2,9.4-14.8-.8-1.2Zm.8,24.7.9,1.1,7.7-14.4-.9-1.1Zm18.5,74,1.1.6,3.2-12.7-1.1-.6Zm243.8-8.4,7,6.3.6-1.5-7-6.3Zm.9,49.4,5,6.5.8-1.3-5-6.5ZM502.1,483l4.4,6,.8-1.3-4.4-6Zm-16.3-.2,4.2,6.4.8-1.2-4.2-6.4Zm.2,25.1,3.7,5.8.8-1.2-3.7-5.8ZM465.7,310.1l12.1,4.6.3-1.7L466,308.4Zm-.7-24.2,13.7,3.3.2-1.8-13.7-3.3Zm17.8,49,10.8,4.6.3-1.7-10.8-4.6Zm-1.4-48.4,13.7,2.1.1-1.8-13.7-2.1Zm21,221.6,3.9,5.4.8-1.3-3.9-5.4ZM482.1,310.6l12.2,3.5.2-1.7-12.2-3.5Zm1.3,48.7,9.4,5.4.4-1.7-9.4-5.4Zm.6,24.5,8.2,5.9.5-1.6-8.2-5.9Zm-17.6-49.4,10.6,5.5.4-1.7-10.6-5.5ZM485,433.2l6,6.5.7-1.4-6-6.5Zm-34.9-99.3,10.5,6.5.4-1.6-10.5-6.5Zm.6,24.5,9.1,7,.5-1.6-9.1-7Zm-1.3-48.9,12,5.6.3-1.7-12-5.6Zm2.5,98.3,6.6,7.6.7-1.4-6.6-7.6Zm-.5-24.7,7.8,7.4.6-1.5-7.8-7.4Zm-2.8-97.8,13.6,4.5.2-1.7-13.6-4.5Zm18.5,73.6,9.2,6.2.5-1.6-9.2-6.2Zm1.6,74,5.7,7,.7-1.4-5.7-7Zm-.5-24.8L475,415l.7-1.5-6.8-6.9Zm-.5-24.7,8,6.7.6-1.6-8-6.7Zm1.4,74.3,4.8,7,.8-1.3-4.8-7Zm.6,50,3.5,6.1.9-1.2-3.5-6.1Zm-.2-25.2,3.9,6.8.9-1.2-3.9-6.8ZM533,385l8.6,3.7.3-1.7-8.6-3.7Zm2,123.6,4.3,4.7.7-1.4-4.3-4.7Zm-.2-25.1,4.8,5.2.7-1.4-4.8-5.2Zm-.4-24.7,5.6,5,.6-1.5-5.6-5ZM544.2,285l-13.6,1.5.1,1.8,13.6-1.5Zm-28.7,50.9,10.9,2.6.2-1.8-10.9-2.6Zm-1.2-50v1.8l13.7-.3v-1.8Zm.6,25.8,12.3,1.3.1-1.8L515,309.9ZM534,434.1l6.5,4.8.5-1.6-6.5-4.8Zm-2-97.7,11,1.7.1-1.8-11-1.7Zm.5,24.2,9.7,2.8.2-1.7-9.7-2.8Zm-1.1-48.4,12.2.3v-1.8l-12.2-.3Zm2.1,97.3,7.5,4.3.4-1.7-7.5-4.3Zm-17.4-49.3,9.7,3.7.3-1.7-9.7-3.7Zm-63.7,72.4,5.5,7.6.8-1.3-5.5-7.6Zm64.8-23.4,7.4,5,.5-1.6-7.4-5Zm-17.4-49.5,9.5,4.5.3-1.7-9.5-4.5Zm-.6-24.3,10.9,3.6.3-1.7-10.9-3.6Zm1.1,48.8,8.3,5.2.4-1.6-8.3-5.2Zm1,49.3,6.2,5.9.6-1.5-6.2-5.9Zm-.5-24.7,7.2,5.6.5-1.6-7.2-5.6Zm-2.3-97.6,12.3,2.4.1-1.8-12.3-2.4Zm20.2,197.2,4.1,5.1.7-1.4-4.1-5.1Zm-1.1-74.6,6.3,5.3.6-1.6-6.3-5.3Zm-15.9,24.4,5.2,6,.7-1.4-5.2-6Zm16.4.3,5.4,5.5.7-1.5-5.4-5.5ZM497.8,287.1l13.7.9v-1.8l-13.7-.9Zm18.9,97.5,8.5,4.4.4-1.7-8.5-4.4Zm1.8,98.6,4.6,5.6.7-1.4-4.6-5.6Zm-147.9-77,5.1,10.4.9-1.1-5.1-10.4Zm17.7,100.5,2.3,7.7,1.1-.7-2.3-7.7Zm-1.5-100.2,5.4,9.9.9-1.1-5.4-9.9Zm-1.2-49.8,8,10.3.8-1.4-8-10.3Zm-.7-24.7,9.5,10.2.7-1.5-9.5-10.2Zm3.2,149.5,2.6,8.5,1.1-.7-2.6-8.5Zm-.3-25.1,3.4,9,1-.9-3.4-9Zm-.5-25,4.4,9.5,1-1-4.4-9.5Zm-1.1-49.8,6.7,10.1.8-1.3L387,380.3Zm18.2,100.1,2.9,8.2,1-.8-2.9-8.2Zm48.4-24.3,4.5,7.4.9-1.2-4.5-7.4Zm-49.7-50.6,5.8,9.3.9-1.2-5.8-9.3Zm1.4,100.1,2.6,7.4,1-.8-2.6-7.4ZM383.2,282.8l13,9.3.5-1.6-13-9.3Zm.9,24.5,11.2,9.9.6-1.5-11.2-9.9Zm19.5,124.4,4.7,9.1.9-1.1-4.7-9.1ZM372,506.6l2.1,7.9,1.1-.7-2.1-7.9Zm-.1-25.3,2.3,8.8,1.1-.7-2.3-8.8ZM350.6,281.6l12.5,11.6.6-1.5-12.5-11.6Zm20.9,174.6,3.1,9.4,1-.8-3.1-9.4Zm-20-150,10.6,11.9.7-1.4-10.6-11.9Zm.9,24.8,8.9,11.9.8-1.3-8.9-11.9Zm.7,24.9,7.3,11.7.8-1.2-7.3-11.7Zm18,75.3,4,10,1-.9-4-10Zm-3.3-124.4,10.9,10.9.6-1.5-10.9-10.9Zm1.5,49.5,7.7,11,.8-1.3-7.7-11Zm-.7-24.8,9.2,11.1.7-1.4-9.2-11.1Zm1.4,49.7,6.3,10.8.9-1.2L370.9,380Zm-3.1-99,12.8,10.5.6-1.6-12.8-10.5ZM404,456.7l3.7,8.7,1-1-3.7-8.7Zm32.6.5,4.3,7.9.9-1.1-4.3-7.9Zm-.5-24.9,5.2,8.1.8-1.2-5.2-8.1Zm-.5-24.9,6.3,8.2.8-1.3-6.3-8.2Zm1.5,99.9,3.1,6.8,1-1-3.1-6.8Zm-.1-25.2,3.4,7.6,1-1-3.4-7.6Zm-1.9-99.4,7.5,8.1.7-1.4-7.5-8.1Zm-1.3-49.3,10.3,7.4.5-1.6-10.3-7.4Zm19.6,174.1,3.3,6.5.9-1.1-3.3-6.5Zm-.2-25.2,3.7,7.2.9-1.1-3.7-7.2Zm-21-197.6,13.5,5.7.3-1.7L432.5,283Zm2.2,73.3,8.8,7.9.6-1.5-8.8-7.9ZM433,309l11.9,6.7.4-1.7-11.9-6.7Zm-17.1-25,13.4,6.9.4-1.7-13.4-6.9Zm-16.4-.6,13.2,8.1.4-1.6-13.2-8.1Zm.9,24.5,11.4,8.8.5-1.6-11.4-8.8Zm2.1,74,7,9.5.8-1.3-7-9.5Zm18.2,100,3.2,7.9,1-.9-3.2-7.9Zm.1,25.2,2.8,7.1,1-.9-2.8-7.1ZM401.2,332.4l9.8,9.3.6-1.5-9.8-9.3Zm.7,24.7,8.3,9.5.7-1.4-8.3-9.5Zm16.9,25.2,7.2,8.8.7-1.4-7.2-8.8Zm-2.1-73.9,11.7,7.8.5-1.6-11.7-7.8Zm1.4,49.2,8.6,8.7.6-1.5-8.6-8.7Zm-.7-24.7,10.1,8.4.6-1.6L418,331.3Zm1.9,74.2,6,8.8.8-1.3-6-8.8Zm.5,24.9,5,8.6.9-1.2-5-8.6Zm.5,24.9,4,8.3.9-1-4-8.3ZM6.6,287.4l13.7.3v-1.8l-13.7-.3Zm-96.5,73.9,9.8,1.4.1-1.8-9.8-1.4Zm-.5-25.6,10.7,3,.2-1.7-10.7-3Zm-.5-25.8,11.7,4.9.3-1.7-11.7-4.9ZM-73,385.4l.1,1.8,8.8-.6-.1-1.8ZM-96.3,211.2l-.3-1.7-9.8,3.6.3,1.7Zm7.4,199.2.1,1.8,7.9-1-.1-1.8Zm.4,25.3.2,1.7,7-1.8-.2-1.7Zm.7,50.3.4,1.7,5.5-2.9-.4-1.7Zm15.6-50,.3,1.7,7-2.4-.3-1.7Zm-.4-25.2.2,1.8,7.9-1.6-.2-1.8Zm.8,50.4.4,1.7,6.1-3-.4-1.7Zm.6,49.7.5,1.6,4.8-3.1-.5-1.6Zm-20.2-227,12.6,7.1.4-1.7L-91,282.2Zm20,202.3.5,1.6,5.3-3.4-.5-1.6Zm-17.9-99.4,8.8.1v-1.8l-8.8-.1Zm-15,98.9.3,1.7,5.5-2.5-.3-1.7Zm16.7,25,.4,1.7,4.9-2.6-.4-1.7Zm-16.4-.2.3,1.7,5-2.2-.3-1.7Zm8.5-251.6-.5-1.6-11.2,7.4.5,1.6Zm-9.4,176.5.1,1.8,7.1-1.2-.1-1.8Zm9-200.3-.4-1.7-10.5,5.4.4,1.7Zm-8.7,225.5.2,1.7,6.3-1.9-.2-1.7Zm-2.6-151.2,11.5,5.8.4-1.7-11.5-5.8Zm83.8,102.4.4,1.7,7.6-3.6-.4-1.7Zm-83.3-76.6,10.6,3.9.3-1.7-10.6-3.9Zm1,51.3,8.8.8.1-1.8-8.8-.8Zm.4,23.6v1.8l7.9-.3v-1.8Zm-.9-49.2,9.7,2.2.2-1.8-9.7-2.2Zm18,100,.3,1.7,6.2-2.5-.3-1.7Zm48.4-49.4.3,1.7,7.7-3-.3-1.7Zm-.4-25.3.2,1.8,8.8-2.2-.2-1.8Zm-.5-25.4.1,1.8,9.8-1.1-.1-1.8Zm2.1,125.9.6,1.5,5.1-4.3-.6-1.5Zm-.7-50.1.4,1.7,6.8-3.6-.4-1.7Zm-1.9-99.5,11,.2v-1.8l-11-.2Zm2.3,124.6.5,1.6,5.9-4-.5-1.6Zm16.4.3.5,1.6,5.8-4.5-.5-1.6Zm-15.8,49.4.6,1.5,4.6-3.9-.6-1.5Zm-3.6-200,12.1,1.9.1-1.8-12.1-1.9Zm19,125.6.4,1.6,6.7-4.2-.4-1.6Zm.8,50,.6,1.5,4.9-4.8-.6-1.5ZM-42.5,285.6l13.3,3.8.2-1.7-13.3-3.8Zm20.6,226,.6,1.5,4.4-4.3-.6-1.5ZM-57.1,360.4v1.8l9.8-.3v-1.8Zm-18-75.9,12.9,6,.3-1.7-12.9-6Zm19.7,176.9.4,1.7,6-3.5-.4-1.7Zm.4,25.1.5,1.6,5.2-3.9-.5-1.6Zm.3,24.6.5,1.6,4.7-3.5-.5-1.6ZM-58.8,285l13.1,4.9.3-1.7-13.1-4.9Zm-15.8,25.4,11.8,3.9.2-1.7-11.8-3.9Zm.6,25.8,10.8,2.1.1-1.8-10.8-2.1Zm16.4.4,10.9,1.2.1-1.8-10.9-1.2Zm-.6-25.7,12,2.9.2-1.8-12-2.9Zm2.5,125.4.3,1.7,6.9-3-.3-1.7Zm-17.8-74.5,9.8.6v-1.8l-9.8-.6Zm16.9,24,.1,1.8,8.8-1.4-.1-1.8Zm.4,25.3.2,1.7,7.8-2.3-.2-1.7Zm-51.5-127.7,12.3,8.2.5-1.6-12.3-8.2ZM-66.5-35.9l-3.6-2.3-.5,1.6,3.6,2.3Zm1.8,173.4-7.5-1.6-.2,1.8,7.5,1.6Zm17.7,75-.1-1.8-10.1,1.1.1,1.8Zm.5,24-.2-1.8-11,2.6.2,1.8Zm-2.2-123.1-6.7-2.9-.3,1.7,6.7,2.9Zm.8,48.8-8.3-1.3-.1,1.8L-48,164Zm.4,24.3-9.2-.2v1.8l9.2.2Zm-.8-48.7-7.5-2.2-.2,1.7,7.5,2.2ZM-65.4,88.5l-6-2.9-.4,1.7,6,2.9Zm.4,24.6-6.7-2.3-.3,1.7,6.7,2.3Zm-.7-49.2L-71,60.6l-.5,1.6,5.3,3.3ZM-66.3-11l-4-2.5-.5,1.6,4,2.5Zm.4,50-4.8-3-.5,1.6,4.8,3Zm-.2-25-4.4-2.8-.5,1.6,4.4,2.8Zm20,246.4-.3-1.7-11.9,4.5.3,1.7Zm15-73.5-9.2-1-.1,1.8,9.2,1Zm-.4-24.3-8.3-2-.2,1.8,8.3,2Zm.8,50.3v-1.8l-10.2.2v1.8Zm-1.6-99.2-6.6-3.5-.4,1.7,6.6,3.5ZM-30.1,237l-.1-1.8-11.1,1.7.1,1.8Zm-1.8-98.8-7.4-2.8-.3,1.7,7.4,2.8Zm-17.6-99-4.7-3.5-.5,1.6,4.7,3.5Zm19.9,221.7-.2-1.7-12.1,3.5.2,1.7ZM-49.3,64.2l-5.1-3.8-.5,1.6,5.1,3.8Zm-.5-50L-54,11.1l-.5,1.6,4.2,3.1Zm.8,74.6-5.9-3.4-.4,1.7,5.9,3.4Zm-1-99.6-3.9-2.9-.5,1.6,3.9,2.9Zm-.1-25-3.5-2.6-.5,1.6,3.5,2.6ZM-63,236l-.2-1.7-10.9,3.6.2,1.7Zm-17.3-48.5-.1-1.8-9.1,1.3.1,1.8ZM-99.1-11.4l-4.1-1.8-.3,1.7,4.1,1.8ZM-79,259.4l-.4-1.7-11.5,6.5.4,1.7ZM-99.3-36.3-103-38l-.3,1.7,3.7,1.7Zm19.4,247.9-.2-1.7-9.9,2.8.2,1.7Zm.5,24-.3-1.7-10.7,4.5.3,1.7Zm-19.5-222-4.5-2-.3,1.7,4.5,2Zm1.4,123.3-7.6-.3v1.8l7.6.3Zm-1.2-98.4-5-2.2L-104,38l5,2.2Zm1.6,124.4-.1-1.8-8.3.8.1,1.8Zm-.7-50.4-6.8-1.2-.1,1.8,6.8,1.2ZM-98.1,88l-6.1-1.9-.2,1.7,6.1,1.9Zm-.3-24.5-5.5-2.4-.3,1.7,5.5,2.4Zm16.7,24.8-6.1-2.4-.3,1.7L-82,90Zm19.2,171.6-.3-1.7-11.7,5.5.3,1.7Zm-34.2-72.8-.2-1.8-9.1,2.1.2,1.8ZM-82.9-36.1l-3.7-2-.4,1.7,3.7,2Zm19,224v-1.8l-9.2.5v1.8Zm.5,24.1-.1-1.8-10,1.9.1,1.8ZM-82.7-11.2l-4-2.2-.4,1.7,4,2.2Zm.7,74.9-5.4-2.9-.4,1.7,5.4,2.9Zm-.5-49.9-4.4-2.4-.4,1.7,4.4,2.4Zm1.1,99-6.8-1.7-.2,1.7,6.8,1.7Zm.3,24.4-7.6-.9-.1,1.8,7.6.9Zm16.8,24.7-8.4-.6-.1,1.8,8.4.6Zm-18-123.2-4.9-2.6-.4,1.7,4.9,2.6Zm1.6,124.6v-1.8l-8.3.1v1.8Zm207,350.2,1,.8,2.6-7.4-1-.8Zm-16.6-24.7,1,.9,3.2-7.9-1-.9Zm.1,24.5,1,.9,2.8-7.1-1-.9Zm-.5-49.2.9,1,4-8.3-.9-1ZM89.3,314l.4,1.7,11.9-6.7-.4-1.7Zm-.8-25.4.3,1.7,13.5-5.7-.3-1.7ZM90,339.2l.5,1.6,10.3-7.4-.5-1.6Zm.7,25.1.6,1.5,8.8-7.9-.6-1.5Zm18.2,75.1.9,1.2,5-8.6-.9-1.2Zm-3.2-124.8.5,1.6,11.7-7.8-.5-1.6Zm-.8-25.4.4,1.7,13.4-6.9-.4-1.7Zm3.4,125.4.8,1.3,6-8.8-.8-1.3Zm-1.8-74.9.6,1.6,10.1-8.4-.6-1.6Zm1.3,50,.7,1.4,7.2-8.8-.7-1.4Zm-.6-24.9.6,1.5,8.6-8.7-.6-1.5ZM91.8,414.2l.8,1.3,6.3-8.2-.8-1.3ZM74.2,363.9l.5,1.6,9.1-7-.5-1.6Zm-.7-25.2.4,1.6,10.5-6.5-.4-1.6Zm1.3,50.2.6,1.5,7.8-7.4-.6-1.5Zm1,49.9.8,1.3,5.5-7.6-.8-1.3Zm-.4-24.9.7,1.4,6.6-7.6-.7-1.4ZM72.8,313.5l.3,1.7,12-5.6-.3-1.7ZM72,288l.2,1.7,13.6-4.5-.2-1.7ZM92.8,463.9l.9,1.1,4.3-7.9-.9-1.1Zm-.5-24.8.8,1.2,5.2-8.1-.8-1.2Zm62-148,.6,1.6,12.8-10.5-.6-1.6Zm-63,98.2.7,1.4,7.5-8.1-.7-1.4Zm2.1,123.8,1,1,3.1-6.8-1-1Zm-.2-24.5,1,1,3.4-7.6-1-1Zm48.7-48.7,1,1,4.4-9.5-1-1Zm17.5,73.9,1.1.7,2.1-7.9-1.1-.7Zm-.5-49,1,.8,3.1-9.4-1-.8ZM137.8,290.5l.5,1.6,13-9.3-.5-1.6Zm21.5,198.9,1.1.7,2.3-8.8-1.1-.7ZM140.2,365.6l.8,1.4,8-10.3-.8-1.4Zm-.7-24.9.7,1.5,9.5-10.2-.7-1.5Zm-.8-25.1.6,1.5,11.2-9.9-.6-1.5Zm18,50.4.8,1.3,7.7-11-.8-1.3Zm-.7-24.8.7,1.4,9.2-11.1-.7-1.4Zm-15.2,49.3.8,1.3,6.7-10.1-.8-1.3Zm14.4-74.3.6,1.5,10.9-10.9-.6-1.5Zm3.2,124,1,.9,4-10-1-.9Zm-1.1-49.4.9,1.2,6.3-10.8-.9-1.2Zm.6,24.7.9,1.1,5.1-10.4-.9-1.1ZM122.2,315.1l.5,1.6,11.4-8.8-.5-1.6Zm2.1,75,.8,1.3,7-9.5-.8-1.3Zm.6,24.8.9,1.2,5.8-9.3-.9-1.2ZM-23.8,386.6l.3,1.7,8.7-2.9-.3-1.7Zm149.2,53.1.9,1.1,4.7-9.1-.9-1.1ZM123,340.2l.6,1.5,9.8-9.3-.6-1.5Zm2.8,124.2,1,1,3.7-8.7-1-1Zm15.6-49.2.9,1.1,5.4-9.9-.9-1.1Zm.9,49.4,1,.9,3.4-9-1-.9Zm.4,24.6,1.1.7,2.6-8.5-1.1-.7ZM76.3,463.6l.9,1.2,4.5-7.4-.9-1.2Zm49.9,25.5,1,.8,2.9-8.2-1-.8Zm-4.9-199.2.4,1.6,13.2-8.1-.4-1.6Zm21.6,223.8,1.1.7,2.3-7.7-1.1-.7ZM123.7,365.2l.7,1.4,8.3-9.5-.7-1.4ZM8.5,362.1l.3,1.7,9.7-3.7-.4-1.6ZM10,437.6l.6,1.6,6.3-5.3-.6-1.6Zm66.7,50.8.9,1.1,3.7-7.2-.9-1.1ZM9.5,412.5l.5,1.6,7.4-5-.5-1.6ZM11,512l.7,1.4,4.1-5.1-.7-1.4Zm-.2-24.5.7,1.4,4.6-5.6-.7-1.4ZM-9.8,286.8l13.6,1.5.1-1.8L-9.7,285ZM10.4,462.6l.7,1.5,5.4-5.5-.7-1.5ZM7.9,336.8l.2,1.7L19,335.9l-.2-1.8ZM27.2,487.7,28,489l4.4-6-.8-1.3Zm-.3-24.9.7,1.4,5.2-6-.7-1.4Zm.6,49.5.8,1.3,3.9-5.4-.8-1.3ZM7.3,311.3l.1,1.8,12.3-1.3-.1-1.8ZM-32.6,89.1l-5.8-3.9-.5,1.6,5.8,3.9ZM-7.4,387l.3,1.7L1.5,385l-.3-1.7ZM-26.2,286.2l13.4,2.7.2-1.8L-26,284.4ZM-5.4,511.8l.7,1.4,4.3-4.7-.7-1.4ZM-9.1,310.7v1.8l12.2-.3v-1.8Zm-15.8,25.1.1,1.8,11-.7-.1-1.8Zm.6,25.5.2,1.8,9.8-2-.2-1.8ZM-5.7,487.2l.7,1.4,4.8-5.2L-.9,482ZM-25.5,312l12.2.8.1-1.8-12.2-.8Zm17.6,49.7.2,1.7L2,360.6l-.2-1.7Zm-.6-25.4.1,1.8,11-1.7-.1-1.8Zm2.4,126,.6,1.5,5.6-5-.6-1.5Zm32.5-24.4.6,1.5,6.2-5.9-.6-1.5ZM-6.9,412.2l.4,1.7L1,409.6l-.4-1.7Zm.4,25.1.5,1.6,6.5-4.8L0,432.5ZM9,387.4l.4,1.7,8.5-4.4-.4-1.7Zm50.8,76,.8,1.3,4.8-7-.8-1.3Zm-.9-49.8.7,1.5,6.8-6.9-.7-1.5Zm1.3,74.6.9,1.2,3.9-6.8-.9-1.2Zm-.8-49.7.7,1.4,5.7-7-.7-1.4ZM39.3,286.8l.1,1.8,13.7-2.1-.1-1.8ZM60.4,512.7l.9,1.2,3.5-6.1-.9-1.2Zm-4-199.8.3,1.7L68.8,310l-.3-1.7Zm-.7-25.5.2,1.8,13.7-3.3-.2-1.8ZM40,312.3l.2,1.7,12.2-3.5-.2-1.7ZM76.9,512.9l.9,1.1,3.3-6.5-.9-1.1ZM57.7,363.5l.5,1.6,9.2-6.2-.5-1.6Zm-.6-25.3.4,1.7,10.6-5.5-.4-1.7Zm1.2,50.4.6,1.6,8-6.7-.6-1.6Zm-32.9-.8.4,1.6,8.3-5.2-.4-1.6Zm-1.8-76,.1,1.8L36,311.2l-.1-1.8Zm-.7-25.6V288l13.7-.9v-1.8Zm1.4,51.1.3,1.7,10.9-3.6-.3-1.7ZM43.9,512.5l.8,1.2,3.7-5.8-.8-1.2Zm-18-99.6.5,1.6,7.2-5.6-.5-1.6Zm-1-50.3.3,1.7,9.5-4.5-.3-1.7ZM43.7,488l.8,1.2,4.2-6.4-.8-1.2Zm-1.8-99.8.5,1.6,8.2-5.9-.5-1.6ZM41.3,363l.4,1.7,9.4-5.4-.4-1.7Zm1.1,50.2.6,1.5,7-6.3-.6-1.5Zm.5,25,.7,1.4,6-6.5-.7-1.4ZM40.7,337.7l.3,1.7,10.8-4.6-.3-1.7Zm2.6,125.4.8,1.3,5-6.5-.8-1.3Z"/></g></g><g class="cls-6"><rect class="cls-7" x="105.7" y="248.4" width="312.7" height="173"/></g><path class="cls-8" d="M212.9,144.6H191.5V128.2H230v92.6H212.9Zm65.2,77.3a36.79,36.79,0,0,1-15.8-3.4,32.9,32.9,0,0,1-12.4-10.2,33.64,33.64,0,0,1-6.3-16.4h17.6a15.09,15.09,0,0,0,8.9,12.3,18.41,18.41,0,0,0,7.7,1.7,16.08,16.08,0,0,0,8.7-2.2,14.83,14.83,0,0,0,5.7-6.2,20.12,20.12,0,0,0,2.1-8.5,18.29,18.29,0,0,0-2.1-8.9,15.3,15.3,0,0,0-6-6.1,18,18,0,0,0-9.1-2.2,20,20,0,0,0-8.9,1.9,15.8,15.8,0,0,0-6,4.5H245l1.3-49.9h61.4l.1,16.4h-45l-.4,19.7a24.6,24.6,0,0,1,8-5.2,25.89,25.89,0,0,1,10.7-1.8,30.3,30.3,0,0,1,15.7,4.4,30.79,30.79,0,0,1,10.7,11.4,32.51,32.51,0,0,1,3.8,15.4,33.76,33.76,0,0,1-4,17.1,29,29,0,0,1-11.7,12.1A32,32,0,0,1,278.1,221.9Z"/></svg>