<svg id="Layer_1" data-name="Layer 1" xmlns="http://www.w3.org/2000/svg" xmlns:xlink="http://www.w3.org/1999/xlink" viewBox="0 0 500 500"><defs><style>.cls-1{fill:url(#linear-gradient);}</style><linearGradient id="linear-gradient" x1="350.96" y1="148" x2="146.95" y2="352.01" gradientUnits="userSpaceOnUse"><stop offset="0" stop-color="#00cd00"/><stop offset="0.4" stop-color="#00a5ff"/><stop offset="1" stop-color="#2814ff"/></linearGradient></defs><path class="cls-1" d="M212.19,323.83A73.83,73.83,0,1,0,140.13,234H77.64v32h62.49A73.94,73.94,0,0,0,212.19,323.83Zm0-115.66A41.83,41.83,0,1,1,170.36,250,41.88,41.88,0,0,1,212.19,208.17ZM437,266H378.66C370.58,350.74,299,417.24,212.19,417.24v-32c74.57,0,135.24-60.67,135.24-135.24S286.76,114.76,212.19,114.76v-32c86.82,0,158.39,66.5,166.47,151.24H437Z"/></svg>