<svg id="Layer_1" data-name="Layer 1" xmlns="http://www.w3.org/2000/svg" xmlns:xlink="http://www.w3.org/1999/xlink" viewBox="0 0 500 500"><defs><style>.cls-1{fill:url(#linear-gradient);}</style><linearGradient id="linear-gradient" x1="376.91" y1="123.88" x2="138.92" y2="361.87" gradientUnits="userSpaceOnUse"><stop offset="0" stop-color="#00cd00"/><stop offset="0.4" stop-color="#00a5ff"/><stop offset="1" stop-color="#2814ff"/></linearGradient></defs><path class="cls-1" d="M328.76,310.31a86.19,86.19,0,0,1-.45,8.81l-31.83-3.31a52.66,52.66,0,0,0-69.9-55.05l15.74,3.52-7,31.23L165,279.8l15.65-71.22,31.26,6.87-4.06,18.47a84.66,84.66,0,0,1,120.92,76.39Zm-84.58,57.25,18.65,4.16A52.61,52.61,0,0,1,192.67,312l-31.35-6.41A84.63,84.63,0,0,0,278.21,400l-3.6,16.39,31.25,6.86L321.51,352l-70.36-15.71ZM347.41,133.87c-2,0-4.05.06-6.07.19A121.1,121.1,0,0,0,125.77,171a77,77,0,0,0,3.32,153.58c-.16-2.44-.25-4.9-.25-7.38a113.86,113.86,0,0,1,2.67-24.52,44.59,44.59,0,0,1-6.13-.71,45.09,45.09,0,0,1,8.38-89.39c1.19,0,2.41,0,3.63.15l14.69,1.16,2.36-14.55a89.09,89.09,0,0,1,165-30.2l5.63,9.69,11-2a63.45,63.45,0,0,1,24.1,124.59,62.77,62.77,0,0,1-7.13,1,114.39,114.39,0,0,1,2.7,24.72q0,3.62-.23,7.19a95.44,95.44,0,0,0-8.15-190.53Z"/></svg>