<svg id="Layer_1" data-name="Layer 1" xmlns="http://www.w3.org/2000/svg" xmlns:xlink="http://www.w3.org/1999/xlink" viewBox="0 0 500 500"><defs><style>.cls-1{fill:url(#linear-gradient);}</style><linearGradient id="linear-gradient" x1="334.05" y1="164.33" x2="163.49" y2="334.89" gradientUnits="userSpaceOnUse"><stop offset="0" stop-color="#00cd00"/><stop offset="0.4" stop-color="#00a5ff"/><stop offset="1" stop-color="#2814ff"/></linearGradient></defs><path class="cls-1" d="M404.72,259.91l5.65-8.76-5.72-8.71a320.64,320.64,0,0,0-43.92-51.26c-37.08-35-74.39-52.78-110.88-52.78-85.54,0-151,99.89-153.79,104.15L90.4,251.3,96.13,260a319.53,319.53,0,0,0,43.92,51.26c37.08,35,74.38,52.79,110.87,52.79C336.47,364.06,402,264.16,404.72,259.91Zm-153.8,72.15c-55.27,0-104.74-58.38-121.77-80.9,16.81-22.55,65.54-80.76,120.7-80.76s104.74,58.36,121.77,80.9C354.82,273.84,306.09,332.06,250.92,332.06ZM93.56,181.55h-32V74.62H168.5v32H93.56ZM437.66,316V422.93H330.72v-32h74.94V316Zm-188-12.63a54.59,54.59,0,1,1,54.59-54.59A54.65,54.65,0,0,1,249.61,303.36Zm0-77.17a22.59,22.59,0,1,0,22.59,22.58A22.61,22.61,0,0,0,249.61,226.19Z"/></svg>