<svg id="Layer_1" data-name="Layer 1" xmlns="http://www.w3.org/2000/svg" xmlns:xlink="http://www.w3.org/1999/xlink" viewBox="0 0 500 500"><defs><style>.cls-1{fill:url(#linear-gradient);}</style><linearGradient id="linear-gradient" x1="364.57" y1="181.12" x2="103.92" y2="441.78" gradientUnits="userSpaceOnUse"><stop offset="0" stop-color="#00cd00"/><stop offset="0.4" stop-color="#00a5ff"/><stop offset="1" stop-color="#2814ff"/></linearGradient></defs><path class="cls-1" d="M81.72,257.36h166.7v32H113.72V419.58h-32ZM298,144.22a71.8,71.8,0,1,1-71.8-71.8A71.88,71.88,0,0,1,298,144.22Zm-32,0A39.8,39.8,0,1,0,226.18,184,39.85,39.85,0,0,0,266,144.22ZM407.32,302.93V415.16l-53.83-27.42L301,415.7V305.24a64.95,64.95,0,1,1,106.36-2.31Zm-86.95-36.06a33,33,0,1,0,32.95-33A33,33,0,0,0,320.37,266.87ZM375.32,363V328a64.72,64.72,0,0,1-42.36.56v33.87l20.2-10.75Z"/></svg>