<svg id="Layer_1" data-name="Layer 1" xmlns="http://www.w3.org/2000/svg" xmlns:xlink="http://www.w3.org/1999/xlink" viewBox="0 0 500 500"><defs><style>.cls-1{fill:url(#linear-gradient);}</style><linearGradient id="linear-gradient" x1="421.91" y1="99.45" x2="94.98" y2="426.38" gradientUnits="userSpaceOnUse"><stop offset="0" stop-color="#00cd00"/><stop offset="0.4" stop-color="#00a5ff"/><stop offset="1" stop-color="#2814ff"/></linearGradient></defs><path class="cls-1" d="M404.62,326V82.15h-32V326H340.27V431.1H437V326ZM405,399.1H372.27V358H405ZM115,81.36A52.54,52.54,0,0,0,99,184V430.43h32V184A52.54,52.54,0,0,0,115,81.36Zm0,73.08a20.54,20.54,0,1,1,20.54-20.54A20.56,20.56,0,0,1,115,154.44Zm152.68,45V82.15h-32V199.47L181.8,292.84h53.91V430.43h32V292.84h53.9Zm-30.48,61.37,14.48-25.08,14.48,25.08Z"/></svg>