<svg id="Layer_1" data-name="Layer 1" xmlns="http://www.w3.org/2000/svg" xmlns:xlink="http://www.w3.org/1999/xlink" viewBox="0 0 500 500"><defs><style>.cls-1{fill:url(#linear-gradient);}</style><linearGradient id="linear-gradient" x1="384.09" y1="120.65" x2="127.01" y2="377.74" gradientUnits="userSpaceOnUse"><stop offset="0" stop-color="#00cd00"/><stop offset="0.4" stop-color="#00a5ff"/><stop offset="1" stop-color="#2814ff"/></linearGradient></defs><path class="cls-1" d="M288.31,364.3,252,301,215.19,364.3A118.14,118.14,0,0,1,169.88,337l22.34-12.76-75.14-43.86-.41,87,27.38-15.64.74.79c1,1.09,2.08,2.18,3.15,3.25a147.11,147.11,0,0,0,46.66,31.46q2.91,1.23,5.88,2.34L181.07,423l141.13.43-19.35-33.74q3.06-1.14,6.07-2.41a136,136,0,0,0,21.64-11.05L315.07,352A108.88,108.88,0,0,1,288.31,364.3ZM230.9,394.41l20.93-36,20.72,36.13Zm63.59-273.28L219.35,77.28l-.15,31.49-1,.24a146.88,146.88,0,0,0-70.22,39.15q-2.66,2.66-5.21,5.48a48.18,48.18,0,0,0-37.39,87.28c-.27,3.67-.4,7.37-.4,11.06,0,2,0,4.06.15,6.43l.12,2.91,28.72-.82-.15-3.25c-.09-1.92-.13-3.64-.13-5.27,0-1.13,0-2.26,0-3.39a48.16,48.16,0,0,0,34.18-79.68,117.21,117.21,0,0,1,51.18-30.44l-.12,25.81Zm-163,98.79a19.17,19.17,0,0,1-3.87-.39,18.86,18.86,0,0,1-5.47-2A19.44,19.44,0,0,1,137.4,182a19.82,19.82,0,0,1,5.25,2.61,19.43,19.43,0,0,1-11.14,35.36Zm212.61,47.49-.41,87,75.55-43.15-27.2-15.87c.11-.34.21-.69.32-1a146.64,146.64,0,0,0,6.2-42.38q0-2.11-.06-4.23h18.13V153.21H360.39c-1.57-1.73-3.18-3.42-4.81-5.05a147.88,147.88,0,0,0-21.72-17.92c-2.15-1.45-4.46-2.9-7.26-4.57l-6.08-3.6-13.39,25.47,4.88,2.9a118,118,0,0,1,10.09,6.74v90.57h47.69c0,1.41.08,2.82.08,4.23a118.53,118.53,0,0,1-3.46,28.44Zm6.7-48.38v-37.1h37.11V219Z"/></svg>