<svg id="Layer_1" data-name="Layer 1" xmlns="http://www.w3.org/2000/svg" xmlns:xlink="http://www.w3.org/1999/xlink" viewBox="0 0 500 500"><defs><style>.cls-1{fill:url(#linear-gradient);}</style><linearGradient id="linear-gradient" x1="387.78" y1="218.19" x2="112.22" y2="493.75" gradientUnits="userSpaceOnUse"><stop offset="0" stop-color="#00cd00"/><stop offset="0.4" stop-color="#00a5ff"/><stop offset="1" stop-color="#2814ff"/></linearGradient></defs><path class="cls-1" d="M266,359.82H234V237.14h32Zm11.33,54A27.33,27.33,0,1,0,250,441.14,27.37,27.37,0,0,0,277.33,413.81Zm-78.66,0a51.31,51.31,0,0,1,2.56-16H103.7L250,144.4,396.3,397.81H298.77a51.28,51.28,0,0,1,0,32h153L250,80.4,48.27,429.81h153A51.36,51.36,0,0,1,198.67,413.81Z"/></svg>