<?xml version="1.0" encoding="utf-8"?>
<!-- Generator: Adobe Illustrator 26.4.1, SVG Export Plug-In . SVG Version: 6.00 Build 0)  -->
<svg version="1.1" id="Layer_1" xmlns="http://www.w3.org/2000/svg" xmlns:xlink="http://www.w3.org/1999/xlink" x="0px" y="0px"
	 viewBox="0 0 26.2 24.4" style="enable-background:new 0 0 26.2 24.4;" xml:space="preserve">
<style type="text/css">
	.st0{fill:url(#SVGID_1_);}
</style>
<g id="Layer_1_00000019660383269336330860000010254339336442825901_">
	
		<linearGradient id="SVGID_1_" gradientUnits="userSpaceOnUse" x1="5.808" y1="6.2748" x2="22.893" y2="23.3598" gradientTransform="matrix(1 0 0 -1 0 27.1121)">
		<stop  offset="0.1" style="stop-color:#2814FF"/>
		<stop  offset="0.14" style="stop-color:#2324FF"/>
		<stop  offset="0.3" style="stop-color:#145BFF"/>
		<stop  offset="0.43" style="stop-color:#0983FF"/>
		<stop  offset="0.54" style="stop-color:#029BFF"/>
		<stop  offset="0.61" style="stop-color:#00A4FF"/>
		<stop  offset="0.66" style="stop-color:#00ACCE"/>
		<stop  offset="0.72" style="stop-color:#00B590"/>
		<stop  offset="0.79" style="stop-color:#00BD5D"/>
		<stop  offset="0.84" style="stop-color:#00C434"/>
		<stop  offset="0.9" style="stop-color:#00C818"/>
		<stop  offset="0.95" style="stop-color:#00CB06"/>
		<stop  offset="0.98" style="stop-color:#00CC00"/>
	</linearGradient>
	<path class="st0" d="M26.2,21.3V7h-6.3c-0.2-0.5-0.5-0.9-0.8-1.2c-0.6-0.5-1.4-0.9-2.2-0.9c-0.2-0.7-0.7-1.4-1.4-1.8
		c-0.8-0.5-1.7-0.6-2.6-0.5c-1-1.8-3-2.8-5-2.5c-2,0.2-3.8,1.5-4.5,3.4C1.3,3.9-0.1,5.8,0,7.9c0,1.2,0.4,2.4,1.3,3.2
		c1.1,0.9,2.5,1.4,4,1.4h1v8.8h6.4v1.2h-1.8v1.9h10.6v-1.9h-1.8v-1.3H26.2z M8.4,1.9c1.8,0,2.3,0.8,3,2l0.5,0.7l0.6-0.2
		c0.6-0.2,1.3-0.1,1.9,0.2C14.8,5,15,5.4,15.1,5.9l0.1,0.8H16c0.6,0,1.2,0.1,1.7,0.5H6.2v3.4H5.4c-1,0-2-0.3-2.8-0.9
		C2.1,9.2,1.9,8.5,1.9,7.9c0-0.1,0-2.5,2.3-2.6h0.7L5,4.6C5.3,3.2,6.6,2.1,8,2L8.4,1.9z M8.1,19.4V9.1h16.1v10.3H8.1z M18.6,13.4
		v-0.8c0-0.6-0.3-1.3-0.7-1.7c-0.9-0.9-2.5-0.9-3.4,0c-0.5,0.5-0.7,1.1-0.7,1.7v0.8h-0.4v4.7H19v-4.7H18.6z M15.1,13.4v-0.8
		c0-0.6,0.5-1.1,1.1-1.1c0.6,0,1.1,0.5,1.1,1.1v0.8H15.1z"/>
</g>
</svg>
