<?xml version="1.0" encoding="utf-8"?>
<!-- Generator: Adobe Illustrator 26.4.1, SVG Export Plug-In . SVG Version: 6.00 Build 0)  -->
<svg version="1.1" id="Layer_1" xmlns="http://www.w3.org/2000/svg" xmlns:xlink="http://www.w3.org/1999/xlink" x="0px" y="0px"
	 viewBox="0 0 32.7 21.8" style="enable-background:new 0 0 32.7 21.8;" xml:space="preserve">
<style type="text/css">
	.st0{fill:url(#SVGID_1_);}
</style>
<g id="Layer_1_00000178176035028519938160000003061306230839803569_">
	
		<linearGradient id="SVGID_1_" gradientUnits="userSpaceOnUse" x1="7.3086" y1="8.0414" x2="27.1186" y2="27.8514" gradientTransform="matrix(1 0 0 -1 0 24.12)">
		<stop  offset="0.1" style="stop-color:#2814FF"/>
		<stop  offset="0.14" style="stop-color:#2324FF"/>
		<stop  offset="0.3" style="stop-color:#145BFF"/>
		<stop  offset="0.43" style="stop-color:#0983FF"/>
		<stop  offset="0.54" style="stop-color:#029BFF"/>
		<stop  offset="0.61" style="stop-color:#00A4FF"/>
		<stop  offset="0.66" style="stop-color:#00ACCE"/>
		<stop  offset="0.72" style="stop-color:#00B590"/>
		<stop  offset="0.79" style="stop-color:#00BD5D"/>
		<stop  offset="0.84" style="stop-color:#00C434"/>
		<stop  offset="0.9" style="stop-color:#00C818"/>
		<stop  offset="0.95" style="stop-color:#00CB06"/>
		<stop  offset="0.98" style="stop-color:#00CC00"/>
	</linearGradient>
	<path class="st0" d="M27.9,15.3H11.3L7.1,1.2L0.4,0L0,2.1l5.5,1l4.3,14.4H11c-0.1,0.3-0.2,0.7-0.2,1c-0.1,1.7,1.2,3,2.9,3.1
		c1.7,0.1,3-1.2,3.1-2.9c0-0.4-0.1-0.8-0.2-1.2h3.9c-0.1,0.3-0.2,0.7-0.2,1c-0.2,1.6,0.9,3.1,2.6,3.4s3.1-0.9,3.4-2.6
		c0-0.3,0-0.5,0-0.8c0-0.3,0-0.7-0.2-1h1.7L27.9,15.3z M24.4,18.4c0,0.6-0.5,1.1-1.1,1.1c-0.6,0-1.1-0.5-1.1-1.1
		c0-0.6,0.5-1.1,1.1-1.1c0,0,0,0,0,0C23.9,17.4,24.4,17.8,24.4,18.4z M14.9,18.4c0,0.6-0.5,1.1-1.1,1.1s-1.1-0.5-1.1-1.1
		c0-0.6,0.5-1.1,1.1-1.1c0,0,0,0,0,0C14.4,17.4,14.9,17.8,14.9,18.4z M8.8,1.9L12.3,14H29l3.7-12.1H8.8z M13.9,11.9l-2.3-7.9h18.3
		l-2.5,7.9H13.9z"/>
</g>
</svg>
