<?xml version="1.0" encoding="utf-8"?>
<!-- Generator: Adobe Illustrator 26.4.1, SVG Export Plug-In . SVG Version: 6.00 Build 0)  -->
<svg version="1.1" id="Layer_1" xmlns="http://www.w3.org/2000/svg" xmlns:xlink="http://www.w3.org/1999/xlink" x="0px" y="0px"
	 viewBox="0 0 19.2 21.4" style="enable-background:new 0 0 19.2 21.4;" xml:space="preserve">
<style type="text/css">
	.st0{fill:url(#SVGID_1_);}
</style>
<g id="Layer_1_00000131337540466581589490000004122882100955604413_">
	
		<linearGradient id="SVGID_1_" gradientUnits="userSpaceOnUse" x1="1.097524e-06" y1="2.99" x2="19.21" y2="22.19" gradientTransform="matrix(1 0 0 -1 0 24.38)">
		<stop  offset="0.1" style="stop-color:#2814FF"/>
		<stop  offset="0.14" style="stop-color:#2324FF"/>
		<stop  offset="0.3" style="stop-color:#145BFF"/>
		<stop  offset="0.43" style="stop-color:#0983FF"/>
		<stop  offset="0.54" style="stop-color:#029BFF"/>
		<stop  offset="0.61" style="stop-color:#00A4FF"/>
		<stop  offset="0.66" style="stop-color:#00ACCE"/>
		<stop  offset="0.72" style="stop-color:#00B590"/>
		<stop  offset="0.79" style="stop-color:#00BD5D"/>
		<stop  offset="0.84" style="stop-color:#00C434"/>
		<stop  offset="0.9" style="stop-color:#00C818"/>
		<stop  offset="0.95" style="stop-color:#00CB06"/>
		<stop  offset="0.98" style="stop-color:#00CC00"/>
	</linearGradient>
	<path class="st0" d="M6.8,8.7H9v2.2H6.8V8.7z M6.8,14.2H9V12H6.8V14.2z M6.8,17.6H9v-2.2H6.8V17.6z M3.4,17.6h2.2v-2.2H3.4V17.6z
		 M3.4,14.2h2.2V12H3.4V14.2z M3.4,10.9h2.2V8.7H3.4V10.9z M13.4,14.2h2.2V12h-2.2L13.4,14.2z M13.4,8.7v2.2h2.2V8.7H13.4z
		 M13.4,17.6h2.2v-2.2h-2.2L13.4,17.6z M10.1,10.9h2.2V8.7h-2.2L10.1,10.9z M10.1,14.2h2.2V12h-2.2L10.1,14.2z M10.1,17.6h2.2v-2.2
		h-2.2L10.1,17.6z M19.2,2.2v19.2H0V2.2h3.1V0h2.9v2.2h7.3V0h2.9v2.2H19.2z M3.1,5.3v-1H2.2v14.8H17V4.4h-0.9v1h-2.9v-1H5.9v1
		L3.1,5.3z"/>
</g>
</svg>
