<?xml version="1.0" encoding="utf-8"?>
<!-- Generator: Adobe Illustrator 26.4.1, SVG Export Plug-In . SVG Version: 6.00 Build 0)  -->
<svg version="1.1" id="Layer_1" xmlns="http://www.w3.org/2000/svg" xmlns:xlink="http://www.w3.org/1999/xlink" x="0px" y="0px"
	 viewBox="0 0 16.4 20.1" style="enable-background:new 0 0 16.4 20.1;" xml:space="preserve">
<style type="text/css">
	.st0{fill:url(#SVGID_1_);}
</style>
<g id="Layer_1_00000078017539819928021840000015550892194600113560_">
	
		<linearGradient id="SVGID_1_" gradientUnits="userSpaceOnUse" x1="0.46" y1="5.79" x2="15.96" y2="21.3" gradientTransform="matrix(1 0 0 -1 0 22.28)">
		<stop  offset="0.1" style="stop-color:#2814FF"/>
		<stop  offset="0.14" style="stop-color:#2324FF"/>
		<stop  offset="0.3" style="stop-color:#145BFF"/>
		<stop  offset="0.43" style="stop-color:#0983FF"/>
		<stop  offset="0.54" style="stop-color:#029BFF"/>
		<stop  offset="0.61" style="stop-color:#00A4FF"/>
		<stop  offset="0.66" style="stop-color:#00ACCE"/>
		<stop  offset="0.72" style="stop-color:#00B590"/>
		<stop  offset="0.79" style="stop-color:#00BD5D"/>
		<stop  offset="0.84" style="stop-color:#00C434"/>
		<stop  offset="0.9" style="stop-color:#00C818"/>
		<stop  offset="0.95" style="stop-color:#00CB06"/>
		<stop  offset="0.98" style="stop-color:#00CC00"/>
	</linearGradient>
	<path class="st0" d="M13.5,7.2l-6.7,6.3L2.9,9.8l1.4-1.4l2.5,2.4l5.4-5L13.5,7.2z M16.4,1.4V16l-8.2,4.1L0,16.1V1.4l0.8-0.2
		C3.2,0.5,5.7,0.1,8.2,0c2.5,0.1,5,0.5,7.4,1.2L16.4,1.4z M14.3,3c-2-0.5-4-0.8-6.1-0.9C6.1,2.2,4.1,2.5,2.1,3.1v11.7l6.1,3l6.1-3
		L14.3,3z"/>
</g>
</svg>
