<?xml version="1.0" encoding="utf-8"?>
<!-- Generator: Adobe Illustrator 26.4.1, SVG Export Plug-In . SVG Version: 6.00 Build 0)  -->
<svg version="1.1" id="Layer_1" xmlns="http://www.w3.org/2000/svg" xmlns:xlink="http://www.w3.org/1999/xlink" x="0px" y="0px"
	 viewBox="0 0 24.6 15.1" style="enable-background:new 0 0 24.6 15.1;" xml:space="preserve">
<style type="text/css">
	.st0{fill:url(#SVGID_1_);}
</style>
<g id="Layer_1_00000156568296652567348700000017969767414767089043_">
	
		<linearGradient id="SVGID_1_" gradientUnits="userSpaceOnUse" x1="5.104" y1="-0.4145" x2="20.024" y2="14.5055" gradientTransform="matrix(1 0 0 -1 0 17.0388)">
		<stop  offset="0.1" style="stop-color:#2814FF"/>
		<stop  offset="0.14" style="stop-color:#2324FF"/>
		<stop  offset="0.3" style="stop-color:#145BFF"/>
		<stop  offset="0.43" style="stop-color:#0983FF"/>
		<stop  offset="0.54" style="stop-color:#029BFF"/>
		<stop  offset="0.61" style="stop-color:#00A4FF"/>
		<stop  offset="0.66" style="stop-color:#00ACCE"/>
		<stop  offset="0.72" style="stop-color:#00B590"/>
		<stop  offset="0.79" style="stop-color:#00BD5D"/>
		<stop  offset="0.84" style="stop-color:#00C434"/>
		<stop  offset="0.9" style="stop-color:#00C818"/>
		<stop  offset="0.95" style="stop-color:#00CB06"/>
		<stop  offset="0.98" style="stop-color:#00CC00"/>
	</linearGradient>
	<path class="st0" d="M20.4,4.2c-0.8-2.3-2.9-4-5.4-4.2C12.6-0.3,10.1,1,9,3.2c-0.2,0-0.5,0-0.8,0C6.3,3.1,4.6,4.3,4.1,6.1
		C1.9,6.2,0.1,8,0,10.2c-0.1,1.2,0.3,2.4,1.1,3.3c1.2,1.1,2.8,1.7,4.5,1.6c0.1,0,0.3,0,0.4,0h12.2c4.7,0,6.3-2.8,6.3-5.5
		C24.6,8,23.8,4.8,20.4,4.2z M22.6,9.6c0,3.1-3,3.5-4.3,3.5H5.6c-1.1,0.1-2.2-0.3-3-1c-0.4-0.5-0.7-1.2-0.6-1.9C2.1,8.3,3.8,8,4.8,8
		l1,0.1l0.1-0.9C5.9,6,6.8,5.1,8,5.1c0.1,0,0.2,0,0.3,0c0.3,0,0.7,0,1,0.1l0.7,0.2l0.5-0.8C11.4,3,12.1,2,14.4,2h0.6
		c1.9,0.2,3.4,1.6,3.8,3.4l0.1,0.7h0.7C22.5,6.3,22.6,9.2,22.6,9.6z"/>
</g>
</svg>
