<?xml version="1.0" encoding="utf-8"?>
<!-- Generator: Adobe Illustrator 26.4.1, SVG Export Plug-In . SVG Version: 6.00 Build 0)  -->
<svg version="1.1" id="Layer_1" xmlns="http://www.w3.org/2000/svg" xmlns:xlink="http://www.w3.org/1999/xlink" x="0px" y="0px"
	 viewBox="0 0 16.8 22.2" style="enable-background:new 0 0 16.8 22.2;" xml:space="preserve">
<style type="text/css">
	.st0{fill:url(#SVGID_1_);}
</style>
<g id="Layer_1_00000114770588553782756070000012533513263597922468_">
	
		<linearGradient id="SVGID_1_" gradientUnits="userSpaceOnUse" x1="8.939383e-02" y1="744.3294" x2="16.7294" y2="727.6994" gradientTransform="matrix(1 0 0 1 0 -722)">
		<stop  offset="0.1" style="stop-color:#2814FF"/>
		<stop  offset="0.14" style="stop-color:#2324FF"/>
		<stop  offset="0.3" style="stop-color:#145BFF"/>
		<stop  offset="0.43" style="stop-color:#0983FF"/>
		<stop  offset="0.54" style="stop-color:#029BFF"/>
		<stop  offset="0.61" style="stop-color:#00A4FF"/>
		<stop  offset="0.66" style="stop-color:#00ACCE"/>
		<stop  offset="0.72" style="stop-color:#00B590"/>
		<stop  offset="0.79" style="stop-color:#00BD5D"/>
		<stop  offset="0.84" style="stop-color:#00C434"/>
		<stop  offset="0.9" style="stop-color:#00C818"/>
		<stop  offset="0.95" style="stop-color:#00CB06"/>
		<stop  offset="0.98" style="stop-color:#00CC00"/>
	</linearGradient>
	<path class="st0" d="M14.6,8.4V6.2c0-3.4-2.8-6.2-6.2-6.2S2.2,2.8,2.2,6.2v2.2H0v13.8h16.8V8.4H14.6z M2,20.3v-9.9h12.8v9.9H2z
		 M4.6,6.2c-0.1-2.1,1.5-3.9,3.6-4s3.9,1.5,4,3.6c0,0.1,0,0.3,0,0.4v2.1H4.6V6.2z M10.5,14.1c0,0.8-0.4,1.5-1.1,1.8v2.8H7.5v-2.8
		c-1-0.5-1.4-1.8-0.9-2.8s1.8-1.4,2.8-0.9C10,12.5,10.4,13.3,10.5,14.1L10.5,14.1z"/>
</g>
</svg>
