<?xml version="1.0" encoding="utf-8"?>
<!-- Generator: Adobe Illustrator 26.4.1, SVG Export Plug-In . SVG Version: 6.00 Build 0)  -->
<svg version="1.1" id="Layer_1" xmlns="http://www.w3.org/2000/svg" xmlns:xlink="http://www.w3.org/1999/xlink" x="0px" y="0px"
	 viewBox="0 0 29.5 19.9" style="enable-background:new 0 0 29.5 19.9;" xml:space="preserve">
<style type="text/css">
	.st0{fill:url(#SVGID_1_);}
</style>
<g id="Layer_1_00000011023431314461654690000015994159062307038116_">
	
		<linearGradient id="SVGID_1_" gradientUnits="userSpaceOnUse" x1="3.1865" y1="-1.0978" x2="26.3172" y2="22.0228" gradientTransform="matrix(1 0 0 -1 0 22)">
		<stop  offset="0.1" style="stop-color:#2814FF"/>
		<stop  offset="0.14" style="stop-color:#2324FF"/>
		<stop  offset="0.3" style="stop-color:#145BFF"/>
		<stop  offset="0.43" style="stop-color:#0983FF"/>
		<stop  offset="0.54" style="stop-color:#029BFF"/>
		<stop  offset="0.61" style="stop-color:#00A4FF"/>
		<stop  offset="0.66" style="stop-color:#00ACCE"/>
		<stop  offset="0.72" style="stop-color:#00B590"/>
		<stop  offset="0.79" style="stop-color:#00BD5D"/>
		<stop  offset="0.84" style="stop-color:#00C434"/>
		<stop  offset="0.9" style="stop-color:#00C818"/>
		<stop  offset="0.95" style="stop-color:#00CB06"/>
		<stop  offset="0.98" style="stop-color:#00CC00"/>
	</linearGradient>
	<path class="st0" d="M29.5,18v1.9H0V18H29.5z M26.3,0v16.9H3.2V0H26.3z M24.4,15V1.9H5.1V15H24.4z M21.8,12.5l-0.8,0.1l0.1,0.8
		l-2,0.3l-0.2-1.4l-1.5-1.1c-0.2,0.4-0.4,0.9-0.5,1.2l-0.1,0.2h-3.4l-0.2-0.4c-0.1-0.3-0.3-0.7-0.4-1l-1.5,1.1L11,13.8l-2-0.3
		l0.1-0.8l-0.8-0.1l0.3-2l1.4,0.2l1.5-1.1c-0.4-0.9-0.5-1.9-0.2-2.8l-1.3-1L8.6,6.1l-0.3-2l0.8-0.1L9,3l2-0.3l0.2,1.4l1.1,0.8
		C13,4.2,14,3.8,15,3.8c1,0,2,0.3,2.7,1.1l1.1-0.8L19,2.7L21,3l-0.1,0.8l0.8,0.1l-0.3,2L20,5.7l-1.3,0.9c0.2,0.9,0.2,1.9-0.2,2.8
		l1.5,1.1l1.4-0.2L21.8,12.5z M10.1,11.9L10,12.7l0.4,0l0.1-0.9l1.8-1.3L12,10.2l-1.8,1.3l-0.9-0.1l0,0.3L10.1,11.9z M16.1,11.8
		c0.2-0.4,0.4-1,0.5-1.2v-0.1l0.1-0.1c0.3-0.3,0.6-0.6,0.9-0.9c0.5-1,0.5-2.3-0.1-3.3C17,5.2,16,4.7,15,4.7c-1,0-2,0.5-2.6,1.4
		c-0.6,1-0.6,2.3-0.1,3.3c0.3,0.3,0.5,0.6,0.9,0.9l0.1,0.1l0,0.1c0.1,0.3,0.3,0.9,0.5,1.2L16.1,11.8z M19.9,11.9l0.8-0.1l0-0.3
		l-0.9,0.1L18,10.2l-0.2,0.3l1.8,1.3l0.1,0.9l0.3,0L19.9,11.9z M19.9,4.6l0.1-0.8l-0.3-0.1l-0.1,0.9l-1.3,1l0,0
		c0.1,0.1,0.1,0.2,0.1,0.3l1.4-1L20.7,5l0-0.3L19.9,4.6z M10.1,4.6L9.3,4.7l0,0.3l0.9-0.1l1.4,1c0-0.1,0.1-0.2,0.1-0.3
		c0.1-0.1,0,0,0,0l-1.3-1l-0.1-0.9L9.9,3.8L10.1,4.6z M13.9,7.5c-0.4,0-0.7,0.3-0.7,0.7c0,0.4,0.3,0.7,0.7,0.7
		c0.4,0,0.7-0.3,0.7-0.7c0,0,0,0,0,0C14.6,7.8,14.3,7.5,13.9,7.5L13.9,7.5z M16.2,7.5c-0.4,0-0.7,0.3-0.7,0.7S15.7,9,16.1,9
		s0.7-0.3,0.7-0.7c0,0,0,0,0,0C16.9,7.8,16.6,7.5,16.2,7.5L16.2,7.5z M17,8.2c0-0.5-0.4-0.8-0.8-0.8s-0.8,0.4-0.8,0.8
		s0.4,0.8,0.8,0.8C16.6,9.1,17,8.7,17,8.2C17,8.3,17,8.2,17,8.2L17,8.2z M16.7,8.2c0,0.3-0.3,0.6-0.6,0.6l0,0
		c-0.3,0-0.6-0.3-0.6-0.6s0.3-0.6,0.6-0.6S16.7,7.9,16.7,8.2z M14.7,8.2c0-0.5-0.4-0.8-0.8-0.8s-0.8,0.4-0.8,0.8s0.4,0.8,0.8,0.8
		C14.4,9.1,14.7,8.7,14.7,8.2C14.7,8.2,14.8,8.2,14.7,8.2L14.7,8.2z M14.5,8.2c0,0.3-0.2,0.6-0.6,0.6c0,0,0,0,0,0
		c-0.3,0-0.6-0.2-0.7-0.5c0-0.3,0.2-0.6,0.5-0.7c0.1,0,0.1,0,0.2,0C14.2,7.6,14.5,7.9,14.5,8.2C14.5,8.2,14.5,8.2,14.5,8.2L14.5,8.2
		z"/>
</g>
</svg>
