<?xml version="1.0" encoding="utf-8"?>
<!-- Generator: Adobe Illustrator 26.4.1, SVG Export Plug-In . SVG Version: 6.00 Build 0)  -->
<svg version="1.1" id="Layer_1" xmlns="http://www.w3.org/2000/svg" xmlns:xlink="http://www.w3.org/1999/xlink" x="0px" y="0px"
	 viewBox="0 0 25.8 22" style="enable-background:new 0 0 25.8 22;" xml:space="preserve">
<style type="text/css">
	.st0{fill:url(#SVGID_1_);}
</style>
<g id="Layer_1_00000127724771251426522290000000547038563449548716_">
	
		<linearGradient id="SVGID_1_" gradientUnits="userSpaceOnUse" x1="2.5025" y1="1.1175" x2="23.3325" y2="21.9475" gradientTransform="matrix(1 0 0 -1 0 25.66)">
		<stop  offset="0.1" style="stop-color:#2814FF"/>
		<stop  offset="0.14" style="stop-color:#2324FF"/>
		<stop  offset="0.3" style="stop-color:#145BFF"/>
		<stop  offset="0.43" style="stop-color:#0983FF"/>
		<stop  offset="0.54" style="stop-color:#029BFF"/>
		<stop  offset="0.61" style="stop-color:#00A4FF"/>
		<stop  offset="0.66" style="stop-color:#00ACCE"/>
		<stop  offset="0.72" style="stop-color:#00B590"/>
		<stop  offset="0.79" style="stop-color:#00BD5D"/>
		<stop  offset="0.84" style="stop-color:#00C434"/>
		<stop  offset="0.9" style="stop-color:#00C818"/>
		<stop  offset="0.95" style="stop-color:#00CB06"/>
		<stop  offset="0.98" style="stop-color:#00CC00"/>
	</linearGradient>
	<path class="st0" d="M24.8,20V5.1h-6.7V0H7.7v5.1H1.1V20H0v2h25.8v-2H24.8z M22.8,7.3V20h-4.6V7.3H22.8z M13.8,17.6V20h-1.6v-2.4
		H13.8z M10.4,15.6V20H9.7V2.4h6.5V20h-0.7v-4.3H10.4z M7.7,7.3V20H3V7.3H7.7z M14.3,4.5v1.4h-0.8v0.8h-1.2V5.8h-0.8V4.5h0.8V3.7
		h1.2v0.8L14.3,4.5z M4.3,12.3v2h2v-2H4.3z M21.6,12.3v2h-2v-2H21.6z M12.3,12.3v2h-2v-2H12.3z M15.6,12.3v2h-2v-2H15.6z M6.3,8.6v2
		h-2v-2H6.3z M21.6,8.6v2h-2v-2H21.6z M12.3,8.6v2h-2v-2H12.3z M15.6,8.6v2h-2v-2H15.6z"/>
</g>
</svg>
