<?xml version="1.0" encoding="utf-8"?>
<!-- Generator: Adobe Illustrator 26.4.1, SVG Export Plug-In . SVG Version: 6.00 Build 0)  -->
<svg version="1.1" id="Layer_1" xmlns="http://www.w3.org/2000/svg" xmlns:xlink="http://www.w3.org/1999/xlink" x="0px" y="0px"
	 viewBox="0 0 28.2 20" style="enable-background:new 0 0 28.2 20;" xml:space="preserve">
<style type="text/css">
	.st0{fill:url(#SVGID_1_);}
</style>
<g id="Layer_1_00000112604811640718073870000003003449795601292981_">
	
		<linearGradient id="SVGID_1_" gradientUnits="userSpaceOnUse" x1="3.8814" y1="0.6794" x2="24.3478" y2="21.1459" gradientTransform="matrix(1 0 0 -1 0 21.9216)">
		<stop  offset="0.1" style="stop-color:#2814FF"/>
		<stop  offset="0.14" style="stop-color:#2324FF"/>
		<stop  offset="0.3" style="stop-color:#145BFF"/>
		<stop  offset="0.43" style="stop-color:#0983FF"/>
		<stop  offset="0.54" style="stop-color:#029BFF"/>
		<stop  offset="0.61" style="stop-color:#00A4FF"/>
		<stop  offset="0.66" style="stop-color:#00ACCE"/>
		<stop  offset="0.72" style="stop-color:#00B590"/>
		<stop  offset="0.79" style="stop-color:#00BD5D"/>
		<stop  offset="0.84" style="stop-color:#00C434"/>
		<stop  offset="0.9" style="stop-color:#00C818"/>
		<stop  offset="0.95" style="stop-color:#00CB06"/>
		<stop  offset="0.98" style="stop-color:#00CC00"/>
	</linearGradient>
	<path class="st0" d="M28.2,11.1c-0.2-2.2-1.5-4.1-3.5-5C26.1,4.7,26,2.4,24.6,1s-3.8-1.3-5.1,0.2c-1.3,1.4-1.3,3.6,0,5
		c-0.7,0.3-1.3,0.8-1.8,1.3c-0.2-0.1-0.5-0.2-0.7-0.4c1.6-1.5,1.7-4.1,0.2-5.8c-1.5-1.6-4.1-1.7-5.8-0.2C10.5,1.9,10,3,10,4.1
		c0,1.1,0.5,2.2,1.3,3c-0.2,0.1-0.5,0.2-0.7,0.4c-0.5-0.5-1.1-1-1.8-1.3c1.4-1.5,1.3-3.8-0.2-5.1S4.9-0.3,3.5,1.1
		c-1.3,1.4-1.3,3.6,0,5c-2,1-3.3,2.9-3.5,5.1v6.2h7V20h14.2v-2.7h7.1L28.2,11.1z M6.2,5.3c-0.9,0-1.7-0.8-1.7-1.7
		c0-0.9,0.8-1.7,1.7-1.7s1.7,0.8,1.7,1.7S7.1,5.3,6.2,5.3L6.2,5.3z M19.2,15.4v2.7H8.9v-2.7h-7v-3.7c0-2.3,1.9-4.2,4.2-4.2
		c1.4,0,2.7,0.7,3.5,1.8l0.5,0.8l0.7-0.6c1.9-1.4,4.5-1.4,6.3,0.1l0.8,0.6l0.5-0.8c1.3-1.9,3.9-2.5,5.9-1.2c1.2,0.8,1.9,2.1,1.9,3.5
		v3.7H19.2z M20.4,3.6c0-0.9,0.8-1.7,1.7-1.7s1.7,0.8,1.7,1.7c0,0.9-0.8,1.7-1.7,1.7c0,0,0,0,0,0C21.1,5.3,20.4,4.5,20.4,3.6z
		 M12,4.1c0-1.2,1-2.1,2.1-2.1c1.2,0,2.1,1,2.1,2.1c0,1.2-1,2.1-2.1,2.1C12.9,6.2,12,5.3,12,4.1C12,4.1,12,4.1,12,4.1z"/>
</g>
</svg>
