<?xml version="1.0" encoding="utf-8"?>
<!-- Generator: Adobe Illustrator 26.4.1, SVG Export Plug-In . SVG Version: 6.00 Build 0)  -->
<svg version="1.1" id="Layer_1" xmlns="http://www.w3.org/2000/svg" xmlns:xlink="http://www.w3.org/1999/xlink" x="0px" y="0px"
	 viewBox="0 0 26.6 16.4" style="enable-background:new 0 0 26.6 16.4;" xml:space="preserve">
<style type="text/css">
	.st0{fill:url(#SVGID_1_);}
</style>
<g id="Layer_1_00000160155444899706258350000017099936188225273245_">
	
		<linearGradient id="SVGID_1_" gradientUnits="userSpaceOnUse" x1="5.0082" y1="-0.7382" x2="21.5582" y2="15.8118" gradientTransform="matrix(1 0 0 -1 0 18.64)">
		<stop  offset="0.1" style="stop-color:#2814FF"/>
		<stop  offset="0.14" style="stop-color:#2324FF"/>
		<stop  offset="0.3" style="stop-color:#145BFF"/>
		<stop  offset="0.43" style="stop-color:#0983FF"/>
		<stop  offset="0.54" style="stop-color:#029BFF"/>
		<stop  offset="0.61" style="stop-color:#00A4FF"/>
		<stop  offset="0.66" style="stop-color:#00ACCE"/>
		<stop  offset="0.72" style="stop-color:#00B590"/>
		<stop  offset="0.79" style="stop-color:#00BD5D"/>
		<stop  offset="0.84" style="stop-color:#00C434"/>
		<stop  offset="0.9" style="stop-color:#00C818"/>
		<stop  offset="0.95" style="stop-color:#00CB06"/>
		<stop  offset="0.98" style="stop-color:#00CC00"/>
	</linearGradient>
	<path class="st0" d="M26.6,13.3C26.6,6,20.7,0,13.3,0S0,6,0,13.3v1h10.4c0.6,1.7,2.4,2.5,4.1,1.9c0.9-0.3,1.6-1,1.9-1.9h10.3
		L26.6,13.3z M18.4,5.1l-1.6-0.8l-3.1,6c-1.5-0.2-2.9,0.7-3.4,2.2H2c0.2-2.2,1-4.3,2.4-6l1.5,1.2L7,6.3L5.6,5.1
		c1.9-1.8,4.3-2.8,6.9-3.1v1.8h1.8V2.1c2.6,0.2,5,1.3,6.9,3.1l-1.4,1.1l1.1,1.4l1.4-1.2c1.3,1.7,2.1,3.8,2.3,5.9h-8.4
		c-0.2-0.5-0.5-1-0.9-1.4L18.4,5.1z"/>
</g>
</svg>
