<?xml version="1.0" encoding="utf-8"?>
<!-- Generator: Adobe Illustrator 26.4.1, SVG Export Plug-In . SVG Version: 6.00 Build 0)  -->
<svg version="1.1" id="Layer_1" xmlns="http://www.w3.org/2000/svg" xmlns:xlink="http://www.w3.org/1999/xlink" x="0px" y="0px"
	 viewBox="0 0 17.1 22.9" style="enable-background:new 0 0 17.1 22.9;" xml:space="preserve">
<style type="text/css">
	.st0{fill:url(#SVGID_1_);}
</style>
<linearGradient id="SVGID_1_" gradientUnits="userSpaceOnUse" x1="0.1173" y1="2.4814" x2="17.0545" y2="19.4186" gradientTransform="matrix(1 0 0 -1 0 25.4)">
	<stop  offset="0.1" style="stop-color:#2814FF"/>
	<stop  offset="0.1435" style="stop-color:#2324FF"/>
	<stop  offset="0.2998" style="stop-color:#145BFF"/>
	<stop  offset="0.4347" style="stop-color:#0983FF"/>
	<stop  offset="0.5417" style="stop-color:#029BFF"/>
	<stop  offset="0.6072" style="stop-color:#00A4FF"/>
	<stop  offset="0.6551" style="stop-color:#00ACCE"/>
	<stop  offset="0.7216" style="stop-color:#00B590"/>
	<stop  offset="0.7855" style="stop-color:#00BD5D"/>
	<stop  offset="0.8449" style="stop-color:#00C434"/>
	<stop  offset="0.8989" style="stop-color:#00C818"/>
	<stop  offset="0.9457" style="stop-color:#00CB06"/>
	<stop  offset="0.98" style="stop-color:#00CC00"/>
</linearGradient>
<path class="st0" d="M15,8.7V6.6c0-3-2-5.6-4.9-6.2L8.5,0l1.3,1.4L9.1,1.9L10,3.1l0.1,0.1c1.3,0.6,2.2,2,2.2,3.4v2.1H4.7V6.6
	c0-1.5,0.9-2.9,2.3-3.5l0.6-0.2L7.1,2.2L8,1.5L7,0.4L6.7,0.5C4,1.3,2,3.8,2,6.7v2H0v14.2h17.1V8.7H15z M1.9,20.9V10.6h13.3v10.3H1.9
	z M10.7,14.4c0,0.8-0.4,1.5-1.1,1.8V19H7.7v-2.8c-0.7-0.4-1.1-1-1.1-1.8c0-1.1,0.9-2.1,2.1-2.1S10.7,13.3,10.7,14.4z"/>
</svg>
