<?xml version="1.0" encoding="utf-8"?>
<!-- Generator: Adobe Illustrator 26.4.1, SVG Export Plug-In . SVG Version: 6.00 Build 0)  -->
<svg version="1.1" id="Layer_1" xmlns="http://www.w3.org/2000/svg" xmlns:xlink="http://www.w3.org/1999/xlink" x="0px" y="0px"
	 viewBox="0 0 26.7 25.6" style="enable-background:new 0 0 26.7 25.6;" xml:space="preserve">
<style type="text/css">
	.st0{fill:url(#SVGID_1_);}
</style>
<g id="Layer_1_00000155837244999386150060000011263503301992185732_">
	
		<linearGradient id="SVGID_1_" gradientUnits="userSpaceOnUse" x1="4.6127" y1="8.6073" x2="19.6427" y2="23.6473" gradientTransform="matrix(1 0 0 -1 0 29.6)">
		<stop  offset="0.1" style="stop-color:#2814FF"/>
		<stop  offset="0.14" style="stop-color:#2324FF"/>
		<stop  offset="0.3" style="stop-color:#145BFF"/>
		<stop  offset="0.43" style="stop-color:#0983FF"/>
		<stop  offset="0.54" style="stop-color:#029BFF"/>
		<stop  offset="0.61" style="stop-color:#00A4FF"/>
		<stop  offset="0.66" style="stop-color:#00ACCE"/>
		<stop  offset="0.72" style="stop-color:#00B590"/>
		<stop  offset="0.79" style="stop-color:#00BD5D"/>
		<stop  offset="0.84" style="stop-color:#00C434"/>
		<stop  offset="0.9" style="stop-color:#00C818"/>
		<stop  offset="0.95" style="stop-color:#00CB06"/>
		<stop  offset="0.98" style="stop-color:#00CC00"/>
	</linearGradient>
	<path class="st0" d="M26.2,10.6h0.5 M25.6,12.8c0,7.1-5.7,12.8-12.8,12.8S0,19.9,0,12.8S5.7,0,12.8,0h0C19.9,0,25.6,5.7,25.6,12.8z
		 M3,17.7h3.8c-0.4-1.1-0.7-2.2-0.8-3.4H2C2.1,15.4,2.4,16.6,3,17.7z M17,8.8h-3.2v3.4h3.9c0-0.2,0-0.4,0-0.6
		C17.5,10.6,17.3,9.7,17,8.8L17,8.8z M16.4,6.8c-0.7-1.5-1.6-2.9-2.8-4.1v4.1H16.4z M11.7,2.8c-1.1,1.2-2,2.5-2.7,4h2.7L11.7,2.8z
		 M8.4,8.8C8.2,9.7,8,10.6,7.9,11.6c0,0.2,0,0.4,0,0.6h3.7V8.8H8.4z M6.3,8.8H2.6C2.2,9.9,1.9,11,1.9,12.2h4c0-0.2,0-0.5,0-0.8
		C5.9,10.5,6.1,9.7,6.3,8.8z M8.9,17.6h2.7v-3.4H8C8.1,15.4,8.4,16.6,8.9,17.6L8.9,17.6z M9.7,19.6c0.6,1.1,1.3,2.1,2.1,3v-3H9.7z
		 M13.6,22.8c0.8-1,1.6-2.1,2.2-3.2h-2.2V22.8z M16.6,17.6c0.5-1.1,0.8-2.2,0.9-3.4h-3.8v3.4H16.6z M18.7,17.6h3.9
		c0.5-1.1,0.9-2.2,1-3.4h-4.2C19.4,15.4,19.1,16.5,18.7,17.6L18.7,17.6z M23.7,12.2c0-1.2-0.3-2.3-0.7-3.4h-3.9
		c0.2,0.9,0.4,1.8,0.5,2.7c0,0.2,0,0.5,0,0.7H23.7z M15.5,2.1c1.2,1.4,2.1,2.9,2.8,4.6H22C20.6,4.4,18.2,2.7,15.5,2.1z M3.6,6.7h3.5
		c0.7-1.7,1.6-3.2,2.8-4.6C7.2,2.8,5,4.4,3.6,6.7z M10.2,23.6c-1-1.2-1.8-2.5-2.5-3.9H4.2C5.6,21.7,7.8,23.1,10.2,23.6z M21.5,19.7
		h-3.7c-0.7,1.4-1.6,2.7-2.5,3.9C17.7,23.1,19.9,21.7,21.5,19.7z"/>
</g>
</svg>
