<?xml version="1.0" encoding="utf-8"?>
<!-- Generator: Adobe Illustrator 26.4.1, SVG Export Plug-In . SVG Version: 6.00 Build 0)  -->
<svg version="1.1" id="Layer_1" xmlns="http://www.w3.org/2000/svg" xmlns:xlink="http://www.w3.org/1999/xlink" x="0px" y="0px"
	 viewBox="0 0 25.3 22.7" style="enable-background:new 0 0 25.3 22.7;" xml:space="preserve">
<style type="text/css">
	.st0{fill:url(#SVGID_1_);}
</style>
<g id="Layer_1_00000153704256123629762760000012736584842923070617_">
	
		<linearGradient id="SVGID_1_" gradientUnits="userSpaceOnUse" x1="5.6431" y1="4.3569" x2="21.3481" y2="20.0619" gradientTransform="matrix(1 0 0 -1 0 24.5801)">
		<stop  offset="0.1" style="stop-color:#2814FF"/>
		<stop  offset="0.14" style="stop-color:#2324FF"/>
		<stop  offset="0.3" style="stop-color:#145BFF"/>
		<stop  offset="0.43" style="stop-color:#0983FF"/>
		<stop  offset="0.54" style="stop-color:#029BFF"/>
		<stop  offset="0.61" style="stop-color:#00A4FF"/>
		<stop  offset="0.66" style="stop-color:#00ACCE"/>
		<stop  offset="0.72" style="stop-color:#00B590"/>
		<stop  offset="0.79" style="stop-color:#00BD5D"/>
		<stop  offset="0.84" style="stop-color:#00C434"/>
		<stop  offset="0.9" style="stop-color:#00C818"/>
		<stop  offset="0.95" style="stop-color:#00CB06"/>
		<stop  offset="0.98" style="stop-color:#00CC00"/>
	</linearGradient>
	<path class="st0" d="M12.9,8.5v-2C12.9,2.9,10,0,6.5,0C2.9,0,0,2.9,0,6.4l0,0v0.5h2.7V6.4c-0.1-2.1,1.5-3.9,3.6-4
		c2.1-0.1,3.9,1.5,4,3.6c0,0.1,0,0.3,0,0.4v2H8.1v14.3h17.2V8.5H12.9z M10,20.7V10.4h13.3v10.3H10z M18.8,14.3
		c0,0.8-0.4,1.5-1.1,1.9v2.8h-2v-2.8c-1-0.5-1.4-1.8-0.9-2.9s1.8-1.4,2.9-0.9C18.4,12.8,18.8,13.5,18.8,14.3z"/>
</g>
</svg>
