<?xml version="1.0" encoding="utf-8"?>
<!-- Generator: Adobe Illustrator 26.4.1, SVG Export Plug-In . SVG Version: 6.00 Build 0)  -->
<svg version="1.1" id="Layer_1" xmlns="http://www.w3.org/2000/svg" xmlns:xlink="http://www.w3.org/1999/xlink" x="0px" y="0px"
	 viewBox="0 0 16.7 26.3" style="enable-background:new 0 0 16.7 26.3;" xml:space="preserve">
<style type="text/css">
	.st0{fill:url(#SVGID_1_);}
</style>
<g id="Layer_1_00000069399645797202350160000009793072275880329112_">
	
		<linearGradient id="SVGID_1_" gradientUnits="userSpaceOnUse" x1="0.1158" y1="7.6642" x2="16.6291" y2="24.1775" gradientTransform="matrix(1 0 0 -1 0 29.1)">
		<stop  offset="0.1" style="stop-color:#2814FF"/>
		<stop  offset="0.14" style="stop-color:#2324FF"/>
		<stop  offset="0.3" style="stop-color:#145BFF"/>
		<stop  offset="0.43" style="stop-color:#0983FF"/>
		<stop  offset="0.54" style="stop-color:#029BFF"/>
		<stop  offset="0.61" style="stop-color:#00A4FF"/>
		<stop  offset="0.66" style="stop-color:#00ACCE"/>
		<stop  offset="0.72" style="stop-color:#00B590"/>
		<stop  offset="0.79" style="stop-color:#00BD5D"/>
		<stop  offset="0.84" style="stop-color:#00C434"/>
		<stop  offset="0.9" style="stop-color:#00C818"/>
		<stop  offset="0.95" style="stop-color:#00CB06"/>
		<stop  offset="0.98" style="stop-color:#00CC00"/>
	</linearGradient>
	<path class="st0" d="M5,24.1h6.8v2.2H5L5,24.1z M5,21.2v2.2h6.8v-2.2H5z M6.5,19.2h2.4l2.8-6.9H8.6l1.5-4.7L8,6.9l-2.5,7.6h2.9
		L6.5,19.2z M8.4,0C3.7,0.1,0,3.9,0,8.6c0,3.3,4.8,11.3,4.9,11.4l0.3,0.5h6.4l0.3-0.5c0-0.1,4.9-8,4.9-11.4C16.7,3.9,13,0.1,8.4,0z
		 M6.4,18.2c-1.5-2.4-4.2-7.9-4.2-9.7c0-3.4,2.7-6.3,6.2-6.4c3.4,0.1,6.2,2.9,6.2,6.4c0,1.8-2.7,7.3-4.2,9.7L6.4,18.2z"/>
</g>
</svg>
