<?xml version="1.0" encoding="utf-8"?>
<!-- Generator: Adobe Illustrator 26.4.1, SVG Export Plug-In . SVG Version: 6.00 Build 0)  -->
<svg version="1.1" id="Layer_1" xmlns="http://www.w3.org/2000/svg" xmlns:xlink="http://www.w3.org/1999/xlink" x="0px" y="0px"
	 viewBox="0 0 27.1 23.1" style="enable-background:new 0 0 27.1 23.1;" xml:space="preserve">
<style type="text/css">
	.st0{fill:url(#SVGID_1_);}
</style>
<g id="Layer_1_00000000208418681548434400000005789920003885236106_">
	
		<linearGradient id="SVGID_1_" gradientUnits="userSpaceOnUse" x1="1.9604" y1="3.5204" x2="25.1696" y2="26.7396" gradientTransform="matrix(1 0 0 -1 0 24.78)">
		<stop  offset="0.1" style="stop-color:#2814FF"/>
		<stop  offset="0.14" style="stop-color:#2324FF"/>
		<stop  offset="0.3" style="stop-color:#145BFF"/>
		<stop  offset="0.43" style="stop-color:#0983FF"/>
		<stop  offset="0.54" style="stop-color:#029BFF"/>
		<stop  offset="0.61" style="stop-color:#00A4FF"/>
		<stop  offset="0.66" style="stop-color:#00ACCE"/>
		<stop  offset="0.72" style="stop-color:#00B590"/>
		<stop  offset="0.79" style="stop-color:#00BD5D"/>
		<stop  offset="0.84" style="stop-color:#00C434"/>
		<stop  offset="0.9" style="stop-color:#00C818"/>
		<stop  offset="0.95" style="stop-color:#00CB06"/>
		<stop  offset="0.98" style="stop-color:#00CC00"/>
	</linearGradient>
	<path class="st0" d="M27.1,19.3V0H0v19.3h8.8v1.4H6.3v2.4h14.5v-2.4h-2.4v-1.4H27.1z M24.8,2.3V17H2.3V2.3L24.8,2.3z M15.5,14h7.8
		v1.6h-7.8V14z M15.5,11.5v1.6h7.8v-1.6L15.5,11.5z M15.5,9.1v1.6h7.8V9.1L15.5,9.1z M8.1,4.1H7.9C5.8,4,4,5.8,4,7.9c0,0,0,0,0,0
		v0.2h4.1L8.1,4.1z M9,5.2H8.8v3.7H5.1v0.2c0,2.2,1.8,3.9,3.9,3.9S13,11.3,13,9.1S11.2,5.2,9,5.2C9,5.2,9,5.2,9,5.2z"/>
</g>
</svg>
