<?xml version="1.0" encoding="utf-8"?>
<!-- Generator: Adobe Illustrator 26.4.1, SVG Export Plug-In . SVG Version: 6.00 Build 0)  -->
<svg version="1.1" id="Layer_1" xmlns="http://www.w3.org/2000/svg" xmlns:xlink="http://www.w3.org/1999/xlink" x="0px" y="0px"
	 viewBox="0 0 22.2 25.2" style="enable-background:new 0 0 22.2 25.2;" xml:space="preserve">
<style type="text/css">
	.st0{fill:url(#SVGID_1_);}
</style>
<g id="Layer_1_00000131333389227101969560000016542051766383896207_">
	
		<linearGradient id="SVGID_1_" gradientUnits="userSpaceOnUse" x1="-0.78" y1="746.48" x2="22.92" y2="722.78" gradientTransform="matrix(1 0 0 1 0 -722)">
		<stop  offset="0.1" style="stop-color:#2814FF"/>
		<stop  offset="0.14" style="stop-color:#2324FF"/>
		<stop  offset="0.3" style="stop-color:#145BFF"/>
		<stop  offset="0.43" style="stop-color:#0983FF"/>
		<stop  offset="0.54" style="stop-color:#029BFF"/>
		<stop  offset="0.61" style="stop-color:#00A4FF"/>
		<stop  offset="0.66" style="stop-color:#00ACCE"/>
		<stop  offset="0.72" style="stop-color:#00B590"/>
		<stop  offset="0.79" style="stop-color:#00BD5D"/>
		<stop  offset="0.84" style="stop-color:#00C434"/>
		<stop  offset="0.9" style="stop-color:#00C818"/>
		<stop  offset="0.95" style="stop-color:#00CB06"/>
		<stop  offset="0.98" style="stop-color:#00CC00"/>
	</linearGradient>
	<path class="st0" d="M2.9,4.6H12v-2H2.9V4.6z M2.9,12.4H12v-2H2.9V12.4z M2.9,20.2H12v-2H2.9V20.2z M16.7,3.6c0,0.5-0.4,1-1,1
		c-0.5,0-1-0.4-1-1c0-0.5,0.4-1,1-1C16.3,2.6,16.7,3,16.7,3.6z M19.3,3.6c0,0.5-0.4,1-1,1s-1-0.4-1-1c0-0.5,0.4-1,1-1
		S19.3,3,19.3,3.6z M16.7,11.4c0,0.5-0.4,1-1,1c-0.5,0-1-0.4-1-1c0-0.5,0.4-1,1-1C16.3,10.4,16.7,10.9,16.7,11.4z M19.3,11.4
		c0,0.5-0.4,1-1,1s-1-0.4-1-1c0-0.5,0.4-1,1-1S19.3,10.9,19.3,11.4z M16.7,19.3c0,0.5-0.4,1-1,1c-0.5,0-1-0.4-1-1s0.4-1,1-1
		C16.3,18.3,16.7,18.7,16.7,19.3z M19.3,19.3c0,0.5-0.4,1-1,1s-1-0.4-1-1s0.4-1,1-1S19.3,18.7,19.3,19.3z M0,0v25.2h22.2V0H0z
		 M2.1,7.7V2H20v5.7H2.1z M2.1,15.4V9.8H20v5.5L2.1,15.4z M2.1,23.2v-5.7H20v5.7H2.1z"/>
</g>
</svg>
