<?xml version="1.0" encoding="utf-8"?>
<!-- Generator: Adobe Illustrator 26.4.1, SVG Export Plug-In . SVG Version: 6.00 Build 0)  -->
<svg version="1.1" id="Layer_1" xmlns="http://www.w3.org/2000/svg" xmlns:xlink="http://www.w3.org/1999/xlink" x="0px" y="0px"
	 viewBox="0 0 28.9 29.2" style="enable-background:new 0 0 28.9 29.2;" xml:space="preserve">
<style type="text/css">
	.st0{fill:none;}
	.st1{fill:url(#SVGID_1_);}
	.st2{fill:url(#SVGID_00000054264434230830553070000003930436899855677619_);}
	.st3{fill:url(#SVGID_00000073696704625111039070000014514529849147209132_);}
	.st4{fill:url(#SVGID_00000004519531098965880610000002596101893965379459_);}
</style>
<g>
	<path class="st0" d="M22.4,17.1l-0.1,0.4c-0.3-0.6-1-1-1.7-1.1v-0.2c0-0.2,0.1-0.4,0.1-0.6h-5.1v5.1c1-0.2,2-0.6,2.8-1.2l0.2-0.1
		c0.3,0.6,0.9,1.1,1.6,1.1l-0.4,0.3c-1.2,1-2.7,1.7-4.2,1.9v3c5.3-0.5,9.5-4.7,10-10h-3C22.6,16.1,22.5,16.6,22.4,17.1z M20.5,19.7
		c-0.7,0-1.3-0.6-1.3-1.3s0.6-1.3,1.3-1.3s1.3,0.6,1.3,1.3S21.2,19.7,20.5,19.7z"/>
	<path class="st0" d="M9.7,10.5c-0.7,0.8-1.1,1.8-1.3,2.9h5V8.3c-0.2,0-0.3,0-0.5,0.1h-0.1c0-0.7-0.4-1.4-1-1.7l0.4-0.1
		c0.4-0.1,0.8-0.2,1.2-0.2v-3c-5.3,0.5-9.5,4.7-10,10h3c0.2-1.6,0.9-3.2,2-4.4l0.3-0.4c0.1,0.7,0.5,1.3,1.1,1.6L9.7,10.5L9.7,10.5z
		 M9.5,8.5c0-0.7,0.6-1.3,1.3-1.3s1.3,0.6,1.3,1.3s-0.6,1.3-1.3,1.3S9.5,9.2,9.5,8.5z"/>
	<path class="st0" d="M13.5,20.6v-5.1H8.4C8.9,18.1,10.9,20.2,13.5,20.6z"/>
	<path class="st0" d="M21.7,5.9c-1.7-1.5-3.9-2.3-6.1-2.5v3c1.5,0.2,2.8,0.7,4,1.7L21.7,5.9z"/>
	<path class="st0" d="M18.2,9.5c-0.8-0.6-1.7-0.9-2.6-1.1v3.7L18.2,9.5L18.2,9.5z"/>
	
		<linearGradient id="SVGID_1_" gradientUnits="userSpaceOnUse" x1="10.0576" y1="750.8473" x2="31.4376" y2="729.4573" gradientTransform="matrix(1 0 0 1 0 -722)">
		<stop  offset="0.1" style="stop-color:#2814FF"/>
		<stop  offset="0.14" style="stop-color:#2324FF"/>
		<stop  offset="0.3" style="stop-color:#145BFF"/>
		<stop  offset="0.43" style="stop-color:#0983FF"/>
		<stop  offset="0.54" style="stop-color:#029BFF"/>
		<stop  offset="0.61" style="stop-color:#00A4FF"/>
		<stop  offset="0.66" style="stop-color:#00ACCE"/>
		<stop  offset="0.72" style="stop-color:#00B590"/>
		<stop  offset="0.79" style="stop-color:#00BD5D"/>
		<stop  offset="0.84" style="stop-color:#00C434"/>
		<stop  offset="0.9" style="stop-color:#00C818"/>
		<stop  offset="0.95" style="stop-color:#00CB06"/>
		<stop  offset="0.98" style="stop-color:#00CC00"/>
	</linearGradient>
	<path class="st1" d="M20.5,17.1c-0.7,0-1.3,0.6-1.3,1.3s0.6,1.3,1.3,1.3s1.3-0.6,1.3-1.3S21.2,17.1,20.5,17.1z"/>
	<g>
		<path class="st0" d="M13.5,20.6v-5.1H8.4C8.9,18.1,10.9,20.2,13.5,20.6z"/>
		<path class="st0" d="M18.2,9.5c-0.8-0.6-1.7-0.9-2.6-1.1v3.7L18.2,9.5L18.2,9.5z"/>
		<path class="st0" d="M9.7,10.5c-0.7,0.8-1.1,1.8-1.3,2.9h5V8.3c-0.2,0-0.3,0-0.5,0.1h-0.1c0-0.7-0.4-1.4-1-1.7l0.4-0.1
			c0.4-0.1,0.8-0.2,1.2-0.2v-3c-5.3,0.5-9.5,4.7-10,10h3c0.2-1.6,0.9-3.2,2-4.4l0.3-0.4c0.1,0.7,0.5,1.3,1.1,1.6L9.7,10.5L9.7,10.5z
			"/>
		<path class="st0" d="M21.7,5.9c-1.7-1.5-3.9-2.3-6.1-2.5v3c1.5,0.2,2.8,0.7,4,1.7L21.7,5.9z"/>
		<path class="st0" d="M22.4,17.1l-0.1,0.4c-0.3-0.6-1-1-1.7-1.1v-0.2c0-0.2,0.1-0.4,0.1-0.6h-5.1v5.1c1-0.2,2-0.6,2.8-1.2l0.2-0.1
			c0.3,0.6,0.9,1.1,1.6,1.1l-0.4,0.3c-1.2,1-2.7,1.7-4.2,1.9v3c5.3-0.5,9.5-4.7,10-10h-3C22.6,16.1,22.5,16.6,22.4,17.1z"/>
		
			<linearGradient id="SVGID_00000013913459557331504430000007115059638172495004_" gradientUnits="userSpaceOnUse" x1="5.1249" y1="745.9169" x2="26.5049" y2="724.5269" gradientTransform="matrix(1 0 0 1 0 -722)">
			<stop  offset="0.1" style="stop-color:#2814FF"/>
			<stop  offset="0.14" style="stop-color:#2324FF"/>
			<stop  offset="0.3" style="stop-color:#145BFF"/>
			<stop  offset="0.43" style="stop-color:#0983FF"/>
			<stop  offset="0.54" style="stop-color:#029BFF"/>
			<stop  offset="0.61" style="stop-color:#00A4FF"/>
			<stop  offset="0.66" style="stop-color:#00ACCE"/>
			<stop  offset="0.72" style="stop-color:#00B590"/>
			<stop  offset="0.79" style="stop-color:#00BD5D"/>
			<stop  offset="0.84" style="stop-color:#00C434"/>
			<stop  offset="0.9" style="stop-color:#00C818"/>
			<stop  offset="0.95" style="stop-color:#00CB06"/>
			<stop  offset="0.98" style="stop-color:#00CC00"/>
		</linearGradient>
		<path style="fill:url(#SVGID_00000013913459557331504430000007115059638172495004_);" d="M17.2,13.4L27,3.6l0.3-0.3l-1.6-1.5
			l-2.6,2.6c-2.1-1.8-4.8-2.9-7.5-3.1V0h-2.2v1.3C7,1.8,1.8,7,1.3,13.4H0v2.1h1.3c0.1,0.7,0.2,1.4,0.3,2.2l0.1,0.4
			c0.4-0.5,1-0.8,1.6-0.8c0.1,0,0.3,0,0.4,0l-0.1-0.2c-0.1-0.5-0.2-1-0.2-1.5h2.9c0.5,3.7,3.4,6.6,7.1,7.2v2.9
			c-3.3-0.3-6.3-2.1-8.2-4.8l-0.3-0.3c-0.4,0.6-1,0.9-1.7,0.9c-0.1,0-0.2,0-0.3,0L3.2,22c2.3,3.4,5.9,5.6,10,5.9v1.3h2.2v-1.3
			c6.5-0.5,11.7-5.7,12.2-12.2h1.3v-2.1H17.2V13.4z M15.6,3.4c2.3,0.2,4.4,1.1,6.1,2.5L19.6,8c-1.2-0.9-2.5-1.5-4-1.7V3.4z M8.8,8.7
			L8.5,9.1c-1.1,1.2-1.8,2.7-2,4.4h-3C4,8.2,8.2,4,13.5,3.5v3c-0.4,0-0.8,0.1-1.2,0.2l-0.4,0.1c0.6,0.4,1,1,1,1.7H13
			c0.2,0,0.3-0.1,0.5-0.1v5.1h-5c0.2-1.1,0.6-2.1,1.3-2.9l0,0l0.2-0.2C9.3,10,8.8,9.4,8.8,8.7z M13.5,20.6c-2.6-0.4-4.7-2.5-5.1-5.1
			h5.1V20.6z M15.6,12.1V8.4c0.9,0.2,1.9,0.5,2.6,1.1l0,0L15.6,12.1z M15.6,25.6v-3c1.6-0.2,3-0.8,4.2-1.9l0.4-0.3
			c-0.7-0.1-1.3-0.5-1.6-1.1l-0.2,0.1c-0.8,0.6-1.8,1-2.8,1.2v-5.1h5.1c0,0.2-0.1,0.4-0.1,0.6v0.2c0.7,0,1.4,0.5,1.7,1.1l0.1-0.4
			c0.1-0.5,0.2-1,0.3-1.5h3C25.2,20.9,20.9,25.1,15.6,25.6z"/>
	</g>
	
		<linearGradient id="SVGID_00000023962831333457711520000007138448267050013087_" gradientUnits="userSpaceOnUse" x1="0.2554" y1="741.0496" x2="21.6354" y2="719.6595" gradientTransform="matrix(1 0 0 1 0 -722)">
		<stop  offset="0.1" style="stop-color:#2814FF"/>
		<stop  offset="0.14" style="stop-color:#2324FF"/>
		<stop  offset="0.3" style="stop-color:#145BFF"/>
		<stop  offset="0.43" style="stop-color:#0983FF"/>
		<stop  offset="0.54" style="stop-color:#029BFF"/>
		<stop  offset="0.61" style="stop-color:#00A4FF"/>
		<stop  offset="0.66" style="stop-color:#00ACCE"/>
		<stop  offset="0.72" style="stop-color:#00B590"/>
		<stop  offset="0.79" style="stop-color:#00BD5D"/>
		<stop  offset="0.84" style="stop-color:#00C434"/>
		<stop  offset="0.9" style="stop-color:#00C818"/>
		<stop  offset="0.95" style="stop-color:#00CB06"/>
		<stop  offset="0.98" style="stop-color:#00CC00"/>
	</linearGradient>
	<path style="fill:url(#SVGID_00000023962831333457711520000007138448267050013087_);" d="M10.8,9.8c0.7,0,1.3-0.6,1.3-1.3
		c0-0.7-0.6-1.3-1.3-1.3S9.5,7.8,9.5,8.5C9.5,9.2,10.1,9.8,10.8,9.8z"/>
	
		<linearGradient id="SVGID_00000165230098518356424100000010758623766826797442_" gradientUnits="userSpaceOnUse" x1="1.9632" y1="742.7566" x2="23.3432" y2="721.3666" gradientTransform="matrix(1 0 0 1 0 -722)">
		<stop  offset="0.1" style="stop-color:#2814FF"/>
		<stop  offset="0.14" style="stop-color:#2324FF"/>
		<stop  offset="0.3" style="stop-color:#145BFF"/>
		<stop  offset="0.43" style="stop-color:#0983FF"/>
		<stop  offset="0.54" style="stop-color:#029BFF"/>
		<stop  offset="0.61" style="stop-color:#00A4FF"/>
		<stop  offset="0.66" style="stop-color:#00ACCE"/>
		<stop  offset="0.72" style="stop-color:#00B590"/>
		<stop  offset="0.79" style="stop-color:#00BD5D"/>
		<stop  offset="0.84" style="stop-color:#00C434"/>
		<stop  offset="0.9" style="stop-color:#00C818"/>
		<stop  offset="0.95" style="stop-color:#00CB06"/>
		<stop  offset="0.98" style="stop-color:#00CC00"/>
	</linearGradient>
	<path style="fill:url(#SVGID_00000165230098518356424100000010758623766826797442_);" d="M4.7,19.3c0-0.7-0.6-1.3-1.3-1.3
		s-1.3,0.6-1.3,1.3s0.6,1.3,1.3,1.3S4.7,20.1,4.7,19.3z"/>
</g>
</svg>
