<?xml version="1.0" encoding="utf-8"?>
<!-- Generator: Adobe Illustrator 26.4.1, SVG Export Plug-In . SVG Version: 6.00 Build 0)  -->
<svg version="1.1" id="Layer_1" xmlns="http://www.w3.org/2000/svg" xmlns:xlink="http://www.w3.org/1999/xlink" x="0px" y="0px"
	 viewBox="0 0 26.9 25" style="enable-background:new 0 0 26.9 25;" xml:space="preserve">
<style type="text/css">
	.st0{fill:url(#SVGID_1_);}
</style>
<g id="Layer_1_00000011728682049245643290000008583610076921975197_">
	
		<linearGradient id="SVGID_1_" gradientUnits="userSpaceOnUse" x1="2.2575" y1="0.7425" x2="25.9525" y2="24.4375" gradientTransform="matrix(1 0 0 -1 0 28)">
		<stop  offset="0.1" style="stop-color:#2814FF"/>
		<stop  offset="0.14" style="stop-color:#2324FF"/>
		<stop  offset="0.3" style="stop-color:#145BFF"/>
		<stop  offset="0.43" style="stop-color:#0983FF"/>
		<stop  offset="0.54" style="stop-color:#029BFF"/>
		<stop  offset="0.61" style="stop-color:#00A4FF"/>
		<stop  offset="0.66" style="stop-color:#00ACCE"/>
		<stop  offset="0.72" style="stop-color:#00B590"/>
		<stop  offset="0.79" style="stop-color:#00BD5D"/>
		<stop  offset="0.84" style="stop-color:#00C434"/>
		<stop  offset="0.9" style="stop-color:#00C818"/>
		<stop  offset="0.95" style="stop-color:#00CB06"/>
		<stop  offset="0.98" style="stop-color:#00CC00"/>
	</linearGradient>
	<path class="st0" d="M6,14.6v2.2H3.9v-2.2H6z M3.9,11v2.2h2.2V11H3.9z M21.2,14.6v2.2h2.2v-2.2L21.2,14.6z M21.2,11v2.2h2.2V11
		H21.2z M21.2,7.4v2.2h2.2V7.4L21.2,7.4z M10.9,14.6v2.2h2.2v-2.2H10.9z M10.9,11v2.2h2.2V11L10.9,11z M10.9,7.4v2.2h2.2V7.4H10.9z
		 M10.9,3.7v2.2h2.2V3.7L10.9,3.7z M14.6,14.6v2.2h2.2v-2.2H14.6z M14.6,11v2.2h2.2V11L14.6,11z M14.6,7.4v2.2h2.2V7.4H14.6z
		 M14.6,3.7v2.2h2.2V3.7L14.6,3.7z M26.1,22.8V3.7h-5.5V0H7.1v7.7H0.8v15.1H0V25h26.9v-2.2L26.1,22.8z M24.1,5.8V23h-3.5V5.8
		L24.1,5.8z M15.1,20.3V23h-2.5v-2.7L15.1,20.3z M10.7,18.4V23H9.1V2h9.5v21H17v-4.6L10.7,18.4z M2.8,23V9.7h4.3V23H2.8z"/>
</g>
</svg>
