<?xml version="1.0" encoding="utf-8"?>
<!-- Generator: Adobe Illustrator 26.4.1, SVG Export Plug-In . SVG Version: 6.00 Build 0)  -->
<svg version="1.1" id="Layer_1" xmlns="http://www.w3.org/2000/svg" xmlns:xlink="http://www.w3.org/1999/xlink" x="0px" y="0px"
	 viewBox="0 0 27.2 27.2" style="enable-background:new 0 0 27.2 27.2;" xml:space="preserve">
<style type="text/css">
	.st0{fill:url(#SVGID_1_);}
</style>
<g id="Layer_1_00000173860070642723277200000003373970523843321750_">
	
		<linearGradient id="SVGID_1_" gradientUnits="userSpaceOnUse" x1="-7.248218e-08" y1="2.8" x2="27.19" y2="30" gradientTransform="matrix(1 0 0 -1 0 30)">
		<stop  offset="0.1" style="stop-color:#2814FF"/>
		<stop  offset="0.14" style="stop-color:#2324FF"/>
		<stop  offset="0.3" style="stop-color:#145BFF"/>
		<stop  offset="0.43" style="stop-color:#0983FF"/>
		<stop  offset="0.54" style="stop-color:#029BFF"/>
		<stop  offset="0.61" style="stop-color:#00A4FF"/>
		<stop  offset="0.66" style="stop-color:#00ACCE"/>
		<stop  offset="0.72" style="stop-color:#00B590"/>
		<stop  offset="0.79" style="stop-color:#00BD5D"/>
		<stop  offset="0.84" style="stop-color:#00C434"/>
		<stop  offset="0.9" style="stop-color:#00C818"/>
		<stop  offset="0.95" style="stop-color:#00CB06"/>
		<stop  offset="0.98" style="stop-color:#00CC00"/>
	</linearGradient>
	<path class="st0" d="M0,0v27.2h27.2V0H0z M2.3,24.9V2.3h22.5v22.5L2.3,24.9z M19.4,12.7l3.4,3.4l-3.4,3.4l-1.5-1.4l1-1h-5.6v-2h5.6
		l-1-1L19.4,12.7z M9.2,19.3l-1.4-1.4l-3.4,3.4l3.4,3.4l1.5-1.4l-1-1h5.8v-2H8.3L9.2,19.3z M9.2,13l-1-1h5.8v-2H8.3l1-1L7.8,7.6
		L4.4,11l3.4,3.5L9.2,13z M17.9,7.9l1.5,1.4l3.4-3.4l-3.4-3.4l-1.5,1.4l1,1h-5.6v2h5.6L17.9,7.9z"/>
</g>
</svg>
