<?xml version="1.0" encoding="utf-8"?>
<!-- Generator: Adobe Illustrator 26.4.1, SVG Export Plug-In . SVG Version: 6.00 Build 0)  -->
<svg version="1.1" id="Layer_1" xmlns="http://www.w3.org/2000/svg" xmlns:xlink="http://www.w3.org/1999/xlink" x="0px" y="0px"
	 viewBox="0 0 26.2 26.2" style="enable-background:new 0 0 26.2 26.2;" xml:space="preserve">
<style type="text/css">
	.st0{fill:url(#SVGID_1_);}
</style>
<g id="Layer_1_00000054974972531079037830000004030635517720641726_">
	
		<linearGradient id="SVGID_1_" gradientUnits="userSpaceOnUse" x1="3.8365" y1="7.2077" x2="22.3435" y2="25.7247" gradientTransform="matrix(1 0 0 -1 0 29.5562)">
		<stop  offset="0.1" style="stop-color:#2814FF"/>
		<stop  offset="0.14" style="stop-color:#2324FF"/>
		<stop  offset="0.3" style="stop-color:#145BFF"/>
		<stop  offset="0.43" style="stop-color:#0983FF"/>
		<stop  offset="0.54" style="stop-color:#029BFF"/>
		<stop  offset="0.61" style="stop-color:#00A4FF"/>
		<stop  offset="0.66" style="stop-color:#00ACCE"/>
		<stop  offset="0.72" style="stop-color:#00B590"/>
		<stop  offset="0.79" style="stop-color:#00BD5D"/>
		<stop  offset="0.84" style="stop-color:#00C434"/>
		<stop  offset="0.9" style="stop-color:#00C818"/>
		<stop  offset="0.95" style="stop-color:#00CB06"/>
		<stop  offset="0.98" style="stop-color:#00CC00"/>
	</linearGradient>
	<path class="st0" d="M22.4,3.9C17.3-1.3,9-1.3,3.9,3.8s-5.2,13.4-0.1,18.5s13.4,5.2,18.5,0.1c2.5-2.4,3.9-5.8,3.9-9.3
		C26.2,9.7,24.8,6.3,22.4,3.9z M13.2,24c-6,0-10.9-4.8-10.9-10.8S7,2.3,13,2.3S23.9,7.1,24,13.1c0,2.9-1.1,5.7-3.1,7.7
		C18.8,22.8,16.1,24,13.2,24z M10.8,13.1l-3.2,3.3l-1.4-1.3l1-1H3.5v-1.9h3.7l-1-1l1.4-1.4L10.8,13.1z M22.9,12.1h-3.7l1-1l-1.3-1.4
		l-3.2,3.3l3.2,3.3l1.4-1.3l-1-1h3.7L22.9,12.1z M14.2,19.5v-3.7h-1.9v3.7l-1-1l-1.4,1.3l3.3,3.3l3.3-3.3l-1.4-1.3L14.2,19.5z
		 M12.3,6.6v3.7h1.9V6.6l1,1l1.3-1.4L13.2,3L9.9,6.3l1.3,1.4L12.3,6.6z"/>
</g>
</svg>
