<?xml version="1.0" encoding="utf-8"?>
<!-- Generator: Adobe Illustrator 26.4.1, SVG Export Plug-In . SVG Version: 6.00 Build 0)  -->
<svg version="1.1" id="Layer_1" xmlns="http://www.w3.org/2000/svg" xmlns:xlink="http://www.w3.org/1999/xlink" x="0px" y="0px"
	 viewBox="0 0 27.3 27.5" style="enable-background:new 0 0 27.3 27.5;" xml:space="preserve">
<style type="text/css">
	.st0{fill:url(#SVGID_1_);}
</style>
<g id="Layer_1_00000176722105728979327350000011827493631394852531_">
	
		<linearGradient id="SVGID_1_" gradientUnits="userSpaceOnUse" x1="-6.250000e-02" y1="2.8625" x2="27.3325" y2="30.2575" gradientTransform="matrix(1 0 0 -1 0 30.32)">
		<stop  offset="0.1" style="stop-color:#2814FF"/>
		<stop  offset="0.14" style="stop-color:#2324FF"/>
		<stop  offset="0.3" style="stop-color:#145BFF"/>
		<stop  offset="0.43" style="stop-color:#0983FF"/>
		<stop  offset="0.54" style="stop-color:#029BFF"/>
		<stop  offset="0.61" style="stop-color:#00A4FF"/>
		<stop  offset="0.66" style="stop-color:#00ACCE"/>
		<stop  offset="0.72" style="stop-color:#00B590"/>
		<stop  offset="0.79" style="stop-color:#00BD5D"/>
		<stop  offset="0.84" style="stop-color:#00C434"/>
		<stop  offset="0.9" style="stop-color:#00C818"/>
		<stop  offset="0.95" style="stop-color:#00CB06"/>
		<stop  offset="0.98" style="stop-color:#00CC00"/>
	</linearGradient>
	<path class="st0" d="M16.5,23c0,0.3,0.2,0.5,0.5,0.5c0.3,0,0.5-0.2,0.5-0.6c0-0.3-0.2-0.5-0.5-0.5C16.8,22.5,16.5,22.8,16.5,23z
		 M19.9,22.7c-0.4,0-0.6,0.3-0.6,0.6c0,0.4,0.3,0.6,0.6,0.6c0.4,0,0.6-0.3,0.6-0.6c0,0,0,0,0,0C20.6,23,20.3,22.7,19.9,22.7z
		 M23.5,23.1c-0.4,0-0.7,0.3-0.7,0.7c0,0.4,0.3,0.7,0.7,0.7c0.4,0,0.7-0.3,0.7-0.7C24.2,23.4,23.9,23.1,23.5,23.1
		C23.5,23.1,23.5,23.1,23.5,23.1z M18.1,5.2H16v1.1h2L18.1,5.2z M18.1,8.8H16v1.1h2L18.1,8.8z M18.1,7H16v1.1h2L18.1,7z M21,4.2h-2
		v1.1h2V4.2z M21,8.1h-2v1.1h2V8.1z M21,6.2h-2v1.1h2V6.2z M24.6,3h-2.3v1.3h2.3L24.6,3z M24.6,7.4h-2.3v1.3h2.3L24.6,7.4z
		 M24.6,5.2h-2.3v1.3h2.3L24.6,5.2z M10.1,22.5c-0.3,0-0.6,0.2-0.6,0.5c0,0.3,0.2,0.6,0.6,0.6s0.6-0.2,0.6-0.6
		C10.7,22.7,10.4,22.5,10.1,22.5z M6.6,23.3c0,0.4,0.3,0.6,0.6,0.6c0.4,0,0.6-0.3,0.6-0.6c0-0.4-0.3-0.6-0.6-0.6c0,0,0,0,0,0
		C6.9,22.7,6.6,23,6.6,23.3z M3,23.8c0,0.4,0.3,0.7,0.7,0.7c0.4,0,0.7-0.3,0.7-0.7c0-0.4-0.3-0.7-0.7-0.7C3.3,23.1,3,23.4,3,23.8z
		 M9.1,6.3h2V5.2h-2L9.1,6.3z M9.1,9.8h2V8.8h-2L9.1,9.8z M9.1,8.1h2V7h-2L9.1,8.1z M6.2,5.3h2V4.2h-2L6.2,5.3z M6.2,9.2h2V8.1h-2
		L6.2,9.2z M6.2,7.2h2V6.2h-2L6.2,7.2z M2.6,4.2H5V3H2.6L2.6,4.2z M2.6,8.7H5V7.4H2.6L2.6,8.7z M2.6,6.4H5V5.2H2.6L2.6,6.4z M19.4,0
		v1.5h-2.8v1.4H14v23.5h2.6V27h2.8v0.5h7.9V0H19.4z M16,24.4V4.9h0.8v19.5H16z M18.8,3.4h0.8V25h-0.8L18.8,3.4z M21.6,25.5V2h3.7
		v23.5L21.6,25.5z M10.7,1.5H7.9V0H0v27.5h7.9V27h2.8v-0.6h2.6V2.9h-2.6L10.7,1.5z M8.5,3.5V25H7.7V3.4L8.5,3.5z M5.7,2v23.5H2V2
		H5.7z M11.2,4.9v19.5h-0.8V4.9H11.2z"/>
</g>
</svg>
