<?xml version="1.0" encoding="utf-8"?>
<!-- Generator: Adobe Illustrator 26.4.1, SVG Export Plug-In . SVG Version: 6.00 Build 0)  -->
<svg version="1.1" id="Layer_1" xmlns="http://www.w3.org/2000/svg" xmlns:xlink="http://www.w3.org/1999/xlink" x="0px" y="0px"
	 viewBox="0 0 26.3 15.8" style="enable-background:new 0 0 26.3 15.8;" xml:space="preserve">
<style type="text/css">
	.st0{fill:url(#SVGID_1_);}
</style>
<linearGradient id="SVGID_1_" gradientUnits="userSpaceOnUse" x1="6.5474" y1="4.0974" x2="19.6973" y2="17.2474" gradientTransform="matrix(1 0 0 -1 0 18.6)">
	<stop  offset="0.1" style="stop-color:#2814FF"/>
	<stop  offset="0.1435" style="stop-color:#2324FF"/>
	<stop  offset="0.2998" style="stop-color:#145BFF"/>
	<stop  offset="0.4347" style="stop-color:#0983FF"/>
	<stop  offset="0.5417" style="stop-color:#029BFF"/>
	<stop  offset="0.6072" style="stop-color:#00A4FF"/>
	<stop  offset="0.6551" style="stop-color:#00ACCE"/>
	<stop  offset="0.7216" style="stop-color:#00B590"/>
	<stop  offset="0.7855" style="stop-color:#00BD5D"/>
	<stop  offset="0.8449" style="stop-color:#00C434"/>
	<stop  offset="0.8989" style="stop-color:#00C818"/>
	<stop  offset="0.9457" style="stop-color:#00CB06"/>
	<stop  offset="0.98" style="stop-color:#00CC00"/>
</linearGradient>
<path class="st0" d="M13.6,15.8c4.4-0.3,9.3-4.6,11.9-7.1l0.8-0.8l-0.8-0.8C23,4.6,17.7,0.3,13.6,0c-0.2,0-0.5,0-0.7,0
	C9.5,0.1,5.4,2.6,0.8,7.1L0,7.9l0.8,0.8c4.8,4.8,8.6,7,12.2,7.1C13.1,15.8,13.4,15.8,13.6,15.8z M20.4,7.9c0-1-0.2-1.9-0.6-2.8
	c1.2,0.8,2.3,1.8,3.4,2.8C22,9,20.9,10,19.7,10.8C20.2,9.9,20.4,8.9,20.4,7.9z M18.3,7.9c0,2.9-2.4,5.3-5.3,5.3s-5.3-2.4-5.3-5.3
	s2.4-5.3,5.3-5.3S18.3,5,18.3,7.9z M6.4,10.8C5.3,10,4.2,9,3,7.9C4.2,6.8,5.3,5.8,6.4,5C6,5.9,5.8,6.9,5.8,7.9
	C5.7,8.9,5.9,9.9,6.4,10.8z M16.5,7.9c0,1.8-1.5,3.3-3.3,3.3S9.9,9.7,9.9,7.9s1.5-3.3,3.3-3.3S16.5,6,16.5,7.9z"/>
</svg>
