<?xml version="1.0" encoding="utf-8"?>
<!-- Generator: Adobe Illustrator 26.4.1, SVG Export Plug-In . SVG Version: 6.00 Build 0)  -->
<svg version="1.1" id="Layer_1" xmlns="http://www.w3.org/2000/svg" xmlns:xlink="http://www.w3.org/1999/xlink" x="0px" y="0px"
	 viewBox="0 0 29.3 22.7" style="enable-background:new 0 0 29.3 22.7;" xml:space="preserve">
<style type="text/css">
	.st0{fill:url(#SVGID_1_);}
</style>
<g id="Layer_1_00000101797467562689940720000000809024573694541961_">
	
		<linearGradient id="SVGID_1_" gradientUnits="userSpaceOnUse" x1="4.6882" y1="4.2418" x2="24.6368" y2="24.1904" gradientTransform="matrix(1 0 0 -1 0 25.46)">
		<stop  offset="0.1" style="stop-color:#2814FF"/>
		<stop  offset="0.14" style="stop-color:#2324FF"/>
		<stop  offset="0.3" style="stop-color:#145BFF"/>
		<stop  offset="0.43" style="stop-color:#0983FF"/>
		<stop  offset="0.54" style="stop-color:#029BFF"/>
		<stop  offset="0.61" style="stop-color:#00A4FF"/>
		<stop  offset="0.66" style="stop-color:#00ACCE"/>
		<stop  offset="0.72" style="stop-color:#00B590"/>
		<stop  offset="0.79" style="stop-color:#00BD5D"/>
		<stop  offset="0.84" style="stop-color:#00C434"/>
		<stop  offset="0.9" style="stop-color:#00C818"/>
		<stop  offset="0.95" style="stop-color:#00CB06"/>
		<stop  offset="0.98" style="stop-color:#00CC00"/>
	</linearGradient>
	<path class="st0" d="M21,15.2v-4.4C21,8.7,19.6,6.8,17.6,6c-0.2-1.6-1.7-2.8-3.4-2.6c-1.4,0.2-2.4,1.2-2.6,2.6
		c-2,0.8-3.3,2.8-3.4,4.9v4.4l-1.7,2.4c-0.3,0.5-0.5,1-0.5,1.5v3.5h17.1v-3.5c0-0.6-0.2-1.1-0.5-1.6L21,15.2z M16.3,7.8
		c1.4,0.4,2.5,1.7,2.5,3.2v4.7l2,2.8c0.1,0.1,0.1,0.3,0.1,0.4v1.5H8.3v-1.4c0-0.1,0-0.3,0.1-0.4l2-2.8v-0.3c0,0,0-4.4,0-4.5
		c0.1-1.5,1.1-2.8,2.5-3.2l0.6-0.3V6.9c0-0.6,0.4-1,0.9-1c0,0,0,0,0.1,0c0.3,0,0.5,0.1,0.7,0.3c0.2,0.2,0.3,0.5,0.3,0.8v0.7
		L16.3,7.8z M29.3,11.8c0,1.5-0.2,3-0.7,4.4l-0.2,0.5l-2-0.7l0.2-0.5c0.4-1.2,0.6-2.5,0.6-3.8c0-0.4,0-0.8-0.1-1.3
		C26.8,7.1,25,4,22.2,2l-0.5-0.3L23,0l0.4,0.3c3.3,2.4,5.4,6,5.8,10.1C29.3,10.8,29.3,11.3,29.3,11.8L29.3,11.8z M25.7,10.7
		c-0.2-1.5-0.6-3-1.4-4.3c-0.8-1.3-1.8-2.4-3-3.3L21,2.9l-1.3,1.7l0.4,0.3c1,0.7,1.8,1.6,2.4,2.7c0.6,1,1,2.2,1.1,3.4
		c0,0.3,0,0.6,0,0.9c0,0.9-0.1,1.8-0.4,2.7L23,15l2,0.7l0.1-0.5C25.7,13.8,25.9,12.2,25.7,10.7z M6.1,14.5c-0.3-0.9-0.4-1.8-0.4-2.7
		c0-0.3,0-0.6,0-0.9c0.1-1.2,0.5-2.4,1.1-3.4c0.6-1,1.4-2,2.4-2.7l0.4-0.3L8.3,2.8L7.9,3.1c-1.2,0.9-2.2,2-3,3.3
		c-1.5,2.7-1.8,5.8-0.8,8.7l0.1,0.5l2-0.7L6.1,14.5z M2.1,11.8c0-0.4,0-0.9,0.1-1.3C2.6,7.1,4.4,4,7.1,2l0.4-0.3L6.3,0L5.9,0.3
		c-3.3,2.4-5.4,6-5.8,10.1C0,10.8,0,11.3,0,11.8c0,1.5,0.2,3,0.7,4.4l0.2,0.5l2-0.7l-0.1-0.5C2.3,14.4,2.1,13.1,2.1,11.8z"/>
</g>
</svg>
