<?xml version="1.0" encoding="utf-8"?>
<!-- Generator: Adobe Illustrator 26.4.1, SVG Export Plug-In . SVG Version: 6.00 Build 0)  -->
<svg version="1.1" id="Layer_1" xmlns="http://www.w3.org/2000/svg" xmlns:xlink="http://www.w3.org/1999/xlink" x="0px" y="0px"
	 viewBox="0 0 25.3 25.3" style="enable-background:new 0 0 25.3 25.3;" xml:space="preserve">
<style type="text/css">
	.st0{fill:url(#SVGID_1_);}
</style>
<g id="Layer_1_00000049204425316581973930000002112806199710509215_">
	
		<linearGradient id="SVGID_1_" gradientUnits="userSpaceOnUse" x1="3.695" y1="6.195" x2="21.575" y2="24.075" gradientTransform="matrix(1 0 0 -1 0 27.78)">
		<stop  offset="0.1" style="stop-color:#2814FF"/>
		<stop  offset="0.14" style="stop-color:#2324FF"/>
		<stop  offset="0.3" style="stop-color:#145BFF"/>
		<stop  offset="0.43" style="stop-color:#0983FF"/>
		<stop  offset="0.54" style="stop-color:#029BFF"/>
		<stop  offset="0.61" style="stop-color:#00A4FF"/>
		<stop  offset="0.66" style="stop-color:#00ACCE"/>
		<stop  offset="0.72" style="stop-color:#00B590"/>
		<stop  offset="0.79" style="stop-color:#00BD5D"/>
		<stop  offset="0.84" style="stop-color:#00C434"/>
		<stop  offset="0.9" style="stop-color:#00C818"/>
		<stop  offset="0.95" style="stop-color:#00CB06"/>
		<stop  offset="0.98" style="stop-color:#00CC00"/>
	</linearGradient>
	<path class="st0" d="M17.9,0H7.4L0,7.4v10.5l7.4,7.4h10.5l7.4-7.4V7.4L17.9,0z M8.3,23l-6.1-6.1V8.3l6.1-6.1h8.6L23,8.3v8.5
		L16.9,23L8.3,23z M14.3,12.7l4.4,4.3l-1.6,1.6l-4.4-4.4l-4.4,4.4L6.7,17l4.4-4.3L6.7,8.3l1.6-1.6l4.4,4.3l4.4-4.3l1.6,1.6
		L14.3,12.7z"/>
</g>
</svg>
