<?xml version="1.0" encoding="utf-8"?>
<!-- Generator: Adobe Illustrator 26.4.1, SVG Export Plug-In . SVG Version: 6.00 Build 0)  -->
<svg version="1.1" id="Layer_1" xmlns="http://www.w3.org/2000/svg" xmlns:xlink="http://www.w3.org/1999/xlink" x="0px" y="0px"
	 viewBox="0 0 24.5 18.4" style="enable-background:new 0 0 24.5 18.4;" xml:space="preserve">
<style type="text/css">
	.st0{fill:url(#SVGID_1_);}
</style>
<linearGradient id="SVGID_1_" gradientUnits="userSpaceOnUse" x1="5.6" y1="4.8365" x2="21.08" y2="20.3165" gradientTransform="matrix(1 0 0 -1 0 21.2731)">
	<stop  offset="0.1" style="stop-color:#2814FF"/>
	<stop  offset="0.14" style="stop-color:#2324FF"/>
	<stop  offset="0.3" style="stop-color:#145BFF"/>
	<stop  offset="0.43" style="stop-color:#0983FF"/>
	<stop  offset="0.54" style="stop-color:#029BFF"/>
	<stop  offset="0.61" style="stop-color:#00A4FF"/>
	<stop  offset="0.66" style="stop-color:#00ACCE"/>
	<stop  offset="0.72" style="stop-color:#00B590"/>
	<stop  offset="0.79" style="stop-color:#00BD5D"/>
	<stop  offset="0.84" style="stop-color:#00C434"/>
	<stop  offset="0.9" style="stop-color:#00C818"/>
	<stop  offset="0.95" style="stop-color:#00CB06"/>
	<stop  offset="0.98" style="stop-color:#00CC00"/>
</linearGradient>
<path class="st0" d="M22.7,12v-1.2h1.8V4.4h-5.3c-1.8-3.9-6.4-5.5-10.3-3.7C7.3,1.5,6,2.8,5.2,4.4H0v6.4h1.8V12h4
	c2.3,3.6,7.1,4.6,10.7,2.2c0.1-0.1,0.2-0.2,0.3-0.2l4.4,4.4l1.6-1.6l-4.4-4.4c0.1-0.1,0.2-0.2,0.2-0.4H22.7z M19.9,6.1h3v3h-3
	C20,8.8,20,8.5,20,8.2h0.8V7.3H20C20,6.9,19.9,6.5,19.9,6.1L19.9,6.1z M4.6,7.3H3.7v0.9h0.9c0,0.3,0.1,0.6,0.1,0.9h-3v-3h3
	C4.6,6.5,4.6,6.9,4.6,7.3z M17.7,9.3c-0.9,3-4.1,4.6-7.1,3.7c-2.3-0.7-3.9-2.9-3.9-5.4c0-3.1,2.4-5.6,5.5-5.7c2.5,0,4.7,1.6,5.5,3.9
	V6c0.2,0.5,0.2,1.1,0.2,1.6C18,8.3,17.9,8.8,17.7,9.3z M11.8,7.1h0.9V8h-0.9V7.1z M10.1,10.8h4.2v-6h-4.2
	C10.1,4.8,10.1,10.8,10.1,10.8z M11.4,6.2H13v3.4h-1.6V6.2z"/>
</svg>
