<?xml version="1.0" encoding="utf-8"?>
<!-- Generator: Adobe Illustrator 26.4.1, SVG Export Plug-In . SVG Version: 6.00 Build 0)  -->
<svg version="1.1" id="Layer_1" xmlns="http://www.w3.org/2000/svg" xmlns:xlink="http://www.w3.org/1999/xlink" x="0px" y="0px"
	 viewBox="0 0 28.9 25.7" style="enable-background:new 0 0 28.9 25.7;" xml:space="preserve">
<style type="text/css">
	.st0{fill:url(#SVGID_1_);}
</style>
<linearGradient id="SVGID_1_" gradientUnits="userSpaceOnUse" x1="4.825" y1="2.875" x2="29.625" y2="27.675" gradientTransform="matrix(1 0 0 -1 0 28.4)">
	<stop  offset="0.1" style="stop-color:#2814FF"/>
	<stop  offset="0.1435" style="stop-color:#2324FF"/>
	<stop  offset="0.2998" style="stop-color:#145BFF"/>
	<stop  offset="0.4347" style="stop-color:#0983FF"/>
	<stop  offset="0.5417" style="stop-color:#029BFF"/>
	<stop  offset="0.6072" style="stop-color:#00A4FF"/>
	<stop  offset="0.6551" style="stop-color:#00ACCE"/>
	<stop  offset="0.7216" style="stop-color:#00B590"/>
	<stop  offset="0.7855" style="stop-color:#00BD5D"/>
	<stop  offset="0.8449" style="stop-color:#00C434"/>
	<stop  offset="0.8989" style="stop-color:#00C818"/>
	<stop  offset="0.9457" style="stop-color:#00CB06"/>
	<stop  offset="0.98" style="stop-color:#00CC00"/>
</linearGradient>
<path class="st0" d="M24,3.8c0-0.5,0.4-0.9,0.9-0.9c0.5,0,0.9,0.4,0.9,0.9s-0.4,0.9-0.9,0.9C24.4,4.7,24,4.3,24,3.8z M22.4,2.9
	c-0.5,0-0.9,0.4-0.9,0.9s0.4,0.9,0.9,0.9s0.9-0.4,0.9-0.9S22.9,2.9,22.4,2.9z M9.2,4.8h9v-2h-9V4.8z M24.9,10.8
	c-0.5,0-0.9,0.4-0.9,0.9s0.4,0.9,0.9,0.9s0.9-0.4,0.9-0.9S25.4,10.8,24.9,10.8z M22.4,10.8c-0.5,0-0.9,0.4-0.9,0.9s0.4,0.9,0.9,0.9
	s0.9-0.4,0.9-0.9S22.9,10.8,22.4,10.8z M9.2,12.6h9v-2h-9V12.6z M24.9,18.6c-0.5,0-0.9,0.4-0.9,0.9s0.4,0.9,0.9,0.9s0.9-0.4,0.9-0.9
	S25.4,18.6,24.9,18.6z M22.4,18.6c-0.5,0-0.9,0.4-0.9,0.9s0.4,0.9,0.9,0.9s0.9-0.4,0.9-0.9S22.9,18.6,22.4,18.6z M6.1,0v12.1
	c-1.4,0.4-2.5,1.5-3,2.9c-2,0.4-3.1,2.3-3.1,4c0,1.1,0.4,2.1,1.2,2.9c0.6,0.6,1.7,1.3,3.5,1.3h1.4v2.5h22.8V0H6.1z M8.3,7.8V2.1
	h18.3v5.7H8.3z M8.3,23.1h6.1c2.3,0,3.6-1.8,3.6-3.5c0-0.7-0.2-1.3-0.5-1.8h9.1v5.5H8.3V23.1z M14.2,15c-0.7-0.6-1.6-0.8-2.6-0.8
	c-0.8-1.2-1.9-2-3.2-2.2v-1.9h18.3v5.5h-12C14.6,15.4,14.4,15.2,14.2,15z M10.1,15.7l0.3,0.6l0.7-0.1c0.7-0.1,1.3,0,1.7,0.3
	c0.3,0.3,0.4,0.6,0.4,0.7v0.9h0.9c0.6,0,1,0.2,1.3,0.5c0.2,0.3,0.4,0.6,0.4,1c0,0.8-0.5,1.6-1.7,1.6H4.8c-0.9,0-1.6-0.2-2.1-0.7
	c-0.4-0.4-0.6-0.9-0.6-1.5c0-1,0.7-2.1,1.9-2.1h0.8l0.1-0.7c0.2-1.1,1.1-2,2.3-2.1C8.1,13.8,9.4,14.2,10.1,15.7z"/>
</svg>
