<?xml version="1.0" encoding="utf-8"?>
<!-- Generator: Adobe Illustrator 26.4.1, SVG Export Plug-In . SVG Version: 6.00 Build 0)  -->
<svg version="1.1" id="Layer_1" xmlns="http://www.w3.org/2000/svg" xmlns:xlink="http://www.w3.org/1999/xlink" x="0px" y="0px"
	 viewBox="0 0 26.3 26.3" style="enable-background:new 0 0 26.3 26.3;" xml:space="preserve">
<style type="text/css">
	.st0{fill:url(#SVGID_1_);}
</style>
<g id="Layer_1_00000019662904749430605650000013544263612830611587_">
	
		<linearGradient id="SVGID_1_" gradientUnits="userSpaceOnUse" x1="3.8432" y1="6.6382" x2="22.4189" y2="25.2039" gradientTransform="matrix(1 0 0 -1 0 29.06)">
		<stop  offset="0.1" style="stop-color:#2814FF"/>
		<stop  offset="0.14" style="stop-color:#2324FF"/>
		<stop  offset="0.3" style="stop-color:#145BFF"/>
		<stop  offset="0.43" style="stop-color:#0983FF"/>
		<stop  offset="0.54" style="stop-color:#029BFF"/>
		<stop  offset="0.61" style="stop-color:#00A4FF"/>
		<stop  offset="0.66" style="stop-color:#00ACCE"/>
		<stop  offset="0.72" style="stop-color:#00B590"/>
		<stop  offset="0.79" style="stop-color:#00BD5D"/>
		<stop  offset="0.84" style="stop-color:#00C434"/>
		<stop  offset="0.9" style="stop-color:#00C818"/>
		<stop  offset="0.95" style="stop-color:#00CB06"/>
		<stop  offset="0.98" style="stop-color:#00CC00"/>
	</linearGradient>
	<path class="st0" d="M21.3,13.9l0,0.4c-0.5,4.1-4,7.1-8.2,7.1c-0.3,0-0.6,0-0.9,0c-2.7-0.3-5.1-1.9-6.4-4.3l-0.6,1.3l-1.7-0.8
		l2-4.2l4.2,1.9L9,17l-1.2-0.5c1.9,3,5.8,3.9,8.8,2c1.6-1,2.7-2.7,2.9-4.5v-0.4L21.3,13.9z M14,4.9c-4.5-0.5-8.6,2.8-9.1,7.3
		c0,0,0,0,0,0v0.4l1.9,0.2v-0.4c0.4-3.5,3.5-6,7-5.6c2,0.2,3.8,1.4,4.8,3.1l-1.3-0.6L16.6,11l4.2,2l2.1-4.1L21.1,8l-0.6,1.3
		C19.2,6.8,16.7,5.1,14,4.9L14,4.9z M13.1,0C5.9,0,0,5.9,0,13.2s5.9,13.1,13.1,13.1c7.3,0,13.1-5.9,13.1-13.1
		C26.3,5.9,20.4,0,13.1,0L13.1,0z M23.9,13.1c0,6-4.8,10.8-10.8,10.8S2.3,19.1,2.3,13.1c0-6,4.8-10.8,10.8-10.8c0,0,0,0,0,0
		C19.1,2.3,23.9,7.2,23.9,13.1z"/>
</g>
</svg>
