<?xml version="1.0" encoding="utf-8"?>
<!-- Generator: Adobe Illustrator 26.4.1, SVG Export Plug-In . SVG Version: 6.00 Build 0)  -->
<svg version="1.1" id="Layer_1" xmlns="http://www.w3.org/2000/svg" xmlns:xlink="http://www.w3.org/1999/xlink" x="0px" y="0px"
	 viewBox="0 0 26.2 26.2" style="enable-background:new 0 0 26.2 26.2;" xml:space="preserve">
<style type="text/css">
	.st0{fill:url(#SVGID_1_);}
</style>
<linearGradient id="SVGID_1_" gradientUnits="userSpaceOnUse" x1="3.85" y1="6.65" x2="22.3702" y2="25.1702" gradientTransform="matrix(1 0 0 -1 0 29)">
	<stop  offset="0.1" style="stop-color:#2814FF"/>
	<stop  offset="0.1435" style="stop-color:#2324FF"/>
	<stop  offset="0.2998" style="stop-color:#145BFF"/>
	<stop  offset="0.4347" style="stop-color:#0983FF"/>
	<stop  offset="0.5417" style="stop-color:#029BFF"/>
	<stop  offset="0.6072" style="stop-color:#00A4FF"/>
	<stop  offset="0.6551" style="stop-color:#00ACCE"/>
	<stop  offset="0.7216" style="stop-color:#00B590"/>
	<stop  offset="0.7855" style="stop-color:#00BD5D"/>
	<stop  offset="0.8449" style="stop-color:#00C434"/>
	<stop  offset="0.8989" style="stop-color:#00C818"/>
	<stop  offset="0.9457" style="stop-color:#00CB06"/>
	<stop  offset="0.98" style="stop-color:#00CC00"/>
</linearGradient>
<path class="st0" d="M13.1,0C5.9,0,0,5.9,0,13.1s5.9,13.1,13.1,13.1s13.1-5.9,13.1-13.1S20.3,0,13.1,0z M13.1,2.3
	c6,0,10.8,4.8,10.8,10.8s-4.8,10.8-10.8,10.8S2.3,19.1,2.3,13.1C2.3,7.1,7.1,2.3,13.1,2.3z M20.1,15.7c-0.3-1.2-1.2-2.3-2.3-2.9
	c-0.5-0.3-1-0.4-1.5-0.5v-2.2c0.7-0.2,1.3-0.7,1.6-1.3c0.4-0.7,0.5-1.5,0.3-2.3c-0.4-1.6-2.1-2.5-3.7-2.1c-0.8,0.2-1.4,0.7-1.8,1.4
	c-0.4,0.6-0.5,1.4-0.3,2.1L9.2,9.8C9,9.6,8.8,9.5,8.6,9.4C7.8,9,7,8.9,6.1,9.1c-0.8,0.2-1.5,0.8-2,1.5c-0.4,0.8-0.5,1.6-0.3,2.5
	c0.4,1.4,1.7,2.4,3.2,2.4c0.3,0,0.6,0,0.9-0.1c0.5-0.1,1-0.4,1.4-0.8l1.6,0.9c-0.3,0.9-0.3,1.9-0.1,2.8c0.3,1.2,1.2,2.3,2.3,2.9
	c0.7,0.4,1.5,0.6,2.4,0.6c0.4,0,0.9-0.1,1.3-0.2c1.2-0.3,2.3-1.1,2.9-2.3C20.3,18.2,20.4,16.9,20.1,15.7z M10.2,12.9
	c0.1-0.5,0.1-1,0-1.5l3.2-1.9c0.1,0.1,0.3,0.2,0.5,0.3c0.2,0.1,0.4,0.2,0.5,0.2v2.2c-0.1,0-0.2,0-0.3,0.1c-0.9,0.3-1.7,0.8-2.4,1.5
	L10.2,12.9z M14.6,6.8L14.6,6.8c0.1-0.2,0.3-0.4,0.6-0.4c0.1,0,0.2,0,0.2,0c0.4,0,0.8,0.3,0.9,0.7c0.1,0.2,0,0.5-0.1,0.7
	s-0.3,0.4-0.6,0.4c-0.2,0.1-0.5,0-0.7-0.1c-0.2-0.1-0.4-0.3-0.4-0.6C14.4,7.3,14.4,7,14.6,6.8z M7.4,13.4c-0.3,0.1-0.6,0-0.9-0.1
	c-0.3-0.2-0.5-0.4-0.6-0.7c-0.1-0.3,0-0.6,0.1-0.9s0.4-0.5,0.7-0.6c0.1,0,0.2,0,0.3,0c0.5,0,1,0.4,1.2,0.9C8.4,12.5,8,13.2,7.4,13.4
	z M17.9,18.3c-0.4,0.6-1,1.1-1.7,1.3c-0.7,0.2-1.5,0.1-2.1-0.3s-1.1-1-1.3-1.7c-0.4-1.5,0.5-3,1.9-3.4c0.2-0.1,0.5-0.1,0.7-0.1
	c1.2,0,2.3,0.8,2.7,2C18.3,16.9,18.2,17.7,17.9,18.3z"/>
</svg>
