<?xml version="1.0" encoding="utf-8"?>
<!-- Generator: Adobe Illustrator 26.4.1, SVG Export Plug-In . SVG Version: 6.00 Build 0)  -->
<svg version="1.1" id="Layer_1" xmlns="http://www.w3.org/2000/svg" xmlns:xlink="http://www.w3.org/1999/xlink" x="0px" y="0px"
	 viewBox="0 0 20.5 27.5" style="enable-background:new 0 0 20.5 27.5;" xml:space="preserve">
<style type="text/css">
	.st0{fill:url(#SVGID_1_);}
</style>
<linearGradient id="SVGID_1_" gradientUnits="userSpaceOnUse" x1="-1.383" y1="4.1669" x2="21.9669" y2="27.517" gradientTransform="matrix(1 0 0 -1 0 30.2)">
	<stop  offset="0.1" style="stop-color:#2814FF"/>
	<stop  offset="0.1435" style="stop-color:#2324FF"/>
	<stop  offset="0.2998" style="stop-color:#145BFF"/>
	<stop  offset="0.4347" style="stop-color:#0983FF"/>
	<stop  offset="0.5417" style="stop-color:#029BFF"/>
	<stop  offset="0.6072" style="stop-color:#00A4FF"/>
	<stop  offset="0.6551" style="stop-color:#00ACCE"/>
	<stop  offset="0.7216" style="stop-color:#00B590"/>
	<stop  offset="0.7855" style="stop-color:#00BD5D"/>
	<stop  offset="0.8449" style="stop-color:#00C434"/>
	<stop  offset="0.8989" style="stop-color:#00C818"/>
	<stop  offset="0.9457" style="stop-color:#00CB06"/>
	<stop  offset="0.98" style="stop-color:#00CC00"/>
</linearGradient>
<path class="st0" d="M14.8,1.3L14.4,0H6.1L5.7,1.3H0v26.2h20.5V1.3H14.8z M2.4,25.2V3.5h2.8L4.7,5.3H16l-0.5-1.8h2.8v21.7H2.4z
	 M7.6,18H13v-5.4H7.6V18z M11.7,13.9v2.8H8.9v-2.8H11.7z M7.6,6.4v5.4H13V6.4C13,6.4,7.6,6.4,7.6,6.4z M8.9,10.5V7.7h2.8v2.8H8.9z
	 M7.6,24.3H13v-5.4H7.6V24.3z M11.7,20.2V23H8.9v-2.8H11.7z"/>
</svg>
