<?xml version="1.0" encoding="utf-8"?>
<!-- Generator: Adobe Illustrator 26.4.1, SVG Export Plug-In . SVG Version: 6.00 Build 0)  -->
<svg version="1.1" id="Layer_1" xmlns="http://www.w3.org/2000/svg" xmlns:xlink="http://www.w3.org/1999/xlink" x="0px" y="0px"
	 viewBox="0 0 26.2 26.2" style="enable-background:new 0 0 26.2 26.2;" xml:space="preserve">
<style type="text/css">
	.st0{fill:url(#SVGID_1_);}
</style>
<linearGradient id="SVGID_1_" gradientUnits="userSpaceOnUse" x1="3.8272" y1="6.6271" x2="22.3724" y2="25.1724" gradientTransform="matrix(1 0 0 -1 0 29)">
	<stop  offset="0.1" style="stop-color:#2814FF"/>
	<stop  offset="0.1435" style="stop-color:#2324FF"/>
	<stop  offset="0.2998" style="stop-color:#145BFF"/>
	<stop  offset="0.4347" style="stop-color:#0983FF"/>
	<stop  offset="0.5417" style="stop-color:#029BFF"/>
	<stop  offset="0.6072" style="stop-color:#00A4FF"/>
	<stop  offset="0.6551" style="stop-color:#00ACCE"/>
	<stop  offset="0.7216" style="stop-color:#00B590"/>
	<stop  offset="0.7855" style="stop-color:#00BD5D"/>
	<stop  offset="0.8449" style="stop-color:#00C434"/>
	<stop  offset="0.8989" style="stop-color:#00C818"/>
	<stop  offset="0.9457" style="stop-color:#00CB06"/>
	<stop  offset="0.98" style="stop-color:#00CC00"/>
</linearGradient>
<path class="st0" d="M13.1,0C5.9,0,0,5.9,0,13.1s5.9,13.1,13.1,13.1s13.1-5.9,13.1-13.1S20.3,0,13.1,0z M23.9,13.1
	c0,6-4.9,10.8-10.8,10.8c-6,0-10.8-4.8-10.8-10.8S7.2,2.3,13.1,2.3C19.1,2.3,23.9,7.1,23.9,13.1z M14.3,14.3c0,0.2-0.1,0.5-0.2,0.6
	v1.8h-1.9v-1.8c-0.1-0.2-0.2-0.4-0.2-0.6c0-0.6,0.5-1.1,1.1-1.1S14.3,13.7,14.3,14.3z M18.5,10.4v9.2H7.7v-9.2h1.4V9.7
	c0-2.2,1.8-4.1,4.1-4.1s4.1,1.8,4.1,4.1v0.7C17.3,10.4,18.5,10.4,18.5,10.4z M11.1,9.8v0.7h4V9.8c0-1.1-0.9-2-2-2S11.1,8.7,11.1,9.8
	z M16.5,17.5v-5H9.7v5H16.5z"/>
</svg>
