<?xml version="1.0" encoding="utf-8"?>
<!-- Generator: Adobe Illustrator 26.4.1, SVG Export Plug-In . SVG Version: 6.00 Build 0)  -->
<svg version="1.1" id="Layer_1" xmlns="http://www.w3.org/2000/svg" xmlns:xlink="http://www.w3.org/1999/xlink" x="0px" y="0px"
	 viewBox="0 0 20.5 27.6" style="enable-background:new 0 0 20.5 27.6;" xml:space="preserve">
<style type="text/css">
	.st0{fill:url(#SVGID_1_);}
</style>
<g id="Layer_1_00000075868560101899010350000006162561854186006182_">
	
		<linearGradient id="SVGID_1_" gradientUnits="userSpaceOnUse" x1="-1.4403" y1="4.2397" x2="21.9003" y2="27.5903" gradientTransform="matrix(1 0 0 -1 0 30.36)">
		<stop  offset="0.1" style="stop-color:#2814FF"/>
		<stop  offset="0.14" style="stop-color:#2324FF"/>
		<stop  offset="0.3" style="stop-color:#145BFF"/>
		<stop  offset="0.43" style="stop-color:#0983FF"/>
		<stop  offset="0.54" style="stop-color:#029BFF"/>
		<stop  offset="0.61" style="stop-color:#00A4FF"/>
		<stop  offset="0.66" style="stop-color:#00ACCE"/>
		<stop  offset="0.72" style="stop-color:#00B590"/>
		<stop  offset="0.79" style="stop-color:#00BD5D"/>
		<stop  offset="0.84" style="stop-color:#00C434"/>
		<stop  offset="0.9" style="stop-color:#00C818"/>
		<stop  offset="0.95" style="stop-color:#00CB06"/>
		<stop  offset="0.98" style="stop-color:#00CC00"/>
	</linearGradient>
	<path class="st0" d="M14.8,1.3L14.4,0H6.1L5.7,1.3H0v26.2h20.5V1.3H14.8z M2.3,25.3V3.6h2.8L4.6,5.4h11.3l-0.5-1.8h2.8v21.7
		L2.3,25.3z M14.3,13.7l1.4-1.4l-1.1-1.1L10.6,15l-1-1l-1.1,1.1l2,2H8.3v-3.9h3l2.1-2.1H6.2v8.1h8.1L14.3,13.7z M12.2,15.8v1.4h-1.5
		L12.2,15.8z"/>
</g>
</svg>
