<?xml version="1.0" encoding="utf-8"?>
<!-- Generator: Adobe Illustrator 26.4.1, SVG Export Plug-In . SVG Version: 6.00 Build 0)  -->
<svg version="1.1" id="Layer_1" xmlns="http://www.w3.org/2000/svg" xmlns:xlink="http://www.w3.org/1999/xlink" x="0px" y="0px"
	 viewBox="0 0 27.2 27.2" style="enable-background:new 0 0 27.2 27.2;" xml:space="preserve">
<style type="text/css">
	.st0{fill:url(#SVGID_1_);}
</style>
<g id="Layer_1_00000096018500129919571570000006646885666547238544_">
	
		<linearGradient id="SVGID_1_" gradientUnits="userSpaceOnUse" x1="3.9867" y1="6.9917" x2="23.2474" y2="26.2425" gradientTransform="matrix(1 0 0 -1 0 30.24)">
		<stop  offset="0.1" style="stop-color:#2814FF"/>
		<stop  offset="0.14" style="stop-color:#2324FF"/>
		<stop  offset="0.3" style="stop-color:#145BFF"/>
		<stop  offset="0.43" style="stop-color:#0983FF"/>
		<stop  offset="0.54" style="stop-color:#029BFF"/>
		<stop  offset="0.61" style="stop-color:#00A4FF"/>
		<stop  offset="0.66" style="stop-color:#00ACCE"/>
		<stop  offset="0.72" style="stop-color:#00B590"/>
		<stop  offset="0.79" style="stop-color:#00BD5D"/>
		<stop  offset="0.84" style="stop-color:#00C434"/>
		<stop  offset="0.9" style="stop-color:#00C818"/>
		<stop  offset="0.95" style="stop-color:#00CB06"/>
		<stop  offset="0.98" style="stop-color:#00CC00"/>
	</linearGradient>
	<path class="st0" d="M19.8,11c-0.2-0.1-0.4-0.2-0.7-0.3l-0.2-0.1v-0.2c0.2-1.2-0.1-2.5-0.8-3.6c-0.8-1.3-2.2-2.2-3.8-2.5h-0.3v0.8
		c0,0.3,0.3,0.3,0.5,0.4c1.4,0.5,2.3,1.8,2.1,3.3c0,0.3-0.1,0.6-0.2,0.8c-0.8-0.6-1.9-1-2.9-1c-1,0-2,0.3-2.9,0.9
		c-0.2-0.5-0.2-1-0.2-1.6c0.1-0.8,0.5-1.5,1.1-2c0.4-0.3,0.8-0.5,1.2-0.6c0.2-0.1,0.3-0.2,0.3-0.5V4.3h-0.3
		c-2.1,0.3-3.8,1.8-4.4,3.9c-0.1,0.5-0.2,1-0.2,1.6c0,0.3,0,0.6,0.1,0.9l-0.2,0.1c-0.2,0.1-0.3,0.2-0.5,0.2
		c-0.9,0.5-1.7,1.3-2.2,2.2c-0.7,1.4-0.8,3-0.2,4.4l0.1,0.3l0.7-0.4c0.2-0.1,0.2-0.3,0.2-0.5c0,0,0,0,0,0c-0.1-0.2-0.1-0.4-0.1-0.6
		c0-0.6,0.1-1.2,0.4-1.7c0.5-0.8,1.3-1.4,2.3-1.5c0,0.1,0,0.2,0,0.4c0,2,1.2,3.7,3,4.5c-0.2,0.3-0.5,0.6-0.8,0.8
		c-0.8,0.5-1.8,0.7-2.7,0.4c-0.5-0.1-0.9-0.4-1.2-0.7c-0.1-0.2-0.3-0.3-0.5-0.2l-0.7,0.4L6,19c1,1.3,2.6,2,4.2,2
		c0.5,0,1.1-0.1,1.6-0.2c0.6-0.2,1.1-0.4,1.6-0.8l0.3-0.2h0.1c0.3,0.2,0.5,0.4,0.8,0.5c2.3,1.2,5.1,0.6,6.7-1.4l0.2-0.2l-0.7-0.4
		c-0.2-0.1-0.3-0.1-0.5,0.2c-0.1,0.1-0.3,0.3-0.5,0.4c-0.8,0.5-1.8,0.6-2.7,0.3c-0.6-0.2-1.2-0.6-1.5-1.2c1.8-0.8,2.9-2.5,2.9-4.4
		c0-0.1,0-0.3,0-0.4c1.3,0.2,2.4,1.2,2.7,2.5c0.1,0.5,0.1,1.1,0,1.6c0,0.1,0,0.3,0.3,0.5l0.5,0.3l0.1-0.3C23,15.2,22,12.4,19.8,11z
		 M15,15.6c0.1-0.3,0.1-0.5,0.3-0.7c0.1-0.2,0.2-0.3,0.3-0.5l0.1-0.1c0.2-0.3,0.5-0.5,0.8-0.7l0.1-0.1c0,0,0,0.1,0,0.1
		c0,1.1-0.6,2.2-1.6,2.7C15,16.1,15,15.8,15,15.6z M15.4,11.1c-1.1,0.7-2.5,0.7-3.5,0C12.9,10.4,14.4,10.4,15.4,11.1z M12.3,16.3
		c-1.1-0.5-1.8-1.6-1.8-2.8v-0.1c0.3,0.1,0.6,0.3,0.8,0.6l0.4,0.4c0.1,0.1,0.2,0.3,0.3,0.4C12.2,15.3,12.3,15.8,12.3,16.3L12.3,16.3
		z M13.6,0C6.1,0,0,6.1,0,13.6s6.1,13.6,13.6,13.6s13.6-6.1,13.6-13.6C27.2,6.1,21.1,0,13.6,0z M24.9,13.6c0,6.2-5.1,11.3-11.3,11.3
		S2.3,19.8,2.3,13.6S7.4,2.3,13.6,2.3C19.8,2.3,24.9,7.4,24.9,13.6z"/>
</g>
</svg>
