<?xml version="1.0" encoding="utf-8"?>
<!-- Generator: Adobe Illustrator 26.4.1, SVG Export Plug-In . SVG Version: 6.00 Build 0)  -->
<svg version="1.1" id="Layer_1" xmlns="http://www.w3.org/2000/svg" xmlns:xlink="http://www.w3.org/1999/xlink" x="0px" y="0px"
	 viewBox="0 0 26 24.8" style="enable-background:new 0 0 26 24.8;" xml:space="preserve">
<style type="text/css">
	.st0{fill:url(#SVGID_1_);}
</style>
<g id="Layer_1_00000183946371604222662500000003831999886121616538_">
	
		<linearGradient id="SVGID_1_" gradientUnits="userSpaceOnUse" x1="2.1454" y1="1.3946" x2="23.8753" y2="23.1345" gradientTransform="matrix(1 0 0 -1 0 28.26)">
		<stop  offset="0.1" style="stop-color:#2814FF"/>
		<stop  offset="0.14" style="stop-color:#2324FF"/>
		<stop  offset="0.3" style="stop-color:#145BFF"/>
		<stop  offset="0.43" style="stop-color:#0983FF"/>
		<stop  offset="0.54" style="stop-color:#029BFF"/>
		<stop  offset="0.61" style="stop-color:#00A4FF"/>
		<stop  offset="0.66" style="stop-color:#00ACCE"/>
		<stop  offset="0.72" style="stop-color:#00B590"/>
		<stop  offset="0.79" style="stop-color:#00BD5D"/>
		<stop  offset="0.84" style="stop-color:#00C434"/>
		<stop  offset="0.9" style="stop-color:#00C818"/>
		<stop  offset="0.95" style="stop-color:#00CB06"/>
		<stop  offset="0.98" style="stop-color:#00CC00"/>
	</linearGradient>
	<path class="st0" d="M18,9.5H8.1V7.5H18V9.5z M26,9v15.8H0V9l3.8-2.6V3.5H8L13,0l5,3.5h4.2v2.9L26,9z M3.8,10V9.1L3.2,9.6L3.8,10z
		 M14,3.5l-1-0.7l-1,0.7H14z M22.8,9.6l-0.6-0.4V10L22.8,9.6z M23.7,22.5V12L13,19.4L2.4,12v10.5L23.7,22.5z M8.6,13.3l4.4,3.1
		l4.4-3.1H8.6z M19.9,5.8H6.1v5.8l1.9,1.3v-1.6H18v1.6l1.9-1.3V5.8z"/>
</g>
</svg>
