<?xml version="1.0" encoding="utf-8"?>
<!-- Generator: Adobe Illustrator 26.4.1, SVG Export Plug-In . SVG Version: 6.00 Build 0)  -->
<svg version="1.1" id="Layer_1" xmlns="http://www.w3.org/2000/svg" xmlns:xlink="http://www.w3.org/1999/xlink" x="0px" y="0px"
	 viewBox="0 0 26.5 26.6" style="enable-background:new 0 0 26.5 26.6;" xml:space="preserve">
<style type="text/css">
	.st0{fill:url(#SVGID_1_);}
</style>
<g id="Layer_1_00000075851601456103239250000008803350370635747983_">
	
		<linearGradient id="SVGID_1_" gradientUnits="userSpaceOnUse" x1="3.8827" y1="6.6954" x2="22.6519" y2="25.4546" gradientTransform="matrix(1 0 0 -1 0 29.3824)">
		<stop  offset="0.1" style="stop-color:#2814FF"/>
		<stop  offset="0.14" style="stop-color:#2324FF"/>
		<stop  offset="0.3" style="stop-color:#145BFF"/>
		<stop  offset="0.43" style="stop-color:#0983FF"/>
		<stop  offset="0.54" style="stop-color:#029BFF"/>
		<stop  offset="0.61" style="stop-color:#00A4FF"/>
		<stop  offset="0.66" style="stop-color:#00ACCE"/>
		<stop  offset="0.72" style="stop-color:#00B590"/>
		<stop  offset="0.79" style="stop-color:#00BD5D"/>
		<stop  offset="0.84" style="stop-color:#00C434"/>
		<stop  offset="0.9" style="stop-color:#00C818"/>
		<stop  offset="0.95" style="stop-color:#00CB06"/>
		<stop  offset="0.98" style="stop-color:#00CC00"/>
	</linearGradient>
	<path class="st0" d="M26.5,13.3c0-2.2-0.5-4.3-1.5-6.2l0,0l-0.2-0.4l-0.1-0.2C20.9,0.2,12.8-1.9,6.5,1.8C4.7,2.9,3.1,4.4,2,6.2l0,0
		L1.7,6.7c0,0.1-0.1,0.1,0,0.1c-2.3,4.1-2.3,9,0,13.1l0.2,0.3c3.7,6.3,11.9,8.4,18.2,4.7c1.9-1.1,3.5-2.7,4.7-4.7
		c0,0,0.1-0.1,0.1-0.1l0.2-0.4l0,0C26.1,17.6,26.6,15.5,26.5,13.3z M17.4,6.6c-0.1-0.1-0.2-0.1-0.4-0.2c-0.2-1.4-0.6-2.7-1.2-4
		C18,2.9,19.9,4,21.4,5.6C20,5.7,18.7,6.1,17.4,6.6z M17,20.3c0.2-0.1,0.3-0.1,0.4-0.2c1.3,0.5,2.6,0.8,4,1
		c-1.5,1.6-3.4,2.7-5.6,3.2C16.4,22.9,16.8,21.6,17,20.3z M17.5,16.9c0.1-1.2,0.2-2.4,0.2-3.6s0-2.4-0.1-3.5
		c0.4-0.3,0.6-0.7,0.7-1.2c3.1-1.1,4.5-1,4.7-0.8c2,3.4,2,7.5,0,10.9c-0.2,0.2-1.6,0.4-4.7-0.7C18.1,17.5,17.8,17.1,17.5,16.9z
		 M9.2,13.2c0.9-0.6,1.9-1.3,2.9-1.9s2-1.1,3-1.6c0.1,0.1,0.2,0.1,0.3,0.2c0.1,1.1,0.1,2.2,0.1,3.4s0,2.3-0.1,3.4l-0.2,0.1
		c-1-0.5-2-1-3-1.6s-2-1.2-2.9-1.8c0,0,0,0,0-0.1C9.2,13.3,9.2,13.2,9.2,13.2z M14.3,7.8c-1.1,0.5-2.2,1.1-3.2,1.7s-2.1,1.3-3.1,2
		c-0.2-0.1-0.4-0.1-0.6-0.1c-0.2,0-0.4,0-0.5,0.1c-0.5-0.4-1-0.8-1.3-1.2C3.7,8.5,3.7,7.8,3.7,7.7c1.9-3.3,5.5-5.4,9.4-5.4
		c0.3,0,1.2,1.3,1.8,4.6C14.6,7.1,14.3,7.4,14.3,7.8z M5.4,16.4c0.4-0.4,0.8-0.7,1.2-1.1c0.4,0.2,1,0.2,1.4,0c1,0.7,2,1.3,3,1.9
		s2.1,1.1,3.2,1.7c0,0.4,0.3,0.8,0.6,1.1c-0.6,3.2-1.4,4.5-1.8,4.5c-3.9,0-7.4-2.1-9.4-5.4C3.7,19,3.6,18.2,5.4,16.4z M5.3,13.6
		c-0.5,0.5-1,0.9-1.4,1.3c-0.5,0.5-1,1-1.4,1.6c-0.7-2.1-0.7-4.3,0-6.4c0.4,0.6,0.9,1.1,1.4,1.6c0.4,0.4,0.9,0.9,1.4,1.3
		c0,0.1,0,0.2,0,0.3C5.4,13.4,5.3,13.5,5.3,13.6z"/>
</g>
</svg>
