<?xml version="1.0" encoding="utf-8"?>
<!-- Generator: Adobe Illustrator 26.4.1, SVG Export Plug-In . SVG Version: 6.00 Build 0)  -->
<svg version="1.1" id="Layer_1" xmlns="http://www.w3.org/2000/svg" xmlns:xlink="http://www.w3.org/1999/xlink" x="0px" y="0px"
	 viewBox="0 0 27 23.1" style="enable-background:new 0 0 27 23.1;" xml:space="preserve">
<style type="text/css">
	.st0{fill:url(#SVGID_1_);}
</style>
<linearGradient id="SVGID_1_" gradientUnits="userSpaceOnUse" x1="2.0276" y1="4.8276" x2="25.0012" y2="27.8012" gradientTransform="matrix(1 0 0 -1 0 25.8)">
	<stop  offset="0.1" style="stop-color:#2814FF"/>
	<stop  offset="0.1435" style="stop-color:#2324FF"/>
	<stop  offset="0.2998" style="stop-color:#145BFF"/>
	<stop  offset="0.4347" style="stop-color:#0983FF"/>
	<stop  offset="0.5417" style="stop-color:#029BFF"/>
	<stop  offset="0.6072" style="stop-color:#00A4FF"/>
	<stop  offset="0.6551" style="stop-color:#00ACCE"/>
	<stop  offset="0.7216" style="stop-color:#00B590"/>
	<stop  offset="0.7855" style="stop-color:#00BD5D"/>
	<stop  offset="0.8449" style="stop-color:#00C434"/>
	<stop  offset="0.8989" style="stop-color:#00C818"/>
	<stop  offset="0.9457" style="stop-color:#00CB06"/>
	<stop  offset="0.98" style="stop-color:#00CC00"/>
</linearGradient>
<path class="st0" d="M27,19V0H0v19h8.7v1.7H6.4v2.4h14.3v-2.4h-2.3V19H27z M24.8,2.2v14.5H2.2V2.2H24.8z M12.7,14.3L12.7,14.3
	L12.2,15l-0.1-0.1c-0.1-0.1-1.9-1.7-1.9-3.7c0-1.8,1.4-3.2,3.2-3.2c1.8,0,3.2,1.4,3.2,3.2v0.1h-0.8v-0.1c0-1.3-1.1-2.4-2.4-2.4
	S11,9.9,11,11.2C11.1,12.7,12.6,14.2,12.7,14.3z M16.8,13c-0.2,0.1-0.4,0.1-0.6,0.1c-1.3,0-2.3-1-2.3-2.3v-0.1h-0.8v0.1
	c0,1.7,1.4,3.1,3.1,3.1c0.3,0,0.6,0,0.9-0.1h0.1l-0.3-0.9L16.8,13z M13.5,6.5c-2.6,0-4.7,2.1-4.7,4.7c0,0.7,0.2,1.4,0.5,2.2l0.1,0.2
	l0.9-0.4l-0.1-0.3c-0.3-0.6-0.4-1.2-0.4-1.8c0-2,1.6-3.7,3.7-3.7c1.1,0,2.1,0.5,2.9,1.3c0.6,0.7,0.9,1.5,0.8,2.3
	c0,0.4-0.5,0.6-0.9,0.6c-0.6-0.1-0.8-0.4-0.9-1c-0.1-0.8-0.9-1.4-1.8-1.4c-1.1,0-1.9,0.9-1.9,1.9c0,0.5,0.2,1.2,0.7,1.8
	c0.3,0.4,0.6,0.8,0.8,0.9l0,0c0.6,0.5,1.2,0.8,2,1.2l0.2,0.1l0.4-0.9l-0.2-0.1c-0.9-0.3-1.3-0.6-1.7-1c0,0-0.3-0.3-0.6-0.8
	c-0.3-0.5-0.5-0.9-0.5-1.3c0-0.5,0.4-0.9,0.9-0.9c0.4,0,0.8,0.2,0.8,0.6c0.2,1.1,0.8,1.8,1.8,1.9c0.8,0.1,1.8-0.5,2-1.5
	c0.1-1.1-0.2-2.2-1-3.1C16.2,7.1,14.8,6.5,13.5,6.5z M9.2,8.5c0.9-1.5,2.5-2.3,4.2-2.3c1.5,0,2.9,0.7,3.9,1.8
	c0.2,0.2,0.3,0.4,0.4,0.6l0.1,0.2l0.8-0.5l0-0.4c-0.2-0.2-0.3-0.5-0.5-0.7c-1.2-1.3-2.9-2.1-4.6-2.1c-2.1,0-4,1-5.1,2.8L8.3,8.1
	l0.8,0.5L9.2,8.5z M10,5.8c1-0.7,2.2-1,3.5-1c1.2,0,2.4,0.4,3.5,1l0.2,0.1l0.5-0.8L17.5,5c-1.2-0.8-2.6-1.2-4-1.2s-2.8,0.4-4,1.2
	L9.3,5.1l0.5,0.8L10,5.8z"/>
</svg>
