<?xml version="1.0" encoding="utf-8"?>
<!-- Generator: Adobe Illustrator 26.4.1, SVG Export Plug-In . SVG Version: 6.00 Build 0)  -->
<svg version="1.1" id="Layer_1" xmlns="http://www.w3.org/2000/svg" xmlns:xlink="http://www.w3.org/1999/xlink" x="0px" y="0px"
	 viewBox="0 0 32.2 16.2" style="enable-background:new 0 0 32.2 16.2;" xml:space="preserve">
<style type="text/css">
	.st0{fill:url(#SVGID_1_);}
</style>
<g id="Layer_1_00000065064073405812189560000001508161994164669316_">
	
		<linearGradient id="SVGID_1_" gradientUnits="userSpaceOnUse" x1="7.0358" y1="-1.3935" x2="25.1358" y2="16.6965" gradientTransform="matrix(1 0 0 -1 0 19.0088)">
		<stop  offset="0.1" style="stop-color:#2814FF"/>
		<stop  offset="0.14" style="stop-color:#2324FF"/>
		<stop  offset="0.3" style="stop-color:#145BFF"/>
		<stop  offset="0.43" style="stop-color:#0983FF"/>
		<stop  offset="0.54" style="stop-color:#029BFF"/>
		<stop  offset="0.61" style="stop-color:#00A4FF"/>
		<stop  offset="0.66" style="stop-color:#00ACCE"/>
		<stop  offset="0.72" style="stop-color:#00B590"/>
		<stop  offset="0.79" style="stop-color:#00BD5D"/>
		<stop  offset="0.84" style="stop-color:#00C434"/>
		<stop  offset="0.9" style="stop-color:#00C818"/>
		<stop  offset="0.95" style="stop-color:#00CB06"/>
		<stop  offset="0.98" style="stop-color:#00CC00"/>
	</linearGradient>
	<path class="st0" d="M30.7,7.8c-0.9-0.8-2.1-1.3-3.3-1.3C26.7,4.6,25,3.4,23,3.4c-0.3,0-0.7,0-1,0.1c-1.8-3.3-5.9-4.5-9.1-2.7
		c-1.1,0.6-2.1,1.5-2.7,2.7c-0.3-0.1-0.7-0.1-1-0.1c-2,0-3.7,1.2-4.4,3.1C3.6,6.5,2.4,7,1.5,7.8C0.5,8.7,0,10,0,11.4
		c0,2.7,2.2,4.9,4.9,4.9l0,0h22.5c2.7,0,4.9-2.2,4.9-4.9C32.2,10,31.6,8.7,30.7,7.8z M29.7,11.2c0,1.5-1.2,2.7-2.7,2.7H5.3
		c-1.5-0.1-2.7-1.4-2.6-2.9c0.1-1.4,1.2-2.5,2.6-2.6c0.2,0,0.3,0,0.5,0l1,0.2l0.1-1c0.2-1.3,1.3-2.3,2.6-2.2c0.4,0,0.7,0.1,1.1,0.2
		l1,0.5l0.4-1c0.9-2.4,3.5-3.5,5.9-2.7C19,3,20,4,20.5,5.2l0.4,1l1-0.5c0.3-0.1,0.6-0.2,0.9-0.2c1.3,0,2.3,1,2.5,2.2l0.1,1l1-0.2
		c0.2,0,0.3,0,0.5,0C28.4,8.5,29.6,9.7,29.7,11.2L29.7,11.2z"/>
</g>
</svg>
