<?xml version="1.0" encoding="utf-8"?>
<!-- Generator: Adobe Illustrator 26.4.1, SVG Export Plug-In . SVG Version: 6.00 Build 0)  -->
<svg version="1.1" id="Layer_1" xmlns="http://www.w3.org/2000/svg" xmlns:xlink="http://www.w3.org/1999/xlink" x="0px" y="0px"
	 viewBox="0 0 34.9 24.9" style="enable-background:new 0 0 34.9 24.9;" xml:space="preserve">
<style type="text/css">
	.st0{fill:url(#SVGID_1_);}
</style>
<g id="Layer_1_00000031185472844444718730000004744264098061267881_">
	
		<linearGradient id="SVGID_1_" gradientUnits="userSpaceOnUse" x1="5.9077" y1="7.5862" x2="27.0079" y2="28.6864" gradientTransform="matrix(1 0 0 -1 0 27.9479)">
		<stop  offset="0.1" style="stop-color:#2814FF"/>
		<stop  offset="0.14" style="stop-color:#2324FF"/>
		<stop  offset="0.3" style="stop-color:#145BFF"/>
		<stop  offset="0.43" style="stop-color:#0983FF"/>
		<stop  offset="0.54" style="stop-color:#029BFF"/>
		<stop  offset="0.61" style="stop-color:#00A4FF"/>
		<stop  offset="0.66" style="stop-color:#00ACCE"/>
		<stop  offset="0.72" style="stop-color:#00B590"/>
		<stop  offset="0.79" style="stop-color:#00BD5D"/>
		<stop  offset="0.84" style="stop-color:#00C434"/>
		<stop  offset="0.9" style="stop-color:#00C818"/>
		<stop  offset="0.95" style="stop-color:#00CB06"/>
		<stop  offset="0.98" style="stop-color:#00CC00"/>
	</linearGradient>
	<path class="st0" d="M33.7,6c-0.7-0.7-1.6-1.1-2.5-1.1c-0.6-1.4-2-2.3-3.5-2.3c-0.2,0-0.4,0-0.6,0.1c-1.5-2.5-4.8-3.3-7.4-1.8
		c-1,0.6-1.8,1.6-2.2,2.8c-2,0.6-3.4,2.4-3.4,4.4H7.6l3,10.2h14.3l1.6-5.4h4.4c2.2,0,4-1.7,4-3.9c0,0,0,0,0-0.1
		C34.9,7.7,34.5,6.7,33.7,6z M32.9,8.8c0,1.1-0.9,1.9-1.9,1.9l0,0h-3.8L27.9,8H16.2c0-1.3,1.1-2.4,2.4-2.5l0.7-0.1l0.1-0.7
		C19.7,3.1,21,2,22.6,2l0,0c1.4,0,2.6,0.9,3.1,2.2l0.4,0.9L27,4.7c0.2-0.1,0.5-0.2,0.8-0.2l0,0c0.9,0,1.6,0.7,1.7,1.6l0.1,1l1-0.2
		H31l0,0C32,6.9,32.9,7.7,32.9,8.8C32.9,8.8,32.9,8.8,32.9,8.8L32.9,8.8z M12.2,16.2L10.3,10h15l-1.8,6.1L12.2,16.2z M23.4,21.5
		v-2.2H9.7L6.3,7.7L0.4,6.6L0,8.7l4.6,0.9L8,21.5H9c-0.1,0.2-0.1,0.4-0.1,0.7c0,1.5,1.2,2.7,2.7,2.7c0.7,0,1.4-0.3,1.9-0.8
		c0.5-0.5,0.8-1.2,0.8-1.9c0-0.2,0-0.5-0.1-0.7h2.7c-0.1,0.2-0.1,0.4-0.1,0.7c0,1.5,1.2,2.7,2.7,2.7c1.5,0,2.7-1.2,2.7-2.7
		c0-0.2,0-0.5-0.1-0.7H23.4z M20.2,22.2c0,0.4-0.3,0.7-0.7,0.7c0,0,0,0,0,0l0,0c-0.4,0-0.7-0.3-0.7-0.7c0-0.4,0.3-0.7,0.7-0.7l0,0
		c0.2,0,0.4,0.1,0.5,0.2C20.2,21.8,20.2,22,20.2,22.2L20.2,22.2z M12.3,22.2c0,0.4-0.3,0.7-0.7,0.7l0,0l0,0c-0.4,0-0.7-0.3-0.7-0.7
		l0,0c0-0.2,0.1-0.4,0.2-0.5c0.1-0.1,0.3-0.2,0.5-0.2l0,0C12,21.5,12.3,21.8,12.3,22.2C12.3,22.2,12.3,22.2,12.3,22.2z"/>
</g>
</svg>
