<?xml version="1.0" encoding="utf-8"?>
<!-- Generator: Adobe Illustrator 26.4.1, SVG Export Plug-In . SVG Version: 6.00 Build 0)  -->
<svg version="1.1" id="Layer_1" xmlns="http://www.w3.org/2000/svg" xmlns:xlink="http://www.w3.org/1999/xlink" x="0px" y="0px"
	 viewBox="0 0 32.5 11.5" style="enable-background:new 0 0 32.5 11.5;" xml:space="preserve">
<style type="text/css">
	.st0{fill:url(#SVGID_1_);}
</style>
<g id="Layer_1_00000090973348412364529900000017630712238708483235_">
	
		<linearGradient id="SVGID_1_" gradientUnits="userSpaceOnUse" x1="5.25" y1="-2.45" x2="27.25" y2="19.55" gradientTransform="matrix(1 0 0 -1 0 14.3)">
		<stop  offset="0.1" style="stop-color:#2814FF"/>
		<stop  offset="0.14" style="stop-color:#2324FF"/>
		<stop  offset="0.3" style="stop-color:#145BFF"/>
		<stop  offset="0.43" style="stop-color:#0983FF"/>
		<stop  offset="0.54" style="stop-color:#029BFF"/>
		<stop  offset="0.61" style="stop-color:#00A4FF"/>
		<stop  offset="0.66" style="stop-color:#00ACCE"/>
		<stop  offset="0.72" style="stop-color:#00B590"/>
		<stop  offset="0.79" style="stop-color:#00BD5D"/>
		<stop  offset="0.84" style="stop-color:#00C434"/>
		<stop  offset="0.9" style="stop-color:#00C818"/>
		<stop  offset="0.95" style="stop-color:#00CB06"/>
		<stop  offset="0.98" style="stop-color:#00CC00"/>
	</linearGradient>
	<path class="st0" d="M0,0v11.5h32.5V0H0z M2.5,9V2.4h27.6V9L2.5,9z M6.9,5.9l0.6,0.9L6.7,7.4L6,6.6L5.4,7.4L4.5,6.8l0.6-0.9l-1-0.3
		l0.3-1l1,0.3V3.9h1.1v1.1l1-0.3l0.3,1L6.9,5.9z M13.1,5.6l-0.3-1l-1,0.3V3.9h-1.1v1.1l-1-0.3l-0.3,1l1,0.3L9.6,6.8l0.9,0.6l0.6-0.9
		l0.6,0.9l0.9-0.6l-0.6-0.9L13.1,5.6z M28.4,5.6l-0.3-1l-1,0.3V3.9h-1.1v1.1l-1-0.3l-0.3,1l1,0.3L25,6.8l0.9,0.6l0.6-0.9l0.6,0.9
		L28,6.8l-0.6-0.9L28.4,5.6z M23.3,5.6l-0.3-1l-1,0.3V3.9h-1.1v1.1l-1-0.3l-0.3,1l1,0.3l-0.6,0.9l0.9,0.6l0.6-0.9L22,7.5l0.9-0.6
		l-0.6-0.9L23.3,5.6z M18.2,5.6l-0.3-1l-1,0.3V3.9h-1.1v1.1l-1-0.3l-0.3,1l1,0.3l-0.6,0.9l0.9,0.6l0.6-0.9l0.6,0.9l0.9-0.6l-0.6-0.9
		L18.2,5.6z"/>
</g>
</svg>
