<?xml version="1.0" encoding="utf-8"?>
<!-- Generator: Adobe Illustrator 26.4.1, SVG Export Plug-In . SVG Version: 6.00 Build 0)  -->
<svg version="1.1" id="Layer_1" xmlns="http://www.w3.org/2000/svg" xmlns:xlink="http://www.w3.org/1999/xlink" x="0px" y="0px"
	 viewBox="0 0 19 27.9" style="enable-background:new 0 0 19 27.9;" xml:space="preserve">
<style type="text/css">
	.st0{fill:url(#SVGID_1_);}
</style>
<g id="Layer_1_00000170237712424161564580000009466000402652958906_">
	
		<linearGradient id="SVGID_1_" gradientUnits="userSpaceOnUse" x1="-1.3425" y1="4.2425" x2="20.3425" y2="25.9275" gradientTransform="matrix(1 0 0 -1 0 30.76)">
		<stop  offset="0.1" style="stop-color:#2814FF"/>
		<stop  offset="0.14" style="stop-color:#2324FF"/>
		<stop  offset="0.3" style="stop-color:#145BFF"/>
		<stop  offset="0.43" style="stop-color:#0983FF"/>
		<stop  offset="0.54" style="stop-color:#029BFF"/>
		<stop  offset="0.61" style="stop-color:#00A4FF"/>
		<stop  offset="0.66" style="stop-color:#00ACCE"/>
		<stop  offset="0.72" style="stop-color:#00B590"/>
		<stop  offset="0.79" style="stop-color:#00BD5D"/>
		<stop  offset="0.84" style="stop-color:#00C434"/>
		<stop  offset="0.9" style="stop-color:#00C818"/>
		<stop  offset="0.95" style="stop-color:#00CB06"/>
		<stop  offset="0.98" style="stop-color:#00CC00"/>
	</linearGradient>
	<path class="st0" d="M14.6,3.5V2.3h-2.8c0-1.3-1-2.3-2.3-2.3C8.2,0,7.2,1,7.2,2.3H4.4v1.2H0v24.4h19V3.5H14.6z M14.6,7.2V5.6h2.3
		v20.1H2.1V5.6h2.3v1.6H14.6z M5.9,11.9l-2.5,0.8v-0.2C3,11.2,3.8,9.8,5.1,9.4c0.2-0.1,0.4-0.1,0.6-0.1h0.2L5.9,11.9z M7.5,24.8h1.5
		v-5.3H7.5V24.8z M5.2,24.8h1.5v-2.9H5.2L5.2,24.8z M9.9,24.8h1.5v-7.6H9.9L9.9,24.8z M12.3,24.8h1.5v-9.9h-1.5L12.3,24.8z
		 M9.1,12.2c0-1.4-1-2.6-2.4-2.7H6.4v2.8l-2.6,0.9l0.1,0.2c0.4,1,1.4,1.6,2.5,1.6C7.9,14.9,9.1,13.7,9.1,12.2
		C9.1,12.2,9.1,12.2,9.1,12.2z M11.3,9.4v1.5h4.1V9.4H11.3z M11.3,13.3h4.1v-1.6h-4.1V13.3z"/>
</g>
</svg>
