<?xml version="1.0" encoding="utf-8"?>
<!-- Generator: Adobe Illustrator 26.4.1, SVG Export Plug-In . SVG Version: 6.00 Build 0)  -->
<svg version="1.1" id="Layer_1" xmlns="http://www.w3.org/2000/svg" xmlns:xlink="http://www.w3.org/1999/xlink" x="0px" y="0px"
	 viewBox="0 0 20.7 26.2" style="enable-background:new 0 0 20.7 26.2;" xml:space="preserve">
<style type="text/css">
	.st0{fill:url(#SVGID_1_);}
</style>
<g id="Layer_1_00000128463024615445693310000005168804148226637235_">
	
		<linearGradient id="SVGID_1_" gradientUnits="userSpaceOnUse" x1="0.2041" y1="5.5759" x2="20.5064" y2="25.8782" gradientTransform="matrix(1 0 0 -1 0 29)">
		<stop  offset="0.1" style="stop-color:#2814FF"/>
		<stop  offset="0.14" style="stop-color:#2324FF"/>
		<stop  offset="0.3" style="stop-color:#145BFF"/>
		<stop  offset="0.43" style="stop-color:#0983FF"/>
		<stop  offset="0.54" style="stop-color:#029BFF"/>
		<stop  offset="0.61" style="stop-color:#00A4FF"/>
		<stop  offset="0.66" style="stop-color:#00ACCE"/>
		<stop  offset="0.72" style="stop-color:#00B590"/>
		<stop  offset="0.79" style="stop-color:#00BD5D"/>
		<stop  offset="0.84" style="stop-color:#00C434"/>
		<stop  offset="0.9" style="stop-color:#00C818"/>
		<stop  offset="0.95" style="stop-color:#00CB06"/>
		<stop  offset="0.98" style="stop-color:#00CC00"/>
	</linearGradient>
	<path class="st0" d="M10.4,0C5.6,0,0,1.2,0,4.5v18.7l0.4,0.3c3.1,1.8,6.5,2.7,10.1,2.7c3.4,0.1,6.8-0.9,9.8-2.7l0.4-0.3V4.5
		C20.8,1.2,15.1,0,10.4,0z M2.2,21.8v-17c0-1.2,3.3-2.5,8.2-2.5c2,0,4,0.2,5.9,0.8c0.7,0.2,2.2,0.8,2.2,1.7v17
		C14,24.6,7.1,24.6,2.2,21.8z M10.4,3C9.1,3,2.9,3.1,2.9,5.5S9.1,8,10.4,8s7.4-0.1,7.4-2.5S11.6,3,10.4,3z M10.4,4.8
		c1.8-0.1,3.6,0.2,5.3,0.8c-1.7,0.6-3.5,0.8-5.3,0.7C8.6,6.3,6.8,6.1,5.1,5.5C6.8,4.9,8.6,4.7,10.4,4.8z"/>
</g>
</svg>
