<?xml version="1.0" encoding="utf-8"?>
<!-- Generator: Adobe Illustrator 26.4.1, SVG Export Plug-In . SVG Version: 6.00 Build 0)  -->
<svg version="1.1" id="Layer_1" xmlns="http://www.w3.org/2000/svg" xmlns:xlink="http://www.w3.org/1999/xlink" x="0px" y="0px"
	 viewBox="0 0 24 22.8" style="enable-background:new 0 0 24 22.8;" xml:space="preserve">
<style type="text/css">
	.st0{fill:url(#SVGID_1_);}
</style>
<linearGradient id="SVGID_1_" gradientUnits="userSpaceOnUse" x1="4.2118" y1="10.6525" x2="19.6467" y2="26.0874" gradientTransform="matrix(1 0 0 -1 0 25.8)">
	<stop  offset="0.1" style="stop-color:#2814FF"/>
	<stop  offset="0.1435" style="stop-color:#2324FF"/>
	<stop  offset="0.2998" style="stop-color:#145BFF"/>
	<stop  offset="0.4347" style="stop-color:#0983FF"/>
	<stop  offset="0.5417" style="stop-color:#029BFF"/>
	<stop  offset="0.6072" style="stop-color:#00A4FF"/>
	<stop  offset="0.6551" style="stop-color:#00ACCE"/>
	<stop  offset="0.7216" style="stop-color:#00B590"/>
	<stop  offset="0.7855" style="stop-color:#00BD5D"/>
	<stop  offset="0.8449" style="stop-color:#00C434"/>
	<stop  offset="0.8989" style="stop-color:#00C818"/>
	<stop  offset="0.9457" style="stop-color:#00CB06"/>
	<stop  offset="0.98" style="stop-color:#00CC00"/>
</linearGradient>
<path class="st0" d="M22.1,2.2c-1.2-1.3-2.8-2.1-4.6-2.1l0,0c-1.7,0-3.4,0.7-4.6,2L12,3l-0.9-0.9C9.9,0.8,8.3,0,6.5,0l0,0
	C4.8,0,3.1,0.7,1.9,2c-2.5,2.7-2.6,7.1,0,9.8l10.1,11l10.2-10.9C24.6,9.4,24.6,5,22.1,2.2z M9,11.6l0.5-1.3l2.1,6.3l1.6-4.5l1.2,3.3
	l1.6-3.6h3.3l-7.4,7.9l-7.4-8.1L9,11.6z M21,9.9h-6.1l-0.3,0.6l-1.4-3.8l-1.5,4.2L9.7,5L7.8,9.8H3C1.9,7.9,2.2,5.4,3.7,3.9
	c0.8-0.9,2-1.4,3.2-1.4S9.1,3,10,3.9l2.2,2.3l2.2-2.3c0.8-0.9,1.9-1.4,3.1-1.4l0,0c1.2,0,2.3,0.5,3.1,1.4C21.9,5.5,22.1,8.1,21,9.9z
	"/>
</svg>
