<?xml version="1.0" encoding="utf-8"?>
<!-- Generator: Adobe Illustrator 26.4.1, SVG Export Plug-In . SVG Version: 6.00 Build 0)  -->
<svg version="1.1" id="Layer_1" xmlns="http://www.w3.org/2000/svg" xmlns:xlink="http://www.w3.org/1999/xlink" x="0px" y="0px"
	 viewBox="0 0 26.3 26.3" style="enable-background:new 0 0 26.3 26.3;" xml:space="preserve">
<style type="text/css">
	.st0{fill:url(#SVGID_1_);}
</style>
<g id="Layer_1_00000098943558000549011030000016297275863304788646_">
	
		<linearGradient id="SVGID_1_" gradientUnits="userSpaceOnUse" x1="3.8549" y1="6.4999" x2="22.4793" y2="25.1143" gradientTransform="matrix(1 0 0 -1 0 28.98)">
		<stop  offset="0.1" style="stop-color:#2814FF"/>
		<stop  offset="0.14" style="stop-color:#2324FF"/>
		<stop  offset="0.3" style="stop-color:#145BFF"/>
		<stop  offset="0.43" style="stop-color:#0983FF"/>
		<stop  offset="0.54" style="stop-color:#029BFF"/>
		<stop  offset="0.61" style="stop-color:#00A4FF"/>
		<stop  offset="0.66" style="stop-color:#00ACCE"/>
		<stop  offset="0.72" style="stop-color:#00B590"/>
		<stop  offset="0.79" style="stop-color:#00BD5D"/>
		<stop  offset="0.84" style="stop-color:#00C434"/>
		<stop  offset="0.9" style="stop-color:#00C818"/>
		<stop  offset="0.95" style="stop-color:#00CB06"/>
		<stop  offset="0.98" style="stop-color:#00CC00"/>
	</linearGradient>
	<path class="st0" d="M7.5,18.9h11.4v2.4H7.5V18.9z M16.7,14.2l-1.2-1.6l-1.3,1.5V4.1h-2v10L11,12.6l-1.4,1.6l3.7,4.2L16.7,14.2z
		 M13.2,0C5.9,0,0,5.9,0,13.2s5.9,13.2,13.2,13.2s13.2-5.9,13.2-13.2l0,0C26.3,5.9,20.4,0,13.2,0z M24,13.2c0,6-4.9,10.9-10.9,10.9
		S2.3,19.2,2.3,13.2S7.2,2.3,13.2,2.3h0C19.2,2.3,24,7.2,24,13.2z"/>
</g>
</svg>
