<?xml version="1.0" encoding="utf-8"?>
<!-- Generator: Adobe Illustrator 26.4.1, SVG Export Plug-In . SVG Version: 6.00 Build 0)  -->
<svg version="1.1" id="Layer_1" xmlns="http://www.w3.org/2000/svg" xmlns:xlink="http://www.w3.org/1999/xlink" x="0px" y="0px"
	 viewBox="0 0 35.6 33.8" style="enable-background:new 0 0 35.6 33.8;" xml:space="preserve">
<style type="text/css">
	.st0{fill:url(#SVGID_1_);}
	.st1{fill:none;}
</style>
<linearGradient id="SVGID_1_" gradientUnits="userSpaceOnUse" x1="6.0812" y1="6.4187" x2="28.1054" y2="28.4429" gradientTransform="matrix(1 0 0 -1 0 36.6)">
	<stop  offset="0.1" style="stop-color:#2814FF"/>
	<stop  offset="0.1435" style="stop-color:#2324FF"/>
	<stop  offset="0.2998" style="stop-color:#145BFF"/>
	<stop  offset="0.4347" style="stop-color:#0983FF"/>
	<stop  offset="0.5417" style="stop-color:#029BFF"/>
	<stop  offset="0.6072" style="stop-color:#00A4FF"/>
	<stop  offset="0.6551" style="stop-color:#00ACCE"/>
	<stop  offset="0.7216" style="stop-color:#00B590"/>
	<stop  offset="0.7855" style="stop-color:#00BD5D"/>
	<stop  offset="0.8449" style="stop-color:#00C434"/>
	<stop  offset="0.8989" style="stop-color:#00C818"/>
	<stop  offset="0.9457" style="stop-color:#00CB06"/>
	<stop  offset="0.98" style="stop-color:#00CC00"/>
</linearGradient>
<path class="st0" d="M31.7,22.1l3.9-3.9h-3v-3l-3.9,3.9v1.8l-3.9,3.9c-0.1,0-0.3,0-0.4,0c-1,0-1.9,0.8-1.9,1.9
	c0,1.1,0.8,1.9,1.9,1.9c1.1,0,1.9-0.8,1.9-1.9c0-0.3-0.1-0.5-0.2-0.7l0.8-0.8c0.3,0.4,0.4,1,0.4,1.5c0,1.6-1.3,2.9-2.9,2.9
	c-1.6,0-2.9-1.3-2.9-2.9c0-1.6,1.3-2.9,2.9-2.9c0.2,0,0.3,0,0.5,0l1.3-1.3c-0.5-0.2-1.1-0.4-1.8-0.4c-2.5,0-4.5,2-4.5,4.5
	s2,4.5,4.5,4.5s4.5-2,4.5-4.5c0-1-0.3-1.9-0.9-2.7l0.4-0.4c0.7,0.9,1.1,1.9,1.1,3.1c0,2.8-2.3,5.1-5.1,5.1c-2.8,0-5.1-2.3-5.1-5.1
	s2.3-5.1,5.1-5.1c0.8,0,1.5,0.2,2.2,0.5l1.5-1.5c-1.1-0.6-2.3-1-3.6-1c-0.8,0-1.5,0.1-2.2,0.4l-0.5-1.5l9.7-7.1h-12L15.7,0L12,11.5
	H0l9.7,7.1L5.9,30l9.7-7.1l2,1.5c-0.2,0.7-0.4,1.5-0.4,2.3c0,3.9,3.2,7.1,7.1,7.1s7.1-3.2,7.1-7.1c0-1.7-0.6-3.3-1.7-4.5l0.1-0.1
	H31.7z M15.7,20.1L10.3,24l2.1-6.3L7,13.8h6.7l2.1-6.3l2.1,6.3h6.7l-5.4,3.9l1.1,3.4c-0.5,0.4-0.9,0.8-1.3,1.3L15.7,20.1z"/>
<g>
	<path class="st1" d="M26.6,22.1c-0.7-0.3-1.4-0.5-2.2-0.5c-2.8,0-5.1,2.3-5.1,5.1c0,2.8,2.3,5.1,5.1,5.1s5.1-2.3,5.1-5.1
		c0-1.5-0.7-2.9-1.8-3.8"/>
</g>
</svg>
