<?xml version="1.0" encoding="utf-8"?>
<!-- Generator: Adobe Illustrator 26.4.1, SVG Export Plug-In . SVG Version: 6.00 Build 0)  -->
<svg version="1.1" id="Layer_1" xmlns="http://www.w3.org/2000/svg" xmlns:xlink="http://www.w3.org/1999/xlink" x="0px" y="0px"
	 viewBox="0 0 27 22.8" style="enable-background:new 0 0 27 22.8;" xml:space="preserve">
<style type="text/css">
	.st0{fill:url(#SVGID_1_);}
</style>
<g id="Layer_1_00000038378386853206985190000003044835650052234162_">
	
		<linearGradient id="SVGID_1_" gradientUnits="userSpaceOnUse" x1="4.4249" y1="1.5358" x2="22.6949" y2="19.8158" gradientTransform="matrix(1 0 0 -1 0 25.6)">
		<stop  offset="0.1" style="stop-color:#2814FF"/>
		<stop  offset="0.14" style="stop-color:#2324FF"/>
		<stop  offset="0.3" style="stop-color:#145BFF"/>
		<stop  offset="0.43" style="stop-color:#0983FF"/>
		<stop  offset="0.54" style="stop-color:#029BFF"/>
		<stop  offset="0.61" style="stop-color:#00A4FF"/>
		<stop  offset="0.66" style="stop-color:#00ACCE"/>
		<stop  offset="0.72" style="stop-color:#00B590"/>
		<stop  offset="0.79" style="stop-color:#00BD5D"/>
		<stop  offset="0.84" style="stop-color:#00C434"/>
		<stop  offset="0.9" style="stop-color:#00C818"/>
		<stop  offset="0.95" style="stop-color:#00CB06"/>
		<stop  offset="0.98" style="stop-color:#00CC00"/>
	</linearGradient>
	<path class="st0" d="M13.5,0L0,10.3l1.2,1.5l2-1.5v12.5h20.7V10.1l2,1.5L27,10L13.5,0z M5.4,20.5V9l8.1-6.2l8.1,6v11.7H5.4z
		 M7.2,10.8h3.2v3.3H7.2V10.8z M12,18.1h3.3v-3.3H12V18.1z M7.2,18.1h3.2v-3.3H7.2V18.1z M16.8,18.1H20v-3.3h-3.3V18.1z M16.8,10.8
		v3.3H20v-3.3H16.8z M12,14.1h3.3v-3.3H12V14.1z"/>
</g>
</svg>
