<?xml version="1.0" encoding="utf-8"?>
<!-- Generator: Adobe Illustrator 26.4.1, SVG Export Plug-In . SVG Version: 6.00 Build 0)  -->
<svg version="1.1" id="Layer_1" xmlns="http://www.w3.org/2000/svg" xmlns:xlink="http://www.w3.org/1999/xlink" x="0px" y="0px"
	 viewBox="0 0 22.4 27.8" style="enable-background:new 0 0 22.4 27.8;" xml:space="preserve">
<style type="text/css">
	.st0{fill:url(#SVGID_1_);}
</style>
<g id="Layer_1_00000025420977282146967900000012909285056691198104_">
	
		<linearGradient id="SVGID_1_" gradientUnits="userSpaceOnUse" x1="0.382" y1="5.4864" x2="19.7733" y2="24.8877" gradientTransform="matrix(1 0 0 -1 0 30.2)">
		<stop  offset="0.1" style="stop-color:#2814FF"/>
		<stop  offset="0.14" style="stop-color:#2324FF"/>
		<stop  offset="0.3" style="stop-color:#145BFF"/>
		<stop  offset="0.43" style="stop-color:#0983FF"/>
		<stop  offset="0.54" style="stop-color:#029BFF"/>
		<stop  offset="0.61" style="stop-color:#00A4FF"/>
		<stop  offset="0.66" style="stop-color:#00ACCE"/>
		<stop  offset="0.72" style="stop-color:#00B590"/>
		<stop  offset="0.79" style="stop-color:#00BD5D"/>
		<stop  offset="0.84" style="stop-color:#00C434"/>
		<stop  offset="0.9" style="stop-color:#00C818"/>
		<stop  offset="0.95" style="stop-color:#00CB06"/>
		<stop  offset="0.98" style="stop-color:#00CC00"/>
	</linearGradient>
	<path class="st0" d="M17.8,3.3H3.5v24.5h18.9V7.9L17.8,3.3z M20.4,9.3v16.5H5.5V5.4h11v3.9H20.4z M14.4,2.2H2.2v21.6H0V0h14.4
		L14.4,2.2z M15.4,14.9v-0.8c0-0.6-0.3-1.3-0.7-1.7c-1-0.9-2.5-0.9-3.4,0.1c-0.4,0.4-0.7,1-0.7,1.6v0.8h-0.4v4.7h5.7v-4.7H15.4z
		 M11.9,14.9v-0.8c0-0.6,0.5-1.1,1.1-1.1c0.3,0,0.6,0.1,0.8,0.3c0.2,0.2,0.3,0.5,0.3,0.8v0.8L11.9,14.9z"/>
</g>
</svg>
