<?xml version="1.0" encoding="utf-8"?>
<!-- Generator: Adobe Illustrator 26.4.1, SVG Export Plug-In . SVG Version: 6.00 Build 0)  -->
<svg version="1.1" id="Layer_1" xmlns="http://www.w3.org/2000/svg" xmlns:xlink="http://www.w3.org/1999/xlink" x="0px" y="0px"
	 viewBox="0 0 23 23.6" style="enable-background:new 0 0 23 23.6;" xml:space="preserve">
<style type="text/css">
	.st0{fill:url(#SVGID_1_);}
</style>
<g id="Layer_1_00000160888531422789159700000003367645482957527680_">
	
		<linearGradient id="SVGID_1_" gradientUnits="userSpaceOnUse" x1="5.84" y1="7.3814" x2="18.9795" y2="20.5209" gradientTransform="matrix(1 0 0 -1 0 26.3609)">
		<stop  offset="0.1" style="stop-color:#2814FF"/>
		<stop  offset="0.14" style="stop-color:#2324FF"/>
		<stop  offset="0.3" style="stop-color:#145BFF"/>
		<stop  offset="0.43" style="stop-color:#0983FF"/>
		<stop  offset="0.54" style="stop-color:#029BFF"/>
		<stop  offset="0.61" style="stop-color:#00A4FF"/>
		<stop  offset="0.66" style="stop-color:#00ACCE"/>
		<stop  offset="0.72" style="stop-color:#00B590"/>
		<stop  offset="0.79" style="stop-color:#00BD5D"/>
		<stop  offset="0.84" style="stop-color:#00C434"/>
		<stop  offset="0.9" style="stop-color:#00C818"/>
		<stop  offset="0.95" style="stop-color:#00CB06"/>
		<stop  offset="0.98" style="stop-color:#00CC00"/>
	</linearGradient>
	<path class="st0" d="M16.7,15C19.8,10.9,19,5,15,1.9S5-0.4,1.9,3.6s-2.4,9.9,1.7,13c1.6,1.2,3.6,1.9,5.7,1.9c1.7,0,3.4-0.5,4.8-1.4
		l6.5,6.4l2.4-2.4L16.7,15z M16.3,9.3c0,3.9-3.2,7.1-7.1,7.1c-3.9,0-7.1-3.2-7.1-7.1c0-3.9,3.2-7.1,7.1-7.1c0,0,0,0,0.1,0
		C13.2,2.3,16.4,5.4,16.3,9.3z"/>
</g>
</svg>
