<?xml version="1.0" encoding="utf-8"?>
<!-- Generator: Adobe Illustrator 26.4.1, SVG Export Plug-In . SVG Version: 6.00 Build 0)  -->
<svg version="1.1" id="Layer_1" xmlns="http://www.w3.org/2000/svg" xmlns:xlink="http://www.w3.org/1999/xlink" x="0px" y="0px"
	 viewBox="0 0 26.6 26.7" style="enable-background:new 0 0 26.6 26.7;" xml:space="preserve">
<style type="text/css">
	.st0{fill:url(#SVGID_1_);}
</style>
<g id="Layer_1_00000000212532216377571570000014954412754786967707_">
	
		<linearGradient id="SVGID_1_" gradientUnits="userSpaceOnUse" x1="5.1321" y1="5.6597" x2="23.8478" y2="24.3754" gradientTransform="matrix(1 0 0 -1 0 29.5017)">
		<stop  offset="0.1" style="stop-color:#2814FF"/>
		<stop  offset="0.14" style="stop-color:#2324FF"/>
		<stop  offset="0.3" style="stop-color:#145BFF"/>
		<stop  offset="0.43" style="stop-color:#0983FF"/>
		<stop  offset="0.54" style="stop-color:#029BFF"/>
		<stop  offset="0.61" style="stop-color:#00A4FF"/>
		<stop  offset="0.66" style="stop-color:#00ACCE"/>
		<stop  offset="0.72" style="stop-color:#00B590"/>
		<stop  offset="0.79" style="stop-color:#00BD5D"/>
		<stop  offset="0.84" style="stop-color:#00C434"/>
		<stop  offset="0.9" style="stop-color:#00C818"/>
		<stop  offset="0.95" style="stop-color:#00CB06"/>
		<stop  offset="0.98" style="stop-color:#00CC00"/>
	</linearGradient>
	<path class="st0" d="M25.4,18.4c0.7-1.6,1.1-3.4,1.1-5.2c0-2.3-0.6-4.5-1.7-6.5V6.6l-0.1-0.1C21,0.2,12.9-1.9,6.5,1.8
		C4.6,3,3,4.6,1.8,6.5L1.7,6.6v0.1c-2.3,3.9-2.3,8.7-0.2,12.7l0,0l0.2,0.3L1.9,20c2.4,4,6.7,6.5,11.4,6.5c1.7,0,3.4-0.4,4.9-1
		c2.2,1.8,5.5,1.4,7.2-0.8c0.7-0.9,1.1-2,1.1-3.2C26.5,20.4,26.1,19.3,25.4,18.4z M21.4,18.4c1.7,0,3.1,1.4,3.1,3.1
		c0,1.7-1.4,3.1-3.1,3.1c-1.7,0-3.1-1.4-3.1-3.1C18.3,19.8,19.7,18.4,21.4,18.4L21.4,18.4z M23.9,16.3c-0.4-0.5-0.8-1-1.3-1.5
		c-0.4-0.4-0.9-0.9-1.4-1.3c0-0.1,0-0.1,0-0.2c0-0.1,0-0.2,0-0.3c0.5-0.5,1-0.9,1.4-1.3c0.5-0.5,0.9-1,1.3-1.5
		C24.5,12.2,24.5,14.3,23.9,16.3L23.9,16.3z M17.3,13.2c0,0,0,0.1,0,0.1l0,0c-0.9,0.6-1.9,1.3-2.9,1.9s-2,1.1-3.1,1.6l-0.2,0
		c-0.1-1.1-0.1-2.3-0.1-3.5s0-2.3,0.1-3.4l0.2-0.1c1,0.5,2,1,3,1.6S16.4,12.5,17.3,13.2L17.3,13.2z M21.1,10.2
		c-0.4,0.4-0.8,0.8-1.3,1.2c-0.4-0.1-0.8-0.1-1.2,0c-1-0.7-2.1-1.4-3.2-2s-2.2-1.1-3.3-1.6c-0.1-0.4-0.3-0.8-0.6-1.1
		c0.6-3.3,1.5-4.5,1.7-4.6c4,0,7.6,2.1,9.6,5.5C22.9,7.9,22.7,8.7,21.1,10.2L21.1,10.2z M12.2,18.8c1.1-0.5,2.2-1.1,3.3-1.7
		s2.1-1.3,3.1-1.9c0.4,0.2,0.9,0.2,1.4,0c0.5,0.4,0.9,0.8,1.2,1.1l0.1,0.1c-2.8,0-5.1,2.4-5,5.2c0,0.7,0.2,1.5,0.5,2.2
		c-1.1,0.4-2.3,0.6-3.5,0.6c-0.2,0-1.1-1.2-1.7-4.5C11.9,19.6,12.1,19.2,12.2,18.8z M9.4,6.3L9.2,6.5C7.9,6,6.6,5.7,5.3,5.5
		C6.7,4,8.5,3,10.5,2.5C10,3.7,9.7,5,9.4,6.3z M8.3,8.5C8.4,8.9,8.6,9.4,9,9.7c-0.1,1.2-0.1,2.4-0.1,3.6s0,2.5,0.1,3.7
		c-0.4,0.3-0.6,0.7-0.7,1.1C5,19.3,3.7,19,3.7,18.9c-2-3.4-2-7.7,0-11.1c0.2-0.1,0.5-0.2,0.7-0.1C5.7,7.7,7.1,8,8.3,8.5z M9.1,20.1
		c0.1,0.1,0.2,0.1,0.4,0.2c0.2,1.3,0.6,2.6,1.1,3.8c-2-0.5-3.8-1.5-5.2-3C6.6,20.9,7.9,20.5,9.1,20.1z M22.8,20.8v-0.4
		c0-0.8-0.7-1.5-1.5-1.5c-0.8,0-1.5,0.7-1.5,1.5v0.4h-0.2v3h3.4v-3H22.8z M20.8,20.8v-0.4c0-0.3,0.2-0.6,0.5-0.6
		c0.2,0,0.3,0.1,0.4,0.2c0.1,0.1,0.2,0.3,0.2,0.4v0.4H20.8z"/>
</g>
</svg>
