<?xml version="1.0" encoding="utf-8"?>
<!-- Generator: Adobe Illustrator 26.4.1, SVG Export Plug-In . SVG Version: 6.00 Build 0)  -->
<svg version="1.1" id="Layer_1" xmlns="http://www.w3.org/2000/svg" xmlns:xlink="http://www.w3.org/1999/xlink" x="0px" y="0px"
	 viewBox="0 0 27.5 25.4" style="enable-background:new 0 0 27.5 25.4;" xml:space="preserve">
<style type="text/css">
	.st0{fill:url(#SVGID_1_);}
</style>
<g id="Layer_1_00000058582659270555150870000017932904583427947649_">
	
		<linearGradient id="SVGID_1_" gradientUnits="userSpaceOnUse" x1="2.808" y1="-1.068878e-02" x2="24.6381" y2="21.8093" gradientTransform="matrix(1 0 0 -1 0 28.2147)">
		<stop  offset="0.1" style="stop-color:#2814FF"/>
		<stop  offset="0.14" style="stop-color:#2324FF"/>
		<stop  offset="0.3" style="stop-color:#145BFF"/>
		<stop  offset="0.43" style="stop-color:#0983FF"/>
		<stop  offset="0.54" style="stop-color:#029BFF"/>
		<stop  offset="0.61" style="stop-color:#00A4FF"/>
		<stop  offset="0.66" style="stop-color:#00ACCE"/>
		<stop  offset="0.72" style="stop-color:#00B590"/>
		<stop  offset="0.79" style="stop-color:#00BD5D"/>
		<stop  offset="0.84" style="stop-color:#00C434"/>
		<stop  offset="0.9" style="stop-color:#00C818"/>
		<stop  offset="0.95" style="stop-color:#00CB06"/>
		<stop  offset="0.98" style="stop-color:#00CC00"/>
	</linearGradient>
	<path class="st0" d="M24,14.4c0-0.1,0.1-0.3,0.1-0.5c0.1-0.4,0.2-0.8,0.2-1.2c0.1-0.8,0.2-1.6,0.1-2.4c0-0.8-0.2-1.6-0.4-2.4
		c-0.2-0.8-0.5-1.5-0.9-2.3c-0.4-0.7-0.8-1.4-1.4-2c-0.5-0.6-1.1-1.1-1.8-1.5c-0.6-0.5-1.3-0.9-2.1-1.2c-0.7-0.3-1.5-0.6-2.3-0.7
		C14.9,0,14.1,0,13.3,0h-0.1C7.2,0.3,2.6,5.4,2.9,11.4c0,1,0.2,2,0.6,3H0v11h27.5v-11L24,14.4z M2,23.4v-6.8h23.5v6.8L2,23.4z
		 M11.5,5.3c0.4-0.8,0.9-1.5,1.4-2.2v2.1L11.5,5.3z M5.7,14.5c-0.4-0.9-0.6-1.8-0.7-2.7H8c0.1,0.9,0.3,1.8,0.6,2.7H5.7z M12.8,11.8
		v2.7h-2.2c-0.3-0.9-0.6-1.8-0.7-2.7H12.8z M12.8,7.2v2.7H9.9C10,9,10.3,8,10.6,7.1L12.8,7.2z M6.9,5.2c1.1-1.4,2.6-2.4,4.3-2.9
		c-0.7,0.9-1.2,1.9-1.7,2.9H6.9z M5,9.9C5,8.9,5.3,8,5.7,7.1h2.9C8.3,8,8.1,8.9,8,9.8L5,9.9z M14.7,5.2V3.1c0.5,0.7,0.9,1.4,1.3,2.1
		L14.7,5.2z M17.5,11.8c-0.1,0.9-0.3,1.8-0.7,2.7h-2.2v-2.7H17.5z M14.7,9.9V7.1h2.2c0.3,0.9,0.6,1.8,0.7,2.7L14.7,9.9z M18.9,14.5
		c0.3-0.9,0.5-1.8,0.6-2.7h3.1c-0.1,0.9-0.3,1.8-0.7,2.7H18.9z M19.4,9.9c-0.1-0.9-0.3-1.9-0.6-2.8h2.9c0.4,0.9,0.7,1.8,0.8,2.7
		L19.4,9.9z M18.1,5.2c-0.5-1-1.1-2-1.7-2.9c1.7,0.5,3.2,1.5,4.3,2.9H18.1z M5.7,17.4h1.6v5H5.7V17.4z M3.3,22.4h1.6v-5H3.3V22.4z
		 M20.9,17.8c-0.5,0-0.8,0.4-0.8,0.8s0.4,0.8,0.8,0.8c0.5,0,0.8-0.4,0.8-0.8c0,0,0,0,0,0C21.8,18.1,21.4,17.8,20.9,17.8
		C20.9,17.8,20.9,17.8,20.9,17.8L20.9,17.8z M23.3,17.8c-0.5,0-0.8,0.4-0.8,0.8s0.4,0.8,0.8,0.8c0.5,0,0.8-0.4,0.8-0.8c0,0,0,0,0,0
		C24.1,18.1,23.8,17.8,23.3,17.8C23.3,17.8,23.3,17.8,23.3,17.8L23.3,17.8z M8.1,22.4h1.6v-5H8.1V22.4z"/>
</g>
</svg>
