<?xml version="1.0" encoding="utf-8"?>
<!-- Generator: Adobe Illustrator 26.4.1, SVG Export Plug-In . SVG Version: 6.00 Build 0)  -->
<svg version="1.1" id="Layer_1" xmlns="http://www.w3.org/2000/svg" xmlns:xlink="http://www.w3.org/1999/xlink" x="0px" y="0px"
	 viewBox="0 0 14 33.2" style="enable-background:new 0 0 14 33.2;" xml:space="preserve">
<style type="text/css">
	.st0{fill:url(#SVGID_1_);}
</style>
<g id="Layer_1_00000006668923356329394970000010684567691369146755_">
	
		<linearGradient id="SVGID_1_" gradientUnits="userSpaceOnUse" x1="-2.1134" y1="9.0299" x2="16.0266" y2="27.1699" gradientTransform="matrix(1 0 0 -1 0 36)">
		<stop  offset="0.1" style="stop-color:#2814FF"/>
		<stop  offset="0.14" style="stop-color:#2324FF"/>
		<stop  offset="0.3" style="stop-color:#145BFF"/>
		<stop  offset="0.43" style="stop-color:#0983FF"/>
		<stop  offset="0.54" style="stop-color:#029BFF"/>
		<stop  offset="0.61" style="stop-color:#00A4FF"/>
		<stop  offset="0.66" style="stop-color:#00ACCE"/>
		<stop  offset="0.72" style="stop-color:#00B590"/>
		<stop  offset="0.79" style="stop-color:#00BD5D"/>
		<stop  offset="0.84" style="stop-color:#00C434"/>
		<stop  offset="0.9" style="stop-color:#00C818"/>
		<stop  offset="0.95" style="stop-color:#00CB06"/>
		<stop  offset="0.98" style="stop-color:#00CC00"/>
	</linearGradient>
	<path class="st0" d="M7.3,21.2l-1.4-0.1V3.6l1.4-0.1V21.2z M5.5,29.9C4.9,29,5,27.7,5.9,27.1c0.7-0.6,1.7-0.6,2.4,0
		c0.4,0.4,0.6,0.9,0.6,1.4c0,0.5-0.2,1-0.6,1.4C7.6,30.7,6.3,30.7,5.5,29.9C5.5,29.9,5.5,29.9,5.5,29.9L5.5,29.9z M6.7,28.7
		c0.2,0.2,0.4,0.2,0.6,0c0,0,0,0,0,0c0.1-0.1,0.1-0.2,0.1-0.3c0-0.1,0-0.2-0.1-0.3c-0.2-0.1-0.4-0.1-0.6,0
		C6.5,28.3,6.5,28.6,6.7,28.7z M14,26.2L14,26.2c0,3.9-3.1,7-7,7s-7-3.1-7-7c0-2.6,1.4-5,3.7-6.2V2.9L7,0l3.2,3v1.8l1.7,2l-1.5,1.9
		l1.4,2l-1.4,1.9l1.6,2l-1.6,1.9l1.6,1.8l-1.6,1.9C12.6,21.4,13.9,23.7,14,26.2z M1.6,26.2L1.6,26.2c0,3,2.5,5.4,5.4,5.4
		c3,0,5.4-2.5,5.4-5.4c0-2.4-1.6-4.4-3.8-5.1l-0.7-0.3l2.1-2.5l-1.6-1.8l1.6-1.9l-1.6-2l1.5-1.9l-1.4-2l1.4-1.9L8.7,5.4V3.7L7,2.2
		L5.3,3.6v17.3L5,21.1C3,21.9,1.6,23.9,1.6,26.2L1.6,26.2z"/>
</g>
</svg>
