<?xml version="1.0" encoding="utf-8"?>
<!-- Generator: Adobe Illustrator 26.4.1, SVG Export Plug-In . SVG Version: 6.00 Build 0)  -->
<svg version="1.1" id="Layer_1" xmlns="http://www.w3.org/2000/svg" xmlns:xlink="http://www.w3.org/1999/xlink" x="0px" y="0px"
	 viewBox="0 0 32.4 30" style="enable-background:new 0 0 32.4 30;" xml:space="preserve">
<style type="text/css">
	.st0{fill:url(#SVGID_1_);}
</style>
<linearGradient id="SVGID_1_" gradientUnits="userSpaceOnUse" x1="6.5251" y1="8.6126" x2="24.3751" y2="26.4626" gradientTransform="matrix(1 0 0 -1 0 32.8)">
	<stop  offset="0.1" style="stop-color:#2814FF"/>
	<stop  offset="0.1435" style="stop-color:#2324FF"/>
	<stop  offset="0.2998" style="stop-color:#145BFF"/>
	<stop  offset="0.4347" style="stop-color:#0983FF"/>
	<stop  offset="0.5417" style="stop-color:#029BFF"/>
	<stop  offset="0.6072" style="stop-color:#00A4FF"/>
	<stop  offset="0.6551" style="stop-color:#00ACCE"/>
	<stop  offset="0.7216" style="stop-color:#00B590"/>
	<stop  offset="0.7855" style="stop-color:#00BD5D"/>
	<stop  offset="0.8449" style="stop-color:#00C434"/>
	<stop  offset="0.8989" style="stop-color:#00C818"/>
	<stop  offset="0.9457" style="stop-color:#00CB06"/>
	<stop  offset="0.98" style="stop-color:#00CC00"/>
</linearGradient>
<path class="st0" d="M28.5,18.3l3.9-3.9h-3v-3l-3.8,4v1.8l-4,3.9c-0.1,0-0.3,0-0.4,0c-1,0-1.9,0.8-1.9,1.9c0,1.1,0.8,1.9,1.9,1.9
	c1.1,0,1.9-0.8,1.9-1.9c0-0.3-0.1-0.5-0.2-0.7l0.8-0.8c0.3,0.4,0.4,1,0.4,1.5c0,1.6-1.3,2.9-2.9,2.9c-1.6,0-2.9-1.3-2.9-2.9
	c0-1.6,1.3-2.9,2.9-2.9c0.2,0,0.3,0,0.5,0l1.3-1.3c-0.5-0.2-1.1-0.4-1.8-0.4c-2.5,0-4.5,2-4.5,4.5c0,2.5,2,4.5,4.5,4.5
	s4.5-2,4.5-4.5c0-1-0.3-1.9-0.9-2.7l0.4-0.4c0.7,0.9,1.1,1.9,1.1,3.1c0,2.8-2.3,5.1-5.1,5.1c-2.8,0-5.1-2.3-5.1-5.1s2.3-5.1,5.1-5.1
	c0.8,0,1.5,0.2,2.2,0.5l1.5-1.5c-0.2-0.1-0.5-0.3-0.7-0.4c0.4-1.2,0.7-2.4,0.7-3.6V12L22,11c0-0.2-0.1-0.4-0.1-0.6l2.4-1.9L24,7.7
	c-0.6-1.4-1.4-2.7-2.4-3.8L21,3.3l-2.8,1.3c-0.2-0.1-0.3-0.2-0.5-0.3l0.3-3L17.2,1c-1.4-0.6-2.9-0.9-4.4-1H12l-1,2.9
	c-0.2,0-0.4,0.1-0.6,0.1L8.5,0.6L7.7,0.9C6.3,1.5,5,2.3,3.9,3.3L3.3,3.9l1.3,2.8C4.5,6.9,4.4,7,4.3,7.2l-3-0.3L1,7.7
	c-0.6,1.4-0.9,2.9-1,4.4v0.8l2.9,1c0,0.2,0.1,0.4,0.1,0.6l-2.4,1.9l0.3,0.8c0.6,1.4,1.4,2.7,2.4,3.8l0.6,0.6l2.8-1.3
	c0.2,0.1,0.3,0.2,0.5,0.3l-0.3,3l0.8,0.3c1.4,0.6,2.9,0.9,4.4,1h0.8l1-2.9c0.1,0,0.3-0.1,0.4-0.1c0,0.3-0.1,0.7-0.1,1
	c0,3.9,3.2,7.1,7.1,7.1s7.1-3.2,7.1-7.1c0-1.7-0.6-3.3-1.7-4.5l0.1-0.1C26.8,18.3,28.5,18.3,28.5,18.3z M14.5,19.5
	c-0.5,0.2-1.1,0.3-1.6,0.3h-0.8l-0.9,2.7c-0.7-0.1-1.3-0.2-1.9-0.4l0.3-2.8l-0.7-0.4c-0.5-0.3-1-0.6-1.4-0.9l-0.6-0.5l-2.5,1.2
	C4,18.2,3.6,17.6,3.3,17l2.2-1.8l-0.2-0.7C5.1,14,5,13.4,5,12.9v-0.8l-2.7-0.9c0.1-0.7,0.2-1.3,0.4-1.9l2.8,0.3l0.4-0.7
	c0.3-0.5,0.6-1,0.9-1.4l0.5-0.6L6.1,4.4C6.6,4,7.2,3.6,7.8,3.3l1.8,2.2l0.7-0.2C10.8,5.1,11.4,5,11.9,5h0.8l0.9-2.6
	c0.7,0,1.3,0.2,2,0.4l-0.3,2.8L16,6c0.5,0.3,1,0.6,1.4,0.9L18,7.4l2.5-1.2c0.4,0.5,0.8,1.1,1.1,1.7l-2.2,1.8l0.2,0.7
	c0.2,0.5,0.3,1.1,0.3,1.6v0.8l2.7,0.9c-0.1,0.7-0.3,1.5-0.5,2.2V16c-0.2,0-0.5,0-0.7,0c-2.6,0-4.8,1.4-6.1,3.4L14.5,19.5z
	 M17.5,15.1c0.7-1.3,0.8-2.9,0.4-4.3c-0.5-1.4-1.4-2.6-2.8-3.3c-1.3-0.7-2.9-0.8-4.3-0.4C9.4,7.6,8.2,8.5,7.5,9.9
	c-0.7,1.3-0.8,2.9-0.4,4.3c0.5,1.4,1.4,2.6,2.8,3.3c0.8,0.4,1.7,0.6,2.6,0.6C14.6,18.1,16.5,17,17.5,15.1z M15.3,14L15.3,14
	c-0.4,0.8-1.1,1.3-1.9,1.6c-0.8,0.3-1.7,0.2-2.4-0.2s-1.3-1.1-1.6-1.9s-0.2-1.7,0.2-2.4c0.6-1.1,1.6-1.7,2.8-1.7
	c0.5,0,1,0.1,1.5,0.4c0.8,0.4,1.3,1.1,1.6,1.9C15.8,12.3,15.7,13.2,15.3,14z"/>
</svg>
