<?xml version="1.0" encoding="utf-8"?>
<!-- Generator: Adobe Illustrator 26.4.1, SVG Export Plug-In . SVG Version: 6.00 Build 0)  -->
<svg version="1.1" id="Layer_1" xmlns="http://www.w3.org/2000/svg" xmlns:xlink="http://www.w3.org/1999/xlink" x="0px" y="0px"
	 viewBox="0 0 23.8 14.4" style="enable-background:new 0 0 23.8 14.4;" xml:space="preserve">
<style type="text/css">
	.st0{fill:url(#SVGID_1_);}
</style>
<linearGradient id="SVGID_1_" gradientUnits="userSpaceOnUse" x1="4.9703" y1="0.3893" x2="19.3605" y2="14.7795" gradientTransform="matrix(1 0 0 -1 0 17.2)">
	<stop  offset="0.1" style="stop-color:#2814FF"/>
	<stop  offset="0.1435" style="stop-color:#2324FF"/>
	<stop  offset="0.2998" style="stop-color:#145BFF"/>
	<stop  offset="0.4347" style="stop-color:#0983FF"/>
	<stop  offset="0.5417" style="stop-color:#029BFF"/>
	<stop  offset="0.6072" style="stop-color:#00A4FF"/>
	<stop  offset="0.6551" style="stop-color:#00ACCE"/>
	<stop  offset="0.7216" style="stop-color:#00B590"/>
	<stop  offset="0.7855" style="stop-color:#00BD5D"/>
	<stop  offset="0.8449" style="stop-color:#00C434"/>
	<stop  offset="0.8989" style="stop-color:#00C818"/>
	<stop  offset="0.9457" style="stop-color:#00CB06"/>
	<stop  offset="0.98" style="stop-color:#00CC00"/>
</linearGradient>
<path class="st0" d="M23.8,9.3c0,2.5-1.6,5.1-6,5.1c-0.1,0-0.2,0-0.3,0H5.6c0,0-0.2,0-0.4,0c-1,0-3-0.2-4.2-1.5
	c-0.7-0.8-1.1-1.8-1-3.1C0.1,7.2,2.1,6.2,4,6c0.5-1.8,1.8-2.9,3.8-2.9c0.4,0,0.7,0,0.9,0.1c1-1.5,2.1-3.2,5.2-3.2c0.2,0,0.4,0,0.7,0
	c3.4,0.2,4.7,2.9,5.1,4.1C23,4.6,23.8,7.7,23.8,9.3z"/>
</svg>
