<?xml version="1.0" encoding="utf-8"?>
<!-- Generator: Adobe Illustrator 26.4.1, SVG Export Plug-In . SVG Version: 6.00 Build 0)  -->
<svg version="1.1" id="Layer_1" xmlns="http://www.w3.org/2000/svg" xmlns:xlink="http://www.w3.org/1999/xlink" x="0px" y="0px"
	 viewBox="0 0 39.1 34.2" style="enable-background:new 0 0 39.1 34.2;" xml:space="preserve">
<style type="text/css">
	.st0{fill:url(#SVGID_1_);}
</style>
<g id="Layer_1_00000029014149967168410560000008345618552798064045_">
	
		<linearGradient id="SVGID_1_" gradientUnits="userSpaceOnUse" x1="4.065" y1="-1.125" x2="35.115" y2="29.925" gradientTransform="matrix(1 0 0 -1 0 37.1)">
		<stop  offset="0.1" style="stop-color:#2814FF"/>
		<stop  offset="0.14" style="stop-color:#2324FF"/>
		<stop  offset="0.3" style="stop-color:#145BFF"/>
		<stop  offset="0.43" style="stop-color:#0983FF"/>
		<stop  offset="0.54" style="stop-color:#029BFF"/>
		<stop  offset="0.61" style="stop-color:#00A4FF"/>
		<stop  offset="0.66" style="stop-color:#00ACCE"/>
		<stop  offset="0.72" style="stop-color:#00B590"/>
		<stop  offset="0.79" style="stop-color:#00BD5D"/>
		<stop  offset="0.84" style="stop-color:#00C434"/>
		<stop  offset="0.9" style="stop-color:#00C818"/>
		<stop  offset="0.95" style="stop-color:#00CB06"/>
		<stop  offset="0.98" style="stop-color:#00CC00"/>
	</linearGradient>
	<path class="st0" d="M27.9,0H11.3v11.9h16.6V0z M13.1,10V1.8h13V10L13.1,10z M29.6,14.8h-20v-1.8h20V14.8z M21.3,31.2h16.6V19.4
		H21.3V31.2z M36.1,21.2v8.2h-13v-8.2L36.1,21.2z M39.1,32.4v1.8H20v-1.8L39.1,32.4z M17.9,19.4H1.3v11.9h16.7V19.4z M3.1,29.4v-8.2
		h13v8.2L3.1,29.4z M0,32.4h19v1.8H0L0,32.4z M20.7,19.3l-1.2-1.2l-1.2,1.2l-0.7-0.7l1.4-1.4v-1.9h1v1.9l0.2,0.2l0,0l1.2,1.2
		L20.7,19.3z"/>
</g>
</svg>
