<?xml version="1.0" encoding="utf-8"?>
<!-- Generator: Adobe Illustrator 26.4.1, SVG Export Plug-In . SVG Version: 6.00 Build 0)  -->
<svg version="1.1" id="Layer_1" xmlns="http://www.w3.org/2000/svg" xmlns:xlink="http://www.w3.org/1999/xlink" x="0px" y="0px"
	 viewBox="0 0 32.2 22.5" style="enable-background:new 0 0 32.2 22.5;" xml:space="preserve">
<style type="text/css">
	.st0{fill:url(#SVGID_1_);}
</style>
<g id="Layer_1_00000036931195925176246030000014713629997027319467_">
	
		<linearGradient id="SVGID_1_" gradientUnits="userSpaceOnUse" x1="3.7875" y1="-1.0175" x2="28.7475" y2="23.9425" gradientTransform="matrix(1 0 0 -1 0 25.22)">
		<stop  offset="0.1" style="stop-color:#2814FF"/>
		<stop  offset="0.14" style="stop-color:#2324FF"/>
		<stop  offset="0.3" style="stop-color:#145BFF"/>
		<stop  offset="0.43" style="stop-color:#0983FF"/>
		<stop  offset="0.54" style="stop-color:#029BFF"/>
		<stop  offset="0.61" style="stop-color:#00A4FF"/>
		<stop  offset="0.66" style="stop-color:#00ACCE"/>
		<stop  offset="0.72" style="stop-color:#00B590"/>
		<stop  offset="0.79" style="stop-color:#00BD5D"/>
		<stop  offset="0.84" style="stop-color:#00C434"/>
		<stop  offset="0.9" style="stop-color:#00C818"/>
		<stop  offset="0.95" style="stop-color:#00CB06"/>
		<stop  offset="0.98" style="stop-color:#00CC00"/>
	</linearGradient>
	<path class="st0" d="M29,12.1v-0.4c0-0.8-0.6-1.4-1.4-1.4c-0.8,0-1.4,0.6-1.4,1.4l0,0v0.4h-0.3v2.8h3.4v-2.8H29z M27.6,11.1
		c0.2,0,0.3,0.1,0.4,0.2c0.1,0.1,0.2,0.3,0.2,0.4v0.4H27v-0.4C27,11.4,27.2,11.1,27.6,11.1z M19.2,4.2c0-0.4-0.2-0.8-0.4-1.1
		c-0.3-0.3-0.7-0.4-1-0.4c-0.8,0-1.5,0.7-1.5,1.5c0,0,0,0,0,0v0.4H16v2.9h3.5V4.6h-0.3V4.2z M17.1,4.6V4.2c0-0.3,0.3-0.6,0.6-0.6
		c0.2,0,0.3,0.1,0.4,0.2c0.1,0.1,0.2,0.3,0.2,0.4v0.4H17.1z M10.8,13c0-0.8-0.6-1.5-1.5-1.5c0,0,0,0,0,0c-0.8,0-1.5,0.7-1.5,1.5v0.4
		H7.5v2.9H11v-2.9h-0.3L10.8,13z M9.3,12.4c0.2,0,0.3,0.1,0.4,0.2c0.1,0.1,0.2,0.3,0.2,0.4v0.4H8.7V13C8.7,12.7,8.9,12.4,9.3,12.4
		L9.3,12.4z M0,20.4h18.4v2.1H0L0,20.4z M27.4,5.7V0H8.1v8.4H1.5v11.2h15.6v-3.1h5.7v-2h-1.6v-0.7h1.8v6h9.3v-14H27.4z M10,8.4V1.9
		h15.6v3.9h-2.6v6.1h-5.9V8.4H10z M24.8,17.5V7.6h5.5v9.9L24.8,17.5z M3.4,17.7v-7.4h11.8v7.4L3.4,17.7z"/>
</g>
</svg>
