<?xml version="1.0" encoding="utf-8"?>
<!-- Generator: Adobe Illustrator 26.4.1, SVG Export Plug-In . SVG Version: 6.00 Build 0)  -->
<svg version="1.1" id="Layer_1" xmlns="http://www.w3.org/2000/svg" xmlns:xlink="http://www.w3.org/1999/xlink" x="0px" y="0px"
	 viewBox="0 0 31.8 17.7" style="enable-background:new 0 0 31.8 17.7;" xml:space="preserve">
<style type="text/css">
	.st0{fill:url(#SVGID_1_);}
</style>
<g id="Layer_1_00000163070590830454163920000015139247630703246215_">
	
		<linearGradient id="SVGID_1_" gradientUnits="userSpaceOnUse" x1="5.2475" y1="5.3125" x2="26.5825" y2="26.6475" gradientTransform="matrix(1 0 0 -1 0 21.4)">
		<stop  offset="0.1" style="stop-color:#2814FF"/>
		<stop  offset="0.14" style="stop-color:#2324FF"/>
		<stop  offset="0.3" style="stop-color:#145BFF"/>
		<stop  offset="0.43" style="stop-color:#0983FF"/>
		<stop  offset="0.54" style="stop-color:#029BFF"/>
		<stop  offset="0.61" style="stop-color:#00A4FF"/>
		<stop  offset="0.66" style="stop-color:#00ACCE"/>
		<stop  offset="0.72" style="stop-color:#00B590"/>
		<stop  offset="0.79" style="stop-color:#00BD5D"/>
		<stop  offset="0.84" style="stop-color:#00C434"/>
		<stop  offset="0.9" style="stop-color:#00C818"/>
		<stop  offset="0.95" style="stop-color:#00CB06"/>
		<stop  offset="0.98" style="stop-color:#00CC00"/>
	</linearGradient>
	<path class="st0" d="M31.8,0H0v10.8h10.8c-0.8,2.8,0.8,5.8,3.6,6.6c2.8,0.8,5.8-0.8,6.6-3.6c0.3-1,0.3-2,0-3h10.8V0z M29.5,2.3v6.2
		h-9.9c-2.1-2.1-5.4-2.1-7.5,0H2.3V2.3H29.5z M15.9,15.3c-1.7,0-3-1.3-3-3s1.3-3,3-3s3,1.3,3,3C18.9,14,17.6,15.3,15.9,15.3
		C15.9,15.3,15.9,15.3,15.9,15.3L15.9,15.3z M17.2,11.7c0,0.4-0.2,0.8-0.6,1v1.8h-1.4v-1.8c-0.4-0.2-0.6-0.6-0.6-1
		c-0.1-0.7,0.5-1.4,1.2-1.4c0.7-0.1,1.4,0.5,1.4,1.2C17.2,11.5,17.2,11.6,17.2,11.7z M7.6,5.1l-1,0.3l0.6,0.9L6.4,7L5.7,6.1L5.1,7
		L4.2,6.3l0.6-0.9l-1-0.3L4.1,4l1,0.3V3.2h1.1v1.1l1-0.3L7.6,5.1z M12.8,5.1l-1,0.3l0.6,0.9L11.5,7l-0.6-0.9L10.2,7l-1-0.7l0.6-0.9
		l-1-0.3L9.2,4l1,0.3V3.2h1.1v1.1l1-0.3L12.8,5.1z M27,5.4l0.6,0.9L26.8,7l-0.6-0.9L25.5,7l-0.9-0.7l0.6-0.9l-1-0.3L24.6,4l1,0.3
		V3.2h1.1v1.1l1-0.3l0.4,1.1L27,5.4z M23,5.1l-1,0.3l0.6,0.9L21.7,7L21,6.1L20.4,7l-0.9-0.7l0.6-0.9l-1-0.3L19.5,4l1,0.3V3.2h1.2
		v1.1l1-0.3L23,5.1z M17.9,5.1l-1,0.3l0.6,0.9L16.6,7l-0.6-0.9L15.3,7l-0.9-0.7L15,5.4l-1-0.3L14.4,4l1,0.3V3.2h1.2v1.1l1-0.3
		L17.9,5.1z"/>
</g>
</svg>
