<?xml version="1.0" encoding="utf-8"?>
<!-- Generator: Adobe Illustrator 26.4.1, SVG Export Plug-In . SVG Version: 6.00 Build 0)  -->
<svg version="1.1" id="Layer_1" xmlns="http://www.w3.org/2000/svg" xmlns:xlink="http://www.w3.org/1999/xlink" x="0px" y="0px"
	 viewBox="0 0 27.6 22.1" style="enable-background:new 0 0 27.6 22.1;" xml:space="preserve">
<style type="text/css">
	.st0{fill:url(#SVGID_1_);}
</style>
<g id="Layer_1_00000178200052520133025170000003327949099767818650_">
	
		<linearGradient id="SVGID_1_" gradientUnits="userSpaceOnUse" x1="2.99" y1="743.86" x2="24.74" y2="722.11" gradientTransform="matrix(1 0 0 1 0 -722)">
		<stop  offset="0.1" style="stop-color:#2814FF"/>
		<stop  offset="0.14" style="stop-color:#2324FF"/>
		<stop  offset="0.3" style="stop-color:#145BFF"/>
		<stop  offset="0.43" style="stop-color:#0983FF"/>
		<stop  offset="0.54" style="stop-color:#029BFF"/>
		<stop  offset="0.61" style="stop-color:#00A4FF"/>
		<stop  offset="0.66" style="stop-color:#00ACCE"/>
		<stop  offset="0.72" style="stop-color:#00B590"/>
		<stop  offset="0.79" style="stop-color:#00BD5D"/>
		<stop  offset="0.84" style="stop-color:#00C434"/>
		<stop  offset="0.9" style="stop-color:#00C818"/>
		<stop  offset="0.95" style="stop-color:#00CB06"/>
		<stop  offset="0.98" style="stop-color:#00CC00"/>
	</linearGradient>
	<path class="st0" d="M23.4,16.1v1.4h-16v-1.4H23.4z M27.6,3.1v19H3.1v-19C3.1,3.1,27.6,3.1,27.6,3.1z M25.4,19.8V5.3h-20v14.5H25.4
		z M23.9,0H0v18.4h2.2V2.2h21.7C23.9,2.2,23.9,0,23.9,0z M23.3,7.3h-7v1.9h7V7.3z M23.3,10.2h-7v1.9h7V10.2z M16.3,13v1.9h7V13H16.3
		z M7.4,14.9h7V7.3h-7L7.4,14.9z"/>
</g>
</svg>
