<?xml version="1.0" encoding="utf-8"?>
<!-- Generator: Adobe Illustrator 26.4.1, SVG Export Plug-In . SVG Version: 6.00 Build 0)  -->
<svg version="1.1" id="Layer_1" xmlns="http://www.w3.org/2000/svg" xmlns:xlink="http://www.w3.org/1999/xlink" x="0px" y="0px"
	 viewBox="0 0 26.6 22.8" style="enable-background:new 0 0 26.6 22.8;" xml:space="preserve">
<style type="text/css">
	.st0{fill:url(#SVGID_1_);}
</style>
<linearGradient id="SVGID_1_" gradientUnits="userSpaceOnUse" x1="0.95" y1="1.85" x2="25.6148" y2="26.5148" gradientTransform="matrix(1 0 0 -1 0 25.6)">
	<stop  offset="0.1" style="stop-color:#2814FF"/>
	<stop  offset="0.1435" style="stop-color:#2324FF"/>
	<stop  offset="0.2998" style="stop-color:#145BFF"/>
	<stop  offset="0.4347" style="stop-color:#0983FF"/>
	<stop  offset="0.5417" style="stop-color:#029BFF"/>
	<stop  offset="0.6072" style="stop-color:#00A4FF"/>
	<stop  offset="0.6551" style="stop-color:#00ACCE"/>
	<stop  offset="0.7216" style="stop-color:#00B590"/>
	<stop  offset="0.7855" style="stop-color:#00BD5D"/>
	<stop  offset="0.8449" style="stop-color:#00C434"/>
	<stop  offset="0.8989" style="stop-color:#00C818"/>
	<stop  offset="0.9457" style="stop-color:#00CB06"/>
	<stop  offset="0.98" style="stop-color:#00CC00"/>
</linearGradient>
<path class="st0" d="M10.6,0v22.8h16V0H10.6z M12.8,20.5V2.3h11.4v18.2H12.8z M0,22.8h9.1V0H0V22.8z M6.9,2.3v18.2H2.3V2.3H6.9z
	 M13.6,3.5v5.1h9.9V3.5C23.5,3.5,13.6,3.5,13.6,3.5z M15.4,6.8V5.3h6.3v1.5H15.4z M14.8,12h2v2h-2V12z M17.6,16.7h2v2h-2V16.7z
	 M17.6,14.4h2v2h-2V14.4z M14.8,16.7h2v2h-2V16.7z M14.8,14.4h2v2h-2V14.4z M14.8,9.7h2v2h-2V9.7z M20.3,14.4h2v2h-2V14.4z M20.3,12
	h2v2h-2V12z M20.3,9.7h2v2h-2V9.7z M17.6,9.7h2v2h-2V9.7z M17.6,12h2v2h-2V12z M20.3,16.7h2v2h-2V16.7z"/>
</svg>
