<?xml version="1.0" encoding="utf-8"?>
<!-- Generator: Adobe Illustrator 26.4.1, SVG Export Plug-In . SVG Version: 6.00 Build 0)  -->
<svg version="1.1" id="Layer_1" xmlns="http://www.w3.org/2000/svg" xmlns:xlink="http://www.w3.org/1999/xlink" x="0px" y="0px"
	 viewBox="0 0 26.7 26.7" style="enable-background:new 0 0 26.7 26.7;" xml:space="preserve">
<style type="text/css">
	.st0{fill:url(#SVGID_1_);}
</style>
<g id="Layer_1_00000084499493335289414090000006275818126289557400_">
	
		<linearGradient id="SVGID_1_" gradientUnits="userSpaceOnUse" x1="3.9077" y1="6.7126" x2="22.7925" y2="25.5874" gradientTransform="matrix(1 0 0 -1 0 29.5)">
		<stop  offset="0.1" style="stop-color:#2814FF"/>
		<stop  offset="0.14" style="stop-color:#2324FF"/>
		<stop  offset="0.3" style="stop-color:#145BFF"/>
		<stop  offset="0.43" style="stop-color:#0983FF"/>
		<stop  offset="0.54" style="stop-color:#029BFF"/>
		<stop  offset="0.61" style="stop-color:#00A4FF"/>
		<stop  offset="0.66" style="stop-color:#00ACCE"/>
		<stop  offset="0.72" style="stop-color:#00B590"/>
		<stop  offset="0.79" style="stop-color:#00BD5D"/>
		<stop  offset="0.84" style="stop-color:#00C434"/>
		<stop  offset="0.9" style="stop-color:#00C818"/>
		<stop  offset="0.95" style="stop-color:#00CB06"/>
		<stop  offset="0.98" style="stop-color:#00CC00"/>
	</linearGradient>
	<path class="st0" d="M22.8,3.9c-5.2-5.2-13.7-5.2-18.9,0s-5.2,13.7,0,18.9c5.2,5.2,13.7,5.2,18.9,0C28,17.6,28,9.2,22.8,3.9
		C22.8,4,22.8,3.9,22.8,3.9z M13.3,24.4c-6.1,0-11.1-5-11.1-11.1c0-6.1,5-11.1,11.1-11.1s11.1,5,11.1,11.1c0,2.9-1.2,5.7-3.2,7.8
		C19.1,23.2,16.3,24.4,13.3,24.4z M12.1,5.3h2.3V14l-5.6,3.3l-1.2-2l4.4-2.6V5.3z"/>
</g>
</svg>
