<?xml version="1.0" encoding="utf-8"?>
<!-- Generator: Adobe Illustrator 26.4.1, SVG Export Plug-In . SVG Version: 6.00 Build 0)  -->
<svg version="1.1" id="Layer_1" xmlns="http://www.w3.org/2000/svg" xmlns:xlink="http://www.w3.org/1999/xlink" x="0px" y="0px"
	 viewBox="0 0 14.2 14.2" style="enable-background:new 0 0 14.2 14.2;" xml:space="preserve">
<style type="text/css">
	.st0{fill:url(#SVGID_1_);}
</style>
<g id="Layer_1_00000012449754599862184810000000911178718372918460_">
	
		<linearGradient id="SVGID_1_" gradientUnits="userSpaceOnUse" x1="2.0795" y1="4.8795" x2="12.1205" y2="14.9205" gradientTransform="matrix(1 0 0 -1 0 17)">
		<stop  offset="0.1" style="stop-color:#2814FF"/>
		<stop  offset="0.14" style="stop-color:#2324FF"/>
		<stop  offset="0.3" style="stop-color:#145BFF"/>
		<stop  offset="0.43" style="stop-color:#0983FF"/>
		<stop  offset="0.54" style="stop-color:#029BFF"/>
		<stop  offset="0.61" style="stop-color:#00A4FF"/>
		<stop  offset="0.66" style="stop-color:#00ACCE"/>
		<stop  offset="0.72" style="stop-color:#00B590"/>
		<stop  offset="0.79" style="stop-color:#00BD5D"/>
		<stop  offset="0.84" style="stop-color:#00C434"/>
		<stop  offset="0.9" style="stop-color:#00C818"/>
		<stop  offset="0.95" style="stop-color:#00CB06"/>
		<stop  offset="0.98" style="stop-color:#00CC00"/>
	</linearGradient>
	<path class="st0" d="M5.6,9.3L3.8,7.4l1.2-1.3l1.2,1.3l3.1-3.1l1.2,1.2L6.7,9.4L6.2,9.9l0,0L6.1,9.8L5.6,9.3z M0,7.1
		C0,3.2,3.2,0,7.1,0s7.1,3.2,7.1,7.1s-3.2,7.1-7.1,7.1S0,11,0,7.1L0,7.1z M7.1,12C9.8,12,12,9.8,12,7.1c0-2.7-2.2-4.9-4.9-4.9
		c-2.7,0-4.9,2.2-4.9,4.9S4.4,12,7.1,12L7.1,12z"/>
</g>
</svg>
