<?xml version="1.0" encoding="utf-8"?>
<!-- Generator: Adobe Illustrator 26.4.1, SVG Export Plug-In . SVG Version: 6.00 Build 0)  -->
<svg version="1.1" id="Layer_1" xmlns="http://www.w3.org/2000/svg" xmlns:xlink="http://www.w3.org/1999/xlink" x="0px" y="0px"
	 viewBox="0 0 14.2 14.2" style="enable-background:new 0 0 14.2 14.2;" xml:space="preserve">
<style type="text/css">
	.st0{fill:url(#SVGID_1_);}
</style>
<g id="Layer_1_00000180340762190360426470000014196272387466961563_">
	
		<linearGradient id="SVGID_1_" gradientUnits="userSpaceOnUse" x1="2.077" y1="4.882" x2="12.12" y2="14.915" gradientTransform="matrix(1 0 0 -1 0 17)">
		<stop  offset="0.1" style="stop-color:#2814FF"/>
		<stop  offset="0.14" style="stop-color:#2324FF"/>
		<stop  offset="0.3" style="stop-color:#145BFF"/>
		<stop  offset="0.43" style="stop-color:#0983FF"/>
		<stop  offset="0.54" style="stop-color:#029BFF"/>
		<stop  offset="0.61" style="stop-color:#00A4FF"/>
		<stop  offset="0.66" style="stop-color:#00ACCE"/>
		<stop  offset="0.72" style="stop-color:#00B590"/>
		<stop  offset="0.79" style="stop-color:#00BD5D"/>
		<stop  offset="0.84" style="stop-color:#00C434"/>
		<stop  offset="0.9" style="stop-color:#00C818"/>
		<stop  offset="0.95" style="stop-color:#00CB06"/>
		<stop  offset="0.98" style="stop-color:#00CC00"/>
	</linearGradient>
	<path class="st0" d="M7.1,0C3.2,0,0,3.2,0,7.1c0,3.9,3.2,7.1,7.1,7.1c3.9,0,7.1-3.2,7.1-7.1C14.2,3.2,11,0,7.1,0z M11.8,7.1
		c0,2.6-2.1,4.7-4.7,4.7S2.4,9.7,2.4,7.1s2.1-4.7,4.7-4.7l0,0c2.5-0.1,4.6,1.9,4.7,4.4C11.8,6.9,11.8,7,11.8,7.1z M10.1,5.4L8.4,7.1
		l1.8,1.7L9,10.1L7.1,8.3l-1.8,1.8L4.1,8.8l1.8-1.7L4.1,5.4l1.2-1.3l1.8,1.8l1.8-1.8L10.1,5.4z"/>
</g>
</svg>
