<?xml version="1.0" encoding="utf-8"?>
<!-- Generator: Adobe Illustrator 26.4.1, SVG Export Plug-In . SVG Version: 6.00 Build 0)  -->
<svg version="1.1" id="Layer_1" xmlns="http://www.w3.org/2000/svg" xmlns:xlink="http://www.w3.org/1999/xlink" x="0px" y="0px"
	 viewBox="0 0 31 25.6" style="enable-background:new 0 0 31 25.6;" xml:space="preserve">
<style type="text/css">
	.st0{fill:url(#SVGID_1_);}
</style>
<g id="Layer_1_00000043449965014376690160000010375395778344329389_">
	
		<linearGradient id="SVGID_1_" gradientUnits="userSpaceOnUse" x1="1.3702" y1="-1.2798" x2="29.6698" y2="27.0298" gradientTransform="matrix(1 0 0 -1 0 25.68)">
		<stop  offset="0.1" style="stop-color:#2814FF"/>
		<stop  offset="0.14" style="stop-color:#2324FF"/>
		<stop  offset="0.3" style="stop-color:#145BFF"/>
		<stop  offset="0.43" style="stop-color:#0983FF"/>
		<stop  offset="0.54" style="stop-color:#029BFF"/>
		<stop  offset="0.61" style="stop-color:#00A4FF"/>
		<stop  offset="0.66" style="stop-color:#00ACCE"/>
		<stop  offset="0.72" style="stop-color:#00B590"/>
		<stop  offset="0.79" style="stop-color:#00BD5D"/>
		<stop  offset="0.84" style="stop-color:#00C434"/>
		<stop  offset="0.9" style="stop-color:#00C818"/>
		<stop  offset="0.95" style="stop-color:#00CB06"/>
		<stop  offset="0.98" style="stop-color:#00CC00"/>
	</linearGradient>
	<path class="st0" d="M10.9,25.6h9.3V0h-9.3V25.6z M18,2.2v21.2h-4.9V2.2H18z M0,25.6h9.3V0H0L0,25.6z M7.1,2.2v21.2H2.2V2.2H7.1z
		 M21.7,0v25.6H31V0H21.7z M23.9,23.4V2.2h4.9v21.2L23.9,23.4z M16.9,21.7c0,0.7-0.6,1.3-1.3,1.3s-1.3-0.6-1.3-1.3
		c0-0.7,0.6-1.3,1.3-1.3S16.9,21,16.9,21.7L16.9,21.7z M6.6,9.1H2.8V7.5h3.8L6.6,9.1z M17.4,12.2h-3.8v-1.6h3.8V12.2z M6.6,12.2H2.8
		v-1.6h3.8L6.6,12.2z M5.9,21.7c0,0.7-0.6,1.3-1.3,1.3s-1.3-0.6-1.3-1.3c0-0.7,0.6-1.3,1.3-1.3S5.9,21,5.9,21.7L5.9,21.7z M6.6,5.9
		H2.8V4.3h3.8L6.6,5.9z M24.6,10.6h3.8v1.6h-3.8L24.6,10.6z M24.6,7.5h3.8v1.6h-3.8L24.6,7.5z M24.6,4.3h3.8v1.6h-3.8L24.6,4.3z
		 M17.5,5.9h-3.8V4.3h3.8L17.5,5.9z M17.5,9.1h-3.8V7.5h3.8L17.5,9.1z M27.7,21.7c0,0.7-0.6,1.3-1.3,1.3c-0.7,0-1.3-0.6-1.3-1.3
		c0-0.7,0.6-1.3,1.3-1.3C27.1,20.4,27.7,21,27.7,21.7z"/>
</g>
</svg>
