<?xml version="1.0" encoding="utf-8"?>
<!-- Generator: Adobe Illustrator 26.4.1, SVG Export Plug-In . SVG Version: 6.00 Build 0)  -->
<svg version="1.1" id="Layer_1" xmlns="http://www.w3.org/2000/svg" xmlns:xlink="http://www.w3.org/1999/xlink" x="0px" y="0px"
	 viewBox="0 0 22.1 22.1" style="enable-background:new 0 0 22.1 22.1;" xml:space="preserve">
<style type="text/css">
	.st0{fill:url(#SVGID_1_);}
</style>
<g id="Layer_1_00000165215976682788170730000004675181220101372560_">
	
		<linearGradient id="SVGID_1_" gradientUnits="userSpaceOnUse" x1="3.2423" y1="5.8623" x2="18.8977" y2="21.5177" gradientTransform="matrix(1 0 0 -1 0 24.76)">
		<stop  offset="0.1" style="stop-color:#2814FF"/>
		<stop  offset="0.14" style="stop-color:#2324FF"/>
		<stop  offset="0.3" style="stop-color:#145BFF"/>
		<stop  offset="0.43" style="stop-color:#0983FF"/>
		<stop  offset="0.54" style="stop-color:#029BFF"/>
		<stop  offset="0.61" style="stop-color:#00A4FF"/>
		<stop  offset="0.66" style="stop-color:#00ACCE"/>
		<stop  offset="0.72" style="stop-color:#00B590"/>
		<stop  offset="0.79" style="stop-color:#00BD5D"/>
		<stop  offset="0.84" style="stop-color:#00C434"/>
		<stop  offset="0.9" style="stop-color:#00C818"/>
		<stop  offset="0.95" style="stop-color:#00CB06"/>
		<stop  offset="0.98" style="stop-color:#00CC00"/>
	</linearGradient>
	<path class="st0" d="M22.1,11.1c0,6.1-4.9,11.1-11.1,11.1S0,17.2,0,11.1C0,5,4.9,0,11.1,0c0,0,0,0,0,0C17.2,0,22.1,5,22.1,11.1z
		 M11.1,2.2c-4.9,0-8.9,4-8.9,8.9s4,8.9,8.9,8.9s8.9-4,8.9-8.9S16,2.2,11.1,2.2L11.1,2.2z M17.1,11.1c0,3.3-2.7,6-6,6s-6-2.7-6-6
		s2.7-6,6-6C14.4,5.1,17.1,7.8,17.1,11.1L17.1,11.1z M11.1,7.2c-2.1,0-3.8,1.7-3.8,3.8s1.7,3.8,3.8,3.8c2.1,0,3.8-1.7,3.8-3.8
		C14.9,8.9,13.2,7.2,11.1,7.2C11.1,7.2,11.1,7.2,11.1,7.2z M11.1,9.4c-0.9,0-1.7,0.8-1.7,1.7c0,0.9,0.8,1.7,1.7,1.7
		c0.9,0,1.7-0.8,1.7-1.7c0,0,0,0,0,0C12.8,10.1,12,9.4,11.1,9.4C11.1,9.4,11.1,9.4,11.1,9.4L11.1,9.4z"/>
</g>
</svg>
