<?xml version="1.0" encoding="utf-8"?>
<!-- Generator: Adobe Illustrator 26.4.1, SVG Export Plug-In . SVG Version: 6.00 Build 0)  -->
<svg version="1.1" id="Layer_1" xmlns="http://www.w3.org/2000/svg" xmlns:xlink="http://www.w3.org/1999/xlink" x="0px" y="0px"
	 viewBox="0 0 25.6 26.9" style="enable-background:new 0 0 25.6 26.9;" xml:space="preserve">
<style type="text/css">
	.st0{fill:url(#SVGID_1_);}
</style>
<g id="Layer_1_00000161595553605352301960000003720602869462113946_">
	
		<linearGradient id="SVGID_1_" gradientUnits="userSpaceOnUse" x1="1.6075" y1="4.6725" x2="21.9075" y2="24.9725" gradientTransform="matrix(1 0 0 -1 0 29.72)">
		<stop  offset="0.1" style="stop-color:#2814FF"/>
		<stop  offset="0.14" style="stop-color:#2324FF"/>
		<stop  offset="0.3" style="stop-color:#145BFF"/>
		<stop  offset="0.43" style="stop-color:#0983FF"/>
		<stop  offset="0.54" style="stop-color:#029BFF"/>
		<stop  offset="0.61" style="stop-color:#00A4FF"/>
		<stop  offset="0.66" style="stop-color:#00ACCE"/>
		<stop  offset="0.72" style="stop-color:#00B590"/>
		<stop  offset="0.79" style="stop-color:#00BD5D"/>
		<stop  offset="0.84" style="stop-color:#00C434"/>
		<stop  offset="0.9" style="stop-color:#00C818"/>
		<stop  offset="0.95" style="stop-color:#00CB06"/>
		<stop  offset="0.98" style="stop-color:#00CC00"/>
	</linearGradient>
	<path class="st0" d="M17.7,22.9V24H7.8v-1.2H17.7z M7.8,20.6v1.2h9.9v-1.2H7.8z M22,13c-0.5,0-0.9,0.4-0.9,0.9s0.4,0.9,0.9,0.9
		s0.9-0.4,0.9-0.9c0,0,0,0,0,0C22.9,13.4,22.5,13,22,13z M25.6,10.2v13.2h-4.3v3.4H4.3v-3.4H0V10.2h4.3V0h11.2l5.7,4.1v6.1H25.6z
		 M14.3,5.6V2.3H6.7v7.9h12.2V5.6L14.3,5.6z M21.2,17.6v3.5h2v-8.6h-21v8.6h2v-3.5H21.2z M18.9,24.6v-4.7H6.6v4.7L18.9,24.6z"/>
</g>
</svg>
