<?xml version="1.0" encoding="utf-8"?>
<!-- Generator: Adobe Illustrator 26.4.1, SVG Export Plug-In . SVG Version: 6.00 Build 0)  -->
<svg version="1.1" id="Layer_1" xmlns="http://www.w3.org/2000/svg" xmlns:xlink="http://www.w3.org/1999/xlink" x="0px" y="0px"
	 viewBox="0 0 26.7 26.7" style="enable-background:new 0 0 26.7 26.7;" xml:space="preserve">
<style type="text/css">
	.st0{fill:url(#SVGID_1_);}
</style>
<g id="Layer_1_00000078047054529843887190000014810688993409452672_">
	
		<linearGradient id="SVGID_1_" gradientUnits="userSpaceOnUse" x1="3.9126" y1="6.7876" x2="22.7874" y2="25.6724" gradientTransform="matrix(1 0 0 -1 0 29.58)">
		<stop  offset="0.1" style="stop-color:#2814FF;stop-opacity:0.9"/>
		<stop  offset="0.15" style="stop-color:#2326FF;stop-opacity:0.91"/>
		<stop  offset="0.3" style="stop-color:#145CFF;stop-opacity:0.95"/>
		<stop  offset="0.44" style="stop-color:#0983FF;stop-opacity:0.98"/>
		<stop  offset="0.54" style="stop-color:#029BFF;stop-opacity:0.99"/>
		<stop  offset="0.61" style="stop-color:#00A4FF"/>
		<stop  offset="0.66" style="stop-color:#00ACCE"/>
		<stop  offset="0.72" style="stop-color:#00B590"/>
		<stop  offset="0.79" style="stop-color:#00BD5D"/>
		<stop  offset="0.84" style="stop-color:#00C434"/>
		<stop  offset="0.9" style="stop-color:#00C818"/>
		<stop  offset="0.95" style="stop-color:#00CB06"/>
		<stop  offset="0.98" style="stop-color:#00CC00"/>
	</linearGradient>
	<path class="st0" d="M22.8,3.9c-5.2-5.2-13.7-5.2-18.9,0s-5.2,13.7,0,18.9c5.2,5.2,13.7,5.2,18.9,0C28,17.6,28,9.1,22.8,3.9z
		 M21.2,21.2c-4.3,4.3-11.3,4.3-15.6,0S1.3,9.8,5.6,5.5c4.3-4.3,11.3-4.3,15.6,0C25.5,9.8,25.5,16.9,21.2,21.2z M8.2,18.4h12.1v1.9
		h-14v-14h1.9V14l2.1-2.1l1.8,1.9l3.5-3.5h-1.3V8.3h4.5V13H17v-1.3l-4.8,4.8l-1.9-1.9l-2.1,2.1L8.2,18.4z"/>
</g>
</svg>
