<?xml version="1.0" encoding="utf-8"?>
<!-- Generator: Adobe Illustrator 26.4.1, SVG Export Plug-In . SVG Version: 6.00 Build 0)  -->
<svg version="1.1" id="Layer_1" xmlns="http://www.w3.org/2000/svg" xmlns:xlink="http://www.w3.org/1999/xlink" x="0px" y="0px"
	 viewBox="0 0 31.6 25.4" style="enable-background:new 0 0 31.6 25.4;" xml:space="preserve">
<style type="text/css">
	.st0{fill:url(#SVGID_1_);}
</style>
<g id="Layer_1_00000145749942774575979940000012761211267291116702_">
	
		<linearGradient id="SVGID_1_" gradientUnits="userSpaceOnUse" x1="9.8416" y1="6.6733" x2="27.4916" y2="24.3233" gradientTransform="matrix(1 0 0 -1 0 28.3031)">
		<stop  offset="0.1" style="stop-color:#2814FF"/>
		<stop  offset="0.14" style="stop-color:#2324FF"/>
		<stop  offset="0.3" style="stop-color:#145BFF"/>
		<stop  offset="0.43" style="stop-color:#0983FF"/>
		<stop  offset="0.54" style="stop-color:#029BFF"/>
		<stop  offset="0.61" style="stop-color:#00A4FF"/>
		<stop  offset="0.66" style="stop-color:#00ACCE"/>
		<stop  offset="0.72" style="stop-color:#00B590"/>
		<stop  offset="0.79" style="stop-color:#00BD5D"/>
		<stop  offset="0.84" style="stop-color:#00C434"/>
		<stop  offset="0.9" style="stop-color:#00C818"/>
		<stop  offset="0.95" style="stop-color:#00CB06"/>
		<stop  offset="0.98" style="stop-color:#00CC00"/>
	</linearGradient>
	<path class="st0" d="M27.4,10.1l1.2,1.2l-0.8,0.8l-1.2-1.2l-1.3,1.3l-0.8-0.8l1.2-1.2l-1.2-1.2L25.4,8l1.3,1.2L27.9,8l0.8,0.8
		L27.4,10.1z M4.6,10.5L3.7,9.6l-0.8,0.8l1.9,1.8l2.6-3.6L6.4,8L4.6,10.5z M20.4,12.6l0,0.1l-0.1-0.1l-0.2-0.1l0,0
		c-0.1,0-0.2-0.1-0.1-0.2c0.1-0.3,0.1-0.5,0-0.8c-0.2-0.7-0.8-1.3-1.5-1.4c0,0.1,0,0.2,0,0.2c0,1.1-0.6,2-1.6,2.4
		c0.5,0.8,1.6,1,2.3,0.5c0.1-0.1,0.2-0.1,0.2-0.2l0,0c0.1-0.1,0.2-0.1,0.2-0.1c0,0,0,0,0,0l0.4,0.2l-0.1,0.1c-0.5,0.6-1.2,1-1.9,1.1
		c-0.6,0.1-1.2,0-1.7-0.3c-0.2-0.1-0.3-0.2-0.5-0.3l0,0l-0.2,0.1c-0.5,0.3-1.1,0.5-1.7,0.5c-0.9,0-1.7-0.4-2.3-1.1l-0.1-0.1l0.4-0.2
		c0.1,0,0.2,0,0.2,0.1c0.2,0.2,0.4,0.3,0.7,0.4c0.5,0.1,1,0.1,1.4-0.2c0.2-0.1,0.3-0.3,0.4-0.4c-1-0.4-1.7-1.4-1.6-2.5
		c0-0.1,0-0.1,0-0.2c-0.9,0.1-1.5,0.9-1.5,1.8c0,0.1,0,0.2,0,0.4l0,0c0,0.1,0,0.2-0.1,0.2l-0.4,0.2l-0.1-0.1
		c-0.3-0.8-0.3-1.6,0.1-2.4c0.3-0.5,0.7-0.9,1.2-1.2c0.1-0.1,0.2-0.1,0.3-0.1H13c0-0.2,0-0.3,0-0.5c0-0.3,0-0.6,0.1-0.9
		c0.3-1.1,1.2-1.8,2.4-2h0.1v0.4c0,0.1,0,0.2-0.1,0.2c-0.2,0.1-0.5,0.2-0.7,0.4c-0.5,0.5-0.7,1.2-0.5,1.8c0.5-0.3,1-0.5,1.6-0.5
		c0.6,0,1.1,0.2,1.6,0.5c0.1-0.1,0.1-0.3,0.1-0.5c0.1-0.5-0.1-1-0.5-1.4c-0.2-0.2-0.4-0.3-0.7-0.4c-0.1,0-0.2-0.1-0.2-0.2V5.4h0.1
		c1.3,0.2,2.3,1.2,2.4,2.5c0,0.2,0,0.5,0,0.8c0,0,0,0.1,0,0.1h0.1C18.9,8.8,19,8.9,19.1,9C20.4,9.7,20.9,11.2,20.4,12.6z M16.5,11.9
		c0.6-0.3,0.9-0.9,1-1.5c0,0,0-0.1,0-0.1l-0.1,0c-0.2,0.1-0.3,0.2-0.4,0.4l-0.1,0.1c-0.1,0.1-0.1,0.2-0.2,0.3
		c-0.1,0.1-0.1,0.3-0.1,0.4C16.6,11.6,16.5,11.8,16.5,11.9z M14.9,9.1c0.6,0.4,1.4,0.4,2,0C16.2,8.7,15.4,8.7,14.9,9.1z M15,11.1
		c0-0.1-0.1-0.2-0.1-0.2l-0.2-0.2c-0.1-0.1-0.3-0.2-0.5-0.3v0.1c0,0.7,0.4,1.3,1,1.5C15.2,11.7,15.1,11.4,15,11.1L15,11.1z M24,16.2
		l7.4,7.4l-1.8,1.8L22.1,18c-4.3,3.4-10.6,2.7-14-1.7c-0.4-0.5-0.8-1.1-1.1-1.7C6.4,14.8,5.8,15,5.2,15c-2.7,0.2-5-1.9-5.2-4.6
		c-0.2-2.7,1.9-5,4.6-5.2c0.2,0,0.4,0,0.6,0c0.6,0,1.2,0.1,1.8,0.4c2.5-4.9,8.5-6.9,13.4-4.4c1.9,1,3.5,2.5,4.4,4.4
		c0.5-0.2,1.1-0.4,1.7-0.4c2.7,0,4.9,2.1,5,4.9s-2.1,4.9-4.9,5c-0.6,0-1.2-0.1-1.8-0.3C24.6,15.2,24.3,15.7,24,16.2L24,16.2z
		 M8.8,13.3c1.8,3.9,6.4,5.6,10.4,3.8c1.7-0.8,3.1-2.1,3.8-3.8c-1.7-1.9-1.7-4.8,0-6.6C21.2,2.8,16.5,1.1,12.6,3
		c-1.7,0.8-3,2.1-3.8,3.8C10.6,8.6,10.6,11.4,8.8,13.3L8.8,13.3z M29.5,10.1c0-1.6-1.3-2.9-2.9-2.9c-1.6,0-2.9,1.3-2.9,2.9
		S25,13,26.6,13S29.5,11.7,29.5,10.1L29.5,10.1z M2.3,10.1c0,1.6,1.3,2.9,2.9,2.9c1.6,0,2.9-1.3,2.9-2.9c0-1.6-1.3-2.9-2.9-2.9
		C3.6,7.1,2.3,8.4,2.3,10.1C2.3,10,2.3,10,2.3,10.1z"/>
</g>
</svg>
