<?xml version="1.0" encoding="utf-8"?>
<!-- Generator: Adobe Illustrator 26.4.1, SVG Export Plug-In . SVG Version: 6.00 Build 0)  -->
<svg version="1.1" id="Layer_1" xmlns="http://www.w3.org/2000/svg" xmlns:xlink="http://www.w3.org/1999/xlink" x="0px" y="0px"
	 viewBox="0 0 30.8 21.9" style="enable-background:new 0 0 30.8 21.9;" xml:space="preserve">
<style type="text/css">
	.st0{fill:url(#SVGID_1_);}
</style>
<g id="Layer_1_00000050625812530112416010000010848500195882757279_">
	
		<linearGradient id="SVGID_1_" gradientUnits="userSpaceOnUse" x1="4.1982" y1="1.6847" x2="26.4482" y2="23.9347" gradientTransform="matrix(1 0 0 -1 0 24.8857)">
		<stop  offset="0.1" style="stop-color:#2814FF"/>
		<stop  offset="0.14" style="stop-color:#2324FF"/>
		<stop  offset="0.3" style="stop-color:#145BFF"/>
		<stop  offset="0.43" style="stop-color:#0983FF"/>
		<stop  offset="0.54" style="stop-color:#029BFF"/>
		<stop  offset="0.61" style="stop-color:#00A4FF"/>
		<stop  offset="0.66" style="stop-color:#00ACCE"/>
		<stop  offset="0.72" style="stop-color:#00B590"/>
		<stop  offset="0.79" style="stop-color:#00BD5D"/>
		<stop  offset="0.84" style="stop-color:#00C434"/>
		<stop  offset="0.9" style="stop-color:#00C818"/>
		<stop  offset="0.95" style="stop-color:#00CB06"/>
		<stop  offset="0.98" style="stop-color:#00CC00"/>
	</linearGradient>
	<path class="st0" d="M30.7,12.2L30.7,12.2c-0.2-2.4-1.7-4.4-3.8-5.5c0.6-0.7,1-1.7,1-2.7c0-2.2-1.7-4-3.9-4.1S20,1.8,19.9,4
		c0,1,0.4,2,1.1,2.8c-0.7,0.3-1.3,0.8-1.9,1.4c-0.2-0.1-0.4-0.2-0.7-0.3c1.8-1.7,1.8-4.6,0.1-6.3S14-0.3,12.2,1.4S10.4,6,12.1,7.7
		c0,0,0.1,0.1,0.1,0.1C12,7.9,11.8,8,11.5,8.1c-0.5-0.5-1.2-1-1.9-1.3c0.6-0.7,1-1.7,1-2.7C10.7,1.9,9,0.1,6.8,0S2.8,1.6,2.7,3.9
		C2.6,4.9,3,6,3.8,6.8C1.6,7.8,0.2,9.9,0,12.3V19h7.5v2.9H23V19h7.7L30.7,12.2z M5,4.1c0-1,0.8-1.8,1.8-1.8c1,0,1.8,0.8,1.8,1.8
		c0,1-0.8,1.8-1.8,1.8C5.8,5.9,5,5.1,5,4.1C5,4.1,5,4.1,5,4.1z M15.4,6.9c-1.3,0-2.3-1-2.3-2.3c0-1.3,1-2.3,2.3-2.3
		c1.3,0,2.3,1,2.3,2.3c0,0,0,0,0,0C17.7,5.8,16.6,6.9,15.4,6.9z M24,5.9c-1,0-1.8-0.8-1.8-1.8c0-1,0.8-1.8,1.8-1.8
		c1,0,1.8,0.8,1.8,1.8c0,0,0,0,0,0C25.8,5.1,25,5.9,24,5.9L24,5.9z M20.9,16.8v2.9H9.8v-2.9H2.2v-4c0-2.5,2-4.6,4.5-4.6
		c1.5,0,2.9,0.7,3.8,2l0.6,0.9l0.8-0.6c2-1.5,4.8-1.5,6.8,0.1l0.9,0.7l0.6-0.9c1.4-2.1,4.2-2.6,6.3-1.2c1.3,0.8,2,2.3,2,3.8v4
		L20.9,16.8z"/>
</g>
</svg>
