<?xml version="1.0" encoding="utf-8"?>
<!-- Generator: Adobe Illustrator 26.4.1, SVG Export Plug-In . SVG Version: 6.00 Build 0)  -->
<svg version="1.1" id="Layer_1" xmlns="http://www.w3.org/2000/svg" xmlns:xlink="http://www.w3.org/1999/xlink" x="0px" y="0px"
	 viewBox="0 0 21.6 21.2" style="enable-background:new 0 0 21.6 21.2;" xml:space="preserve">
<style type="text/css">
	.st0{fill:url(#SVGID_1_);}
</style>
<g id="Layer_1_00000154414961543682782910000014735467254147101371_">
	
		<linearGradient id="SVGID_1_" gradientUnits="userSpaceOnUse" x1="4.85" y1="7.73" x2="19.36" y2="22.24" gradientTransform="matrix(1 0 0 -1 0 24.12)">
		<stop  offset="0.1" style="stop-color:#2814FF"/>
		<stop  offset="0.14" style="stop-color:#2324FF"/>
		<stop  offset="0.3" style="stop-color:#145BFF"/>
		<stop  offset="0.43" style="stop-color:#0983FF"/>
		<stop  offset="0.54" style="stop-color:#029BFF"/>
		<stop  offset="0.61" style="stop-color:#00A4FF"/>
		<stop  offset="0.66" style="stop-color:#00ACCE"/>
		<stop  offset="0.72" style="stop-color:#00B590"/>
		<stop  offset="0.79" style="stop-color:#00BD5D"/>
		<stop  offset="0.84" style="stop-color:#00C434"/>
		<stop  offset="0.9" style="stop-color:#00C818"/>
		<stop  offset="0.95" style="stop-color:#00CB06"/>
		<stop  offset="0.98" style="stop-color:#00CC00"/>
	</linearGradient>
	<path class="st0" d="M17.5,0l-7.4,1.5H10l-10,10l9.8,9.8l9.9-10l0.1-0.1l1.8-7.2L17.5,0z M9.8,18.2l-6.7-6.7l8-8l5.7-1.1l2.4,2.4
		l-1.3,5.4L9.8,18.2z M17.2,4.1c-0.9-0.9-2.4-0.9-3.4,0c-0.9,0.9-0.9,2.4,0,3.4c0.9,0.9,2.4,0.9,3.4,0C18.1,6.5,18.1,5,17.2,4.1z
		 M15.9,6.2c-0.2,0.2-0.6,0.2-0.8,0c-0.1-0.1-0.2-0.3-0.2-0.4c0-0.2,0.1-0.3,0.2-0.4c0.1-0.1,0.3-0.2,0.4-0.2c0.2,0,0.3,0.1,0.4,0.2
		C16.1,5.6,16.1,5.9,15.9,6.2C15.9,6.2,15.9,6.2,15.9,6.2z M12,11.2h1.8v0.3c0,0,0,0.1,0,0.1v0.1c0,0.5-0.2,1.1-0.5,1.6
		c-0.6,1.1-1.8,1.8-3.1,1.8c-1.3,0-2.4-0.7-3.1-1.8c-0.3-0.5-0.4-1-0.5-1.6v-0.4c0-0.6,0.2-1.1,0.5-1.6c0.3-0.5,0.8-1,1.3-1.3
		C9,8.1,9.6,7.9,10.2,7.9h0.4l0,0h0.1L11,6.6l2.3,3l-3.5,1.4l0.3-1.2c-0.3,0-0.5,0.1-0.8,0.2c-0.3,0.2-0.5,0.4-0.6,0.6
		c-0.2,0.3-0.2,0.6-0.2,0.9c0,0.6,0.3,1.2,0.9,1.5c0.5,0.3,1.2,0.3,1.8,0c0.3-0.2,0.5-0.4,0.6-0.6c0.2-0.3,0.2-0.6,0.2-0.9L12,11.2z
		"/>
</g>
</svg>
