<?xml version="1.0" encoding="utf-8"?>
<!-- Generator: Adobe Illustrator 26.4.1, SVG Export Plug-In . SVG Version: 6.00 Build 0)  -->
<svg version="1.1" id="Layer_1" xmlns="http://www.w3.org/2000/svg" xmlns:xlink="http://www.w3.org/1999/xlink" x="0px" y="0px"
	 viewBox="0 0 35.6 26.2" style="enable-background:new 0 0 35.6 26.2;" xml:space="preserve">
<style type="text/css">
	.st0{fill:url(#SVGID_1_);}
</style>
<g id="Layer_1_00000085219793754068770620000013957857101222749876_">
	
		<linearGradient id="SVGID_1_" gradientUnits="userSpaceOnUse" x1="7.852" y1="6.827" x2="27.702" y2="26.677" gradientTransform="matrix(1 0 0 -1 0 29.84)">
		<stop  offset="0.1" style="stop-color:#2814FF;stop-opacity:0.9"/>
		<stop  offset="0.15" style="stop-color:#2326FF;stop-opacity:0.91"/>
		<stop  offset="0.3" style="stop-color:#145CFF;stop-opacity:0.95"/>
		<stop  offset="0.44" style="stop-color:#0983FF;stop-opacity:0.98"/>
		<stop  offset="0.54" style="stop-color:#029BFF;stop-opacity:0.99"/>
		<stop  offset="0.61" style="stop-color:#00A4FF"/>
		<stop  offset="0.66" style="stop-color:#00ACCE"/>
		<stop  offset="0.72" style="stop-color:#00B590"/>
		<stop  offset="0.79" style="stop-color:#00BD5D"/>
		<stop  offset="0.84" style="stop-color:#00C434"/>
		<stop  offset="0.9" style="stop-color:#00C818"/>
		<stop  offset="0.95" style="stop-color:#00CB06"/>
		<stop  offset="0.98" style="stop-color:#00CC00"/>
	</linearGradient>
	<path class="st0" d="M35.6,13.1c0,2.8-2.2,5-5,5c-0.2,0-0.4,0-0.6,0c-1.9,4.6-6.2,7.8-11.2,8.1l0,0h-0.4h-1h-0.5
		c-5-0.4-9.3-3.5-11.2-8.1c-0.2,0-0.4,0-0.6,0c-2.8,0-5-2.2-5-5s2.2-5,5-5c0.2,0,0.4,0,0.6,0C7.5,3.5,11.9,0.4,16.8,0l0,0h0.4h1h0.4
		c5,0.4,9.3,3.5,11.2,8.1c0.2,0,0.4,0,0.6,0C33.3,8.1,35.5,10.3,35.6,13.1z M5.9,13.1l1.2,1.2l-0.9,0.9L5,13.9l-1.3,1.3l-0.9-0.9
		l1.2-1.2l-1.2-1.2L3.7,11L5,12.2L6.3,11l0.9,0.9L5.9,13.1z M32.1,11.3l-2.1,2.1l-0.9-0.9l-0.9,0.9l1.3,1.4l0.4,0.4l3-3L32.1,11.3z
		 M18.8,20v3c0.7-0.9,1.4-1.9,2-3H18.8z M14.7,20c0.6,1.1,1.2,2.1,2,3v-3H14.7z M5,9.7c-1.9,0-3.3,1.5-3.3,3.4s1.5,3.3,3.4,3.3
		c1.8,0,3.3-1.5,3.3-3.3C8.4,11.2,6.9,9.7,5,9.7z M16.7,6.1v-3c-0.7,0.9-1.4,1.9-2,3H16.7z M12.4,6.1c0.6-1.3,1.4-2.6,2.2-3.7
		C12.4,3,10.5,4.3,9.1,6.1L12.4,6.1z M11.5,8.5H7.8C7.7,8.6,7.7,8.7,7.6,8.8c1.2,0.6,2,1.8,2.3,3.1h0.9C10.8,10.7,11.1,9.6,11.5,8.5
		L11.5,8.5z M7.6,17.4c0.1,0.1,0.1,0.3,0.2,0.4h3.7c-0.4-1.1-0.6-2.3-0.7-3.5H9.9C9.6,15.6,8.8,16.7,7.6,17.4L7.6,17.4z M9.1,20
		c1.4,1.8,3.4,3.2,5.6,3.7c-0.9-1.2-1.6-2.4-2.2-3.7H9.1z M20.8,6.1c-0.6-1.1-1.2-2.1-2-3v3H20.8z M27.9,8.8c0-0.1-0.1-0.3-0.2-0.4
		h-3.7c0.4,1.1,0.6,2.3,0.7,3.5h0.8C25.9,10.6,26.7,9.5,27.9,8.8z M24.1,17.7h3.7c0.1-0.1,0.1-0.2,0.2-0.4c-1.2-0.6-2-1.8-2.3-3.1
		h-0.9C24.7,15.4,24.5,16.6,24.1,17.7z M26.5,6.1c-1.4-1.8-3.4-3.2-5.6-3.7c0.9,1.2,1.6,2.4,2.2,3.7L26.5,6.1z M23.1,20
		c-0.6,1.3-1.4,2.6-2.2,3.7c2.2-0.6,4.2-1.9,5.6-3.7H23.1z M30.5,9.7c-1.9,0-3.3,1.5-3.3,3.4c0,1.9,1.5,3.3,3.4,3.3
		c1.8,0,3.3-1.5,3.3-3.3C33.9,11.2,32.4,9.8,30.5,9.7L30.5,9.7z M18.8,8.5v3.5h3.7c-0.1-1.2-0.4-2.4-0.9-3.5L18.8,8.5z M13.8,8.5
		c-0.4,1.1-0.7,2.3-0.8,3.5h3.7V8.5H13.8z M21.6,17.7c0.5-1.1,0.7-2.3,0.9-3.5h-3.7v3.5L21.6,17.7z M16.6,17.7v-3.5H13
		c0.1,1.2,0.4,2.4,0.9,3.5L16.6,17.7z"/>
</g>
</svg>
