<?xml version="1.0" encoding="utf-8"?>
<!-- Generator: Adobe Illustrator 26.4.1, SVG Export Plug-In . SVG Version: 6.00 Build 0)  -->
<svg version="1.1" id="Layer_1" xmlns="http://www.w3.org/2000/svg" xmlns:xlink="http://www.w3.org/1999/xlink" x="0px" y="0px"
	 viewBox="0 0 26.7 26.7" style="enable-background:new 0 0 26.7 26.7;" xml:space="preserve">
<style type="text/css">
	.st0{fill:url(#SVGID_1_);}
</style>
<g id="Layer_1_00000063591369876330394260000009168653598772959915_">
	
		<linearGradient id="SVGID_1_" gradientUnits="userSpaceOnUse" x1="3.9076" y1="6.9932" x2="22.7924" y2="25.868" gradientTransform="matrix(1 0 0 -1 0 29.7806)">
		<stop  offset="0.1" style="stop-color:#2814FF"/>
		<stop  offset="0.14" style="stop-color:#2324FF"/>
		<stop  offset="0.3" style="stop-color:#145BFF"/>
		<stop  offset="0.43" style="stop-color:#0983FF"/>
		<stop  offset="0.54" style="stop-color:#029BFF"/>
		<stop  offset="0.61" style="stop-color:#00A4FF"/>
		<stop  offset="0.66" style="stop-color:#00ACCE"/>
		<stop  offset="0.72" style="stop-color:#00B590"/>
		<stop  offset="0.79" style="stop-color:#00BD5D"/>
		<stop  offset="0.84" style="stop-color:#00C434"/>
		<stop  offset="0.9" style="stop-color:#00C818"/>
		<stop  offset="0.95" style="stop-color:#00CB06"/>
		<stop  offset="0.98" style="stop-color:#00CC00"/>
	</linearGradient>
	<path class="st0" d="M22.8,3.9C17.6-1.3,9.2-1.3,3.9,3.9s-5.3,13.6-0.1,18.9s13.6,5.3,18.9,0.1c2.5-2.5,3.9-5.9,3.9-9.4
		C26.7,9.8,25.3,6.5,22.8,3.9z M24.4,13.4c0,6.1-5,11.1-11.1,11.1s-11.1-5-11.1-11.1s5-11.1,11.1-11.1c2.9,0,5.7,1.2,7.8,3.2
		C23.3,7.6,24.4,10.4,24.4,13.4z M8.2,18.4h12.1v1.9h-14v-14h1.9v3.1l2.5,2.5H14l2.4,2.4v-1.2h1.8V16l0,0l0,0v1.3h-1.3l0,0l0,0
		l-3,0.1v-1.7h1.4l-1.8-1.8H9.9l-1.7-1.7L8.2,18.4z"/>
</g>
</svg>
