<?xml version="1.0" encoding="utf-8"?>
<!-- Generator: Adobe Illustrator 26.4.1, SVG Export Plug-In . SVG Version: 6.00 Build 0)  -->
<svg version="1.1" id="Layer_1" xmlns="http://www.w3.org/2000/svg" xmlns:xlink="http://www.w3.org/1999/xlink" x="0px" y="0px"
	 viewBox="0 0 24.3 26.3" style="enable-background:new 0 0 24.3 26.3;" xml:space="preserve">
<style type="text/css">
	.st0{fill:url(#SVGID_1_);}
</style>
<g id="Layer_1_00000006707147136155715040000003961011180100433048_">
	
		<linearGradient id="SVGID_1_" gradientUnits="userSpaceOnUse" x1="3.5568" y1="6.2001" x2="22.1268" y2="24.7701" gradientTransform="matrix(1 0 0 -1 0 28.94)">
		<stop  offset="0.1" style="stop-color:#2814FF"/>
		<stop  offset="0.14" style="stop-color:#2324FF"/>
		<stop  offset="0.3" style="stop-color:#145BFF"/>
		<stop  offset="0.43" style="stop-color:#0983FF"/>
		<stop  offset="0.54" style="stop-color:#029BFF"/>
		<stop  offset="0.61" style="stop-color:#00A4FF"/>
		<stop  offset="0.66" style="stop-color:#00ACCE"/>
		<stop  offset="0.72" style="stop-color:#00B590"/>
		<stop  offset="0.79" style="stop-color:#00BD5D"/>
		<stop  offset="0.84" style="stop-color:#00C434"/>
		<stop  offset="0.9" style="stop-color:#00C818"/>
		<stop  offset="0.95" style="stop-color:#00CB06"/>
		<stop  offset="0.98" style="stop-color:#00CC00"/>
	</linearGradient>
	<path class="st0" d="M22.4,7.6L24,6l-3.8-3.8l-1.6,1.6c-1.2-0.7-2.4-1.3-3.8-1.6V0H9.5v2.3c-6.5,1.5-10.7,8-9.2,14.5
		s8,10.7,14.5,9.2c5.5-1.2,9.5-6.2,9.5-11.8C24.3,11.8,23.6,9.6,22.4,7.6z M21.9,15.3c-0.2,1.8-0.9,3.6-2.1,5l-1.1-1.1l-1.6,1.6
		l1.1,1.1c-1.4,1.1-3.2,1.8-5,2v-1.4H11V24C9.2,23.7,7.5,23,6,21.9l1-1l-1.5-1.7l-1,1c-1.1-1.4-1.8-3.1-2-4.9h1.4V13H2.4
		c0.2-1.8,0.9-3.5,2-4.9l1,1l1.7-1.6l-1-1C7.5,5.3,9.2,4.6,11,4.4v1.5h2.3V4.4c1.8,0.2,3.6,0.9,5,2l-1.1,1.1l1.6,1.6L19.9,8
		c1.1,1.4,1.9,3.2,2.1,5h-1.5v2.3L21.9,15.3z M13.8,12.2c1.1,1,1.1,2.7,0.1,3.8c-1,1.1-2.7,1.1-3.8,0.1c-1.1-1-1.1-2.7-0.1-3.8
		c0.5-0.5,1.2-0.8,2-0.8h0.2l2.4-5.7l1.6,0.7L13.8,12.2z"/>
</g>
</svg>
