<?xml version="1.0" encoding="utf-8"?>
<!-- Generator: Adobe Illustrator 26.4.1, SVG Export Plug-In . SVG Version: 6.00 Build 0)  -->
<svg version="1.1" id="Layer_1" xmlns="http://www.w3.org/2000/svg" xmlns:xlink="http://www.w3.org/1999/xlink" x="0px" y="0px"
	 viewBox="0 0 14.2 14.2" style="enable-background:new 0 0 14.2 14.2;" xml:space="preserve">
<style type="text/css">
	.st0{fill:url(#SVGID_1_);}
</style>
<g id="Layer_1_00000170238617644468592790000012737901039363240591_">
	
		<linearGradient id="SVGID_1_" gradientUnits="userSpaceOnUse" x1="2.0825" y1="4.8025" x2="12.1225" y2="14.8425" gradientTransform="matrix(1 0 0 -1 0 16.94)">
		<stop  offset="0.1" style="stop-color:#2814FF"/>
		<stop  offset="0.14" style="stop-color:#2324FF"/>
		<stop  offset="0.3" style="stop-color:#145BFF"/>
		<stop  offset="0.43" style="stop-color:#0983FF"/>
		<stop  offset="0.54" style="stop-color:#029BFF"/>
		<stop  offset="0.61" style="stop-color:#00A4FF"/>
		<stop  offset="0.66" style="stop-color:#00ACCE"/>
		<stop  offset="0.72" style="stop-color:#00B590"/>
		<stop  offset="0.79" style="stop-color:#00BD5D"/>
		<stop  offset="0.84" style="stop-color:#00C434"/>
		<stop  offset="0.9" style="stop-color:#00C818"/>
		<stop  offset="0.95" style="stop-color:#00CB06"/>
		<stop  offset="0.98" style="stop-color:#00CC00"/>
	</linearGradient>
	<path class="st0" d="M7.1,14.2c3.9,0,7.1-3.2,7.1-7.1C14.2,3.2,11,0,7.1,0S0,3.2,0,7.1c0,0,0,0,0,0C0,11,3.2,14.2,7.1,14.2z
		 M2.2,7.1c0-2.7,2.2-4.9,4.9-4.9S12,4.4,12,7.1S9.8,12,7.1,12S2.2,9.8,2.2,7.1L2.2,7.1z M8.9,6.5V6c0-0.5-0.2-1-0.5-1.3
		C8.1,4.4,7.6,4.2,7.1,4.2C6.1,4.2,5.3,5,5.3,6l0,0v0.5H4.9v3.6h4.3V6.5H8.9z M6.4,6c0-0.4,0.3-0.7,0.7-0.7c0.2,0,0.4,0.1,0.5,0.2
		C7.7,5.6,7.8,5.8,7.8,6v0.5H6.4V6z"/>
</g>
</svg>
