<?xml version="1.0" encoding="utf-8"?>
<!-- Generator: Adobe Illustrator 26.4.1, SVG Export Plug-In . SVG Version: 6.00 Build 0)  -->
<svg version="1.1" id="Layer_1" xmlns="http://www.w3.org/2000/svg" xmlns:xlink="http://www.w3.org/1999/xlink" x="0px" y="0px"
	 viewBox="0 0 24.4 18.9" style="enable-background:new 0 0 24.4 18.9;" xml:space="preserve">
<style type="text/css">
	.st0{fill:url(#SVGID_1_);}
</style>
<g id="Layer_1_00000115508611950116898810000017513531553839103882_">
	
		<linearGradient id="SVGID_1_" gradientUnits="userSpaceOnUse" x1="5.0363" y1="4.4694" x2="19.8563" y2="19.2894" gradientTransform="matrix(1 0 0 -1 0 21.7514)">
		<stop  offset="0.1" style="stop-color:#2814FF"/>
		<stop  offset="0.14" style="stop-color:#2324FF"/>
		<stop  offset="0.3" style="stop-color:#145BFF"/>
		<stop  offset="0.43" style="stop-color:#0983FF"/>
		<stop  offset="0.54" style="stop-color:#029BFF"/>
		<stop  offset="0.61" style="stop-color:#00A4FF"/>
		<stop  offset="0.66" style="stop-color:#00ACCE"/>
		<stop  offset="0.72" style="stop-color:#00B590"/>
		<stop  offset="0.79" style="stop-color:#00BD5D"/>
		<stop  offset="0.84" style="stop-color:#00C434"/>
		<stop  offset="0.9" style="stop-color:#00C818"/>
		<stop  offset="0.95" style="stop-color:#00CB06"/>
		<stop  offset="0.98" style="stop-color:#00CC00"/>
	</linearGradient>
	<path class="st0" d="M20.3,4.2c-0.8-2.3-2.9-4-5.4-4.1c-0.2,0-0.5,0-0.7,0C12-0.1,9.9,1.1,8.9,3.1c-0.3,0-0.5-0.1-0.8-0.1
		C6.2,3,4.6,4.2,4.1,6c-2.2,0.1-4,1.8-4.1,4c-0.1,1.2,0.3,2.4,1.1,3.3c1.2,1.1,2.8,1.6,4.4,1.6h4.7v4h3.9v-4h4
		c4.6,0,6.3-2.8,6.3-5.4C24.4,7.9,23.6,4.7,20.3,4.2z M18.1,12.9h-4v-2.7l2.1,2.1l2.2-2.3l-6.3-6.2L5.9,10l2.2,2.3l2.1-2.1v2.7H5.5
		c-1.1,0-2.1-0.3-2.9-1c-0.4-0.5-0.6-1.1-0.5-1.8C2.1,8.2,3.7,8,4.7,8L5.8,8l0.1-1c0-1.1,0.9-2,2-2c0.1,0,0.1,0,0.2,0
		c0.3,0,0.7,0,1,0.1l0.7,0.2l0.6-0.9C11.4,2.9,12,2,14.3,2c0.2,0,0.4,0,0.5,0c1.8,0.2,3.3,1.5,3.7,3.3L18.7,6h0.8
		c2.9,0.1,2.9,3,2.9,3.4C22.3,12.5,19.4,12.9,18.1,12.9z"/>
</g>
</svg>
