<?xml version="1.0" encoding="utf-8"?>
<!-- Generator: Adobe Illustrator 26.4.1, SVG Export Plug-In . SVG Version: 6.00 Build 0)  -->
<svg version="1.1" id="Layer_1" xmlns="http://www.w3.org/2000/svg" xmlns:xlink="http://www.w3.org/1999/xlink" x="0px" y="0px"
	 viewBox="0 0 22.1 26.2" style="enable-background:new 0 0 22.1 26.2;" xml:space="preserve">
<style type="text/css">
	.st0{fill:url(#SVGID_1_);}
</style>
<linearGradient id="SVGID_1_" gradientUnits="userSpaceOnUse" x1="-1.0502" y1="3.7998" x2="23.0998" y2="27.9498" gradientTransform="matrix(1 0 0 -1 0 29)">
	<stop  offset="0.1" style="stop-color:#2814FF"/>
	<stop  offset="0.1435" style="stop-color:#2324FF"/>
	<stop  offset="0.2998" style="stop-color:#145BFF"/>
	<stop  offset="0.4347" style="stop-color:#0983FF"/>
	<stop  offset="0.5417" style="stop-color:#029BFF"/>
	<stop  offset="0.6072" style="stop-color:#00A4FF"/>
	<stop  offset="0.6551" style="stop-color:#00ACCE"/>
	<stop  offset="0.7216" style="stop-color:#00B590"/>
	<stop  offset="0.7855" style="stop-color:#00BD5D"/>
	<stop  offset="0.8449" style="stop-color:#00C434"/>
	<stop  offset="0.8989" style="stop-color:#00C818"/>
	<stop  offset="0.9457" style="stop-color:#00CB06"/>
	<stop  offset="0.98" style="stop-color:#00CC00"/>
</linearGradient>
<path class="st0" d="M0,0v26.2h22.1V0H0z M2.2,24V2.2h17.7V24H2.2z M12.1,22.1c0,0.6-0.5,1-1,1s-1-0.5-1-1s0.5-1,1-1
	S12.1,21.5,12.1,22.1z M10,18.8l-0.8,0.9l-0.1-0.1c-0.1-0.1-2.6-2.4-2.6-5.2c0-2.5,2-4.5,4.5-4.5s4.5,2,4.5,4.5v0.1h-1.2v-0.2
	c0-1.8-1.5-3.3-3.3-3.3s-3.3,1.5-3.3,3.3c0,2.2,2.1,4.2,2.2,4.3L10,18.8z M16,10.2c1.1,1.2,1.6,2.7,1.4,4.2c-0.2,1.3-1.5,2.1-2.7,2
	c-1.4-0.1-2.3-1-2.5-2.6c-0.1-0.6-0.7-0.9-1.3-0.9c-0.7,0-1.3,0.6-1.3,1.3c0,0.5,0.2,1.1,0.7,1.8c0.4,0.6,0.8,1,0.9,1.1
	c0.7,0.6,1.4,1,2.4,1.4l0.2,0.1l-0.4,1.3l-0.2-0.1c-1.1-0.4-1.9-0.9-2.7-1.5l0,0l-0.2-0.2l0,0c-0.2-0.2-0.6-0.6-1-1.2
	c-0.6-0.9-0.9-1.8-0.9-2.5c0-1.4,1.2-2.6,2.6-2.6c1.3,0,2.3,0.8,2.5,1.9c0.2,1,0.6,1.4,1.4,1.5c0.6,0.1,1.2-0.3,1.3-0.9
	c0.1-1.1-0.3-2.3-1.1-3.3c-1-1.2-2.6-1.9-4.1-1.9c-2.9,0-5.2,2.3-5.2,5.2c0,0.8,0.2,1.6,0.6,2.5L6.5,17l-1.2,0.5l-0.1-0.2
	c-0.4-1-0.7-2-0.7-3c0-3.5,2.9-6.4,6.4-6.4C12.8,7.9,14.7,8.8,16,10.2z M15.7,16.8L16,18h-0.2c-0.4,0.1-0.8,0.2-1.2,0.2
	c-2.4,0-4.4-2-4.4-4.4v-0.2h1.2v0.2c0,1.7,1.4,3.2,3.2,3.2c0.3,0,0.6,0,0.9-0.1L15.7,16.8z M4.9,10.7l-1-0.7L4,9.9
	C5.5,7.5,8.2,6,11,6c2.4,0,4.8,1.1,6.4,2.9c0.3,0.3,0.5,0.6,0.7,0.9l0.1,0.1l-1,0.7l-0.1-0.1c-0.2-0.3-0.4-0.5-0.6-0.8
	c-1.4-1.6-3.4-2.5-5.5-2.5c-2.4,0-4.7,1.2-6,3.3L4.9,10.7z M5.9,6.9l-0.7-1l0.1-0.1c3.3-2.2,7.7-2.2,11.2,0l0.1,0.1L15.9,7l-0.1-0.1
	c-1.5-0.9-3.2-1.4-4.9-1.4C9.2,5.5,7.5,6,6,6.9H5.9z"/>
</svg>
