<?xml version="1.0" encoding="utf-8"?>
<!-- Generator: Adobe Illustrator 26.4.1, SVG Export Plug-In . SVG Version: 6.00 Build 0)  -->
<svg version="1.1" id="Layer_1" xmlns="http://www.w3.org/2000/svg" xmlns:xlink="http://www.w3.org/1999/xlink" x="0px" y="0px"
	 viewBox="0 0 10 30.8" style="enable-background:new 0 0 10 30.8;" xml:space="preserve">
<style type="text/css">
	.st0{fill:url(#SVGID_1_);}
</style>
<g id="Layer_1_00000016774499341257977100000015821202994054224307_">
	
		<linearGradient id="SVGID_1_" gradientUnits="userSpaceOnUse" x1="-3.8201" y1="8.4633" x2="13.8396" y2="26.1129" gradientTransform="matrix(1 0 0 -1 0 33.6)">
		<stop  offset="0.1" style="stop-color:#2814FF"/>
		<stop  offset="0.14" style="stop-color:#2324FF"/>
		<stop  offset="0.3" style="stop-color:#145BFF"/>
		<stop  offset="0.43" style="stop-color:#0983FF"/>
		<stop  offset="0.54" style="stop-color:#029BFF"/>
		<stop  offset="0.61" style="stop-color:#00A4FF"/>
		<stop  offset="0.66" style="stop-color:#00ACCE"/>
		<stop  offset="0.72" style="stop-color:#00B590"/>
		<stop  offset="0.79" style="stop-color:#00BD5D"/>
		<stop  offset="0.84" style="stop-color:#00C434"/>
		<stop  offset="0.9" style="stop-color:#00C818"/>
		<stop  offset="0.95" style="stop-color:#00CB06"/>
		<stop  offset="0.98" style="stop-color:#00CC00"/>
	</linearGradient>
	<path class="st0" d="M0,20.8h1.8v10h6.3v-10H10V7.4H0L0,20.8z M6.2,18.8v10H3.9v-10H2V9.4h6v9.3H6.2z M5,6.5c1.8,0,3.2-1.5,3.2-3.2
		S6.8,0,5,0S1.8,1.5,1.8,3.2l0,0C1.8,5,3.2,6.5,5,6.5z M3.7,3.2c0-0.7,0.6-1.3,1.3-1.3s1.3,0.6,1.3,1.3S5.8,4.6,5,4.6S3.7,4,3.7,3.2
		L3.7,3.2z"/>
</g>
</svg>
