<?xml version="1.0" encoding="utf-8"?>
<!-- Generator: Adobe Illustrator 26.4.1, SVG Export Plug-In . SVG Version: 6.00 Build 0)  -->
<svg version="1.1" id="Layer_1" xmlns="http://www.w3.org/2000/svg" xmlns:xlink="http://www.w3.org/1999/xlink" x="0px" y="0px"
	 viewBox="0 0 31 27.1" style="enable-background:new 0 0 31 27.1;" xml:space="preserve">
<style type="text/css">
	.st0{fill:url(#SVGID_1_);}
</style>
<g id="Layer_1_00000109017659451395210190000011189051344508327562_">
	
		<linearGradient id="SVGID_1_" gradientUnits="userSpaceOnUse" x1="1.99" y1="5.66" x2="27.472" y2="31.142" gradientTransform="matrix(1 0 0 -1 0 30.7)">
		<stop  offset="0.1" style="stop-color:#2814FF;stop-opacity:0.9"/>
		<stop  offset="0.15" style="stop-color:#2326FF;stop-opacity:0.91"/>
		<stop  offset="0.3" style="stop-color:#145CFF;stop-opacity:0.95"/>
		<stop  offset="0.44" style="stop-color:#0983FF;stop-opacity:0.98"/>
		<stop  offset="0.54" style="stop-color:#029BFF;stop-opacity:0.99"/>
		<stop  offset="0.61" style="stop-color:#00A4FF"/>
		<stop  offset="0.66" style="stop-color:#00ACCE"/>
		<stop  offset="0.72" style="stop-color:#00B590"/>
		<stop  offset="0.79" style="stop-color:#00BD5D"/>
		<stop  offset="0.84" style="stop-color:#00C434"/>
		<stop  offset="0.9" style="stop-color:#00C818"/>
		<stop  offset="0.95" style="stop-color:#00CB06"/>
		<stop  offset="0.98" style="stop-color:#00CC00"/>
	</linearGradient>
	<path class="st0" d="M25.7,0c-2.5,0-4.6,1.7-5.2,4.2H0v18.9h8.7v1.8H6.3v2.3h14.2v-2.3h-2.3v-1.8h8.6V10.5c2.9-0.6,4.7-3.4,4.1-6.3
		C30.4,1.7,28.2,0,25.7,0z M2.3,20.8V6.5h18.3c0.4,2,2,3.6,4,4v10.3H2.3z M25.7,2.3c1.7,0,3,1.3,3,3s-1.3,3-3,3s-3-1.3-3-3
		S24.1,2.3,25.7,2.3z M17.1,15.4c0.5-0.8,0.7-1.7,0.7-2.6c0-2.8-2.3-5.1-5.1-5.1c-2.8,0-5.1,2.3-5.1,5.1c0,2.8,2.3,5.1,5.1,5.1
		c0.9,0,1.8-0.3,2.6-0.7l3.2,3.2l1.8-1.8L17.1,15.4z M12.7,9.6c1.8,0,3.2,1.4,3.2,3.2c0,1.8-1.4,3.2-3.2,3.2c-1.8,0-3.2-1.4-3.2-3.2
		l0,0C9.5,11,11,9.6,12.7,9.6z M27.8,4.6V6h-1.4v1.4H25V6h-1.4V4.6H25V3.2h1.4v1.4H27.8z"/>
</g>
</svg>
