<?xml version="1.0" encoding="utf-8"?>
<!-- Generator: Adobe Illustrator 26.4.1, SVG Export Plug-In . SVG Version: 6.00 Build 0)  -->
<svg version="1.1" id="Layer_1" xmlns="http://www.w3.org/2000/svg" xmlns:xlink="http://www.w3.org/1999/xlink" x="0px" y="0px"
	 viewBox="0 0 26.8 26.8" style="enable-background:new 0 0 26.8 26.8;" xml:space="preserve">
<style type="text/css">
	.st0{fill:url(#SVGID_1_);}
</style>
<g id="Layer_1_00000033369647984195510590000004918922960057647240_">
	
		<linearGradient id="SVGID_1_" gradientUnits="userSpaceOnUse" x1="3.9193" y1="6.6443" x2="22.8548" y2="25.5698" gradientTransform="matrix(1 0 0 -1 0 29.5)">
		<stop  offset="0.1" style="stop-color:#2814FF"/>
		<stop  offset="0.14" style="stop-color:#2324FF"/>
		<stop  offset="0.3" style="stop-color:#145BFF"/>
		<stop  offset="0.43" style="stop-color:#0983FF"/>
		<stop  offset="0.54" style="stop-color:#029BFF"/>
		<stop  offset="0.61" style="stop-color:#00A4FF"/>
		<stop  offset="0.66" style="stop-color:#00ACCE"/>
		<stop  offset="0.72" style="stop-color:#00B590"/>
		<stop  offset="0.79" style="stop-color:#00BD5D"/>
		<stop  offset="0.84" style="stop-color:#00C434"/>
		<stop  offset="0.9" style="stop-color:#00C818"/>
		<stop  offset="0.95" style="stop-color:#00CB06"/>
		<stop  offset="0.98" style="stop-color:#00CC00"/>
	</linearGradient>
	<path class="st0" d="M13.4,0C6,0,0,6,0,13.4c0,7.4,6,13.4,13.4,13.4c7.4,0,13.4-6,13.4-13.4C26.8,6,20.8,0,13.4,0z M13.4,24.5
		c-6.1,0-11.1-5-11.1-11.1s5-11.1,11.1-11.1s11.1,5,11.1,11.1C24.5,19.5,19.5,24.5,13.4,24.5z M16.3,18.9v-0.1c0-1.2-0.9-2.2-2-2.5
		c-0.2,0-0.3-0.1-0.5-0.1l-2.1-2.1l3-3l0,0c0.4-0.3,0.6-0.6,0.7-1.1c0,0,0-0.1,0-0.1l2.2,0.6h0l1.4-2l-1.2-0.9L17,8.8l-1.6-0.5
		l0.2-1.8l1.2-0.3l-0.3-1.5l-2.3,0.5L14,7.8c-0.7-0.1-1.5,0.2-1.9,0.8l-3.7,3.6c-0.2,0-0.3,0.1-0.5,0.2c-0.9,0.5-1.1,1.7-0.6,2.6
		c0.2,0.2,0.4,0.4,0.6,0.6l3.1,3.2c0,0,0,0.1,0,0.1v0H7.8v1.5h3.2l0,0h8.4h0.1v-1.6L16.3,18.9z M8.6,13.9c0-0.1,0.1-0.2,0.1-0.2
		c0.1,0,0.1,0,0.2,0H9c0.2,0,0.3,0.2,0.2,0.4c0,0.1-0.1,0.2-0.1,0.2c-0.1,0-0.2,0-0.2,0c-0.1,0-0.2-0.1-0.2-0.1
		C8.6,14,8.6,13.9,8.6,13.9L8.6,13.9z M13.9,9.4c0,0.1,0,0.2,0,0.2c0,0.1-0.1,0.2-0.1,0.2c-0.1,0-0.2,0-0.2,0
		c-0.2,0-0.3-0.2-0.2-0.4c0-0.1,0.1-0.2,0.1-0.2c0.1,0,0.2,0,0.2,0C13.7,9.2,13.8,9.3,13.9,9.4L13.9,9.4z M12.1,16.8
		c-0.2,0.1-0.3,0.2-0.4,0.4l-1.6-1.6l0.4-0.4L12.1,16.8z M10.2,12.6l1.9-1.9c0.1,0.2,0.2,0.3,0.4,0.4L10.6,13L10.2,12.6z M12.6,18.8
		c0-0.1,0-0.1,0-0.2c0.2-0.6,0.8-0.9,1.3-0.8c0.4,0.1,0.8,0.5,0.8,1l0,0L12.6,18.8L12.6,18.8z"/>
</g>
</svg>
