<?xml version="1.0" encoding="utf-8"?>
<!-- Generator: Adobe Illustrator 26.4.1, SVG Export Plug-In . SVG Version: 6.00 Build 0)  -->
<svg version="1.1" id="Layer_1" xmlns="http://www.w3.org/2000/svg" xmlns:xlink="http://www.w3.org/1999/xlink" x="0px" y="0px"
	 viewBox="0 0 26.6 23" style="enable-background:new 0 0 26.6 23;" xml:space="preserve">
<style type="text/css">
	.st0{fill:url(#SVGID_1_);}
</style>
<linearGradient id="SVGID_1_" gradientUnits="userSpaceOnUse" x1="1.875" y1="4.825" x2="24.725" y2="27.675" gradientTransform="matrix(1 0 0 -1 0 25.8)">
	<stop  offset="0.1" style="stop-color:#2814FF"/>
	<stop  offset="0.1435" style="stop-color:#2324FF"/>
	<stop  offset="0.2998" style="stop-color:#145BFF"/>
	<stop  offset="0.4347" style="stop-color:#0983FF"/>
	<stop  offset="0.5417" style="stop-color:#029BFF"/>
	<stop  offset="0.6072" style="stop-color:#00A4FF"/>
	<stop  offset="0.6551" style="stop-color:#00ACCE"/>
	<stop  offset="0.7216" style="stop-color:#00B590"/>
	<stop  offset="0.7855" style="stop-color:#00BD5D"/>
	<stop  offset="0.8449" style="stop-color:#00C434"/>
	<stop  offset="0.8989" style="stop-color:#00C818"/>
	<stop  offset="0.9457" style="stop-color:#00CB06"/>
	<stop  offset="0.98" style="stop-color:#00CC00"/>
</linearGradient>
<path class="st0" d="M3.8,3.6v3.3h19.1V3.7H3.8V3.6z M5.3,5.4V5h7.4v0.4H5.3z M20.8,5.6V4.8h0.8v0.8H20.8z M4.1,11.8h2.6v2.6H4.1
	V11.8z M8.1,11.8h2.6v2.6H8.1V11.8z M12,11.8h2.7v2.6h-2.6v-2.6H12z M16,11.8h2.6v2.6H16V11.8z M22.6,11.8v2.6H20v-2.6H22.6z
	 M20.9,10H5.8V8.7h15.1V10z M26.6,19.1V0H0v19.1h8.5v1.4H6.2V23h14.2v-2.5h-2.3v-1.4C18.1,19.1,26.6,19.1,26.6,19.1z M24.2,2.4v14.4
	H2.4V2.4H24.2z"/>
</svg>
