<?xml version="1.0" encoding="utf-8"?>
<!-- Generator: Adobe Illustrator 26.4.1, SVG Export Plug-In . SVG Version: 6.00 Build 0)  -->
<svg version="1.1" id="Layer_1" xmlns="http://www.w3.org/2000/svg" xmlns:xlink="http://www.w3.org/1999/xlink" x="0px" y="0px"
	 viewBox="0 0 27.3 27.2" style="enable-background:new 0 0 27.3 27.2;" xml:space="preserve">
<style type="text/css">
	.st0{fill:url(#SVGID_1_);}
</style>
<g id="Layer_1_00000173153180711198537830000003685841653892476074_">
	
		<linearGradient id="SVGID_1_" gradientUnits="userSpaceOnUse" x1="1.94" y1="4.67" x2="25.135" y2="27.855" gradientTransform="matrix(1 0 0 -1 0 30)">
		<stop  offset="0.1" style="stop-color:#2814FF"/>
		<stop  offset="0.14" style="stop-color:#2324FF"/>
		<stop  offset="0.3" style="stop-color:#145BFF"/>
		<stop  offset="0.43" style="stop-color:#0983FF"/>
		<stop  offset="0.54" style="stop-color:#029BFF"/>
		<stop  offset="0.61" style="stop-color:#00A4FF"/>
		<stop  offset="0.66" style="stop-color:#00ACCE"/>
		<stop  offset="0.72" style="stop-color:#00B590"/>
		<stop  offset="0.79" style="stop-color:#00BD5D"/>
		<stop  offset="0.84" style="stop-color:#00C434"/>
		<stop  offset="0.9" style="stop-color:#00C818"/>
		<stop  offset="0.95" style="stop-color:#00CB06"/>
		<stop  offset="0.98" style="stop-color:#00CC00"/>
	</linearGradient>
	<path class="st0" d="M27.2,8.9V6h-2.1V2.1h-4V0h-2.9v2.2h-1.2V0h-2.9v2.2H13V0h-2.9v2.2H8.9V0H6.1v2.2H1.9v3.9H0V9h1.9v1.2H0V13
		h1.9v1.2H0v2.9h1.9v1.2H0v2.9h1.9v4.2h4.2v1.9H9v-1.9h1.1v1.9H13v-1.9h1.2v1.9h2.9v-1.9h1.2v1.9h2.8v-1.9h4v-4.2h2.1v-2.9h-2.1V17
		h2.1v-2.9h-2.1V13h2.1v-2.9h-2.1V8.9H27.2z M22.9,4.3v18.8H4.1V4.3H22.9z"/>
</g>
</svg>
