<?xml version="1.0" encoding="utf-8"?>
<!-- Generator: Adobe Illustrator 26.4.1, SVG Export Plug-In . SVG Version: 6.00 Build 0)  -->
<svg version="1.1" id="Layer_1" xmlns="http://www.w3.org/2000/svg" xmlns:xlink="http://www.w3.org/1999/xlink" x="0px" y="0px"
	 viewBox="0 0 29 27.5" style="enable-background:new 0 0 29 27.5;" xml:space="preserve">
<style type="text/css">
	.st0{fill:url(#SVGID_1_);}
</style>
<g id="Layer_1_00000079444574418945357690000003795616610177875892_">
	
		<linearGradient id="SVGID_1_" gradientUnits="userSpaceOnUse" x1="1.36" y1="1.45" x2="28.39" y2="28.48" gradientTransform="matrix(1 0 0 -1 0 30.26)">
		<stop  offset="0.1" style="stop-color:#2814FF"/>
		<stop  offset="0.14" style="stop-color:#2324FF"/>
		<stop  offset="0.3" style="stop-color:#145BFF"/>
		<stop  offset="0.43" style="stop-color:#0983FF"/>
		<stop  offset="0.54" style="stop-color:#029BFF"/>
		<stop  offset="0.61" style="stop-color:#00A4FF"/>
		<stop  offset="0.66" style="stop-color:#00ACCE"/>
		<stop  offset="0.72" style="stop-color:#00B590"/>
		<stop  offset="0.79" style="stop-color:#00BD5D"/>
		<stop  offset="0.84" style="stop-color:#00C434"/>
		<stop  offset="0.9" style="stop-color:#00C818"/>
		<stop  offset="0.95" style="stop-color:#00CB06"/>
		<stop  offset="0.98" style="stop-color:#00CC00"/>
	</linearGradient>
	<path class="st0" d="M23.5,16.2v1.9h-1.9v-1.9H23.5z M21.6,9.1V11h1.9V9.1H21.6z M3.7,16.2v1.9h1.9v-1.9H3.7z M3.7,9.1V11h1.9V9.1
		H3.7z M17.7,13.6c0,2.3-1.9,4.2-4.2,4.2s-4.2-1.9-4.2-4.2s1.9-4.2,4.2-4.2l0,0C15.9,9.4,17.7,11.3,17.7,13.6
		C17.7,13.6,17.7,13.6,17.7,13.6z M13.6,10.9c-1.4,0-2.6,1.2-2.6,2.6s1.2,2.6,2.6,2.6s2.6-1.2,2.6-2.6v0C16.2,12.1,15,11,13.6,10.9z
		 M29,10.1v13.8H2.2v-2H27V10.1H29z M21.7,6.5h4.5V21H6.6L0,27.5v-3L3.6,21H0.9V6.5h17.7l4.5-4.3h-1.2V0l4.9,0.1v5h-2.1V3.7
		L21.7,6.5z M24.2,8.5H3V19h21.1V8.5z"/>
</g>
</svg>
