<?xml version="1.0" encoding="utf-8"?>
<!-- Generator: Adobe Illustrator 26.4.1, SVG Export Plug-In . SVG Version: 6.00 Build 0)  -->
<svg version="1.1" id="Layer_1" xmlns="http://www.w3.org/2000/svg" xmlns:xlink="http://www.w3.org/1999/xlink" x="0px" y="0px"
	 viewBox="0 0 27.7 18" style="enable-background:new 0 0 27.7 18;" xml:space="preserve">
<style type="text/css">
	.st0{fill:url(#SVGID_1_);}
</style>
<g id="Layer_1_00000159443972257237686350000000876861857010930622_">
	
		<linearGradient id="SVGID_1_" gradientUnits="userSpaceOnUse" x1="3.9225" y1="1.8675" x2="23.7625" y2="21.7075" gradientTransform="matrix(1 0 0 -1 0 20.78)">
		<stop  offset="0.1" style="stop-color:#2814FF"/>
		<stop  offset="0.14" style="stop-color:#2324FF"/>
		<stop  offset="0.3" style="stop-color:#145BFF"/>
		<stop  offset="0.43" style="stop-color:#0983FF"/>
		<stop  offset="0.54" style="stop-color:#029BFF"/>
		<stop  offset="0.61" style="stop-color:#00A4FF"/>
		<stop  offset="0.66" style="stop-color:#00ACCE"/>
		<stop  offset="0.72" style="stop-color:#00B590"/>
		<stop  offset="0.79" style="stop-color:#00BD5D"/>
		<stop  offset="0.84" style="stop-color:#00C434"/>
		<stop  offset="0.9" style="stop-color:#00C818"/>
		<stop  offset="0.95" style="stop-color:#00CB06"/>
		<stop  offset="0.98" style="stop-color:#00CC00"/>
	</linearGradient>
	<path class="st0" d="M3,3v15h24.7V3H3z M5,15.9V5h20.6v10.9H5z M24,2.1H2v12.3H0V0h24.1L24,2.1z M15.4,6.5c-2.2,0-4,1.8-4,4
		s1.8,4,4,4s4-1.8,4-4S17.6,6.5,15.4,6.5z M17.6,10.5c0,1.3-1.1,2.3-2.3,2.2s-2.3-1.1-2.2-2.3c0-1.2,1-2.2,2.3-2.2
		C16.6,8.2,17.6,9.2,17.6,10.5L17.6,10.5z M22.6,13.2h1.9v1.9h-1.9L22.6,13.2z M24.6,5.9v1.9h-1.9V5.9L24.6,5.9z M6.1,13.2H8v1.9
		H6.1V13.2z M6.1,5.9H8v1.9H6.1V5.9z"/>
</g>
</svg>
