<?xml version="1.0" encoding="utf-8"?>
<!-- Generator: Adobe Illustrator 26.4.1, SVG Export Plug-In . SVG Version: 6.00 Build 0)  -->
<svg version="1.1" id="Layer_1" xmlns="http://www.w3.org/2000/svg" xmlns:xlink="http://www.w3.org/1999/xlink" x="0px" y="0px"
	 viewBox="0 0 19.7 28.3" style="enable-background:new 0 0 19.7 28.3;" xml:space="preserve">
<style type="text/css">
	.st0{fill:url(#SVGID_1_);}
</style>
<g id="Layer_1_00000094598267976434266260000018248451638616654982_">
	
		<linearGradient id="SVGID_1_" gradientUnits="userSpaceOnUse" x1="0.2098" y1="6.3743" x2="19.4904" y2="25.6449" gradientTransform="matrix(1 0 0 -1 0 31.22)">
		<stop  offset="0.1" style="stop-color:#2814FF"/>
		<stop  offset="0.14" style="stop-color:#2324FF"/>
		<stop  offset="0.3" style="stop-color:#145BFF"/>
		<stop  offset="0.43" style="stop-color:#0983FF"/>
		<stop  offset="0.54" style="stop-color:#029BFF"/>
		<stop  offset="0.61" style="stop-color:#00A4FF"/>
		<stop  offset="0.66" style="stop-color:#00ACCE"/>
		<stop  offset="0.72" style="stop-color:#00B590"/>
		<stop  offset="0.79" style="stop-color:#00BD5D"/>
		<stop  offset="0.84" style="stop-color:#00C434"/>
		<stop  offset="0.9" style="stop-color:#00C818"/>
		<stop  offset="0.95" style="stop-color:#00CB06"/>
		<stop  offset="0.98" style="stop-color:#00CC00"/>
	</linearGradient>
	<path class="st0" d="M9.8,0C4.4,0,0,4.4,0,9.8c0,3.7,2,7,5.3,8.7l0.5,0.3l0.7-2.1l-0.4-0.2c-3.7-2-5.1-6.7-3-10.4s6.7-5.1,10.4-3
		s5.1,6.7,3,10.4c-0.7,1.3-1.8,2.3-3,3l-0.4,0.2l0.7,2.1l0.5-0.3c4.8-2.5,6.7-8.4,4.2-13.3C16.9,2,13.5,0,9.8,0z M16.1,28.3L11,12.2
		c0.1,0,0.1-0.1,0.1-0.1c0.7-0.8,0.7-1.9,0-2.7c-0.7-0.7-1.7-0.7-2.4,0c0,0,0,0,0,0c-0.7,0.8-0.7,1.9,0,2.7l0.1,0.1l-5.1,16
		L16.1,28.3z M6.8,24.7l0.5-1.5l0.8,0.6L6.8,24.7z M11.6,26.2H8.1L9.8,25L11.6,26.2z M11.6,23.7l0.8-0.6l0.5,1.6L11.6,23.7z
		 M9.8,22.5l-1.9-1.4l1.9-6l1.9,6L9.8,22.5z M16,9.8c0,2.1-1,4-2.7,5.1l-0.5,0.4L12,13.2l0.3-0.2c1.7-1.3,2-3.8,0.7-5.5
		c-1.3-1.7-3.8-2-5.5-0.7s-2,3.8-0.7,5.5C7,12.5,7.2,12.7,7.5,13l0.3,0.2L7,15.3L6.5,15c-2.8-1.9-3.6-5.7-1.7-8.5s5.7-3.6,8.5-1.7
		C15,5.9,16,7.8,16,9.8L16,9.8z"/>
</g>
</svg>
