<?xml version="1.0" encoding="utf-8"?>
<!-- Generator: Adobe Illustrator 26.4.1, SVG Export Plug-In . SVG Version: 6.00 Build 0)  -->
<svg version="1.1" id="Layer_1" xmlns="http://www.w3.org/2000/svg" xmlns:xlink="http://www.w3.org/1999/xlink" x="0px" y="0px"
	 viewBox="0 0 28.1 28.5" style="enable-background:new 0 0 28.1 28.5;" xml:space="preserve">
<style type="text/css">
	.st0{fill:url(#SVGID_1_);}
</style>
<g id="Layer_1_00000123400120994076483130000003202936501996640667_">
	
		<linearGradient id="SVGID_1_" gradientUnits="userSpaceOnUse" x1="2.7825" y1="6.8575" x2="23.5075" y2="27.5825" gradientTransform="matrix(1 0 0 -1 0 31.34)">
		<stop  offset="0.1" style="stop-color:#2814FF"/>
		<stop  offset="0.14" style="stop-color:#2324FF"/>
		<stop  offset="0.3" style="stop-color:#145BFF"/>
		<stop  offset="0.43" style="stop-color:#0983FF"/>
		<stop  offset="0.54" style="stop-color:#029BFF"/>
		<stop  offset="0.61" style="stop-color:#00A4FF"/>
		<stop  offset="0.66" style="stop-color:#00ACCE"/>
		<stop  offset="0.72" style="stop-color:#00B590"/>
		<stop  offset="0.79" style="stop-color:#00BD5D"/>
		<stop  offset="0.84" style="stop-color:#00C434"/>
		<stop  offset="0.9" style="stop-color:#00C818"/>
		<stop  offset="0.95" style="stop-color:#00CB06"/>
		<stop  offset="0.98" style="stop-color:#00CC00"/>
	</linearGradient>
	<path class="st0" d="M22.5,15.2v1.9h-1.9v-1.9H22.5z M20.6,8.1V10h1.9V8.1L20.6,8.1z M2.8,15.2v1.9h1.9v-1.9H2.8z M2.8,8.1V10h1.9
		V8.1L2.8,8.1z M16.8,12.7c0,2.3-1.9,4.2-4.2,4.2c-2.3,0-4.2-1.9-4.2-4.2c0-2.3,1.9-4.2,4.2-4.2c0,0,0,0,0,0
		C14.9,8.5,16.8,10.4,16.8,12.7z M12.6,10.1c-1.4,0-2.6,1.2-2.6,2.6s1.2,2.6,2.6,2.6s2.6-1.2,2.6-2.6l0,0
		C15.3,11.2,14.1,10,12.6,10.1C12.7,10,12.7,10,12.6,10.1L12.6,10.1z M28.1,9.2V23H1.3v-2h24.9V9.1L28.1,9.2z M26.1,24L26,28.5h-4.7
		v-2h1.3l-6.2-6.4H0V5.5h2.5L0,2.9V0l5.4,5.5h19.9v14.6h-6l4.8,4.9V24L26.1,24z M2.1,18.1h21.1V7.6H2.1L2.1,18.1z"/>
</g>
</svg>
