<?xml version="1.0" encoding="utf-8"?>
<!-- Generator: Adobe Illustrator 26.4.1, SVG Export Plug-In . SVG Version: 6.00 Build 0)  -->
<svg version="1.1" id="Layer_1" xmlns="http://www.w3.org/2000/svg" xmlns:xlink="http://www.w3.org/1999/xlink" x="0px" y="0px"
	 viewBox="0 0 35 26.3" style="enable-background:new 0 0 35 26.3;" xml:space="preserve">
<style type="text/css">
	.st0{fill:url(#SVGID_1_);}
</style>
<linearGradient id="SVGID_1_" gradientUnits="userSpaceOnUse" x1="2.175" y1="0.725" x2="32.825" y2="31.375" gradientTransform="matrix(1 0 0 -1 0 29.2)">
	<stop  offset="0.1" style="stop-color:#2814FF"/>
	<stop  offset="0.1435" style="stop-color:#2324FF"/>
	<stop  offset="0.2998" style="stop-color:#145BFF"/>
	<stop  offset="0.4347" style="stop-color:#0983FF"/>
	<stop  offset="0.5417" style="stop-color:#029BFF"/>
	<stop  offset="0.6072" style="stop-color:#00A4FF"/>
	<stop  offset="0.6551" style="stop-color:#00ACCE"/>
	<stop  offset="0.7216" style="stop-color:#00B590"/>
	<stop  offset="0.7855" style="stop-color:#00BD5D"/>
	<stop  offset="0.8449" style="stop-color:#00C434"/>
	<stop  offset="0.8989" style="stop-color:#00C818"/>
	<stop  offset="0.9457" style="stop-color:#00CB06"/>
	<stop  offset="0.98" style="stop-color:#00CC00"/>
</linearGradient>
<path class="st0" d="M0,0v26.3h35V0H0z M2.4,23.9V2.5h30.1V24H2.4V23.9z M4.3,4v16.2h26.4V4H4.3z M6.5,18V6.2h22V18
	C28.5,18,6.5,18,6.5,18z M11.9,9.9l-2.1,2.2L7.7,9.9C7,9.2,7,8.2,7.7,7.6c0.2-0.2,0.5-0.4,0.8-0.4c0.4,0,0.9,0.2,1.4,0.5
	C10.6,7.1,11.5,7,12,7.6C12.5,8.2,12.5,9.2,11.9,9.9z M26.9,21.8c0,0.6-0.5,1-1,1s-1-0.5-1-1s0.5-1,1-1S26.9,21.3,26.9,21.8z
	 M28.9,20.8c-0.6,0-1,0.5-1,1s0.5,1,1,1s1-0.5,1-1S29.5,20.8,28.9,20.8z M25.6,13l-1.7-3.3l-1.6,3.8L20.4,8l-2,6l-0.6-1h-12v1.6h11
	l2.1,3.3l1.5-4.7l1.7,5l1.9-4.6l0.5,1h5.2v-1.7h-4.1V13z"/>
</svg>
