<?xml version="1.0" encoding="utf-8"?>
<!-- Generator: Adobe Illustrator 26.4.1, SVG Export Plug-In . SVG Version: 6.00 Build 0)  -->
<svg version="1.1" id="Layer_1" xmlns="http://www.w3.org/2000/svg" xmlns:xlink="http://www.w3.org/1999/xlink" x="0px" y="0px"
	 viewBox="0 0 26.6 26.6" style="enable-background:new 0 0 26.6 26.6;" xml:space="preserve">
<style type="text/css">
	.st0{fill:url(#SVGID_1_);}
</style>
<g id="Layer_1_00000020391621963381261000000013195054111632522912_">
	
		<linearGradient id="SVGID_1_" gradientUnits="userSpaceOnUse" x1="3.8959" y1="6.701" x2="22.7212" y2="25.5162" gradientTransform="matrix(1 0 0 -1 0 29.42)">
		<stop  offset="0.1" style="stop-color:#2814FF"/>
		<stop  offset="0.14" style="stop-color:#2324FF"/>
		<stop  offset="0.3" style="stop-color:#145BFF"/>
		<stop  offset="0.43" style="stop-color:#0983FF"/>
		<stop  offset="0.54" style="stop-color:#029BFF"/>
		<stop  offset="0.61" style="stop-color:#00A4FF"/>
		<stop  offset="0.66" style="stop-color:#00ACCE"/>
		<stop  offset="0.72" style="stop-color:#00B590"/>
		<stop  offset="0.79" style="stop-color:#00BD5D"/>
		<stop  offset="0.84" style="stop-color:#00C434"/>
		<stop  offset="0.9" style="stop-color:#00C818"/>
		<stop  offset="0.95" style="stop-color:#00CB06"/>
		<stop  offset="0.98" style="stop-color:#00CC00"/>
	</linearGradient>
	<path class="st0" d="M16.6,12.7l2.9,3.6l-1.4,1.2l-1-1.2c-1,3.2-4.4,5.1-7.6,4.1c-2.6-0.8-4.3-3.2-4.3-5.9v-0.3H7v0.3
		c0,2.4,1.9,4.3,4.3,4.3c1.7,0,3.3-1,3.9-2.6L14.1,17L13,15.5L16.6,12.7z M15.4,6.1c-2.7,0-5,1.8-5.8,4.3L8.6,9.3l-1.4,1.1l2.9,3.6
		l3.6-2.8l-1.1-1.5l-1.2,0.9c0.7-1.6,2.2-2.7,4-2.7c2.4,0,4.3,1.9,4.2,4.3v0.3h1.8v-0.3C21.5,8.8,18.7,6.1,15.4,6.1L15.4,6.1z
		 M26.6,13.3c0,7.4-6,13.3-13.3,13.3C6,26.6,0,20.7,0,13.3C0,6,5.9,0,13.3,0C20.6,0,26.6,5.9,26.6,13.3
		C26.6,13.3,26.6,13.3,26.6,13.3z M13.3,2.2c-6.1,0-11.1,5-11.1,11.1s5,11.1,11.1,11.1c6.1,0,11.1-5,11.1-11.1
		C24.4,7.2,19.4,2.2,13.3,2.2z"/>
</g>
</svg>
