<?xml version="1.0" encoding="utf-8"?>
<!-- Generator: Adobe Illustrator 26.4.1, SVG Export Plug-In . SVG Version: 6.00 Build 0)  -->
<svg version="1.1" id="Layer_1" xmlns="http://www.w3.org/2000/svg" xmlns:xlink="http://www.w3.org/1999/xlink" x="0px" y="0px"
	 viewBox="0 0 15.7 22.6" style="enable-background:new 0 0 15.7 22.6;" xml:space="preserve">
<style type="text/css">
	.st0{fill:url(#SVGID_1_);}
</style>
<g id="Layer_1_00000155142869634246156770000009520851377194042257_">
	
		<linearGradient id="SVGID_1_" gradientUnits="userSpaceOnUse" x1="1.3577" y1="9.2527" x2="14.2777" y2="22.1827" gradientTransform="matrix(1 0 0 -1 0 25.4208)">
		<stop  offset="0.1" style="stop-color:#2814FF"/>
		<stop  offset="0.14" style="stop-color:#2324FF"/>
		<stop  offset="0.3" style="stop-color:#145BFF"/>
		<stop  offset="0.43" style="stop-color:#0983FF"/>
		<stop  offset="0.54" style="stop-color:#029BFF"/>
		<stop  offset="0.61" style="stop-color:#00A4FF"/>
		<stop  offset="0.66" style="stop-color:#00ACCE"/>
		<stop  offset="0.72" style="stop-color:#00B590"/>
		<stop  offset="0.79" style="stop-color:#00BD5D"/>
		<stop  offset="0.84" style="stop-color:#00C434"/>
		<stop  offset="0.9" style="stop-color:#00C818"/>
		<stop  offset="0.95" style="stop-color:#00CB06"/>
		<stop  offset="0.98" style="stop-color:#00CC00"/>
	</linearGradient>
	<path class="st0" d="M7.8,0C3.5,0,0,3.5,0,7.8l0,0c0,1.8,0.6,3.5,1.7,4.9C3,14.6,6.4,20.3,6.8,21l1,1.6l1-1.6
		c0-0.1,3.8-6.3,5.1-8.3c1.1-1.4,1.7-3.1,1.7-4.9C15.7,3.5,12.2,0,7.8,0C7.9,0,7.8,0,7.8,0z M13.4,7.8c0,1.3-0.5,2.6-1.3,3.6
		c-1,1.4-2.9,4.6-4.3,6.8c-1.3-2.2-3.3-5.4-4.3-6.8c-0.8-1-1.3-2.3-1.3-3.6c0-3.1,2.5-5.6,5.6-5.6S13.4,4.7,13.4,7.8L13.4,7.8z
		 M10.4,7.8c0,1.4-1.2,2.6-2.6,2.6S5.2,9.2,5.2,7.8s1.2-2.6,2.6-2.6l0,0C9.2,5.2,10.4,6.4,10.4,7.8L10.4,7.8z"/>
</g>
</svg>
