<?xml version="1.0" encoding="utf-8"?>
<!-- Generator: Adobe Illustrator 26.4.1, SVG Export Plug-In . SVG Version: 6.00 Build 0)  -->
<svg version="1.1" id="Layer_1" xmlns="http://www.w3.org/2000/svg" xmlns:xlink="http://www.w3.org/1999/xlink" x="0px" y="0px"
	 viewBox="0 0 26.8 17.8" style="enable-background:new 0 0 26.8 17.8;" xml:space="preserve">
<style type="text/css">
	.st0{fill:url(#SVGID_1_);}
</style>
<g id="Layer_1_00000178926279725762275720000014368336758508373947_">
	
		<linearGradient id="SVGID_1_" gradientUnits="userSpaceOnUse" x1="4.245" y1="1.765" x2="22.505" y2="20.025" gradientTransform="matrix(1 0 0 -1 0 23.84)">
		<stop  offset="0.1" style="stop-color:#2814FF"/>
		<stop  offset="0.14" style="stop-color:#2324FF"/>
		<stop  offset="0.3" style="stop-color:#145BFF"/>
		<stop  offset="0.43" style="stop-color:#0983FF"/>
		<stop  offset="0.54" style="stop-color:#029BFF"/>
		<stop  offset="0.61" style="stop-color:#00A4FF"/>
		<stop  offset="0.66" style="stop-color:#00ACCE"/>
		<stop  offset="0.72" style="stop-color:#00B590"/>
		<stop  offset="0.79" style="stop-color:#00BD5D"/>
		<stop  offset="0.84" style="stop-color:#00C434"/>
		<stop  offset="0.9" style="stop-color:#00C818"/>
		<stop  offset="0.95" style="stop-color:#00CB06"/>
		<stop  offset="0.98" style="stop-color:#00CC00"/>
	</linearGradient>
	<path class="st0" d="M24.9,15.8V6.2h-5.7c-0.9-2.3-3.1-3.8-5.6-3.9V1.4h0.8V0h-2.2v2.4c-2.2,0.4-4,1.8-4.8,3.9H1.8v9.5H0v2h26.8v-2
		H24.9z M22.9,8.3v7.5h-0.6V8.3L22.9,8.3z M20.3,8.3v7.5h-0.8V8.3L20.3,8.3z M13.4,4.4c1.4,0,2.8,0.7,3.6,1.9H9.8
		C10.6,5.1,11.9,4.3,13.4,4.4L13.4,4.4z M14.5,15.4h-2.3v-2.2c0.1-0.6,0.7-1.1,1.3-1c0.5,0.1,0.9,0.5,1,1L14.5,15.4z M13.4,10.4
		c-1.6-0.1-2.9,1.2-3,2.8c0,0,0,0,0,0v2.5H9.2V8.3h8.2v7.5h-1.1v-2.5C16.3,11.7,15,10.4,13.4,10.4L13.4,10.4z M7.2,8.3v7.5H6.5V8.3
		L7.2,8.3z M4.4,8.3v7.5H3.9V8.3L4.4,8.3z"/>
</g>
</svg>
