<?xml version="1.0" encoding="utf-8"?>
<!-- Generator: Adobe Illustrator 26.4.1, SVG Export Plug-In . SVG Version: 6.00 Build 0)  -->
<svg version="1.1" id="Layer_1" xmlns="http://www.w3.org/2000/svg" xmlns:xlink="http://www.w3.org/1999/xlink" x="0px" y="0px"
	 viewBox="0 0 31.2 25.8" style="enable-background:new 0 0 31.2 25.8;" xml:space="preserve">
<style type="text/css">
	.st0{fill:url(#SVGID_1_);}
</style>
<linearGradient id="SVGID_1_" gradientUnits="userSpaceOnUse" x1="6.9542" y1="3.2735" x2="26.7076" y2="23.027" gradientTransform="matrix(1 0 0 -1 0 28.4)">
	<stop  offset="0.1" style="stop-color:#2814FF"/>
	<stop  offset="0.1435" style="stop-color:#2324FF"/>
	<stop  offset="0.2998" style="stop-color:#145BFF"/>
	<stop  offset="0.4347" style="stop-color:#0983FF"/>
	<stop  offset="0.5417" style="stop-color:#029BFF"/>
	<stop  offset="0.6072" style="stop-color:#00A4FF"/>
	<stop  offset="0.6551" style="stop-color:#00ACCE"/>
	<stop  offset="0.7216" style="stop-color:#00B590"/>
	<stop  offset="0.7855" style="stop-color:#00BD5D"/>
	<stop  offset="0.8449" style="stop-color:#00C434"/>
	<stop  offset="0.8989" style="stop-color:#00C818"/>
	<stop  offset="0.9457" style="stop-color:#00CB06"/>
	<stop  offset="0.98" style="stop-color:#00CC00"/>
</linearGradient>
<path class="st0" d="M24.2,10c0-2.4-1.9-4.3-4.3-4.4c-0.6-1.6-2.2-2.7-4-2.7c-0.3,0-0.5,0-0.8,0.1C14,1.1,12,0,9.8,0
	C7.2,0,4.8,1.7,4,4.2C1.7,4.8,0,6.9,0,9.3c0,2.9,2.4,5.3,5.3,5.3h2.1v11.2h23.8V10H24.2z M18,10l-2.2-2.2H7.5v4.6H5.4
	c-1.7,0-3.1-1.4-3.1-3.1c0-1.6,1.2-2.9,2.8-3.1l0.8-0.1l0.2-0.8c0.4-1.8,2-3.2,3.9-3.2c1.6,0,3.1,1,3.7,2.6l0.4,1.1l1.1-0.5
	c0.3-0.1,0.6-0.2,0.9-0.2c1,0,1.9,0.8,2.1,1.8l0.1,1.2l1.1-0.2c1.5-0.3,2.6,0.8,2.7,2.1H18z M9.7,10h5.2l2.2,2.2h12v11.3H9.7V10z
	 M21.5,16.8V16c0-0.6-0.2-1.1-0.6-1.5s-0.9-0.6-1.5-0.6c-1.2,0-2.1,0.9-2.1,2.1v0.8h-0.4v4.1h5v-4.1H21.5z M18.4,16
	c0-0.6,0.5-1.1,1.1-1.1c0.3,0,0.6,0.1,0.8,0.3c0.2,0.2,0.3,0.5,0.3,0.8v0.8h-2.1L18.4,16L18.4,16z"/>
</svg>
