<?xml version="1.0" encoding="utf-8"?>
<!-- Generator: Adobe Illustrator 26.4.1, SVG Export Plug-In . SVG Version: 6.00 Build 0)  -->
<svg version="1.1" id="Layer_1" xmlns="http://www.w3.org/2000/svg" xmlns:xlink="http://www.w3.org/1999/xlink" x="0px" y="0px"
	 viewBox="0 0 26.9 22.7" style="enable-background:new 0 0 26.9 22.7;" xml:space="preserve">
<style type="text/css">
	.st0{fill:url(#SVGID_1_);}
</style>
<g id="Layer_1_00000149350727255007718620000017621086855988447380_">
	
		<linearGradient id="SVGID_1_" gradientUnits="userSpaceOnUse" x1="2.7032" y1="-5.162369e-02" x2="21.3382" y2="18.5834" gradientTransform="matrix(1 0 0 -1 0 25.3033)">
		<stop  offset="0.1" style="stop-color:#2814FF"/>
		<stop  offset="0.14" style="stop-color:#2324FF"/>
		<stop  offset="0.3" style="stop-color:#145BFF"/>
		<stop  offset="0.43" style="stop-color:#0983FF"/>
		<stop  offset="0.54" style="stop-color:#029BFF"/>
		<stop  offset="0.61" style="stop-color:#00A4FF"/>
		<stop  offset="0.66" style="stop-color:#00ACCE"/>
		<stop  offset="0.72" style="stop-color:#00B590"/>
		<stop  offset="0.79" style="stop-color:#00BD5D"/>
		<stop  offset="0.84" style="stop-color:#00C434"/>
		<stop  offset="0.9" style="stop-color:#00C818"/>
		<stop  offset="0.95" style="stop-color:#00CB06"/>
		<stop  offset="0.98" style="stop-color:#00CC00"/>
	</linearGradient>
	<path class="st0" d="M13,3.6c-0.2,0-0.4,0.1-0.6,0.1c-1-0.1-2-0.5-2.8-1.2C9.1,1.8,8.2,1.6,7.4,1.8C6.9,2,6.5,2.3,6.3,2.8l0,0H6
		v0.2H4.6V2.8c0.2-1.1,1-2,2-2.5C7.5-0.1,9-0.3,10.8,1.2C11.3,1.7,11.9,2,12.7,2c0.4-0.1,0.7-0.4,0.9-0.8L13.7,1l1.5,0.7l-0.1,0.2
		C14.7,2.8,13.9,3.4,13,3.6z M19.9,5.6l-0.1,0.2c-0.1,0.2-0.3,0.3-0.5,0.3c-0.3,0-0.5-0.1-0.7-0.3c-0.6-0.6-1.5-0.8-2.4-0.6
		c-0.8,0.2-1.4,0.8-1.7,1.5l-0.1,0.2l1.4,0.5l0.1-0.2L16,7.3c0.2-0.2,0.4-0.4,0.7-0.5c0.3,0,0.6,0.1,0.8,0.3
		c0.5,0.4,1.1,0.7,1.7,0.7h0.3l0,0c0.7-0.1,1.3-0.4,1.7-1l0.1-0.2L19.9,5.6z M26.9,20.5v2.2H0v-2.2h1.3l1-15.1h6l0.6,6.8h1.9V8.5
		h2.2v3.6H14V8.4h2.2v3.7h9.5v8.4L26.9,20.5z M15.1,19.2v1.2h2.9v-1.2H15.1z M20.1,17v3.4h3.4v-6.1H9.1l0.5,6.1h3.3V17H20.1z
		 M4.4,7.5L3.5,20.4h3.9L6.3,7.5H4.4z"/>
</g>
</svg>
