<?xml version="1.0" encoding="utf-8"?>
<!-- Generator: Adobe Illustrator 26.4.1, SVG Export Plug-In . SVG Version: 6.00 Build 0)  -->
<svg version="1.1" id="Layer_1" xmlns="http://www.w3.org/2000/svg" xmlns:xlink="http://www.w3.org/1999/xlink" x="0px" y="0px"
	 viewBox="0 0 26.8 19.7" style="enable-background:new 0 0 26.8 19.7;" xml:space="preserve">
<style type="text/css">
	.st0{fill:url(#SVGID_1_);}
</style>
<g id="Layer_1_00000119808890429052835370000005338263156347237261_">
	
		<linearGradient id="SVGID_1_" gradientUnits="userSpaceOnUse" x1="3.4175" y1="-0.6575" x2="23.3025" y2="19.2275" gradientTransform="matrix(1 0 0 -1 0 22.54)">
		<stop  offset="0.1" style="stop-color:#2814FF"/>
		<stop  offset="0.14" style="stop-color:#2324FF"/>
		<stop  offset="0.3" style="stop-color:#145BFF"/>
		<stop  offset="0.43" style="stop-color:#0983FF"/>
		<stop  offset="0.54" style="stop-color:#029BFF"/>
		<stop  offset="0.61" style="stop-color:#00A4FF"/>
		<stop  offset="0.66" style="stop-color:#00ACCE"/>
		<stop  offset="0.72" style="stop-color:#00B590"/>
		<stop  offset="0.79" style="stop-color:#00BD5D"/>
		<stop  offset="0.84" style="stop-color:#00C434"/>
		<stop  offset="0.9" style="stop-color:#00C818"/>
		<stop  offset="0.95" style="stop-color:#00CB06"/>
		<stop  offset="0.98" style="stop-color:#00CC00"/>
	</linearGradient>
	<path class="st0" d="M13.8,0h-0.6L1.8,4.9v2H25v-2L13.8,0z M7.1,4.8l6.3-2.8l6.3,2.8H7.1z M24.9,17.7V9.9h0.6v-2H1.2v2h0.6v7.8H0v2
		h26.8v-2H24.9z M4.8,17.7H3.9V9.9h0.9V17.7z M7.8,17.7h-1V9.9h0.9L7.8,17.7z M14.1,17.7h-1.3v-3.6H14L14.1,17.7z M17.1,17.7h-1
		v-5.6h-5.3v5.6h-1V9.9h7.3L17.1,17.7z M20,17.7h-0.9V9.9H20V17.7z M23,17.7h-0.9V9.9H23V17.7z"/>
</g>
</svg>
