<?xml version="1.0" encoding="utf-8"?>
<!-- Generator: Adobe Illustrator 26.4.1, SVG Export Plug-In . SVG Version: 6.00 Build 0)  -->
<svg version="1.1" id="Layer_1" xmlns="http://www.w3.org/2000/svg" xmlns:xlink="http://www.w3.org/1999/xlink" x="0px" y="0px"
	 viewBox="0 0 26.8 15.6" style="enable-background:new 0 0 26.8 15.6;" xml:space="preserve">
<style type="text/css">
	.st0{fill:url(#SVGID_1_);}
</style>
<g id="Layer_1_00000173860503023675568060000009830718788351813510_">
	
		<linearGradient id="SVGID_1_" gradientUnits="userSpaceOnUse" x1="3.245" y1="9.499903e-02" x2="23.505" y2="20.355" gradientTransform="matrix(1 0 0 -1 0 18.92)">
		<stop  offset="0.1" style="stop-color:#2814FF"/>
		<stop  offset="0.14" style="stop-color:#2324FF"/>
		<stop  offset="0.3" style="stop-color:#145BFF"/>
		<stop  offset="0.43" style="stop-color:#0983FF"/>
		<stop  offset="0.54" style="stop-color:#029BFF"/>
		<stop  offset="0.61" style="stop-color:#00A4FF"/>
		<stop  offset="0.66" style="stop-color:#00ACCE"/>
		<stop  offset="0.72" style="stop-color:#00B590"/>
		<stop  offset="0.79" style="stop-color:#00BD5D"/>
		<stop  offset="0.84" style="stop-color:#00C434"/>
		<stop  offset="0.9" style="stop-color:#00C818"/>
		<stop  offset="0.95" style="stop-color:#00CB06"/>
		<stop  offset="0.98" style="stop-color:#00CC00"/>
	</linearGradient>
	<path class="st0" d="M12.1,10.2c0,0.3-0.2,0.5-0.5,0.5S11,10.5,11,10.2c0-0.3,0.2-0.5,0.5-0.5c0,0,0,0,0,0
		C11.9,9.7,12.1,9.9,12.1,10.2z M15.1,9.7c-0.3,0-0.5,0.2-0.5,0.5s0.2,0.5,0.5,0.5s0.5-0.2,0.5-0.5C15.7,9.9,15.5,9.7,15.1,9.7
		C15.2,9.7,15.1,9.7,15.1,9.7L15.1,9.7z M26.8,13.6v2H0v-2h1.8V0h23.2v13.6H26.8z M18.4,6.9v6.7h4.5V6.9H18.4z M14.4,6.9v6.7h1.9
		V6.9H14.4z M10.4,6.9v6.7h1.9V6.9H10.4z M3.8,6.9v6.7h4.5V6.9H3.8z M3.8,2v2.8h19V2L3.8,2z"/>
</g>
</svg>
