<?xml version="1.0" encoding="utf-8"?>
<!-- Generator: Adobe Illustrator 26.4.1, SVG Export Plug-In . SVG Version: 6.00 Build 0)  -->
<svg version="1.1" id="Layer_1" xmlns="http://www.w3.org/2000/svg" xmlns:xlink="http://www.w3.org/1999/xlink" x="0px" y="0px"
	 viewBox="0 0 21 27.1" style="enable-background:new 0 0 21 27.1;" xml:space="preserve">
<style type="text/css">
	.st0{fill:url(#SVGID_1_);}
</style>
<g id="Layer_1_00000132792043359986478520000014416888979609076659_">
	
		<linearGradient id="SVGID_1_" gradientUnits="userSpaceOnUse" x1="-1.5675" y1="4.3775" x2="19.9725" y2="25.9175" gradientTransform="matrix(1 0 0 -1 0 30)">
		<stop  offset="0.1" style="stop-color:#2814FF"/>
		<stop  offset="0.14" style="stop-color:#2324FF"/>
		<stop  offset="0.3" style="stop-color:#145BFF"/>
		<stop  offset="0.43" style="stop-color:#0983FF"/>
		<stop  offset="0.54" style="stop-color:#029BFF"/>
		<stop  offset="0.61" style="stop-color:#00A4FF"/>
		<stop  offset="0.66" style="stop-color:#00ACCE"/>
		<stop  offset="0.72" style="stop-color:#00B590"/>
		<stop  offset="0.79" style="stop-color:#00BD5D"/>
		<stop  offset="0.84" style="stop-color:#00C434"/>
		<stop  offset="0.9" style="stop-color:#00C818"/>
		<stop  offset="0.95" style="stop-color:#00CB06"/>
		<stop  offset="0.98" style="stop-color:#00CC00"/>
	</linearGradient>
	<path class="st0" d="M21,5.1v22H0V0h15.9L21,5.1z M14.2,6.8V2.5H2.4v22.2h16.1V6.8L14.2,6.8z M4.5,23h3.2v-5.2H4.5V23z M8.8,23H12
		v-8.2H8.8V23z M13.1,13.3V23h3.2v-9.7H13.1z M6.8,7.4H6.6c-0.2,0-0.4,0.1-0.5,0.1c-1.3,0.4-2,1.7-1.7,3v0.2L6.8,10L6.8,7.4z
		 M7.3,7.5H7.1v2.7L4.6,11l0.1,0.2c0.4,0.9,1.3,1.6,2.4,1.5c1.4,0,2.6-1.1,2.6-2.5C9.7,8.8,8.7,7.7,7.3,7.5L7.3,7.5z M11,8.6v1.2
		h5.3V8.7L11,8.6z M11,11.6h5.3v-1.2H11L11,11.6z"/>
</g>
</svg>
