<?xml version="1.0" encoding="utf-8"?>
<!-- Generator: Adobe Illustrator 26.4.1, SVG Export Plug-In . SVG Version: 6.00 Build 0)  -->
<svg version="1.1" id="Layer_1" xmlns="http://www.w3.org/2000/svg" xmlns:xlink="http://www.w3.org/1999/xlink" x="0px" y="0px"
	 viewBox="0 0 28.1 20.9" style="enable-background:new 0 0 28.1 20.9;" xml:space="preserve">
<style type="text/css">
	.st0{fill:url(#SVGID_1_);}
</style>
<g id="Layer_1_00000098932310596818665100000008045074951456862098_">
	
		<linearGradient id="SVGID_1_" gradientUnits="userSpaceOnUse" x1="1.81" y1="1.33" x2="26.29" y2="25.81" gradientTransform="matrix(1 0 0 -1 0 24)">
		<stop  offset="0.1" style="stop-color:#2814FF"/>
		<stop  offset="0.14" style="stop-color:#2324FF"/>
		<stop  offset="0.3" style="stop-color:#145BFF"/>
		<stop  offset="0.43" style="stop-color:#0983FF"/>
		<stop  offset="0.54" style="stop-color:#029BFF"/>
		<stop  offset="0.61" style="stop-color:#00A4FF"/>
		<stop  offset="0.66" style="stop-color:#00ACCE"/>
		<stop  offset="0.72" style="stop-color:#00B590"/>
		<stop  offset="0.79" style="stop-color:#00BD5D"/>
		<stop  offset="0.84" style="stop-color:#00C434"/>
		<stop  offset="0.9" style="stop-color:#00C818"/>
		<stop  offset="0.95" style="stop-color:#00CB06"/>
		<stop  offset="0.98" style="stop-color:#00CC00"/>
	</linearGradient>
	<path class="st0" d="M0,0v20.9h28.1V0H0z M2.4,2.4V1.9h11.6v0.5H2.4z M25.2,2.5V1.8h0.7v0.8L25.2,2.5z M2.4,18.4V4.2h23.2v14.3H2.4
		z M8.4,8.3L5.6,9.2V9.1C5.2,7.5,6.1,5.9,7.7,5.5c0.2-0.1,0.4-0.1,0.6-0.1h0.1L8.4,8.3z M8.9,5.4H8.8v3.2l-3,1l0.1,0.1
		c0.5,1.1,1.6,1.8,2.8,1.8c1.7,0,3.1-1.4,3-3.1C11.6,6.8,10.5,5.5,8.9,5.4L8.9,5.4z M19.9,11.8h-0.1v2.7l1.6,2.2l0.1-0.1
		c0.6-0.5,0.9-1.2,0.9-2C22.3,13.1,21.3,11.9,19.9,11.8L19.9,11.8z M19.4,11.8h-0.1c-0.5,0-0.9,0.2-1.3,0.5c-0.6,0.4-1,1.1-1.1,1.8
		c-0.2,1.5,0.8,2.9,2.2,3.1c0.1,0,0.2,0,0.3,0c0.5,0,0.9-0.1,1.3-0.4l0.1-0.1l-1.6-2.2L19.4,11.8z M16,6.8v1.4h7.1V6.8L16,6.8z
		 M16,10.1h7.1V8.7h-7.2L16,10.1z M5,12.9v1.4h7.1v-1.4L5,12.9z M5,16.2h7.1v-1.4H5L5,16.2z"/>
</g>
</svg>
