<?xml version="1.0" encoding="utf-8"?>
<!-- Generator: Adobe Illustrator 26.4.1, SVG Export Plug-In . SVG Version: 6.00 Build 0)  -->
<svg version="1.1" id="Layer_1" xmlns="http://www.w3.org/2000/svg" xmlns:xlink="http://www.w3.org/1999/xlink" x="0px" y="0px"
	 viewBox="0 0 28.1 20.9" style="enable-background:new 0 0 28.1 20.9;" xml:space="preserve">
<style type="text/css">
	.st0{fill:url(#SVGID_1_);}
</style>
<g id="Layer_1_00000149376507326613100860000002910827247925325956_">
	
		<linearGradient id="SVGID_1_" gradientUnits="userSpaceOnUse" x1="1.8096" y1="1.3296" x2="26.3004" y2="25.8104" gradientTransform="matrix(1 0 0 -1 0 24)">
		<stop  offset="0.1" style="stop-color:#2814FF"/>
		<stop  offset="0.14" style="stop-color:#2324FF"/>
		<stop  offset="0.3" style="stop-color:#145BFF"/>
		<stop  offset="0.43" style="stop-color:#0983FF"/>
		<stop  offset="0.54" style="stop-color:#029BFF"/>
		<stop  offset="0.61" style="stop-color:#00A4FF"/>
		<stop  offset="0.66" style="stop-color:#00ACCE"/>
		<stop  offset="0.72" style="stop-color:#00B590"/>
		<stop  offset="0.79" style="stop-color:#00BD5D"/>
		<stop  offset="0.84" style="stop-color:#00C434"/>
		<stop  offset="0.9" style="stop-color:#00C818"/>
		<stop  offset="0.95" style="stop-color:#00CB06"/>
		<stop  offset="0.98" style="stop-color:#00CC00"/>
	</linearGradient>
	<path class="st0" d="M20.7,10.8c0,0.6-0.4,1-1,1c-0.4,0-0.7-0.2-0.9-0.5l-3.2,0.4c0,0.4-0.2,0.7-0.4,1l1.5,1.2
		c0.2-0.2,0.5-0.3,0.8-0.2c0.7,0,1.3,0.6,1.3,1.3c0,0.7-0.6,1.3-1.3,1.3c-0.7,0-1.3-0.6-1.3-1.3c0-0.2,0.1-0.4,0.2-0.6L14.7,13
		c-0.3,0.1-0.6,0.2-0.9,0.2c-0.4,0-0.7-0.1-1-0.3l-1.5,1.6c0.1,0.2,0.2,0.4,0.2,0.7c0,0.7-0.6,1.3-1.3,1.3S8.9,16,8.9,15.2
		S9.5,14,10.2,14h0c0.3,0,0.5,0.1,0.7,0.2l1.5-1.7c-0.2-0.3-0.3-0.6-0.4-1l-2-0.3c-0.3,0.7-1.1,1-1.8,0.7c-0.7-0.3-1-1.1-0.7-1.8
		c0.3-0.7,1.1-1,1.8-0.7c0.5,0.2,0.8,0.7,0.8,1.2l2,0.3c0.1-0.4,0.4-0.8,0.7-1l-0.9-1.8h-0.2c-0.6,0-1-0.4-1-1c0-0.6,0.4-1,1-1
		c0.6,0,1,0.4,1,1c0,0.3-0.1,0.6-0.3,0.7l0.9,1.8c0.1,0,0.3-0.1,0.5-0.1c0.4,0,0.7,0.1,1,0.3l1.6-1.6c-0.1-0.2-0.2-0.4-0.2-0.7
		c0-0.7,0.5-1.2,1.2-1.2c0.7,0,1.2,0.5,1.2,1.2c0,0.7-0.5,1.2-1.2,1.2c0,0,0,0,0,0c-0.2,0-0.4-0.1-0.6-0.2l-1.6,1.6
		c0.2,0.2,0.3,0.5,0.3,0.8l3.1-0.4c0-0.6,0.5-1,1-1C20.3,9.8,20.7,10.2,20.7,10.8L20.7,10.8z M28.1,0v20.9H0V0H28.1z M14.1,2.4V1.9
		H2.5v0.5H14.1z M25.9,2.5V1.8h-0.7v0.7L25.9,2.5z M25.7,18.4V4.2H2.5v14.3L25.7,18.4z"/>
</g>
</svg>
