<?xml version="1.0" encoding="utf-8"?>
<!-- Generator: Adobe Illustrator 26.4.1, SVG Export Plug-In . SVG Version: 6.00 Build 0)  -->
<svg version="1.1" id="Layer_1" xmlns="http://www.w3.org/2000/svg" xmlns:xlink="http://www.w3.org/1999/xlink" x="0px" y="0px"
	 viewBox="0 0 29.9 21.9" style="enable-background:new 0 0 29.9 21.9;" xml:space="preserve">
<style type="text/css">
	.st0{fill:url(#SVGID_1_);}
</style>
<g id="Layer_1_00000013177170033605563420000002768679399631621053_">
	
		<linearGradient id="SVGID_1_" gradientUnits="userSpaceOnUse" x1="2.64" y1="0.33" x2="27.305" y2="24.995" gradientTransform="matrix(1 0 0 -1 0 24.92)">
		<stop  offset="0.1" style="stop-color:#2814FF"/>
		<stop  offset="0.14" style="stop-color:#2324FF"/>
		<stop  offset="0.3" style="stop-color:#145BFF"/>
		<stop  offset="0.43" style="stop-color:#0983FF"/>
		<stop  offset="0.54" style="stop-color:#029BFF"/>
		<stop  offset="0.61" style="stop-color:#00A4FF"/>
		<stop  offset="0.66" style="stop-color:#00ACCE"/>
		<stop  offset="0.72" style="stop-color:#00B590"/>
		<stop  offset="0.79" style="stop-color:#00BD5D"/>
		<stop  offset="0.84" style="stop-color:#00C434"/>
		<stop  offset="0.9" style="stop-color:#00C818"/>
		<stop  offset="0.95" style="stop-color:#00CB06"/>
		<stop  offset="0.98" style="stop-color:#00CC00"/>
	</linearGradient>
	<path class="st0" d="M2.6,0v17.5h24.7V0H2.6z M5,15.1V2.4h20v12.8L5,15.1z M29.9,19.6v2.4H0v-2.4L29.9,19.6z M20.5,4l-5.6,1L9.4,4
		v8.4l1.6,0.3H9v0.9h11.9v-0.9h-2l1.6-0.3L20.5,4z M14.5,5.8v6.4l-4.1-0.7V5.1L14.5,5.8z M15.5,12.3V5.8l4.1-0.7v6.4L15.5,12.3z"/>
</g>
</svg>
