<?xml version="1.0" encoding="utf-8"?>
<!-- Generator: Adobe Illustrator 26.4.1, SVG Export Plug-In . SVG Version: 6.00 Build 0)  -->
<svg version="1.1" id="Layer_1" xmlns="http://www.w3.org/2000/svg" xmlns:xlink="http://www.w3.org/1999/xlink" x="0px" y="0px"
	 viewBox="0 0 18.9 22.8" style="enable-background:new 0 0 18.9 22.8;" xml:space="preserve">
<style type="text/css">
	.st0{fill:url(#SVGID_1_);}
</style>
<g id="Layer_1_00000115500949693131671730000004468173537465289380_">
	
		<linearGradient id="SVGID_1_" gradientUnits="userSpaceOnUse" x1="1.3625" y1="9.4475" x2="17.5775" y2="25.6625" gradientTransform="matrix(1 0 0 -1 0 24.3)">
		<stop  offset="0.1" style="stop-color:#2814FF"/>
		<stop  offset="0.14" style="stop-color:#2324FF"/>
		<stop  offset="0.3" style="stop-color:#145BFF"/>
		<stop  offset="0.43" style="stop-color:#0983FF"/>
		<stop  offset="0.54" style="stop-color:#029BFF"/>
		<stop  offset="0.61" style="stop-color:#00A4FF"/>
		<stop  offset="0.66" style="stop-color:#00ACCE"/>
		<stop  offset="0.72" style="stop-color:#00B590"/>
		<stop  offset="0.79" style="stop-color:#00BD5D"/>
		<stop  offset="0.84" style="stop-color:#00C434"/>
		<stop  offset="0.9" style="stop-color:#00C818"/>
		<stop  offset="0.95" style="stop-color:#00CB06"/>
		<stop  offset="0.98" style="stop-color:#00CC00"/>
	</linearGradient>
	<path class="st0" d="M18.9,10.9V0H0v10.9h7.5v5.8l-2.7-2.7l-2.1,2.2l6.8,6.7l6.8-6.7l-2.1-2.2l-2.7,2.7v-5.8H18.9z M16.7,2.2v6.4
		H2.2V2.2L16.7,2.2z M8.6,5.7C8.8,5.6,8.9,5.5,9,5.3c0.3-0.5,0.2-1.1-0.2-1.5C8.5,3.6,8.1,3.5,7.7,3.5H6.6v3.8h0.9V5.9h0.3l0.9,1.4
		l0,0h1L9.6,7.2C9.4,7,9.1,6.4,8.6,5.7z M7.5,4.3h0.2c0.2,0,0.4,0,0.5,0.1c0.1,0.1,0.2,0.2,0.1,0.3c0,0.1,0,0.3-0.1,0.3
		C8,5.1,7.8,5.1,7.7,5.1H7.5V4.3z M3.9,3.5h2.2v0.8H4.8v0.8H6v0.8H4.8v1.5H3.9V3.5z M9.9,3.5h2.3v0.8h-1.3v0.6h1.2v0.8h-1.2v0.8h1.3
		v0.8H9.9L9.9,3.5z M13.7,4.3v0.6H15v0.8h-1.3v0.8H15v0.8h-2.2V3.5H15v0.8H13.7z"/>
</g>
</svg>
