<?xml version="1.0" encoding="utf-8"?>
<!-- Generator: Adobe Illustrator 26.4.1, SVG Export Plug-In . SVG Version: 6.00 Build 0)  -->
<svg version="1.1" id="Layer_1" xmlns="http://www.w3.org/2000/svg" xmlns:xlink="http://www.w3.org/1999/xlink" x="0px" y="0px"
	 viewBox="0 0 28.3 21.4" style="enable-background:new 0 0 28.3 21.4;" xml:space="preserve">
<style type="text/css">
	.st0{fill:url(#SVGID_1_);}
</style>
<g id="Layer_1_00000183969725288711598980000012017167169452603527_">
	
		<linearGradient id="SVGID_1_" gradientUnits="userSpaceOnUse" x1="3.8765" y1="0.8526" x2="24.6914" y2="21.6574" gradientTransform="matrix(1 0 0 -1 0 24.16)">
		<stop  offset="0.1" style="stop-color:#2814FF"/>
		<stop  offset="0.14" style="stop-color:#2324FF"/>
		<stop  offset="0.3" style="stop-color:#145BFF"/>
		<stop  offset="0.43" style="stop-color:#0983FF"/>
		<stop  offset="0.54" style="stop-color:#029BFF"/>
		<stop  offset="0.61" style="stop-color:#00A4FF"/>
		<stop  offset="0.66" style="stop-color:#00ACCE"/>
		<stop  offset="0.72" style="stop-color:#00B590"/>
		<stop  offset="0.79" style="stop-color:#00BD5D"/>
		<stop  offset="0.84" style="stop-color:#00C434"/>
		<stop  offset="0.9" style="stop-color:#00C818"/>
		<stop  offset="0.95" style="stop-color:#00CB06"/>
		<stop  offset="0.98" style="stop-color:#00CC00"/>
	</linearGradient>
	<path class="st0" d="M10.4,12.1v1.8h-4v-1.8H10.4z M18.2,12.1v1.8h4v-1.8H18.2z M28.3,9.5H26l0.7,1.8v10.1h-6.6v-3.8H8.5v3.8H1.9
		L2,11.1l0.6-1.6H0V6.5h3.8L6.3,0h15.8l2.6,6.5h3.5V9.5z M7.9,2.2l-3.7,9.4v3.6h20.2v-3.6l-3.8-9.4L7.9,2.2z M22.2,9.6H6.6l2.4-6.1
		h10.8L22.2,9.6z M10.4,5.6L9.6,7.5h9.4l-0.8-1.9H10.4z"/>
</g>
</svg>
