<?xml version="1.0" encoding="utf-8"?>
<!-- Generator: Adobe Illustrator 26.4.1, SVG Export Plug-In . SVG Version: 6.00 Build 0)  -->
<svg version="1.1" id="Layer_1" xmlns="http://www.w3.org/2000/svg" xmlns:xlink="http://www.w3.org/1999/xlink" x="0px" y="0px"
	 viewBox="0 0 16.4 20.2" style="enable-background:new 0 0 16.4 20.2;" xml:space="preserve">
<style type="text/css">
	.st0{fill:url(#SVGID_1_);}
</style>
<linearGradient id="SVGID_1_" gradientUnits="userSpaceOnUse" x1="0.45" y1="6.45" x2="15.95" y2="21.95" gradientTransform="matrix(1 0 0 -1 0 23)">
	<stop  offset="0.1" style="stop-color:#2814FF"/>
	<stop  offset="0.1435" style="stop-color:#2324FF"/>
	<stop  offset="0.2998" style="stop-color:#145BFF"/>
	<stop  offset="0.4347" style="stop-color:#0983FF"/>
	<stop  offset="0.5417" style="stop-color:#029BFF"/>
	<stop  offset="0.6072" style="stop-color:#00A4FF"/>
	<stop  offset="0.6551" style="stop-color:#00ACCE"/>
	<stop  offset="0.7216" style="stop-color:#00B590"/>
	<stop  offset="0.7855" style="stop-color:#00BD5D"/>
	<stop  offset="0.8449" style="stop-color:#00C434"/>
	<stop  offset="0.8989" style="stop-color:#00C818"/>
	<stop  offset="0.9457" style="stop-color:#00CB06"/>
	<stop  offset="0.98" style="stop-color:#00CC00"/>
</linearGradient>
<path class="st0" d="M15.6,1.2C15.2,1.1,11.4,0,8.2,0C4.9,0,1,1.2,0.8,1.2L0,1.5v14.6l8.2,4.1l8.2-4.1V1.5L15.6,1.2z M2.3,3.2
	c1.3-0.3,3.8-0.9,5.9-0.9s4.6,0.6,5.9,0.9v11.5l-5.9,2.9l-5.9-2.9C2.3,14.7,2.3,3.2,2.3,3.2z M10.6,8c0,1-0.6,1.8-1.5,2.2v3.6H7.3
	v-3.6C6.4,9.8,5.8,9,5.8,8c0-1.3,1.1-2.4,2.4-2.4S10.6,6.7,10.6,8z"/>
</svg>
