<?xml version="1.0" encoding="utf-8"?>
<!-- Generator: Adobe Illustrator 26.4.1, SVG Export Plug-In . SVG Version: 6.00 Build 0)  -->
<svg version="1.1" id="Layer_1" xmlns="http://www.w3.org/2000/svg" xmlns:xlink="http://www.w3.org/1999/xlink" x="0px" y="0px"
	 viewBox="0 0 32.2 27.6" style="enable-background:new 0 0 32.2 27.6;" xml:space="preserve">
<style type="text/css">
	.st0{fill:url(#SVGID_1_);}
</style>
<g id="Layer_1_00000152950392454616096270000017623569813065389481_">
	
		<linearGradient id="SVGID_1_" gradientUnits="userSpaceOnUse" x1="5.255" y1="4.335" x2="29.135" y2="28.215" gradientTransform="matrix(1 0 0 -1 0 30)">
		<stop  offset="0.1" style="stop-color:#2814FF"/>
		<stop  offset="0.14" style="stop-color:#2324FF"/>
		<stop  offset="0.3" style="stop-color:#145BFF"/>
		<stop  offset="0.43" style="stop-color:#0983FF"/>
		<stop  offset="0.54" style="stop-color:#029BFF"/>
		<stop  offset="0.61" style="stop-color:#00A4FF"/>
		<stop  offset="0.66" style="stop-color:#00ACCE"/>
		<stop  offset="0.72" style="stop-color:#00B590"/>
		<stop  offset="0.79" style="stop-color:#00BD5D"/>
		<stop  offset="0.84" style="stop-color:#00C434"/>
		<stop  offset="0.9" style="stop-color:#00C818"/>
		<stop  offset="0.95" style="stop-color:#00CB06"/>
		<stop  offset="0.98" style="stop-color:#00CC00"/>
	</linearGradient>
	<path class="st0" d="M31.7,7.4L31.7,7.4l-2-3l-2.2-3.8L27.4,0L26,0.3h-0.3v0.1L5.1,4.5H4.8l-2.4,4l-1.9,3H0.5L0,12.2l0.1,0.2
		c0.2,2.9,2.6,5.2,5.5,5.3c2.9-0.1,5.3-2.4,5.5-5.3l0.1-0.2l-0.5-0.8h-0.1l-1.9-3L7.4,6.2l7-1.4l-6,20.5H7.1v2.2H25v-2.2h-1.3
		L17.5,4.2l6.7-1.3l-2.7,4.5h0L21,8.1l0.1,0.2c0.2,2.9,2.6,5.2,5.5,5.3c2.9-0.1,5.3-2.4,5.5-5.3l0.1-0.2L31.7,7.4z M2.7,13.8h5.8
		c-0.5,1.1-1.6,1.8-2.9,1.9C4.3,15.6,3.2,14.9,2.7,13.8L2.7,13.8z M3.1,11.6l2.5-4.1l2.5,4.1H3.1z M10.7,25.4l5.4-18.2l5.4,18.2
		H10.7z M24.1,7.4l2.5-4.1L29,7.4H24.1z M29.5,9.6c-0.7,1.6-2.6,2.3-4.2,1.6c-0.7-0.3-1.3-0.9-1.6-1.6H29.5z"/>
</g>
</svg>
