<?xml version="1.0" encoding="utf-8"?>
<!-- Generator: Adobe Illustrator 26.4.1, SVG Export Plug-In . SVG Version: 6.00 Build 0)  -->
<svg version="1.1" id="Layer_1" xmlns="http://www.w3.org/2000/svg" xmlns:xlink="http://www.w3.org/1999/xlink" x="0px" y="0px"
	 viewBox="0 0 27 32.3" style="enable-background:new 0 0 27 32.3;" xml:space="preserve">
<style type="text/css">
	.st0{fill:url(#SVGID_1_);}
</style>
<g id="Layer_1_00000085218872992061580810000015406535697441670838_">
	
		<linearGradient id="SVGID_1_" gradientUnits="userSpaceOnUse" x1="-0.1675" y1="2.9175" x2="27.1925" y2="30.2775" gradientTransform="matrix(1 0 0 -1 0 35.04)">
		<stop  offset="0.1" style="stop-color:#2814FF"/>
		<stop  offset="0.14" style="stop-color:#2324FF"/>
		<stop  offset="0.3" style="stop-color:#145BFF"/>
		<stop  offset="0.43" style="stop-color:#0983FF"/>
		<stop  offset="0.54" style="stop-color:#029BFF"/>
		<stop  offset="0.61" style="stop-color:#00A4FF"/>
		<stop  offset="0.66" style="stop-color:#00ACCE"/>
		<stop  offset="0.72" style="stop-color:#00B590"/>
		<stop  offset="0.79" style="stop-color:#00BD5D"/>
		<stop  offset="0.84" style="stop-color:#00C434"/>
		<stop  offset="0.9" style="stop-color:#00C818"/>
		<stop  offset="0.95" style="stop-color:#00CB06"/>
		<stop  offset="0.98" style="stop-color:#00CC00"/>
	</linearGradient>
	<path class="st0" d="M8.4,3.6h2.3v2.3H8.4V3.6z M12.2,24.1h2.3v-2.3h-2.3V24.1z M12.2,20.5h2.3v-2.3h-2.3V20.5z M8.4,9.6h2.3V7.2
		H8.4V9.6z M8.4,20.5h2.3v-2.3H8.4V20.5z M12.2,16.8h2.3v-2.3h-2.3V16.8z M8.4,24.1h2.3v-2.3H8.4V24.1z M8.4,13.2h2.3v-2.3H8.4V13.2
		z M8.4,16.8h2.3v-2.3H8.4V16.8z M12.2,13.2h2.3v-2.3h-2.3V13.2z M12.2,9.6h2.3V7.2h-2.3V9.6z M15.9,13.2h2.3v-2.3h-2.3V13.2z
		 M15.9,16.8h2.3v-2.3h-2.3V16.8z M15.9,3.6v2.3h2.3V3.6H15.9z M15.9,9.6h2.3V7.2h-2.3V9.6z M15.9,20.5h2.3v-2.4h-2.3V20.5z
		 M12.2,5.9h2.3V3.6h-2.3V5.9z M15.9,24.1h2.3v-2.3h-2.3V24.1z M22.4,30V0H4.6v30H0v2.3h27V30H22.4z M15.9,27.7V30H11v-2.3H15.9z
		 M8.7,25.4V30H6.9V2.2h13.2V30h-1.8v-4.6H8.7z"/>
</g>
</svg>
