<?xml version="1.0" encoding="utf-8"?>
<!-- Generator: Adobe Illustrator 26.4.1, SVG Export Plug-In . SVG Version: 6.00 Build 0)  -->
<svg version="1.1" id="Layer_1" xmlns="http://www.w3.org/2000/svg" xmlns:xlink="http://www.w3.org/1999/xlink" x="0px" y="0px"
	 viewBox="0 0 21.1 26.7" style="enable-background:new 0 0 21.1 26.7;" xml:space="preserve">
<style type="text/css">
	.st0{fill:url(#SVGID_1_);}
</style>
<g id="Layer_1_00000005969758913535713490000007061667351916801724_">
	
		<linearGradient id="SVGID_1_" gradientUnits="userSpaceOnUse" x1="-1.8458" y1="746.4575" x2="19.3042" y2="725.3076" gradientTransform="matrix(1 0 0 1 0 -722)">
		<stop  offset="0.1" style="stop-color:#2814FF"/>
		<stop  offset="0.14" style="stop-color:#2324FF"/>
		<stop  offset="0.3" style="stop-color:#145BFF"/>
		<stop  offset="0.43" style="stop-color:#0983FF"/>
		<stop  offset="0.54" style="stop-color:#029BFF"/>
		<stop  offset="0.61" style="stop-color:#00A4FF"/>
		<stop  offset="0.66" style="stop-color:#00ACCE"/>
		<stop  offset="0.72" style="stop-color:#00B590"/>
		<stop  offset="0.79" style="stop-color:#00BD5D"/>
		<stop  offset="0.84" style="stop-color:#00C434"/>
		<stop  offset="0.9" style="stop-color:#00C818"/>
		<stop  offset="0.95" style="stop-color:#00CB06"/>
		<stop  offset="0.98" style="stop-color:#00CC00"/>
	</linearGradient>
	<path class="st0" d="M19.5,16.9l-6.4-6.4c0.4-1.1-0.2-2.3-1.3-2.6c-0.4-0.2-0.9-0.2-1.4,0L4,1.5L3.2,2.3
		c-4.1,4.1-4.3,10.6-0.4,14.9l-2.4,9.5H13l-1.7-5.9c2.8,0,5.5-1.2,7.5-3.2L19.5,16.9z M3.2,24.5l1.5-5.7c1.2,0.9,2.7,1.5,4.1,1.8
		l1.1,3.9H3.2z M8.2,18.1C8,18,7.9,18,7.7,17.9l-0.2-0.1c-1-0.4-1.8-1-2.6-1.8l-0.7-0.7C1.7,12.2,1.6,7.7,4.1,4.6l12.2,12.2
		c-1.9,1.5-4.4,2.1-6.8,1.7l0,0L9,18.4l-0.5-0.1L8.2,18.1z M17.6,10.1v0.5l-2.2-0.1V10c0.1-1.2-0.3-2.5-1.1-3.4
		c-0.9-0.8-2.1-1.2-3.3-1.1h-0.5l-0.1-2.2h0.5c1.8-0.2,3.6,0.5,5,1.7C17.1,6.5,17.7,8.3,17.6,10.1L17.6,10.1z M21.1,9.6v0.5h-2.2
		V9.6c0.1-2.1-0.6-4.1-2-5.6c-1.5-1.3-3.4-2-5.4-1.9H11V0h0.5c2.6-0.1,5.1,0.8,7,2.5C20.3,4.4,21.2,7,21.1,9.6L21.1,9.6z"/>
</g>
</svg>
