<?xml version="1.0" encoding="utf-8"?>
<!-- Generator: Adobe Illustrator 26.4.1, SVG Export Plug-In . SVG Version: 6.00 Build 0)  -->
<svg version="1.1" id="Layer_1" xmlns="http://www.w3.org/2000/svg" xmlns:xlink="http://www.w3.org/1999/xlink" x="0px" y="0px"
	 viewBox="0 0 24.3 21" style="enable-background:new 0 0 24.3 21;" xml:space="preserve">
<style type="text/css">
	.st0{fill:url(#SVGID_1_);}
</style>
<g id="Layer_1_00000142147612440496866220000006097404014854197149_">
	
		<linearGradient id="SVGID_1_" gradientUnits="userSpaceOnUse" x1="4.8371" y1="1.4858" x2="22.3193" y2="18.958" gradientTransform="matrix(1 0 0 -1 0 23.84)">
		<stop  offset="0.1" style="stop-color:#2814FF"/>
		<stop  offset="0.14" style="stop-color:#2324FF"/>
		<stop  offset="0.3" style="stop-color:#145BFF"/>
		<stop  offset="0.43" style="stop-color:#0983FF"/>
		<stop  offset="0.54" style="stop-color:#029BFF"/>
		<stop  offset="0.61" style="stop-color:#00A4FF"/>
		<stop  offset="0.66" style="stop-color:#00ACCE"/>
		<stop  offset="0.72" style="stop-color:#00B590"/>
		<stop  offset="0.79" style="stop-color:#00BD5D"/>
		<stop  offset="0.84" style="stop-color:#00C434"/>
		<stop  offset="0.9" style="stop-color:#00C818"/>
		<stop  offset="0.95" style="stop-color:#00CB06"/>
		<stop  offset="0.98" style="stop-color:#00CC00"/>
	</linearGradient>
	<path class="st0" d="M6.3,14.3h1v1.4h-1v1H4.8v-1h-1v-1.4h1v-1h1.4V14.3z M18.3,14.5c0.5,0,0.9-0.4,0.9-0.9s-0.4-0.9-0.9-0.9
		s-0.9,0.4-0.9,0.9S17.8,14.5,18.3,14.5C18.3,14.5,18.4,14.5,18.3,14.5z M18.3,15.5c-0.5,0-0.9,0.4-0.9,0.9s0.4,0.9,0.9,0.9
		s0.9-0.4,0.9-0.9C19.3,15.9,18.9,15.5,18.3,15.5z M16.6,14.1c-0.5,0-0.9,0.4-0.9,0.9s0.4,0.9,0.9,0.9s0.9-0.4,0.9-0.9
		C17.6,14.5,17.2,14.1,16.6,14.1z M20,14.1c-0.5,0-0.9,0.4-0.9,0.9s0.4,0.9,0.9,0.9S21,15.5,21,15C21,14.5,20.6,14.1,20,14.1z
		 M24.3,15.1c0,3.3-2.7,6-6.1,5.9c-1.9,0-3.6-0.9-4.7-2.4h-2.8C9.6,20.1,7.9,21,6,21c-3.3,0-6-2.7-6-6s2.7-6,6-6h5.1V6.2
		c0-1.1,0.9-1.9,1.9-1.9l0,0h2.3V0h2.1v4.4c0,1-0.8,1.9-1.9,1.9h-2.4V9h5.2C21.7,9.1,24.3,11.8,24.3,15.1L24.3,15.1z M18.3,11.2H6
		c-2.2-0.1-4,1.6-4.1,3.7s1.6,4,3.7,4.1c0.1,0,0.3,0,0.4,0c1.3,0,2.5-0.6,3.2-1.7l0.5-0.7h5l0.5,0.7c0.7,1,1.9,1.6,3.2,1.6
		c2.2-0.1,3.8-1.9,3.7-4.1C22,12.8,20.4,11.2,18.3,11.2L18.3,11.2z"/>
</g>
</svg>
