<?xml version="1.0" encoding="utf-8"?>
<!-- Generator: Adobe Illustrator 26.4.1, SVG Export Plug-In . SVG Version: 6.00 Build 0)  -->
<svg version="1.1" id="Layer_1" xmlns="http://www.w3.org/2000/svg" xmlns:xlink="http://www.w3.org/1999/xlink" x="0px" y="0px"
	 viewBox="0 0 19 27" style="enable-background:new 0 0 19 27;" xml:space="preserve">
<style type="text/css">
	.st0{fill:url(#SVGID_1_);}
</style>
<g id="Layer_1_00000095322601728990487900000003452212653848910251_">
	
		<linearGradient id="SVGID_1_" gradientUnits="userSpaceOnUse" x1="-1.9825" y1="4.3925" x2="21.0025" y2="27.3775" gradientTransform="matrix(1 0 0 -1 0 29.38)">
		<stop  offset="0.1" style="stop-color:#2814FF"/>
		<stop  offset="0.14" style="stop-color:#2324FF"/>
		<stop  offset="0.3" style="stop-color:#145BFF"/>
		<stop  offset="0.43" style="stop-color:#0983FF"/>
		<stop  offset="0.54" style="stop-color:#029BFF"/>
		<stop  offset="0.61" style="stop-color:#00A4FF"/>
		<stop  offset="0.66" style="stop-color:#00ACCE"/>
		<stop  offset="0.72" style="stop-color:#00B590"/>
		<stop  offset="0.79" style="stop-color:#00BD5D"/>
		<stop  offset="0.84" style="stop-color:#00C434"/>
		<stop  offset="0.9" style="stop-color:#00C818"/>
		<stop  offset="0.95" style="stop-color:#00CB06"/>
		<stop  offset="0.98" style="stop-color:#00CC00"/>
	</linearGradient>
	<path class="st0" d="M17.4,2.3H19V0H0v2.3h1.5v4.2l6.5,7l-6.5,7.1v4.2H0V27h19v-2.3h-1.7v-4.1l-6.5-7l6.5-7V2.3z M3.8,21.5l5.6-6.1
		l5.6,6.1v3.3H3.8V21.5z M3.8,5.6V2.3h11.2v3.3l-5.6,6.1L3.8,5.6z M14.1,21.6v2.2H4.8v-2.2L7.2,19h4.4l0,0.1L14.1,21.6z M12.5,7.2
		l-3,3.2l-3-3.2L12.5,7.2z"/>
</g>
</svg>
