<?xml version="1.0" encoding="utf-8"?>
<!-- Generator: Adobe Illustrator 26.4.1, SVG Export Plug-In . SVG Version: 6.00 Build 0)  -->
<svg version="1.1" id="Layer_1" xmlns="http://www.w3.org/2000/svg" xmlns:xlink="http://www.w3.org/1999/xlink" x="0px" y="0px"
	 viewBox="0 0 31.3 22.1" style="enable-background:new 0 0 31.3 22.1;" xml:space="preserve">
<style type="text/css">
	.st0{fill:url(#SVGID_1_);}
</style>
<g id="Layer_1_00000160893948555710317560000016942545464850687667_">
	
		<linearGradient id="SVGID_1_" gradientUnits="userSpaceOnUse" x1="5.3625" y1="-2.5425" x2="25.9425" y2="18.0375" gradientTransform="matrix(1 0 0 -1 0 24.92)">
		<stop  offset="0.1" style="stop-color:#2814FF"/>
		<stop  offset="0.14" style="stop-color:#2324FF"/>
		<stop  offset="0.3" style="stop-color:#145BFF"/>
		<stop  offset="0.43" style="stop-color:#0983FF"/>
		<stop  offset="0.54" style="stop-color:#029BFF"/>
		<stop  offset="0.61" style="stop-color:#00A4FF"/>
		<stop  offset="0.66" style="stop-color:#00ACCE"/>
		<stop  offset="0.72" style="stop-color:#00B590"/>
		<stop  offset="0.79" style="stop-color:#00BD5D"/>
		<stop  offset="0.84" style="stop-color:#00C434"/>
		<stop  offset="0.9" style="stop-color:#00C818"/>
		<stop  offset="0.95" style="stop-color:#00CB06"/>
		<stop  offset="0.98" style="stop-color:#00CC00"/>
	</linearGradient>
	<path class="st0" d="M17,5.9v0.6h-2.8V5.9l0.4-0.6V4.5l0,0l0,0c0-0.5,0.4-0.9,0.9-0.8c-0.1,0-0.1-0.1-0.1-0.2c0,0,0,0,0-0.1
		c0-0.1,0.1-0.2,0.2-0.2s0.2,0.1,0.2,0.2c0,0.1,0,0.1-0.1,0.1c0.5,0,0.9,0.4,0.9,0.8l0,0l0,0v0.8L17,5.9z M11,13.4h2.2v-2.2H11V13.4
		z M18,11.1v2.2h2.2v-2.2H18z M14.5,13.4h2.2v-2.2h-2.2V13.4z M31.3,19.7v2.4H0v-2.4h1.7v-8.3h3.6V9L4.8,7.5L15.1,0h1.1l10.4,7.5
		L26.1,9v2.4h3.6v8.3L31.3,19.7z M14.4,17.2v2.5h2.5v-2.5H14.4z M19.2,15v4.7h4.6V9.5H7.5v10.2h4.7V15H19.2z M22.1,7.1l-6.4-4.6
		L9.2,7.1H22.1z M26.1,13.7v6h1.3v-6H26.1z M3.9,13.7v6h1.3v-6H3.9z"/>
</g>
</svg>
