<?xml version="1.0" encoding="utf-8"?>
<!-- Generator: Adobe Illustrator 26.4.1, SVG Export Plug-In . SVG Version: 6.00 Build 0)  -->
<svg version="1.1" id="Layer_1" xmlns="http://www.w3.org/2000/svg" xmlns:xlink="http://www.w3.org/1999/xlink" x="0px" y="0px"
	 viewBox="0 0 27 25.1" style="enable-background:new 0 0 27 25.1;" xml:space="preserve">
<style type="text/css">
	.st0{fill:url(#SVGID_1_);}
</style>
<g id="Layer_1_00000118378852610853040110000002785575015542934957_">
	
		<linearGradient id="SVGID_1_" gradientUnits="userSpaceOnUse" x1="1.115" y1="1.775" x2="25.915" y2="26.575" gradientTransform="matrix(1 0 0 -1 0 28)">
		<stop  offset="0.1" style="stop-color:#2814FF"/>
		<stop  offset="0.14" style="stop-color:#2324FF"/>
		<stop  offset="0.3" style="stop-color:#145BFF"/>
		<stop  offset="0.43" style="stop-color:#0983FF"/>
		<stop  offset="0.54" style="stop-color:#029BFF"/>
		<stop  offset="0.61" style="stop-color:#00A4FF"/>
		<stop  offset="0.66" style="stop-color:#00ACCE"/>
		<stop  offset="0.72" style="stop-color:#00B590"/>
		<stop  offset="0.79" style="stop-color:#00BD5D"/>
		<stop  offset="0.84" style="stop-color:#00C434"/>
		<stop  offset="0.9" style="stop-color:#00C818"/>
		<stop  offset="0.95" style="stop-color:#00CB06"/>
		<stop  offset="0.98" style="stop-color:#00CC00"/>
	</linearGradient>
	<path class="st0" d="M10.4,14.6h2.3v2.3h-2.3V14.6z M10.4,13.3h2.3V11h-2.3V13.3z M10.4,9.6h2.3V7.3h-2.3V9.6z M10.4,6h2.3V3.7
		h-2.3V6z M6.7,16.9H9v-2.3H6.7V16.9z M6.7,9.6H9V7.3H6.7V9.6z M6.7,13.3H9V11H6.7V13.3z M6.7,6H9V3.7H6.7V6z M17.9,9.6h2.3V7.3
		h-2.3V9.6z M17.9,13.3h2.3V11h-2.3V13.3z M14.2,16.9h2.3v-2.3h-2.3V16.9z M17.9,3.7V6h2.3V3.7H17.9z M17.9,16.9h2.3v-2.3h-2.3V16.9
		z M14.2,6h2.3V3.7h-2.3V6z M14.2,13.3h2.3V11h-2.3V13.3z M14.2,9.6h2.3V7.3h-2.3V9.6z M24.4,22.8V0H2.6v22.8H0v2.3h27v-2.3H24.4z
		 M15.9,20.5v2.3H11v-2.3H15.9z M8.7,18.2v4.6H4.9V2.2h17.2v20.6h-3.9v-4.6H8.7z"/>
</g>
</svg>
