<?xml version="1.0" encoding="utf-8"?>
<!-- Generator: Adobe Illustrator 26.4.1, SVG Export Plug-In . SVG Version: 6.00 Build 0)  -->
<svg version="1.1" id="Layer_1" xmlns="http://www.w3.org/2000/svg" xmlns:xlink="http://www.w3.org/1999/xlink" x="0px" y="0px"
	 viewBox="0 0 21 29.8" style="enable-background:new 0 0 21 29.8;" xml:space="preserve">
<style type="text/css">
	.st0{fill:url(#SVGID_1_);}
</style>
<g id="Layer_1_00000165946855253443667200000000437042581458449031_">
	
		<linearGradient id="SVGID_1_" gradientUnits="userSpaceOnUse" x1="-0.1368" y1="9.7044" x2="21.0494" y2="30.9006" gradientTransform="matrix(1 0 0 -1 0 33.14)">
		<stop  offset="0.1" style="stop-color:#2814FF"/>
		<stop  offset="0.14" style="stop-color:#2324FF"/>
		<stop  offset="0.3" style="stop-color:#145BFF"/>
		<stop  offset="0.43" style="stop-color:#0983FF"/>
		<stop  offset="0.54" style="stop-color:#029BFF"/>
		<stop  offset="0.61" style="stop-color:#00A4FF"/>
		<stop  offset="0.66" style="stop-color:#00ACCE"/>
		<stop  offset="0.72" style="stop-color:#00B590"/>
		<stop  offset="0.79" style="stop-color:#00BD5D"/>
		<stop  offset="0.84" style="stop-color:#00C434"/>
		<stop  offset="0.9" style="stop-color:#00C818"/>
		<stop  offset="0.95" style="stop-color:#00CB06"/>
		<stop  offset="0.98" style="stop-color:#00CC00"/>
	</linearGradient>
	<path class="st0" d="M21,11.1h-5V7.2l5-5h-5V0H5v2H0l5,5v3.9H0l5,5v4H0l5,5v3.7h2.7v1.2h5.6v-1.2H16v-3.4l5-5h-5v-4L21,11.1z
		 M13.7,2.3v23.9H7.3V2.3H13.7z M10.5,11.9C9.1,11.9,8,13,8,14.4s1.1,2.5,2.5,2.5s2.5-1.1,2.5-2.5l0,0C13,13,11.9,11.9,10.5,11.9z
		 M11.5,14.4c0,0.6-0.5,1.1-1.1,1.1c-0.6,0-1.1-0.5-1.1-1.1c0-0.6,0.5-1.1,1.1-1.1c0,0,0,0,0,0C11.1,13.3,11.5,13.8,11.5,14.4z
		 M10.5,18.4c-1.4,0-2.5,1.1-2.5,2.5s1.1,2.5,2.5,2.5s2.5-1.1,2.5-2.5l0,0C13,19.6,11.9,18.4,10.5,18.4z M11.5,20.9
		c0,0.6-0.5,1.1-1.1,1.1c-0.6,0-1.1-0.5-1.1-1.1c0-0.6,0.5-1.1,1.1-1.1C11.1,19.9,11.5,20.3,11.5,20.9z M8,7.8
		c0-1.4,1.1-2.5,2.5-2.5S13,6.4,13,7.8s-1.1,2.5-2.5,2.5l0,0C9.1,10.3,8,9.2,8,7.8z"/>
</g>
</svg>
