<?xml version="1.0" encoding="utf-8"?>
<!-- Generator: Adobe Illustrator 26.4.1, SVG Export Plug-In . SVG Version: 6.00 Build 0)  -->
<svg version="1.1" id="Layer_1" xmlns="http://www.w3.org/2000/svg" xmlns:xlink="http://www.w3.org/1999/xlink" x="0px" y="0px"
	 viewBox="0 0 32.1 25.2" style="enable-background:new 0 0 32.1 25.2;" xml:space="preserve">
<style type="text/css">
	.st0{fill:url(#SVGID_1_);}
</style>
<g id="Layer_1_00000041974607724602822870000016862992719915847871_">
	
		<linearGradient id="SVGID_1_" gradientUnits="userSpaceOnUse" x1="4.9275" y1="5.2725" x2="27.4875" y2="27.8325" gradientTransform="matrix(1 0 0 -1 0 28)">
		<stop  offset="0.1" style="stop-color:#2814FF"/>
		<stop  offset="0.14" style="stop-color:#2324FF"/>
		<stop  offset="0.3" style="stop-color:#145BFF"/>
		<stop  offset="0.43" style="stop-color:#0983FF"/>
		<stop  offset="0.54" style="stop-color:#029BFF"/>
		<stop  offset="0.61" style="stop-color:#00A4FF"/>
		<stop  offset="0.66" style="stop-color:#00ACCE"/>
		<stop  offset="0.72" style="stop-color:#00B590"/>
		<stop  offset="0.79" style="stop-color:#00BD5D"/>
		<stop  offset="0.84" style="stop-color:#00C434"/>
		<stop  offset="0.9" style="stop-color:#00C818"/>
		<stop  offset="0.95" style="stop-color:#00CB06"/>
		<stop  offset="0.98" style="stop-color:#00CC00"/>
	</linearGradient>
	<path class="st0" d="M29.7,4l-2.4-4H4.8L2.5,4L0.3,7.4L0,7.9l0.1,0.2c0.2,2.9,2.6,5.2,5.5,5.3c2.9-0.1,5.3-2.4,5.5-5.3L11.2,8
		L8.8,4L7.7,2.1h7.1L8.7,23H7.5v2.2h17.8V23H24L17.9,2.1h6.5L20.9,8L21,8.2c0.2,2.9,2.6,5.2,5.5,5.3c2.9-0.1,5.3-2.4,5.5-5.3L32.1,8
		L29.7,4z M23.9,7.2l2.5-4.3l1.3,2.2l1.3,2L23.9,7.2z M29.4,9.4c-0.7,1.6-2.6,2.3-4.2,1.6c-0.7-0.3-1.3-0.9-1.6-1.6H29.4z M8.5,9.4
		c-0.5,1.1-1.7,1.8-2.9,1.9c-1.2,0-2.3-0.8-2.9-1.9H8.5z M3,7.2l2.6-4.3l2.6,4.3H3z M11,23l5.4-18.2L21.8,23L11,23z"/>
</g>
</svg>
