<?xml version="1.0" encoding="utf-8"?>
<!-- Generator: Adobe Illustrator 26.4.1, SVG Export Plug-In . SVG Version: 6.00 Build 0)  -->
<svg version="1.1" id="Layer_1" xmlns="http://www.w3.org/2000/svg" xmlns:xlink="http://www.w3.org/1999/xlink" x="0px" y="0px"
	 viewBox="0 0 26.8 26.8" style="enable-background:new 0 0 26.8 26.8;" xml:space="preserve">
<style type="text/css">
	.st0{fill:url(#SVGID_1_);}
</style>
<linearGradient id="SVGID_1_" gradientUnits="userSpaceOnUse" x1="5.0621" y1="5.6621" x2="23.9379" y2="24.5379" gradientTransform="matrix(1 0 0 -1 0 29.6)">
	<stop  offset="0.1" style="stop-color:#2814FF"/>
	<stop  offset="0.1435" style="stop-color:#2324FF"/>
	<stop  offset="0.2998" style="stop-color:#145BFF"/>
	<stop  offset="0.4347" style="stop-color:#0983FF"/>
	<stop  offset="0.5417" style="stop-color:#029BFF"/>
	<stop  offset="0.6072" style="stop-color:#00A4FF"/>
	<stop  offset="0.6551" style="stop-color:#00ACCE"/>
	<stop  offset="0.7216" style="stop-color:#00B590"/>
	<stop  offset="0.7855" style="stop-color:#00BD5D"/>
	<stop  offset="0.8449" style="stop-color:#00C434"/>
	<stop  offset="0.8989" style="stop-color:#00C818"/>
	<stop  offset="0.9457" style="stop-color:#00CB06"/>
	<stop  offset="0.98" style="stop-color:#00CC00"/>
</linearGradient>
<path class="st0" d="M26.8,13.4C26.8,6,20.8,0,13.4,0S0,6,0,13.4s6,13.4,13.4,13.4c1.7,0,3.3-0.3,4.9-1c0.9,0.6,1.9,0.9,2.9,0.9
	c3,0,5.5-2.5,5.5-5.5c0-1.1-0.3-2.1-0.9-3C26.4,16.6,26.8,15,26.8,13.4z M21.3,18c1.8,0,3.2,1.4,3.2,3.2c0,1.8-1.4,3.2-3.2,3.2
	c-1.8,0-3.2-1.4-3.2-3.2S19.5,18,21.3,18z M24,16.4c-0.5-0.3-1-0.5-1.5-0.6c0.2-0.8,0.3-1.6,0.3-2.4c0-3.9-2.4-7.4-6-8.8l-0.7-0.3
	v2.5l0.3,0.1c2.5,1.2,4.2,3.7,4.2,6.5c0,0.8-0.1,1.6-0.4,2.4c-2.1,0.4-3.8,2.2-4.2,4.3c-0.8,0.3-1.7,0.5-2.5,0.5
	c-4,0-7.2-3.2-7.2-7.2c0-2.8,1.7-5.4,4.2-6.5l0.3-0.1V4.4l-0.7,0.3C6.5,6.1,4,9.6,4,13.5c0,5.2,4.2,9.5,9.5,9.5
	c0.8,0,1.7-0.1,2.6-0.4c0.1,0.5,0.3,1,0.6,1.5c-1,0.3-2.1,0.5-3.2,0.5c-6.1,0-11.1-5-11.1-11.1c0-5.7,4.3-10.4,9.9-11v10.1h2.3V2.4
	c5.7,0.6,9.9,5.3,9.9,11C24.5,14.4,24.3,15.4,24,16.4z"/>
</svg>
