<?xml version="1.0" encoding="utf-8"?>
<!-- Generator: Adobe Illustrator 26.4.1, SVG Export Plug-In . SVG Version: 6.00 Build 0)  -->
<svg version="1.1" id="Layer_1" xmlns="http://www.w3.org/2000/svg" xmlns:xlink="http://www.w3.org/1999/xlink" x="0px" y="0px"
	 viewBox="0 0 26.7 26.7" style="enable-background:new 0 0 26.7 26.7;" xml:space="preserve">
<style type="text/css">
	.st0{fill:url(#SVGID_1_);}
</style>
<g id="Layer_1_00000013911396023175921250000004648406221390204092_">
	
		<linearGradient id="SVGID_1_" gradientUnits="userSpaceOnUse" x1="3.9106" y1="5.9957" x2="22.8065" y2="24.8816" gradientTransform="matrix(1 0 0 -1 0 28.8001)">
		<stop  offset="0.1" style="stop-color:#2814FF"/>
		<stop  offset="0.14" style="stop-color:#2324FF"/>
		<stop  offset="0.3" style="stop-color:#145BFF"/>
		<stop  offset="0.43" style="stop-color:#0983FF"/>
		<stop  offset="0.54" style="stop-color:#029BFF"/>
		<stop  offset="0.61" style="stop-color:#00A4FF"/>
		<stop  offset="0.66" style="stop-color:#00ACCE"/>
		<stop  offset="0.72" style="stop-color:#00B590"/>
		<stop  offset="0.79" style="stop-color:#00BD5D"/>
		<stop  offset="0.84" style="stop-color:#00C434"/>
		<stop  offset="0.9" style="stop-color:#00C818"/>
		<stop  offset="0.95" style="stop-color:#00CB06"/>
		<stop  offset="0.98" style="stop-color:#00CC00"/>
	</linearGradient>
	<path class="st0" d="M13.3,0C5.9,0,0,6,0,13.4s6,13.3,13.4,13.3c7.3,0,13.3-6,13.3-13.3C26.7,6,20.8,0,13.3,0C13.4,0,13.3,0,13.3,0
		z M13.3,24.4C7.2,24.2,2.5,19,2.7,12.9c0.2-5.3,4.2-9.8,9.5-10.5v10.1h2.3V2.4c6,0.9,10.2,6.5,9.4,12.5
		C23.1,20.2,18.7,24.2,13.3,24.4z M22.8,13.4c0,5.2-4.2,9.5-9.5,9.5s-9.5-4.2-9.5-9.5c0-3.9,2.4-7.4,6.1-8.8l0.8-0.3v2.4l-0.3,0.1
		c-3.6,1.6-5.2,5.9-3.6,9.5s5.9,5.2,9.5,3.6s5.2-5.9,3.6-9.5c-0.7-1.6-2-2.8-3.6-3.6L16,6.7V4.3l0.8,0.3
		C20.4,5.9,22.8,9.5,22.8,13.4z"/>
</g>
</svg>
