<?xml version="1.0" encoding="utf-8"?>
<!-- Generator: Adobe Illustrator 26.4.1, SVG Export Plug-In . SVG Version: 6.00 Build 0)  -->
<svg version="1.1" id="Layer_1" xmlns="http://www.w3.org/2000/svg" xmlns:xlink="http://www.w3.org/1999/xlink" x="0px" y="0px"
	 viewBox="0 0 29.3 30.3" style="enable-background:new 0 0 29.3 30.3;" xml:space="preserve">
<style type="text/css">
	.st0{fill:url(#SVGID_1_);}
</style>
<linearGradient id="SVGID_1_" gradientUnits="userSpaceOnUse" x1="-3.330076e-02" y1="3.8667" x2="29.2667" y2="33.1667" gradientTransform="matrix(1 0 0 -1 0 33.2)">
	<stop  offset="0.1" style="stop-color:#2814FF"/>
	<stop  offset="0.1435" style="stop-color:#2324FF"/>
	<stop  offset="0.2998" style="stop-color:#145BFF"/>
	<stop  offset="0.4347" style="stop-color:#0983FF"/>
	<stop  offset="0.5417" style="stop-color:#029BFF"/>
	<stop  offset="0.6072" style="stop-color:#00A4FF"/>
	<stop  offset="0.6551" style="stop-color:#00ACCE"/>
	<stop  offset="0.7216" style="stop-color:#00B590"/>
	<stop  offset="0.7855" style="stop-color:#00BD5D"/>
	<stop  offset="0.8449" style="stop-color:#00C434"/>
	<stop  offset="0.8989" style="stop-color:#00C818"/>
	<stop  offset="0.9457" style="stop-color:#00CB06"/>
	<stop  offset="0.98" style="stop-color:#00CC00"/>
</linearGradient>
<path class="st0" d="M4.7,24.6h19.8V4.8H4.7v3.8H3.8v2.3h0.9v7.7H3.8v2.3h0.9V24.6z M7,18.6v-7.8h1.6V8.6H7V7.1h15.2v15.2H7v-1.4
	h1.6v-2.3H7z M14.6,19.9c2.9,0,5.2-2.3,5.2-5.2s-2.3-5.2-5.2-5.2s-5.2,2.3-5.2,5.2S11.7,19.9,14.6,19.9z M11.6,14.7c0-1.6,1.3-3,3-3
	c1.6,0,3,1.3,3,3c0,1.6-1.3,3-3,3C13,17.6,11.6,16.3,11.6,14.7z M12.8,14.7c0-1,0.8-1.8,1.8-1.8c0.2,0,0.4,0,0.6,0.1l0.7-0.7
	l1.1,1.2l-0.7,0.7c0,0.2,0.1,0.3,0.1,0.5c0,1-0.8,1.8-1.8,1.8S12.8,15.7,12.8,14.7z M0,0v29.3h4.8v1h6v-1h7.8v1h6v-1h4.7V0H0z
	 M27,2.3v24.8H2.2V2.3H27z"/>
</svg>
