<?xml version="1.0" encoding="utf-8"?>
<!-- Generator: Adobe Illustrator 26.4.1, SVG Export Plug-In . SVG Version: 6.00 Build 0)  -->
<svg version="1.1" id="Layer_1" xmlns="http://www.w3.org/2000/svg" xmlns:xlink="http://www.w3.org/1999/xlink" x="0px" y="0px"
	 viewBox="0 0 26.7 26.7" style="enable-background:new 0 0 26.7 26.7;" xml:space="preserve">
<style type="text/css">
	.st0{fill:url(#SVGID_1_);}
</style>
<g id="Layer_1_00000182504787297226312790000002464489262268705421_">
	
		<linearGradient id="SVGID_1_" gradientUnits="userSpaceOnUse" x1="3.916" y1="5.916" x2="22.8182" y2="24.8182" gradientTransform="matrix(1 0 0 -1 0 28.74)">
		<stop  offset="0.1" style="stop-color:#2814FF"/>
		<stop  offset="0.14" style="stop-color:#2324FF"/>
		<stop  offset="0.3" style="stop-color:#145BFF"/>
		<stop  offset="0.43" style="stop-color:#0983FF"/>
		<stop  offset="0.54" style="stop-color:#029BFF"/>
		<stop  offset="0.61" style="stop-color:#00A4FF"/>
		<stop  offset="0.66" style="stop-color:#00ACCE"/>
		<stop  offset="0.72" style="stop-color:#00B590"/>
		<stop  offset="0.79" style="stop-color:#00BD5D"/>
		<stop  offset="0.84" style="stop-color:#00C434"/>
		<stop  offset="0.9" style="stop-color:#00C818"/>
		<stop  offset="0.95" style="stop-color:#00CB06"/>
		<stop  offset="0.98" style="stop-color:#00CC00"/>
	</linearGradient>
	<path class="st0" d="M13.3,0C6,0,0,6,0,13.4c0,7.4,6,13.4,13.4,13.3c7.4,0,13.3-6,13.3-13.4C26.7,6,20.7,0,13.3,0z M13.3,24.4
		c-6.1,0-11.1-5-11.1-11.1c0-6.1,5-11.1,11.1-11.1c6.1,0,11.1,5,11.1,11.1c0,0,0,0,0,0C24.4,19.5,19.5,24.4,13.3,24.4z M16.9,12.6
		l-0.8-0.8l6.5-6.5l-1.1-1.1L15,10.7l-0.8-0.8l-0.8,0.8l-1.3-1.3l-7.7,5.5l7.5,7.5l5.5-7.7l-1.3-1.3L16.9,12.6z M11,19.2l1.8-1.7
		l-1.1-1.1l-1.7,1.7L9.7,18l1.7-1.7l-1.1-1.1l-1.7,1.7l-0.2-0.2l1.7-1.7l-1.1-1.1l-1.7,1.7l-0.6-0.5l5.2-3.7l3.4,3.4L11.7,20
		L11,19.2z"/>
</g>
</svg>
