<?xml version="1.0" encoding="utf-8"?>
<!-- Generator: Adobe Illustrator 26.4.1, SVG Export Plug-In . SVG Version: 6.00 Build 0)  -->
<svg version="1.1" id="Layer_1" xmlns="http://www.w3.org/2000/svg" xmlns:xlink="http://www.w3.org/1999/xlink" x="0px" y="0px"
	 viewBox="0 0 19.2 26.8" style="enable-background:new 0 0 19.2 26.8;" xml:space="preserve">
<style type="text/css">
	.st0{fill:url(#SVGID_1_);}
</style>
<linearGradient id="SVGID_1_" gradientUnits="userSpaceOnUse" x1="-1.6394" y1="8.0606" x2="18.0735" y2="27.7736" gradientTransform="matrix(1 0 0 -1 0 29.6)">
	<stop  offset="0.1" style="stop-color:#2814FF"/>
	<stop  offset="0.1435" style="stop-color:#2324FF"/>
	<stop  offset="0.2998" style="stop-color:#145BFF"/>
	<stop  offset="0.4347" style="stop-color:#0983FF"/>
	<stop  offset="0.5417" style="stop-color:#029BFF"/>
	<stop  offset="0.6072" style="stop-color:#00A4FF"/>
	<stop  offset="0.6551" style="stop-color:#00ACCE"/>
	<stop  offset="0.7216" style="stop-color:#00B590"/>
	<stop  offset="0.7855" style="stop-color:#00BD5D"/>
	<stop  offset="0.8449" style="stop-color:#00C434"/>
	<stop  offset="0.8989" style="stop-color:#00C818"/>
	<stop  offset="0.9457" style="stop-color:#00CB06"/>
	<stop  offset="0.98" style="stop-color:#00CC00"/>
</linearGradient>
<path class="st0" d="M19.2,3v16.4H17V3H19.2z M3,3.5h9.8v5H3V3.5z M4.7,5.2v1.6h6.4V5.2H4.7z M15.9,22.7H13v4.1H3.7v-4.2H0V0h15.9
	V22.7z M5.4,25.1h0.7v-2.5H5.4V25.1z M11.3,25.1v-2.5H8.8v2.5H11.3z M13.7,20.5V2.2H2.2v18.3C2.2,20.5,13.7,20.5,13.7,20.5z
	 M4.2,11.6h2v-2h-2V11.6z M6.9,19.1h2v-2h-2V19.1z M4.2,14.1h2v-2h-2V14.1z M9.7,11.6h2v-2h-2V11.6z M4.2,16.6h2v-2h-2V16.6z
	 M4.2,19.1h2v-2h-2V19.1z M9.7,16.6h2v-2h-2V16.6z M9.7,14.1h2v-2h-2V14.1z M9.7,19.1h2v-2h-2V19.1z M6.9,11.6h2v-2h-2V11.6z
	 M6.9,14.1h2v-2h-2V14.1z M6.9,16.6h2v-2h-2V16.6z"/>
</svg>
