<?xml version="1.0" encoding="utf-8"?>
<!-- Generator: Adobe Illustrator 26.4.1, SVG Export Plug-In . SVG Version: 6.00 Build 0)  -->
<svg version="1.1" id="Layer_1" xmlns="http://www.w3.org/2000/svg" xmlns:xlink="http://www.w3.org/1999/xlink" x="0px" y="0px"
	 viewBox="0 0 23.2 28.8" style="enable-background:new 0 0 23.2 28.8;" xml:space="preserve">
<style type="text/css">
	.st0{fill:url(#SVGID_1_);}
</style>
<g id="Layer_1_00000101786836897453330810000004013200863218510765_">
	
		<linearGradient id="SVGID_1_" gradientUnits="userSpaceOnUse" x1="-1.095" y1="11.2972" x2="25.489" y2="23.139" gradientTransform="matrix(1 0 0 -1 0 31.62)">
		<stop  offset="0.1" style="stop-color:#2814FF"/>
		<stop  offset="0.14" style="stop-color:#2324FF"/>
		<stop  offset="0.3" style="stop-color:#145BFF"/>
		<stop  offset="0.43" style="stop-color:#0983FF"/>
		<stop  offset="0.54" style="stop-color:#029BFF"/>
		<stop  offset="0.61" style="stop-color:#00A4FF"/>
		<stop  offset="0.66" style="stop-color:#00ACCE"/>
		<stop  offset="0.72" style="stop-color:#00B590"/>
		<stop  offset="0.79" style="stop-color:#00BD5D"/>
		<stop  offset="0.84" style="stop-color:#00C434"/>
		<stop  offset="0.9" style="stop-color:#00C818"/>
		<stop  offset="0.95" style="stop-color:#00CB06"/>
		<stop  offset="0.98" style="stop-color:#00CC00"/>
	</linearGradient>
	<path class="st0" d="M7.8,3.6V9h5.5V3.6H7.8z M11.6,7.3H9.5V5.3h2.1V7.3z M7.8,22h5.5v-5.5H7.8V22z M9.5,18.2h2.1v2.1H9.5V18.2z
		 M7.8,15.4h5.5V9.9H7.8V15.4z M9.5,11.6h2.1v2.1H9.5V11.6z M23.2,3.3v25.5H4.7v-2.2H21V3.3H23.2z M1.2,0v3.2H0v2.2h1.2v1.2H0v2.2
		h1.2V10H0v2.2h1.2v1.2H0v2.2h1.2v1.2H0V19h1.2v1.2H0v2.2h1.2v3h18.5V0L1.2,0z M3.4,20.3V19h1.3v-2.2H3.4v-1.2h1.3v-2.2H3.4v-1.2
		h1.3V10H3.4V8.8h1.3V6.7H3.4V5.4h1.3V3.2H3.4v-1h14.1v21.1H3.4v-0.8h1.3v-2.2L3.4,20.3z"/>
</g>
</svg>
