<?xml version="1.0" encoding="utf-8"?>
<!-- Generator: Adobe Illustrator 26.4.1, SVG Export Plug-In . SVG Version: 6.00 Build 0)  -->
<svg version="1.1" id="Layer_1" xmlns="http://www.w3.org/2000/svg" xmlns:xlink="http://www.w3.org/1999/xlink" x="0px" y="0px"
	 viewBox="0 0 28.1 26.6" style="enable-background:new 0 0 28.1 26.6;" xml:space="preserve">
<style type="text/css">
	.st0{fill:url(#SVGID_1_);}
</style>
<linearGradient id="SVGID_1_" gradientUnits="userSpaceOnUse" x1="5.3257" y1="5.2007" x2="24.21" y2="24.0849" gradientTransform="matrix(1 0 0 -1 0 29.4)">
	<stop  offset="0.1" style="stop-color:#2814FF"/>
	<stop  offset="0.1435" style="stop-color:#2324FF"/>
	<stop  offset="0.2998" style="stop-color:#145BFF"/>
	<stop  offset="0.4347" style="stop-color:#0983FF"/>
	<stop  offset="0.5417" style="stop-color:#029BFF"/>
	<stop  offset="0.6072" style="stop-color:#00A4FF"/>
	<stop  offset="0.6551" style="stop-color:#00ACCE"/>
	<stop  offset="0.7216" style="stop-color:#00B590"/>
	<stop  offset="0.7855" style="stop-color:#00BD5D"/>
	<stop  offset="0.8449" style="stop-color:#00C434"/>
	<stop  offset="0.8989" style="stop-color:#00C818"/>
	<stop  offset="0.9457" style="stop-color:#00CB06"/>
	<stop  offset="0.98" style="stop-color:#00CC00"/>
</linearGradient>
<path class="st0" d="M14.4,5.3V14l-5.5,3.3l-1.1-1.9l4.4-2.7V5.3C12.2,5.3,14.4,5.3,14.4,5.3z M26.2,16.9c1.3-4.6,0-9.6-3.4-13
	c-5.3-5.2-13.7-5.2-18.9,0C1.4,6.4,0,9.8,0,13.3s1.4,6.9,3.9,9.4s5.9,3.9,9.4,3.9c2,0,4-0.5,5.9-1.4c1,0.8,2.2,1.2,3.4,1.2
	c3,0,5.5-2.5,5.5-5.5C28,19.4,27.4,17.9,26.2,16.9z M22.6,17.8c1.8,0,3.2,1.4,3.2,3.2c0,1.8-1.4,3.2-3.2,3.2s-3.2-1.4-3.2-3.2
	C19.4,19.2,20.8,17.8,22.6,17.8z M17.1,21c0,0.9,0.2,1.7,0.6,2.5c-4.2,1.8-9,0.9-12.2-2.3c-2.1-2.1-3.2-4.9-3.2-7.8s1.1-5.7,3.2-7.8
	s4.9-3.2,7.8-3.2c3,0,5.7,1.1,7.8,3.2c2.6,2.6,3.8,6.5,2.9,10.2c-0.5-0.1-1-0.2-1.5-0.2C19.5,15.5,17.1,17.9,17.1,21z M23.3,18.6
	h-1.5v2.8h1.5V18.6z M22.6,21.8c-0.5,0-0.9,0.4-0.9,0.9s0.4,0.9,0.9,0.9s0.9-0.4,0.9-0.9S23,21.8,22.6,21.8z"/>
</svg>
