<?xml version="1.0" encoding="utf-8"?>
<!-- Generator: Adobe Illustrator 26.4.1, SVG Export Plug-In . SVG Version: 6.00 Build 0)  -->
<svg version="1.1" id="Layer_1" xmlns="http://www.w3.org/2000/svg" xmlns:xlink="http://www.w3.org/1999/xlink" x="0px" y="0px"
	 viewBox="0 0 26.8 26.8" style="enable-background:new 0 0 26.8 26.8;" xml:space="preserve">
<style type="text/css">
	.st0{fill:url(#SVGID_1_);}
</style>
<g id="Layer_1_00000039112479298684311590000002237911849809183129_">
	
		<linearGradient id="SVGID_1_" gradientUnits="userSpaceOnUse" x1="3.9218" y1="7.1418" x2="22.8523" y2="26.0723" gradientTransform="matrix(1 0 0 -1 0 30)">
		<stop  offset="0.1" style="stop-color:#2814FF"/>
		<stop  offset="0.14" style="stop-color:#2324FF"/>
		<stop  offset="0.3" style="stop-color:#145BFF"/>
		<stop  offset="0.43" style="stop-color:#0983FF"/>
		<stop  offset="0.54" style="stop-color:#029BFF"/>
		<stop  offset="0.61" style="stop-color:#00A4FF"/>
		<stop  offset="0.66" style="stop-color:#00ACCE"/>
		<stop  offset="0.72" style="stop-color:#00B590"/>
		<stop  offset="0.79" style="stop-color:#00BD5D"/>
		<stop  offset="0.84" style="stop-color:#00C434"/>
		<stop  offset="0.9" style="stop-color:#00C818"/>
		<stop  offset="0.95" style="stop-color:#00CB06"/>
		<stop  offset="0.98" style="stop-color:#00CC00"/>
	</linearGradient>
	<path class="st0" d="M13.4,0C6,0,0,6,0,13.4c0,7.4,6,13.4,13.4,13.4c7.4,0,13.4-6,13.4-13.4C26.8,6,20.8,0,13.4,0z M13.4,24.5
		c-6.1,0-11.1-5-11.1-11.1s5-11.1,11.1-11.1s11.1,5,11.1,11.1C24.5,19.5,19.5,24.5,13.4,24.5z M21.5,14.4h-2.6l1.9,1.9l-1.3,1.3
		l-3.2-3.2h-1.9v1.8l3.2,3.2l-1.3,1.3l-1.9-1.9v2.7h-1.8v-2.8l-1.9,1.9l-1.3-1.3l3.2-3.2v-1.7h-1.8l-3.2,3.2l-1.3-1.3l1.9-1.9H5.4
		v-1.8h2.9l-2-2l1.3-1.3l3.2,3.2h1.6v-2L9.3,7.3L10.6,6l1.9,1.9V5.4h1.8V8l1.9-1.9l1.3,1.3l-3.2,3.2v2h1.9l3.3-3.2l1.3,1.3l-2,2h2.6
		L21.5,14.4z"/>
</g>
</svg>
