<?xml version="1.0" encoding="utf-8"?>
<!-- Generator: Adobe Illustrator 26.4.1, SVG Export Plug-In . SVG Version: 6.00 Build 0)  -->
<svg version="1.1" id="Layer_1" xmlns="http://www.w3.org/2000/svg" xmlns:xlink="http://www.w3.org/1999/xlink" x="0px" y="0px"
	 viewBox="0 0 26.7 26.7" style="enable-background:new 0 0 26.7 26.7;" xml:space="preserve">
<style type="text/css">
	.st0{fill:url(#SVGID_1_);}
</style>
<g id="Layer_1_00000040551914045749463680000005386302518991610766_">
	
		<linearGradient id="SVGID_1_" gradientUnits="userSpaceOnUse" x1="3.916" y1="6.716" x2="22.8182" y2="25.6182" gradientTransform="matrix(1 0 0 -1 0 29.54)">
		<stop  offset="0.1" style="stop-color:#2814FF"/>
		<stop  offset="0.14" style="stop-color:#2324FF"/>
		<stop  offset="0.3" style="stop-color:#145BFF"/>
		<stop  offset="0.43" style="stop-color:#0983FF"/>
		<stop  offset="0.54" style="stop-color:#029BFF"/>
		<stop  offset="0.61" style="stop-color:#00A4FF"/>
		<stop  offset="0.66" style="stop-color:#00ACCE"/>
		<stop  offset="0.72" style="stop-color:#00B590"/>
		<stop  offset="0.79" style="stop-color:#00BD5D"/>
		<stop  offset="0.84" style="stop-color:#00C434"/>
		<stop  offset="0.9" style="stop-color:#00C818"/>
		<stop  offset="0.95" style="stop-color:#00CB06"/>
		<stop  offset="0.98" style="stop-color:#00CC00"/>
	</linearGradient>
	<path class="st0" d="M17.1,12.4l0.9-0.9c0.5-0.5,0.8-1,1.2-1.6c0.7-1.3,0.4-2,0-2.4c-1.1-1.1-3.1,0.2-4,1.1l-0.9,0.9L7.5,6.3
		L5.3,8.5l5.7,4.4l-2.5,2.5l-2.3-0.8l-1.9,1.9l3.5,2.5l2.5,3.5l1.9-1.9l-0.8-2.4l2.4-2.4l4.4,5.7l2.2-2.2L17.1,12.4z M13.5,12.7
		L7.8,8.3l0,0l6.8,3.3l1.8-1.8c0.4-0.4,1-0.8,1.5-1c-0.2,0.6-0.6,1.1-1,1.5l-1.8,1.8l3.3,6.8l0,0L14,13.2l-4.6,4.5l0.3,0.8l-0.6-0.8
		L8.1,17l0.8,0.3L13.5,12.7z M13.3,0C6,0,0,6,0,13.4c0,7.4,6,13.4,13.4,13.3c7.4,0,13.3-6,13.3-13.4C26.7,6,20.7,0,13.3,0z
		 M13.3,24.4c-6.1,0-11.1-5-11.1-11.1s5-11.1,11.1-11.1s11.1,5,11.1,11.1c0,0,0,0,0,0C24.4,19.5,19.5,24.4,13.3,24.4z"/>
</g>
</svg>
