<?xml version="1.0" encoding="utf-8"?>
<!-- Generator: Adobe Illustrator 26.4.1, SVG Export Plug-In . SVG Version: 6.00 Build 0)  -->
<svg version="1.1" id="Layer_1" xmlns="http://www.w3.org/2000/svg" xmlns:xlink="http://www.w3.org/1999/xlink" x="0px" y="0px"
	 viewBox="0 0 16.8 28.8" style="enable-background:new 0 0 16.8 28.8;" xml:space="preserve">
<style type="text/css">
	.st0{fill:url(#SVGID_1_);}
</style>
<g id="Layer_1_00000153682082172525719930000008729030552337153698_">
	
		<linearGradient id="SVGID_1_" gradientUnits="userSpaceOnUse" x1="-0.6123" y1="3.392" x2="21.3293" y2="25.3436" gradientTransform="matrix(1 0 0 -1 0 31.56)">
		<stop  offset="0.1" style="stop-color:#2814FF"/>
		<stop  offset="0.14" style="stop-color:#2324FF"/>
		<stop  offset="0.3" style="stop-color:#145BFF"/>
		<stop  offset="0.43" style="stop-color:#0983FF"/>
		<stop  offset="0.54" style="stop-color:#029BFF"/>
		<stop  offset="0.61" style="stop-color:#00A4FF"/>
		<stop  offset="0.66" style="stop-color:#00ACCE"/>
		<stop  offset="0.72" style="stop-color:#00B590"/>
		<stop  offset="0.79" style="stop-color:#00BD5D"/>
		<stop  offset="0.84" style="stop-color:#00C434"/>
		<stop  offset="0.9" style="stop-color:#00C818"/>
		<stop  offset="0.95" style="stop-color:#00CB06"/>
		<stop  offset="0.98" style="stop-color:#00CC00"/>
	</linearGradient>
	<path class="st0" d="M16.8,8.1v1.6h-4.4V8.5l2-2.8h-1.9V4.1h4.3v1.2l-2,2.8H16.8z M11.5,3.4V2.5h-3v1.3h1.2L8.4,5.6v0.9h3.2V5.2
		h-1.3L11.5,3.4z M15.1,2.1h-1l1-1.4V0h-2.6v1.1h0.9l-1,1.3v0.8h2.6V2.1z M15.4,22.1v6.6H0v-6.6c0-3.2,2-6,4.9-7.2
		C3,13.4,2.7,10.6,4.2,8.7S8.5,6.5,10.4,8s2.2,4.3,0.7,6.3c-0.2,0.3-0.4,0.5-0.7,0.7C13.4,16.1,15.4,19,15.4,22.1L15.4,22.1z
		 M13.2,26.6v-4.4c0-3-2.5-5.5-5.5-5.5s-5.5,2.5-5.5,5.5v4.4L13.2,26.6z M7.7,13.8c1.2,0,2.3-1,2.3-2.3s-1-2.3-2.3-2.3
		s-2.3,1-2.3,2.3S6.4,13.8,7.7,13.8L7.7,13.8z"/>
</g>
</svg>
