<?xml version="1.0" encoding="utf-8"?>
<!-- Generator: Adobe Illustrator 26.4.1, SVG Export Plug-In . SVG Version: 6.00 Build 0)  -->
<svg version="1.1" id="Layer_1" xmlns="http://www.w3.org/2000/svg" xmlns:xlink="http://www.w3.org/1999/xlink" x="0px" y="0px"
	 viewBox="0 0 28.8 23.9" style="enable-background:new 0 0 28.8 23.9;" xml:space="preserve">
<style type="text/css">
	.st0{fill:url(#SVGID_1_);}
</style>
<g id="Layer_1_00000128470942946984711200000008611112917084229248_">
	
		<linearGradient id="SVGID_1_" gradientUnits="userSpaceOnUse" x1="4.4054" y1="-1.6854" x2="24.5254" y2="18.4346" gradientTransform="matrix(1 0 0 -1 0 26.58)">
		<stop  offset="0.1" style="stop-color:#2814FF"/>
		<stop  offset="0.14" style="stop-color:#2324FF"/>
		<stop  offset="0.3" style="stop-color:#145BFF"/>
		<stop  offset="0.43" style="stop-color:#0983FF"/>
		<stop  offset="0.54" style="stop-color:#029BFF"/>
		<stop  offset="0.61" style="stop-color:#00A4FF"/>
		<stop  offset="0.66" style="stop-color:#00ACCE"/>
		<stop  offset="0.72" style="stop-color:#00B590"/>
		<stop  offset="0.79" style="stop-color:#00BD5D"/>
		<stop  offset="0.84" style="stop-color:#00C434"/>
		<stop  offset="0.9" style="stop-color:#00C818"/>
		<stop  offset="0.95" style="stop-color:#00CB06"/>
		<stop  offset="0.98" style="stop-color:#00CC00"/>
	</linearGradient>
	<path class="st0" d="M22.3,14.9v0.2h-1.7v-0.2c-0.1-1.1-0.6-2.2-1.3-3.1c-1.3-1.3-3.1-2-4.9-1.8h-0.2V8.3h0.2
		c2.3-0.2,4.6,0.7,6.1,2.4C21.6,11.9,22.2,13.4,22.3,14.9z M28.8,19.1v4.8H0v-4.8h13.4v-1.1h-11v-1.1c0-6.2,4.8-11.5,11-12V4h-1.9V2
		c0-1.1,0.9-2,2-2h2c1.1,0,2,0.9,2,2v2h-1.9v0.9c6.2,0.6,11,5.8,11,12v1.1h-11v1.1H28.8z M4.7,15.8h19.6c-0.6-5.4-5.5-9.3-11-8.7
		C8.8,7.6,5.2,11.2,4.7,15.8z M15.8,2.3V2c0-0.2-0.1-0.3-0.3-0.3h-2c-0.2,0-0.3,0.1-0.3,0.3c0,0,0,0,0,0v0.3H15.8z M26.7,21.7v-0.4
		H2.2v0.4H26.7z"/>
</g>
</svg>
