<?xml version="1.0" encoding="utf-8"?>
<!-- Generator: Adobe Illustrator 26.4.1, SVG Export Plug-In . SVG Version: 6.00 Build 0)  -->
<svg version="1.1" id="Layer_1" xmlns="http://www.w3.org/2000/svg" xmlns:xlink="http://www.w3.org/1999/xlink" x="0px" y="0px"
	 viewBox="0 0 26.4 26.4" style="enable-background:new 0 0 26.4 26.4;" xml:space="preserve">
<style type="text/css">
	.st0{fill:url(#SVGID_1_);}
</style>
<g id="Layer_1_00000046306759805083789060000003123993182852240023_">
	
		<linearGradient id="SVGID_1_" gradientUnits="userSpaceOnUse" x1="3.8731" y1="6.591" x2="22.564" y2="25.2919" gradientTransform="matrix(1 0 0 -1 0 29.16)">
		<stop  offset="0.1" style="stop-color:#2814FF"/>
		<stop  offset="0.14" style="stop-color:#2324FF"/>
		<stop  offset="0.3" style="stop-color:#145BFF"/>
		<stop  offset="0.43" style="stop-color:#0983FF"/>
		<stop  offset="0.54" style="stop-color:#029BFF"/>
		<stop  offset="0.61" style="stop-color:#00A4FF"/>
		<stop  offset="0.66" style="stop-color:#00ACCE"/>
		<stop  offset="0.72" style="stop-color:#00B590"/>
		<stop  offset="0.79" style="stop-color:#00BD5D"/>
		<stop  offset="0.84" style="stop-color:#00C434"/>
		<stop  offset="0.9" style="stop-color:#00C818"/>
		<stop  offset="0.95" style="stop-color:#00CB06"/>
		<stop  offset="0.98" style="stop-color:#00CC00"/>
	</linearGradient>
	<path class="st0" d="M6.7,9.4h8.4l-3.9,3.9L6.7,9.4z M6.5,18l4.5-4.5L6.5,9.6V18z M4.1,16.5h2V9h9.3l2-2H4.1L4.1,16.5z M13.2,26.4
		C5.9,26.4,0,20.5,0,13.2S5.9,0,13.2,0s13.2,5.9,13.2,13.2C26.4,20.5,20.5,26.4,13.2,26.4z M13.2,24.4c6.2,0,11.2-5,11.2-11.2
		c0-2.6-0.9-5.2-2.6-7.2l-3.3,3.3h3.1L14.2,16L13,14.9l-0.2,0.2l1.5,1.3L22,9.5v10H8.4l-2.3,2.3C8.1,23.5,10.6,24.4,13.2,24.4
		L13.2,24.4z M20.4,4.6c-4.7-4-11.7-3.5-15.7,1.2C1,10,1,16.2,4.6,20.4l6.6-6.6l0,0L20.4,4.6z"/>
</g>
</svg>
