<?xml version="1.0" encoding="utf-8"?>
<!-- Generator: Adobe Illustrator 26.4.1, SVG Export Plug-In . SVG Version: 6.00 Build 0)  -->
<svg version="1.1" id="Layer_1" xmlns="http://www.w3.org/2000/svg" xmlns:xlink="http://www.w3.org/1999/xlink" x="0px" y="0px"
	 viewBox="0 0 26.6 26.6" style="enable-background:new 0 0 26.6 26.6;" xml:space="preserve">
<style type="text/css">
	.st0{fill:url(#SVGID_1_);}
</style>
<g id="Layer_1_00000133523354565031285990000010125272571686556855_">
	
		<linearGradient id="SVGID_1_" gradientUnits="userSpaceOnUse" x1="3.8901" y1="7.6551" x2="22.687" y2="26.442" gradientTransform="matrix(1 0 0 -1 0 30.34)">
		<stop  offset="0.1" style="stop-color:#2814FF"/>
		<stop  offset="0.14" style="stop-color:#2324FF"/>
		<stop  offset="0.3" style="stop-color:#145BFF"/>
		<stop  offset="0.43" style="stop-color:#0983FF"/>
		<stop  offset="0.54" style="stop-color:#029BFF"/>
		<stop  offset="0.61" style="stop-color:#00A4FF"/>
		<stop  offset="0.66" style="stop-color:#00ACCE"/>
		<stop  offset="0.72" style="stop-color:#00B590"/>
		<stop  offset="0.79" style="stop-color:#00BD5D"/>
		<stop  offset="0.84" style="stop-color:#00C434"/>
		<stop  offset="0.9" style="stop-color:#00C818"/>
		<stop  offset="0.95" style="stop-color:#00CB06"/>
		<stop  offset="0.98" style="stop-color:#00CC00"/>
	</linearGradient>
	<path class="st0" d="M17.1,7.3l-3.5,3.6V7.3H17.1z M17.8,4.3h-3.2v2.6h3.2L17.8,4.3z M11.6,4.3H8.4v2.6h3.2V4.3z M5.2,19.3l7.7-7.7
		V7.3H7.2l-2,8.3L5.2,19.3z M26.6,13.3c0,7.3-6,13.3-13.3,13.3C5.9,26.6,0,20.6,0,13.3C0,5.9,6,0,13.3,0C20.6,0,26.6,6,26.6,13.3
		L26.6,13.3z M6.2,21.9c4.7,3.9,11.7,3.2,15.6-1.5c3.4-4.1,3.4-10,0-14.1l-2.4,2.5l1.7,7v5h-6.3v-6.4h-1l-2,2v4.3H7.5L6.2,21.9z
		 M13.3,2.2c-6.1,0-11.1,4.9-11.1,11c0,2.6,0.9,5.1,2.5,7.1L20.3,4.7C18.3,3.1,15.9,2.2,13.3,2.2z"/>
</g>
</svg>
