<?xml version="1.0" encoding="utf-8"?>
<!-- Generator: Adobe Illustrator 26.4.1, SVG Export Plug-In . SVG Version: 6.00 Build 0)  -->
<svg version="1.1" id="Layer_1" xmlns="http://www.w3.org/2000/svg" xmlns:xlink="http://www.w3.org/1999/xlink" x="0px" y="0px"
	 viewBox="0 0 26.4 26.4" style="enable-background:new 0 0 26.4 26.4;" xml:space="preserve">
<style type="text/css">
	.st0{fill:url(#SVGID_1_);}
</style>
<g id="Layer_1_00000039830930407009575760000012973553623934861200_">
	
		<linearGradient id="SVGID_1_" gradientUnits="userSpaceOnUse" x1="3.865" y1="744.54" x2="22.535" y2="725.86" gradientTransform="matrix(1 0 0 1 0 -722)">
		<stop  offset="0.1" style="stop-color:#2814FF"/>
		<stop  offset="0.14" style="stop-color:#2324FF"/>
		<stop  offset="0.3" style="stop-color:#145BFF"/>
		<stop  offset="0.43" style="stop-color:#0983FF"/>
		<stop  offset="0.54" style="stop-color:#029BFF"/>
		<stop  offset="0.61" style="stop-color:#00A4FF"/>
		<stop  offset="0.66" style="stop-color:#00ACCE"/>
		<stop  offset="0.72" style="stop-color:#00B590"/>
		<stop  offset="0.79" style="stop-color:#00BD5D"/>
		<stop  offset="0.84" style="stop-color:#00C434"/>
		<stop  offset="0.9" style="stop-color:#00C818"/>
		<stop  offset="0.95" style="stop-color:#00CB06"/>
		<stop  offset="0.98" style="stop-color:#00CC00"/>
	</linearGradient>
	<path class="st0" d="M4,9l1.4-1.5L7.9,10l0.7,0.1V8.9h6.3V7.5c0-1-0.8-1.8-1.8-1.8s-1.8,0.8-1.8,1.8v0.4h-2V7.5
		c0-2.1,1.8-3.8,3.9-3.7c1.9,0,3.5,1.5,3.7,3.4v0.2l-1.5,1.5l0,0l-0.5,0.5l-0.1,0.1l0,0l-5.4,5.6L5.5,19L4,17.5l3-3l1.6-0.2l0,0h-4
		v-2h4l0,0L7,12.1L4,9z M26.4,13.2c0,7.3-5.9,13.2-13.2,13.2S0,20.5,0,13.2S5.9,0,13.2,0l0,0C20.5,0,26.4,5.9,26.4,13.2z M6,21.7
		c4.7,3.9,11.8,3.3,15.7-1.5c3.4-4.1,3.4-10.1,0-14.3l-4,4.2l0.6-0.1l2.5-2.5L22.3,9l-3,3l-1.6,0.2v0.1h4v2h-4v0.1l1.6,0.2l3,3
		L20.9,19l-2.5-2.5l-0.6-0.1v2.2H9.2L6,21.7z M13.2,2C7,2,2,7,2,13.1c0,2.6,0.9,5.2,2.6,7.2L20.3,4.6C18.3,2.9,15.8,2,13.2,2z"/>
</g>
</svg>
