<?xml version="1.0" encoding="utf-8"?>
<!-- Generator: Adobe Illustrator 26.4.1, SVG Export Plug-In . SVG Version: 6.00 Build 0)  -->
<svg version="1.1" id="Layer_1" xmlns="http://www.w3.org/2000/svg" xmlns:xlink="http://www.w3.org/1999/xlink" x="0px" y="0px"
	 viewBox="0 0 26.4 26.4" style="enable-background:new 0 0 26.4 26.4;" xml:space="preserve">
<style type="text/css">
	.st0{fill:url(#SVGID_1_);}
</style>
<g id="Layer_1_00000075877826396473170500000003323225843223890846_">
	
		<linearGradient id="SVGID_1_" gradientUnits="userSpaceOnUse" x1="3.872" y1="7.332" x2="22.565" y2="26.025" gradientTransform="matrix(1 0 0 -1 0 29.9)">
		<stop  offset="0.1" style="stop-color:#2814FF"/>
		<stop  offset="0.14" style="stop-color:#2324FF"/>
		<stop  offset="0.3" style="stop-color:#145BFF"/>
		<stop  offset="0.43" style="stop-color:#0983FF"/>
		<stop  offset="0.54" style="stop-color:#029BFF"/>
		<stop  offset="0.61" style="stop-color:#00A4FF"/>
		<stop  offset="0.66" style="stop-color:#00ACCE"/>
		<stop  offset="0.72" style="stop-color:#00B590"/>
		<stop  offset="0.79" style="stop-color:#00BD5D"/>
		<stop  offset="0.84" style="stop-color:#00C434"/>
		<stop  offset="0.9" style="stop-color:#00C818"/>
		<stop  offset="0.95" style="stop-color:#00CB06"/>
		<stop  offset="0.98" style="stop-color:#00CC00"/>
	</linearGradient>
	<path class="st0" d="M13.2,0C5.9,0,0,5.9,0,13.2s5.9,13.2,13.2,13.2s13.2-5.9,13.2-13.2l0,0C26.4,5.9,20.5,0,13.2,0z M11.4,10.3
		c0,0.1-0.1,0.3-0.1,0.4c-0.2,0.2-0.5,0.2-0.7,0c-0.2-0.2-0.2-0.5,0-0.7c0.2-0.2,0.5-0.2,0.7,0C11.3,10,11.4,10.2,11.4,10.3z
		 M16.7,18.2v5.5l7.3-7.2c-1.7,5.9-7.9,9.3-13.9,7.6c-4.8-1.4-8-5.8-8-10.7c0-2.1,0.6-4.1,1.7-5.9l3,3c0.4,0.4,0.9,0.6,1.4,0.8
		c0.3,1.7,1.1,3.3,2.3,4.5C12.1,17.2,14.4,18.1,16.7,18.2z M18.7,16.2c-0.1-2.3-1-4.6-2.6-6.3c-1.3-1.2-2.8-2-4.5-2.3
		c-0.1-0.5-0.4-1-0.8-1.4L9.9,5.2L8.5,6.7L9,7.2H8.8H7.7v1.1c0,0.1,0,0.2,0,0.2L4.9,5.7c4.2-4.5,11.3-4.8,15.8-0.6
		c3,2.8,4.3,7.1,3.2,11.1L18.7,16.2z"/>
</g>
</svg>
