<?xml version="1.0" encoding="utf-8"?>
<!-- Generator: Adobe Illustrator 26.4.1, SVG Export Plug-In . SVG Version: 6.00 Build 0)  -->
<svg version="1.1" id="Layer_1" xmlns="http://www.w3.org/2000/svg" xmlns:xlink="http://www.w3.org/1999/xlink" x="0px" y="0px"
	 viewBox="0 0 26.6 26.6" style="enable-background:new 0 0 26.6 26.6;" xml:space="preserve">
<style type="text/css">
	.st0{fill:url(#SVGID_1_);}
</style>
<g id="Layer_1_00000007423451902306515650000014440453014389927862_">
	
		<linearGradient id="SVGID_1_" gradientUnits="userSpaceOnUse" x1="3.8926" y1="6.6926" x2="22.6845" y2="25.4845" gradientTransform="matrix(1 0 0 -1 0 29.38)">
		<stop  offset="0.1" style="stop-color:#2814FF"/>
		<stop  offset="0.14" style="stop-color:#2324FF"/>
		<stop  offset="0.3" style="stop-color:#145BFF"/>
		<stop  offset="0.43" style="stop-color:#0983FF"/>
		<stop  offset="0.54" style="stop-color:#029BFF"/>
		<stop  offset="0.61" style="stop-color:#00A4FF"/>
		<stop  offset="0.66" style="stop-color:#00ACCE"/>
		<stop  offset="0.72" style="stop-color:#00B590"/>
		<stop  offset="0.79" style="stop-color:#00BD5D"/>
		<stop  offset="0.84" style="stop-color:#00C434"/>
		<stop  offset="0.9" style="stop-color:#00C818"/>
		<stop  offset="0.95" style="stop-color:#00CB06"/>
		<stop  offset="0.98" style="stop-color:#00CC00"/>
	</linearGradient>
	<path class="st0" d="M13.3,0C6,0,0,6,0,13.3s6,13.3,13.3,13.3s13.3-6,13.3-13.3l0,0C26.6,6,20.6,0,13.3,0z M24.3,14.4
		c-0.2,2.2-1.1,4.2-2.5,5.9l-1.2-1.2l-1.5,1.6l1.2,1.2c-1.7,1.4-3.8,2.2-5.9,2.4v-1.8h-2.2v1.7c-2.2-0.2-4.2-1.1-5.9-2.5l1.2-1.2
		l-1.6-1.5l-1.2,1.2c-1.4-1.7-2.2-3.7-2.4-5.9H4v-2.2H2.3C2.5,10,3.3,7.9,4.7,6.3l1.2,1.2l1.6-1.6L6.3,4.7C8,3.3,10,2.5,12.2,2.2V4
		h2.2V2.3c2.2,0.2,4.2,1.1,5.9,2.4l-1.2,1.2l1.6,1.6l1.2-1.2c1.4,1.7,2.2,3.8,2.5,5.9h-1.8v2.2L24.3,14.4z M15.1,11.1
		c0.6,0.6,1,1.4,1,2.2c0,1.6-1.3,2.9-2.9,2.9s-2.9-1.3-2.9-2.9s1.3-2.9,2.9-2.9l0,0h0.4l2.6-6.3l1.6,0.6L15.1,11.1z"/>
</g>
</svg>
