<?xml version="1.0" encoding="utf-8"?>
<!-- Generator: Adobe Illustrator 26.4.1, SVG Export Plug-In . SVG Version: 6.00 Build 0)  -->
<svg version="1.1" id="Layer_1" xmlns="http://www.w3.org/2000/svg" xmlns:xlink="http://www.w3.org/1999/xlink" x="0px" y="0px"
	 viewBox="0 0 26.9 31.8" style="enable-background:new 0 0 26.9 31.8;" xml:space="preserve">
<style type="text/css">
	.st0{fill:url(#SVGID_1_);}
</style>
<g id="Layer_1_00000168835020964044284820000013237833575599936430_">
	
		<linearGradient id="SVGID_1_" gradientUnits="userSpaceOnUse" x1="5.1403" y1="8.2169" x2="22.7603" y2="25.8369" gradientTransform="matrix(1 0 0 -1 0 34.6284)">
		<stop  offset="0.1" style="stop-color:#2814FF"/>
		<stop  offset="0.14" style="stop-color:#2324FF"/>
		<stop  offset="0.3" style="stop-color:#145BFF"/>
		<stop  offset="0.43" style="stop-color:#0983FF"/>
		<stop  offset="0.54" style="stop-color:#029BFF"/>
		<stop  offset="0.61" style="stop-color:#00A4FF"/>
		<stop  offset="0.66" style="stop-color:#00ACCE"/>
		<stop  offset="0.72" style="stop-color:#00B590"/>
		<stop  offset="0.79" style="stop-color:#00BD5D"/>
		<stop  offset="0.84" style="stop-color:#00C434"/>
		<stop  offset="0.9" style="stop-color:#00C818"/>
		<stop  offset="0.95" style="stop-color:#00CB06"/>
		<stop  offset="0.98" style="stop-color:#00CC00"/>
	</linearGradient>
	<path class="st0" d="M20.3,16.5v-8c0-1.4-1.2-2.6-2.6-2.6c-0.2,0-0.4,0-0.6,0.1V4.3c0-1.4-1.2-2.6-2.6-2.6l0,0
		c-0.2,0-0.5,0-0.7,0.1c-0.4-1.4-1.9-2.1-3.3-1.7C9.8,0.4,9.2,1,8.9,1.8C8.7,1.7,8.4,1.7,8.2,1.7c-1.4,0-2.6,1.2-2.6,2.6v9l-0.4-0.5
		c-0.9-1.3-2.7-1.6-4-0.7c-1.3,0.9-1.6,2.7-0.7,4l0,0l5.6,8v3.3h6.1c1.8,3.9,6.4,5.5,10.2,3.7s5.5-6.4,3.7-10.2
		C25.1,18.5,22.9,16.9,20.3,16.5L20.3,16.5z M24.9,24.2c0,3.1-2.5,5.7-5.7,5.7s-5.7-2.5-5.7-5.7s2.5-5.7,5.7-5.7S24.9,21,24.9,24.2
		L24.9,24.2z M11.6,25.4H8.2v-1.9l-6-8.6C2,14.7,2,14.4,2,14.2c0-0.2,0.2-0.4,0.3-0.5c0.4-0.3,0.9-0.2,1.1,0.2l4.1,5.9V4.3
		c0-0.3,0.3-0.6,0.6-0.6c0.3,0,0.6,0.2,0.6,0.6v10.5h2V2.6C10.7,2.3,11,2,11.3,2c0.3,0,0.6,0.2,0.6,0.6V14h2V4.3
		c0-0.3,0.3-0.5,0.6-0.5c0.3,0,0.5,0.2,0.5,0.5v11.8h2V8.5C17,8.2,17.3,8,17.6,8c0.3,0,0.6,0.3,0.6,0.6v8c-3.9,0.5-6.8,3.8-6.8,7.6
		C11.4,24.6,11.5,25,11.6,25.4z M21.3,23.5v-0.7c0-1.1-0.9-2.1-2.1-2.1c0,0,0,0,0,0c-1.2,0-2.1,0.9-2.1,2.1v0.7h-0.4v4.1h5v-4.1
		H21.3z M18.2,22.8c0-0.6,0.4-1,1-1c0.3,0,0.5,0.1,0.7,0.3c0.2,0.2,0.3,0.4,0.3,0.7v0.7h-2V22.8z"/>
</g>
</svg>
