<?xml version="1.0" encoding="utf-8"?>
<!-- Generator: Adobe Illustrator 26.4.1, SVG Export Plug-In . SVG Version: 6.00 Build 0)  -->
<svg version="1.1" id="Layer_1" xmlns="http://www.w3.org/2000/svg" xmlns:xlink="http://www.w3.org/1999/xlink" x="0px" y="0px"
	 viewBox="0 0 26.6 23" style="enable-background:new 0 0 26.6 23;" xml:space="preserve">
<style type="text/css">
	.st0{fill:url(#SVGID_1_);}
</style>
<g id="Layer_1_00000111875156021270895720000003029016142982195087_">
	
		<linearGradient id="SVGID_1_" gradientUnits="userSpaceOnUse" x1="1.865" y1="4.815" x2="24.715" y2="27.665" gradientTransform="matrix(1 0 0 -1 0 25.8)">
		<stop  offset="0.1" style="stop-color:#2814FF"/>
		<stop  offset="0.14" style="stop-color:#2324FF"/>
		<stop  offset="0.3" style="stop-color:#145BFF"/>
		<stop  offset="0.43" style="stop-color:#0983FF"/>
		<stop  offset="0.54" style="stop-color:#029BFF"/>
		<stop  offset="0.61" style="stop-color:#00A4FF"/>
		<stop  offset="0.66" style="stop-color:#00ACCE"/>
		<stop  offset="0.72" style="stop-color:#00B590"/>
		<stop  offset="0.79" style="stop-color:#00BD5D"/>
		<stop  offset="0.84" style="stop-color:#00C434"/>
		<stop  offset="0.9" style="stop-color:#00C818"/>
		<stop  offset="0.95" style="stop-color:#00CB06"/>
		<stop  offset="0.98" style="stop-color:#00CC00"/>
	</linearGradient>
	<path class="st0" d="M26.6,19.1V0H0v19.1h8.5v1.4H6.2V23h14.2v-2.5h-2.3v-1.4H26.6z M24.2,2.4v14.4H2.3V2.4H24.2z M5.3,7.1H3.9v4.6
		h1.3c0.7,0,1.4-0.2,1.9-0.6c0.5-0.5,0.7-1.1,0.6-1.8c0-0.6-0.2-1.2-0.6-1.7C6.6,7.3,6,7.1,5.3,7.1z M5.3,11H4.9V7.9h0.5
		c0.9,0,1.3,0.5,1.3,1.5S6.2,11,5.3,11z M8.7,7.1h2.7v0.8H9.7v1h1.6v0.8H9.7v1.2h1.7v0.8H8.7V7.1z M15.9,7.1h1.3v4.6h-0.9V9.2
		c0-0.1,0-0.5,0-1.1l0,0l-1.2,3.6h-0.9l-1.1-3.6l0,0c0,0.7,0.1,1.2,0.1,1.5v2.2h-0.9V7.1h1.3l1.1,3.5l0,0L15.9,7.1z M20.5,7.1
		c-0.6,0-1.2,0.2-1.6,0.6c-0.4,0.5-0.6,1.1-0.6,1.8c0,0.6,0.2,1.3,0.6,1.8c0.9,0.8,2.3,0.8,3.3,0c0.4-0.5,0.6-1.1,0.6-1.8
		c0-0.6-0.2-1.3-0.6-1.8C21.7,7.2,21.1,7,20.5,7.1L20.5,7.1z M20.5,11c-0.3,0-0.7-0.1-0.9-0.4c-0.2-0.3-0.3-0.8-0.3-1.2
		c0-0.4,0.1-0.8,0.3-1.2c0.2-0.3,0.5-0.4,0.9-0.4c0.8,0,1.2,0.5,1.2,1.6S21.3,11,20.5,11L20.5,11z"/>
</g>
</svg>
