<?xml version="1.0" encoding="utf-8"?>
<!-- Generator: Adobe Illustrator 26.4.1, SVG Export Plug-In . SVG Version: 6.00 Build 0)  -->
<svg version="1.1" id="Layer_1" xmlns="http://www.w3.org/2000/svg" xmlns:xlink="http://www.w3.org/1999/xlink" x="0px" y="0px"
	 viewBox="0 0 33.4 18.2" style="enable-background:new 0 0 33.4 18.2;" xml:space="preserve">
<style type="text/css">
	.st0{fill:url(#SVGID_1_);}
</style>
<g id="Layer_1_00000070093286316057728430000000543642592187138454_">
	
		<linearGradient id="SVGID_1_" gradientUnits="userSpaceOnUse" x1="5.3425" y1="0.5575" x2="29.6625" y2="24.8775" gradientTransform="matrix(1 0 0 -1 0 21.04)">
		<stop  offset="0.1" style="stop-color:#2814FF"/>
		<stop  offset="0.14" style="stop-color:#2324FF"/>
		<stop  offset="0.3" style="stop-color:#145BFF"/>
		<stop  offset="0.43" style="stop-color:#0983FF"/>
		<stop  offset="0.54" style="stop-color:#029BFF"/>
		<stop  offset="0.61" style="stop-color:#00A4FF"/>
		<stop  offset="0.66" style="stop-color:#00ACCE"/>
		<stop  offset="0.72" style="stop-color:#00B590"/>
		<stop  offset="0.79" style="stop-color:#00BD5D"/>
		<stop  offset="0.84" style="stop-color:#00C434"/>
		<stop  offset="0.9" style="stop-color:#00C818"/>
		<stop  offset="0.95" style="stop-color:#00CB06"/>
		<stop  offset="0.98" style="stop-color:#00CC00"/>
	</linearGradient>
	<path class="st0" d="M21,15.1V0H0v15.1h6.7v1.1H4.9v2h11.2v-2h-1.8v-1.1H21z M19.1,1.9v11.4H1.8V1.9H19.1z M8.3,5H6.4v4.9h0.9V8.2
		h1c0.9-0.1,1.5-0.8,1.5-1.7C9.7,5.7,9.1,5.1,8.3,5L8.3,5z M8.1,7.4H7.3V5.8h0.8c0.5,0,0.8,0.4,0.8,0.8C8.9,7.1,8.6,7.4,8.1,7.4z
		 M14.2,8.5l0.5,0.6c-0.5,0.5-1.2,0.8-1.9,0.8c-1.4-0.1-2.4-1.3-2.3-2.7C10.6,6,11.6,5.1,12.8,5c0.7,0,1.3,0.2,1.8,0.7l-0.4,0.6
		c-0.4-0.3-0.8-0.5-1.3-0.5c-0.9,0-1.6,0.7-1.6,1.5c0,0,0,0.1,0,0.1c0,0.9,0.6,1.7,1.5,1.7c0,0,0.1,0,0.1,0
		C13.4,9.1,13.9,8.9,14.2,8.5L14.2,8.5z M23.9,0v18.2h9.6V0L23.9,0z M25.9,16.2V2h5.6v14.2H25.9z M30.6,2.9v1.6h-3.8V2.9H30.6z
		 M26.8,5.6h3.8v1.6h-3.8L26.8,5.6z M26.8,8.3h3.8v1.6h-3.8L26.8,8.3z M29.8,14.2c0,0.6-0.5,1.1-1.1,1.1c-0.6,0-1.1-0.5-1.1-1.1
		s0.5-1.1,1.1-1.1c0,0,0,0,0,0C29.2,13.1,29.8,13.6,29.8,14.2C29.8,14.2,29.8,14.2,29.8,14.2L29.8,14.2z"/>
</g>
</svg>
