<?xml version="1.0" encoding="utf-8"?>
<!-- Generator: Adobe Illustrator 26.4.1, SVG Export Plug-In . SVG Version: 6.00 Build 0)  -->
<svg version="1.1" id="Layer_1" xmlns="http://www.w3.org/2000/svg" xmlns:xlink="http://www.w3.org/1999/xlink" x="0px" y="0px"
	 viewBox="0 0 19.5 26.2" style="enable-background:new 0 0 19.5 26.2;" xml:space="preserve">
<style type="text/css">
	.st0{fill:url(#SVGID_1_);}
</style>
<g id="Layer_1_00000115512459999316263870000005592472386011981757_">
	
		<linearGradient id="SVGID_1_" gradientUnits="userSpaceOnUse" x1="-1.685" y1="4.485" x2="21.165" y2="27.335" gradientTransform="matrix(1 0 0 -1 0 29.02)">
		<stop  offset="0.1" style="stop-color:#2814FF"/>
		<stop  offset="0.14" style="stop-color:#2324FF"/>
		<stop  offset="0.3" style="stop-color:#145BFF"/>
		<stop  offset="0.43" style="stop-color:#0983FF"/>
		<stop  offset="0.54" style="stop-color:#029BFF"/>
		<stop  offset="0.61" style="stop-color:#00A4FF"/>
		<stop  offset="0.66" style="stop-color:#00ACCE"/>
		<stop  offset="0.72" style="stop-color:#00B590"/>
		<stop  offset="0.79" style="stop-color:#00BD5D"/>
		<stop  offset="0.84" style="stop-color:#00C434"/>
		<stop  offset="0.9" style="stop-color:#00C818"/>
		<stop  offset="0.95" style="stop-color:#00CB06"/>
		<stop  offset="0.98" style="stop-color:#00CC00"/>
	</linearGradient>
	<path class="st0" d="M0,0v26.2h19.5V0H0z M2.2,22.4V2.2h15.1v20.2H2.2z M9.7,25C9.3,25,9,24.7,9,24.3c0-0.4,0.3-0.7,0.7-0.7
		c0.4,0,0.7,0.3,0.7,0.7c0,0,0,0,0,0C10.4,24.7,10.1,25,9.7,25 M8.5,3.7h2.2v2.3H8.5V3.7z M4.1,3.7h2.3v2.3H4.1V3.7z M15.4,3.7v2.3
		h-2.3V3.7H15.4z M8.5,7.4h2.2v2.3H8.5V7.4z M4.1,7.4h2.3v2.3H4.1V7.4z M13.2,7.4h2.3v2.3h-2.3L13.2,7.4z M8.5,11.2h2.2v2.2H8.5
		V11.2z M4.1,11.2h2.3v2.2H4.1V11.2z M13.2,11.2h2.3v2.2h-2.3L13.2,11.2z M8.5,15h2.2v2.2H8.5V15z M4.1,15h2.3v2.2H4.1V15z M13.2,15
		h2.3v2.2h-2.3L13.2,15z M8.5,18.7h2.2V21H8.5V18.7z M4.1,18.7h2.3V21H4.1V18.7z M13.2,18.7h2.3V21h-2.3L13.2,18.7z"/>
</g>
</svg>
