<?xml version="1.0" encoding="utf-8"?>
<!-- Generator: Adobe Illustrator 26.4.1, SVG Export Plug-In . SVG Version: 6.00 Build 0)  -->
<svg version="1.1" id="Layer_1" xmlns="http://www.w3.org/2000/svg" xmlns:xlink="http://www.w3.org/1999/xlink" x="0px" y="0px"
	 viewBox="0 0 26.3 31.4" style="enable-background:new 0 0 26.3 31.4;" xml:space="preserve">
<style type="text/css">
	.st0{fill:url(#SVGID_1_);}
</style>
<g id="Layer_1_00000034092237303299110780000017938509018886830491_">
	
		<linearGradient id="SVGID_1_" gradientUnits="userSpaceOnUse" x1="0.9377" y1="4.8923" x2="23.5992" y2="27.5538" gradientTransform="matrix(1 0 0 -1 0 34.2)">
		<stop  offset="0.1" style="stop-color:#2814FF"/>
		<stop  offset="0.14" style="stop-color:#2324FF"/>
		<stop  offset="0.3" style="stop-color:#145BFF"/>
		<stop  offset="0.43" style="stop-color:#0983FF"/>
		<stop  offset="0.54" style="stop-color:#029BFF"/>
		<stop  offset="0.61" style="stop-color:#00A4FF"/>
		<stop  offset="0.66" style="stop-color:#00ACCE"/>
		<stop  offset="0.72" style="stop-color:#00B590"/>
		<stop  offset="0.79" style="stop-color:#00BD5D"/>
		<stop  offset="0.84" style="stop-color:#00C434"/>
		<stop  offset="0.9" style="stop-color:#00C818"/>
		<stop  offset="0.95" style="stop-color:#00CB06"/>
		<stop  offset="0.98" style="stop-color:#00CC00"/>
	</linearGradient>
	<path class="st0" d="M11.3,3.2c0,1.8-1.4,3.2-3.2,3.2c-1.8,0-3.2-1.4-3.2-3.2S6.3,0,8.1,0l0,0C9.9,0,11.3,1.4,11.3,3.2z M17.5,1.8
		c-1.8,0-3.2,1.4-3.2,3.2s1.4,3.2,3.2,3.2c1.8,0,3.2-1.4,3.2-3.2l0,0C20.7,3.3,19.2,1.8,17.5,1.8z M26.3,24.6c0,3.8-3.1,6.8-6.8,6.8
		c-2.3,0-4.4-1.1-5.7-3H0v-9.6h2.3c-1.7-0.6-2.6-2.4-2-4c0.5-1.4,1.9-2.3,3.4-2.1V6.8h8.7v2.7c0.7-0.1,1.3,0.1,1.9,0.5l0.2-1.4h5.8
		l1.1,9.5C24.4,19,26.3,21.6,26.3,24.6z M6.8,18.8v7.6h3.3V25H8.2l1.7-9.3h1.9c-1.3-0.4-2.2-1.6-2.2-3c0-0.8,0.3-1.6,0.8-2.1V8.8
		H5.8v4.9c1.1,1.3,0.9,3.3-0.4,4.4c-0.3,0.2-0.6,0.4-1,0.6L6.8,18.8z M14.7,24.6c0,2.6,2.1,4.8,4.8,4.8c2.6,0,4.8-2.1,4.8-4.8
		s-2.1-4.8-4.8-4.8C16.9,19.8,14.7,22,14.7,24.6z M16.3,10.7l-0.5,2.9l0,0c-0.3,1-1,1.8-2,2.1h1.9l0.5,3c1-0.6,2.2-0.9,3.3-0.9
		l-0.9-7.1L16.3,10.7z M13.9,12.7c0.1-0.6-0.4-1.2-1-1.2s-1.2,0.4-1.2,1c0,0.1,0,0.1,0,0.2c0.1,0.6,0.6,1.1,1.2,1
		C13.4,13.6,13.8,13.2,13.9,12.7z M3.4,16.9c0.6,0.1,1.2-0.4,1.2-1c0.1-0.6-0.4-1.2-1-1.2c-0.1,0-0.1,0-0.2,0
		c-0.6,0.1-1.1,0.6-1,1.2C2.4,16.4,2.8,16.8,3.4,16.9z M21.3,21.4l-2.7,3.8l-1.4-1.4l-1.2,1.2l2.8,2.7l3.8-5.4L21.3,21.4z"/>
</g>
</svg>
