<?xml version="1.0" encoding="utf-8"?>
<!-- Generator: Adobe Illustrator 26.4.1, SVG Export Plug-In . SVG Version: 6.00 Build 0)  -->
<svg version="1.1" id="Layer_1" xmlns="http://www.w3.org/2000/svg" xmlns:xlink="http://www.w3.org/1999/xlink" x="0px" y="0px"
	 viewBox="0 0 24.6 31.3" style="enable-background:new 0 0 24.6 31.3;" xml:space="preserve">
<style type="text/css">
	.st0{fill:url(#SVGID_1_);}
</style>
<g id="Layer_1_00000093151401242377643510000018179961519264353962_">
	
		<linearGradient id="SVGID_1_" gradientUnits="userSpaceOnUse" x1="1.0226" y1="7.1074" x2="22.2926" y2="28.3874" gradientTransform="matrix(1 0 0 -1 0 34)">
		<stop  offset="0.1" style="stop-color:#2814FF"/>
		<stop  offset="0.14" style="stop-color:#2324FF"/>
		<stop  offset="0.3" style="stop-color:#145BFF"/>
		<stop  offset="0.43" style="stop-color:#0983FF"/>
		<stop  offset="0.54" style="stop-color:#029BFF"/>
		<stop  offset="0.61" style="stop-color:#00A4FF"/>
		<stop  offset="0.66" style="stop-color:#00ACCE"/>
		<stop  offset="0.72" style="stop-color:#00B590"/>
		<stop  offset="0.79" style="stop-color:#00BD5D"/>
		<stop  offset="0.84" style="stop-color:#00C434"/>
		<stop  offset="0.9" style="stop-color:#00C818"/>
		<stop  offset="0.95" style="stop-color:#00CB06"/>
		<stop  offset="0.98" style="stop-color:#00CC00"/>
	</linearGradient>
	<path class="st0" d="M24.6,18.6L16.7,11V0H0v25.9h11.4l5.2,5.4h8L24.6,18.6z M14.3,2.3v16.6L13.5,18c-0.6-0.6-1.5-1-2.4-1
		c-0.9,0-1.8,0.3-2.5,1c-0.7,0.6-1.1,1.5-1.1,2.4c0,0.7,0.2,1.5,0.6,2.1H2.3V2.3L14.3,2.3z M10.2,19.6c0.2-0.2,0.5-0.3,0.8-0.3h0
		c0.3,0,0.6,0.1,0.8,0.4l4.9,4.8V14.2l5.6,5.4v9.3h-4.8l-7.4-7.7c-0.2-0.2-0.3-0.5-0.3-0.8C9.8,20.1,10,19.8,10.2,19.6z M6.2,12.7
		v1.6h1.4L8,13.4c0.3,0.1,0.7,0.1,1,0.1c0.3,0,0.7,0,1-0.1l0.4,0.9h1.4v-1.6c0.9-0.5,1.4-1.4,1.5-2.5C13.2,8.5,11.3,7,9,7
		c-0.3,0-0.7,0-1,0.1L7.6,6.6H6.2v1.2C5.7,8.1,5.3,8.6,5,9.1H4v2.3h1C5.3,12,5.7,12.4,6.2,12.7z M6.3,9.1c0.2-0.2,0.6-0.2,0.8,0
		C7.4,9.4,7.3,9.8,7.1,10c-0.2,0.2-0.5,0.2-0.7,0C6.1,9.7,6.1,9.4,6.3,9.1z M8.7,23.8c-0.3,0-0.5-0.2-0.5-0.5c0-0.3,0.2-0.5,0.5-0.5
		c0.3,0,0.5,0.2,0.5,0.5C9.2,23.6,9,23.8,8.7,23.8C8.7,23.8,8.7,23.8,8.7,23.8"/>
</g>
</svg>
