<?xml version="1.0" encoding="utf-8"?>
<!-- Generator: Adobe Illustrator 26.4.1, SVG Export Plug-In . SVG Version: 6.00 Build 0)  -->
<svg version="1.1" id="Layer_1" xmlns="http://www.w3.org/2000/svg" xmlns:xlink="http://www.w3.org/1999/xlink" x="0px" y="0px"
	 viewBox="0 0 26.4 26.4" style="enable-background:new 0 0 26.4 26.4;" xml:space="preserve">
<style type="text/css">
	.st0{fill:url(#SVGID_1_);}
</style>
<g id="Layer_1_00000047759678288218493580000009342649491691580577_">
	
		<linearGradient id="SVGID_1_" gradientUnits="userSpaceOnUse" x1="3.872" y1="6.672" x2="22.565" y2="25.365" gradientTransform="matrix(1 0 0 -1 0 29.24)">
		<stop  offset="0.1" style="stop-color:#2814FF"/>
		<stop  offset="0.14" style="stop-color:#2324FF"/>
		<stop  offset="0.3" style="stop-color:#145BFF"/>
		<stop  offset="0.43" style="stop-color:#0983FF"/>
		<stop  offset="0.54" style="stop-color:#029BFF"/>
		<stop  offset="0.61" style="stop-color:#00A4FF"/>
		<stop  offset="0.66" style="stop-color:#00ACCE"/>
		<stop  offset="0.72" style="stop-color:#00B590"/>
		<stop  offset="0.79" style="stop-color:#00BD5D"/>
		<stop  offset="0.84" style="stop-color:#00C434"/>
		<stop  offset="0.9" style="stop-color:#00C818"/>
		<stop  offset="0.95" style="stop-color:#00CB06"/>
		<stop  offset="0.98" style="stop-color:#00CC00"/>
	</linearGradient>
	<path class="st0" d="M13.2,0C5.9,0,0,5.9,0,13.2s5.9,13.2,13.2,13.2s13.2-5.9,13.2-13.2l0,0C26.4,5.9,20.5,0,13.2,0z M4.6,20.3
		c-4-4.7-3.4-11.7,1.2-15.7c4.2-3.6,10.3-3.6,14.5,0L4.6,20.3z M12.9,15l2.2-2.2C14.6,13.8,13.9,14.5,12.9,15L12.9,15z M10.5,17.4
		c1.4,0.2,2.8-0.2,4-0.9l4.8,4.8l2.1-2.1l-4.8-4.8c0.6-1,0.9-2.1,0.9-3.3c0-0.2,0-0.5,0-0.7l4.3-4.3c4.1,4.6,3.8,11.6-0.8,15.8
		c-4.3,3.9-10.8,3.8-15,0L10.5,17.4z M16.6,7.9l-1.5,1.5l-0.3-0.5c-0.8-1.3-2.1-2.1-3.6-2.1c-2.4,0-4.3,1.9-4.3,4.2
		c0,1.5,0.8,2.9,2.1,3.7L9.5,15L8,16.5l-0.3-0.2C4.8,14.4,4,10.5,5.9,7.6s5.8-3.7,8.7-1.8c0.7,0.5,1.3,1.1,1.8,1.8L16.6,7.9z"/>
</g>
</svg>
