<?xml version="1.0" encoding="utf-8"?>
<!-- Generator: Adobe Illustrator 26.4.1, SVG Export Plug-In . SVG Version: 6.00 Build 0)  -->
<svg version="1.1" id="Layer_1" xmlns="http://www.w3.org/2000/svg" xmlns:xlink="http://www.w3.org/1999/xlink" x="0px" y="0px"
	 viewBox="0 0 22.5 28.5" style="enable-background:new 0 0 22.5 28.5;" xml:space="preserve">
<style type="text/css">
	.st0{fill:url(#SVGID_1_);}
</style>
<g id="Layer_1_00000043430106064616206000000000795924568892844188_">
	
		<linearGradient id="SVGID_1_" gradientUnits="userSpaceOnUse" x1="0.9279" y1="6.7526" x2="20.354" y2="26.1887" gradientTransform="matrix(1 0 0 -1 0 31.32)">
		<stop  offset="0.1" style="stop-color:#2814FF"/>
		<stop  offset="0.14" style="stop-color:#2324FF"/>
		<stop  offset="0.3" style="stop-color:#145BFF"/>
		<stop  offset="0.43" style="stop-color:#0983FF"/>
		<stop  offset="0.54" style="stop-color:#029BFF"/>
		<stop  offset="0.61" style="stop-color:#00A4FF"/>
		<stop  offset="0.66" style="stop-color:#00ACCE"/>
		<stop  offset="0.72" style="stop-color:#00B590"/>
		<stop  offset="0.79" style="stop-color:#00BD5D"/>
		<stop  offset="0.84" style="stop-color:#00C434"/>
		<stop  offset="0.9" style="stop-color:#00C818"/>
		<stop  offset="0.95" style="stop-color:#00CB06"/>
		<stop  offset="0.98" style="stop-color:#00CC00"/>
	</linearGradient>
	<path class="st0" d="M22.4,17l-7.2-7V0H0l0,23.7h10.4l4.7,4.9h7.4L22.4,17z M13,2.2v15l-0.7-0.7c-0.6-0.6-1.4-1-2.2-1
		c-1.8-0.1-3.2,1.3-3.3,3.1c0,0.7,0.2,1.4,0.6,1.9H2.2V2.3L13,2.2z M9.3,17.9c0.2-0.2,0.4-0.3,0.7-0.3h0c0.3,0,0.5,0.1,0.7,0.3
		l4.5,4.5v-9.4l5,4.9v8.4H16l-6.7-7C9.1,19.1,9,18.9,9,18.6C9,18.4,9.1,18.1,9.3,17.9z M7.6,4.4c-1.8,0-3.2,1.4-3.2,3.2c0,0,0,0,0,0
		c0,0.7,0.3,1.4,0.7,2c0.6,0.9,2.2,3.6,2.3,3.6l0.2,0.4l0.2-0.4c0,0,1.6-2.8,2.2-3.6c0.4-0.6,0.7-1.3,0.7-2
		C10.9,5.8,9.4,4.4,7.6,4.4C7.7,4.4,7.6,4.4,7.6,4.4z M7.6,8.6c-0.6,0-1-0.4-1-1s0.4-1,1-1s1,0.4,1,1S8.2,8.6,7.6,8.6z M7.6,22.5
		c-0.3,0-0.5-0.2-0.5-0.5c0-0.3,0.2-0.5,0.5-0.5c0.3,0,0.5,0.2,0.5,0.5S7.9,22.5,7.6,22.5L7.6,22.5"/>
</g>
</svg>
