<?xml version="1.0" encoding="utf-8"?>
<!-- Generator: Adobe Illustrator 26.4.1, SVG Export Plug-In . SVG Version: 6.00 Build 0)  -->
<svg version="1.1" id="Layer_1" xmlns="http://www.w3.org/2000/svg" xmlns:xlink="http://www.w3.org/1999/xlink" x="0px" y="0px"
	 viewBox="0 0 22.4 28.5" style="enable-background:new 0 0 22.4 28.5;" xml:space="preserve">
<style type="text/css">
	.st0{fill:url(#SVGID_1_);}
</style>
<g id="Layer_1_00000017500358272435153630000009798465957557006516_">
	
		<linearGradient id="SVGID_1_" gradientUnits="userSpaceOnUse" x1="0.8975" y1="6.7825" x2="20.3425" y2="26.2275" gradientTransform="matrix(1 0 0 -1 0 31.36)">
		<stop  offset="0.1" style="stop-color:#2814FF"/>
		<stop  offset="0.14" style="stop-color:#2324FF"/>
		<stop  offset="0.3" style="stop-color:#145BFF"/>
		<stop  offset="0.43" style="stop-color:#0983FF"/>
		<stop  offset="0.54" style="stop-color:#029BFF"/>
		<stop  offset="0.61" style="stop-color:#00A4FF"/>
		<stop  offset="0.66" style="stop-color:#00ACCE"/>
		<stop  offset="0.72" style="stop-color:#00B590"/>
		<stop  offset="0.79" style="stop-color:#00BD5D"/>
		<stop  offset="0.84" style="stop-color:#00C434"/>
		<stop  offset="0.9" style="stop-color:#00C818"/>
		<stop  offset="0.95" style="stop-color:#00CB06"/>
		<stop  offset="0.98" style="stop-color:#00CC00"/>
	</linearGradient>
	<path class="st0" d="M10.9,7.7c0,2.7-2.2,4.8-4.8,4.8c-0.9,0-1.8-0.3-2.6-0.8c0.2,0,0.4,0,0.6,0l0,0c0.2,0,0.3,0,0.5,0h0.1L5,11.7
		c0.3-0.1,0.6-0.3,0.8-0.5C2.4,9.7,4,6.2,4,6.2l0,0C4.9,7.3,6.1,7.9,7.5,8c0-0.1,0-0.3,0-0.4c0-0.9,0.8-1.7,1.7-1.7
		c0.5,0,0.9,0.2,1.2,0.5L11.5,6L11,6.9l0.8-0.2L10.9,7.7z M22.4,17v11.5h-7.4l-4.7-4.8H0V0h15.2v10L22.4,17z M2.2,20.4h5.1
		c-0.4-0.5-0.5-1.2-0.5-1.8c0-0.8,0.4-1.6,1-2.2c0.6-0.6,1.4-0.9,2.3-0.9c0.8,0,1.7,0.4,2.2,1l0.7,0.7v-15H2.2L2.2,20.4z M9,18.7
		c0,0.3,0.1,0.5,0.3,0.7l6.7,7h4.3V18l-5-4.9v9.4L10.7,18c-0.2-0.2-0.4-0.3-0.7-0.3c-0.3,0-0.5,0.1-0.7,0.3C9.1,18.1,9,18.4,9,18.7z
		 M7.6,22.5c0.3,0,0.5-0.2,0.5-0.5c0-0.3-0.2-0.5-0.5-0.5c-0.3,0-0.5,0.2-0.5,0.5S7.3,22.5,7.6,22.5L7.6,22.5"/>
</g>
</svg>
