<?xml version="1.0" encoding="utf-8"?>
<!-- Generator: Adobe Illustrator 26.4.1, SVG Export Plug-In . SVG Version: 6.00 Build 0)  -->
<svg version="1.1" id="Layer_1" xmlns="http://www.w3.org/2000/svg" xmlns:xlink="http://www.w3.org/1999/xlink" x="0px" y="0px"
	 viewBox="0 0 22.4 28.5" style="enable-background:new 0 0 22.4 28.5;" xml:space="preserve">
<style type="text/css">
	.st0{fill:url(#SVGID_1_);}
</style>
<g id="Layer_1_00000038374004195766457960000004611285884438156949_">
	
		<linearGradient id="SVGID_1_" gradientUnits="userSpaceOnUse" x1="0.9175" y1="6.7125" x2="20.3575" y2="26.1525" gradientTransform="matrix(1 0 0 -1 0 31.26)">
		<stop  offset="0.1" style="stop-color:#2814FF"/>
		<stop  offset="0.14" style="stop-color:#2324FF"/>
		<stop  offset="0.3" style="stop-color:#145BFF"/>
		<stop  offset="0.43" style="stop-color:#0983FF"/>
		<stop  offset="0.54" style="stop-color:#029BFF"/>
		<stop  offset="0.61" style="stop-color:#00A4FF"/>
		<stop  offset="0.66" style="stop-color:#00ACCE"/>
		<stop  offset="0.72" style="stop-color:#00B590"/>
		<stop  offset="0.79" style="stop-color:#00BD5D"/>
		<stop  offset="0.84" style="stop-color:#00C434"/>
		<stop  offset="0.9" style="stop-color:#00C818"/>
		<stop  offset="0.95" style="stop-color:#00CB06"/>
		<stop  offset="0.98" style="stop-color:#00CC00"/>
	</linearGradient>
	<path class="st0" d="M9.1,7L8.5,5.8H6.7L6.1,7H3.6v5.2h8V7H9.1z M7.6,10.9c-0.7,0-1.3-0.6-1.3-1.3s0.6-1.3,1.3-1.3
		c0.7,0,1.3,0.6,1.3,1.3c0,0,0,0,0,0C8.9,10.3,8.3,10.9,7.6,10.9z M15.2,10V0H0v23.6h10.4l4.7,4.9h7.4V17L15.2,10z M2.2,2.2H13v15
		l-0.7-0.7c-0.6-0.6-1.4-1-2.2-1c-0.9,0-1.7,0.3-2.3,0.9c-0.6,0.6-1,1.4-1,2.2c0,0.6,0.2,1.3,0.5,1.8H2.2L2.2,2.2z M9.3,17.9
		c0.2-0.2,0.4-0.3,0.7-0.3c0.3,0,0.5,0.1,0.7,0.3l4.5,4.5v-9.4l5,4.9v8.4H16l-6.7-7C9.1,19.1,9,18.9,9,18.6
		C9,18.3,9.1,18.1,9.3,17.9L9.3,17.9z M7.6,22.5c-0.3,0-0.5-0.2-0.5-0.5s0.2-0.5,0.5-0.5c0.3,0,0.5,0.2,0.5,0.5S7.9,22.5,7.6,22.5
		C7.6,22.5,7.6,22.5,7.6,22.5"/>
</g>
</svg>
