<?xml version="1.0" encoding="utf-8"?>
<!-- Generator: Adobe Illustrator 26.4.1, SVG Export Plug-In . SVG Version: 6.00 Build 0)  -->
<svg version="1.1" id="Layer_1" xmlns="http://www.w3.org/2000/svg" xmlns:xlink="http://www.w3.org/1999/xlink" x="0px" y="0px"
	 viewBox="0 0 28.6 26.6" style="enable-background:new 0 0 28.6 26.6;" xml:space="preserve">
<style type="text/css">
	.st0{fill:url(#SVGID_1_);}
</style>
<g id="Layer_1_00000027579057583473856760000007956884505899702405_">
	
		<linearGradient id="SVGID_1_" gradientUnits="userSpaceOnUse" x1="5.1188" y1="5.1722" x2="23.9088" y2="23.9622" gradientTransform="matrix(1 0 0 -1 0 29.1)">
		<stop  offset="0.1" style="stop-color:#2814FF"/>
		<stop  offset="0.14" style="stop-color:#2324FF"/>
		<stop  offset="0.3" style="stop-color:#145BFF"/>
		<stop  offset="0.43" style="stop-color:#0983FF"/>
		<stop  offset="0.54" style="stop-color:#029BFF"/>
		<stop  offset="0.61" style="stop-color:#00A4FF"/>
		<stop  offset="0.66" style="stop-color:#00ACCE"/>
		<stop  offset="0.72" style="stop-color:#00B590"/>
		<stop  offset="0.79" style="stop-color:#00BD5D"/>
		<stop  offset="0.84" style="stop-color:#00C434"/>
		<stop  offset="0.9" style="stop-color:#00C818"/>
		<stop  offset="0.95" style="stop-color:#00CB06"/>
		<stop  offset="0.98" style="stop-color:#00CC00"/>
	</linearGradient>
	<path class="st0" d="M26.4,15.3c0.1-0.7,0.2-1.3,0.2-2C26.6,6,20.7,0,13.3,0S0,5.9,0,13.3c0,7.3,5.9,13.3,13.3,13.3c0,0,0,0,0,0
		c2.7,0,5.3-0.8,7.6-2.4c0.7,0.4,1.6,0.6,2.4,0.6c2.9,0,5.3-2.3,5.3-5.2C28.6,17.9,27.8,16.3,26.4,15.3z M12.2,2.3v10.4l-9,5.2
		c-0.7-1.4-1-3-1-4.6C2.2,7.6,6.5,2.8,12.2,2.3z M23.3,16.5c1.7,0,3.1,1.4,3.1,3.1s-1.4,3.1-3.1,3.1c-1.7,0-3.1-1.4-3.1-3.1
		c0,0,0,0,0,0C20.2,17.9,21.6,16.5,23.3,16.5z M24.3,14.4c-1.7-0.4-3.4,0.1-4.7,1.3l-5.3-3V2.3c5.7,0.6,10,5.3,10,11
		C24.4,13.7,24.4,14,24.3,14.4z M13.3,14.6l5.1,3c-0.3,0.6-0.4,1.3-0.4,2c0,1.2,0.4,2.3,1.1,3.2c-4.9,3.1-11.4,1.8-14.8-3L13.3,14.6
		z M21.8,11.7l0.1-0.1l-0.3-0.2c0,0-0.1,0-0.2,0.1l-0.2,0.1c-0.3,0.2-0.7,0.2-1,0.1c-0.2-0.1-0.4-0.2-0.5-0.4c0.6-0.3,1-0.9,1-1.6
		V9.5c0.5,0.1,0.8,0.4,0.9,0.9c0,0.2,0,0.4,0,0.5c0,0,0,0.1,0.1,0.2l0.2,0.1l0-0.1c0.3-0.9,0-1.9-0.8-2.4c-0.1,0-0.2-0.1-0.2-0.1
		l0,0l0,0c0-0.2,0-0.3,0-0.5c0-0.3-0.1-0.6-0.3-0.8c-0.3-0.5-0.8-0.8-1.4-0.9h-0.1v0.3c0,0.1,0.1,0.1,0.2,0.1
		c0.2,0.1,0.3,0.1,0.4,0.3c0.2,0.2,0.4,0.6,0.3,0.9c0,0.1,0,0.2-0.1,0.3c-0.6-0.4-1.5-0.4-2.1,0c-0.2-0.4,0-0.9,0.3-1.2
		c0.1-0.1,0.3-0.2,0.5-0.2c0,0,0.1-0.1,0.1-0.2V6.4h-0.1c-0.8,0.1-1.4,0.7-1.6,1.4c-0.1,0.2-0.1,0.4-0.1,0.6v0.3l0,0l-0.2,0.1
		c-0.3,0.2-0.6,0.5-0.8,0.8c-0.3,0.5-0.3,1.1-0.1,1.6l0,0.1l0.3-0.1c0.1,0,0.1-0.1,0.1-0.2c0-0.1,0-0.1,0-0.2c0-0.2,0-0.4,0.1-0.6
		c0.2-0.3,0.5-0.5,0.8-0.5c0,0,0,0.1,0,0.1c0,0.7,0.4,1.4,1.1,1.6c-0.1,0.1-0.2,0.2-0.3,0.3c-0.3,0.2-0.6,0.2-0.9,0.1
		c-0.2,0-0.3-0.1-0.5-0.2c0,0-0.1-0.1-0.2-0.1l-0.3,0.2l0.1,0.1c0.4,0.5,0.9,0.7,1.5,0.8c0.2,0,0.4,0,0.6-0.1
		c0.2-0.1,0.4-0.2,0.6-0.3l0.1-0.1l0,0c0.1,0.1,0.2,0.1,0.3,0.2c0.4,0.2,0.8,0.3,1.1,0.2C21,12.3,21.5,12.1,21.8,11.7L21.8,11.7z
		 M19.6,8.8c-0.4,0.2-0.8,0.2-1.2,0C18.7,8.6,19.2,8.6,19.6,8.8z M19.5,10.4c0-0.1,0.1-0.2,0.1-0.3c0-0.1,0.1-0.1,0.1-0.2l0,0
		c0.1-0.1,0.2-0.2,0.3-0.2l0,0l0,0c0,0.4-0.2,0.8-0.6,1C19.4,10.6,19.5,10.5,19.5,10.4z M18.5,10.7c-0.4-0.2-0.6-0.6-0.6-1l0,0
		c0.1,0,0.2,0.1,0.3,0.2c0,0,0.1,0.1,0.1,0.1c0,0,0.1,0.1,0.1,0.1C18.4,10.3,18.5,10.5,18.5,10.7L18.5,10.7z M15.1,18.7l1.1-0.3
		l0,0.3c-0.1,0.5-0.4,0.9-0.9,1c-0.2,0.1-0.5,0.1-0.7,0l-0.4,0.4l1.9,1.9l-0.9,0.9L13.3,21l-1.9,1.9L10.6,22l1.9-1.9l-0.6-0.6
		l-0.6,0.6L10,18.8l1.5-1.5c0.2-0.2,0.4-0.3,0.6-0.3c0.4,0.1,0.8,0.3,1.1,0.7l0.2,0.3l-0.4,0.1c-0.2,0-0.4,0.1-0.5,0.2l0.8,0.8
		l0.4-0.4l0,0c-0.2-0.7,0.2-1.4,0.9-1.6c0.5-0.1,1.1,0,1.4,0.5l0.2,0.2L15,18.2L15.1,18.7z M25.3,18.3l-2.4,3.4L21.1,20l0.9-0.9
		l0.8,0.7l1.6-2.2L25.3,18.3z M10.1,12.3H4.5v-0.3C4.5,10.7,5.6,9.5,7,9.4C6.3,9.3,5.7,8.6,5.8,7.8C5.9,7,6.7,6.4,7.5,6.5
		c0.8,0.1,1.4,0.9,1.2,1.7C8.6,8.8,8.1,9.3,7.5,9.4c1.4,0.1,2.5,1.2,2.6,2.7l0,0L10.1,12.3z"/>
</g>
</svg>
