<?xml version="1.0" encoding="utf-8"?>
<!-- Generator: Adobe Illustrator 26.4.1, SVG Export Plug-In . SVG Version: 6.00 Build 0)  -->
<svg version="1.1" id="Layer_1" xmlns="http://www.w3.org/2000/svg" xmlns:xlink="http://www.w3.org/1999/xlink" x="0px" y="0px"
	 viewBox="0 0 26.5 19.9" style="enable-background:new 0 0 26.5 19.9;" xml:space="preserve">
<style type="text/css">
	.st0{fill:url(#SVGID_1_);}
</style>
<linearGradient id="SVGID_1_" gradientUnits="userSpaceOnUse" x1="1.65" y1="1.05" x2="23.6" y2="23" gradientTransform="matrix(1 0 0 -1 0 22.6)">
	<stop  offset="0.1" style="stop-color:#2814FF"/>
	<stop  offset="0.1435" style="stop-color:#2324FF"/>
	<stop  offset="0.2998" style="stop-color:#145BFF"/>
	<stop  offset="0.4347" style="stop-color:#0983FF"/>
	<stop  offset="0.5417" style="stop-color:#029BFF"/>
	<stop  offset="0.6072" style="stop-color:#00A4FF"/>
	<stop  offset="0.6551" style="stop-color:#00ACCE"/>
	<stop  offset="0.7216" style="stop-color:#00B590"/>
	<stop  offset="0.7855" style="stop-color:#00BD5D"/>
	<stop  offset="0.8449" style="stop-color:#00C434"/>
	<stop  offset="0.8989" style="stop-color:#00C818"/>
	<stop  offset="0.9457" style="stop-color:#00CB06"/>
	<stop  offset="0.98" style="stop-color:#00CC00"/>
</linearGradient>
<path class="st0" d="M11.6,2.5L9.1,0H0v19.9h26.5V2.5H11.6z M8.2,2.2l2.5,2.5h13.6v13H2.2V2.2H8.2z M18.3,14.6c0,1.1-0.9,2-2,2
	s-2-0.9-2-2v-0.1l-3.1-1.8c-0.3,0.3-0.8,0.4-1.2,0.4c-1.1,0-2-0.9-2-2s0.9-2,2-2c0.5,0,0.9,0.2,1.2,0.4l3.1-1.8V7.6c0-1.1,0.9-2,2-2
	s2,0.9,2,2s-0.9,2-2,2c-0.4,0-0.8-0.1-1.1-0.3L12,11.1l3.2,1.8c0.3-0.2,0.7-0.3,1.1-0.3C17.4,12.6,18.3,13.5,18.3,14.6z"/>
</svg>
