<?xml version="1.0" encoding="utf-8"?>
<!-- Generator: Adobe Illustrator 26.4.1, SVG Export Plug-In . SVG Version: 6.00 Build 0)  -->
<svg version="1.1" id="Layer_1" xmlns="http://www.w3.org/2000/svg" xmlns:xlink="http://www.w3.org/1999/xlink" x="0px" y="0px"
	 viewBox="0 0 26.7 26.7" style="enable-background:new 0 0 26.7 26.7;" xml:space="preserve">
<style type="text/css">
	.st0{fill:url(#SVGID_1_);}
</style>
<g id="Layer_1_00000173873796978452430190000002401538902549714336_">
	
		<linearGradient id="SVGID_1_" gradientUnits="userSpaceOnUse" x1="3.9072" y1="6.8872" x2="22.767" y2="25.747" gradientTransform="matrix(1 0 0 -1 0 29.66)">
		<stop  offset="0.1" style="stop-color:#2814FF"/>
		<stop  offset="0.14" style="stop-color:#2324FF"/>
		<stop  offset="0.3" style="stop-color:#145BFF"/>
		<stop  offset="0.43" style="stop-color:#0983FF"/>
		<stop  offset="0.54" style="stop-color:#029BFF"/>
		<stop  offset="0.61" style="stop-color:#00A4FF"/>
		<stop  offset="0.66" style="stop-color:#00ACCE"/>
		<stop  offset="0.72" style="stop-color:#00B590"/>
		<stop  offset="0.79" style="stop-color:#00BD5D"/>
		<stop  offset="0.84" style="stop-color:#00C434"/>
		<stop  offset="0.9" style="stop-color:#00C818"/>
		<stop  offset="0.95" style="stop-color:#00CB06"/>
		<stop  offset="0.98" style="stop-color:#00CC00"/>
	</linearGradient>
	<path class="st0" d="M13.3,0C6,0,0,6,0,13.3s6,13.3,13.3,13.3s13.3-6,13.3-13.3C26.7,6,20.7,0,13.3,0z M13.3,24.4
		c-6.1,0-11-4.9-11-11.1s4.9-11,11.1-11s11,4.9,11,11.1c0,0,0,0,0,0C24.4,19.5,19.4,24.4,13.3,24.4z M19,9.8l-6.4-5.3v7.1L9.4,9
		l-1.1,1.3l3.8,3.1l-3.8,3.1l1.1,1.3l3.1-2.6v7.1L19,17l-4.3-3.6L19,9.8z M14.2,18.8v-3.6l2.2,1.8L14.2,18.8z M16.4,9.8l-2.2,1.8
		V8.1L16.4,9.8z"/>
</g>
</svg>
