<?xml version="1.0" encoding="utf-8"?>
<!-- Generator: Adobe Illustrator 26.4.1, SVG Export Plug-In . SVG Version: 6.00 Build 0)  -->
<svg version="1.1" id="Layer_1" xmlns="http://www.w3.org/2000/svg" xmlns:xlink="http://www.w3.org/1999/xlink" x="0px" y="0px"
	 viewBox="0 0 27.5 19.6" style="enable-background:new 0 0 27.5 19.6;" xml:space="preserve">
<style type="text/css">
	.st0{fill:url(#SVGID_1_);}
</style>
<g id="Layer_1_00000042704023483817432220000006418892621481520518_">
	
		<linearGradient id="SVGID_1_" gradientUnits="userSpaceOnUse" x1="2.4189" y1="0.5801" x2="25.9948" y2="24.1459" gradientTransform="matrix(1 0 0 -1 0 22.6)">
		<stop  offset="0.1" style="stop-color:#2814FF"/>
		<stop  offset="0.14" style="stop-color:#2324FF"/>
		<stop  offset="0.3" style="stop-color:#145BFF"/>
		<stop  offset="0.43" style="stop-color:#0983FF"/>
		<stop  offset="0.54" style="stop-color:#029BFF"/>
		<stop  offset="0.61" style="stop-color:#00A4FF"/>
		<stop  offset="0.66" style="stop-color:#00ACCE"/>
		<stop  offset="0.72" style="stop-color:#00B590"/>
		<stop  offset="0.79" style="stop-color:#00BD5D"/>
		<stop  offset="0.84" style="stop-color:#00C434"/>
		<stop  offset="0.9" style="stop-color:#00C818"/>
		<stop  offset="0.95" style="stop-color:#00CB06"/>
		<stop  offset="0.98" style="stop-color:#00CC00"/>
	</linearGradient>
	<path class="st0" d="M6.3,0v3.1L0.1,9.4L0,19.6h6.6l4.5-4.5h16.4V0H6.3z M2.2,17.4v-7.1l4-4v8.3l4.3-4.3c0.2-0.2,0.4-0.2,0.6-0.2
		c0.5,0,0.8,0.4,0.8,0.8c0,0,0,0,0,0c0,0.2-0.1,0.4-0.2,0.6l-6,6L2.2,17.4z M14.2,10.8c0-1.7-1.3-3-3-3C10.4,7.7,9.6,8,9,8.6
		L8.4,9.2V7.4h16.9v5.5h-12C13.9,12.3,14.2,11.6,14.2,10.8L14.2,10.8z M25.4,2.2v1.9H8.5V2.2H25.4z M24.2,10.5v1.4h-8.8v-1.4H24.2z"
		/>
</g>
</svg>
