<?xml version="1.0" encoding="utf-8"?>
<!-- Generator: Adobe Illustrator 26.4.1, SVG Export Plug-In . SVG Version: 6.00 Build 0)  -->
<svg version="1.1" id="Layer_1" xmlns="http://www.w3.org/2000/svg" xmlns:xlink="http://www.w3.org/1999/xlink" x="0px" y="0px"
	 viewBox="0 0 29.2 26.2" style="enable-background:new 0 0 29.2 26.2;" xml:space="preserve">
<style type="text/css">
	.st0{fill:url(#SVGID_1_);}
</style>
<g id="Layer_1_00000065763814378694083160000009031943668791102612_">
	
		<linearGradient id="SVGID_1_" gradientUnits="userSpaceOnUse" x1="7.7377" y1="2.2358" x2="31.7177" y2="26.2158" gradientTransform="matrix(1 0 0 -1 0 28.74)">
		<stop  offset="0.1" style="stop-color:#2814FF"/>
		<stop  offset="0.14" style="stop-color:#2324FF"/>
		<stop  offset="0.3" style="stop-color:#145BFF"/>
		<stop  offset="0.43" style="stop-color:#0983FF"/>
		<stop  offset="0.54" style="stop-color:#029BFF"/>
		<stop  offset="0.61" style="stop-color:#00A4FF"/>
		<stop  offset="0.66" style="stop-color:#00ACCE"/>
		<stop  offset="0.72" style="stop-color:#00B590"/>
		<stop  offset="0.79" style="stop-color:#00BD5D"/>
		<stop  offset="0.84" style="stop-color:#00C434"/>
		<stop  offset="0.9" style="stop-color:#00C818"/>
		<stop  offset="0.95" style="stop-color:#00CB06"/>
		<stop  offset="0.98" style="stop-color:#00CC00"/>
	</linearGradient>
	<path class="st0" d="M20.7,0v9.1c-0.5-0.1-1-0.2-1.5-0.1h-5.1V6.5c0-0.2,0.1-0.3,0.3-0.3c0,0,0,0,0,0h2.6c1.3,0,2.4-1.1,2.4-2.4v0
		V0h-2v3.8c0,0.2-0.1,0.3-0.3,0.3h-2.7c-1.3,0-2.4,1.1-2.4,2.4V9H7c-3.9,0-7,3.1-7,7c0,3.9,3.1,7,7,7c2.3,0,4.4-1.1,5.7-2.9h1
		c1.6,2.2,4.4,3.3,7.1,2.7v3.4h8.5V0H20.7z M24.2,16c0,2.7-2.2,4.9-4.9,5c-1.7,0-3.4-0.9-4.3-2.4L14.7,18h-3.2l-0.3,0.5
		C10.4,20,8.8,20.9,7,20.9c-2.7-0.1-4.8-2.4-4.7-5.2C2.4,13.2,4.5,11.2,7,11h12.2C22,11,24.2,13.2,24.2,16L24.2,16z M26.2,16
		c0-2.5-1.3-4.8-3.5-6V2.1h4.4v22h-4.4V22C24.9,20.8,26.2,18.5,26.2,16L26.2,16z M26.6,2.6v1.4h-3.2V2.6L26.6,2.6z M23.3,4.9h3.3
		v1.5h-3.3V4.9z M23.3,7.2h3.3v1.4h-3.3V7.2z M25.9,22.6c0,0.6-0.4,1-1,1c-0.6,0-1-0.4-1-1c0-0.6,0.4-1,1-1c0,0,0.1,0,0.1,0
		C25.5,21.7,25.9,22.1,25.9,22.6z M7.2,15.3h1.7v1.5H7.2v1.7H5.8v-1.7H4v-1.4h1.7v-1.7h1.4L7.2,15.3z M18.1,14.2c0-0.6,0.5-1,1-1
		s1,0.5,1,1s-0.5,1-1,1S18.1,14.8,18.1,14.2z M20.2,17.7c0,0.6-0.5,1-1,1s-1-0.5-1-1c0-0.6,0.5-1,1-1S20.2,17.1,20.2,17.7z M22.3,16
		c0,0.6-0.5,1-1,1s-1-0.5-1-1c0-0.6,0.5-1,1-1S22.3,15.4,22.3,16z M18.2,16c0,0.6-0.4,1-1,1s-1-0.4-1-1c0-0.6,0.4-1,1-1
		C17.7,14.9,18.2,15.4,18.2,16C18.2,15.9,18.2,15.9,18.2,16z"/>
</g>
</svg>
