<?xml version="1.0" encoding="utf-8"?>
<!-- Generator: Adobe Illustrator 26.4.1, SVG Export Plug-In . SVG Version: 6.00 Build 0)  -->
<svg version="1.1" id="Layer_1" xmlns="http://www.w3.org/2000/svg" xmlns:xlink="http://www.w3.org/1999/xlink" x="0px" y="0px"
	 viewBox="0 0 17 26.6" style="enable-background:new 0 0 17 26.6;" xml:space="preserve">
<style type="text/css">
	.st0{fill:url(#SVGID_1_);}
</style>
<g id="Layer_1_00000053525530007439837740000012919098534073237915_">
	
		<linearGradient id="SVGID_1_" gradientUnits="userSpaceOnUse" x1="-2.3875" y1="5.2775" x2="19.3875" y2="27.0525" gradientTransform="matrix(1 0 0 -1 0 29.44)">
		<stop  offset="0.1" style="stop-color:#2814FF"/>
		<stop  offset="0.14" style="stop-color:#2324FF"/>
		<stop  offset="0.3" style="stop-color:#145BFF"/>
		<stop  offset="0.43" style="stop-color:#0983FF"/>
		<stop  offset="0.54" style="stop-color:#029BFF"/>
		<stop  offset="0.61" style="stop-color:#00A4FF"/>
		<stop  offset="0.66" style="stop-color:#00ACCE"/>
		<stop  offset="0.72" style="stop-color:#00B590"/>
		<stop  offset="0.79" style="stop-color:#00BD5D"/>
		<stop  offset="0.84" style="stop-color:#00C434"/>
		<stop  offset="0.9" style="stop-color:#00C818"/>
		<stop  offset="0.95" style="stop-color:#00CB06"/>
		<stop  offset="0.98" style="stop-color:#00CC00"/>
	</linearGradient>
	<path class="st0" d="M0,0v26.6h17V0H0z M2.2,23.1V2.2h12.6v20.9H2.2z M7.2,4h2.2v2.2H7.2L7.2,4z M3.4,4h2.3v2.2H3.4L3.4,4z M13.5,4
		v2.2h-2.2V4L13.5,4z M7.2,7.7h2.2V10H7.2V7.7z M3.4,7.7h2.3V10H3.4V7.7z M11.3,7.7h2.3V10h-2.3L11.3,7.7z M7.2,11.5h2.2v2.3H7.2
		L7.2,11.5z M3.4,11.5h2.3v2.3H3.4L3.4,11.5z M11.3,11.5h2.3v2.3h-2.3L11.3,11.5z M7.2,15.2h2.2v2.3H7.2L7.2,15.2z M3.4,15.2h2.3
		v2.3H3.4L3.4,15.2z M11.3,15.2h2.3v2.3h-2.3L11.3,15.2z M7.2,19h2.2v2.3H7.2V19z M3.4,19h2.3v2.3H3.4V19z M11.3,19h2.3v2.3h-2.3
		L11.3,19z"/>
</g>
</svg>
