<?xml version="1.0" encoding="utf-8"?>
<!-- Generator: Adobe Illustrator 26.4.1, SVG Export Plug-In . SVG Version: 6.00 Build 0)  -->
<svg version="1.1" id="Layer_1" xmlns="http://www.w3.org/2000/svg" xmlns:xlink="http://www.w3.org/1999/xlink" x="0px" y="0px"
	 viewBox="0 0 22.1 21.2" style="enable-background:new 0 0 22.1 21.2;" xml:space="preserve">
<style type="text/css">
	.st0{fill:url(#SVGID_1_);}
</style>
<g id="Layer_1_00000005980028283223620450000003505488151248169150_">
	
		<linearGradient id="SVGID_1_" gradientUnits="userSpaceOnUse" x1="2.586" y1="3.3576" x2="21.4413" y2="22.2029" gradientTransform="matrix(1 0 0 -1 0 24.0089)">
		<stop  offset="0.1" style="stop-color:#2814FF"/>
		<stop  offset="0.14" style="stop-color:#2324FF"/>
		<stop  offset="0.3" style="stop-color:#145BFF"/>
		<stop  offset="0.43" style="stop-color:#0983FF"/>
		<stop  offset="0.54" style="stop-color:#029BFF"/>
		<stop  offset="0.61" style="stop-color:#00A4FF"/>
		<stop  offset="0.66" style="stop-color:#00ACCE"/>
		<stop  offset="0.72" style="stop-color:#00B590"/>
		<stop  offset="0.79" style="stop-color:#00BD5D"/>
		<stop  offset="0.84" style="stop-color:#00C434"/>
		<stop  offset="0.9" style="stop-color:#00C818"/>
		<stop  offset="0.95" style="stop-color:#00CB06"/>
		<stop  offset="0.98" style="stop-color:#00CC00"/>
	</linearGradient>
	<path class="st0" d="M20.1,17V8.5h-4.2l0.8-0.8c1.4,0.6,3.1,0.2,4.1-0.9c0.6-0.6,1-1.4,1.1-2.3l0.1-0.6l-3.6,1L18,3.1l3.6-1
		l-0.3-0.4c-0.1-0.1-0.2-0.3-0.3-0.4c-1.5-1.5-4-1.5-5.5,0C14.3,2.4,14,4,14.5,5.4l-3,3L7.1,4c0.6-0.7,1.5-1.2,2.4-1.4l0.5-0.1
		L9.8,2c-0.6-1.1-1.7-1.8-3-2C5.9,0,5,0.3,4.4,1L0,5.4l3.3,3.3v8L0.9,19l2.2,2.2l3.4-3.3h10l3.3,3.3l2.2-2.2L20.1,17z M18.2,10.4V16
		h-13v-5.6L18.2,10.4z M5.3,6.7l1.8,1.8H3.6L5.3,6.7z M6.2,11.3h2.2v0.8H7.1v0.7h1.1v0.8H7.1V15H6.2L6.2,11.3z M10.9,13.5
		c0.3-0.2,0.5-0.6,0.5-1c0-0.4-0.2-0.9-0.6-1.1c-0.2-0.1-0.5-0.1-0.8-0.1H8.8V15h0.9v-1.2h0.4l0.7,1.3h1L10.9,13.5
		C11,13.6,11,13.5,10.9,13.5L10.9,13.5z M10.6,12.5c0,0.2-0.1,0.4-0.3,0.4c0,0-0.1,0-0.1,0H9.7v-0.8h0.4
		C10.5,12.2,10.6,12.3,10.6,12.5L10.6,12.5z M13,14.2h1.6V15h-2.4v-3.6h2.3v0.8H13v0.6h1.1v0.8H13L13,14.2z M17.3,14.2V15h-2.4v-3.6
		h2.3v0.8h-1.4v0.6H17v0.8h-1.2v0.7L17.3,14.2z"/>
</g>
</svg>
