<?xml version="1.0" encoding="utf-8"?>
<!-- Generator: Adobe Illustrator 26.4.1, SVG Export Plug-In . SVG Version: 6.00 Build 0)  -->
<svg version="1.1" id="Layer_1" xmlns="http://www.w3.org/2000/svg" xmlns:xlink="http://www.w3.org/1999/xlink" x="0px" y="0px"
	 viewBox="0 0 20.1 28.7" style="enable-background:new 0 0 20.1 28.7;" xml:space="preserve">
<style type="text/css">
	.st0{fill:url(#SVGID_1_);}
</style>
<g id="Layer_1_00000067195996795732011680000013348049289261369504_">
	
		<linearGradient id="SVGID_1_" gradientUnits="userSpaceOnUse" x1="-0.8707" y1="5.9495" x2="20.9093" y2="27.7395" gradientTransform="matrix(1 0 0 -1 0 32)">
		<stop  offset="0.1" style="stop-color:#2814FF"/>
		<stop  offset="0.14" style="stop-color:#2324FF"/>
		<stop  offset="0.3" style="stop-color:#145BFF"/>
		<stop  offset="0.43" style="stop-color:#0983FF"/>
		<stop  offset="0.54" style="stop-color:#029BFF"/>
		<stop  offset="0.61" style="stop-color:#00A4FF"/>
		<stop  offset="0.66" style="stop-color:#00ACCE"/>
		<stop  offset="0.72" style="stop-color:#00B590"/>
		<stop  offset="0.79" style="stop-color:#00BD5D"/>
		<stop  offset="0.84" style="stop-color:#00C434"/>
		<stop  offset="0.9" style="stop-color:#00C818"/>
		<stop  offset="0.95" style="stop-color:#00CB06"/>
		<stop  offset="0.98" style="stop-color:#00CC00"/>
	</linearGradient>
	<path class="st0" d="M13.6,10.4V5.7l-3.5-3.5H3.8v8.2H0v2.2h1.8v16.1h13.9V12.6h1.8v-2.2H13.6z M11.4,7.1v3.2H6v-6h2.6v2.7
		L11.4,7.1z M4,26.5V12.6h9.5v13.9H4z M20.1,3.5l-1.2,1.2l-1.6-1.5v5.4h-1.7V3.2l-1.6,1.5l-1.2-1.2L16.5,0L20.1,3.5z M12.2,13.9
		v11.2h-1.5V13.9H12.2z M7.9,13.9h1.5v11.2H7.9V13.9z M5.2,13.9h1.5v11.2H5.2V13.9z M10.7,9.5H6.7V8h3.9V9.5z"/>
</g>
</svg>
