<?xml version="1.0" encoding="utf-8"?>
<!-- Generator: Adobe Illustrator 26.4.1, SVG Export Plug-In . SVG Version: 6.00 Build 0)  -->
<svg version="1.1" id="Layer_1" xmlns="http://www.w3.org/2000/svg" xmlns:xlink="http://www.w3.org/1999/xlink" x="0px" y="0px"
	 viewBox="0 0 18.1 26.6" style="enable-background:new 0 0 18.1 26.6;" xml:space="preserve">
<style type="text/css">
	.st0{fill:url(#SVGID_1_);}
</style>
<g id="Layer_1_00000175306820697476868560000000102271364066541706_">
	
		<linearGradient id="SVGID_1_" gradientUnits="userSpaceOnUse" x1="-1.0625" y1="5.5725" x2="17.5175" y2="24.1525" gradientTransform="matrix(1 0 0 -1 0 29)">
		<stop  offset="0.1" style="stop-color:#2814FF"/>
		<stop  offset="0.14" style="stop-color:#2324FF"/>
		<stop  offset="0.3" style="stop-color:#145BFF"/>
		<stop  offset="0.43" style="stop-color:#0983FF"/>
		<stop  offset="0.54" style="stop-color:#029BFF"/>
		<stop  offset="0.61" style="stop-color:#00A4FF"/>
		<stop  offset="0.66" style="stop-color:#00ACCE"/>
		<stop  offset="0.72" style="stop-color:#00B590"/>
		<stop  offset="0.79" style="stop-color:#00BD5D"/>
		<stop  offset="0.84" style="stop-color:#00C434"/>
		<stop  offset="0.9" style="stop-color:#00C818"/>
		<stop  offset="0.95" style="stop-color:#00CB06"/>
		<stop  offset="0.98" style="stop-color:#00CC00"/>
	</linearGradient>
	<path class="st0" d="M14,10c0,2.7-2.2,4.9-4.9,4.9S4.2,12.7,4.2,10s2.2-4.9,4.9-4.9S14,7.3,14,10L14,10z M6.8,11.9
		c-0.2-0.4-0.3-0.9-0.3-1.4H4.9c0,0.5,0.2,0.9,0.4,1.3L6.8,11.9z M10.7,8.5H9.4v1.3h1.5V9.5C10.9,9.2,10.8,8.8,10.7,8.5z M10.5,7.7
		c-0.3-0.6-0.6-1.1-1.1-1.6v1.6H10.5z M8.7,6.1c-0.4,0.5-0.8,1-1,1.6h1V6.1z M7.4,8.5c-0.1,0.3-0.2,0.7-0.2,1c0,0.1,0,0.2,0,0.2h1.4
		V8.5H7.4z M6.6,8.5H5.2C5,8.9,4.9,9.4,4.9,9.8h1.6c0-0.1,0-0.2,0-0.3C6.5,9.2,6.5,8.8,6.6,8.5L6.6,8.5z M7.6,11.9h1v-1.4H7.3
		C7.3,11,7.4,11.4,7.6,11.9L7.6,11.9z M7.9,12.6c0.2,0.4,0.5,0.8,0.8,1.2v-1.2L7.9,12.6z M9.4,13.9c0.3-0.4,0.6-0.8,0.9-1.2H9.4
		V13.9z M10.6,11.9c0.2-0.4,0.3-0.9,0.3-1.4H9.4v1.3L10.6,11.9z M11.4,11.9h1.5c0.2-0.4,0.3-0.9,0.4-1.4h-1.6
		C11.6,11,11.5,11.4,11.4,11.9L11.4,11.9z M13.3,9.8c0-0.4-0.1-0.9-0.3-1.3h-1.5c0.1,0.3,0.1,0.7,0.2,1c0,0.1,0,0.2,0,0.3L13.3,9.8z
		 M10.2,5.9C10.6,6.4,11,7,11.3,7.7h1.4C12.1,6.8,11.2,6.1,10.2,5.9L10.2,5.9z M5.6,7.7h1.3C7.2,7,7.6,6.5,8,5.9
		C7,6.1,6.1,6.8,5.6,7.7L5.6,7.7z M8.1,14.2c-0.4-0.5-0.7-1-1-1.5H5.7C6.3,13.4,7.2,14,8.1,14.2L8.1,14.2z M12.4,12.7H11
		c-0.3,0.5-0.6,1-1,1.5C11,14,11.8,13.4,12.4,12.7L12.4,12.7z M0,0v26.6h18.1V0H0z M2.2,24.4V2.2h13.7v22.2H2.2z"/>
</g>
</svg>
