<?xml version="1.0" encoding="utf-8"?>
<!-- Generator: Adobe Illustrator 26.4.1, SVG Export Plug-In . SVG Version: 6.00 Build 0)  -->
<svg version="1.1" id="Layer_1" xmlns="http://www.w3.org/2000/svg" xmlns:xlink="http://www.w3.org/1999/xlink" x="0px" y="0px"
	 viewBox="0 0 26.8 18.8" style="enable-background:new 0 0 26.8 18.8;" xml:space="preserve">
<style type="text/css">
	.st0{fill:url(#SVGID_1_);}
</style>
<g id="Layer_1_00000007423388969831944350000011510204427095169717_">
	
		<linearGradient id="SVGID_1_" gradientUnits="userSpaceOnUse" x1="1.9975" y1="0.7925" x2="24.7825" y2="23.5775" gradientTransform="matrix(1 0 0 -1 0 21.58)">
		<stop  offset="0.1" style="stop-color:#2814FF"/>
		<stop  offset="0.14" style="stop-color:#2324FF"/>
		<stop  offset="0.3" style="stop-color:#145BFF"/>
		<stop  offset="0.43" style="stop-color:#0983FF"/>
		<stop  offset="0.54" style="stop-color:#029BFF"/>
		<stop  offset="0.61" style="stop-color:#00A4FF"/>
		<stop  offset="0.66" style="stop-color:#00ACCE"/>
		<stop  offset="0.72" style="stop-color:#00B590"/>
		<stop  offset="0.79" style="stop-color:#00BD5D"/>
		<stop  offset="0.84" style="stop-color:#00C434"/>
		<stop  offset="0.9" style="stop-color:#00C818"/>
		<stop  offset="0.95" style="stop-color:#00CB06"/>
		<stop  offset="0.98" style="stop-color:#00CC00"/>
	</linearGradient>
	<path class="st0" d="M0,0v18.8h26.8V0H0z M2.2,16.6V2.2h22.4v14.4H2.2z M22.4,5.9v1.1h-7.2V5.9H22.4z M15.2,8.8h7.2v1.1h-7.2V8.8z
		 M15.2,11.6h7.2v1.1h-7.2V11.6z M5.9,7.2c0-1.1,0.9-2,2-2s2,0.9,2,2s-0.9,2-2,2S5.9,8.3,5.9,7.2z M11.9,13.5L11.9,13.5L11.9,13.5
		l-8,0.1v-0.1l0,0c0-2.2,1.8-4,4-4S11.8,11.3,11.9,13.5L11.9,13.5z"/>
</g>
</svg>
