<?xml version="1.0" encoding="utf-8"?>
<!-- Generator: Adobe Illustrator 26.4.1, SVG Export Plug-In . SVG Version: 6.00 Build 0)  -->
<svg version="1.1" id="Layer_1" xmlns="http://www.w3.org/2000/svg" xmlns:xlink="http://www.w3.org/1999/xlink" x="0px" y="0px"
	 viewBox="0 0 22.4 28.5" style="enable-background:new 0 0 22.4 28.5;" xml:space="preserve">
<style type="text/css">
	.st0{fill:url(#SVGID_1_);}
</style>
<g id="Layer_1_00000136400479179218157690000002531439756235283591_">
	
		<linearGradient id="SVGID_1_" gradientUnits="userSpaceOnUse" x1="0.9075" y1="6.4925" x2="20.3425" y2="25.9275" gradientTransform="matrix(1 0 0 -1 0 31.06)">
		<stop  offset="0.1" style="stop-color:#2814FF"/>
		<stop  offset="0.14" style="stop-color:#2324FF"/>
		<stop  offset="0.3" style="stop-color:#145BFF"/>
		<stop  offset="0.43" style="stop-color:#0983FF"/>
		<stop  offset="0.54" style="stop-color:#029BFF"/>
		<stop  offset="0.61" style="stop-color:#00A4FF"/>
		<stop  offset="0.66" style="stop-color:#00ACCE"/>
		<stop  offset="0.72" style="stop-color:#00B590"/>
		<stop  offset="0.79" style="stop-color:#00BD5D"/>
		<stop  offset="0.84" style="stop-color:#00C434"/>
		<stop  offset="0.9" style="stop-color:#00C818"/>
		<stop  offset="0.95" style="stop-color:#00CB06"/>
		<stop  offset="0.98" style="stop-color:#00CC00"/>
	</linearGradient>
	<path class="st0" d="M8.7,9.4l2.9,2.9l-0.2,0.2c-1.7,2-4.7,2.1-6.6,0.4S2.7,8.3,4.4,6.3s4.7-2.1,6.6-0.4c0.2,0.1,0.3,0.3,0.4,0.4
		l0.2,0.2L8.7,9.4z M22.4,17v11.5h-7.4l-4.7-4.9H0V0h15.2v10L22.4,17z M2.2,20.4h5.1c-0.4-0.5-0.5-1.2-0.5-1.8c0-0.9,0.4-1.7,1-2.2
		c0.6-0.6,1.4-0.9,2.3-0.9c0.8,0,1.6,0.4,2.2,1l0.7,0.7v-15H2.2L2.2,20.4z M9,18.6c0,0.3,0.1,0.5,0.3,0.7l6.7,7h4.3V18l-5-4.9v9.4
		L10.7,18c-0.2-0.2-0.4-0.3-0.7-0.3c-0.3,0-0.5,0.1-0.7,0.3C9.1,18.1,9,18.4,9,18.6z M7.6,22.5c0.3,0,0.5-0.2,0.5-0.5
		c0-0.3-0.2-0.5-0.5-0.5c-0.3,0-0.5,0.2-0.5,0.5S7.3,22.5,7.6,22.5L7.6,22.5"/>
</g>
</svg>
