<?xml version="1.0" encoding="utf-8"?>
<!-- Generator: Adobe Illustrator 26.4.1, SVG Export Plug-In . SVG Version: 6.00 Build 0)  -->
<svg version="1.1" id="Layer_1" xmlns="http://www.w3.org/2000/svg" xmlns:xlink="http://www.w3.org/1999/xlink" x="0px" y="0px"
	 viewBox="0 0 22.3 25.8" style="enable-background:new 0 0 22.3 25.8;" xml:space="preserve">
<style type="text/css">
	.st0{fill:url(#SVGID_1_);}
</style>
<g id="Layer_1_00000035502397393820617160000017110859387557436058_">
	
		<linearGradient id="SVGID_1_" gradientUnits="userSpaceOnUse" x1="0.85" y1="5.37" x2="21.53" y2="26.05" gradientTransform="matrix(1 0 0 -1 0 28.58)">
		<stop  offset="0.1" style="stop-color:#2814FF"/>
		<stop  offset="0.14" style="stop-color:#2324FF"/>
		<stop  offset="0.3" style="stop-color:#145BFF"/>
		<stop  offset="0.43" style="stop-color:#0983FF"/>
		<stop  offset="0.54" style="stop-color:#029BFF"/>
		<stop  offset="0.61" style="stop-color:#00A4FF"/>
		<stop  offset="0.66" style="stop-color:#00ACCE"/>
		<stop  offset="0.72" style="stop-color:#00B590"/>
		<stop  offset="0.79" style="stop-color:#00BD5D"/>
		<stop  offset="0.84" style="stop-color:#00C434"/>
		<stop  offset="0.9" style="stop-color:#00C818"/>
		<stop  offset="0.95" style="stop-color:#00CB06"/>
		<stop  offset="0.98" style="stop-color:#00CC00"/>
	</linearGradient>
	<path class="st0" d="M3.4,3.3v22.4h18.9V3.3H3.4z M5.6,20.1V5.5h14.6v14.5H5.6z M18.3,0v2.2H2.2v20.1H0V0H18.3z M10.3,9.9
		c0-1.4,1.2-2.6,2.6-2.6s2.6,1.2,2.6,2.6s-1.2,2.6-2.6,2.6C11.5,12.5,10.3,11.4,10.3,9.9C10.3,9.9,10.3,9.9,10.3,9.9L10.3,9.9z
		 M17.8,18H7.9v-0.6c0.2-2.7,2.5-4.8,5.2-4.6c2.5,0.2,4.4,2.1,4.6,4.6l0,0L17.8,18z"/>
</g>
</svg>
