<?xml version="1.0" encoding="utf-8"?>
<!-- Generator: Adobe Illustrator 26.4.1, SVG Export Plug-In . SVG Version: 6.00 Build 0)  -->
<svg version="1.1" id="Layer_1" xmlns="http://www.w3.org/2000/svg" xmlns:xlink="http://www.w3.org/1999/xlink" x="0px" y="0px"
	 viewBox="0 0 26.4 26.4" style="enable-background:new 0 0 26.4 26.4;" xml:space="preserve">
<style type="text/css">
	.st0{fill:url(#SVGID_1_);}
</style>
<linearGradient id="SVGID_1_" gradientUnits="userSpaceOnUse" x1="3.8625" y1="6.6625" x2="22.5375" y2="25.3375" gradientTransform="matrix(1 0 0 -1 0 29.2)">
	<stop  offset="0.1" style="stop-color:#2814FF"/>
	<stop  offset="0.1435" style="stop-color:#2324FF"/>
	<stop  offset="0.2998" style="stop-color:#145BFF"/>
	<stop  offset="0.4347" style="stop-color:#0983FF"/>
	<stop  offset="0.5417" style="stop-color:#029BFF"/>
	<stop  offset="0.6072" style="stop-color:#00A4FF"/>
	<stop  offset="0.6551" style="stop-color:#00ACCE"/>
	<stop  offset="0.7216" style="stop-color:#00B590"/>
	<stop  offset="0.7855" style="stop-color:#00BD5D"/>
	<stop  offset="0.8449" style="stop-color:#00C434"/>
	<stop  offset="0.8989" style="stop-color:#00C818"/>
	<stop  offset="0.9457" style="stop-color:#00CB06"/>
	<stop  offset="0.98" style="stop-color:#00CC00"/>
</linearGradient>
<path class="st0" d="M13.2,0C5.9,0,0,5.9,0,13.2s5.9,13.2,13.2,13.2s13.2-5.9,13.2-13.2S20.5,0,13.2,0z M17.8,11.5
	c0.8,0.5,1.6,1,2.4,1.7c-0.8,0.7-1.6,1.3-2.4,1.7c0.2-0.6,0.3-1.1,0.3-1.7C18.2,12.6,18.1,12,17.8,11.5z M15.1,12.8l0.8-0.8
	c0.2,0.4,0.3,0.8,0.3,1.2c0,1.7-1.3,3-3,3c-0.4,0-0.8-0.1-1.2-0.3l0.8-0.8c1.3,0.3,2.5-0.7,2.5-1.9C15.1,13.1,15.1,12.9,15.1,12.8z
	 M10,17.8c1.1,0.3,2.1,0.5,3.2,0.5c3.2-0.1,6.3-1.5,9.3-4.4l0.8-0.7l-0.8-0.7c-1.3-1.3-2.7-2.3-4.1-3l3.4-3.4c1.7,2,2.6,4.5,2.6,7.1
	c0,6.2-5,11.2-11.2,11.2c-2.6,0-5.1-0.9-7.1-2.6L10,17.8z M4.6,20.3c-1.7-2-2.6-4.5-2.6-7.1C2,7,7,2,13.2,2c2.6,0,5.1,0.9,7.1,2.6
	L4.6,20.3z M3.8,12.5L3,13.2l0.8,0.7c1.1,1.1,2.3,2,3.5,2.7l0.3,0.2l2.6-2.6L10.1,14C10,13.7,10,13.5,10,13.3c0-1.7,1.3-3,3-3
	c0.2,0,0.5,0,0.7,0.1l0.2,0.1l1.9-1.9L15,8.4c-0.7-0.2-1.4-0.2-2.1-0.2C10,8.1,6.8,9.6,3.8,12.5z M8.3,14.9c-0.8-0.5-1.5-1-2.3-1.7
	c0.8-0.7,1.5-1.2,2.3-1.7C8.1,12,8,12.6,8,13.2C8.1,13.8,8.2,14.3,8.3,14.9z"/>
</svg>
