<?xml version="1.0" encoding="utf-8"?>
<!-- Generator: Adobe Illustrator 26.4.1, SVG Export Plug-In . SVG Version: 6.00 Build 0)  -->
<svg version="1.1" id="Layer_1" xmlns="http://www.w3.org/2000/svg" xmlns:xlink="http://www.w3.org/1999/xlink" x="0px" y="0px"
	 viewBox="0 0 22.4 28.6" style="enable-background:new 0 0 22.4 28.6;" xml:space="preserve">
<style type="text/css">
	.st0{fill:url(#SVGID_1_);}
</style>
<g id="Layer_1_00000042721436104606777030000008383498258403238841_">
	
		<linearGradient id="SVGID_1_" gradientUnits="userSpaceOnUse" x1="0.9" y1="746.6" x2="20.35" y2="727.15" gradientTransform="matrix(1 0 0 1 0 -722)">
		<stop  offset="0.1" style="stop-color:#2814FF"/>
		<stop  offset="0.14" style="stop-color:#2324FF"/>
		<stop  offset="0.3" style="stop-color:#145BFF"/>
		<stop  offset="0.43" style="stop-color:#0983FF"/>
		<stop  offset="0.54" style="stop-color:#029BFF"/>
		<stop  offset="0.61" style="stop-color:#00A4FF"/>
		<stop  offset="0.66" style="stop-color:#00ACCE"/>
		<stop  offset="0.72" style="stop-color:#00B590"/>
		<stop  offset="0.79" style="stop-color:#00BD5D"/>
		<stop  offset="0.84" style="stop-color:#00C434"/>
		<stop  offset="0.9" style="stop-color:#00C818"/>
		<stop  offset="0.95" style="stop-color:#00CB06"/>
		<stop  offset="0.98" style="stop-color:#00CC00"/>
	</linearGradient>
	<path class="st0" d="M11.7,10.6c0,1.2-1,2.2-2.2,2.2c-0.4,0-0.7-0.1-1.1-0.3L9.1,14l-3-0.1l0.7-1.4c-0.3,0.2-0.7,0.3-1,0.3
		c-1.2,0-2.2-1-2.2-2.2c0-0.3,0.1-0.6,0.2-0.8l0.1-0.2l0.2-0.3L7.4,5l0.4-0.6l0.1,0.1l3.5,5C11.3,9.5,11.7,10.1,11.7,10.6z
		 M22.4,17.1v11.5H15l-4.6-4.9H0V0h15.2v10L22.4,17.1z M2.2,20.5h5.1c-0.4-0.5-0.5-1.2-0.5-1.8c0-0.8,0.4-1.7,1-2.2
		c0.6-0.6,1.4-0.9,2.3-0.9c0.8,0,1.6,0.4,2.2,1l0.7,0.7v-15H2.2V20.5z M9,18.7c0,0.3,0.1,0.5,0.3,0.7l6.7,7h4.2V18l-5-4.9v9.4
		L10.7,18c-0.1-0.2-0.4-0.3-0.7-0.3c-0.3,0-0.5,0.1-0.7,0.3C9.1,18.2,9,18.4,9,18.7z M7.6,22.5c0.3,0,0.5-0.2,0.5-0.5
		s-0.2-0.5-0.5-0.5S7.1,21.7,7.1,22l0,0C7.1,22.3,7.3,22.5,7.6,22.5"/>
</g>
</svg>
