<?xml version="1.0" encoding="utf-8"?>
<!-- Generator: Adobe Illustrator 26.4.1, SVG Export Plug-In . SVG Version: 6.00 Build 0)  -->
<svg version="1.1" id="Layer_1" xmlns="http://www.w3.org/2000/svg" xmlns:xlink="http://www.w3.org/1999/xlink" x="0px" y="0px"
	 viewBox="0 0 22.4 28.5" style="enable-background:new 0 0 22.4 28.5;" xml:space="preserve">
<style type="text/css">
	.st0{fill:url(#SVGID_1_);}
</style>
<g id="Layer_1_00000181077211862186285250000017977831114752444820_">
	
		<linearGradient id="SVGID_1_" gradientUnits="userSpaceOnUse" x1="0.9171" y1="7.2224" x2="20.3571" y2="26.6524" gradientTransform="matrix(1 0 0 -1 0 31.76)">
		<stop  offset="0.1" style="stop-color:#2814FF"/>
		<stop  offset="0.14" style="stop-color:#2324FF"/>
		<stop  offset="0.3" style="stop-color:#145BFF"/>
		<stop  offset="0.43" style="stop-color:#0983FF"/>
		<stop  offset="0.54" style="stop-color:#029BFF"/>
		<stop  offset="0.61" style="stop-color:#00A4FF"/>
		<stop  offset="0.66" style="stop-color:#00ACCE"/>
		<stop  offset="0.72" style="stop-color:#00B590"/>
		<stop  offset="0.79" style="stop-color:#00BD5D"/>
		<stop  offset="0.84" style="stop-color:#00C434"/>
		<stop  offset="0.9" style="stop-color:#00C818"/>
		<stop  offset="0.95" style="stop-color:#00CB06"/>
		<stop  offset="0.98" style="stop-color:#00CC00"/>
	</linearGradient>
	<path class="st0" d="M10.5,5.6c0-0.4,0.3-0.7,0.6-0.7s0.6,0.3,0.6,0.6s-0.3,0.7-0.6,0.7l0,0C10.8,6.3,10.5,6,10.5,5.6z M3.9,9.9
		c-0.4,0-0.6-0.3-0.6-0.7c0-0.4,0.3-0.6,0.7-0.6c0.4,0,0.6,0.3,0.6,0.7c0,0,0,0,0,0C4.6,9.6,4.3,9.9,3.9,9.9z M12.5,8.1V6.7h-2.3
		V4.3H8.7v2.4H6.5V4.3H5.1v2.4H2.7v1.4h2.3v2.2H2.7v1.4h2.3v2.4h1.4v-2.4h2.2v2.4h1.4v-2.4h2.3v-1.4h-2.3V8.1H12.5z M8.7,8.1v2.2
		H6.5V8.1H8.7z M7.9,13l0.5,0.8H7.7l-0.2-0.3l-0.2,0.3H6.7l0.5-0.8l-0.5-0.8h0.7l0.2,0.3l0.1-0.3h0.7L7.9,13z M15.2,10V0H0v23.6
		h10.4l4.7,4.9h7.4V17L15.2,10z M2.2,2.2H13v15l-0.7-0.7c-0.6-0.6-1.4-1-2.2-1c-0.9,0-1.7,0.3-2.3,0.9c-0.6,0.6-1,1.4-1,2.2
		c0,0.6,0.2,1.3,0.5,1.8H2.2L2.2,2.2z M9.3,17.9c0.4-0.4,1-0.4,1.4,0c0,0,0,0,0,0l4.5,4.5v-9.3l5,4.9v8.4H16l-6.7-7
		C9.1,19.1,9,18.9,9,18.6C9,18.3,9.1,18.1,9.3,17.9z M7.6,22.5c-0.3,0-0.5-0.2-0.5-0.5l0,0c0-0.3,0.2-0.6,0.5-0.6s0.6,0.2,0.6,0.5
		c0,0,0,0.1,0,0.1C8.1,22.2,7.9,22.5,7.6,22.5C7.6,22.5,7.6,22.5,7.6,22.5"/>
</g>
</svg>
