<?xml version="1.0" encoding="utf-8"?>
<!-- Generator: Adobe Illustrator 26.4.1, SVG Export Plug-In . SVG Version: 6.00 Build 0)  -->
<svg version="1.1" id="Layer_1" xmlns="http://www.w3.org/2000/svg" xmlns:xlink="http://www.w3.org/1999/xlink" x="0px" y="0px"
	 viewBox="0 0 31.1 15.9" style="enable-background:new 0 0 31.1 15.9;" xml:space="preserve">
<style type="text/css">
	.st0{fill:url(#SVGID_1_);}
</style>
<g id="Layer_1_00000018931700185880763420000008327109997925089664_">
	
		<linearGradient id="SVGID_1_" gradientUnits="userSpaceOnUse" x1="5.7983" y1="1.02" x2="25.2983" y2="20.52" gradientTransform="matrix(1 0 0 -1 0 18.74)">
		<stop  offset="0.1" style="stop-color:#2814FF"/>
		<stop  offset="0.14" style="stop-color:#2324FF"/>
		<stop  offset="0.3" style="stop-color:#145BFF"/>
		<stop  offset="0.43" style="stop-color:#0983FF"/>
		<stop  offset="0.54" style="stop-color:#029BFF"/>
		<stop  offset="0.61" style="stop-color:#00A4FF"/>
		<stop  offset="0.66" style="stop-color:#00ACCE"/>
		<stop  offset="0.72" style="stop-color:#00B590"/>
		<stop  offset="0.79" style="stop-color:#00BD5D"/>
		<stop  offset="0.84" style="stop-color:#00C434"/>
		<stop  offset="0.9" style="stop-color:#00C818"/>
		<stop  offset="0.95" style="stop-color:#00CB06"/>
		<stop  offset="0.98" style="stop-color:#00CC00"/>
	</linearGradient>
	<path class="st0" d="M23.8,0H7.3C2.9,0.4-0.4,4.3,0,8.7c0.3,3.9,3.4,6.9,7.3,7.3h16.5c4.4-0.4,7.7-4.3,7.3-8.7
		C30.7,3.4,27.7,0.3,23.8,0z M29.6,8c0,3.2-2.6,5.8-5.8,5.8H7.3c-3.2,0-5.8-2.6-5.8-5.8c0-3.2,2.6-5.8,5.8-5.8h16.5
		C27,2.2,29.5,4.8,29.6,8L29.6,8z M6.8,7.3h2.1v1.5H6.8v2.1H5.3V8.8H3.2V7.2h2.1V5.2h1.6L6.8,7.3z M24.9,7c0,0.7-0.5,1.2-1.2,1.2
		S22.4,7.7,22.4,7c0-0.7,0.5-1.2,1.2-1.2c0,0,0,0,0,0C24.3,5.8,24.9,6.3,24.9,7L24.9,7z M27.2,9c0,0.7-0.5,1.2-1.2,1.2
		c-0.7,0-1.2-0.5-1.2-1.2c0-0.7,0.5-1.2,1.2-1.2C26.7,7.8,27.2,8.3,27.2,9L27.2,9z M10.8,12.7h9.5V3.3h-9.5V12.7z M18.8,4.8v6.3
		h-6.5V4.8L18.8,4.8z"/>
</g>
</svg>
