<?xml version="1.0" encoding="utf-8"?>
<!-- Generator: Adobe Illustrator 26.4.1, SVG Export Plug-In . SVG Version: 6.00 Build 0)  -->
<svg version="1.1" id="Layer_1" xmlns="http://www.w3.org/2000/svg" xmlns:xlink="http://www.w3.org/1999/xlink" x="0px" y="0px"
	 viewBox="0 0 25.1 24.2" style="enable-background:new 0 0 25.1 24.2;" xml:space="preserve">
<style type="text/css">
	.st0{fill:url(#SVGID_1_);}
</style>
<g id="Layer_1_00000170995507605901646050000007575965800431405972_">
	
		<linearGradient id="SVGID_1_" gradientUnits="userSpaceOnUse" x1="2.4575" y1="9.8825" x2="19.6625" y2="27.0875" gradientTransform="matrix(1 0 0 -1 0 28)">
		<stop  offset="0.1" style="stop-color:#2814FF"/>
		<stop  offset="0.14" style="stop-color:#2324FF"/>
		<stop  offset="0.3" style="stop-color:#145BFF"/>
		<stop  offset="0.43" style="stop-color:#0983FF"/>
		<stop  offset="0.54" style="stop-color:#029BFF"/>
		<stop  offset="0.61" style="stop-color:#00A4FF"/>
		<stop  offset="0.66" style="stop-color:#00ACCE"/>
		<stop  offset="0.72" style="stop-color:#00B590"/>
		<stop  offset="0.79" style="stop-color:#00BD5D"/>
		<stop  offset="0.84" style="stop-color:#00C434"/>
		<stop  offset="0.9" style="stop-color:#00C818"/>
		<stop  offset="0.95" style="stop-color:#00CB06"/>
		<stop  offset="0.98" style="stop-color:#00CC00"/>
	</linearGradient>
	<path class="st0" d="M25.1,6.4l-7.3-5.3H5.2V0H0v15.7h5.2v-1l3.8,1.1l2.9,6.5c0.3,0.7,0.9,1.3,1.7,1.6c0.4,0.1,0.7,0.2,1.1,0.2
		c0.4,0,0.8-0.1,1.2-0.3c1.5-0.7,2.2-2.5,1.6-4c0,0,0,0,0,0L15.9,16h9.3L25.1,6.4z M15.7,21.4c-0.3,0.5-0.9,0.7-1.3,0.4
		c-0.2-0.1-0.3-0.2-0.4-0.4L10.6,14l-5.3-1.5V3.1h11.9L23,7.5v6.4H12.6l3,6.8C15.7,20.9,15.7,21.2,15.7,21.4L15.7,21.4z M3.2,13.6
		H2.1V2.1h1.1V13.6z"/>
</g>
</svg>
