<?xml version="1.0" encoding="utf-8"?>
<!-- Generator: Adobe Illustrator 26.4.1, SVG Export Plug-In . SVG Version: 6.00 Build 0)  -->
<svg version="1.1" id="Layer_1" xmlns="http://www.w3.org/2000/svg" xmlns:xlink="http://www.w3.org/1999/xlink" x="0px" y="0px"
	 viewBox="0 0 26.4 26.4" style="enable-background:new 0 0 26.4 26.4;" xml:space="preserve">
<style type="text/css">
	.st0{fill:url(#SVGID_1_);}
</style>
<linearGradient id="SVGID_1_" gradientUnits="userSpaceOnUse" x1="3.8625" y1="6.6625" x2="22.5669" y2="25.3669" gradientTransform="matrix(1 0 0 -1 0 29.2)">
	<stop  offset="0.1" style="stop-color:#2814FF"/>
	<stop  offset="0.1435" style="stop-color:#2324FF"/>
	<stop  offset="0.2998" style="stop-color:#145BFF"/>
	<stop  offset="0.4347" style="stop-color:#0983FF"/>
	<stop  offset="0.5417" style="stop-color:#029BFF"/>
	<stop  offset="0.6072" style="stop-color:#00A4FF"/>
	<stop  offset="0.6551" style="stop-color:#00ACCE"/>
	<stop  offset="0.7216" style="stop-color:#00B590"/>
	<stop  offset="0.7855" style="stop-color:#00BD5D"/>
	<stop  offset="0.8449" style="stop-color:#00C434"/>
	<stop  offset="0.8989" style="stop-color:#00C818"/>
	<stop  offset="0.9457" style="stop-color:#00CB06"/>
	<stop  offset="0.98" style="stop-color:#00CC00"/>
</linearGradient>
<path class="st0" d="M13.2,0C5.9,0,0,5.9,0,13.2s5.9,13.2,13.2,13.2s13.2-5.9,13.2-13.2S20.5,0,13.2,0z M13.2,24.2
	c-6,0-11-4.9-11-11c0-6,4.9-11,11-11c6,0,11,4.9,11,11C24.2,19.2,19.2,24.2,13.2,24.2z M19.6,8.9C19.4,14.6,14.8,19.3,9,19.6H8.7
	c-0.8,0-1.5-0.3-2.1-0.9c0,0-0.3-0.3-1.2-1.4l-0.1-0.1l3.9-3.9l0.1,0.1c0.1,0.1,0.5,0.5,0.9,0.9c0.4,0.3,0.7,0.7,0.9,0.8
	c2-0.5,3.6-2.1,4.2-4.1v-0.1C15,10.6,14,9.5,13.6,9.1l0,0l3.8-3.8l0.1,0.1c0.3,0.3,1.3,1.2,1.3,1.3C19.4,7.3,19.7,8.1,19.6,8.9z
	 M14.1,12.2c0.3,0.5-0.9,1.4-0.9,1.5c-0.1,0.1-0.4,0.3-0.7,0.3c-0.1,0-0.2,0-0.3-0.1c-0.1-0.1-0.6-0.6-1.1-1.2
	c-0.6-0.6-1.3-1.4-1.5-1.6C9.5,11,9.4,11,9.2,11c-0.8,0.2-1.7-0.1-2.3-0.7C6.2,9.6,6,8.6,6.3,7.7l0.1-0.4L8,8.9
	c0.1,0.1,0.4,0,0.7-0.3C9,8.3,9.1,8,9,7.9L7.4,6.3l0.4-0.1c0.9-0.3,2-0.1,2.7,0.6c0.6,0.6,0.9,1.5,0.7,2.3c0,0.2,0.1,0.3,0.1,0.4
	c0.2,0.2,0.5,0.5,0.8,0.9C12.7,10.8,13.3,11.4,14.1,12.2z M20.8,19.1l-0.1,0.4l-1.6-1.6c-0.1-0.1-0.4,0-0.7,0.3
	c-0.3,0.3-0.4,0.6-0.3,0.7l1.6,1.6l-0.5,0.1c-0.3,0.1-0.6,0.1-0.9,0.1c-0.7,0-1.3-0.3-1.8-0.7c-0.6-0.6-0.9-1.5-0.7-2.3
	c0-0.2-0.1-0.3-0.1-0.4l0.2-0.2l0,0l1.2-1.2l0,0l0.2-0.2l0,0l0,0l0.2-0.2c0.1,0.1,0.2,0.1,0.4,0.1c0.8-0.2,1.7,0.1,2.3,0.7
	C20.9,17.1,21.1,18.1,20.8,19.1z"/>
</svg>
