<?xml version="1.0" encoding="utf-8"?>
<!-- Generator: Adobe Illustrator 26.4.1, SVG Export Plug-In . SVG Version: 6.00 Build 0)  -->
<svg version="1.1" id="Layer_1" xmlns="http://www.w3.org/2000/svg" xmlns:xlink="http://www.w3.org/1999/xlink" x="0px" y="0px"
	 viewBox="0 0 26.5 16.6" style="enable-background:new 0 0 26.5 16.6;" xml:space="preserve">
<style type="text/css">
	.st0{fill:url(#SVGID_1_);}
</style>
<linearGradient id="SVGID_1_" gradientUnits="userSpaceOnUse" x1="4.5745" y1="3.3745" x2="22.8958" y2="21.6958" gradientTransform="matrix(1 0 0 -1 0 19.4)">
	<stop  offset="0.1" style="stop-color:#2814FF"/>
	<stop  offset="0.1435" style="stop-color:#2324FF"/>
	<stop  offset="0.2998" style="stop-color:#145BFF"/>
	<stop  offset="0.4347" style="stop-color:#0983FF"/>
	<stop  offset="0.5417" style="stop-color:#029BFF"/>
	<stop  offset="0.6072" style="stop-color:#00A4FF"/>
	<stop  offset="0.6551" style="stop-color:#00ACCE"/>
	<stop  offset="0.7216" style="stop-color:#00B590"/>
	<stop  offset="0.7855" style="stop-color:#00BD5D"/>
	<stop  offset="0.8449" style="stop-color:#00C434"/>
	<stop  offset="0.8989" style="stop-color:#00C818"/>
	<stop  offset="0.9457" style="stop-color:#00CB06"/>
	<stop  offset="0.98" style="stop-color:#00CC00"/>
</linearGradient>
<path class="st0" d="M26.5,13L26.2,1L17,1.9C16.5,0.8,15.5,0,14.2,0H7.6L4.9,1.6H0.1L0,11.4l9.5,5.2l11-0.6l0.1-0.9L26.5,13z
	 M14.1,2.1h0.1l-2.9,0.3L8.1,5.8L8,5.9C7.1,7.1,7.3,8.7,8.5,9.7c1.5,1.3,3.3,0.6,4.3-0.5c0.4-0.4,1.1-1.1,1.5-1.5l3.6,6.3L10,14.5
	l-7.9-4.3l0.1-6.4h3.2l2.7-1.6L14.1,2.1z M16.7,7.6h1V5.5h-4.2l-0.3,0.3C13.1,5.9,12,7,11.3,7.7C10.6,8.5,10.1,8.2,9.9,8
	C9.7,7.9,9.5,7.5,9.7,7.2l2.6-2.8l11.8-1.2l0.2,8.2L19.8,13L16.7,7.6z"/>
</svg>
