<?xml version="1.0" encoding="utf-8"?>
<!-- Generator: Adobe Illustrator 26.4.1, SVG Export Plug-In . SVG Version: 6.00 Build 0)  -->
<svg version="1.1" id="Layer_1" xmlns="http://www.w3.org/2000/svg" xmlns:xlink="http://www.w3.org/1999/xlink" x="0px" y="0px"
	 viewBox="0 0 26.7 26.7" style="enable-background:new 0 0 26.7 26.7;" xml:space="preserve">
<style type="text/css">
	.st0{fill:url(#SVGID_1_);}
</style>
<g id="Layer_1_00000114760420356257552870000016512620600384274565_">
	
		<linearGradient id="SVGID_1_" gradientUnits="userSpaceOnUse" x1="3.9126" y1="6.3876" x2="22.7845" y2="25.2695" gradientTransform="matrix(1 0 0 -1 0 29.18)">
		<stop  offset="0.1" style="stop-color:#2814FF"/>
		<stop  offset="0.14" style="stop-color:#2324FF"/>
		<stop  offset="0.3" style="stop-color:#145BFF"/>
		<stop  offset="0.43" style="stop-color:#0983FF"/>
		<stop  offset="0.54" style="stop-color:#029BFF"/>
		<stop  offset="0.61" style="stop-color:#00A4FF"/>
		<stop  offset="0.66" style="stop-color:#00ACCE"/>
		<stop  offset="0.72" style="stop-color:#00B590"/>
		<stop  offset="0.79" style="stop-color:#00BD5D"/>
		<stop  offset="0.84" style="stop-color:#00C434"/>
		<stop  offset="0.9" style="stop-color:#00C818"/>
		<stop  offset="0.95" style="stop-color:#00CB06"/>
		<stop  offset="0.98" style="stop-color:#00CC00"/>
	</linearGradient>
	<path class="st0" d="M13.4,0C6,0,0,6,0,13.3s6,13.4,13.3,13.4s13.4-6,13.4-13.3c0,0,0,0,0,0C26.7,6,20.7,0,13.4,0z M13.4,24.4
		c-6.1,0-11.1-4.9-11.1-11c0-6.1,4.9-11.1,11-11.1c6.1,0,11.1,4.9,11.1,11c0,0,0,0.1,0,0.1C24.3,19.5,19.4,24.4,13.4,24.4z
		 M22.8,12.6c-3-2.9-6.2-4.4-9.4-4.5S7,9.7,3.9,12.6l-0.8,0.8l0.8,0.8c3,2.9,6.2,4.4,9.4,4.5s6.4-1.6,9.4-4.5l0.8-0.8L22.8,12.6z
		 M17.4,11.4c1.1,0.5,2.1,1.2,3,2c-0.9,0.8-1.9,1.5-3,2C18,14.1,18,12.6,17.4,11.4z M9.2,15.4c-1-0.5-2-1.2-2.9-2
		c0.9-0.8,1.8-1.4,2.9-1.9C8.6,12.7,8.6,14.1,9.2,15.4z M13.3,15c-0.9,0-1.6-0.7-1.6-1.6s0.7-1.6,1.6-1.6s1.6,0.7,1.6,1.6l0,0
		C14.8,14.3,14.1,14.9,13.3,15L13.3,15z"/>
</g>
</svg>
