<?xml version="1.0" encoding="utf-8"?>
<!-- Generator: Adobe Illustrator 26.4.1, SVG Export Plug-In . SVG Version: 6.00 Build 0)  -->
<svg version="1.1" id="Layer_1" xmlns="http://www.w3.org/2000/svg" xmlns:xlink="http://www.w3.org/1999/xlink" x="0px" y="0px"
	 viewBox="0 0 22.3 26.3" style="enable-background:new 0 0 22.3 26.3;" xml:space="preserve">
<style type="text/css">
	.st0{fill:url(#SVGID_1_);}
</style>
<g id="Layer_1_00000156568660628921310250000000792052008224678302_">
	
		<linearGradient id="SVGID_1_" gradientUnits="userSpaceOnUse" x1="1.1147" y1="3.9947" x2="21.1406" y2="24.0306" gradientTransform="matrix(1 0 0 -1 0 29.06)">
		<stop  offset="0.1" style="stop-color:#2814FF"/>
		<stop  offset="0.14" style="stop-color:#2324FF"/>
		<stop  offset="0.3" style="stop-color:#145BFF"/>
		<stop  offset="0.43" style="stop-color:#0983FF"/>
		<stop  offset="0.54" style="stop-color:#029BFF"/>
		<stop  offset="0.61" style="stop-color:#00A4FF"/>
		<stop  offset="0.66" style="stop-color:#00ACCE"/>
		<stop  offset="0.72" style="stop-color:#00B590"/>
		<stop  offset="0.79" style="stop-color:#00BD5D"/>
		<stop  offset="0.84" style="stop-color:#00C434"/>
		<stop  offset="0.9" style="stop-color:#00C818"/>
		<stop  offset="0.95" style="stop-color:#00CB06"/>
		<stop  offset="0.98" style="stop-color:#00CC00"/>
	</linearGradient>
	<path class="st0" d="M17.2,18.2c-0.8-0.7-1.7-1.3-2.7-1.7c2.9-1.9,3.7-5.7,1.8-8.6c-1.9-2.9-5.7-3.7-8.6-1.8
		C4.8,8.1,4,11.9,5.9,14.8c0.5,0.7,1.1,1.3,1.8,1.8c-1,0.4-1.9,1-2.7,1.7c-1.7,1.5-2.7,3.7-2.7,5.9v2.1h17.6v-2.1
		C19.9,21.9,18.9,19.8,17.2,18.2z M7,11.4c0-2.3,1.9-4.1,4.2-4.1c2.3,0,4.1,1.9,4.1,4.2c0,2.3-1.9,4.1-4.1,4.1
		C8.8,15.5,7,13.6,7,11.4z M15.8,19.8c1.3,1.1,2,2.7,2,4.4H4.4l0,0c0-1.7,0.7-3.3,2-4.4C9.1,17.4,13.1,17.4,15.8,19.8z M14.4,12.2
		v0.1c-0.4,1.8-2.1,2.9-3.9,2.5c-1.3-0.3-2.3-1.3-2.5-2.6v-0.1l1.5-0.2V12c0.2,1,1.1,1.6,2.1,1.4c0.7-0.1,1.2-0.7,1.4-1.3v-0.1
		L14.4,12.2z M7.4,0.5l1.8,4.2L7.6,5.4L5.9,1.2L7.4,0.5z M0.6,6.2L4.9,8L4.3,9.5L0,7.8L0.6,6.2z M3.4,2.7l3.3,3.2L5.5,7.1L2.2,3.9
		L3.4,2.7z M10.3,0H12v4.5h-1.7V0z M22.3,7.8L18,9.5l-0.6-1.6l4.3-1.7L22.3,7.8z M16.4,1.2l-1.8,4.2L13,4.7l1.8-4.2L16.4,1.2z
		 M20,3.9l-3.3,3.2l-1.2-1.2l3.3-3.2L20,3.9z"/>
</g>
</svg>
