<?xml version="1.0" encoding="utf-8"?>
<!-- Generator: Adobe Illustrator 26.4.1, SVG Export Plug-In . SVG Version: 6.00 Build 0)  -->
<svg version="1.1" id="Layer_1" xmlns="http://www.w3.org/2000/svg" xmlns:xlink="http://www.w3.org/1999/xlink" x="0px" y="0px"
	 viewBox="0 0 24.8 27.8" style="enable-background:new 0 0 24.8 27.8;" xml:space="preserve">
<style type="text/css">
	.st0{fill:url(#SVGID_1_);}
</style>
<linearGradient id="SVGID_1_" gradientUnits="userSpaceOnUse" x1="-0.1" y1="2.9" x2="23.7552" y2="26.7552" gradientTransform="matrix(1 0 0 -1 0 30.6)">
	<stop  offset="0.1" style="stop-color:#2814FF"/>
	<stop  offset="0.1435" style="stop-color:#2324FF"/>
	<stop  offset="0.2998" style="stop-color:#145BFF"/>
	<stop  offset="0.4347" style="stop-color:#0983FF"/>
	<stop  offset="0.5417" style="stop-color:#029BFF"/>
	<stop  offset="0.6072" style="stop-color:#00A4FF"/>
	<stop  offset="0.6551" style="stop-color:#00ACCE"/>
	<stop  offset="0.7216" style="stop-color:#00B590"/>
	<stop  offset="0.7855" style="stop-color:#00BD5D"/>
	<stop  offset="0.8449" style="stop-color:#00C434"/>
	<stop  offset="0.8989" style="stop-color:#00C818"/>
	<stop  offset="0.9457" style="stop-color:#00CB06"/>
	<stop  offset="0.98" style="stop-color:#00CC00"/>
</linearGradient>
<path class="st0" d="M24.8,4.9v20.6H12.9v2.3H0V10.9h4.9V0H20L24.8,4.9z M3,15.8h6.9v-1.7H3C3,14.1,3,15.8,3,15.8z M8.8,17.6v1.2
	h1.1v-1.2H8.8z M4.1,23.4H3v1.2h1.1V23.4z M4.1,20.5H3v1.2h1.1V20.5z M4.1,17.6H3v1.2h1.1V17.6z M7,23.4H5.9v1.2H7V23.4z M7,20.5
	H5.9v1.2H7V20.5z M7,17.6H5.9v1.2H7V17.6z M10,20.6H8.8v4H10V20.6z M18.7,6.4V2.9H7.4v8l5.5,0.1v11.7l9.3-0.1V6.4H18.7z"/>
</svg>
