<?xml version="1.0" encoding="utf-8"?>
<!-- Generator: Adobe Illustrator 26.4.1, SVG Export Plug-In . SVG Version: 6.00 Build 0)  -->
<svg version="1.1" id="Layer_1" xmlns="http://www.w3.org/2000/svg" xmlns:xlink="http://www.w3.org/1999/xlink" x="0px" y="0px"
	 viewBox="0 0 26.7 26.7" style="enable-background:new 0 0 26.7 26.7;" xml:space="preserve">
<style type="text/css">
	.st0{fill:url(#SVGID_1_);}
</style>
<g id="Layer_1_00000020394769218916319150000001510508343253113517_">
	
		<linearGradient id="SVGID_1_" gradientUnits="userSpaceOnUse" x1="3.9101" y1="6.2701" x2="22.787" y2="25.147" gradientTransform="matrix(1 0 0 -1 0 29.06)">
		<stop  offset="0.1" style="stop-color:#2814FF"/>
		<stop  offset="0.14" style="stop-color:#2324FF"/>
		<stop  offset="0.3" style="stop-color:#145BFF"/>
		<stop  offset="0.43" style="stop-color:#0983FF"/>
		<stop  offset="0.54" style="stop-color:#029BFF"/>
		<stop  offset="0.61" style="stop-color:#00A4FF"/>
		<stop  offset="0.66" style="stop-color:#00ACCE"/>
		<stop  offset="0.72" style="stop-color:#00B590"/>
		<stop  offset="0.79" style="stop-color:#00BD5D"/>
		<stop  offset="0.84" style="stop-color:#00C434"/>
		<stop  offset="0.9" style="stop-color:#00C818"/>
		<stop  offset="0.95" style="stop-color:#00CB06"/>
		<stop  offset="0.98" style="stop-color:#00CC00"/>
	</linearGradient>
	<path class="st0" d="M18.3,8.1l1.8,7.3v4.1h-4.9v-5.8h-1.3V8.1H18.3z M17.3,5.1h-2.5V7h2.5V5.1z M11.8,5.1H9.3V7h2.5V5.1z
		 M6.6,15.5v4.1h4.9v-5.8h1.3V8.1H8.3L6.6,15.5z M13.4,0C6,0,0,6,0,13.3s6,13.4,13.3,13.4c7.4,0,13.4-6,13.4-13.3c0,0,0,0,0,0
		C26.7,6,20.7,0,13.4,0z M13.4,24.4c-6.1,0-11.1-4.9-11.1-11c0-6.1,4.9-11.1,11-11.1c6.1,0,11.1,4.9,11.1,11c0,0,0,0.1,0,0.1
		C24.3,19.5,19.4,24.4,13.4,24.4z"/>
</g>
</svg>
