<?xml version="1.0" encoding="utf-8"?>
<!-- Generator: Adobe Illustrator 26.4.1, SVG Export Plug-In . SVG Version: 6.00 Build 0)  -->
<svg version="1.1" id="Layer_1" xmlns="http://www.w3.org/2000/svg" xmlns:xlink="http://www.w3.org/1999/xlink" x="0px" y="0px"
	 viewBox="0 0 26.8 26.8" style="enable-background:new 0 0 26.8 26.8;" xml:space="preserve">
<style type="text/css">
	.st0{fill:url(#SVGID_1_);}
</style>
<g id="Layer_1_00000004546928069689315880000012543976028821515945_">
	
		<linearGradient id="SVGID_1_" gradientUnits="userSpaceOnUse" x1="-1.818989e-12" y1="2.75" x2="26.7" y2="29.45" gradientTransform="matrix(1 0 0 -1 0 29.5)">
		<stop  offset="0.1" style="stop-color:#2814FF"/>
		<stop  offset="0.14" style="stop-color:#2324FF"/>
		<stop  offset="0.3" style="stop-color:#145BFF"/>
		<stop  offset="0.43" style="stop-color:#0983FF"/>
		<stop  offset="0.54" style="stop-color:#029BFF"/>
		<stop  offset="0.61" style="stop-color:#00A4FF"/>
		<stop  offset="0.66" style="stop-color:#00ACCE"/>
		<stop  offset="0.72" style="stop-color:#00B590"/>
		<stop  offset="0.79" style="stop-color:#00BD5D"/>
		<stop  offset="0.84" style="stop-color:#00C434"/>
		<stop  offset="0.9" style="stop-color:#00C818"/>
		<stop  offset="0.95" style="stop-color:#00CB06"/>
		<stop  offset="0.98" style="stop-color:#00CC00"/>
	</linearGradient>
	<path class="st0" d="M26.8,0v7.1h-2.2V2.2h-4.9V0H26.8z M2.2,2.2h4.9V0H0v7.1h2.2L2.2,2.2z M2.2,19.6H0v7.1h7.1v-2.2H2.2V19.6z
		 M24.5,24.5h-4.9v2.2h7.1v-7.1h-2.2V24.5z M25.1,14.1c-3.8,3.6-7.7,5.5-11.6,5.5s-7.9-1.9-11.7-5.5l-0.8-0.8l0.8-0.8
		C5.5,8.9,9.4,7.1,13.4,7s7.9,1.9,11.7,5.5l0.8,0.8L25.1,14.1z M7.2,13.4c0-0.9,0.2-1.7,0.6-2.5c-1.3,0.7-2.5,1.5-3.6,2.5
		c1.1,1,2.3,1.8,3.6,2.5C7.4,15.1,7.2,14.2,7.2,13.4z M13.3,9.4c-2.2,0-4,1.8-4,4s1.8,4,4,4s4-1.8,4-4C17.3,11.1,15.5,9.4,13.3,9.4
		L13.3,9.4z M19.5,13.4c0,0.9-0.2,1.8-0.6,2.6c1.4-0.7,2.6-1.6,3.8-2.6c-1.1-1-2.4-1.9-3.8-2.6C19.3,11.6,19.5,12.5,19.5,13.4z
		 M13.3,10.9c-1.4,0-2.5,1.1-2.5,2.5c0,1.4,1.1,2.5,2.5,2.5s2.5-1.1,2.5-2.5c0,0,0,0,0,0C15.8,12,14.7,10.9,13.3,10.9z"/>
</g>
</svg>
