<?xml version="1.0" encoding="utf-8"?>
<!-- Generator: Adobe Illustrator 26.4.1, SVG Export Plug-In . SVG Version: 6.00 Build 0)  -->
<svg version="1.1" id="Layer_1" xmlns="http://www.w3.org/2000/svg" xmlns:xlink="http://www.w3.org/1999/xlink" x="0px" y="0px"
	 viewBox="0 0 27.9 20.1" style="enable-background:new 0 0 27.9 20.1;" xml:space="preserve">
<style type="text/css">
	.st0{fill:url(#SVGID_1_);}
</style>
<g id="Layer_1_00000143602951970129996130000002631654846547126444_">
	
		<linearGradient id="SVGID_1_" gradientUnits="userSpaceOnUse" x1="2.5788" y1="1.4051" x2="25.3746" y2="24.1909" gradientTransform="matrix(1 0 0 -1 0 22.7489)">
		<stop  offset="0.1" style="stop-color:#2814FF"/>
		<stop  offset="0.14" style="stop-color:#2324FF"/>
		<stop  offset="0.3" style="stop-color:#145BFF"/>
		<stop  offset="0.43" style="stop-color:#0983FF"/>
		<stop  offset="0.54" style="stop-color:#029BFF"/>
		<stop  offset="0.61" style="stop-color:#00A4FF"/>
		<stop  offset="0.66" style="stop-color:#00ACCE"/>
		<stop  offset="0.72" style="stop-color:#00B590"/>
		<stop  offset="0.79" style="stop-color:#00BD5D"/>
		<stop  offset="0.84" style="stop-color:#00C434"/>
		<stop  offset="0.9" style="stop-color:#00C818"/>
		<stop  offset="0.95" style="stop-color:#00CB06"/>
		<stop  offset="0.98" style="stop-color:#00CC00"/>
	</linearGradient>
	<path class="st0" d="M3,11.1H0V1.3l0,0C0.1,0.4,0.9-0.1,1.7,0C2.4,0.1,2.9,0.6,3,1.3l0,0V11.1z M1.2,19.9v-8.2H3v8.2H1.2z
		 M25.1,20.1V7.8h1.8v12.3H25.1z M27.1,1h0.7v4.1l0,0c0,1.1-0.9,2-2,2s-2-0.9-2-2l0,0V1h0.7v3.9H25V1h0.7v3.9h0.4V1h0.7v3.9h0.4
		L27.1,1z M14,0.1C8.7,0.2,4.4,4.6,4.5,10c0.1,5.4,4.5,9.6,9.8,9.5c5.3-0.1,9.5-4.4,9.6-9.7C23.8,4.4,19.4,0.1,14,0.1z M21.6,9.8
		c0.1,4.2-3.3,7.6-7.4,7.7s-7.6-3.3-7.7-7.4c-0.1-4.2,3.3-7.6,7.4-7.7c0,0,0.1,0,0.1,0C18.2,2.3,21.6,5.7,21.6,9.8
		C21.6,9.8,21.6,9.8,21.6,9.8z M14,4.5c-2.9,0-5.3,2.5-5.3,5.4s2.5,5.3,5.4,5.3c2.9,0,5.3-2.4,5.3-5.3C19.4,6.9,17,4.5,14,4.5z
		 M17.4,9.8c0,1.9-1.4,3.4-3.3,3.4s-3.4-1.4-3.4-3.3s1.4-3.4,3.3-3.4c0,0,0,0,0.1,0C15.9,6.5,17.4,8,17.4,9.8z"/>
</g>
</svg>
