<?xml version="1.0" encoding="utf-8"?>
<!-- Generator: Adobe Illustrator 26.4.1, SVG Export Plug-In . SVG Version: 6.00 Build 0)  -->
<svg version="1.1" id="Layer_1" xmlns="http://www.w3.org/2000/svg" xmlns:xlink="http://www.w3.org/1999/xlink" x="0px" y="0px"
	 viewBox="0 0 30.5 29.2" style="enable-background:new 0 0 30.5 29.2;" xml:space="preserve">
<style type="text/css">
	.st0{fill:url(#SVGID_1_);}
</style>
<linearGradient id="SVGID_1_" gradientUnits="userSpaceOnUse" x1="1.8714" y1="3.8714" x2="27.9754" y2="29.9754" gradientTransform="matrix(1 0 0 -1 0 32)">
	<stop  offset="0.1" style="stop-color:#2814FF"/>
	<stop  offset="0.1435" style="stop-color:#2324FF"/>
	<stop  offset="0.2998" style="stop-color:#145BFF"/>
	<stop  offset="0.4347" style="stop-color:#0983FF"/>
	<stop  offset="0.5417" style="stop-color:#029BFF"/>
	<stop  offset="0.6072" style="stop-color:#00A4FF"/>
	<stop  offset="0.6551" style="stop-color:#00ACCE"/>
	<stop  offset="0.7216" style="stop-color:#00B590"/>
	<stop  offset="0.7855" style="stop-color:#00BD5D"/>
	<stop  offset="0.8449" style="stop-color:#00C434"/>
	<stop  offset="0.8989" style="stop-color:#00C818"/>
	<stop  offset="0.9457" style="stop-color:#00CB06"/>
	<stop  offset="0.98" style="stop-color:#00CC00"/>
</linearGradient>
<path class="st0" d="M22.7,0c-4.3,0-7.8,3.5-7.8,7.8c0,0.4,0,0.8,0.1,1.3H0v17.3h7.9V27H5.8v2.2h12.9V27h-2v-0.7h7.9v-11
	c3.5-0.8,5.9-4,5.9-7.6C30.5,3.5,27,0,22.7,0z M28.3,7.8c0,3.1-2.5,5.6-5.6,5.6s-5.6-2.5-5.6-5.6s2.6-5.6,5.6-5.6S28.3,4.7,28.3,7.8
	z M22.4,15.6v8.6H2.3V11.3h13.5C17,13.8,19.6,15.4,22.4,15.6z M24.5,6.7V6.1c0-0.5-0.2-0.9-0.5-1.3c-0.3-0.3-0.8-0.5-1.3-0.5
	c-1,0-1.8,0.8-1.8,1.8v0.6h-0.3v3.5h4.3V6.7C24.9,6.7,24.5,6.7,24.5,6.7z M21.9,6.1c0-0.5,0.4-0.8,0.8-0.8c0.2,0,0.5,0.1,0.6,0.2
	c0.2,0.2,0.2,0.4,0.2,0.6v0.6h-1.7V6.1H21.9z M10.1,15.2H8.2v4.7h1.1v-1.5H10c0.9,0,1.6-0.7,1.6-1.6C11.7,15.8,11,15.2,10.1,15.2z
	 M10.5,16.8c0,0.4-0.2,0.6-0.6,0.6H9.3v-1.1h0.6C10.3,16.2,10.5,16.4,10.5,16.8z M16.5,19.1l-0.1,0.1c0,0-0.7,0.8-1.9,0.8
	c-1.4,0-2.4-1-2.4-2.5c0-1.4,1-2.4,2.4-2.4c1.1,0,1.7,0.6,1.7,0.7l0.1,0.1l-0.6,0.9v-0.2c0,0-0.5-0.4-1.1-0.4
	c-0.9,0-1.3,0.7-1.3,1.3c0,0.7,0.4,1.4,1.3,1.4c0.7,0,1.1-0.5,1.1-0.5l0.1-0.2L16.5,19.1z"/>
</svg>
