<?xml version="1.0" encoding="utf-8"?>
<!-- Generator: Adobe Illustrator 26.4.1, SVG Export Plug-In . SVG Version: 6.00 Build 0)  -->
<svg version="1.1" id="Layer_1" xmlns="http://www.w3.org/2000/svg" xmlns:xlink="http://www.w3.org/1999/xlink" x="0px" y="0px"
	 viewBox="0 0 26.8 26.8" style="enable-background:new 0 0 26.8 26.8;" xml:space="preserve">
<style type="text/css">
	.st0{fill:url(#SVGID_1_);}
</style>
<g id="Layer_1_00000065790488621770411300000014749203206537841595_">
	
		<linearGradient id="SVGID_1_" gradientUnits="userSpaceOnUse" x1="-1.818989e-12" y1="2.75" x2="26.7" y2="29.45" gradientTransform="matrix(1 0 0 -1 0 29.5)">
		<stop  offset="0.1" style="stop-color:#2814FF"/>
		<stop  offset="0.14" style="stop-color:#2324FF"/>
		<stop  offset="0.3" style="stop-color:#145BFF"/>
		<stop  offset="0.43" style="stop-color:#0983FF"/>
		<stop  offset="0.54" style="stop-color:#029BFF"/>
		<stop  offset="0.61" style="stop-color:#00A4FF"/>
		<stop  offset="0.66" style="stop-color:#00ACCE"/>
		<stop  offset="0.72" style="stop-color:#00B590"/>
		<stop  offset="0.79" style="stop-color:#00BD5D"/>
		<stop  offset="0.84" style="stop-color:#00C434"/>
		<stop  offset="0.9" style="stop-color:#00C818"/>
		<stop  offset="0.95" style="stop-color:#00CB06"/>
		<stop  offset="0.98" style="stop-color:#00CC00"/>
	</linearGradient>
	<path class="st0" d="M20.1,7.1c-0.6-1.9-2.5-2.7-3.4-3.1c-0.4-0.2-0.7-0.3-1-0.6C15,3,14,2.6,13.1,2.5c-1,0.1-1.9,0.4-2.7,1
		c-0.3,0.2-0.7,0.4-1,0.6C8.5,4.5,6.6,5.2,6.1,7.1c-0.5,1.6-1,4,0.2,6.2c0.3,5.5,3.3,9.6,6.9,9.6s6.7-4.4,6.9-10
		C20.8,11.1,20.8,9,20.1,7.1z M17.9,12.4c0,4.6-2.2,8.4-4.8,8.4s-4.8-3.9-4.8-8.4c0-1.1,0.1-2.2,0.4-3.2c0.5,0.6,1.2,1.1,2,1.1
		c1.1,0,2.1-0.3,3.1-0.6c0.7-0.2,1.3-0.4,2-0.6l0.4-0.1c0.4-0.1,0.7-0.2,1.1-0.2C17.8,9.9,17.9,11.1,17.9,12.4z M26.8,0v7.1h-2.2
		V2.2h-4.9V0H26.8z M2.2,7.1H0V0h7.1v2.2H2.2V7.1z M2.2,24.5h4.9v2.2H0v-7.1h2.2L2.2,24.5z M24.5,19.6h2.2v7.1h-7.1v-2.2h4.9V19.6z"
		/>
</g>
</svg>
