<?xml version="1.0" encoding="utf-8"?>
<!-- Generator: Adobe Illustrator 26.4.1, SVG Export Plug-In . SVG Version: 6.00 Build 0)  -->
<svg version="1.1" id="Layer_1" xmlns="http://www.w3.org/2000/svg" xmlns:xlink="http://www.w3.org/1999/xlink" x="0px" y="0px"
	 viewBox="0 0 26.6 23" style="enable-background:new 0 0 26.6 23;" xml:space="preserve">
<style type="text/css">
	.st0{fill:url(#SVGID_1_);}
</style>
<linearGradient id="SVGID_1_" gradientUnits="userSpaceOnUse" x1="1.875" y1="4.825" x2="24.725" y2="27.675" gradientTransform="matrix(1 0 0 -1 0 25.8)">
	<stop  offset="0.1" style="stop-color:#2814FF"/>
	<stop  offset="0.1435" style="stop-color:#2324FF"/>
	<stop  offset="0.2998" style="stop-color:#145BFF"/>
	<stop  offset="0.4347" style="stop-color:#0983FF"/>
	<stop  offset="0.5417" style="stop-color:#029BFF"/>
	<stop  offset="0.6072" style="stop-color:#00A4FF"/>
	<stop  offset="0.6551" style="stop-color:#00ACCE"/>
	<stop  offset="0.7216" style="stop-color:#00B590"/>
	<stop  offset="0.7855" style="stop-color:#00BD5D"/>
	<stop  offset="0.8449" style="stop-color:#00C434"/>
	<stop  offset="0.8989" style="stop-color:#00C818"/>
	<stop  offset="0.9457" style="stop-color:#00CB06"/>
	<stop  offset="0.98" style="stop-color:#00CC00"/>
</linearGradient>
<path class="st0" d="M26.6,19.1V0H0v19.1h8.5v1.4H6.2V23h14.2v-2.5h-2.3v-1.4C18.1,19.1,26.6,19.1,26.6,19.1z M24.2,2.4v14.4H2.4
	V2.4H24.2z M10.9,6.9l0.4,4.9h-0.9l-0.2-2.7c0-0.3,0-0.8,0-0.8l0,0c0,0-0.1,0.5-0.3,0.8l-0.8,1.8H8.3L7.5,9C7.4,8.7,7.2,8.2,7.2,8.2
	l0,0c0,0,0,0.4,0,0.8L7,11.7H6.1l0.4-4.9h0.9l1,2.4c0.1,0.3,0.2,0.7,0.2,0.7l0,0c0,0,0.1-0.4,0.2-0.7l1-2.4L10.9,6.9L10.9,6.9z
	 M13.4,6.9l-1.7,4.9h0.9l0.4-1.2h1.7l0.4,1.2H16l-1.6-4.9H13.4z M13.3,9.8l0.4-1.3c0.1-0.3,0.2-0.8,0.2-0.8l0,0c0,0,0.1,0.5,0.2,0.8
	l0.4,1.3H13.3z M20.3,10.4l0.5,0.6c0,0-0.7,0.8-1.9,0.8c-1.5,0-2.5-1.1-2.5-2.5s1.1-2.5,2.5-2.5c1.2,0,1.8,0.7,1.8,0.7l-0.4,0.7
	c0,0-0.6-0.5-1.3-0.5c-1,0-1.6,0.8-1.6,1.7c0,0.9,0.6,1.7,1.6,1.7C19.7,11,20.3,10.4,20.3,10.4z"/>
</svg>
