<?xml version="1.0" encoding="utf-8"?>
<!-- Generator: Adobe Illustrator 26.4.1, SVG Export Plug-In . SVG Version: 6.00 Build 0)  -->
<svg version="1.1" id="Layer_1" xmlns="http://www.w3.org/2000/svg" xmlns:xlink="http://www.w3.org/1999/xlink" x="0px" y="0px"
	 viewBox="0 0 30.5 30.4" style="enable-background:new 0 0 30.5 30.4;" xml:space="preserve">
<style type="text/css">
	.st0{fill:url(#SVGID_1_);}
</style>
<linearGradient id="SVGID_1_" gradientUnits="userSpaceOnUse" x1="1.9204" y1="4.8704" x2="28.0249" y2="30.9749" gradientTransform="matrix(1 0 0 -1 0 33)">
	<stop  offset="0.1" style="stop-color:#2814FF"/>
	<stop  offset="0.1435" style="stop-color:#2324FF"/>
	<stop  offset="0.2998" style="stop-color:#145BFF"/>
	<stop  offset="0.4347" style="stop-color:#0983FF"/>
	<stop  offset="0.5417" style="stop-color:#029BFF"/>
	<stop  offset="0.6072" style="stop-color:#00A4FF"/>
	<stop  offset="0.6551" style="stop-color:#00ACCE"/>
	<stop  offset="0.7216" style="stop-color:#00B590"/>
	<stop  offset="0.7855" style="stop-color:#00BD5D"/>
	<stop  offset="0.8449" style="stop-color:#00C434"/>
	<stop  offset="0.8989" style="stop-color:#00C818"/>
	<stop  offset="0.9457" style="stop-color:#00CB06"/>
	<stop  offset="0.98" style="stop-color:#00CC00"/>
</linearGradient>
<path class="st0" d="M22.7,0c-4.3,0-7.8,3.5-7.8,7.8c0,0.4,0,0.8,0.1,1.3H0v17.3h7.9v1.8H5.8v2.2h12.9v-2.2h-2v-1.8h7.9v-11
	c3.5-0.8,5.9-4,5.9-7.6C30.5,3.5,27,0,22.7,0z M17.1,7.7c0-3.1,2.5-5.6,5.6-5.6s5.6,2.5,5.6,5.6s-2.5,5.6-5.6,5.6
	S17.1,10.8,17.1,7.7z M22.4,15.5v8.6H2.3V11.2h13.5C17,13.7,19.6,15.4,22.4,15.5z M25.1,6.6V5.7c0-0.6-0.2-1.2-0.7-1.7
	c-0.4-0.4-1-0.7-1.7-0.7c-1.3,0-2.4,1.1-2.4,2.4v0.9h-0.5v4.6h5.6V6.6H25.1z M21.5,5.6c0-0.7,0.5-1.2,1.2-1.2c0.4,0,0.6,0.1,0.9,0.4
	C23.8,5,24,5.3,24,5.7v0.9h-2.4v-1H21.5z M10.3,19.9H9.2l-0.3-2.4l-0.7,1.6H7.3l-0.7-1.6l-0.2,2.4H5.3l0.4-4.7h1.1l0.9,2.3
	c0,0.1,0,0.1,0.1,0.2c0-0.1,0-0.1,0.1-0.2l0.9-2.3h1.1L10.3,19.9z M12.3,15.1l-1.7,4.7h1.2l0.4-1.1h1.3l0.4,1.1h1.2l-1.7-4.7
	C13.4,15.1,12.3,15.1,12.3,15.1z M13.2,17.7h-0.7l0.3-0.9c0,0,0,0,0-0.1c0,0,0,0,0,0.1L13.2,17.7z M19.3,19.1l-0.1,0.1
	c0,0-0.7,0.8-1.9,0.8c-1.4,0-2.4-1-2.4-2.5c0-1.4,1-2.4,2.4-2.4c1.1,0,1.7,0.6,1.7,0.7l0.1,0.1l-0.6,0.9l-0.2-0.1
	c0,0-0.5-0.4-1.1-0.4c-0.9,0-1.3,0.7-1.3,1.3c0,0.7,0.4,1.4,1.3,1.4c0.7,0,1.1-0.5,1.1-0.5l0.1-0.2L19.3,19.1z"/>
</svg>
