<?xml version="1.0" encoding="utf-8"?>
<!-- Generator: Adobe Illustrator 26.4.1, SVG Export Plug-In . SVG Version: 6.00 Build 0)  -->
<svg version="1.1" id="Layer_1" xmlns="http://www.w3.org/2000/svg" xmlns:xlink="http://www.w3.org/1999/xlink" x="0px" y="0px"
	 viewBox="0 0 29.8 22" style="enable-background:new 0 0 29.8 22;" xml:space="preserve">
<style type="text/css">
	.st0{fill:url(#SVGID_1_);}
</style>
<linearGradient id="SVGID_1_" gradientUnits="userSpaceOnUse" x1="2.6" y1="0.2" x2="27.25" y2="24.85" gradientTransform="matrix(1 0 0 -1 0 24.8)">
	<stop  offset="0.1" style="stop-color:#2814FF"/>
	<stop  offset="0.1435" style="stop-color:#2324FF"/>
	<stop  offset="0.2998" style="stop-color:#145BFF"/>
	<stop  offset="0.4347" style="stop-color:#0983FF"/>
	<stop  offset="0.5417" style="stop-color:#029BFF"/>
	<stop  offset="0.6072" style="stop-color:#00A4FF"/>
	<stop  offset="0.6551" style="stop-color:#00ACCE"/>
	<stop  offset="0.7216" style="stop-color:#00B590"/>
	<stop  offset="0.7855" style="stop-color:#00BD5D"/>
	<stop  offset="0.8449" style="stop-color:#00C434"/>
	<stop  offset="0.8989" style="stop-color:#00C818"/>
	<stop  offset="0.9457" style="stop-color:#00CB06"/>
	<stop  offset="0.98" style="stop-color:#00CC00"/>
</linearGradient>
<path class="st0" d="M2.6,0v17.5h24.7V0H2.6z M5,15.2V2.4h20v12.8H5z M29.8,19.6V22H0v-2.4C0,19.6,29.8,19.6,29.8,19.6z M12.3,6.2
	l0.4,5h-1.2l-0.2-2.7l-0.8,1.9h-1L8.7,8.5l-0.2,2.7H7.3L7.7,6h1.2l1,2.5c0,0.1,0.1,0.2,0.1,0.2c0-0.1,0.1-0.2,0.1-0.2l1-2.5h1.2V6.2
	z M14.9,6l-1.8,5.2h1.2l0.4-1.2h1.4l0.4,1.2h1.3L16,6C16,6,14.9,6,14.9,6z M15.9,8.9h-0.8l0.4-1.1V7.7v0.1L15.9,8.9z M22.5,10.4
	l-0.1,0.1c0,0-0.7,0.8-2,0.8c-1.6,0-2.7-1.1-2.7-2.7c0-1.5,1.1-2.7,2.7-2.7c1.2,0,1.9,0.7,1.9,0.7l0.1,0.1l-0.6,0.9l-0.2-0.1
	c0,0-0.5-0.5-1.2-0.5c-1,0-1.5,0.8-1.5,1.5c0,0.8,0.5,1.6,1.5,1.6c0.8,0,1.3-0.6,1.3-0.6l0.1-0.2L22.5,10.4z"/>
</svg>
