<?xml version="1.0" encoding="utf-8"?>
<!-- Generator: Adobe Illustrator 26.4.1, SVG Export Plug-In . SVG Version: 6.00 Build 0)  -->
<svg version="1.1" id="Layer_1" xmlns="http://www.w3.org/2000/svg" xmlns:xlink="http://www.w3.org/1999/xlink" x="0px" y="0px"
	 viewBox="0 0 29.8 22" style="enable-background:new 0 0 29.8 22;" xml:space="preserve">
<style type="text/css">
	.st0{fill:url(#SVGID_1_);}
</style>
<linearGradient id="SVGID_1_" gradientUnits="userSpaceOnUse" x1="2.6" y1="0.2" x2="27.25" y2="24.85" gradientTransform="matrix(1 0 0 -1 0 24.8)">
	<stop  offset="0.1" style="stop-color:#2814FF"/>
	<stop  offset="0.1435" style="stop-color:#2324FF"/>
	<stop  offset="0.2998" style="stop-color:#145BFF"/>
	<stop  offset="0.4347" style="stop-color:#0983FF"/>
	<stop  offset="0.5417" style="stop-color:#029BFF"/>
	<stop  offset="0.6072" style="stop-color:#00A4FF"/>
	<stop  offset="0.6551" style="stop-color:#00ACCE"/>
	<stop  offset="0.7216" style="stop-color:#00B590"/>
	<stop  offset="0.7855" style="stop-color:#00BD5D"/>
	<stop  offset="0.8449" style="stop-color:#00C434"/>
	<stop  offset="0.8989" style="stop-color:#00C818"/>
	<stop  offset="0.9457" style="stop-color:#00CB06"/>
	<stop  offset="0.98" style="stop-color:#00CC00"/>
</linearGradient>
<path class="st0" d="M2.6,0v17.5h24.7V0H2.6z M5,15.2V2.4h20v12.8H5z M29.8,19.6V22H0v-2.4C0,19.6,29.8,19.6,29.8,19.6z M17.4,7.9
	V7.1c0-0.6-0.3-1.3-0.7-1.7c-0.5-0.5-1.1-0.7-1.7-0.7c-1.3,0-2.4,1.1-2.4,2.4v0.8h-0.5v4.7h5.8V7.9H17.4z M13.8,7
	c0-0.6,0.5-1.1,1.1-1.1c0.3,0,0.6,0.1,0.8,0.3C15.9,6.4,16,6.7,16,7v0.8h-2.3V7H13.8z"/>
</svg>
