<?xml version="1.0" encoding="utf-8"?>
<!-- Generator: Adobe Illustrator 26.4.1, SVG Export Plug-In . SVG Version: 6.00 Build 0)  -->
<svg version="1.1" id="Layer_1" xmlns="http://www.w3.org/2000/svg" xmlns:xlink="http://www.w3.org/1999/xlink" x="0px" y="0px"
	 viewBox="0 0 27 17.6" style="enable-background:new 0 0 27 17.6;" xml:space="preserve">
<style type="text/css">
	.st0{fill:url(#SVGID_1_);}
</style>
<linearGradient id="SVGID_1_" gradientUnits="userSpaceOnUse" x1="3.8129" y1="1.9129" x2="22.983" y2="21.083" gradientTransform="matrix(1 0 0 -1 0 20.4)">
	<stop  offset="0.1" style="stop-color:#2814FF"/>
	<stop  offset="0.1435" style="stop-color:#2324FF"/>
	<stop  offset="0.2998" style="stop-color:#145BFF"/>
	<stop  offset="0.4347" style="stop-color:#0983FF"/>
	<stop  offset="0.5417" style="stop-color:#029BFF"/>
	<stop  offset="0.6072" style="stop-color:#00A4FF"/>
	<stop  offset="0.6551" style="stop-color:#00ACCE"/>
	<stop  offset="0.7216" style="stop-color:#00B590"/>
	<stop  offset="0.7855" style="stop-color:#00BD5D"/>
	<stop  offset="0.8449" style="stop-color:#00C434"/>
	<stop  offset="0.8989" style="stop-color:#00C818"/>
	<stop  offset="0.9457" style="stop-color:#00CB06"/>
	<stop  offset="0.98" style="stop-color:#00CC00"/>
</linearGradient>
<path class="st0" d="M12.2,3C9.9,3,8,4.9,8,7.2s1.9,4.2,4.2,4.2s4.2-1.9,4.2-4.2S14.5,3,12.2,3z M14.1,7.1c0,1.1-0.9,2-2,2
	s-2-0.9-2-2s0.9-2,2-2S14.1,6.1,14.1,7.1z M23.6,0H0v14.3h23.6V0z M2.2,12.1V2.2h19.2v10H2.2V12.1z M27,4.3v13.3H3v-2.2h21.8V4.3H27
	z M3,2.7h1.4v1.4H3V2.7z M3,10.2h1.4v1.4H3V10.2z M19.2,10.2h1.4v1.4h-1.4V10.2z M20.6,2.7v1.4h-1.4V2.7H20.6z"/>
</svg>
