<?xml version="1.0" encoding="utf-8"?>
<!-- Generator: Adobe Illustrator 26.4.1, SVG Export Plug-In . SVG Version: 6.00 Build 0)  -->
<svg version="1.1" id="Layer_1" xmlns="http://www.w3.org/2000/svg" xmlns:xlink="http://www.w3.org/1999/xlink" x="0px" y="0px"
	 viewBox="0 0 26.1 25.9" style="enable-background:new 0 0 26.1 25.9;" xml:space="preserve">
<style type="text/css">
	.st0{fill:url(#SVGID_1_);}
</style>
<g id="Layer_1_00000039831771942066390460000005191950764708071581_">
	
		<linearGradient id="SVGID_1_" gradientUnits="userSpaceOnUse" x1="1.2058" y1="4.4042" x2="22.3858" y2="25.5842" gradientTransform="matrix(1 0 0 -1 0 28.62)">
		<stop  offset="0.1" style="stop-color:#2814FF"/>
		<stop  offset="0.14" style="stop-color:#2324FF"/>
		<stop  offset="0.3" style="stop-color:#145BFF"/>
		<stop  offset="0.43" style="stop-color:#0983FF"/>
		<stop  offset="0.54" style="stop-color:#029BFF"/>
		<stop  offset="0.61" style="stop-color:#00A4FF"/>
		<stop  offset="0.66" style="stop-color:#00ACCE"/>
		<stop  offset="0.72" style="stop-color:#00B590"/>
		<stop  offset="0.79" style="stop-color:#00BD5D"/>
		<stop  offset="0.84" style="stop-color:#00C434"/>
		<stop  offset="0.9" style="stop-color:#00C818"/>
		<stop  offset="0.95" style="stop-color:#00CB06"/>
		<stop  offset="0.98" style="stop-color:#00CC00"/>
	</linearGradient>
	<path class="st0" d="M7.5,12.5h2.8v2.7H7.5V12.5z M7.5,19.3h2.8v-2.7H7.5V19.3z M3.2,15.2H6v-2.7H3.2V15.2z M3.2,19.3H6v-2.7H3.2
		V19.3z M7.5,11.1h2.8V8.4H7.5V11.1z M11.6,11.1h2.8V8.4h-2.8V11.1z M15.9,8.4v2.7h2.8V8.4H15.9z M11.6,15.2h2.8v-2.7h-2.8V15.2z
		 M21.2,19.9l0,0.1c-0.3,0.9-1.4,1.4-2.3,1c-0.5-0.2-0.9-0.6-1-1v-0.1l-1,0.3l0,0.1c0.4,1.1,1.4,1.8,2.6,1.8l0,0
		c1.2,0,2.2-0.7,2.6-1.8v-0.1L21.2,19.9z M21.2,19.3c0.4,0,0.7-0.3,0.7-0.7c0-0.4-0.3-0.7-0.7-0.7c-0.4,0-0.7,0.3-0.7,0.7
		C20.5,19,20.8,19.3,21.2,19.3C21.2,19.3,21.2,19.3,21.2,19.3z M18,19.3c0.4,0,0.7-0.3,0.7-0.7c0-0.4-0.3-0.7-0.7-0.7
		c-0.4,0-0.7,0.3-0.7,0.7C17.3,19,17.6,19.3,18,19.3C18,19.3,18,19.3,18,19.3z M26.1,19.5c0,3.5-2.9,6.3-6.4,6.3
		c-2.1,0-4.1-1.1-5.3-2.8H0V2.6h2.9V0h2.8v2.6h10.8V0h2.8v2.6h2.4v10.9C24.3,14.3,26.1,16.8,26.1,19.5L26.1,19.5z M15.8,14.5v-2h2.8
		v0.8c0.3-0.1,0.7-0.1,1-0.1V4.6H2.1V21h11.4c-0.1-0.5-0.2-1-0.2-1.5c0-0.1,0-0.1,0-0.2h-1.7v-2.7H14C14.5,15.7,15.1,15,15.8,14.5
		L15.8,14.5z M24.1,19.5c0.1-2.4-1.8-4.4-4.3-4.5c-2.4-0.1-4.4,1.8-4.5,4.3c-0.1,2.4,1.8,4.4,4.3,4.5c0,0,0.1,0,0.1,0
		C22.1,23.8,24.1,21.9,24.1,19.5C24.1,19.5,24.1,19.5,24.1,19.5L24.1,19.5z"/>
</g>
</svg>
