<?xml version="1.0" encoding="utf-8"?>
<!-- Generator: Adobe Illustrator 26.4.1, SVG Export Plug-In . SVG Version: 6.00 Build 0)  -->
<svg version="1.1" id="Layer_1" xmlns="http://www.w3.org/2000/svg" xmlns:xlink="http://www.w3.org/1999/xlink" x="0px" y="0px"
	 viewBox="0 0 27.8 23.6" style="enable-background:new 0 0 27.8 23.6;" xml:space="preserve">
<style type="text/css">
	.st0{fill:url(#SVGID_1_);}
</style>
<g id="Layer_1_00000055697326434458816180000017089573360669991578_">
	
		<linearGradient id="SVGID_1_" gradientUnits="userSpaceOnUse" x1="1.1813" y1="6.2155" x2="26.9363" y2="17.6822" gradientTransform="matrix(1 0 0 -1 0 26)">
		<stop  offset="0.1" style="stop-color:#2814FF"/>
		<stop  offset="0.14" style="stop-color:#2324FF"/>
		<stop  offset="0.3" style="stop-color:#145BFF"/>
		<stop  offset="0.43" style="stop-color:#0983FF"/>
		<stop  offset="0.54" style="stop-color:#029BFF"/>
		<stop  offset="0.61" style="stop-color:#00A4FF"/>
		<stop  offset="0.66" style="stop-color:#00ACCE"/>
		<stop  offset="0.72" style="stop-color:#00B590"/>
		<stop  offset="0.79" style="stop-color:#00BD5D"/>
		<stop  offset="0.84" style="stop-color:#00C434"/>
		<stop  offset="0.9" style="stop-color:#00C818"/>
		<stop  offset="0.95" style="stop-color:#00CB06"/>
		<stop  offset="0.98" style="stop-color:#00CC00"/>
	</linearGradient>
	<path class="st0" d="M13.9,0L0,10.7l1.4,1.8l1.5-1.1v12.3h21.4v-13l2.2,1.6l1.4-1.8L13.9,0z M5.2,21.3V9.6l8.8-6.7l8.1,6v12.4H5.2z
		 M18.3,14.9L14,19.5l-4.3-4.6c-1.1-1.1-1.1-2.9,0-4c0.5-0.5,1.2-0.8,1.9-0.8l0,0c0.7,0,1.4,0.3,1.9,0.8l0.5,0.5l0.5-0.5
		c0.5-0.5,1.2-0.8,1.9-0.8l0,0c0.7,0,1.4,0.3,1.9,0.8C19.4,12,19.4,13.8,18.3,14.9z"/>
</g>
</svg>
