<?xml version="1.0" encoding="utf-8"?>
<!-- Generator: Adobe Illustrator 26.4.1, SVG Export Plug-In . SVG Version: 6.00 Build 0)  -->
<svg version="1.1" id="Layer_1" xmlns="http://www.w3.org/2000/svg" xmlns:xlink="http://www.w3.org/1999/xlink" x="0px" y="0px"
	 viewBox="0 0 26.7 20.2" style="enable-background:new 0 0 26.7 20.2;" xml:space="preserve">
<style type="text/css">
	.st0{fill:url(#SVGID_1_);}
</style>
<g id="Layer_1_00000085945280144400109520000011258829020329012359_">
	
		<linearGradient id="SVGID_1_" gradientUnits="userSpaceOnUse" x1="2.9409" y1="2.5775" x2="21.2409" y2="20.8675" gradientTransform="matrix(1 0 0 -1 0 22.56)">
		<stop  offset="0.1" style="stop-color:#2814FF"/>
		<stop  offset="0.14" style="stop-color:#2324FF"/>
		<stop  offset="0.3" style="stop-color:#145BFF"/>
		<stop  offset="0.43" style="stop-color:#0983FF"/>
		<stop  offset="0.54" style="stop-color:#029BFF"/>
		<stop  offset="0.61" style="stop-color:#00A4FF"/>
		<stop  offset="0.66" style="stop-color:#00ACCE"/>
		<stop  offset="0.72" style="stop-color:#00B590"/>
		<stop  offset="0.79" style="stop-color:#00BD5D"/>
		<stop  offset="0.84" style="stop-color:#00C434"/>
		<stop  offset="0.9" style="stop-color:#00C818"/>
		<stop  offset="0.95" style="stop-color:#00CB06"/>
		<stop  offset="0.98" style="stop-color:#00CC00"/>
	</linearGradient>
	<path class="st0" d="M13.2,13.1h-4v-1h-7v-1.1h16.3l-1,1.1h-4.3V13.1z M21.6,13.7l-2.8,2.1l0.6,0.8l2.7-2L22,15.4l1,0.1l0.3-2.4
		L21,12.6l-0.2,1L21.6,13.7z M26.7,14.6c0,3.1-2.6,5.6-5.7,5.6c-2.2,0-4.1-1.2-5.1-3.1H0V2.3h6.2V0h9.8v2.3h6v6.8
		C24.7,9.5,26.7,11.8,26.7,14.6z M7.6,2.3h6.9V1.4H7.6V2.3z M15.3,14.7v-0.1c0.1-2.5,1.8-4.7,4.3-5.3V4.6H2.3v10.2L15.3,14.7z
		 M24.4,14.6c0.1-1.9-1.4-3.5-3.3-3.6c-1.9-0.1-3.5,1.4-3.6,3.3s1.4,3.5,3.3,3.6c0.1,0,0.1,0,0.2,0C22.8,17.9,24.4,16.5,24.4,14.6
		L24.4,14.6z"/>
</g>
</svg>
