<?xml version="1.0" encoding="utf-8"?>
<!-- Generator: Adobe Illustrator 26.4.1, SVG Export Plug-In . SVG Version: 6.00 Build 0)  -->
<svg version="1.1" id="Layer_1" xmlns="http://www.w3.org/2000/svg" xmlns:xlink="http://www.w3.org/1999/xlink" x="0px" y="0px"
	 viewBox="0 0 26.5 26.5" style="enable-background:new 0 0 26.5 26.5;" xml:space="preserve">
<style type="text/css">
	.st0{fill:url(#SVGID_1_);}
</style>
<g id="Layer_1_00000091006501660413649200000016751147667724174488_">
	
		<linearGradient id="SVGID_1_" gradientUnits="userSpaceOnUse" x1="3.875" y1="6.675" x2="22.5821" y2="25.3821" gradientTransform="matrix(1 0 0 -1 0 29.26)">
		<stop  offset="0.1" style="stop-color:#2814FF"/>
		<stop  offset="0.14" style="stop-color:#2324FF"/>
		<stop  offset="0.3" style="stop-color:#145BFF"/>
		<stop  offset="0.43" style="stop-color:#0983FF"/>
		<stop  offset="0.54" style="stop-color:#029BFF"/>
		<stop  offset="0.61" style="stop-color:#00A4FF"/>
		<stop  offset="0.66" style="stop-color:#00ACCE"/>
		<stop  offset="0.72" style="stop-color:#00B590"/>
		<stop  offset="0.79" style="stop-color:#00BD5D"/>
		<stop  offset="0.84" style="stop-color:#00C434"/>
		<stop  offset="0.9" style="stop-color:#00C818"/>
		<stop  offset="0.95" style="stop-color:#00CB06"/>
		<stop  offset="0.98" style="stop-color:#00CC00"/>
	</linearGradient>
	<path class="st0" d="M13.2,0C5.9,0,0,5.9,0,13.2s5.9,13.2,13.2,13.2s13.2-5.9,13.2-13.2C26.5,5.9,20.5,0,13.2,0z M10,23.6v-8
		c-0.1-1.7-1.6-3.1-3.3-3c-1.6,0.1-2.9,1.4-3,3v2.9c-2.9-5.2-1-11.9,4.2-14.8s11.9-1,14.8,4.2c1.5,2.7,1.8,6,0.7,8.9v-1.3
		c-0.1-1.7-1.6-3.1-3.3-3c-1.6,0.1-2.9,1.4-3,3v7.8C14.9,24.2,12.4,24.3,10,23.6L10,23.6z M8.9,10.1c0,1.1-0.9,2-2,2s-2-0.9-2-2
		s0.9-2,2-2S8.9,9,8.9,10.1z M18.2,10.1c0-1.1,0.9-2,2-2s2,0.9,2,2s-0.9,2-2,2S18.2,11.2,18.2,10.1z M16,12.4v1.8h-1.9V16h-1.8v-1.9
		h-1.9v-1.8h1.9v-1.9h1.8v1.9L16,12.4z"/>
</g>
</svg>
