<?xml version="1.0" encoding="utf-8"?>
<!-- Generator: Adobe Illustrator 26.4.1, SVG Export Plug-In . SVG Version: 6.00 Build 0)  -->
<svg version="1.1" id="Layer_1" xmlns="http://www.w3.org/2000/svg" xmlns:xlink="http://www.w3.org/1999/xlink" x="0px" y="0px"
	 viewBox="0 0 27.4 23.2" style="enable-background:new 0 0 27.4 23.2;" xml:space="preserve">
<style type="text/css">
	.st0{fill:url(#SVGID_1_);}
</style>
<linearGradient id="SVGID_1_" gradientUnits="userSpaceOnUse" x1="7.9028" y1="0.4707" x2="18.7059" y2="23.6382" gradientTransform="matrix(1 0 0 -1 0 26)">
	<stop  offset="0.1" style="stop-color:#2814FF"/>
	<stop  offset="0.1435" style="stop-color:#2324FF"/>
	<stop  offset="0.2998" style="stop-color:#145BFF"/>
	<stop  offset="0.4347" style="stop-color:#0983FF"/>
	<stop  offset="0.5417" style="stop-color:#029BFF"/>
	<stop  offset="0.6072" style="stop-color:#00A4FF"/>
	<stop  offset="0.6551" style="stop-color:#00ACCE"/>
	<stop  offset="0.7216" style="stop-color:#00B590"/>
	<stop  offset="0.7855" style="stop-color:#00BD5D"/>
	<stop  offset="0.8449" style="stop-color:#00C434"/>
	<stop  offset="0.8989" style="stop-color:#00C818"/>
	<stop  offset="0.9457" style="stop-color:#00CB06"/>
	<stop  offset="0.98" style="stop-color:#00CC00"/>
</linearGradient>
<path class="st0" d="M13.7,0L0,10.5l1.4,1.8l1.4-1.1v12h21.1V10.4L26,12l1.4-1.8L13.7,0z M5.1,20.9V9.4l8.6-6.6l7.9,5.9v12.1H5.1
	V20.9z M15.6,20.9h-3.9H6.8v-3.7c0-0.7,0.3-1.2,0.8-1.6s1.1-0.7,1.8-0.7s1.3,0.2,1.8,0.7c0.4,0.4,0.7,1,0.8,1.6
	c0.1-0.3,0.3-0.6,0.5-0.8c0.4-0.3,0.8-0.5,1.4-0.5c0.5,0,1,0.2,1.4,0.5c0.3,0.3,0.5,0.6,0.6,1c0-0.5,0.3-1,0.7-1.3
	c0.4-0.4,0.9-0.6,1.5-0.6s1.1,0.2,1.5,0.6s0.7,0.9,0.7,1.4V21L15.6,20.9L15.6,20.9z M13.7,12.8c0.7,0,1.3,0.6,1.3,1.3
	c0,0.7-0.6,1.3-1.3,1.3s-1.3-0.6-1.3-1.3C12.4,13.4,13,12.8,13.7,12.8z M9.3,11.1c0.9,0,1.7,0.8,1.7,1.7c0,0.9-0.8,1.7-1.7,1.7
	s-1.7-0.8-1.7-1.7C7.6,11.9,8.4,11.1,9.3,11.1z M17.8,12.2c0.8,0,1.5,0.7,1.5,1.5s-0.7,1.5-1.5,1.5s-1.5-0.7-1.5-1.5
	S17,12.2,17.8,12.2z"/>
</svg>
