<?xml version="1.0" encoding="utf-8"?>
<!-- Generator: Adobe Illustrator 26.4.1, SVG Export Plug-In . SVG Version: 6.00 Build 0)  -->
<svg version="1.1" id="Layer_1" xmlns="http://www.w3.org/2000/svg" xmlns:xlink="http://www.w3.org/1999/xlink" x="0px" y="0px"
	 viewBox="0 0 25.3 14.9" style="enable-background:new 0 0 25.3 14.9;" xml:space="preserve">
<style type="text/css">
	.st0{fill:url(#SVGID_1_);}
</style>
<g id="Layer_1_00000157267400750757500950000002791713660937153678_">
	
		<linearGradient id="SVGID_1_" gradientUnits="userSpaceOnUse" x1="2.875" y1="0.655" x2="22.375" y2="20.155" gradientTransform="matrix(1 0 0 -1 0 17.28)">
		<stop  offset="0.1" style="stop-color:#2814FF"/>
		<stop  offset="0.14" style="stop-color:#2324FF"/>
		<stop  offset="0.3" style="stop-color:#145BFF"/>
		<stop  offset="0.43" style="stop-color:#0983FF"/>
		<stop  offset="0.54" style="stop-color:#029BFF"/>
		<stop  offset="0.61" style="stop-color:#00A4FF"/>
		<stop  offset="0.66" style="stop-color:#00ACCE"/>
		<stop  offset="0.72" style="stop-color:#00B590"/>
		<stop  offset="0.79" style="stop-color:#00BD5D"/>
		<stop  offset="0.84" style="stop-color:#00C434"/>
		<stop  offset="0.9" style="stop-color:#00C818"/>
		<stop  offset="0.95" style="stop-color:#00CB06"/>
		<stop  offset="0.98" style="stop-color:#00CC00"/>
	</linearGradient>
	<path class="st0" d="M12.9,10.5h4.5V3.2h-4.5V10.5z M15.8,4.7V9h-1.4V4.7H15.8z M17.9,3.1v7.4h4.5V3.2L17.9,3.1z M19.4,9V4.7h1.4V9
		H19.4z M2.9,10.5h4.5V3.2H2.9V10.5z M5.8,4.7V9H4.4V4.7H5.8z M7.9,10.5h4.5V3.2H7.9V10.5z M10.8,4.7V9H9.4V4.7H10.8z M0,0v13.7h2.7
		v1.2h6.1v-1.2h0.9v1.2h6.1v-1.2h0.9v1.2h6.1v-1.2h2.6V0H0z M23.3,2.1v9.6H2V2.1H23.3z"/>
</g>
</svg>
