<?xml version="1.0" encoding="utf-8"?>
<!-- Generator: Adobe Illustrator 26.4.1, SVG Export Plug-In . SVG Version: 6.00 Build 0)  -->
<svg version="1.1" id="Layer_1" xmlns="http://www.w3.org/2000/svg" xmlns:xlink="http://www.w3.org/1999/xlink" x="0px" y="0px"
	 viewBox="0 0 17.6 24.1" style="enable-background:new 0 0 17.6 24.1;" xml:space="preserve">
<style type="text/css">
	.st0{fill:url(#SVGID_1_);}
</style>
<g id="Layer_1_00000118378591326881993910000011202969626135369632_">
	
		<linearGradient id="SVGID_1_" gradientUnits="userSpaceOnUse" x1="1.3091" y1="8.6656" x2="16.3068" y2="23.6733" gradientTransform="matrix(1 0 0 -1 0 27.66)">
		<stop  offset="0.1" style="stop-color:#2814FF;stop-opacity:0.9"/>
		<stop  offset="0.15" style="stop-color:#2326FF;stop-opacity:0.91"/>
		<stop  offset="0.3" style="stop-color:#145CFF;stop-opacity:0.95"/>
		<stop  offset="0.44" style="stop-color:#0983FF;stop-opacity:0.98"/>
		<stop  offset="0.54" style="stop-color:#029BFF;stop-opacity:0.99"/>
		<stop  offset="0.61" style="stop-color:#00A4FF"/>
		<stop  offset="0.66" style="stop-color:#00ACCE"/>
		<stop  offset="0.72" style="stop-color:#00B590"/>
		<stop  offset="0.79" style="stop-color:#00BD5D"/>
		<stop  offset="0.84" style="stop-color:#00C434"/>
		<stop  offset="0.9" style="stop-color:#00C818"/>
		<stop  offset="0.95" style="stop-color:#00CB06"/>
		<stop  offset="0.98" style="stop-color:#00CC00"/>
	</linearGradient>
	<path class="st0" d="M17.5,10.5c0.3-1.7,0.1-3.4-0.5-5.1c-0.7-2.3-2.9-3.2-3.9-3.6c-0.5-0.2-0.9-0.4-1.3-0.7C11,0.5,9.9,0.1,8.9,0
		C7.7,0.1,6.6,0.5,5.8,1.2C5.4,1.5,5,1.7,4.6,1.9C2.8,2.4,1.3,3.7,0.7,5.5C0,7.5-0.5,10.2,0.9,12.7c0.3,6.5,3.7,11.4,7.9,11.4
		c3.5,0,6.4-3.5,7.5-8.3c0.8-1.2,1.2-2.7,1.2-4.1L17.5,10.5z M3.4,7.3L3.4,7.3L3.4,7.3c0.2,0.2,0.3,0.3,0.4,0.4
		c0.5,0.8,1.4,1.2,2.4,1.3c1.3,0,2.6-0.3,3.9-0.8c0.6-0.2,1.3-0.4,2.1-0.6l0.4-0.1c0.5-0.2,1-0.2,1.5-0.2c0.5,1.5,0.7,3.1,0.7,4.7
		c0,1.1-0.1,2.1-0.3,3.2c-0.9,1.3-2.2,2.1-3.7,2.5c-0.3-0.4-0.9-0.7-1.4-0.7c-1,0-1.8,0.8-1.8,1.8c0,1,0.8,1.8,1.8,1.8
		c0.7,0,1.3-0.4,1.6-1c0.8-0.1,1.5-0.4,2.2-0.7c-1.1,2.1-2.7,3.4-4.4,3.4c-3.3,0-6-4.7-6-10.2C2.8,10.3,3,8.7,3.4,7.3z"/>
</g>
</svg>
