<?xml version="1.0" encoding="utf-8"?>
<!-- Generator: Adobe Illustrator 26.4.1, SVG Export Plug-In . SVG Version: 6.00 Build 0)  -->
<svg version="1.1" id="Layer_1" xmlns="http://www.w3.org/2000/svg" xmlns:xlink="http://www.w3.org/1999/xlink" x="0px" y="0px"
	 viewBox="0 0 18.7 25.2" style="enable-background:new 0 0 18.7 25.2;" xml:space="preserve">
<style type="text/css">
	.st0{fill:url(#SVGID_1_);}
</style>
<g id="Layer_1_00000114792790763975210710000004973129932999667341_">
	
		<linearGradient id="SVGID_1_" gradientUnits="userSpaceOnUse" x1="1.0881" y1="7.082" x2="17.5219" y2="23.5159" gradientTransform="matrix(1 0 0 -1 0 29.1)">
		<stop  offset="0.1" style="stop-color:#2814FF"/>
		<stop  offset="0.14" style="stop-color:#2324FF"/>
		<stop  offset="0.3" style="stop-color:#145BFF"/>
		<stop  offset="0.43" style="stop-color:#0983FF"/>
		<stop  offset="0.54" style="stop-color:#029BFF"/>
		<stop  offset="0.61" style="stop-color:#00A4FF"/>
		<stop  offset="0.66" style="stop-color:#00ACCE"/>
		<stop  offset="0.72" style="stop-color:#00B590"/>
		<stop  offset="0.79" style="stop-color:#00BD5D"/>
		<stop  offset="0.84" style="stop-color:#00C434"/>
		<stop  offset="0.9" style="stop-color:#00C818"/>
		<stop  offset="0.95" style="stop-color:#00CB06"/>
		<stop  offset="0.98" style="stop-color:#00CC00"/>
	</linearGradient>
	<path class="st0" d="M6.3,23.8c0,0.8-0.6,1.4-1.4,1.4s-1.4-0.6-1.4-1.4c0-0.8,0.6-1.4,1.4-1.4l0,0C5.7,22.4,6.3,23.1,6.3,23.8z
		 M9.3,22.4c-0.8,0-1.4,0.6-1.4,1.4c0,0.8,0.6,1.4,1.4,1.4c0.8,0,1.4-0.6,1.4-1.4C10.7,23.1,10.1,22.4,9.3,22.4
		C9.3,22.4,9.3,22.4,9.3,22.4L9.3,22.4z M13.7,22.4c-0.8,0-1.4,0.6-1.4,1.4c0,0.8,0.6,1.4,1.4,1.4s1.4-0.6,1.4-1.4l0,0
		C15.1,23.1,14.5,22.4,13.7,22.4C13.7,22.4,13.7,22.4,13.7,22.4L13.7,22.4z M18.7,8.6v2h-1.9v6h-6.4v2.3h4.8v1.9H3.6v-1.9h4.9v-2.3
		H2v-6H0v-2h3V6.3C3,2.8,5.8,0,9.3,0s6.3,2.8,6.3,6.3v2.3L18.7,8.6z M13.7,11.4V6.3c0.1-2.4-1.8-4.5-4.2-4.6C7.1,1.6,5,3.5,4.9,5.9
		c0,0.1,0,0.3,0,0.4v5.1L13.7,11.4z M14.8,14.6v-1.3H3.9v1.3H14.8z"/>
</g>
</svg>
