<?xml version="1.0" encoding="utf-8"?>
<!-- Generator: Adobe Illustrator 26.4.1, SVG Export Plug-In . SVG Version: 6.00 Build 0)  -->
<svg version="1.1" id="Layer_1" xmlns="http://www.w3.org/2000/svg" xmlns:xlink="http://www.w3.org/1999/xlink" x="0px" y="0px"
	 viewBox="0 0 30.5 22" style="enable-background:new 0 0 30.5 22;" xml:space="preserve">
<style type="text/css">
	.st0{fill:url(#SVGID_1_);}
</style>
<linearGradient id="SVGID_1_" gradientUnits="userSpaceOnUse" x1="3.4" y1="0.6" x2="26.8946" y2="24.0946" gradientTransform="matrix(1 0 0 -1 0 24.8)">
	<stop  offset="0.1" style="stop-color:#2814FF"/>
	<stop  offset="0.1435" style="stop-color:#2324FF"/>
	<stop  offset="0.2998" style="stop-color:#145BFF"/>
	<stop  offset="0.4347" style="stop-color:#0983FF"/>
	<stop  offset="0.5417" style="stop-color:#029BFF"/>
	<stop  offset="0.6072" style="stop-color:#00A4FF"/>
	<stop  offset="0.6551" style="stop-color:#00ACCE"/>
	<stop  offset="0.7216" style="stop-color:#00B590"/>
	<stop  offset="0.7855" style="stop-color:#00BD5D"/>
	<stop  offset="0.8449" style="stop-color:#00C434"/>
	<stop  offset="0.8989" style="stop-color:#00C818"/>
	<stop  offset="0.9457" style="stop-color:#00CB06"/>
	<stop  offset="0.98" style="stop-color:#00CC00"/>
</linearGradient>
<path class="st0" d="M25.9,14.9l-4.7-0.8v7.1l4.6,0.8l0,0l4.7-0.8v-7.1L25.9,14.9z M29.3,15.5v4.6l-2.8,0.5V16L29.3,15.5z
	 M22.4,20.1v-4.6l2.8,0.5v4.6L22.4,20.1z M0,20.8h20.2v-2.5H0V20.8z M3.5,0v16.7h16.8v-2.2H5.7V2.2h18.4v11.5l1.2,0.2l1-0.2V0H3.5z
	 M8.4,10.4H7.3V6.6h1.1V10.4z M15.4,6.5h-1.1v3.9h1.1V6.5z M22.4,6.5h-1.1v3.9h1.1V6.5z M13.6,8.4c0-1.2-1-2.3-2.3-2.3S9,7.1,9,8.4
	c0,1.2,1,2.3,2.3,2.3C12.6,10.7,13.6,9.7,13.6,8.4z M12.5,8.4c0,0.6-0.5,1.2-1.2,1.2c-0.6,0-1.2-0.5-1.2-1.2c0-0.6,0.5-1.2,1.2-1.2
	C12,7.3,12.5,7.8,12.5,8.4z M20.7,8.4c0-1.2-1-2.3-2.3-2.3c-1.2,0-2.3,1-2.3,2.3c0,1.2,1,2.3,2.3,2.3C19.6,10.7,20.7,9.7,20.7,8.4z
	 M19.6,8.4c0,0.6-0.5,1.2-1.2,1.2c-0.6,0-1.2-0.5-1.2-1.2c0-0.6,0.5-1.2,1.2-1.2C19,7.3,19.6,7.8,19.6,8.4z"/>
</svg>
