<?xml version="1.0" encoding="utf-8"?>
<!-- Generator: Adobe Illustrator 26.4.1, SVG Export Plug-In . SVG Version: 6.00 Build 0)  -->
<svg version="1.1" id="Layer_1" xmlns="http://www.w3.org/2000/svg" xmlns:xlink="http://www.w3.org/1999/xlink" x="0px" y="0px"
	 viewBox="0 0 25 26" style="enable-background:new 0 0 25 26;" xml:space="preserve">
<style type="text/css">
	.st0{fill:url(#SVGID_1_);}
</style>
<g id="Layer_1_00000094618124859028951210000011438659010893495482_">
	
		<linearGradient id="SVGID_1_" gradientUnits="userSpaceOnUse" x1="-0.2602" y1="3.6703" x2="23.1893" y2="27.1097" gradientTransform="matrix(1 0 0 -1 0 29.4)">
		<stop  offset="0.1" style="stop-color:#2814FF;stop-opacity:0.9"/>
		<stop  offset="0.15" style="stop-color:#2326FF;stop-opacity:0.91"/>
		<stop  offset="0.3" style="stop-color:#145CFF;stop-opacity:0.95"/>
		<stop  offset="0.44" style="stop-color:#0983FF;stop-opacity:0.98"/>
		<stop  offset="0.54" style="stop-color:#029BFF;stop-opacity:0.99"/>
		<stop  offset="0.61" style="stop-color:#00A4FF"/>
		<stop  offset="0.66" style="stop-color:#00ACCE"/>
		<stop  offset="0.72" style="stop-color:#00B590"/>
		<stop  offset="0.79" style="stop-color:#00BD5D"/>
		<stop  offset="0.84" style="stop-color:#00C434"/>
		<stop  offset="0.9" style="stop-color:#00C818"/>
		<stop  offset="0.95" style="stop-color:#00CB06"/>
		<stop  offset="0.98" style="stop-color:#00CC00"/>
	</linearGradient>
	<path class="st0" d="M20.9,0H8.1v4.2H0V26h16.9v-4.3H25V4.1L20.9,0z M14.9,23.9H2.1V6.4h5.9V10H4.3v1.7h3.7v3.5H6.6l1.1-1.1
		l-1.2-1.2L3.4,16l3.1,3.2L7.7,18l-1.1-1.1h1.5v4.8h6.8L14.9,23.9z M22.9,19.5H10.2v-2.7H14v-1.7h-3.7v-3.5h1.4l-1.1,1.1l1.2,1.2
		l3.1-3.1l-3.1-3.2l-1.2,1.2l1.1,1.1h-1.4V2.2h9.1v3.4h3.4L22.9,19.5z"/>
</g>
</svg>
