<?xml version="1.0" encoding="utf-8"?>
<!-- Generator: Adobe Illustrator 26.4.1, SVG Export Plug-In . SVG Version: 6.00 Build 0)  -->
<svg version="1.1" id="Layer_1" xmlns="http://www.w3.org/2000/svg" xmlns:xlink="http://www.w3.org/1999/xlink" x="0px" y="0px"
	 viewBox="0 0 22.2 29.4" style="enable-background:new 0 0 22.2 29.4;" xml:space="preserve">
<style type="text/css">
	.st0{fill:url(#SVGID_1_);}
</style>
<g id="Layer_1_00000152969020640540530170000002616011928056023188_">
	
		<linearGradient id="SVGID_1_" gradientUnits="userSpaceOnUse" x1="-1.13" y1="3.38" x2="23.34" y2="27.85" gradientTransform="matrix(1 0 0 -1 0 31.7)">
		<stop  offset="0.1" style="stop-color:#2814FF;stop-opacity:0.9"/>
		<stop  offset="0.15" style="stop-color:#2326FF;stop-opacity:0.91"/>
		<stop  offset="0.3" style="stop-color:#145CFF;stop-opacity:0.95"/>
		<stop  offset="0.44" style="stop-color:#0983FF;stop-opacity:0.98"/>
		<stop  offset="0.54" style="stop-color:#029BFF;stop-opacity:0.99"/>
		<stop  offset="0.61" style="stop-color:#00A4FF"/>
		<stop  offset="0.66" style="stop-color:#00ACCE"/>
		<stop  offset="0.72" style="stop-color:#00B590"/>
		<stop  offset="0.79" style="stop-color:#00BD5D"/>
		<stop  offset="0.84" style="stop-color:#00C434"/>
		<stop  offset="0.9" style="stop-color:#00C818"/>
		<stop  offset="0.95" style="stop-color:#00CB06"/>
		<stop  offset="0.98" style="stop-color:#00CC00"/>
	</linearGradient>
	<path class="st0" d="M16.4,27.1V15.7h3.1V0H2.7v15.7h3v11.5H0v2.3h22.2v-2.3H16.4z M14.1,15.7V27H8.1V15.7L14.1,15.7z M17.1,2.3
		v11.1H5V2.3L17.1,2.3z M15.6,3.6h-9v7.1h9V3.6z M8.5,8.9V5.5h5.3v3.4H8.5z M7.8,11.3h1.4v1.4H7.8V11.3z M14.4,11.3v1.4H13v-1.4
		L14.4,11.3z M10.4,11.3h1.4v1.4h-1.4L10.4,11.3z"/>
</g>
</svg>
