<?xml version="1.0" encoding="utf-8"?>
<!-- Generator: Adobe Illustrator 26.4.1, SVG Export Plug-In . SVG Version: 6.00 Build 0)  -->
<svg version="1.1" id="Layer_1" xmlns="http://www.w3.org/2000/svg" xmlns:xlink="http://www.w3.org/1999/xlink" x="0px" y="0px"
	 viewBox="0 0 28.9 20.5" style="enable-background:new 0 0 28.9 20.5;" xml:space="preserve">
<style type="text/css">
	.st0{fill-rule:evenodd;clip-rule:evenodd;fill:url(#SVGID_1_);}
</style>
<g id="Layer_1_00000102511935010947458390000005790172130768602022_">
	
		<linearGradient id="SVGID_1_" gradientUnits="userSpaceOnUse" x1="2.1021" y1="0.1371" x2="26.8379" y2="24.8629" gradientTransform="matrix(1 0 0 -1 0 22.76)">
		<stop  offset="0.1" style="stop-color:#2814FF;stop-opacity:0.9"/>
		<stop  offset="0.15" style="stop-color:#2326FF;stop-opacity:0.91"/>
		<stop  offset="0.3" style="stop-color:#145CFF;stop-opacity:0.95"/>
		<stop  offset="0.44" style="stop-color:#0983FF;stop-opacity:0.98"/>
		<stop  offset="0.54" style="stop-color:#029BFF;stop-opacity:0.99"/>
		<stop  offset="0.61" style="stop-color:#00A4FF"/>
		<stop  offset="0.66" style="stop-color:#00ACCE"/>
		<stop  offset="0.72" style="stop-color:#00B590"/>
		<stop  offset="0.79" style="stop-color:#00BD5D"/>
		<stop  offset="0.84" style="stop-color:#00C434"/>
		<stop  offset="0.9" style="stop-color:#00C818"/>
		<stop  offset="0.95" style="stop-color:#00CB06"/>
		<stop  offset="0.98" style="stop-color:#00CC00"/>
	</linearGradient>
	<path class="st0" d="M4.1,12.9L3,7.5l7.6-1.4l1.2,5.3L4.1,12.9L4.1,12.9z M4.1,8.3l0.8,3.5l5.8-1.1L9.9,7.1L4.2,8.2L4.1,8.3z
		 M9,8.4L8.9,7.9l-4,0.8L5,9.1L9,8.4z M9.2,9.3L9.1,8.8l-4,0.8l0.1,0.5L9.2,9.3z M16.3,0H0v20.5h28.9V0L16.3,0z M16.3,11.2V2.4h10.2
		v15.7H2.4V2.4h10.2v8.8L16.3,11.2z"/>
</g>
</svg>
