<?xml version="1.0" encoding="utf-8"?>
<!-- Generator: Adobe Illustrator 26.4.1, SVG Export Plug-In . SVG Version: 6.00 Build 0)  -->
<svg version="1.1" id="Layer_1" xmlns="http://www.w3.org/2000/svg" xmlns:xlink="http://www.w3.org/1999/xlink" x="0px" y="0px"
	 viewBox="0 0 30.5 21.9" style="enable-background:new 0 0 30.5 21.9;" xml:space="preserve">
<style type="text/css">
	.st0{fill:url(#SVGID_1_);}
</style>
<g id="Layer_1_00000106863753454902615870000016121677634202082480_">
	
		<linearGradient id="SVGID_1_" gradientUnits="userSpaceOnUse" x1="3.3639" y1="5.467806e-02" x2="26.8545" y2="23.5353" gradientTransform="matrix(1 0 0 -1 0 24.2)">
		<stop  offset="0.1" style="stop-color:#2814FF;stop-opacity:0.9"/>
		<stop  offset="0.15" style="stop-color:#2326FF;stop-opacity:0.91"/>
		<stop  offset="0.3" style="stop-color:#145CFF;stop-opacity:0.95"/>
		<stop  offset="0.44" style="stop-color:#0983FF;stop-opacity:0.98"/>
		<stop  offset="0.54" style="stop-color:#029BFF;stop-opacity:0.99"/>
		<stop  offset="0.61" style="stop-color:#00A4FF"/>
		<stop  offset="0.66" style="stop-color:#00ACCE"/>
		<stop  offset="0.72" style="stop-color:#00B590"/>
		<stop  offset="0.79" style="stop-color:#00BD5D"/>
		<stop  offset="0.84" style="stop-color:#00C434"/>
		<stop  offset="0.9" style="stop-color:#00C818"/>
		<stop  offset="0.95" style="stop-color:#00CB06"/>
		<stop  offset="0.98" style="stop-color:#00CC00"/>
	</linearGradient>
	<path class="st0" d="M8.6,6.5h3.1v4h-0.7v-0.3H9.3v0.3H8.6V6.5z M11.1,7.2H9.3V8h1.8V7.2z M9.3,9.5h1.8V8.7H9.3V9.5z M16.5,7.8
		h-1.3c0.3,0.6,0.8,1.2,1.4,1.5c-0.2,0.2-0.4,0.4-0.5,0.6c-0.3-0.2-0.5-0.4-0.7-0.6v0.5h-0.7v0.7h-0.7V9.8h-0.7V9.4
		c-0.2,0.2-0.4,0.4-0.6,0.5c-0.1-0.2-0.3-0.4-0.5-0.5c0.6-0.4,1.1-0.9,1.5-1.6h-1.2V7.1h1.6V6.3h0.8c0,0,0,0.1-0.1,0.1v0.7h1.7V7.8z
		 M14.1,8.4c-0.2,0.3-0.3,0.5-0.5,0.8h0.5V8.4z M14.8,9.1h0.5c-0.2-0.2-0.4-0.5-0.5-0.8V9.1z M18.5,7v0.5h-1.7V7H18.5z M18.4,9v1.4
		h-0.8v0.2H17V9H18.4z M18.4,7.7v0.5H17V7.7H18.4z M17,8.8V8.3h1.3v0.5H17z M18.3,6.4v0.5H17V6.4H18.3z M17.8,9.5h-0.3v0.4h0.3V9.5z
		 M20.7,8.1h0.4v0.6h-2.6V8.1H19L19,7.8h-0.3V7.2h0.4V7h-0.5V6.4h2.3V7h-1.1v0.2h0.9L20.7,8.1z M18.8,10.6V8.8h2v1.7h-0.6v-0.1h-0.8
		v0.1L18.8,10.6z M20.1,9.4h-0.8v0.4h0.8V9.4z M20.1,7.8h-0.5c0,0.1,0,0.2-0.1,0.4H20L20.1,7.8z M25.8,14.9l-4.7-0.8v7l4.6,0.8l0,0
		l4.8-0.8V14L25.8,14.9z M29.3,15.5v4.6l-2.8,0.5V16L29.3,15.5z M22.4,20.1v-4.6l2.8,0.5v4.6L22.4,20.1z M0,20.8h20.2v-2.5H0L0,20.8
		z M3.4,0v16.7h16.8v-2.2H5.6V2.2H24v11.5l1.2,0.2l1-0.2V0H3.4z"/>
</g>
</svg>
