<?xml version="1.0" encoding="utf-8"?>
<!-- Generator: Adobe Illustrator 26.4.1, SVG Export Plug-In . SVG Version: 6.00 Build 0)  -->
<svg version="1.1" id="Layer_1" xmlns="http://www.w3.org/2000/svg" xmlns:xlink="http://www.w3.org/1999/xlink" x="0px" y="0px"
	 viewBox="0 0 26.6 23" style="enable-background:new 0 0 26.6 23;" xml:space="preserve">
<style type="text/css">
	.st0{fill:url(#SVGID_1_);}
</style>
<g id="Layer_1_00000112608410137889981270000012060123459022808238_">
	
		<linearGradient id="SVGID_1_" gradientUnits="userSpaceOnUse" x1="1.8596" y1="7.7796" x2="24.7104" y2="30.6204" gradientTransform="matrix(1 0 0 -1 0 28.76)">
		<stop  offset="0.1" style="stop-color:#2814FF;stop-opacity:0.9"/>
		<stop  offset="0.15" style="stop-color:#2326FF;stop-opacity:0.91"/>
		<stop  offset="0.3" style="stop-color:#145CFF;stop-opacity:0.95"/>
		<stop  offset="0.44" style="stop-color:#0983FF;stop-opacity:0.98"/>
		<stop  offset="0.54" style="stop-color:#029BFF;stop-opacity:0.99"/>
		<stop  offset="0.61" style="stop-color:#00A4FF"/>
		<stop  offset="0.66" style="stop-color:#00ACCE"/>
		<stop  offset="0.72" style="stop-color:#00B590"/>
		<stop  offset="0.79" style="stop-color:#00BD5D"/>
		<stop  offset="0.84" style="stop-color:#00C434"/>
		<stop  offset="0.9" style="stop-color:#00C818"/>
		<stop  offset="0.95" style="stop-color:#00CB06"/>
		<stop  offset="0.98" style="stop-color:#00CC00"/>
	</linearGradient>
	<path class="st0" d="M26.6,19.1V0H0v19.1h8.5v1.4H6.2V23h14.2v-2.5h-2.3v-1.4H26.6z M24.2,2.4v14.4H2.3V2.4H24.2z M22.8,9H3.8V7.8
		h19.1V9L22.8,9z M22.8,10H3.8v1.2h19.1V10L22.8,10z M19.3,13.4H3.8v-1.1h15.6V13.4z M19.3,14.4H3.8v1.2h15.6V14.4L19.3,14.4z
		 M22.8,4.6H3.8V3.5h19.1V4.6L22.8,4.6z M22.8,5.6H3.8v1.2h19.1V5.6L22.8,5.6z"/>
</g>
</svg>
