<?xml version="1.0" encoding="utf-8"?>
<!-- Generator: Adobe Illustrator 26.4.1, SVG Export Plug-In . SVG Version: 6.00 Build 0)  -->
<svg version="1.1" id="Layer_1" xmlns="http://www.w3.org/2000/svg" xmlns:xlink="http://www.w3.org/1999/xlink" x="0px" y="0px"
	 viewBox="0 0 30 24.4" style="enable-background:new 0 0 30 24.4;" xml:space="preserve">
<style type="text/css">
	.st0{fill:url(#SVGID_1_);}
</style>
<g id="Layer_1_00000173150209620593657520000016489757622311637415_">
	
		<linearGradient id="SVGID_1_" gradientUnits="userSpaceOnUse" x1="1.9954" y1="2.4443" x2="27.9796" y2="28.4385" gradientTransform="matrix(1 0 0 -1 0 26.6778)">
		<stop  offset="0.1" style="stop-color:#2814FF;stop-opacity:0.9"/>
		<stop  offset="0.15" style="stop-color:#2326FF;stop-opacity:0.91"/>
		<stop  offset="0.3" style="stop-color:#145CFF;stop-opacity:0.95"/>
		<stop  offset="0.44" style="stop-color:#0983FF;stop-opacity:0.98"/>
		<stop  offset="0.54" style="stop-color:#029BFF;stop-opacity:0.99"/>
		<stop  offset="0.61" style="stop-color:#00A4FF"/>
		<stop  offset="0.66" style="stop-color:#00ACCE"/>
		<stop  offset="0.72" style="stop-color:#00B590"/>
		<stop  offset="0.79" style="stop-color:#00BD5D"/>
		<stop  offset="0.84" style="stop-color:#00C434"/>
		<stop  offset="0.9" style="stop-color:#00C818"/>
		<stop  offset="0.95" style="stop-color:#00CB06"/>
		<stop  offset="0.98" style="stop-color:#00CC00"/>
	</linearGradient>
	<path class="st0" d="M28.9,0.1L28.9,0.1C23.5-0.3,18.7,0.5,15,2.3C10.6,0.4,5.9-0.3,1.2,0.1L0,0.2v22l1.2-0.1
		c4.5-0.1,8.9,0.7,13.1,2.1l0.4,0.1h0.5l0.4-0.1c4.2-1.4,8.6-2.2,13.1-2.1l1.3,0.1v-22L28.9,0.1z M27.5,2.5v17.2
		c-3.8,0.1-7.7,0.7-11.3,1.8V4.4C19.8,2.8,23.7,2.2,27.5,2.5z M13.8,4.4v17.1c-3.7-1.1-7.5-1.7-11.4-1.8V2.5
		C6.3,2.2,10.2,2.8,13.8,4.4z"/>
</g>
</svg>
