<?xml version="1.0" encoding="utf-8"?>
<!-- Generator: Adobe Illustrator 26.4.1, SVG Export Plug-In . SVG Version: 6.00 Build 0)  -->
<svg version="1.1" id="Layer_1" xmlns="http://www.w3.org/2000/svg" xmlns:xlink="http://www.w3.org/1999/xlink" x="0px" y="0px"
	 viewBox="0 0 29.2 16.2" style="enable-background:new 0 0 29.2 16.2;" xml:space="preserve">
<style type="text/css">
	.st0{fill:url(#SVGID_1_);}
</style>
<g id="Layer_1_00000058572025668636529800000001062860633634951810_">
	
		<linearGradient id="SVGID_1_" gradientUnits="userSpaceOnUse" x1="4.0679" y1="2.0221" x2="22.3279" y2="20.2921" gradientTransform="matrix(1 0 0 -1 0 19.02)">
		<stop  offset="0.1" style="stop-color:#2814FF"/>
		<stop  offset="0.14" style="stop-color:#2324FF"/>
		<stop  offset="0.3" style="stop-color:#145BFF"/>
		<stop  offset="0.43" style="stop-color:#0983FF"/>
		<stop  offset="0.54" style="stop-color:#029BFF"/>
		<stop  offset="0.61" style="stop-color:#00A4FF"/>
		<stop  offset="0.66" style="stop-color:#00ACCE"/>
		<stop  offset="0.72" style="stop-color:#00B590"/>
		<stop  offset="0.79" style="stop-color:#00BD5D"/>
		<stop  offset="0.84" style="stop-color:#00C434"/>
		<stop  offset="0.9" style="stop-color:#00C818"/>
		<stop  offset="0.95" style="stop-color:#00CB06"/>
		<stop  offset="0.98" style="stop-color:#00CC00"/>
	</linearGradient>
	<path class="st0" d="M29.2,7l-3.9-2l-1.8-5H0v12.9h3.2c0,0,0,0.1,0,0.1c0.1,1.8,1.5,3.2,3.3,3.2c1.8,0,3.2-1.4,3.2-3.2
		c0,0,0-0.1,0-0.1h9.9c0,0,0,0.1,0,0.1c0,1.8,1.4,3.2,3.2,3.2c1.7,0,3.2-1.4,3.2-3.2c0,0,0-0.1,0-0.1h3.2V7z M18.6,1.8h3.7l1,3.1
		h-4.7V1.8z M6.5,14.3c-0.8,0-1.4-0.6-1.4-1.3c0,0,0,0,0,0c0-0.8,0.6-1.4,1.3-1.4c0,0,0,0,0.1,0c0.8,0,1.3,0.7,1.3,1.4c0,0,0,0,0,0
		C7.8,13.7,7.2,14.3,6.5,14.3z M16.8,11.1H9.1c-0.6-0.9-1.6-1.4-2.6-1.4c-1.1,0-2,0.5-2.7,1.4h-2V1.8h15L16.8,11.1z M22.8,14.3
		c-0.8,0-1.4-0.6-1.4-1.4s0.6-1.4,1.4-1.4c0.8,0,1.4,0.6,1.4,1.4c0,0,0,0,0,0C24.1,13.7,23.5,14.3,22.8,14.3L22.8,14.3z M27.4,11.1
		h-2c-0.6-0.9-1.6-1.4-2.7-1.4c-1,0-2,0.5-2.6,1.4h-1.6V6.6h6l2.8,1.5L27.4,11.1z"/>
</g>
</svg>
