<?xml version="1.0" encoding="utf-8"?>
<!-- Generator: Adobe Illustrator 26.4.1, SVG Export Plug-In . SVG Version: 6.00 Build 0)  -->
<svg version="1.1" id="Layer_1" xmlns="http://www.w3.org/2000/svg" xmlns:xlink="http://www.w3.org/1999/xlink" x="0px" y="0px"
	 viewBox="0 0 26.8 15.4" style="enable-background:new 0 0 26.8 15.4;" xml:space="preserve">
<style type="text/css">
	.st0{opacity:0.3;}
	.st1{fill:url(#SVGID_1_);}
	.st2{fill:url(#SVGID_00000000224958975083069760000000539385987231197597_);}
</style>
<g>
	<g class="st0">
		
			<linearGradient id="SVGID_1_" gradientUnits="userSpaceOnUse" x1="23.6386" y1="16.65" x2="23.7478" y2="16.65" gradientTransform="matrix(1 0 0 -1 0 18.2)">
			<stop  offset="0.1" style="stop-color:#2814FF"/>
			<stop  offset="0.1435" style="stop-color:#2324FF"/>
			<stop  offset="0.2998" style="stop-color:#145BFF"/>
			<stop  offset="0.4347" style="stop-color:#0983FF"/>
			<stop  offset="0.5417" style="stop-color:#029BFF"/>
			<stop  offset="0.6072" style="stop-color:#00A4FF"/>
			<stop  offset="0.6551" style="stop-color:#00ACCE"/>
			<stop  offset="0.7216" style="stop-color:#00B590"/>
			<stop  offset="0.7855" style="stop-color:#00BD5D"/>
			<stop  offset="0.8449" style="stop-color:#00C434"/>
			<stop  offset="0.8989" style="stop-color:#00C818"/>
			<stop  offset="0.9457" style="stop-color:#00CB06"/>
			<stop  offset="0.98" style="stop-color:#00CC00"/>
		</linearGradient>
		<polygon class="st1" points="23.7,1.5 23.6,1.5 23.7,1.6 		"/>
	</g>
	
		<linearGradient id="SVGID_00000060731638612856259050000001940408413195987604_" gradientUnits="userSpaceOnUse" x1="4.6057" y1="2.3682" x2="21.7112" y2="19.4737" gradientTransform="matrix(1 0 0 -1 0 18.2)">
		<stop  offset="0.1" style="stop-color:#2814FF"/>
		<stop  offset="0.1435" style="stop-color:#2324FF"/>
		<stop  offset="0.2998" style="stop-color:#145BFF"/>
		<stop  offset="0.4347" style="stop-color:#0983FF"/>
		<stop  offset="0.5417" style="stop-color:#029BFF"/>
		<stop  offset="0.6072" style="stop-color:#00A4FF"/>
		<stop  offset="0.6551" style="stop-color:#00ACCE"/>
		<stop  offset="0.7216" style="stop-color:#00B590"/>
		<stop  offset="0.7855" style="stop-color:#00BD5D"/>
		<stop  offset="0.8449" style="stop-color:#00C434"/>
		<stop  offset="0.8989" style="stop-color:#00C818"/>
		<stop  offset="0.9457" style="stop-color:#00CB06"/>
		<stop  offset="0.98" style="stop-color:#00CC00"/>
	</linearGradient>
	<path style="fill:url(#SVGID_00000060731638612856259050000001940408413195987604_);" d="M25,3.8L24,1h-4.5V0H1.4v7.9H0v2.2h1.4
		v0.7h16.1h2h7.3V4.6L25,3.8z M17.4,8.7h-14V2h14V8.7z M24.8,8.7h-5.3V3.1h3.1l0.8,2.3L24.8,6V8.7z M10.4,10.8c-1.3,0-2.3,1-2.3,2.3
		s1,2.3,2.3,2.3s2.3-1,2.3-2.3S11.7,10.8,10.4,10.8z M11.3,13.1c0,0.5-0.4,0.9-0.9,0.9s-0.9-0.4-0.9-0.9s0.4-0.9,0.9-0.9
		S11.3,12.6,11.3,13.1z M23.1,10.8c-1.3,0-2.3,1-2.3,2.3s1,2.3,2.3,2.3s2.3-1,2.3-2.3S24.4,10.8,23.1,10.8z M24,13.1
		c0,0.5-0.4,0.9-0.9,0.9s-0.9-0.4-0.9-0.9s0.4-0.9,0.9-0.9S24,12.6,24,13.1z M7.4,13.1c0,1.3-1,2.3-2.3,2.3s-2.3-1-2.3-2.3
		s1-2.3,2.3-2.3S7.4,11.8,7.4,13.1z M5.1,12.2c-0.5,0-0.9,0.4-0.9,0.9S4.6,14,5.1,14S6,13.6,6,13.1S5.6,12.2,5.1,12.2z"/>
</g>
</svg>
