<?xml version="1.0" encoding="utf-8"?>
<!-- Generator: Adobe Illustrator 26.4.1, SVG Export Plug-In . SVG Version: 6.00 Build 0)  -->
<svg version="1.1" id="Layer_1" xmlns="http://www.w3.org/2000/svg" xmlns:xlink="http://www.w3.org/1999/xlink" x="0px" y="0px"
	 viewBox="0 0 26.8 26.8" style="enable-background:new 0 0 26.8 26.8;" xml:space="preserve">
<style type="text/css">
	.st0{fill:url(#SVGID_1_);}
	.st1{fill:url(#SVGID_00000070078913740551127460000005867637314107145143_);}
</style>
<g id="Layer_1_00000110456418947434377820000016362439141228676787_">
	
		<linearGradient id="SVGID_1_" gradientUnits="userSpaceOnUse" x1="9.1165" y1="13.4505" x2="17.5975" y2="21.9415" gradientTransform="matrix(1 0 0 -1 0 29.36)">
		<stop  offset="0.1" style="stop-color:#2814FF"/>
		<stop  offset="0.14" style="stop-color:#2324FF"/>
		<stop  offset="0.3" style="stop-color:#145BFF"/>
		<stop  offset="0.43" style="stop-color:#0983FF"/>
		<stop  offset="0.54" style="stop-color:#029BFF"/>
		<stop  offset="0.61" style="stop-color:#00A4FF"/>
		<stop  offset="0.66" style="stop-color:#00ACCE"/>
		<stop  offset="0.72" style="stop-color:#00B590"/>
		<stop  offset="0.79" style="stop-color:#00BD5D"/>
		<stop  offset="0.84" style="stop-color:#00C434"/>
		<stop  offset="0.9" style="stop-color:#00C818"/>
		<stop  offset="0.95" style="stop-color:#00CB06"/>
		<stop  offset="0.98" style="stop-color:#00CC00"/>
	</linearGradient>
	<polygon class="st0" points="11.7,15.1 8.3,11.7 8.3,11.6 6.8,13.3 11.6,18.4 11.7,18.5 19.9,10 20,10 18.5,8.3 	"/>
	
		<linearGradient id="SVGID_00000005247228668463008330000014970399886534510514_" gradientUnits="userSpaceOnUse" x1="3.9243" y1="6.4993" x2="22.8498" y2="25.4348" gradientTransform="matrix(1 0 0 -1 0 29.36)">
		<stop  offset="0.1" style="stop-color:#2814FF"/>
		<stop  offset="0.14" style="stop-color:#2324FF"/>
		<stop  offset="0.3" style="stop-color:#145BFF"/>
		<stop  offset="0.43" style="stop-color:#0983FF"/>
		<stop  offset="0.54" style="stop-color:#029BFF"/>
		<stop  offset="0.61" style="stop-color:#00A4FF"/>
		<stop  offset="0.66" style="stop-color:#00ACCE"/>
		<stop  offset="0.72" style="stop-color:#00B590"/>
		<stop  offset="0.79" style="stop-color:#00BD5D"/>
		<stop  offset="0.84" style="stop-color:#00C434"/>
		<stop  offset="0.9" style="stop-color:#00C818"/>
		<stop  offset="0.95" style="stop-color:#00CB06"/>
		<stop  offset="0.98" style="stop-color:#00CC00"/>
	</linearGradient>
	<path style="fill:url(#SVGID_00000005247228668463008330000014970399886534510514_);" d="M13.4,0C6,0,0,6,0,13.4
		c0,7.4,6,13.4,13.4,13.4c7.4,0,13.4-6,13.4-13.4C26.8,6,20.8,0,13.4,0z M13.4,24.5c-6.1,0-11.1-5-11.1-11.1s5-11.1,11.1-11.1
		s11.1,5,11.1,11.1v0C24.5,19.5,19.5,24.5,13.4,24.5z"/>
</g>
</svg>
