<?xml version="1.0" encoding="utf-8"?>
<!-- Generator: Adobe Illustrator 26.4.1, SVG Export Plug-In . SVG Version: 6.00 Build 0)  -->
<svg version="1.1" id="Layer_1" xmlns="http://www.w3.org/2000/svg" xmlns:xlink="http://www.w3.org/1999/xlink" x="0px" y="0px"
	 viewBox="0 0 27.9 17.2" style="enable-background:new 0 0 27.9 17.2;" xml:space="preserve">
<style type="text/css">
	.st0{fill:url(#SVGID_1_);}
</style>
<g id="Layer_1_00000052092576597884232690000011393998510047686544_">
	
		<linearGradient id="SVGID_1_" gradientUnits="userSpaceOnUse" x1="5.8372" y1="741.8981" x2="22.8146" y2="724.9307" gradientTransform="matrix(1 0 0 1 0 -722)">
		<stop  offset="0.1" style="stop-color:#2814FF"/>
		<stop  offset="0.14" style="stop-color:#2324FF"/>
		<stop  offset="0.3" style="stop-color:#145BFF"/>
		<stop  offset="0.43" style="stop-color:#0983FF"/>
		<stop  offset="0.54" style="stop-color:#029BFF"/>
		<stop  offset="0.61" style="stop-color:#00A4FF"/>
		<stop  offset="0.66" style="stop-color:#00ACCE"/>
		<stop  offset="0.72" style="stop-color:#00B590"/>
		<stop  offset="0.79" style="stop-color:#00BD5D"/>
		<stop  offset="0.84" style="stop-color:#00C434"/>
		<stop  offset="0.9" style="stop-color:#00C818"/>
		<stop  offset="0.95" style="stop-color:#00CB06"/>
		<stop  offset="0.98" style="stop-color:#00CC00"/>
	</linearGradient>
	<path class="st0" d="M17.2,0c-2.9-0.3-5.7,1.1-7.1,3.7H9.8H9.7H8.6l0,0C7.5,3.9,6.5,4.3,5.7,5.1C5.1,5.6,4.7,6.3,4.5,7
		C3.3,7.1,2.2,7.7,1.4,8.5C0.5,9.4,0,10.7,0,12c0,2.8,2.3,5.2,5.1,5.2c0.1,0,0.2,0,0.2,0h15.6c2,0.1,3.9-0.6,5.3-1.9
		c1.1-1.2,1.8-2.7,1.7-4.3c0.1-2.9-2-5.5-4.9-6c-0.6-1.9-2-3.4-3.8-4.2C18.8,0.3,18.1,0.1,17.2,0z M25.8,10.8c0,1-0.4,2-1.1,2.8
		c-1,0.9-2.4,1.4-3.8,1.4h-1.5V3.1c1,0.7,1.6,1.8,1.8,2.9l0.2,0.9h0.9c2,0.1,3.6,1.8,3.5,3.8V10.8L25.8,10.8z M10.8,5.9L11.4,6
		l0.4-0.8c0.9-2.2,3.1-3.5,5.5-3.1v12.8h-6.4L10.8,5.9z M8.6,14.9H5.4c-1.7,0.1-3.1-1.2-3.2-2.8c0-0.1,0-0.1,0-0.2
		c0-0.7,0.3-1.4,0.8-1.9c0.7-0.6,1.6-0.9,2.5-0.9h1.1V8c0.1-0.5,0.3-1,0.7-1.4s0.9-0.7,1.4-0.8v9.1H8.6z"/>
</g>
</svg>
