<?xml version="1.0" encoding="utf-8"?>
<!-- Generator: Adobe Illustrator 26.4.1, SVG Export Plug-In . SVG Version: 6.00 Build 0)  -->
<svg version="1.1" id="Layer_1" xmlns="http://www.w3.org/2000/svg" xmlns:xlink="http://www.w3.org/1999/xlink" x="0px" y="0px"
	 viewBox="0 0 29.5 25.5" style="enable-background:new 0 0 29.5 25.5;" xml:space="preserve">
<style type="text/css">
	.st0{fill:url(#SVGID_1_);}
</style>
<linearGradient id="SVGID_1_" gradientUnits="userSpaceOnUse" x1="2.4455" y1="4.9456" x2="27.7371" y2="30.2371" gradientTransform="matrix(1 0 0 -1 0 28.4)">
	<stop  offset="0.1" style="stop-color:#2814FF"/>
	<stop  offset="0.1435" style="stop-color:#2324FF"/>
	<stop  offset="0.2998" style="stop-color:#145BFF"/>
	<stop  offset="0.4347" style="stop-color:#0983FF"/>
	<stop  offset="0.5417" style="stop-color:#029BFF"/>
	<stop  offset="0.6072" style="stop-color:#00A4FF"/>
	<stop  offset="0.6551" style="stop-color:#00ACCE"/>
	<stop  offset="0.7216" style="stop-color:#00B590"/>
	<stop  offset="0.7855" style="stop-color:#00BD5D"/>
	<stop  offset="0.8449" style="stop-color:#00C434"/>
	<stop  offset="0.8989" style="stop-color:#00C818"/>
	<stop  offset="0.9457" style="stop-color:#00CB06"/>
	<stop  offset="0.98" style="stop-color:#00CC00"/>
</linearGradient>
<path class="st0" d="M21.6,17.3v1.8h2.1v2.1h-8.5c-1.8,3-4,4.3-7.4,4.3C3.5,25.5,0,22,0,17.7c0-3.3,2-6.1,5-7.3V0h24.5v17.3
	C29.5,17.3,21.6,17.3,21.6,17.3z M13.4,17.8c0-3.1-2.5-5.6-5.6-5.6s-5.6,2.5-5.6,5.6s2.5,5.6,5.6,5.6S13.4,20.9,13.4,17.8z
	 M27.4,15.1V2.2H7.2v7.9c0.2,0,0.4,0,0.6,0c2,0,3.9,0.8,5.3,2.1l2.7-2.7l-1.9-1.9l-1.2,1.2l-1.9-1.9l2.6-2.6
	c0.5-0.5,0.9-0.7,1.4-0.6c0.6,0,1.2,0.5,1.8,1.2l0.2,0.2l-0.2,0.1c-1,0.3-1.4,0.7-1.6,0.9l2.2,2.2L18.5,7c-0.3-0.9-0.1-1.8,0.5-2.5
	c0.9-0.9,2.4-0.9,3.3,0c0.1,0.1,0.1,0.2,0.2,0.2l0.2,0.2l-2.2,0.6l0.3,1.2L23,6.1v0.3c-0.1,0.5-0.3,1-0.7,1.4
	c-0.7,0.7-1.6,0.9-2.5,0.5l-1.3,1.3l3,3l-1.3,1.3l-3-3l-2.8,2.8L14,13.2c0.4,0.6,0.8,1.2,1,1.9H27.4z M7.8,17.5l-3.4-2.3h6.8
	L7.8,17.5z M3.9,15.6v4.3h7.8v-4.3l-3.9,2.7L3.9,15.6z"/>
</svg>
