<?xml version="1.0" encoding="utf-8"?>
<!-- Generator: Adobe Illustrator 26.4.1, SVG Export Plug-In . SVG Version: 6.00 Build 0)  -->
<svg version="1.1" id="Layer_1" xmlns="http://www.w3.org/2000/svg" xmlns:xlink="http://www.w3.org/1999/xlink" x="0px" y="0px"
	 viewBox="0 0 29.4 14.4" style="enable-background:new 0 0 29.4 14.4;" xml:space="preserve">
<style type="text/css">
	.st0{fill:url(#SVGID_1_);}
</style>
<g id="Layer_1_00000164503067021590332410000010987389916301599887_">
	
		<linearGradient id="SVGID_1_" gradientUnits="userSpaceOnUse" x1="5.4125" y1="0.3575" x2="23.0725" y2="18.0175" gradientTransform="matrix(1 0 0 -1 0 17.14)">
		<stop  offset="0.1" style="stop-color:#2814FF"/>
		<stop  offset="0.14" style="stop-color:#2324FF"/>
		<stop  offset="0.3" style="stop-color:#145BFF"/>
		<stop  offset="0.43" style="stop-color:#0983FF"/>
		<stop  offset="0.54" style="stop-color:#029BFF"/>
		<stop  offset="0.61" style="stop-color:#00A4FF"/>
		<stop  offset="0.66" style="stop-color:#00ACCE"/>
		<stop  offset="0.72" style="stop-color:#00B590"/>
		<stop  offset="0.79" style="stop-color:#00BD5D"/>
		<stop  offset="0.84" style="stop-color:#00C434"/>
		<stop  offset="0.9" style="stop-color:#00C818"/>
		<stop  offset="0.95" style="stop-color:#00CB06"/>
		<stop  offset="0.98" style="stop-color:#00CC00"/>
	</linearGradient>
	<path class="st0" d="M29.3,5.4l-7.9-2L17.9,0H3.6L0,3.9v7.5h3.7l0,0c0,1.7,1.4,3,3.1,3c1.7,0,3-1.3,3-3l0,0h9.9l0,0
		c0,1.7,1.3,3,3,3c1.7,0,3-1.3,3.1-3l0,0h3.7L29.3,5.4z M14.1,1.8h3.1l1.5,1.5h-4.6V1.8z M8.6,1.8h3.6v1.5h-5L8.6,1.8z M4.3,1.8h1.9
		L4.9,3.3H3.1L4.3,1.8z M6.7,12.6c-0.7,0-1.3-0.6-1.3-1.3S6,10,6.7,10C7.4,10,8,10.6,8,11.3c0,0,0,0,0,0C8,12,7.4,12.6,6.7,12.6
		L6.7,12.6z M22.6,12.6c-0.7,0-1.2-0.6-1.2-1.2c0-0.7,0.5-1.3,1.2-1.3c0,0,0,0,0,0c0.7,0,1.3,0.5,1.3,1.2c0,0,0,0,0,0.1
		C23.8,12,23.3,12.6,22.6,12.6C22.6,12.6,22.6,12.6,22.6,12.6z M27.6,9.5H25c-0.6-0.8-1.5-1.2-2.4-1.2c-1,0-2,0.5-2.5,1.4H9.2
		C8.7,8.8,7.8,8.3,6.8,8.3c-1,0-1.9,0.5-2.4,1.2H1.8V5.1h19l6.7,1.6L27.6,9.5z"/>
</g>
</svg>
