<?xml version="1.0" encoding="utf-8"?>
<!-- Generator: Adobe Illustrator 26.4.1, SVG Export Plug-In . SVG Version: 6.00 Build 0)  -->
<svg version="1.1" id="Layer_1" xmlns="http://www.w3.org/2000/svg" xmlns:xlink="http://www.w3.org/1999/xlink" x="0px" y="0px"
	 viewBox="0 0 20.2 25.4" style="enable-background:new 0 0 20.2 25.4;" xml:space="preserve">
<style type="text/css">
	.st0{fill:url(#SVGID_1_);}
</style>
<g id="Layer_1_00000075157513946456127070000005104016119574932153_">
	
		<linearGradient id="SVGID_1_" gradientUnits="userSpaceOnUse" x1="-1.295" y1="3.595" x2="19.125" y2="24.015" gradientTransform="matrix(1 0 0 -1 0 27.66)">
		<stop  offset="0.1" style="stop-color:#2814FF"/>
		<stop  offset="0.14" style="stop-color:#2324FF"/>
		<stop  offset="0.3" style="stop-color:#145BFF"/>
		<stop  offset="0.43" style="stop-color:#0983FF"/>
		<stop  offset="0.54" style="stop-color:#029BFF"/>
		<stop  offset="0.61" style="stop-color:#00A4FF"/>
		<stop  offset="0.66" style="stop-color:#00ACCE"/>
		<stop  offset="0.72" style="stop-color:#00B590"/>
		<stop  offset="0.79" style="stop-color:#00BD5D"/>
		<stop  offset="0.84" style="stop-color:#00C434"/>
		<stop  offset="0.9" style="stop-color:#00C818"/>
		<stop  offset="0.95" style="stop-color:#00CB06"/>
		<stop  offset="0.98" style="stop-color:#00CC00"/>
	</linearGradient>
	<path class="st0" d="M15.4,0H0v25.4h20.2V4.7L15.4,0z M18,5.6v17.6H2.2V2h12.2v3.6H18z M13.5,10.3c0,0.8-0.3,1.7-0.9,2.3l-0.1,0.1
		l-1.5,1.4v2.1h-2v-2.8l2.1-2c0.3-0.3,0.5-0.7,0.5-1.1c-0.1-0.9-0.8-1.5-1.6-1.5c-0.9-0.1-1.7,0.6-1.8,1.5c0,0,0,0,0,0.1v0.4H6.4
		v-0.5c0-1.9,1.6-3.5,3.5-3.5c0,0,0.1,0,0.1,0C11.9,6.9,13.5,8.4,13.5,10.3C13.5,10.3,13.5,10.3,13.5,10.3z M9.1,17.1h2v2h-2V17.1z"
		/>
</g>
</svg>
