<?xml version="1.0" encoding="utf-8"?>
<!-- Generator: Adobe Illustrator 26.4.1, SVG Export Plug-In . SVG Version: 6.00 Build 0)  -->
<svg version="1.1" id="Layer_1" xmlns="http://www.w3.org/2000/svg" xmlns:xlink="http://www.w3.org/1999/xlink" x="0px" y="0px"
	 viewBox="0 0 26.7 26.7" style="enable-background:new 0 0 26.7 26.7;" xml:space="preserve">
<style type="text/css">
	.st0{fill:url(#SVGID_1_);}
</style>
<g id="Layer_1_00000111871971395831436550000007276743383513620668_">
	
		<linearGradient id="SVGID_1_" gradientUnits="userSpaceOnUse" x1="3.9072" y1="6.7072" x2="22.7699" y2="25.5699" gradientTransform="matrix(1 0 0 -1 0 29.48)">
		<stop  offset="0.1" style="stop-color:#2814FF"/>
		<stop  offset="0.14" style="stop-color:#2324FF"/>
		<stop  offset="0.3" style="stop-color:#145BFF"/>
		<stop  offset="0.43" style="stop-color:#0983FF"/>
		<stop  offset="0.54" style="stop-color:#029BFF"/>
		<stop  offset="0.61" style="stop-color:#00A4FF"/>
		<stop  offset="0.66" style="stop-color:#00ACCE"/>
		<stop  offset="0.72" style="stop-color:#00B590"/>
		<stop  offset="0.79" style="stop-color:#00BD5D"/>
		<stop  offset="0.84" style="stop-color:#00C434"/>
		<stop  offset="0.9" style="stop-color:#00C818"/>
		<stop  offset="0.95" style="stop-color:#00CB06"/>
		<stop  offset="0.98" style="stop-color:#00CC00"/>
	</linearGradient>
	<path class="st0" d="M13.3,0C6,0,0,6,0,13.3s6,13.3,13.3,13.3s13.3-6,13.3-13.3l0,0C26.7,6,20.7,0,13.3,0z M24.5,13.3
		c0,6.1-4.9,11.1-11.1,11.2c-2.7,0-5.3-1-7.4-2.8c5.7-5.8,11-11.1,14-14.2l1.6-1.7C23.5,8,24.5,10.6,24.5,13.3z M19.8,4.3
		C14.2,10,9.2,15.1,6.3,18.1L4.4,20C0.7,15,1.8,8.1,6.7,4.4C8.7,3,11,2.2,13.4,2.2C15.7,2.2,17.9,2.9,19.8,4.3L19.8,4.3z M10.2,13.6
		l-1.4,1.3H6.6v-1.6h2v-0.3l-1.1-0.5l-1.1-2.1l1.4-0.6l0.8,1.6c0.1-1.5,1-2.8,2.4-3.4l-0.5-1.2L12,6.1l0.6,1.4h1.2l0.6-1.4l1.5,0.6
		l-0.5,1.2l0,0L15.6,8l-1.1,1.2l-0.1,0c-0.2-0.1-0.5-0.1-0.7-0.1h-0.9c-0.9,0-1.7,0.5-2.2,1.2h2.9l-1.6,1.6h-1.6L10.2,13.6z
		 M17.9,15v-0.1h1.8v-1.6h-1.8v-0.4l1-0.4l1-2.1l-1.4-0.6L17.9,11c-0.1-0.9-0.6-1.8-1.3-2.4l-0.2-0.1l-1.1,1.1l0.2,0.2
		c0.2,0.2,0.4,0.4,0.5,0.6h-1.6l-1.9,1.9v5.4c-1.2-0.2-2.1-1.2-2.1-2.4v-1l-1.5,1.5v0.1c0.3,1.9,2,3.3,4,3.3h0.9
		c1.7,0,3.3-1.1,3.9-2.7h0.1l0.8,1.6l1.4-0.7l-1-2.1L17.9,15z M14.2,17.6v-5.8h2.2v3.3C16.4,16.5,15.4,17.5,14.2,17.6z"/>
</g>
</svg>
