<?xml version="1.0" encoding="utf-8"?>
<!-- Generator: Adobe Illustrator 26.4.1, SVG Export Plug-In . SVG Version: 6.00 Build 0)  -->
<svg version="1.1" id="Layer_1" xmlns="http://www.w3.org/2000/svg" xmlns:xlink="http://www.w3.org/1999/xlink" x="0px" y="0px"
	 viewBox="0 0 29.6 25.6" style="enable-background:new 0 0 29.6 25.6;" xml:space="preserve">
<style type="text/css">
	.st0{fill:url(#SVGID_1_);}
</style>
<g id="Layer_1_00000170977199868173212880000010970293130814794631_">
	
		<linearGradient id="SVGID_1_" gradientUnits="userSpaceOnUse" x1="3.6731" y1="6.535" x2="24.6831" y2="27.545" gradientTransform="matrix(1 0 0 -1 0 28.8)">
		<stop  offset="0.1" style="stop-color:#2814FF"/>
		<stop  offset="0.14" style="stop-color:#2324FF"/>
		<stop  offset="0.3" style="stop-color:#145BFF"/>
		<stop  offset="0.43" style="stop-color:#0983FF"/>
		<stop  offset="0.54" style="stop-color:#029BFF"/>
		<stop  offset="0.61" style="stop-color:#00A4FF"/>
		<stop  offset="0.66" style="stop-color:#00ACCE"/>
		<stop  offset="0.72" style="stop-color:#00B590"/>
		<stop  offset="0.79" style="stop-color:#00BD5D"/>
		<stop  offset="0.84" style="stop-color:#00C434"/>
		<stop  offset="0.9" style="stop-color:#00C818"/>
		<stop  offset="0.95" style="stop-color:#00CB06"/>
		<stop  offset="0.98" style="stop-color:#00CC00"/>
	</linearGradient>
	<path class="st0" d="M22.2,8.4c0,2.7-2.3,4.9-5,4.8s-4.9-2.3-4.8-5c0-2.7,2.3-4.9,5-4.8C20,3.4,22.2,5.6,22.2,8.4
		C22.2,8.4,22.2,8.4,22.2,8.4z M15,10.2c-0.2-0.4-0.3-0.9-0.3-1.3h-1.5c0,0.5,0.2,0.9,0.4,1.3H15z M18.9,6.8h-1.3v1.3h1.5
		c0-0.1,0-0.2,0-0.2C19.1,7.5,19,7.2,18.9,6.8z M18.7,6c-0.3-0.6-0.6-1.1-1.1-1.6V6L18.7,6z M16.9,4.5c-0.4,0.5-0.7,1-1,1.6h1V4.5z
		 M15.6,6.8c-0.1,0.3-0.2,0.7-0.2,1.1c0,0.1,0,0.2,0,0.2h1.4V6.8L15.6,6.8z M14.8,6.8h-1.4c-0.2,0.4-0.3,0.9-0.3,1.3h1.5
		c0-0.1,0-0.2,0-0.3C14.7,7.5,14.7,7.2,14.8,6.8z M15.8,10.2h1V8.9h-1.4C15.5,9.4,15.6,9.8,15.8,10.2L15.8,10.2z M16.1,11
		c0.2,0.4,0.5,0.8,0.8,1.2V11H16.1z M17.6,12.2c0.3-0.4,0.6-0.8,0.8-1.2h-0.8V12.2z M18.8,10.2c0.2-0.4,0.3-0.9,0.4-1.3h-1.5v1.3
		H18.8z M19.6,10.2h1.5c0.2-0.4,0.3-0.8,0.4-1.3h-1.6C19.8,9.4,19.7,9.8,19.6,10.2L19.6,10.2z M21.5,8.1c0-0.5-0.1-0.9-0.3-1.3h-1.5
		c0.1,0.3,0.1,0.7,0.2,1c0,0.1,0,0.2,0,0.3L21.5,8.1z M18.4,4.2c0.5,0.5,0.8,1.1,1.1,1.8h1.4C20.3,5.1,19.4,4.5,18.4,4.2L18.4,4.2z
		 M13.8,6h1.3c0.3-0.6,0.6-1.2,1.1-1.7C15.2,4.5,14.3,5.1,13.8,6L13.8,6z M16.3,12.5c-0.4-0.5-0.7-1-1-1.5H14
		C14.5,11.8,15.4,12.3,16.3,12.5L16.3,12.5z M20.6,11h-1.5c-0.3,0.5-0.6,1-1,1.5C19.2,12.3,20,11.8,20.6,11L20.6,11z M29.6,17.3V0H5
		v10.5c-4,1.5-6.1,6-4.5,10c1.1,3,4.1,5,7.3,5c3.4,0,5.6-1.3,7.4-4.4h8.5V19h-2.1v-1.8L29.6,17.3z M7.8,10H7.2V2.2h20.1v12.9H15.1
		C13.9,12,11,10,7.8,10z M13.4,17.8c0,3.1-2.5,5.6-5.6,5.6s-5.6-2.5-5.6-5.6s2.5-5.6,5.6-5.6l0,0C10.9,12.2,13.4,14.7,13.4,17.8z
		 M10.8,17.7c0-0.5-0.1-1-0.4-1.5l-1,0.1c-0.1-0.2-0.3-0.3-0.5-0.5l0.1-1c-0.5-0.3-1-0.4-1.5-0.4l-0.4,0.9c-0.2,0-0.4,0.1-0.6,0.2
		L5.8,15c-0.5,0.3-0.8,0.6-1.1,1.1l0.6,0.8c-0.1,0.2-0.1,0.4-0.2,0.6l-0.9,0.4c0,0.5,0.2,1.1,0.4,1.5l1-0.1c0.1,0.2,0.3,0.3,0.5,0.5
		l-0.1,1c0.5,0.3,1,0.4,1.5,0.4l0.4-0.9c0.2,0,0.4-0.1,0.6-0.2l0.8,0.6c0.5-0.3,0.8-0.7,1.1-1.1l-0.6-0.8c0.1-0.2,0.1-0.4,0.2-0.6
		L10.8,17.7z M8.4,18.3C8.1,18.8,7.5,19,7,18.7c-0.5-0.3-0.7-0.9-0.4-1.4s0.9-0.7,1.4-0.4c0,0,0,0,0.1,0C8.5,17.2,8.6,17.8,8.4,18.3
		z"/>
</g>
</svg>
