<?xml version="1.0" encoding="utf-8"?>
<!-- Generator: Adobe Illustrator 26.4.1, SVG Export Plug-In . SVG Version: 6.00 Build 0)  -->
<svg version="1.1" id="Layer_1" xmlns="http://www.w3.org/2000/svg" xmlns:xlink="http://www.w3.org/1999/xlink" x="0px" y="0px"
	 viewBox="0 0 30.6 29.1" style="enable-background:new 0 0 30.6 29.1;" xml:space="preserve">
<style type="text/css">
	.st0{fill:url(#SVGID_1_);}
</style>
<linearGradient id="SVGID_1_" gradientUnits="userSpaceOnUse" x1="4.3169" y1="2.943642e-02" x2="26.1867" y2="21.8991" gradientTransform="matrix(1 0 0 -1 0 32)">
	<stop  offset="0.1" style="stop-color:#2814FF"/>
	<stop  offset="0.1435" style="stop-color:#2324FF"/>
	<stop  offset="0.2998" style="stop-color:#145BFF"/>
	<stop  offset="0.4347" style="stop-color:#0983FF"/>
	<stop  offset="0.5417" style="stop-color:#029BFF"/>
	<stop  offset="0.6072" style="stop-color:#00A4FF"/>
	<stop  offset="0.6551" style="stop-color:#00ACCE"/>
	<stop  offset="0.7216" style="stop-color:#00B590"/>
	<stop  offset="0.7855" style="stop-color:#00BD5D"/>
	<stop  offset="0.8449" style="stop-color:#00C434"/>
	<stop  offset="0.8989" style="stop-color:#00C818"/>
	<stop  offset="0.9457" style="stop-color:#00CB06"/>
	<stop  offset="0.98" style="stop-color:#00CC00"/>
</linearGradient>
<path class="st0" d="M28.3,24.4c-0.2,0-0.4,0-0.6,0.1l-1.9-1.9c0.7-1.5,1.2-3.3,1.2-5.1c0-6.1-4.7-11.1-10.6-11.7V3.7
	c0.6-0.4,0.9-1,0.9-1.7c0-1.1-0.9-2-2-2s-2,0.9-2,2c0,0.7,0.3,1.3,0.9,1.7v2.1c-6,0.5-10.7,5.6-10.7,11.7c0,1.8,0.4,3.6,1.2,5.1
	l-1.9,1.9c-0.2-0.1-0.4-0.1-0.6-0.1c-1.2,0-2.2,1-2.2,2.2s1,2.2,2.2,2.2s2.2-1,2.2-2.2c0-0.2,0-0.4-0.1-0.6l1.6-1.6
	c2.1,2.9,5.6,4.7,9.4,4.7s7.3-1.9,9.4-4.7l1.6,1.6c-0.1,0.2-0.1,0.4-0.1,0.6c0,1.2,1,2.2,2.2,2.2s2.2-1,2.2-2.2S29.5,24.4,28.3,24.4
	z M24.8,17.4c0,5.3-4.3,9.6-9.6,9.6s-9.6-4.3-9.6-9.6s4.3-9.6,9.6-9.6S24.8,12.2,24.8,17.4z M18.9,14.5v-1c0-2-1.7-3.7-3.7-3.7
	s-3.7,1.7-3.7,3.7v1h-1.4V23h10.2v-8.5H18.9z M13.2,14.5v-1c0-1.1,0.9-2,2-2s2,0.9,2,2v1H13.2z M11.9,21.3v-5.1h6.7v5.1H11.9z
	 M16.5,17.9c0,0.5-0.3,0.9-0.7,1.1v1.7h-1.2V19c-0.4-0.2-0.7-0.7-0.7-1.1c0-0.7,0.6-1.3,1.3-1.3S16.5,17.2,16.5,17.9z"/>
</svg>
