<?xml version="1.0" encoding="utf-8"?>
<!-- Generator: Adobe Illustrator 26.4.1, SVG Export Plug-In . SVG Version: 6.00 Build 0)  -->
<svg version="1.1" id="Layer_1" xmlns="http://www.w3.org/2000/svg" xmlns:xlink="http://www.w3.org/1999/xlink" x="0px" y="0px"
	 viewBox="0 0 26.3 29.2" style="enable-background:new 0 0 26.3 29.2;" xml:space="preserve">
<style type="text/css">
	.st0{fill:url(#SVGID_1_);}
</style>
<linearGradient id="SVGID_1_" gradientUnits="userSpaceOnUse" x1="0.275" y1="3.0806" x2="25.4754" y2="28.2811" gradientTransform="matrix(1 0 0 -1 0 32.5112)">
	<stop  offset="0.1" style="stop-color:#2814FF"/>
	<stop  offset="0.1435" style="stop-color:#2324FF"/>
	<stop  offset="0.2998" style="stop-color:#145BFF"/>
	<stop  offset="0.4347" style="stop-color:#0983FF"/>
	<stop  offset="0.5417" style="stop-color:#029BFF"/>
	<stop  offset="0.6072" style="stop-color:#00A4FF"/>
	<stop  offset="0.6551" style="stop-color:#00ACCE"/>
	<stop  offset="0.7216" style="stop-color:#00B590"/>
	<stop  offset="0.7855" style="stop-color:#00BD5D"/>
	<stop  offset="0.8449" style="stop-color:#00C434"/>
	<stop  offset="0.8989" style="stop-color:#00C818"/>
	<stop  offset="0.9457" style="stop-color:#00CB06"/>
	<stop  offset="0.98" style="stop-color:#00CC00"/>
</linearGradient>
<path class="st0" d="M4.4,15.3H7v2.5H4.4V15.3z M4.4,14.5H7v-2.6H4.4V14.5z M4.4,7.8H7V5.3H4.4V7.8z M4.4,11.2H7V8.6H4.4V11.2z
	 M26.3,26.7v2.5H0v-2.5h1.5V2.5h11c2.9-3.1,7.8-3.3,10.9-0.4s3.3,7.8,0.4,10.9c-1.8,1.9-4.5,2.8-7.1,2.3v0.8h5.7l1.2,3.1h1.6v2h-0.7
	l0.3,0.9v4.6L26.3,26.7z M12.5,7.8c0,3.1,2.5,5.7,5.7,5.7l0,0c3.1,0,5.7-2.5,5.7-5.6s-2.5-5.7-5.6-5.7S12.5,4.6,12.5,7.8z M8.4,21.3
	h-2v5.5h2V21.3z M13.2,17.9L13.2,17.9h-1.9v-2.6h2.6v0.9h0.8v-1.5c-0.3-0.1-0.5-0.3-0.8-0.5v0.4h-2.7v-2.7h0.4
	c-0.8-1.2-1.2-2.7-1.2-4.1c0-1.1,0.2-2.2,0.7-3.2H3.6v22.1h0.8v-7.5h6.1v7.5h1v-4.8l0.3-0.7H11v-2h1.6L13.2,17.9z M21.3,25.7h-6.2v1
	h6.2V25.7z M22.7,22.5L21,18.2h-5.8l-1.7,4.3v1.3h9.2V22.5z M18.3,9.5c-0.5,0-0.9-0.2-1.2-0.5l-0.3-0.3l-1,1.3l0.2,0.2
	c0.4,0.4,1,0.7,1.6,0.8v0.8H19V11c0.9-0.2,1.6-1,1.6-2c0-1.3-1.1-1.8-1.9-2.1c-0.4-0.2-0.9-0.3-0.9-0.6s0.3-0.4,0.6-0.4
	c0.4,0,0.8,0.2,1.1,0.4l0.3,0.3l0.7-1.3l-0.1-0.1C20,4.8,19.5,4.6,19,4.5V3.7h-1.4v0.8c-0.9,0.2-1.6,1-1.6,1.9
	c0,1.2,1.1,1.7,1.9,2.1c0.4,0.2,0.9,0.2,0.9,0.6C18.9,9.5,18.5,9.5,18.3,9.5z M7.8,11.2h2.6V8.6H7.8V11.2z M15.8,18.9L15,20.8h6.1
	l-0.8-1.9H15.8z M7.8,7.9h2.6V5.3H7.8V7.9z M7.8,17.9h2.6v-2.6H7.8V17.9z M14.3,23.2h1.9v-1.1h-1.9V23.2z M20.1,23.2h1.8v-1.1h-1.8
	V23.2z M7.8,14.5h2.6v-2.6H7.8V14.5z"/>
</svg>
