<?xml version="1.0" encoding="utf-8"?>
<!-- Generator: Adobe Illustrator 26.4.1, SVG Export Plug-In . SVG Version: 6.00 Build 0)  -->
<svg version="1.1" id="Layer_1" xmlns="http://www.w3.org/2000/svg" xmlns:xlink="http://www.w3.org/1999/xlink" x="0px" y="0px"
	 viewBox="0 0 27.9 20" style="enable-background:new 0 0 27.9 20;" xml:space="preserve">
<style type="text/css">
	.st0{fill:url(#SVGID_1_);}
</style>
<g id="Layer_1_00000148634999209434215020000011310043163589718207_">
	
		<linearGradient id="SVGID_1_" gradientUnits="userSpaceOnUse" x1="1.5525" y1="0.8875" x2="25.5125" y2="24.8475" gradientTransform="matrix(1 0 0 -1 0 22.4)">
		<stop  offset="0.1" style="stop-color:#2814FF"/>
		<stop  offset="0.14" style="stop-color:#2324FF"/>
		<stop  offset="0.3" style="stop-color:#145BFF"/>
		<stop  offset="0.43" style="stop-color:#0983FF"/>
		<stop  offset="0.54" style="stop-color:#029BFF"/>
		<stop  offset="0.61" style="stop-color:#00A4FF"/>
		<stop  offset="0.66" style="stop-color:#00ACCE"/>
		<stop  offset="0.72" style="stop-color:#00B590"/>
		<stop  offset="0.79" style="stop-color:#00BD5D"/>
		<stop  offset="0.84" style="stop-color:#00C434"/>
		<stop  offset="0.9" style="stop-color:#00C818"/>
		<stop  offset="0.95" style="stop-color:#00CB06"/>
		<stop  offset="0.98" style="stop-color:#00CC00"/>
	</linearGradient>
	<path class="st0" d="M8.1,3.2h6.7v1.5H8.1V3.2z M17.9,8.9v1.5h6.7V8.9L17.9,8.9z M27.9,0v13.7H16.5l-6.2,6.2L0,20v-6.6l4.5-4.5V0
		L27.9,0z M9.3,17.7l4-4H5.1l4.3-4.3C9.6,9.2,9.7,9,9.7,8.8c0-0.2-0.1-0.4-0.2-0.6c-0.3-0.3-0.8-0.3-1.2,0l-6,6v3.5L9.3,17.7z
		 M10.3,11.5h15.5V2.2h-19v4.4C7.3,6,8.1,5.7,8.8,5.8H25v2.2H11.7c0.1,0.3,0.1,0.5,0.1,0.8c0,0.8-0.3,1.6-0.9,2.1L10.3,11.5z"/>
</g>
</svg>
