<?xml version="1.0" encoding="utf-8"?>
<!-- Generator: Adobe Illustrator 26.4.1, SVG Export Plug-In . SVG Version: 6.00 Build 0)  -->
<svg version="1.1" id="Layer_1" xmlns="http://www.w3.org/2000/svg" xmlns:xlink="http://www.w3.org/1999/xlink" x="0px" y="0px"
	 viewBox="0 0 27.3 27.6" style="enable-background:new 0 0 27.3 27.6;" xml:space="preserve">
<style type="text/css">
	.st0{fill:url(#SVGID_1_);}
</style>
<g id="Layer_1_00000116213762822843662350000012798386599974112922_">
	
		<linearGradient id="SVGID_1_" gradientUnits="userSpaceOnUse" x1="-1.1" y1="748.475" x2="23.5125" y2="723.8625" gradientTransform="matrix(1 0 0 1 0 -722)">
		<stop  offset="0.1" style="stop-color:#2814FF"/>
		<stop  offset="0.14" style="stop-color:#2324FF"/>
		<stop  offset="0.3" style="stop-color:#145BFF"/>
		<stop  offset="0.43" style="stop-color:#0983FF"/>
		<stop  offset="0.54" style="stop-color:#029BFF"/>
		<stop  offset="0.61" style="stop-color:#00A4FF"/>
		<stop  offset="0.66" style="stop-color:#00ACCE"/>
		<stop  offset="0.72" style="stop-color:#00B590"/>
		<stop  offset="0.79" style="stop-color:#00BD5D"/>
		<stop  offset="0.84" style="stop-color:#00C434"/>
		<stop  offset="0.9" style="stop-color:#00C818"/>
		<stop  offset="0.95" style="stop-color:#00CB06"/>
		<stop  offset="0.98" style="stop-color:#00CC00"/>
	</linearGradient>
	<path class="st0" d="M18.5,19.3L18.5,19.3c5.3-0.5,9.3-5.1,8.8-10.4c-0.4-4.7-4.1-8.4-8.8-8.8C18,0,17.4,0,16.9,0.1l0,0
		c-4.2,0.3-7.8,3.4-8.6,7.6H0v19.9h15.5v-8.5c0.5,0.1,1,0.2,1.5,0.3C17.4,19.4,18,19.4,18.5,19.3z M18.6,12.9v-2.3H21
		c-0.1,0.8-0.3,1.6-0.6,2.3H18.6z M23.6,14.7c-0.9,1.1-2.1,1.9-3.4,2.3c0.5-0.7,1-1.5,1.4-2.3H23.6z M18.6,4.6V3.2
		c0.3,0.5,0.6,1,0.9,1.4H18.6z M21.6,4.6c-0.4-0.8-0.8-1.6-1.4-2.3c1.3,0.5,2.5,1.3,3.4,2.3H21.6z M18.6,8.8V6.5h1.8
		C20.7,7.2,20.9,8,21,8.8H18.6z M25.5,10.6c-0.1,0.8-0.3,1.6-0.6,2.3h-2.4c0.2-0.7,0.4-1.5,0.5-2.3H25.5z M25.5,8.8h-2.6
		c-0.1-0.8-0.2-1.6-0.5-2.3h2.4C25.1,7.2,25.4,8,25.5,8.8z M19.5,14.8c-0.3,0.5-0.6,1-0.9,1.5v-1.5H19.5z M16.8,3.2v1.4h-0.9
		C16.1,4.2,16.4,3.7,16.8,3.2z M14.7,10.6h2.1v2.3h-1.3v-1.5L14.7,10.6z M13.6,12.7v13H1.9V9.5h8.6v3.2H13.6z M12.6,8.5l-0.9-0.9
		h-1.6c0.1-0.4,0.2-0.8,0.4-1.2H13C12.8,7.1,12.7,7.8,12.6,8.5L12.6,8.5z M11.8,4.6c0.9-1.1,2.1-1.9,3.4-2.3c-0.5,0.7-1,1.5-1.4,2.3
		H11.8z M16.8,6.4v2.3h-2.4c0.1-0.8,0.3-1.6,0.6-2.3H16.8z M16.8,14.7v1.5c-0.3-0.4-0.6-0.9-0.9-1.5H16.8z M11.9,14.6v1.7H3.6v-1.7
		H11.9z M3.6,17.8h8.3v1.7H3.6L3.6,17.8z M3.6,21.1H8v1.7H3.6V21.1z"/>
</g>
</svg>
