<?xml version="1.0" encoding="utf-8"?>
<!-- Generator: Adobe Illustrator 26.4.1, SVG Export Plug-In . SVG Version: 6.00 Build 0)  -->
<svg version="1.1" id="Layer_1" xmlns="http://www.w3.org/2000/svg" xmlns:xlink="http://www.w3.org/1999/xlink" x="0px" y="0px"
	 viewBox="0 0 27.8 24.5" style="enable-background:new 0 0 27.8 24.5;" xml:space="preserve">
<style type="text/css">
	.st0{fill:url(#SVGID_1_);}
</style>
<g id="Layer_1_00000052806866149933247930000004005625978944793479_">
	
		<linearGradient id="SVGID_1_" gradientUnits="userSpaceOnUse" x1="5.7313" y1="2.0004" x2="26.9313" y2="23.2104" gradientTransform="matrix(1 0 0 -1 0 26.88)">
		<stop  offset="0.1" style="stop-color:#2814FF"/>
		<stop  offset="0.14" style="stop-color:#2324FF"/>
		<stop  offset="0.3" style="stop-color:#145BFF"/>
		<stop  offset="0.43" style="stop-color:#0983FF"/>
		<stop  offset="0.54" style="stop-color:#029BFF"/>
		<stop  offset="0.61" style="stop-color:#00A4FF"/>
		<stop  offset="0.66" style="stop-color:#00ACCE"/>
		<stop  offset="0.72" style="stop-color:#00B590"/>
		<stop  offset="0.79" style="stop-color:#00BD5D"/>
		<stop  offset="0.84" style="stop-color:#00C434"/>
		<stop  offset="0.9" style="stop-color:#00C818"/>
		<stop  offset="0.95" style="stop-color:#00CB06"/>
		<stop  offset="0.98" style="stop-color:#00CC00"/>
	</linearGradient>
	<path class="st0" d="M23.3,0H8.9v4.8C6,5.5,3.9,8,3.9,11c0,1.2,0.3,2.3,0.9,3.3L0,19.1l2.2,2.2L7,16.5c0.6,0.3,1.2,0.6,1.9,0.7v7.2
		h18.9V4.6L23.3,0z M6.1,11c0-2.3,1.9-4.2,4.2-4.2s4.2,1.9,4.2,4.2c0,2.3-1.9,4.2-4.2,4.2C8,15.2,6.1,13.4,6.1,11
		C6.1,11,6.1,11,6.1,11L6.1,11z M25.6,22.3H11.1v-4.9c3.5-0.4,6-3.6,5.6-7.1C16.3,7.3,14,5,11.1,4.7V2.2h10.6v3.9h3.9V22.3z
		 M16.3,15.7H18v5.4h-1.7V15.7z M14,18h1.7v3.1H14V18z M18.7,13.3h1.7v7.8h-1.7L18.7,13.3z M22.8,11v10.1h-1.7V11H22.8z"/>
</g>
</svg>
