<?xml version="1.0" encoding="utf-8"?>
<!-- Generator: Adobe Illustrator 26.4.1, SVG Export Plug-In . SVG Version: 6.00 Build 0)  -->
<svg version="1.1" id="Layer_1" xmlns="http://www.w3.org/2000/svg" xmlns:xlink="http://www.w3.org/1999/xlink" x="0px" y="0px"
	 viewBox="0 0 29.6 25.6" style="enable-background:new 0 0 29.6 25.6;" xml:space="preserve">
<style type="text/css">
	.st0{fill:url(#SVGID_1_);}
</style>
<g id="Layer_1_00000155111287730927496130000002486578871434783646_">
	
		<linearGradient id="SVGID_1_" gradientUnits="userSpaceOnUse" x1="2.4692" y1="4.9582" x2="27.7735" y2="30.2625" gradientTransform="matrix(1 0 0 -1 0 28.44)">
		<stop  offset="0.1" style="stop-color:#2814FF"/>
		<stop  offset="0.14" style="stop-color:#2324FF"/>
		<stop  offset="0.3" style="stop-color:#145BFF"/>
		<stop  offset="0.43" style="stop-color:#0983FF"/>
		<stop  offset="0.54" style="stop-color:#029BFF"/>
		<stop  offset="0.61" style="stop-color:#00A4FF"/>
		<stop  offset="0.66" style="stop-color:#00ACCE"/>
		<stop  offset="0.72" style="stop-color:#00B590"/>
		<stop  offset="0.79" style="stop-color:#00BD5D"/>
		<stop  offset="0.84" style="stop-color:#00C434"/>
		<stop  offset="0.9" style="stop-color:#00C818"/>
		<stop  offset="0.95" style="stop-color:#00CB06"/>
		<stop  offset="0.98" style="stop-color:#00CC00"/>
	</linearGradient>
	<path class="st0" d="M21.7,17.3v1.8h2.1v2.2h-8.6c-1.8,3-4,4.3-7.4,4.3c-4.3,0-7.8-3.5-7.8-7.8c0-3.2,2-6.2,5-7.3V0h24.6v17.3H21.7
		z M13.4,17.8c0-3.1-2.5-5.6-5.6-5.6s-5.6,2.5-5.6,5.6s2.5,5.6,5.6,5.6l0,0C10.9,23.4,13.4,20.9,13.4,17.8z M27.4,15.1V2.2H7.3v7.9
		h0.6c2,0,3.8,0.7,5.3,2.1l2.8-2.8L14,7.5l-1.2,1.2l-1.9-2l2.6-2.6c0.4-0.4,0.9-0.6,1.5-0.6c0.7,0.1,1.4,0.6,1.8,1.2l0.1,0.2L16.5,5
		c-0.6,0.1-1.2,0.4-1.6,0.9l2.2,2.2l1.2-1.2c-0.5-1.2,0-2.5,1.2-3.1c0.9-0.4,2-0.2,2.6,0.6l0.2,0.2l0.2,0.2l-2.2,0.6l0.3,1.2L22.9,6
		v0.2c-0.1,0.5-0.3,1-0.7,1.4c-0.7,0.7-1.6,0.9-2.5,0.5l-1.2,1.2l3,3l-1.3,1.3l-3-3l-2.9,2.8l-0.2-0.2c0.4,0.6,0.8,1.2,1,1.9
		L27.4,15.1z M6.9,20.8h1.9v1.7H6.9V20.8z M6.9,20.1v-6.4h1.9v6.4L6.9,20.1z"/>
</g>
</svg>
