<?xml version="1.0" encoding="utf-8"?>
<!-- Generator: Adobe Illustrator 26.4.1, SVG Export Plug-In . SVG Version: 6.00 Build 0)  -->
<svg version="1.1" id="Layer_1" xmlns="http://www.w3.org/2000/svg" xmlns:xlink="http://www.w3.org/1999/xlink" x="0px" y="0px"
	 viewBox="0 0 29.9 22" style="enable-background:new 0 0 29.9 22;" xml:space="preserve">
<style type="text/css">
	.st0{fill:url(#SVGID_1_);}
</style>
<g id="Layer_1_00000054945967734544133010000001742294878703979908_">
	
		<linearGradient id="SVGID_1_" gradientUnits="userSpaceOnUse" x1="2.6342" y1="0.1647" x2="27.3098" y2="24.8303" gradientTransform="matrix(1 0 0 -1 0 24.76)">
		<stop  offset="0.1" style="stop-color:#2814FF"/>
		<stop  offset="0.14" style="stop-color:#2324FF"/>
		<stop  offset="0.3" style="stop-color:#145BFF"/>
		<stop  offset="0.43" style="stop-color:#0983FF"/>
		<stop  offset="0.54" style="stop-color:#029BFF"/>
		<stop  offset="0.61" style="stop-color:#00A4FF"/>
		<stop  offset="0.66" style="stop-color:#00ACCE"/>
		<stop  offset="0.72" style="stop-color:#00B590"/>
		<stop  offset="0.79" style="stop-color:#00BD5D"/>
		<stop  offset="0.84" style="stop-color:#00C434"/>
		<stop  offset="0.9" style="stop-color:#00C818"/>
		<stop  offset="0.95" style="stop-color:#00CB06"/>
		<stop  offset="0.98" style="stop-color:#00CC00"/>
	</linearGradient>
	<path class="st0" d="M2.6,0v17.5h24.7V0H2.6z M5,15.2V2.4h20v12.8H5z M29.9,19.6V22H0v-2.4H29.9z M14.9,4C10.5,4,7,7.5,7,11.9v0.8
		h6.2c0.5,0.9,1.5,1.2,2.4,0.7c0.3-0.2,0.6-0.4,0.7-0.7h6.4v-0.8C22.7,7.5,19.2,4,14.9,4L14.9,4z M10.5,8.5l1-1L11,7
		c0.9-0.7,2-1.2,3.1-1.3v0.7h1.4V5.7c1.1,0.1,2.2,0.6,3.1,1.3l-0.5,0.5l1,1L19.7,8c0.7,0.9,1.1,1.9,1.3,3h-4.6
		c0-0.1-0.1-0.2-0.2-0.2L17.8,7l-1.6-0.6l-1.6,3.8c-0.6,0-1.1,0.4-1.4,0.9H8.8c0.2-1.1,0.6-2.1,1.3-3L10.5,8.5z"/>
</g>
</svg>
