<?xml version="1.0" encoding="utf-8"?>
<!-- Generator: Adobe Illustrator 26.4.1, SVG Export Plug-In . SVG Version: 6.00 Build 0)  -->
<svg version="1.1" id="Layer_1" xmlns="http://www.w3.org/2000/svg" xmlns:xlink="http://www.w3.org/1999/xlink" x="0px" y="0px"
	 viewBox="0 0 26.7 26.7" style="enable-background:new 0 0 26.7 26.7;" xml:space="preserve">
<style type="text/css">
	.st0{fill:url(#SVGID_1_);}
</style>
<g id="Layer_1_00000114790216484179702640000010368700699773356691_">
	
		<linearGradient id="SVGID_1_" gradientUnits="userSpaceOnUse" x1="3.9047" y1="6.7097" x2="22.7695" y2="25.5645" gradientTransform="matrix(1 0 0 -1 0 29.48)">
		<stop  offset="0.1" style="stop-color:#2814FF"/>
		<stop  offset="0.14" style="stop-color:#2324FF"/>
		<stop  offset="0.3" style="stop-color:#145BFF"/>
		<stop  offset="0.43" style="stop-color:#0983FF"/>
		<stop  offset="0.54" style="stop-color:#029BFF"/>
		<stop  offset="0.61" style="stop-color:#00A4FF"/>
		<stop  offset="0.66" style="stop-color:#00ACCE"/>
		<stop  offset="0.72" style="stop-color:#00B590"/>
		<stop  offset="0.79" style="stop-color:#00BD5D"/>
		<stop  offset="0.84" style="stop-color:#00C434"/>
		<stop  offset="0.9" style="stop-color:#00C818"/>
		<stop  offset="0.95" style="stop-color:#00CB06"/>
		<stop  offset="0.98" style="stop-color:#00CC00"/>
	</linearGradient>
	<path class="st0" d="M13.4,0C6,0,0,6,0,13.3s6,13.3,13.3,13.4c7.4,0,13.3-6,13.4-13.3c0,0,0,0,0,0C26.7,6,20.7,0,13.4,0z
		 M24.4,13.3c0,6.1-4.9,11-11,11s-11-4.9-11-11s4.9-11,11-11C19.4,2.4,24.4,7.3,24.4,13.3L24.4,13.3z M12.5,4h1.7v5.6h-1.6L12.5,4z
		 M9.4,4.8l2.8,4.8l-1.5,0.8L7.9,5.7L9.4,4.8z M9.6,12.2L4.8,9.4l0.9-1.5l4.8,2.8L9.6,12.2z M9.5,14.2H4v-1.7h5.6L9.5,14.2z
		 M10.4,16l-4.7,2.8l-0.8-1.5l4.8-2.8L10.4,16z M10.7,16.2l1.5,0.8l-2.8,4.8L7.9,21L10.7,16.2z M12.5,17.1h1.7v5.6h-1.6L12.5,17.1z
		 M15.9,16.2l2.8,4.8l-1.5,0.9L14.5,17L15.9,16.2z M21.8,17.3l-0.8,1.5L16.2,16l0.9-1.5L21.8,17.3z"/>
</g>
</svg>
