<?xml version="1.0" encoding="utf-8"?>
<!-- Generator: Adobe Illustrator 26.4.1, SVG Export Plug-In . SVG Version: 6.00 Build 0)  -->
<svg version="1.1" id="Layer_1" xmlns="http://www.w3.org/2000/svg" xmlns:xlink="http://www.w3.org/1999/xlink" x="0px" y="0px"
	 viewBox="0 0 26.7 25.8" style="enable-background:new 0 0 26.7 25.8;" xml:space="preserve">
<style type="text/css">
	.st0{fill:url(#SVGID_1_);}
</style>
<g id="Layer_1_00000023975315768098511920000012487863666042367415_">
	
		<linearGradient id="SVGID_1_" gradientUnits="userSpaceOnUse" x1="2.215" y1="5.155" x2="22.18" y2="25.12" gradientTransform="matrix(1 0 0 -1 0 29.02)">
		<stop  offset="0.1" style="stop-color:#2814FF"/>
		<stop  offset="0.14" style="stop-color:#2324FF"/>
		<stop  offset="0.3" style="stop-color:#145BFF"/>
		<stop  offset="0.43" style="stop-color:#0983FF"/>
		<stop  offset="0.54" style="stop-color:#029BFF"/>
		<stop  offset="0.61" style="stop-color:#00A4FF"/>
		<stop  offset="0.66" style="stop-color:#00ACCE"/>
		<stop  offset="0.72" style="stop-color:#00B590"/>
		<stop  offset="0.79" style="stop-color:#00BD5D"/>
		<stop  offset="0.84" style="stop-color:#00C434"/>
		<stop  offset="0.9" style="stop-color:#00C818"/>
		<stop  offset="0.95" style="stop-color:#00CB06"/>
		<stop  offset="0.98" style="stop-color:#00CC00"/>
	</linearGradient>
	<path class="st0" d="M22.6,19.3V21h-1.7v-1.7H22.6z M20.9,23.4h1.7v-1.7h-1.7V23.4z M20.9,25.8h1.7v-1.7h-1.7V25.8z M4.1,21h1.7
		v-1.7H4.1V21z M4.1,23.4h1.7v-1.7H4.1V23.4z M4.1,25.8h1.7v-1.7H4.1V25.8z M12.5,21h1.7v-1.7h-1.7V21z M12.5,23.4h1.7v-1.7h-1.7
		V23.4z M12.5,25.8h1.7v-1.7h-1.7V25.8z M8.3,21H10v-1.7H8.3V21z M8.3,23.4H10v-1.7H8.3V23.4z M8.3,25.8H10v-1.7H8.3V25.8z M16.7,21
		h1.7v-1.7h-1.7V21z M16.7,23.4h1.7v-1.7h-1.7V23.4z M16.7,25.8h1.7v-1.7h-1.7V25.8z M26.7,9.4v9H0v-9h3.9V0h14.4l4.6,4.6v4.9
		L26.7,9.4z M16.7,6.1V2.2H6.1v7.2h14.6V6.1L16.7,6.1z M24.5,16.2v-4.6H2.2v4.6L24.5,16.2z M5,12.7c-0.7,0-1.2,0.6-1.2,1.3
		s0.6,1.2,1.3,1.2s1.2-0.6,1.2-1.3c0,0,0,0,0,0C6.2,13.2,5.6,12.7,5,12.7z M9.1,12.7c-0.7,0-1.2,0.6-1.2,1.3s0.6,1.2,1.3,1.2
		s1.2-0.6,1.2-1.3c0,0,0,0,0,0C10.4,13.2,9.8,12.7,9.1,12.7z"/>
</g>
</svg>
