<?xml version="1.0" encoding="utf-8"?>
<!-- Generator: Adobe Illustrator 26.4.1, SVG Export Plug-In . SVG Version: 6.00 Build 0)  -->
<svg version="1.1" id="Layer_1" xmlns="http://www.w3.org/2000/svg" xmlns:xlink="http://www.w3.org/1999/xlink" x="0px" y="0px"
	 viewBox="0 0 26.6 23" style="enable-background:new 0 0 26.6 23;" xml:space="preserve">
<style type="text/css">
	.st0{fill:url(#SVGID_1_);}
</style>
<g id="Layer_1_00000133511217864083904390000017881904152764888714_">
	
		<linearGradient id="SVGID_1_" gradientUnits="userSpaceOnUse" x1="1.865" y1="4.855" x2="24.715" y2="27.705" gradientTransform="matrix(1 0 0 -1 0 25.84)">
		<stop  offset="0.1" style="stop-color:#2814FF"/>
		<stop  offset="0.14" style="stop-color:#2324FF"/>
		<stop  offset="0.3" style="stop-color:#145BFF"/>
		<stop  offset="0.43" style="stop-color:#0983FF"/>
		<stop  offset="0.54" style="stop-color:#029BFF"/>
		<stop  offset="0.61" style="stop-color:#00A4FF"/>
		<stop  offset="0.66" style="stop-color:#00ACCE"/>
		<stop  offset="0.72" style="stop-color:#00B590"/>
		<stop  offset="0.79" style="stop-color:#00BD5D"/>
		<stop  offset="0.84" style="stop-color:#00C434"/>
		<stop  offset="0.9" style="stop-color:#00C818"/>
		<stop  offset="0.95" style="stop-color:#00CB06"/>
		<stop  offset="0.98" style="stop-color:#00CC00"/>
	</linearGradient>
	<path class="st0" d="M26.6,19.1V0H0v19.1h8.5v1.4H6.2V23h14.2v-2.6h-2.3v-1.4H26.6z M24.2,2.4v14.4H2.3V2.4H24.2z M13.3,4.4
		c-4.7,0-8.5,3.8-8.5,8.6v0.9h6.7c0.5,1,1.6,1.3,2.6,0.9c0.4-0.2,0.7-0.5,0.9-0.9h6.9v-0.9C21.8,8.2,18,4.4,13.3,4.4L13.3,4.4z
		 M8.6,9.2l1-1L9,7.6c1-0.9,2.3-1.4,3.6-1.5V7H14V6.1c1.3,0.1,2.6,0.7,3.6,1.5L17,8.2l1,1l0.6-0.6c0.8,1,1.3,2.2,1.5,3.5h-5.2
		c-0.1-0.1-0.2-0.3-0.2-0.4l1.7-4.1l-1.6-0.6L13.1,11c-0.7,0-1.3,0.4-1.7,1.1h-5C6.6,10.8,7.2,9.6,8,8.6L8.6,9.2z"/>
</g>
</svg>
