<?xml version="1.0" encoding="utf-8"?>
<!-- Generator: Adobe Illustrator 26.4.1, SVG Export Plug-In . SVG Version: 6.00 Build 0)  -->
<svg version="1.1" id="Layer_1" xmlns="http://www.w3.org/2000/svg" xmlns:xlink="http://www.w3.org/1999/xlink" x="0px" y="0px"
	 viewBox="0 0 27.6 27.3" style="enable-background:new 0 0 27.6 27.3;" xml:space="preserve">
<style type="text/css">
	.st0{fill:url(#SVGID_1_);}
</style>
<g id="Layer_1_00000117663860077757208970000004738512292029857446_">
	
		<linearGradient id="SVGID_1_" gradientUnits="userSpaceOnUse" x1="1.3572" y1="1.4934" x2="26.8575" y2="27.0037" gradientTransform="matrix(1 0 0 -1 0 30.14)">
		<stop  offset="0.1" style="stop-color:#2814FF"/>
		<stop  offset="0.14" style="stop-color:#2324FF"/>
		<stop  offset="0.3" style="stop-color:#145BFF"/>
		<stop  offset="0.43" style="stop-color:#0983FF"/>
		<stop  offset="0.54" style="stop-color:#029BFF"/>
		<stop  offset="0.61" style="stop-color:#00A4FF"/>
		<stop  offset="0.66" style="stop-color:#00ACCE"/>
		<stop  offset="0.72" style="stop-color:#00B590"/>
		<stop  offset="0.79" style="stop-color:#00BD5D"/>
		<stop  offset="0.84" style="stop-color:#00C434"/>
		<stop  offset="0.9" style="stop-color:#00C818"/>
		<stop  offset="0.95" style="stop-color:#00CB06"/>
		<stop  offset="0.98" style="stop-color:#00CC00"/>
	</linearGradient>
	<path class="st0" d="M23.7,0h-12v12.7H9.8l-2-2H0v16.6h22.1v-6.9h5.5V3.9L23.7,0z M13.9,12.7V2.2h8.3v3.2h3.2v12.8h-3.3v-5.6H13.9z
		 M6.9,12.8l2,2h11v10.2H2.2V12.8H6.9z M12.9,18.7c0-1-0.8-1.8-1.8-1.8c0,0,0,0,0,0c-1,0-1.8,0.8-1.8,1.8c0,0,0,0,0,0v0.5H8.9v3.6
		h4.3v-3.6h-0.3L12.9,18.7z M10.3,18.7c0-0.4,0.3-0.8,0.8-0.8l0,0c0.2,0,0.4,0.1,0.5,0.2c0.1,0.1,0.2,0.3,0.2,0.5v0.5h-1.5V18.7z
		 M21.5,8.1V7.5c0-0.5-0.2-1-0.5-1.3c-0.7-0.7-1.9-0.7-2.6,0C18,6.5,17.8,7,17.8,7.5v0.6h-0.3v3.6h4.4V8.1H21.5z M18.9,7.5
		c0-0.4,0.3-0.8,0.8-0.8c0.2,0,0.4,0.1,0.5,0.2c0.1,0.1,0.2,0.3,0.2,0.5v0.5h-1.5V7.5z"/>
</g>
</svg>
