<?xml version="1.0" encoding="utf-8"?>
<!-- Generator: Adobe Illustrator 26.4.1, SVG Export Plug-In . SVG Version: 6.00 Build 0)  -->
<svg version="1.1" id="Layer_1" xmlns="http://www.w3.org/2000/svg" xmlns:xlink="http://www.w3.org/1999/xlink" x="0px" y="0px"
	 viewBox="0 0 25.2 29.2" style="enable-background:new 0 0 25.2 29.2;" xml:space="preserve">
<style type="text/css">
	.st0{fill:url(#SVGID_1_);}
</style>
<linearGradient id="SVGID_1_" gradientUnits="userSpaceOnUse" x1="0.8" y1="6.2" x2="23.0571" y2="28.457" gradientTransform="matrix(1 0 0 -1 0 32)">
	<stop  offset="0.1" style="stop-color:#2814FF"/>
	<stop  offset="0.1435" style="stop-color:#2324FF"/>
	<stop  offset="0.2998" style="stop-color:#145BFF"/>
	<stop  offset="0.4347" style="stop-color:#0983FF"/>
	<stop  offset="0.5417" style="stop-color:#029BFF"/>
	<stop  offset="0.6072" style="stop-color:#00A4FF"/>
	<stop  offset="0.6551" style="stop-color:#00ACCE"/>
	<stop  offset="0.7216" style="stop-color:#00B590"/>
	<stop  offset="0.7855" style="stop-color:#00BD5D"/>
	<stop  offset="0.8449" style="stop-color:#00C434"/>
	<stop  offset="0.8989" style="stop-color:#00C818"/>
	<stop  offset="0.9457" style="stop-color:#00CB06"/>
	<stop  offset="0.98" style="stop-color:#00CC00"/>
</linearGradient>
<path class="st0" d="M25.2,9.7c0-5-3.9-9.3-8.9-9.7h-0.7c-0.1,0-0.2,0-0.3,0h-0.7l0,0c-3,0.3-5.8,1.9-7.4,4.6H0V25h9l4,4.2h6.4v-10
	l-0.5-0.5C22.7,17.3,25.2,13.8,25.2,9.7z M14.5,10.7v2.2h-1.3v-2.2H14.5z M14.5,6.5v2.2h-1.3V6.5H14.5z M13.7,4.6
	c0.3-0.5,0.5-0.9,0.8-1.2v1.2H13.7z M9.6,4.6c0.9-1,1.9-1.7,3.1-2.2c-0.5,0.7-0.9,1.4-1.3,2.2H9.6z M11.3,19.3l-0.6-0.6
	c-0.5-0.5-1.2-0.8-1.9-0.9c-0.7,0-1.4,0.3-2,0.8c-0.5,0.5-0.8,1.2-0.9,1.9c0,0.6,0.2,1.2,0.5,1.6H2V6.5h9.3V19.3z M8.1,20.1
	c0.2-0.1,0.4-0.2,0.6-0.2s0.4,0.1,0.6,0.3l3.9,3.9V16l4.3,4.1v7.2h-3.6l-5.8-6c-0.2-0.2-0.2-0.4-0.2-0.6S7.9,20.2,8.1,20.1z
	 M16.4,12.9v-2.2h2.3c-0.1,0.7-0.3,1.4-0.6,2.2H16.4z M18.2,17c0.5-0.7,0.9-1.4,1.3-2.2h1.9C20.4,15.8,19.4,16.5,18.2,17z M16.4,16
	v-1.2h0.8C17,15.2,16.7,15.6,16.4,16z M16.4,4.6V3.4c0.3,0.4,0.5,0.8,0.8,1.2H16.4z M23.2,8.7h-2.5c-0.1-0.7-0.2-1.5-0.5-2.2h2.3
	C22.9,7.2,23.1,7.9,23.2,8.7z M19.4,4.6c-0.4-0.7-0.8-1.5-1.3-2.2c1.2,0.4,2.3,1.2,3.1,2.2H19.4z M16.4,8.7V6.5h1.7
	c0.3,0.8,0.5,1.5,0.6,2.2H16.4z M23.2,10.7c-0.1,0.8-0.3,1.5-0.6,2.2h-2.3c0.2-0.7,0.4-1.5,0.5-2.2H23.2z M6.6,24
	c-0.2,0-0.5-0.2-0.5-0.5S6.3,23,6.6,23c0.2,0,0.5,0.2,0.5,0.5S6.9,24,6.6,24z M6.6,16.4l0.2-0.3c0,0,1.4-2.4,1.9-3.1
	c0.4-0.6,0.6-1.2,0.6-1.7c0-1.5-1.2-2.8-2.8-2.8c-1.5,0-2.8,1.2-2.8,2.8c0,0.6,0.2,1.2,0.6,1.7c0.5,0.7,1.9,3.1,1.9,3.1L6.6,16.4z
	 M5.7,11.1c0-0.5,0.4-0.9,0.9-0.9c0.5,0,0.9,0.4,0.9,0.9S7.1,12,6.6,12S5.7,11.6,5.7,11.1z"/>
</svg>
