<?xml version="1.0" encoding="utf-8"?>
<!-- Generator: Adobe Illustrator 26.4.1, SVG Export Plug-In . SVG Version: 6.00 Build 0)  -->
<svg version="1.1" id="Layer_1" xmlns="http://www.w3.org/2000/svg" xmlns:xlink="http://www.w3.org/1999/xlink" x="0px" y="0px"
	 viewBox="0 0 22.5 28.5" style="enable-background:new 0 0 22.5 28.5;" xml:space="preserve">
<style type="text/css">
	.st0{fill:url(#SVGID_1_);}
</style>
<linearGradient id="SVGID_1_" gradientUnits="userSpaceOnUse" x1="0.95" y1="6.65" x2="20.386" y2="26.086" gradientTransform="matrix(1 0 0 -1 0 31.2)">
	<stop  offset="0.1" style="stop-color:#2814FF"/>
	<stop  offset="0.1435" style="stop-color:#2324FF"/>
	<stop  offset="0.2998" style="stop-color:#145BFF"/>
	<stop  offset="0.4347" style="stop-color:#0983FF"/>
	<stop  offset="0.5417" style="stop-color:#029BFF"/>
	<stop  offset="0.6072" style="stop-color:#00A4FF"/>
	<stop  offset="0.6551" style="stop-color:#00ACCE"/>
	<stop  offset="0.7216" style="stop-color:#00B590"/>
	<stop  offset="0.7855" style="stop-color:#00BD5D"/>
	<stop  offset="0.8449" style="stop-color:#00C434"/>
	<stop  offset="0.8989" style="stop-color:#00C818"/>
	<stop  offset="0.9457" style="stop-color:#00CB06"/>
	<stop  offset="0.98" style="stop-color:#00CC00"/>
</linearGradient>
<path class="st0" d="M15.2,10V0H0v23.6h10.4l4.7,4.9h7.4V17L15.2,10z M9.3,17.9c0.4-0.4,1-0.4,1.4,0l4.5,4.5V13l5,4.9v8.4H16l-6.7-7
	C9.1,19.1,9,18.9,9,18.6S9.1,18.1,9.3,17.9z M2.2,2.1H13V9v8.1l-0.7-0.7c-1.2-1.3-3.2-1.3-4.5-0.1c-0.6,0.6-1,1.4-1,2.2
	c0,0.7,0.2,1.3,0.5,1.8H2.2V2.1z M11.6,10.4l-0.8-0.8v3.3H8.6v-2.5H6.5v2.5H4.3V9.6l-0.8,0.8L2.9,9.8l4.7-4.7l1.7,1.7V5.7h1v2.1
	l1.9,1.9L11.6,10.4z M7.6,22.5c-0.3,0-0.5-0.2-0.5-0.5s0.2-0.5,0.5-0.5s0.5,0.2,0.5,0.5S7.9,22.5,7.6,22.5z"/>
</svg>
