<?xml version="1.0" encoding="utf-8"?>
<!-- Generator: Adobe Illustrator 26.4.1, SVG Export Plug-In . SVG Version: 6.00 Build 0)  -->
<svg version="1.1" id="Layer_1" xmlns="http://www.w3.org/2000/svg" xmlns:xlink="http://www.w3.org/1999/xlink" x="0px" y="0px"
	 viewBox="0 0 27.5 28.8" style="enable-background:new 0 0 27.5 28.8;" xml:space="preserve">
<style type="text/css">
	.st0{fill:url(#SVGID_1_);}
</style>
<linearGradient id="SVGID_1_" gradientUnits="userSpaceOnUse" x1="-2.3" y1="5.1" x2="22.1854" y2="29.5853" gradientTransform="matrix(1 0 0 -1 0 31.6)">
	<stop  offset="0.1" style="stop-color:#2814FF"/>
	<stop  offset="0.1435" style="stop-color:#2324FF"/>
	<stop  offset="0.2998" style="stop-color:#145BFF"/>
	<stop  offset="0.4347" style="stop-color:#0983FF"/>
	<stop  offset="0.5417" style="stop-color:#029BFF"/>
	<stop  offset="0.6072" style="stop-color:#00A4FF"/>
	<stop  offset="0.6551" style="stop-color:#00ACCE"/>
	<stop  offset="0.7216" style="stop-color:#00B590"/>
	<stop  offset="0.7855" style="stop-color:#00BD5D"/>
	<stop  offset="0.8449" style="stop-color:#00C434"/>
	<stop  offset="0.8989" style="stop-color:#00C818"/>
	<stop  offset="0.9457" style="stop-color:#00CB06"/>
	<stop  offset="0.98" style="stop-color:#00CC00"/>
</linearGradient>
<path class="st0" d="M23.7,4.9c-0.7-1.6-2.4-2.5-4.1-2.3C18.6,1,16.9,0,15,0c-2.2,0-4.2,1.4-5,3.4H0v25.4h16.2v-16h7.3
	c2.2,0,4-1.8,4-4C27.4,6.7,25.8,5,23.7,4.9z M2.2,25.4V5.7H14v19.7H2.2z M12.6,3.5c0.6-0.8,1.5-1.3,2.5-1.3c1.3,0,2.5,0.8,3,2.1
	l0.4,1.1l1.1-0.5c1-0.5,2.1,0.2,2.3,1.2L22,7.3l1.1-0.2c1.2-0.2,2.1,0.6,2.1,1.7c0,1-0.8,1.8-1.8,1.8h-7.3V3.5
	C16.1,3.5,12.6,3.5,12.6,3.5z M8.1,27.6c-0.3,0-0.6-0.3-0.6-0.6s0.3-0.6,0.6-0.6c0.3,0,0.6,0.3,0.6,0.6S8.4,27.6,8.1,27.6z M11,14
	v-1c0-0.8-0.3-1.5-0.8-2s-1.2-0.8-2-0.8c-1.6,0-2.8,1.3-2.8,2.8v1H4.9v5.5h6.7V14H11z M6.8,14v-1c0-0.8,0.6-1.4,1.4-1.4
	c0.4,0,0.7,0.2,1,0.4c0.3,0.3,0.4,0.6,0.4,1v1H6.8z"/>
</svg>
