<?xml version="1.0" encoding="utf-8"?>
<!-- Generator: Adobe Illustrator 26.4.1, SVG Export Plug-In . SVG Version: 6.00 Build 0)  -->
<svg version="1.1" id="Layer_1" xmlns="http://www.w3.org/2000/svg" xmlns:xlink="http://www.w3.org/1999/xlink" x="0px" y="0px"
	 viewBox="0 0 19.5 26.3" style="enable-background:new 0 0 19.5 26.3;" xml:space="preserve">
<style type="text/css">
	.st0{fill:none;}
	.st1{fill:url(#SVGID_1_);}
	.st2{fill:url(#SVGID_00000018941346163486610510000010110727200253792155_);}
	.st3{fill:url(#SVGID_00000034809501066651821410000014393901933134067594_);}
	.st4{fill:url(#SVGID_00000074435246633043010580000000899394174843342502_);}
	.st5{fill:url(#SVGID_00000013888157794591478140000017926281194500407936_);}
	.st6{fill:url(#SVGID_00000103957950372296614710000012765502064805880222_);}
	.st7{fill:url(#SVGID_00000137095214113778849520000003752223367340461990_);}
</style>
<g>
	<path class="st0" d="M6.3,7.9c0.3,0,0.8-0.6,0.8-1.6C7,6.2,6.9,6,6.8,5.9C6.6,6.1,6.2,6.5,5.5,6.7C5.7,7.4,6,7.9,6.3,7.9z"/>
	<path class="st0" d="M6.4,19.5c0.3,0,0.8-0.5,0.8-1.4c0-0.1,0-0.2,0-0.2l0,0c-0.5-0.3-1-0.3-1.5,0l0,0c0,0.1,0,0.2,0,0.2
		C5.6,19,6,19.5,6.4,19.5z"/>
	<path class="st0" d="M6.4,13.8c0.3,0,0.8-0.6,0.8-1.7c0-0.1,0-0.2,0-0.4c-0.6,0.1-1.3-0.3-1.5-0.5l0,0l0,0
		c-0.1,0.3-0.1,0.5-0.1,0.8C5.6,13.2,6,13.8,6.4,13.8z"/>
	<path class="st0" d="M2.3,22.4h15V2.2h-15V22.4z M9.7,6.4h5.8v1.4H9.7V6.4z M9.7,11.6h5.8V13H9.7V11.6z M9.7,16.8h5.8v1.4H9.7V16.8
		z M4.5,5.6c0-0.5,0.2-1,0.7-1.2c0-0.2-0.1-0.5,0.1-0.8s0.5-0.4,1-0.4s0.8,0.1,1,0.4c0.2,0.3,0.2,0.6,0.1,0.8
		c0.4,0.3,0.7,0.7,0.7,1.3c0,0.2,0.1,0.4,0.1,0.6C8.2,7.8,7.4,9,6.3,9S4.4,7.8,4.4,6.3C4.4,6,4.5,5.8,4.5,5.6z M4.4,11
		c0.1-0.7,0.9-0.9,1.3-0.9c0.9-0.4,1.6-0.1,1.9,0.2h0.1l0.1,0.1c0.2,0.2,0.4,0.5,0.4,0.7c0.1,0.3,0,0.8,0,1.1l0,0
		c0,1.5-0.8,2.8-1.9,2.8c-1,0-1.8-1.1-1.9-2.6C4.4,12.1,4.3,11.6,4.4,11z M4.8,16.7L4.8,16.7L4.8,16.7c0.7-0.6,1.5-0.9,1.6-0.9l0,0
		l0,0c0,0,0.9,0.3,1.5,0.8H8v0.1c0.3,0.3,0.4,0.6,0.4,0.9s-0.1,0.7-0.2,1c-0.2,1.2-0.9,2-1.8,2s-1.7-0.8-1.8-2
		c-0.1-0.3-0.1-0.6-0.1-0.9C4.4,17.3,4.5,17,4.8,16.7z"/>
	
		<linearGradient id="SVGID_1_" gradientUnits="userSpaceOnUse" x1="-3.2491" y1="6.0509" x2="19.6491" y2="28.9491" gradientTransform="matrix(1 0 0 -1 0 29)">
		<stop  offset="0.1" style="stop-color:#2814FF"/>
		<stop  offset="0.1435" style="stop-color:#2324FF"/>
		<stop  offset="0.2998" style="stop-color:#145BFF"/>
		<stop  offset="0.4347" style="stop-color:#0983FF"/>
		<stop  offset="0.5417" style="stop-color:#029BFF"/>
		<stop  offset="0.6072" style="stop-color:#00A4FF"/>
		<stop  offset="0.6551" style="stop-color:#00ACCE"/>
		<stop  offset="0.7216" style="stop-color:#00B590"/>
		<stop  offset="0.7855" style="stop-color:#00BD5D"/>
		<stop  offset="0.8449" style="stop-color:#00C434"/>
		<stop  offset="0.8989" style="stop-color:#00C818"/>
		<stop  offset="0.9457" style="stop-color:#00CB06"/>
		<stop  offset="0.98" style="stop-color:#00CC00"/>
	</linearGradient>
	<rect x="9.7" y="6.4" class="st1" width="5.8" height="1.4"/>
	
		<linearGradient id="SVGID_00000183934159604416449810000006736517273310840237_" gradientUnits="userSpaceOnUse" x1="-0.6491" y1="3.4509" x2="22.2491" y2="26.3491" gradientTransform="matrix(1 0 0 -1 0 29)">
		<stop  offset="0.1" style="stop-color:#2814FF"/>
		<stop  offset="0.1435" style="stop-color:#2324FF"/>
		<stop  offset="0.2998" style="stop-color:#145BFF"/>
		<stop  offset="0.4347" style="stop-color:#0983FF"/>
		<stop  offset="0.5417" style="stop-color:#029BFF"/>
		<stop  offset="0.6072" style="stop-color:#00A4FF"/>
		<stop  offset="0.6551" style="stop-color:#00ACCE"/>
		<stop  offset="0.7216" style="stop-color:#00B590"/>
		<stop  offset="0.7855" style="stop-color:#00BD5D"/>
		<stop  offset="0.8449" style="stop-color:#00C434"/>
		<stop  offset="0.8989" style="stop-color:#00C818"/>
		<stop  offset="0.9457" style="stop-color:#00CB06"/>
		<stop  offset="0.98" style="stop-color:#00CC00"/>
	</linearGradient>
	<rect x="9.7" y="11.6" style="fill:url(#SVGID_00000183934159604416449810000006736517273310840237_);" width="5.8" height="1.4"/>
	
		<linearGradient id="SVGID_00000147183813618645049700000003466482597517360777_" gradientUnits="userSpaceOnUse" x1="1.9509" y1="0.8509" x2="24.8491" y2="23.7491" gradientTransform="matrix(1 0 0 -1 0 29)">
		<stop  offset="0.1" style="stop-color:#2814FF"/>
		<stop  offset="0.1435" style="stop-color:#2324FF"/>
		<stop  offset="0.2998" style="stop-color:#145BFF"/>
		<stop  offset="0.4347" style="stop-color:#0983FF"/>
		<stop  offset="0.5417" style="stop-color:#029BFF"/>
		<stop  offset="0.6072" style="stop-color:#00A4FF"/>
		<stop  offset="0.6551" style="stop-color:#00ACCE"/>
		<stop  offset="0.7216" style="stop-color:#00B590"/>
		<stop  offset="0.7855" style="stop-color:#00BD5D"/>
		<stop  offset="0.8449" style="stop-color:#00C434"/>
		<stop  offset="0.8989" style="stop-color:#00C818"/>
		<stop  offset="0.9457" style="stop-color:#00CB06"/>
		<stop  offset="0.98" style="stop-color:#00CC00"/>
	</linearGradient>
	<rect x="9.7" y="16.8" style="fill:url(#SVGID_00000147183813618645049700000003466482597517360777_);" width="5.8" height="1.4"/>
	
		<linearGradient id="SVGID_00000122711242380560087360000010233562456857080968_" gradientUnits="userSpaceOnUse" x1="-6.9597" y1="9.7615" x2="15.9385" y2="32.6597" gradientTransform="matrix(1 0 0 -1 0 29)">
		<stop  offset="0.1" style="stop-color:#2814FF"/>
		<stop  offset="0.1435" style="stop-color:#2324FF"/>
		<stop  offset="0.2998" style="stop-color:#145BFF"/>
		<stop  offset="0.4347" style="stop-color:#0983FF"/>
		<stop  offset="0.5417" style="stop-color:#029BFF"/>
		<stop  offset="0.6072" style="stop-color:#00A4FF"/>
		<stop  offset="0.6551" style="stop-color:#00ACCE"/>
		<stop  offset="0.7216" style="stop-color:#00B590"/>
		<stop  offset="0.7855" style="stop-color:#00BD5D"/>
		<stop  offset="0.8449" style="stop-color:#00C434"/>
		<stop  offset="0.8989" style="stop-color:#00C818"/>
		<stop  offset="0.9457" style="stop-color:#00CB06"/>
		<stop  offset="0.98" style="stop-color:#00CC00"/>
	</linearGradient>
	<path style="fill:url(#SVGID_00000122711242380560087360000010233562456857080968_);" d="M6.3,8.9c1,0,1.9-1.2,1.9-2.7
		c0-0.2,0-0.4-0.1-0.6c0-0.6-0.2-1-0.7-1.3c0-0.2,0.1-0.5-0.1-0.8s-0.5-0.4-1-0.4s-0.8,0.1-1,0.4C5.1,3.8,5.1,4.1,5.2,4.3
		C4.8,4.6,4.5,5,4.5,5.5c0,0.2-0.1,0.5-0.1,0.7C4.4,7.8,5.3,8.9,6.3,8.9z M6.8,5.9C6.9,6,6.9,6.1,7.1,6.3c0,1-0.5,1.6-0.8,1.6
		S5.6,7.4,5.5,6.7C6.3,6.4,6.7,6.1,6.8,5.9z"/>
	
		<linearGradient id="SVGID_00000080165598581860393050000015838415139362986881_" gradientUnits="userSpaceOnUse" x1="-1.6491" y1="4.4509" x2="21.2509" y2="27.3509" gradientTransform="matrix(1 0 0 -1 0 29)">
		<stop  offset="0.1" style="stop-color:#2814FF"/>
		<stop  offset="0.1435" style="stop-color:#2324FF"/>
		<stop  offset="0.2998" style="stop-color:#145BFF"/>
		<stop  offset="0.4347" style="stop-color:#0983FF"/>
		<stop  offset="0.5417" style="stop-color:#029BFF"/>
		<stop  offset="0.6072" style="stop-color:#00A4FF"/>
		<stop  offset="0.6551" style="stop-color:#00ACCE"/>
		<stop  offset="0.7216" style="stop-color:#00B590"/>
		<stop  offset="0.7855" style="stop-color:#00BD5D"/>
		<stop  offset="0.8449" style="stop-color:#00C434"/>
		<stop  offset="0.8989" style="stop-color:#00C818"/>
		<stop  offset="0.9457" style="stop-color:#00CB06"/>
		<stop  offset="0.98" style="stop-color:#00CC00"/>
	</linearGradient>
	<path style="fill:url(#SVGID_00000080165598581860393050000015838415139362986881_);" d="M0,0v26.3h19.5V0H0z M9.8,25
		c-0.4,0-0.7-0.3-0.7-0.7s0.3-0.7,0.7-0.7s0.7,0.3,0.7,0.7C10.5,24.7,10.2,25,9.8,25z M17.3,22.4h-15V2.2h15V22.4z"/>
	
		<linearGradient id="SVGID_00000033335156001773585250000011009327133269779641_" gradientUnits="userSpaceOnUse" x1="-0.8449" y1="3.6467" x2="22.0533" y2="26.5449" gradientTransform="matrix(1 0 0 -1 0 29)">
		<stop  offset="0.1" style="stop-color:#2814FF"/>
		<stop  offset="0.1435" style="stop-color:#2324FF"/>
		<stop  offset="0.2998" style="stop-color:#145BFF"/>
		<stop  offset="0.4347" style="stop-color:#0983FF"/>
		<stop  offset="0.5417" style="stop-color:#029BFF"/>
		<stop  offset="0.6072" style="stop-color:#00A4FF"/>
		<stop  offset="0.6551" style="stop-color:#00ACCE"/>
		<stop  offset="0.7216" style="stop-color:#00B590"/>
		<stop  offset="0.7855" style="stop-color:#00BD5D"/>
		<stop  offset="0.8449" style="stop-color:#00C434"/>
		<stop  offset="0.8989" style="stop-color:#00C818"/>
		<stop  offset="0.9457" style="stop-color:#00CB06"/>
		<stop  offset="0.98" style="stop-color:#00CC00"/>
	</linearGradient>
	<path style="fill:url(#SVGID_00000033335156001773585250000011009327133269779641_);" d="M6.4,20.6c0.9,0,1.6-0.8,1.8-2
		c0.1-0.4,0.1-0.7,0.2-1c0-0.3-0.1-0.6-0.4-0.9v-0.1H7.9c-0.6-0.5-1.4-0.8-1.5-0.8l0,0l0,0c0,0-0.9,0.3-1.5,0.8H4.8v0.1
		c-0.3,0.3-0.4,0.6-0.4,0.9s0.1,0.6,0.1,0.9C4.7,19.8,5.4,20.6,6.4,20.6z M5.6,17.8L5.6,17.8c0.5-0.3,1-0.4,1.5,0l0,0
		c0,0.1,0,0.2,0,0.2c0,0.9-0.5,1.4-0.8,1.4S5.5,18.9,5.5,18C5.6,18,5.6,17.9,5.6,17.8z"/>
	
		<linearGradient id="SVGID_00000136411808136300115680000013299830708511587501_" gradientUnits="userSpaceOnUse" x1="-3.8324" y1="6.6342" x2="19.0658" y2="29.5324" gradientTransform="matrix(1 0 0 -1 0 29)">
		<stop  offset="0.1" style="stop-color:#2814FF"/>
		<stop  offset="0.1435" style="stop-color:#2324FF"/>
		<stop  offset="0.2998" style="stop-color:#145BFF"/>
		<stop  offset="0.4347" style="stop-color:#0983FF"/>
		<stop  offset="0.5417" style="stop-color:#029BFF"/>
		<stop  offset="0.6072" style="stop-color:#00A4FF"/>
		<stop  offset="0.6551" style="stop-color:#00ACCE"/>
		<stop  offset="0.7216" style="stop-color:#00B590"/>
		<stop  offset="0.7855" style="stop-color:#00BD5D"/>
		<stop  offset="0.8449" style="stop-color:#00C434"/>
		<stop  offset="0.8989" style="stop-color:#00C818"/>
		<stop  offset="0.9457" style="stop-color:#00CB06"/>
		<stop  offset="0.98" style="stop-color:#00CC00"/>
	</linearGradient>
	<path style="fill:url(#SVGID_00000136411808136300115680000013299830708511587501_);" d="M6.4,14.9c1.1,0,1.9-1.2,1.9-2.8l0,0
		c0.1-0.3,0.1-0.8,0-1.1c-0.1-0.2-0.2-0.5-0.4-0.7l-0.1-0.1H7.7c-0.3-0.3-1-0.6-1.9-0.2c-0.4,0-1.2,0.2-1.3,0.9
		c-0.1,0.6,0,1.2,0.1,1.4C4.6,13.8,5.4,14.9,6.4,14.9z M5.7,11.3L5.7,11.3L5.7,11.3c0.2,0.1,0.8,0.5,1.5,0.5c0,0.1,0,0.3,0,0.4
		c0,1-0.5,1.7-0.8,1.7s-0.8-0.6-0.8-1.7C5.6,11.9,5.6,11.6,5.7,11.3z"/>
</g>
</svg>
