<?xml version="1.0" encoding="utf-8"?>
<!-- Generator: Adobe Illustrator 26.4.1, SVG Export Plug-In . SVG Version: 6.00 Build 0)  -->
<svg version="1.1" id="Layer_1" xmlns="http://www.w3.org/2000/svg" xmlns:xlink="http://www.w3.org/1999/xlink" x="0px" y="0px"
	 viewBox="0 0 29.8 22" style="enable-background:new 0 0 29.8 22;" xml:space="preserve">
<style type="text/css">
	.st0{fill:url(#SVGID_1_);}
</style>
<linearGradient id="SVGID_1_" gradientUnits="userSpaceOnUse" x1="2.6" y1="0.2" x2="27.25" y2="24.85" gradientTransform="matrix(1 0 0 -1 0 24.8)">
	<stop  offset="0.1" style="stop-color:#2814FF"/>
	<stop  offset="0.1435" style="stop-color:#2324FF"/>
	<stop  offset="0.2998" style="stop-color:#145BFF"/>
	<stop  offset="0.4347" style="stop-color:#0983FF"/>
	<stop  offset="0.5417" style="stop-color:#029BFF"/>
	<stop  offset="0.6072" style="stop-color:#00A4FF"/>
	<stop  offset="0.6551" style="stop-color:#00ACCE"/>
	<stop  offset="0.7216" style="stop-color:#00B590"/>
	<stop  offset="0.7855" style="stop-color:#00BD5D"/>
	<stop  offset="0.8449" style="stop-color:#00C434"/>
	<stop  offset="0.8989" style="stop-color:#00C818"/>
	<stop  offset="0.9457" style="stop-color:#00CB06"/>
	<stop  offset="0.98" style="stop-color:#00CC00"/>
</linearGradient>
<path class="st0" d="M2.6,0v17.5h24.7V0H2.6z M5,15.2V2.4h20v12.8H5z M29.8,19.6V22H0v-2.4C0,19.6,29.8,19.6,29.8,19.6z M9.6,8.3
	c0.9,0,1.7-1.1,1.7-2.4c0-0.3,0-0.5-0.1-0.8c-0.1-0.4-0.2-0.6-0.5-0.8c0-0.1,0-0.4-0.1-0.7c-0.2-0.2-0.5-0.3-0.9-0.3S9,3.4,8.8,3.6
	S8.7,4.1,8.7,4.3C8.4,4.5,8.2,4.8,8.2,5.1C8.1,5.4,8.1,5.7,8.1,5.9C7.9,7.3,8.7,8.3,9.6,8.3z M9,6.3c0.6-0.2,0.9-0.5,1-0.7
	c0,0.1,0.1,0.2,0.2,0.3l0,0c0,0.8-0.4,1.3-0.6,1.3C9.4,7.3,9.1,6.9,9,6.3z M22.1,6v1.3h-8.8V6H22.1z M13.3,10.2h8.9v1.3h-8.9V10.2z
	 M11.4,9.8c0-0.1-0.1-0.3-0.3-0.5L11,9h-0.2c-0.3-0.2-0.9-0.5-1.6-0.1c-0.1,0-0.3,0-0.6,0.1H8.5v0.1C8.3,9.2,8.1,9.4,8.1,9.7
	c-0.1,0.3-0.1,0.7,0,1l0,0c0,1.4,0.7,2.4,1.7,2.4s1.7-1.1,1.7-2.4v-0.1l0,0C11.4,10.3,11.4,10,11.4,9.8z M10.3,10.8
	c0,0.8-0.4,1.4-0.7,1.4s-0.7-0.6-0.7-1.4c0-0.2,0-0.5,0.1-0.7l0,0c0.2,0.1,0.7,0.4,1.2,0.4C10.3,10.6,10.3,10.7,10.3,10.8z"/>
</svg>
