<?xml version="1.0" encoding="utf-8"?>
<!-- Generator: Adobe Illustrator 26.4.1, SVG Export Plug-In . SVG Version: 6.00 Build 0)  -->
<svg version="1.1" id="Layer_1" xmlns="http://www.w3.org/2000/svg" xmlns:xlink="http://www.w3.org/1999/xlink" x="0px" y="0px"
	 viewBox="0 0 23.8 23.8" style="enable-background:new 0 0 23.8 23.8;" xml:space="preserve">
<style type="text/css">
	.st0{fill:url(#SVGID_1_);}
</style>
<g id="Layer_1_00000166676928169438093900000017537109650309890967_">
	
		<linearGradient id="SVGID_1_" gradientUnits="userSpaceOnUse" x1="6.047" y1="6.9379" x2="19.4446" y2="20.3255" gradientTransform="matrix(1 0 0 -1 0 26.38)">
		<stop  offset="0.1" style="stop-color:#2814FF"/>
		<stop  offset="0.14" style="stop-color:#2324FF"/>
		<stop  offset="0.3" style="stop-color:#145BFF"/>
		<stop  offset="0.43" style="stop-color:#0983FF"/>
		<stop  offset="0.54" style="stop-color:#029BFF"/>
		<stop  offset="0.61" style="stop-color:#00A4FF"/>
		<stop  offset="0.66" style="stop-color:#00ACCE"/>
		<stop  offset="0.72" style="stop-color:#00B590"/>
		<stop  offset="0.79" style="stop-color:#00BD5D"/>
		<stop  offset="0.84" style="stop-color:#00C434"/>
		<stop  offset="0.9" style="stop-color:#00C818"/>
		<stop  offset="0.95" style="stop-color:#00CB06"/>
		<stop  offset="0.98" style="stop-color:#00CC00"/>
	</linearGradient>
	<path class="st0" d="M17.2,15c1.2-1.6,1.8-3.5,1.8-5.5c0-5.2-4.2-9.5-9.5-9.5C4.2,0,0,4.2,0,9.5c0,5.2,4.2,9.5,9.5,9.5h0
		c2,0,3.9-0.6,5.5-1.8l6.6,6.6l2.2-2.2L17.2,15z M16.8,9.5c0,4-3.3,7.3-7.3,7.3c-4,0-7.3-3.3-7.3-7.3s3.3-7.3,7.3-7.3
		C13.5,2.2,16.7,5.5,16.8,9.5z M13.9,5.1v2.7h-1.6V6.6h-1V5.1H13.9z M6.6,7.7H5.1V5.1h2.6v1.6H6.6V7.7z M6.6,12.3h1.1v1.5H5.1v-2.6
		h1.5V12.3z M12.3,11.2h1.6v2.6h-2.6v-1.5h1V11.2z M13.8,10.2H5.1V8.7h8.8L13.8,10.2z"/>
</g>
</svg>
