<?xml version="1.0" encoding="utf-8"?>
<!-- Generator: Adobe Illustrator 26.4.1, SVG Export Plug-In . SVG Version: 6.00 Build 0)  -->
<svg version="1.1" id="Layer_1" xmlns="http://www.w3.org/2000/svg" xmlns:xlink="http://www.w3.org/1999/xlink" x="0px" y="0px"
	 viewBox="0 0 27.4 28.7" style="enable-background:new 0 0 27.4 28.7;" xml:space="preserve">
<style type="text/css">
	.st0{fill:url(#SVGID_1_);}
</style>
<g id="Layer_1_00000055693189604520857390000000732892226294068403_">
	
		<linearGradient id="SVGID_1_" gradientUnits="userSpaceOnUse" x1="-2.2725" y1="4.9833" x2="22.2176" y2="29.4734" gradientTransform="matrix(1 0 0 -1 0 31.4217)">
		<stop  offset="0.1" style="stop-color:#2814FF"/>
		<stop  offset="0.14" style="stop-color:#2324FF"/>
		<stop  offset="0.3" style="stop-color:#145BFF"/>
		<stop  offset="0.43" style="stop-color:#0983FF"/>
		<stop  offset="0.54" style="stop-color:#029BFF"/>
		<stop  offset="0.61" style="stop-color:#00A4FF"/>
		<stop  offset="0.66" style="stop-color:#00ACCE"/>
		<stop  offset="0.72" style="stop-color:#00B590"/>
		<stop  offset="0.79" style="stop-color:#00BD5D"/>
		<stop  offset="0.84" style="stop-color:#00C434"/>
		<stop  offset="0.9" style="stop-color:#00C818"/>
		<stop  offset="0.95" style="stop-color:#00CB06"/>
		<stop  offset="0.98" style="stop-color:#00CC00"/>
	</linearGradient>
	<path class="st0" d="M26.2,6c-0.7-0.7-1.5-1.1-2.5-1.1c-0.7-1.6-2.3-2.5-4.1-2.3c-1.5-2.5-4.8-3.3-7.3-1.8c-1,0.6-1.8,1.5-2.2,2.6
		H0v25.3h16.2v-16h7.3c2.2,0,3.9-1.8,3.9-4C27.4,7.7,27,6.7,26.2,6L26.2,6z M2.2,25.3V5.6H14v19.7L2.2,25.3z M12.7,3.4
		c1-1.4,3-1.7,4.4-0.6c0.5,0.4,0.8,0.9,1.1,1.4l0.4,1.1l1.1-0.5c0.8-0.4,1.8,0,2.1,0.8c0.1,0.1,0.1,0.3,0.1,0.4L22,7.3L23.1,7
		C24,6.8,25,7.5,25.2,8.4c0,0.1,0,0.2,0,0.4c0,1-0.8,1.8-1.8,1.8l0,0h-7.2V3.4L12.7,3.4z M8.1,27.5c-0.3,0-0.6-0.3-0.6-0.6
		c0-0.3,0.3-0.6,0.6-0.6c0.3,0,0.6,0.3,0.6,0.6S8.4,27.5,8.1,27.5L8.1,27.5z M8.1,10c-2.8,0-5.2,2.3-5.2,5.1s2.3,5.2,5.1,5.2
		c2.8,0,5.2-2.3,5.2-5.2l0,0C13.2,12.3,10.9,10,8.1,10z M11.9,15.1c0,2.1-1.7,3.8-3.8,3.8c-2.1,0-3.8-1.7-3.8-3.8
		c0-2.1,1.7-3.8,3.8-3.8c0,0,0,0,0,0C10.2,11.4,11.9,13,11.9,15.1z M10.6,13.7l-1.5,1.5l1.5,1.5l-1,1l-1.5-1.5l-1.5,1.5l-1-1
		l1.5-1.5l-1.5-1.5l1-1l1.5,1.5l1.5-1.4L10.6,13.7z"/>
</g>
</svg>
