<?xml version="1.0" encoding="utf-8"?>
<!-- Generator: Adobe Illustrator 26.4.1, SVG Export Plug-In . SVG Version: 6.00 Build 0)  -->
<svg version="1.1" id="Layer_1" xmlns="http://www.w3.org/2000/svg" xmlns:xlink="http://www.w3.org/1999/xlink" x="0px" y="0px"
	 viewBox="0 0 28.1 20.8" style="enable-background:new 0 0 28.1 20.8;" xml:space="preserve">
<style type="text/css">
	.st0{fill:url(#SVGID_1_);}
</style>
<linearGradient id="SVGID_1_" gradientUnits="userSpaceOnUse" x1="1.825" y1="0.975" x2="26.3138" y2="25.4638" gradientTransform="matrix(1 0 0 -1 0 23.6)">
	<stop  offset="0.1" style="stop-color:#2814FF"/>
	<stop  offset="0.1435" style="stop-color:#2324FF"/>
	<stop  offset="0.2998" style="stop-color:#145BFF"/>
	<stop  offset="0.4347" style="stop-color:#0983FF"/>
	<stop  offset="0.5417" style="stop-color:#029BFF"/>
	<stop  offset="0.6072" style="stop-color:#00A4FF"/>
	<stop  offset="0.6551" style="stop-color:#00ACCE"/>
	<stop  offset="0.7216" style="stop-color:#00B590"/>
	<stop  offset="0.7855" style="stop-color:#00BD5D"/>
	<stop  offset="0.8449" style="stop-color:#00C434"/>
	<stop  offset="0.8989" style="stop-color:#00C818"/>
	<stop  offset="0.9457" style="stop-color:#00CB06"/>
	<stop  offset="0.98" style="stop-color:#00CC00"/>
</linearGradient>
<path class="st0" d="M0,0v20.8h28.1V0H0z M2.5,2.4V1.9h11.7v0.5H2.5z M25.2,2.5V1.8h0.7v0.7H25.2z M2.5,18.4V4.1h23.3v14.3H2.5z
	 M16.5,10V9.1c0-0.7-0.3-1.3-0.7-1.7c-0.5-0.5-1.1-0.7-1.7-0.7c-1.4,0-2.4,1.1-2.4,2.4V10h-0.5v4.8H17V10H16.5z M12.9,10V9.1
	c0-0.7,0.5-1.2,1.2-1.2c0.4,0,0.6,0.1,0.9,0.4c0.2,0.2,0.4,0.5,0.4,0.9v0.9L12.9,10L12.9,10z"/>
</svg>
