<?xml version="1.0" encoding="utf-8"?>
<!-- Generator: Adobe Illustrator 26.4.1, SVG Export Plug-In . SVG Version: 6.00 Build 0)  -->
<svg version="1.1" id="Layer_1" xmlns="http://www.w3.org/2000/svg" xmlns:xlink="http://www.w3.org/1999/xlink" x="0px" y="0px"
	 viewBox="0 0 34 25.2" style="enable-background:new 0 0 34 25.2;" xml:space="preserve">
<style type="text/css">
	.st0{fill:url(#SVGID_1_);}
</style>
<linearGradient id="SVGID_1_" gradientUnits="userSpaceOnUse" x1="4.5135" y1="9.2333" x2="33.6415" y2="22.8159" gradientTransform="matrix(1 0 0 -1 0 28)">
	<stop  offset="0.1" style="stop-color:#2814FF"/>
	<stop  offset="0.1435" style="stop-color:#2324FF"/>
	<stop  offset="0.2998" style="stop-color:#145BFF"/>
	<stop  offset="0.4347" style="stop-color:#0983FF"/>
	<stop  offset="0.5417" style="stop-color:#029BFF"/>
	<stop  offset="0.6072" style="stop-color:#00A4FF"/>
	<stop  offset="0.6551" style="stop-color:#00ACCE"/>
	<stop  offset="0.7216" style="stop-color:#00B590"/>
	<stop  offset="0.7855" style="stop-color:#00BD5D"/>
	<stop  offset="0.8449" style="stop-color:#00C434"/>
	<stop  offset="0.8989" style="stop-color:#00C818"/>
	<stop  offset="0.9457" style="stop-color:#00CB06"/>
	<stop  offset="0.98" style="stop-color:#00CC00"/>
</linearGradient>
<path class="st0" d="M26.4,0c-4.2,0-7.7,3.4-7.7,7.7c0,0.2,0,0.4,0,0.6H7.6l3,10.1h14.1l0.9-3.1c0.3,0,0.5,0,0.7,0
	c4.2,0,7.7-3.4,7.7-7.7S30.6,0,26.4,0z M32.1,7.7c0,3.2-2.6,5.7-5.7,5.7s-5.7-2.6-5.7-5.7S23.2,2,26.4,2S32.1,4.5,32.1,7.7z
	 M12,16.5l-1.8-6.2h8.9c0.8,2.1,2.4,3.8,4.6,4.6l-0.5,1.6H12z M28.5,6.5V5.8c0-0.6-0.2-1.1-0.6-1.5c-0.4-0.4-0.9-0.6-1.5-0.6
	c-1.2,0-2.1,1-2.1,2.1v0.7h-0.4v4.2H29V6.5C29,6.5,28.5,6.5,28.5,6.5z M25.4,6.5V5.8c0-0.6,0.5-1,1-1c0.3,0,0.5,0.1,0.7,0.3
	s0.3,0.4,0.3,0.7v0.7H25.4z M23.1,21.8h-1.3c0.1,0.3,0.1,0.5,0.1,0.8c0,1.4-1.2,2.6-2.6,2.6s-2.6-1.2-2.6-2.6c0-0.3,0-0.5,0.1-0.8
	h-3c0.1,0.3,0.1,0.5,0.1,0.8c0,1.4-1.2,2.6-2.6,2.6S8.7,24,8.7,22.6c0-0.3,0-0.5,0.1-0.8h-1L4.5,9.9L0,9l0.4-1.9l5.7,1.1l3.3,11.7
	h13.7V21.8z M12.4,22.6c0-0.6-0.5-1-1-1c-0.6,0-1,0.5-1,1c0,0.6,0.5,1,1,1C12,23.6,12.4,23.2,12.4,22.6z M20.4,22.6c0-0.6-0.5-1-1-1
	s-1,0.5-1,1c0,0.6,0.5,1,1,1S20.4,23.2,20.4,22.6z"/>
</svg>
