<?xml version="1.0" encoding="utf-8"?>
<!-- Generator: Adobe Illustrator 26.4.1, SVG Export Plug-In . SVG Version: 6.00 Build 0)  -->
<svg version="1.1" id="Layer_1" xmlns="http://www.w3.org/2000/svg" xmlns:xlink="http://www.w3.org/1999/xlink" x="0px" y="0px"
	 viewBox="0 0 32.6 28.8" style="enable-background:new 0 0 32.6 28.8;" xml:space="preserve">
<style type="text/css">
	.st0{fill:url(#SVGID_1_);}
	.st1{fill:url(#SVGID_00000002372546754168116840000004056956690382480563_);}
	.st2{fill:url(#SVGID_00000001625149320846361870000010494290227962230687_);}
</style>
<g>
	
		<linearGradient id="SVGID_1_" gradientUnits="userSpaceOnUse" x1="6.664" y1="1.264" x2="24.7813" y2="19.3812" gradientTransform="matrix(1 0 0 -1 0 31.6)">
		<stop  offset="0.1" style="stop-color:#2814FF"/>
		<stop  offset="0.1435" style="stop-color:#2324FF"/>
		<stop  offset="0.2998" style="stop-color:#145BFF"/>
		<stop  offset="0.4347" style="stop-color:#0983FF"/>
		<stop  offset="0.5417" style="stop-color:#029BFF"/>
		<stop  offset="0.6072" style="stop-color:#00A4FF"/>
		<stop  offset="0.6551" style="stop-color:#00ACCE"/>
		<stop  offset="0.7216" style="stop-color:#00B590"/>
		<stop  offset="0.7855" style="stop-color:#00BD5D"/>
		<stop  offset="0.8449" style="stop-color:#00C434"/>
		<stop  offset="0.8989" style="stop-color:#00C818"/>
		<stop  offset="0.9457" style="stop-color:#00CB06"/>
		<stop  offset="0.98" style="stop-color:#00CC00"/>
	</linearGradient>
	<path class="st0" d="M31.1,22.9c0-4-3.2-7.5-7.3-7.9v-0.5h1.3v-1.9h-4.6v1.9h1.3V15c-1.4,0.2-2.7,0.6-3.8,1.4l-3.6-1.3l-0.9,2.3
		l-2.2-1l-2.2,1l-0.9-2.3l-6.3,2.3H1.8L0,23.9h30.9v-1H31.1z M8.2,20.5c0-0.4,0.3-0.8,0.8-0.8s0.8,0.3,0.8,0.8S9.5,21.3,9,21.3
		S8.2,20.9,8.2,20.5z M16.5,21.9c0.5-2.9,3.2-5.1,6.3-5.1s5.8,2.2,6.3,5.1H16.5z M13,20.5c0-0.4,0.3-0.8,0.8-0.8s0.8,0.3,0.8,0.8
		s-0.3,0.8-0.8,0.8S13,20.9,13,20.5z"/>
	
		<linearGradient id="SVGID_00000183934305740706809460000001111406338833028240_" gradientUnits="userSpaceOnUse" x1="17.4638" y1="-0.8362" x2="28.9394" y2="10.6394" gradientTransform="matrix(1 0 0 -1 0 31.6)">
		<stop  offset="0.1" style="stop-color:#2814FF"/>
		<stop  offset="0.1435" style="stop-color:#2324FF"/>
		<stop  offset="0.2998" style="stop-color:#145BFF"/>
		<stop  offset="0.4347" style="stop-color:#0983FF"/>
		<stop  offset="0.5417" style="stop-color:#029BFF"/>
		<stop  offset="0.6072" style="stop-color:#00A4FF"/>
		<stop  offset="0.6551" style="stop-color:#00ACCE"/>
		<stop  offset="0.7216" style="stop-color:#00B590"/>
		<stop  offset="0.7855" style="stop-color:#00BD5D"/>
		<stop  offset="0.8449" style="stop-color:#00C434"/>
		<stop  offset="0.8989" style="stop-color:#00C818"/>
		<stop  offset="0.9457" style="stop-color:#00CB06"/>
		<stop  offset="0.98" style="stop-color:#00CC00"/>
	</linearGradient>
	<path style="fill:url(#SVGID_00000183934305740706809460000001111406338833028240_);" d="M13.8,24.6v4.2h18.8v-4.2H13.8z
		 M15.8,26.8v-0.3h14.9v0.3H15.8z"/>
	
		<linearGradient id="SVGID_00000121253433850282569900000012853860405714754700_" gradientUnits="userSpaceOnUse" x1="5.6813" y1="20.0432" x2="16.7996" y2="31.1615" gradientTransform="matrix(1 0 0 -1 0 31.6)">
		<stop  offset="0.1" style="stop-color:#2814FF"/>
		<stop  offset="0.1435" style="stop-color:#2324FF"/>
		<stop  offset="0.2998" style="stop-color:#145BFF"/>
		<stop  offset="0.4347" style="stop-color:#0983FF"/>
		<stop  offset="0.5417" style="stop-color:#029BFF"/>
		<stop  offset="0.6072" style="stop-color:#00A4FF"/>
		<stop  offset="0.6551" style="stop-color:#00ACCE"/>
		<stop  offset="0.7216" style="stop-color:#00B590"/>
		<stop  offset="0.7855" style="stop-color:#00BD5D"/>
		<stop  offset="0.8449" style="stop-color:#00C434"/>
		<stop  offset="0.8989" style="stop-color:#00C818"/>
		<stop  offset="0.9457" style="stop-color:#00CB06"/>
		<stop  offset="0.98" style="stop-color:#00CC00"/>
	</linearGradient>
	<path style="fill:url(#SVGID_00000121253433850282569900000012853860405714754700_);" d="M11.2,15.6c3,0,5.3-3.7,5.3-8.5
		c0-0.6,0-1.2-0.1-1.9V0H6.1v5.1l0,0C6,5.8,6,6.4,6,7C6,11.8,8.3,15.6,11.2,15.6z M8,3.6V2h6.4v1.6H8z M13.2,6l1.3,2.3
		c-0.3,3-1.7,5.3-3.3,5.3c-1.4,0-2.8-2-3.2-4.8C10.6,8.5,12.4,6.8,13.2,6z"/>
</g>
</svg>
