<?xml version="1.0" encoding="utf-8"?>
<!-- Generator: Adobe Illustrator 26.4.1, SVG Export Plug-In . SVG Version: 6.00 Build 0)  -->
<svg version="1.1" id="Layer_1" xmlns="http://www.w3.org/2000/svg" xmlns:xlink="http://www.w3.org/1999/xlink" x="0px" y="0px"
	 viewBox="0 0 30 27.5" style="enable-background:new 0 0 30 27.5;" xml:space="preserve">
<style type="text/css">
	.st0{fill:url(#SVGID_1_);}
</style>
<linearGradient id="SVGID_1_" gradientUnits="userSpaceOnUse" x1="3.6485" y1="3.7986" x2="26.7346" y2="26.8846" gradientTransform="matrix(1 0 0 -1 0 30.2)">
	<stop  offset="0.1" style="stop-color:#2814FF"/>
	<stop  offset="0.1435" style="stop-color:#2324FF"/>
	<stop  offset="0.2998" style="stop-color:#145BFF"/>
	<stop  offset="0.4347" style="stop-color:#0983FF"/>
	<stop  offset="0.5417" style="stop-color:#029BFF"/>
	<stop  offset="0.6072" style="stop-color:#00A4FF"/>
	<stop  offset="0.6551" style="stop-color:#00ACCE"/>
	<stop  offset="0.7216" style="stop-color:#00B590"/>
	<stop  offset="0.7855" style="stop-color:#00BD5D"/>
	<stop  offset="0.8449" style="stop-color:#00C434"/>
	<stop  offset="0.8989" style="stop-color:#00C818"/>
	<stop  offset="0.9457" style="stop-color:#00CB06"/>
	<stop  offset="0.98" style="stop-color:#00CC00"/>
</linearGradient>
<path class="st0" d="M18.6,0C12.3,0,7.1,5.1,7.1,11.5c0,0.1,0,0.2,0,0.4c-4,0.4-7.1,3.8-7.1,7.8c0,4.3,3.5,7.8,7.8,7.8
	c3.2,0,6.2-2,7.3-5c1.1,0.4,2.3,0.5,3.4,0.5C24.8,23,30,17.9,30,11.5C30.1,5.1,25,0,18.6,0z M9.5,11.9c0-0.2,0-0.3,0-0.5
	c0-5.1,4.1-9.2,9.2-9.2s9.2,4.1,9.2,9.2s-4.1,9.2-9.2,9.2c-1,0-2-0.2-2.9-0.5c0-0.2,0-0.4,0-0.5C15.7,15.9,13.1,12.7,9.5,11.9z
	 M7.9,14.1c3.1,0,5.5,2.5,5.5,5.5s-2.4,5.5-5.5,5.5s-5.5-2.5-5.5-5.5S4.9,14.1,7.9,14.1z M9.9,18.5v-0.7c0-0.5-0.2-1.1-0.6-1.4
	c-0.4-0.4-0.9-0.6-1.4-0.6c-1.1,0-2,0.9-2,2v0.7H5.5v4h4.8v-4H9.9z M7,18.5v-0.7c0-0.5,0.4-1,1-1c0.3,0,0.5,0.1,0.7,0.3
	C8.9,17.3,9,17.5,9,17.8v0.7H7z M18.6,14.2l-3.8-3.6L16,9.4l1.8,1.7V5.3h1.7v5.8l1.8-1.7l1.2,1.2L18.6,14.2z M15.2,14.8h6.9v1.7
	h-6.9V14.8z"/>
</svg>
