<?xml version="1.0" encoding="utf-8"?>
<!-- Generator: Adobe Illustrator 26.4.1, SVG Export Plug-In . SVG Version: 6.00 Build 0)  -->
<svg version="1.1" id="Layer_1" xmlns="http://www.w3.org/2000/svg" xmlns:xlink="http://www.w3.org/1999/xlink" x="0px" y="0px"
	 viewBox="0 0 23.8 23.8" style="enable-background:new 0 0 23.8 23.8;" xml:space="preserve">
<style type="text/css">
	.st0{fill:url(#SVGID_1_);}
</style>
<linearGradient id="SVGID_1_" gradientUnits="userSpaceOnUse" x1="4.3494" y1="7.8929" x2="19.8995" y2="18.7812" gradientTransform="matrix(1 0 0 -1 0 26.6)">
	<stop  offset="0.1" style="stop-color:#2814FF"/>
	<stop  offset="0.1435" style="stop-color:#2324FF"/>
	<stop  offset="0.2998" style="stop-color:#145BFF"/>
	<stop  offset="0.4347" style="stop-color:#0983FF"/>
	<stop  offset="0.5417" style="stop-color:#029BFF"/>
	<stop  offset="0.6072" style="stop-color:#00A4FF"/>
	<stop  offset="0.6551" style="stop-color:#00ACCE"/>
	<stop  offset="0.7216" style="stop-color:#00B590"/>
	<stop  offset="0.7855" style="stop-color:#00BD5D"/>
	<stop  offset="0.8449" style="stop-color:#00C434"/>
	<stop  offset="0.8989" style="stop-color:#00C818"/>
	<stop  offset="0.9457" style="stop-color:#00CB06"/>
	<stop  offset="0.98" style="stop-color:#00CC00"/>
</linearGradient>
<path class="st0" d="M17.2,15c1.2-1.6,1.8-3.5,1.8-5.5C19,4.3,14.7,0,9.5,0S0,4.3,0,9.5S4.3,19,9.5,19c2,0,3.9-0.6,5.5-1.8l6.6,6.6
	l2.2-2.2L17.2,15z M16.7,9.5c0,4-3.3,7.2-7.3,7.2s-7.3-3.3-7.3-7.2s3.3-7.2,7.3-7.2S16.7,5.5,16.7,9.5z M12.1,8V7
	c0-0.7-0.3-1.4-0.8-1.9s-1.2-0.8-1.9-0.8C7.9,4.3,6.7,5.5,6.7,7v1H6.3v5.2h6.3V8H12.1z M8.2,8V7c0-0.7,0.6-1.3,1.3-1.3
	c0.4,0,0.7,0.1,0.9,0.4c0.2,0.2,0.4,0.6,0.4,0.9v1H8.2z"/>
</svg>
