<?xml version="1.0" encoding="utf-8"?>
<!-- Generator: Adobe Illustrator 26.4.1, SVG Export Plug-In . SVG Version: 6.00 Build 0)  -->
<svg version="1.1" id="Layer_1" xmlns="http://www.w3.org/2000/svg" xmlns:xlink="http://www.w3.org/1999/xlink" x="0px" y="0px"
	 viewBox="0 0 26.6 23" style="enable-background:new 0 0 26.6 23;" xml:space="preserve">
<style type="text/css">
	.st0{fill:url(#SVGID_1_);}
</style>
<g id="Layer_1_00000069377222537875358630000012415465107551237543_">
	
		<linearGradient id="SVGID_1_" gradientUnits="userSpaceOnUse" x1="1.8625" y1="4.8575" x2="24.7075" y2="27.7025" gradientTransform="matrix(1 0 0 -1 0 25.84)">
		<stop  offset="0.1" style="stop-color:#2814FF"/>
		<stop  offset="0.14" style="stop-color:#2324FF"/>
		<stop  offset="0.3" style="stop-color:#145BFF"/>
		<stop  offset="0.43" style="stop-color:#0983FF"/>
		<stop  offset="0.54" style="stop-color:#029BFF"/>
		<stop  offset="0.61" style="stop-color:#00A4FF"/>
		<stop  offset="0.66" style="stop-color:#00ACCE"/>
		<stop  offset="0.72" style="stop-color:#00B590"/>
		<stop  offset="0.79" style="stop-color:#00BD5D"/>
		<stop  offset="0.84" style="stop-color:#00C434"/>
		<stop  offset="0.9" style="stop-color:#00C818"/>
		<stop  offset="0.95" style="stop-color:#00CB06"/>
		<stop  offset="0.98" style="stop-color:#00CC00"/>
	</linearGradient>
	<path class="st0" d="M26.6,19.1V0H0v19.1h8.5v1.4H6.2V23h14.2v-2.6h-2.3v-1.4H26.6z M24.2,2.4v14.4H2.3V2.4H24.2z M17.2,6.9
		c0,1.2-0.7,2.3-1.6,3c-0.6,0.5-1.1,0.9-1.1,1.6v0.9h-2.4v-1c0.1-1.1,0.6-2.1,1.5-2.7c0.6-0.5,1-0.9,1-1.5c-0.1-0.6-0.6-1.1-1.3-1
		c-0.6,0-1.1,0.2-1.5,0.6l-0.2,0.2l-1.4-1.7L10.4,5c0.8-0.8,2-1.2,3.1-1.2C15.4,3.7,17,5,17.2,6.9C17.2,6.9,17.2,6.9,17.2,6.9
		L17.2,6.9z M12.1,13.2h2.4v2.3h-2.4L12.1,13.2z"/>
</g>
</svg>
