<?xml version="1.0" encoding="utf-8"?>
<!-- Generator: Adobe Illustrator 26.4.1, SVG Export Plug-In . SVG Version: 6.00 Build 0)  -->
<svg version="1.1" id="Layer_1" xmlns="http://www.w3.org/2000/svg" xmlns:xlink="http://www.w3.org/1999/xlink" x="0px" y="0px"
	 viewBox="0 0 33.4 19.9" style="enable-background:new 0 0 33.4 19.9;" xml:space="preserve">
<style type="text/css">
	.st0{fill:url(#SVGID_1_);}
</style>
<g id="Layer_1_00000157297935328097356970000018001794662167234696_">
	
		<linearGradient id="SVGID_1_" gradientUnits="userSpaceOnUse" x1="5.515" y1="5.655" x2="27.91" y2="28.05" gradientTransform="matrix(1 0 0 -1 0 22.52)">
		<stop  offset="0.1" style="stop-color:#2814FF"/>
		<stop  offset="0.14" style="stop-color:#2324FF"/>
		<stop  offset="0.3" style="stop-color:#145BFF"/>
		<stop  offset="0.43" style="stop-color:#0983FF"/>
		<stop  offset="0.54" style="stop-color:#029BFF"/>
		<stop  offset="0.61" style="stop-color:#00A4FF"/>
		<stop  offset="0.66" style="stop-color:#00ACCE"/>
		<stop  offset="0.72" style="stop-color:#00B590"/>
		<stop  offset="0.79" style="stop-color:#00BD5D"/>
		<stop  offset="0.84" style="stop-color:#00C434"/>
		<stop  offset="0.9" style="stop-color:#00C818"/>
		<stop  offset="0.95" style="stop-color:#00CB06"/>
		<stop  offset="0.98" style="stop-color:#00CC00"/>
	</linearGradient>
	<path class="st0" d="M33.4,0H0v11.4h14l-4.9,8.5h15.2l-4.9-8.5h14L33.4,0z M2.4,9V2.4h28.7V9h-13l-1.3-2.3L15.4,9L2.4,9z
		 M13.2,17.5l3.5-6.1l3.5,6.1H13.2z M5.7,5.8L4.7,5.4L5,4.6L6,4.9V3.8h0.9v1.1L8,4.6l0.3,0.9L7.2,5.8l0.7,0.9L7.2,7.3L6.5,6.4
		L5.9,7.3L5.1,6.7L5.7,5.8z M10.9,5.8L9.8,5.4l0.3-0.9l1.1,0.4V3.8H12v1.1l1.1-0.4l0.3,0.9l-1.1,0.4L13,6.7l-0.7,0.5l-0.7-0.9
		l-0.7,0.9l-0.7-0.5L10.9,5.8z M26.2,5.8l-1-0.3l0.3-0.9l1.1,0.4V3.8h0.9v1.1l1.1-0.4l0.3,0.9l-1.1,0.4l0.7,0.9l-0.7,0.5L27,6.3
		l-0.7,0.9l-0.7-0.5L26.2,5.8z M21.1,5.8L20,5.4l0.3-0.9l1.1,0.4V3.8h0.9v1.1l1.1-0.4l0.3,0.9l-1.1,0.4l0.7,0.9l-0.7,0.6l-0.7-0.9
		l-0.6,0.9l-0.7-0.5L21.1,5.8z M16,5.8l-1.1-0.4l0.3-0.9l1.1,0.4V3.8h0.9v1.1l1.1-0.4l0.3,0.9l-1.1,0.4l0.7,0.9l-0.7,0.5l-0.7-0.9
		l-0.7,0.9l-0.7-0.5L16,5.8z M16.3,16.1h0.9V17h-0.9V16.1z M16.3,15.8l-0.1-3h1l-0.1,3H16.3z"/>
</g>
</svg>
