<?xml version="1.0" encoding="utf-8"?>
<!-- Generator: Adobe Illustrator 26.4.1, SVG Export Plug-In . SVG Version: 6.00 Build 0)  -->
<svg version="1.1" id="Layer_1" xmlns="http://www.w3.org/2000/svg" xmlns:xlink="http://www.w3.org/1999/xlink" x="0px" y="0px"
	 viewBox="0 0 29.9 22" style="enable-background:new 0 0 29.9 22;" xml:space="preserve">
<style type="text/css">
	.st0{fill:url(#SVGID_1_);}
</style>
<g id="Layer_1_00000005974999751827250110000014785062422746404236_">
	
		<linearGradient id="SVGID_1_" gradientUnits="userSpaceOnUse" x1="2.6342" y1="0.1647" x2="27.3098" y2="24.8303" gradientTransform="matrix(1 0 0 -1 0 24.76)">
		<stop  offset="0.1" style="stop-color:#2814FF"/>
		<stop  offset="0.14" style="stop-color:#2324FF"/>
		<stop  offset="0.3" style="stop-color:#145BFF"/>
		<stop  offset="0.43" style="stop-color:#0983FF"/>
		<stop  offset="0.54" style="stop-color:#029BFF"/>
		<stop  offset="0.61" style="stop-color:#00A4FF"/>
		<stop  offset="0.66" style="stop-color:#00ACCE"/>
		<stop  offset="0.72" style="stop-color:#00B590"/>
		<stop  offset="0.79" style="stop-color:#00BD5D"/>
		<stop  offset="0.84" style="stop-color:#00C434"/>
		<stop  offset="0.9" style="stop-color:#00C818"/>
		<stop  offset="0.95" style="stop-color:#00CB06"/>
		<stop  offset="0.98" style="stop-color:#00CC00"/>
	</linearGradient>
	<path class="st0" d="M2.6,0v17.5h24.7V0H2.6z M5,15.2V2.4h20v12.8H5z M29.9,19.6V22H0v-2.4H29.9z M14.5,6.2h1.2v3l-1.8,1l-0.6-1.1
		l1.2-0.7V6.2z M15.2,4.2c-2.5,0-4.5,2-4.5,4.5c0,2.5,2,4.5,4.5,4.5c2.5,0,4.5-2,4.5-4.5c0,0,0,0,0,0C19.7,6.3,17.7,4.3,15.2,4.2z
		 M18.4,8.8c0,1.8-1.5,3.3-3.3,3.3c-1.8,0-3.3-1.5-3.3-3.3c0-1.8,1.5-3.3,3.3-3.3C17,5.5,18.4,7,18.4,8.8z"/>
</g>
</svg>
