<?xml version="1.0" encoding="utf-8"?>
<!-- Generator: Adobe Illustrator 26.4.1, SVG Export Plug-In . SVG Version: 6.00 Build 0)  -->
<svg version="1.1" id="Layer_1" xmlns="http://www.w3.org/2000/svg" xmlns:xlink="http://www.w3.org/1999/xlink" x="0px" y="0px"
	 viewBox="0 0 17.4 31" style="enable-background:new 0 0 17.4 31;" xml:space="preserve">
<style type="text/css">
	.st0{fill:url(#SVGID_1_);}
</style>
<g id="Layer_1_00000100366870044648295710000004725238791175925635_">
	
		<linearGradient id="SVGID_1_" gradientUnits="userSpaceOnUse" x1="-1.2229" y1="5.7929" x2="18.492" y2="25.5078" gradientTransform="matrix(1 0 0 -1 0 33.82)">
		<stop  offset="0.1" style="stop-color:#2814FF"/>
		<stop  offset="0.14" style="stop-color:#2324FF"/>
		<stop  offset="0.3" style="stop-color:#145BFF"/>
		<stop  offset="0.43" style="stop-color:#0983FF"/>
		<stop  offset="0.54" style="stop-color:#029BFF"/>
		<stop  offset="0.61" style="stop-color:#00A4FF"/>
		<stop  offset="0.66" style="stop-color:#00ACCE"/>
		<stop  offset="0.72" style="stop-color:#00B590"/>
		<stop  offset="0.79" style="stop-color:#00BD5D"/>
		<stop  offset="0.84" style="stop-color:#00C434"/>
		<stop  offset="0.9" style="stop-color:#00C818"/>
		<stop  offset="0.95" style="stop-color:#00CB06"/>
		<stop  offset="0.98" style="stop-color:#00CC00"/>
	</linearGradient>
	<path class="st0" d="M0,12.7v2.2h1.8V31h13.9V14.9h1.8v-2.2L0,12.7z M4,28.8V14.9h9.5v13.9H4z M12.3,16.2v11.4h-1.7V16.2L12.3,16.2
		z M7.9,16.2h1.7v11.4H7.9V16.2z M5.2,16.2h1.7v11.4H5.2L5.2,16.2z M12.9,4.7c-0.1-0.1-0.3-0.2-0.5-0.2h-0.1c0,0,0,0,0-0.1
		c0-0.3,0-0.7,0-1C12.2,1.7,10.9,0.3,9.2,0H8.9v0.7C8.9,0.9,9.1,1,9.3,1c0.3,0.1,0.6,0.3,0.8,0.5c0.5,0.5,0.7,1.1,0.6,1.7
		c0,0.2-0.1,0.3-0.1,0.5c-1.2-0.8-2.8-0.8-4,0c-0.1-0.3-0.1-0.7-0.1-1c0-0.5,0.3-1,0.7-1.4C7.4,1.2,7.7,1,8.1,0.9
		c0.1,0,0.3-0.1,0.2-0.4V0H8C6.5,0.2,5.3,1.3,4.9,2.7C4.8,3.1,4.7,3.5,4.8,3.9c0,0.2,0,0.4,0,0.6H4.7L4.4,4.6
		c-1.7,0.9-2.5,3-1.8,4.8l0.1,0.3l0.6-0.3C3.4,9.3,3.5,9.1,3.4,9c0-0.1-0.1-0.3-0.1-0.4c0-0.4,0.1-0.8,0.3-1.2
		c0.3-0.5,0.8-0.9,1.5-1c0,0,0,0.1,0,0.2c0,1.4,0.8,2.6,2.1,3.2C7,9.9,6.9,10.1,6.7,10.2c-0.5,0.4-1.2,0.5-1.8,0.3
		C4.6,10.4,4.3,10.2,4,10C3.9,9.9,3.8,9.7,3.6,9.9L3,10.2l0.2,0.2c1.3,1.6,3.6,1.9,5.2,0.7L8.6,11l0,0c0.2,0.1,0.4,0.3,0.6,0.4
		c0.7,0.4,1.5,0.5,2.2,0.4c1-0.1,1.9-0.6,2.5-1.4l0.2-0.2l-0.5-0.3c-0.2-0.1-0.4,0-0.5,0.1c-0.1,0.1-0.2,0.2-0.3,0.2
		c-0.5,0.3-1.2,0.4-1.8,0.2c-0.4-0.1-0.7-0.4-1-0.7c1.2-0.6,2-1.8,2-3.2c0-0.1,0-0.1,0-0.2c0.9,0.1,1.6,0.8,1.8,1.7
		c0.1,0.3,0.1,0.7,0,1c-0.1,0.2,0.1,0.4,0.2,0.4c0,0,0,0,0,0l0.5,0.3l0.1-0.3C15.3,7.6,14.6,5.6,12.9,4.7L12.9,4.7z M9.7,8
		c0-0.2,0.1-0.3,0.2-0.5C9.9,7.4,9.9,7.3,10,7.2l0.1-0.1c0.2-0.2,0.3-0.3,0.5-0.5c0,0.7-0.4,1.4-1,1.8C9.6,8.2,9.6,8.1,9.7,8L9.7,8z
		 M9.7,4.8C9,5.2,8.2,5.2,7.5,4.8C8.2,4.4,9,4.4,9.7,4.8L9.7,4.8z M7.6,8.4C7,8,6.5,7.3,6.5,6.6C6.7,6.7,6.8,6.8,7,6.9l0.2,0.3
		c0.1,0.1,0.1,0.2,0.1,0.3l0,0C7.5,7.7,7.6,8.1,7.6,8.4L7.6,8.4z"/>
</g>
</svg>
