<?xml version="1.0" encoding="utf-8"?>
<!-- Generator: Adobe Illustrator 26.4.1, SVG Export Plug-In . SVG Version: 6.00 Build 0)  -->
<svg version="1.1" id="Layer_1" xmlns="http://www.w3.org/2000/svg" xmlns:xlink="http://www.w3.org/1999/xlink" x="0px" y="0px"
	 viewBox="0 0 31.1 26.8" style="enable-background:new 0 0 31.1 26.8;" xml:space="preserve">
<style type="text/css">
	.st0{fill:url(#SVGID_1_);}
</style>
<g id="Layer_1_00000130635724439764779100000005503349810494797996_">
	
		<linearGradient id="SVGID_1_" gradientUnits="userSpaceOnUse" x1="0" y1="16.8302" x2="31.0638" y2="16.8302" gradientTransform="matrix(1 0 0 -1 0 30.2402)">
		<stop  offset="0.1" style="stop-color:#2814FF"/>
		<stop  offset="0.14" style="stop-color:#2324FF"/>
		<stop  offset="0.3" style="stop-color:#145BFF"/>
		<stop  offset="0.43" style="stop-color:#0983FF"/>
		<stop  offset="0.54" style="stop-color:#029BFF"/>
		<stop  offset="0.61" style="stop-color:#00A4FF"/>
		<stop  offset="0.66" style="stop-color:#00ACCE"/>
		<stop  offset="0.72" style="stop-color:#00B590"/>
		<stop  offset="0.79" style="stop-color:#00BD5D"/>
		<stop  offset="0.84" style="stop-color:#00C434"/>
		<stop  offset="0.9" style="stop-color:#00C818"/>
		<stop  offset="0.95" style="stop-color:#00CB06"/>
		<stop  offset="0.98" style="stop-color:#00CC00"/>
	</linearGradient>
	<path class="st0" d="M25.7,0c-2.5,0-4.6,1.7-5.2,4.2H0v18.9h8.7v1.5H6.3v2.3h14.2v-2.3h-2.3v-1.5h8.7V10.5c2.9-0.6,4.7-3.5,4-6.3
		C30.4,1.7,28.2,0,25.7,0z M2.3,20.8V6.5h18.3c0.5,2,2,3.5,4,4v10.3H2.3z M22.7,5.3c0-1.7,1.3-3,3-3c1.7,0,3,1.3,3,3
		c0,1.7-1.3,3-3,3S22.7,7,22.7,5.3L22.7,5.3z M27.5,4.6l-2.1,2.9L23.8,6l0.8-0.9l0.6,0.6l1.3-1.8L27.5,4.6z M18.4,12.7l0-0.2
		c-0.2-0.8-0.6-1.5-1.2-2.1L17,10.3l-1.4,0.6c-0.2-0.1-0.4-0.3-0.6-0.4L14.9,9h-0.2c-0.8-0.2-1.7-0.2-2.5,0h-0.2l-0.1,1.5
		c-0.2,0.1-0.5,0.2-0.7,0.4l-1.4-0.6l-0.1,0.1c-0.6,0.6-1,1.3-1.2,2.1l-0.1,0.2l1.2,0.9c0,0.2,0,0.5,0,0.7l-1.2,0.9l0.1,0.2
		c0.2,0.8,0.7,1.5,1.2,2.1l0.1,0.1l1.4-0.6c0.2,0.1,0.4,0.3,0.7,0.4l0.2,1.5h0.2c0.4,0.1,0.8,0.2,1.2,0.1c0.4,0,0.8-0.1,1.2-0.1h0.2
		l0.2-1.5c0.2-0.1,0.4-0.2,0.6-0.4l1.4,0.6l0.1-0.1c0.6-0.6,1-1.3,1.2-2.1v-0.2l-1.2-0.9c0-0.2,0-0.5,0-0.7L18.4,12.7z M14.6,14.3
		c-0.2,0.6-0.9,1-1.5,0.7c-0.6-0.2-0.9-0.8-0.8-1.3c0.1-0.5,0.6-0.9,1.2-0.9c0.1,0,0.2,0,0.3,0c0.3,0.1,0.6,0.3,0.7,0.6
		C14.7,13.6,14.7,13.9,14.6,14.3z"/>
</g>
</svg>
