<?xml version="1.0" encoding="utf-8"?>
<!-- Generator: Adobe Illustrator 26.4.1, SVG Export Plug-In . SVG Version: 6.00 Build 0)  -->
<svg version="1.1" id="Layer_1" xmlns="http://www.w3.org/2000/svg" xmlns:xlink="http://www.w3.org/1999/xlink" x="0px" y="0px"
	 viewBox="0 0 22.1 27.2" style="enable-background:new 0 0 22.1 27.2;" xml:space="preserve">
<style type="text/css">
	.st0{fill:url(#SVGID_1_);}
</style>
<g id="Layer_1_00000105392610295718653880000001974850095781334430_">
	
		<linearGradient id="SVGID_1_" gradientUnits="userSpaceOnUse" x1="0.5624" y1="8.0574" x2="21.5576" y2="29.0426" gradientTransform="matrix(1 0 0 -1 0 30.36)">
		<stop  offset="0.1" style="stop-color:#2814FF"/>
		<stop  offset="0.14" style="stop-color:#2324FF"/>
		<stop  offset="0.3" style="stop-color:#145BFF"/>
		<stop  offset="0.43" style="stop-color:#0983FF"/>
		<stop  offset="0.54" style="stop-color:#029BFF"/>
		<stop  offset="0.61" style="stop-color:#00A4FF"/>
		<stop  offset="0.66" style="stop-color:#00ACCE"/>
		<stop  offset="0.72" style="stop-color:#00B590"/>
		<stop  offset="0.79" style="stop-color:#00BD5D"/>
		<stop  offset="0.84" style="stop-color:#00C434"/>
		<stop  offset="0.9" style="stop-color:#00C818"/>
		<stop  offset="0.95" style="stop-color:#00CB06"/>
		<stop  offset="0.98" style="stop-color:#00CC00"/>
	</linearGradient>
	<path class="st0" d="M3.7,12.4c0,4.1,3.3,7.4,7.4,7.4s7.4-3.3,7.4-7.4s-3.3-7.4-7.4-7.4l0,0C7,5.1,3.7,8.4,3.7,12.4z M16.3,12.4
		c0,2.9-2.3,5.2-5.2,5.2c-2.9,0-5.2-2.3-5.2-5.2c0-2.9,2.3-5.2,5.2-5.2C13.9,7.3,16.3,9.6,16.3,12.4z M8,14.2l1.8-1.8L8,10.7
		l1.3-1.3l1.8,1.8l1.8-1.8l1.3,1.3l-1.8,1.7l1.8,1.7l-1.3,1.3l-1.8-1.7l-1.8,1.8L8,14.2z M20.6,1.5c-3.1-0.9-6.3-1.4-9.5-1.5
		C7.9,0.1,4.7,0.6,1.6,1.5L0,1.9v19.9l11,5.4h0l11-5.5h0.1V1.9L20.6,1.5z M2.5,3.8C5.3,3,8.2,2.6,11.1,2.4C14,2.6,16.9,3,19.7,3.8
		v16.4l-8.6,4.3l-8.6-4.3V3.8z"/>
</g>
</svg>
