<?xml version="1.0" encoding="utf-8"?>
<!-- Generator: Adobe Illustrator 26.4.1, SVG Export Plug-In . SVG Version: 6.00 Build 0)  -->
<svg version="1.1" id="Layer_1" xmlns="http://www.w3.org/2000/svg" xmlns:xlink="http://www.w3.org/1999/xlink" x="0px" y="0px"
	 viewBox="0 0 32.2 26.6" style="enable-background:new 0 0 32.2 26.6;" xml:space="preserve">
<style type="text/css">
	.st0{fill:url(#SVGID_1_);}
</style>
<linearGradient id="SVGID_1_" gradientUnits="userSpaceOnUse" x1="4.5657" y1="8.8343" x2="24.2591" y2="28.5277" gradientTransform="matrix(1 0 0 -1 0 29.4)">
	<stop  offset="0.1" style="stop-color:#2814FF"/>
	<stop  offset="0.1435" style="stop-color:#2324FF"/>
	<stop  offset="0.2998" style="stop-color:#145BFF"/>
	<stop  offset="0.4347" style="stop-color:#0983FF"/>
	<stop  offset="0.5417" style="stop-color:#029BFF"/>
	<stop  offset="0.6072" style="stop-color:#00A4FF"/>
	<stop  offset="0.6551" style="stop-color:#00ACCE"/>
	<stop  offset="0.7216" style="stop-color:#00B590"/>
	<stop  offset="0.7855" style="stop-color:#00BD5D"/>
	<stop  offset="0.8449" style="stop-color:#00C434"/>
	<stop  offset="0.8989" style="stop-color:#00C818"/>
	<stop  offset="0.9457" style="stop-color:#00CB06"/>
	<stop  offset="0.98" style="stop-color:#00CC00"/>
</linearGradient>
<path class="st0" d="M13.6,8.6l1.2,3.7L11.7,10l-3.1,2.3l1.2-3.7L6.7,6.3h3.8l1.2-3.7l1.2,3.7h3.9L13.6,8.6z M28,15h-1.7
	c1,1.3,1.6,2.8,1.6,4.4c0,3.9-3.2,7.2-7.2,7.2c-3.9,0-7.2-3.2-7.2-7.2c0-1.2,0.3-2.4,0.9-3.4H0V9.3h1c0.7,0,1.2-0.6,1.2-1.3
	S1.7,6.8,1,6.7H0V0h23.3v6.8h-1.1c-0.7,0-1.3,0.6-1.3,1.3s0.6,1.3,1.3,1.3h1.1v3.5c0.3,0.1,0.5,0.2,0.8,0.4l0.4,0.2l-1.3,1.2
	L23,14.6c-0.7-0.3-1.5-0.5-2.2-0.5c-2.9,0-5.3,2.4-5.3,5.3s2.4,5.3,5.3,5.3s5.3-2.4,5.3-5.3c0-1.2-0.4-2.2-1.1-3.1l-0.5,0.5
	c0.5,0.8,0.9,1.7,0.9,2.7c0,2.5-2.1,4.6-4.6,4.6s-4.6-2.1-4.6-4.6s2.1-4.6,4.6-4.6c0.5,0,1,0.1,1.5,0.2l0.5,0.2l-1.6,1.4H21
	c-0.1,0-0.2,0-0.3,0c-1.5,0-2.8,1.2-2.8,2.8c0,1.5,1.2,2.8,2.8,2.8c1.5,0,2.8-1.2,2.8-2.8c0-0.5-0.1-0.9-0.3-1.3l-0.5,0.5
	c0.1,0.2,0.2,0.5,0.2,0.8c0,1.1-0.9,2.1-2.1,2.1c-1.1,0-2.1-0.9-2.1-2.1s0.9-2.1,2.1-2.1c0.2,0,0.4,0,0.5,0.1l3.7-3.7V12l4.1-4.1V11
	h3.1L28,15z M21.2,11.3c-1.4-0.5-2.4-1.8-2.4-3.3s1-2.8,2.4-3.3V2.2h-19v2.6C3.6,5.3,4.5,6.6,4.5,8c0,1.5-0.9,2.8-2.3,3.2v2.6h14
	c1.2-1,2.8-1.6,4.5-1.6c0.2,0,0.3,0,0.5,0V11.3z"/>
</svg>
