<?xml version="1.0" encoding="utf-8"?>
<!-- Generator: Adobe Illustrator 26.4.1, SVG Export Plug-In . SVG Version: 6.00 Build 0)  -->
<svg version="1.1" id="Layer_1" xmlns="http://www.w3.org/2000/svg" xmlns:xlink="http://www.w3.org/1999/xlink" x="0px" y="0px"
	 viewBox="0 0 21.9 28.2" style="enable-background:new 0 0 21.9 28.2;" xml:space="preserve">
<style type="text/css">
	.st0{fill:url(#SVGID_1_);}
</style>
<linearGradient id="SVGID_1_" gradientUnits="userSpaceOnUse" x1="0.5269" y1="10.527" x2="19.3117" y2="29.3117" gradientTransform="matrix(1 0 0 -1 0 31)">
	<stop  offset="0.1" style="stop-color:#2814FF"/>
	<stop  offset="0.1435" style="stop-color:#2324FF"/>
	<stop  offset="0.2998" style="stop-color:#145BFF"/>
	<stop  offset="0.4347" style="stop-color:#0983FF"/>
	<stop  offset="0.5417" style="stop-color:#029BFF"/>
	<stop  offset="0.6072" style="stop-color:#00A4FF"/>
	<stop  offset="0.6551" style="stop-color:#00ACCE"/>
	<stop  offset="0.7216" style="stop-color:#00B590"/>
	<stop  offset="0.7855" style="stop-color:#00BD5D"/>
	<stop  offset="0.8449" style="stop-color:#00C434"/>
	<stop  offset="0.8989" style="stop-color:#00C818"/>
	<stop  offset="0.9457" style="stop-color:#00CB06"/>
	<stop  offset="0.98" style="stop-color:#00CC00"/>
</linearGradient>
<path class="st0" d="M0,5.5l8.3,9.9v12.8l5.3-5.3v-7.5l8.3-9.9C21.9,5.5,0,5.5,0,5.5z M11.3,14.6V22l-0.9,0.9v-8.3L4.6,7.7h12.5
	L11.3,14.6z M3.4,2.4h1.3v1.3H3.4V2.4z M8,2.1l0.5,1L8.4,3.2c0,0-0.5,0.6-1.5,0.6c-1.1,0-2-0.8-2-1.9S5.7,0,6.9,0
	c0.9,0,1.4,0.5,1.4,0.6l0.1,0.1l-0.6,1L7.6,1.5c0,0-0.3-0.3-0.6-0.3c-0.4,0-0.7,0.3-0.7,0.7S6.6,2.6,7,2.6c0.4,0,0.7-0.3,0.7-0.3
	L8,2.1z M10.6,0c-1.1,0-2,0.8-2,1.9s0.9,1.9,2,1.9s2-0.8,2-1.9S11.7,0,10.6,0z M10.6,2.6c-0.4,0-0.7-0.3-0.7-0.7s0.3-0.7,0.7-0.7
	c0.4,0,0.7,0.3,0.7,0.7C11.2,2.3,11,2.6,10.6,2.6z M18.3,1.4v2.3H17V1.6c0-0.4-0.1-0.4-0.2-0.4c-0.4,0-0.5,0.4-0.5,0.5s0,0.2,0,0.4
	v1.6H15V1.6c0-0.4-0.1-0.4-0.2-0.4c-0.4,0-0.5,0.4-0.5,0.5s0,0.2,0,0.3v1.6H13V0.1h1.3v0.2C14.5,0.1,14.8,0,15.1,0
	c0.4,0,0.8,0.2,1,0.4c0.2-0.2,0.6-0.4,1-0.4C17.5,0,18.3,0.2,18.3,1.4z"/>
</svg>
