<?xml version="1.0" encoding="utf-8"?>
<!-- Generator: Adobe Illustrator 26.4.1, SVG Export Plug-In . SVG Version: 6.00 Build 0)  -->
<svg version="1.1" id="Layer_1" xmlns="http://www.w3.org/2000/svg" xmlns:xlink="http://www.w3.org/1999/xlink" x="0px" y="0px"
	 viewBox="0 0 29.2 22.1" style="enable-background:new 0 0 29.2 22.1;" xml:space="preserve">
<style type="text/css">
	.st0{fill:url(#SVGID_1_);}
</style>
<g id="Layer_1_00000053525744240285914980000013533064440560527780_">
	
		<linearGradient id="SVGID_1_" gradientUnits="userSpaceOnUse" x1="3.1381" y1="2.3919" x2="23.8381" y2="23.0819" gradientTransform="matrix(1 0 0 -1 0 24.84)">
		<stop  offset="0.1" style="stop-color:#2814FF"/>
		<stop  offset="0.14" style="stop-color:#2324FF"/>
		<stop  offset="0.3" style="stop-color:#145BFF"/>
		<stop  offset="0.43" style="stop-color:#0983FF"/>
		<stop  offset="0.54" style="stop-color:#029BFF"/>
		<stop  offset="0.61" style="stop-color:#00A4FF"/>
		<stop  offset="0.66" style="stop-color:#00ACCE"/>
		<stop  offset="0.72" style="stop-color:#00B590"/>
		<stop  offset="0.79" style="stop-color:#00BD5D"/>
		<stop  offset="0.84" style="stop-color:#00C434"/>
		<stop  offset="0.9" style="stop-color:#00C818"/>
		<stop  offset="0.95" style="stop-color:#00CB06"/>
		<stop  offset="0.98" style="stop-color:#00CC00"/>
	</linearGradient>
	<path class="st0" d="M22.1,7.7V0L6.9,7H0v8.1h2.4v6.7h5.7v-6L22,22.1v-7.7c1.8-1.1,2.4-3.5,1.3-5.4c-0.3-0.5-0.8-1-1.3-1.3
		L22.1,7.7z M19.9,3.4v15.2L8.2,13.3V8.7L19.9,3.4z M6,15.1v4.5H4.6v-4.5H6z M2.2,12.9V9.1H6v3.8H2.2z M26.6,11
		c0,1.7-0.7,3.2-1.8,4.4l-0.2,0.2l-1.2-1.2l0.2-0.2c1.8-1.7,1.8-4.6,0-6.4c0,0,0,0,0,0l-0.2-0.2l1.2-1.2l0.2,0.2
		C26,7.8,26.6,9.4,26.6,11z M29.2,11c0,2.3-0.9,4.6-2.6,6.2l-0.2,0.2l-1.2-1.2l0.2-0.2c2.8-2.8,2.8-7.2,0-10c0,0,0,0,0,0l-0.2-0.2
		l1.2-1.2l0.2,0.2C28.2,6.5,29.2,8.7,29.2,11z"/>
</g>
</svg>
