<?xml version="1.0" encoding="utf-8"?>
<!-- Generator: Adobe Illustrator 26.4.1, SVG Export Plug-In . SVG Version: 6.00 Build 0)  -->
<svg version="1.1" id="Layer_1" xmlns="http://www.w3.org/2000/svg" xmlns:xlink="http://www.w3.org/1999/xlink" x="0px" y="0px"
	 viewBox="0 0 31.8 29.8" style="enable-background:new 0 0 31.8 29.8;" xml:space="preserve">
<style type="text/css">
	.st0{fill:url(#SVGID_1_);}
</style>
<linearGradient id="SVGID_1_" gradientUnits="userSpaceOnUse" x1="3.085" y1="8.1536" x2="23.8887" y2="28.9573" gradientTransform="matrix(1 0 0 -1 0 32.6)">
	<stop  offset="0.1" style="stop-color:#2814FF"/>
	<stop  offset="0.1435" style="stop-color:#2324FF"/>
	<stop  offset="0.2998" style="stop-color:#145BFF"/>
	<stop  offset="0.4347" style="stop-color:#0983FF"/>
	<stop  offset="0.5417" style="stop-color:#029BFF"/>
	<stop  offset="0.6072" style="stop-color:#00A4FF"/>
	<stop  offset="0.6551" style="stop-color:#00ACCE"/>
	<stop  offset="0.7216" style="stop-color:#00B590"/>
	<stop  offset="0.7855" style="stop-color:#00BD5D"/>
	<stop  offset="0.8449" style="stop-color:#00C434"/>
	<stop  offset="0.8989" style="stop-color:#00C818"/>
	<stop  offset="0.9457" style="stop-color:#00CB06"/>
	<stop  offset="0.98" style="stop-color:#00CC00"/>
</linearGradient>
<path class="st0" d="M27.9,14.3L27.9,14.3L27.9,14.3L27.9,14.3z M8.2,7.6H5.7v2.5h2.5V7.6z M12.4,7.6H9.9v2.5h2.5V7.6z M16.5,7.6H14
	v2.5h2.5V7.6z M8.2,3.4H5.7v2.5h2.5V3.4z M12.4,3.4H9.9v2.5h2.5V3.4z M16.5,3.4H14v2.5h2.5V3.4z M8.2,3.4H5.7v2.5h2.5V3.4z
	 M12.4,3.4H9.9v2.5h2.5V3.4z M16.5,3.4H14v2.5h2.5V3.4z M8.2,11.7H5.7v2.5h2.5V11.7z M12.4,11.7H9.9v2.5h2.5V11.7z M16.5,11.7H14
	v2.5h2.5V11.7z M27.6,18.2h-1.7c1,1.3,1.6,2.8,1.6,4.4c0,3.9-3.2,7.2-7.2,7.2s-7.2-3.2-7.2-7.2c0-0.4,0-0.9,0.1-1.3H0v-2.2h2V0h18.2
	v15.5h0.1c1.2,0,2.4,0.3,3.4,0.9l0.4,0.2L22.7,18l-0.2-0.1c-0.7-0.3-1.5-0.5-2.2-0.5c-2.9,0-5.3,2.4-5.3,5.3s2.4,5.3,5.3,5.3
	c2.9,0,5.3-2.4,5.3-5.3c0-1.2-0.4-2.2-1.1-3.1L24,20.1c0.5,0.8,0.9,1.7,0.9,2.7c0,2.5-2.1,4.6-4.6,4.6s-4.6-2.1-4.6-4.6
	c0-2.5,2.1-4.6,4.6-4.6c0.5,0,1,0.1,1.5,0.2l0.5,0.2l-1.5,1.5h-0.2c-0.1,0-0.2,0-0.3,0c-1.5,0-2.8,1.2-2.8,2.8s1.2,2.8,2.8,2.8
	s2.8-1.2,2.8-2.8c0-0.5-0.1-0.9-0.3-1.3l-0.5,0.5c0.1,0.2,0.2,0.5,0.2,0.8c0,1.1-0.9,2.1-2.1,2.1s-2.1-0.9-2.1-2.1s0.9-2.1,2.1-2.1
	c0.2,0,0.4,0,0.5,0.1l3.7-3.7v-1.8l4.1-4.1v3.1h3.1L27.6,18.2z M13,17.6H9.2v1.6H13V17.6z M15.2,15.4v2.2c0.8-0.8,1.7-1.4,2.8-1.7
	V2.2H4.2v17H7v-3.8H15.2z"/>
</svg>
