<?xml version="1.0" encoding="utf-8"?>
<!-- Generator: Adobe Illustrator 26.4.1, SVG Export Plug-In . SVG Version: 6.00 Build 0)  -->
<svg version="1.1" id="Layer_1" xmlns="http://www.w3.org/2000/svg" xmlns:xlink="http://www.w3.org/1999/xlink" x="0px" y="0px"
	 viewBox="0 0 21.9 28.2" style="enable-background:new 0 0 21.9 28.2;" xml:space="preserve">
<style type="text/css">
	.st0{fill:url(#SVGID_1_);}
</style>
<linearGradient id="SVGID_1_" gradientUnits="userSpaceOnUse" x1="-0.275" y1="11.375" x2="19.475" y2="31.125" gradientTransform="matrix(1 0 0 -1 0 31)">
	<stop  offset="0.1" style="stop-color:#2814FF"/>
	<stop  offset="0.1435" style="stop-color:#2324FF"/>
	<stop  offset="0.2998" style="stop-color:#145BFF"/>
	<stop  offset="0.4347" style="stop-color:#0983FF"/>
	<stop  offset="0.5417" style="stop-color:#029BFF"/>
	<stop  offset="0.6072" style="stop-color:#00A4FF"/>
	<stop  offset="0.6551" style="stop-color:#00ACCE"/>
	<stop  offset="0.7216" style="stop-color:#00B590"/>
	<stop  offset="0.7855" style="stop-color:#00BD5D"/>
	<stop  offset="0.8449" style="stop-color:#00C434"/>
	<stop  offset="0.8989" style="stop-color:#00C818"/>
	<stop  offset="0.9457" style="stop-color:#00CB06"/>
	<stop  offset="0.98" style="stop-color:#00CC00"/>
</linearGradient>
<path class="st0" d="M0,5.5l8.3,9.9v12.8l5.3-5.3v-7.5l8.3-9.9C21.9,5.5,0,5.5,0,5.5z M11.3,14.6V22l-0.9,0.9v-8.3L4.6,7.7h12.5
	L11.3,14.6z M6.4,0h1.3L6.6,3.7H5.4L5,2.3L4.6,3.7H3.3L2.2,0h1.4L4,1.6L4.5,0h1.1l0.5,1.6L6.4,0z M12.3,0h1.3l-1.1,3.7h-1.2
	l-0.4-1.4l-0.4,1.4H9.3L8.2,0h1.4L10,1.6L10.5,0h1.1l0.5,1.6L12.3,0z M19.6,0l-1.1,3.7h-1.2l-0.4-1.4l-0.4,1.4h-1.2L14.2,0h1.4
	L16,1.6L16.3,0h1.1l0.5,1.6L18.3,0C18.3,0,19.6,0,19.6,0z"/>
</svg>
