<?xml version="1.0" encoding="utf-8"?>
<!-- Generator: Adobe Illustrator 26.4.1, SVG Export Plug-In . SVG Version: 6.00 Build 0)  -->
<svg version="1.1" id="Layer_1" xmlns="http://www.w3.org/2000/svg" xmlns:xlink="http://www.w3.org/1999/xlink" x="0px" y="0px"
	 viewBox="0 0 31.2 28.7" style="enable-background:new 0 0 31.2 28.7;" xml:space="preserve">
<style type="text/css">
	.st0{fill:url(#SVGID_1_);}
</style>
<g id="Layer_1_00000001622952634894418510000002912309855726004153_">
	
		<linearGradient id="SVGID_1_" gradientUnits="userSpaceOnUse" x1="4.0783" y1="3.3543" x2="30.6183" y2="29.8843" gradientTransform="matrix(1 0 0 -1 0 31.54)">
		<stop  offset="0.1" style="stop-color:#2814FF"/>
		<stop  offset="0.14" style="stop-color:#2324FF"/>
		<stop  offset="0.3" style="stop-color:#145BFF"/>
		<stop  offset="0.43" style="stop-color:#0983FF"/>
		<stop  offset="0.54" style="stop-color:#029BFF"/>
		<stop  offset="0.61" style="stop-color:#00A4FF"/>
		<stop  offset="0.66" style="stop-color:#00ACCE"/>
		<stop  offset="0.72" style="stop-color:#00B590"/>
		<stop  offset="0.79" style="stop-color:#00BD5D"/>
		<stop  offset="0.84" style="stop-color:#00C434"/>
		<stop  offset="0.9" style="stop-color:#00C818"/>
		<stop  offset="0.95" style="stop-color:#00CB06"/>
		<stop  offset="0.98" style="stop-color:#00CC00"/>
	</linearGradient>
	<path class="st0" d="M14.1,15.6h2v-2h-2V15.6z M17.8,15.6h2v-2h-2V15.6z M21.5,15.6h2v-2h-2V15.6z M25.2,15.6h2v-2h-2L25.2,15.6z
		 M14.1,12.4h2v-2h-2V12.4z M17.8,12.4h2v-2h-2V12.4z M21.5,12.4h2v-2h-2V12.4z M25.2,12.4h2v-2h-2L25.2,12.4z M16.2,7.2h-2v2h2V7.2
		z M19.9,7.2h-2v2h2V7.2z M23.6,7.2h-2v2h2V7.2z M27.3,7.2h-2v2h2V7.2z M31.2,2.1h-3.3V0h-3.1v2.1h-8.4V0h-3.1v2.1h-3.2v11.3
		c-0.8-0.2-1.6-0.4-2.4-0.4c-4.3,0-7.8,3.5-7.8,7.8c0,4.3,3.5,7.8,7.8,7.8c4.2,0,7.7-3.3,7.8-7.5h15.5L31.2,2.1z M13.4,20.9
		c0,3.1-2.5,5.6-5.6,5.6s-5.6-2.5-5.6-5.6c0-3.1,2.5-5.6,5.6-5.6C10.9,15.3,13.4,17.8,13.4,20.9z M12.3,14.6V4.3h1v1.4h3.1V4.3h8.4
		v1.4h3.1V4.3h1V19H15.3C14.9,17.2,13.8,15.6,12.3,14.6z M7.8,20.2c0.9,0,1.7-0.7,1.7-1.7c0-0.9-0.7-1.7-1.7-1.7s-1.7,0.7-1.7,1.7
		c0,0,0,0,0,0C6.1,19.5,6.9,20.2,7.8,20.2C7.8,20.2,7.8,20.2,7.8,20.2 M11.1,23.8L11.1,23.8L11.1,23.8c-0.1-1.8-1.7-3.2-3.5-3.1
		c-1.7,0.1-3,1.4-3.1,3.1l0,0l0,0H11.1z"/>
</g>
</svg>
