<?xml version="1.0" encoding="utf-8"?>
<!-- Generator: Adobe Illustrator 26.4.1, SVG Export Plug-In . SVG Version: 6.00 Build 0)  -->
<svg version="1.1" id="Layer_1" xmlns="http://www.w3.org/2000/svg" xmlns:xlink="http://www.w3.org/1999/xlink" x="0px" y="0px"
	 viewBox="0 0 26.6 28.7" style="enable-background:new 0 0 26.6 28.7;" xml:space="preserve">
<style type="text/css">
	.st0{fill:url(#SVGID_1_);}
</style>
<linearGradient id="SVGID_1_" gradientUnits="userSpaceOnUse" x1="3.7602" y1="6.7102" x2="22.6444" y2="25.5944" gradientTransform="matrix(1 0 0 -1 0 31.6)">
	<stop  offset="0.1" style="stop-color:#2814FF"/>
	<stop  offset="0.1435" style="stop-color:#2324FF"/>
	<stop  offset="0.2998" style="stop-color:#145BFF"/>
	<stop  offset="0.4347" style="stop-color:#0983FF"/>
	<stop  offset="0.5417" style="stop-color:#029BFF"/>
	<stop  offset="0.6072" style="stop-color:#00A4FF"/>
	<stop  offset="0.6551" style="stop-color:#00ACCE"/>
	<stop  offset="0.7216" style="stop-color:#00B590"/>
	<stop  offset="0.7855" style="stop-color:#00BD5D"/>
	<stop  offset="0.8449" style="stop-color:#00C434"/>
	<stop  offset="0.8989" style="stop-color:#00C818"/>
	<stop  offset="0.9457" style="stop-color:#00CB06"/>
	<stop  offset="0.98" style="stop-color:#00CC00"/>
</linearGradient>
<path class="st0" d="M15,8.6h-0.4V7.9c0-0.5-0.2-0.9-0.5-1.2s-0.8-0.5-1.2-0.5c-0.9,0-1.7,0.8-1.7,1.7v0.7h-0.3v3.3H15V8.6z M12,7.9
	C12,7.4,12.4,7,12.9,7c0.3,0,0.5,0.1,0.6,0.3c0.2,0.2,0.3,0.4,0.3,0.6v0.7H12V7.9z M20.1,19v3.6h-3.6V19h1.9v-0.2h-2.3h-0.6h-2.3V19
	h1.5v3.6h-3.6V19h1.5v-0.2h-2.3H9.6H7.3V19h1.9v3.6H5.6V19h1v-0.9h3v-0.6h0.6v0.6h2.4h0.6h2.3v-0.6h0.6v0.6H19V19H20.1z M12,17.4
	H8.4v-3.6h1.3v-1.2h2.9v-0.7h0.6v0.7h2.9v1.2h1.3v3.6h-3.6v-3.6h1.6v-0.6h-2.3h-0.5h-2.3v0.6h1.6L12,17.4L12,17.4z M26.6,15.4
	c0,3.6-1.4,6.9-3.9,9.4s-5.9,3.9-9.4,3.9s-6.9-1.4-9.4-3.9c-5.2-5.2-5.2-13.7,0-18.9c1.6-1.6,3.5-2.7,5.7-3.4l0.5-0.1L11,4.5
	l-0.8,0.3C8.4,5.3,6.7,6.3,5.4,7.6c-4.3,4.3-4.3,11.3,0,15.6s11.3,4.3,15.6,0c2.1-2.1,3.2-4.9,3.2-7.8c0-3-1.2-5.7-3.2-7.8
	c-1.4-1.4-3.1-2.3-4.9-2.8l0.7,1l-1.9,1.3L12,3l4.1-3l1.4,1.9l-0.9,0.6C18.9,3.1,21,4.3,22.7,6C25.2,8.5,26.6,11.9,26.6,15.4z"/>
</svg>
