<?xml version="1.0" encoding="utf-8"?>
<!-- Generator: Adobe Illustrator 26.4.1, SVG Export Plug-In . SVG Version: 6.00 Build 0)  -->
<svg version="1.1" id="Layer_1" xmlns="http://www.w3.org/2000/svg" xmlns:xlink="http://www.w3.org/1999/xlink" x="0px" y="0px"
	 viewBox="0 0 30.6 27.5" style="enable-background:new 0 0 30.6 27.5;" xml:space="preserve">
<style type="text/css">
	.st0{fill:url(#SVGID_1_);}
</style>
<g id="Layer_1_00000171719178560657754190000010805609651625155774_">
	
		<linearGradient id="SVGID_1_" gradientUnits="userSpaceOnUse" x1="1.1514" y1="6.4273" x2="30.5754" y2="27.0331" gradientTransform="matrix(1 0 0 -1 0 30.24)">
		<stop  offset="0.1" style="stop-color:#2814FF"/>
		<stop  offset="0.14" style="stop-color:#2324FF"/>
		<stop  offset="0.3" style="stop-color:#145BFF"/>
		<stop  offset="0.43" style="stop-color:#0983FF"/>
		<stop  offset="0.54" style="stop-color:#029BFF"/>
		<stop  offset="0.61" style="stop-color:#00A4FF"/>
		<stop  offset="0.66" style="stop-color:#00ACCE"/>
		<stop  offset="0.72" style="stop-color:#00B590"/>
		<stop  offset="0.79" style="stop-color:#00BD5D"/>
		<stop  offset="0.84" style="stop-color:#00C434"/>
		<stop  offset="0.9" style="stop-color:#00C818"/>
		<stop  offset="0.95" style="stop-color:#00CB06"/>
		<stop  offset="0.98" style="stop-color:#00CC00"/>
	</linearGradient>
	<path class="st0" d="M30.6,3.2h-8.1V0h-8.5v3.2H5.8v9c-4.2,1.1-6.6,5.3-5.5,9.5s5.3,6.6,9.5,5.5c3.1-0.8,5.4-3.5,5.8-6.7h15.1V3.2z
		 M20.2,2.2v1h-4.1v-1H20.2z M8,8.3V5.4h20.4v2.9C21.7,9.7,14.7,9.7,8,8.3z M13.4,19.7c0,3.1-2.5,5.6-5.6,5.6
		c-3.1,0-5.6-2.5-5.6-5.6c0-3.1,2.5-5.6,5.6-5.6C10.9,14.1,13.4,16.6,13.4,19.7C13.4,19.7,13.4,19.7,13.4,19.7z M8,12v-1.4
		c6.7,1.4,13.6,1.4,20.4,0v7.9H15.5C14.8,14.8,11.7,12.1,8,12z M7.8,19.1c0.9,0,1.7-0.7,1.7-1.7c0-0.9-0.7-1.7-1.7-1.7
		c-0.9,0-1.7,0.7-1.7,1.7l0,0C6.1,18.4,6.9,19.1,7.8,19.1 M11.1,22.7L11.1,22.7L11.1,22.7c-0.1-1.9-1.7-3.3-3.5-3.2
		c-1.7,0.1-3,1.4-3.1,3.1l0,0v0H11.1z"/>
</g>
</svg>
