<?xml version="1.0" encoding="utf-8"?>
<!-- Generator: Adobe Illustrator 26.4.1, SVG Export Plug-In . SVG Version: 6.00 Build 0)  -->
<svg version="1.1" id="Layer_1" xmlns="http://www.w3.org/2000/svg" xmlns:xlink="http://www.w3.org/1999/xlink" x="0px" y="0px"
	 viewBox="0 0 20.8 25" style="enable-background:new 0 0 20.8 25;" xml:space="preserve">
<style type="text/css">
	.st0{fill:url(#SVGID_1_);}
</style>
<linearGradient id="SVGID_1_" gradientUnits="userSpaceOnUse" x1="-6.555439e-02" y1="6.3656" x2="16.9844" y2="23.4156" gradientTransform="matrix(1 0 0 -1 0 27.8)">
	<stop  offset="0.1" style="stop-color:#2814FF"/>
	<stop  offset="0.1435" style="stop-color:#2324FF"/>
	<stop  offset="0.2998" style="stop-color:#145BFF"/>
	<stop  offset="0.4347" style="stop-color:#0983FF"/>
	<stop  offset="0.5417" style="stop-color:#029BFF"/>
	<stop  offset="0.6072" style="stop-color:#00A4FF"/>
	<stop  offset="0.6551" style="stop-color:#00ACCE"/>
	<stop  offset="0.7216" style="stop-color:#00B590"/>
	<stop  offset="0.7855" style="stop-color:#00BD5D"/>
	<stop  offset="0.8449" style="stop-color:#00C434"/>
	<stop  offset="0.8989" style="stop-color:#00C818"/>
	<stop  offset="0.9457" style="stop-color:#00CB06"/>
	<stop  offset="0.98" style="stop-color:#00CC00"/>
</linearGradient>
<path class="st0" d="M20.8,19.8c0,2.8-2.3,5.2-5.2,5.2c-2.3,0-4.2-1.5-4.9-3.5H0V0h12.6l4.1,4.1v10.7C19,15.2,20.8,17.3,20.8,19.8z
	 M15.6,16.7c-1.7,0-3.1,1.4-3.1,3.1s1.4,3.1,3.1,3.1s3.1-1.4,3.1-3.1S17.3,16.7,15.6,16.7z M10.5,19.4c0.2-2.3,1.9-4.2,4.1-4.6V5.6
	h-3.5V2.1H2v17.3H10.5z M2.9,11.8h2.8V9H2.9C2.9,9,2.9,11.8,2.9,11.8z M6.8,11.8h2.8V9H6.8V11.8z M13.6,9h-2.8v2.8h2.8V9z
	 M16.7,17.7L15.1,20l-0.8-0.8l-1,1l2.1,2l2.6-3.6L16.7,17.7z"/>
</svg>
