<?xml version="1.0" encoding="utf-8"?>
<!-- Generator: Adobe Illustrator 26.4.1, SVG Export Plug-In . SVG Version: 6.00 Build 0)  -->
<svg version="1.1" id="Layer_1" xmlns="http://www.w3.org/2000/svg" xmlns:xlink="http://www.w3.org/1999/xlink" x="0px" y="0px"
	 viewBox="0 0 30.7 21.6" style="enable-background:new 0 0 30.7 21.6;" xml:space="preserve">
<style type="text/css">
	.st0{fill:url(#SVGID_1_);}
</style>
<g id="Layer_1_00000043425424600218687230000014620525483486858674_">
	
		<linearGradient id="SVGID_1_" gradientUnits="userSpaceOnUse" x1="4.361" y1="-1.079" x2="26.299" y2="20.869" gradientTransform="matrix(1 0 0 -1 0 24.9)">
		<stop  offset="0.1" style="stop-color:#2814FF"/>
		<stop  offset="0.14" style="stop-color:#2324FF"/>
		<stop  offset="0.3" style="stop-color:#145BFF"/>
		<stop  offset="0.43" style="stop-color:#0983FF"/>
		<stop  offset="0.54" style="stop-color:#029BFF"/>
		<stop  offset="0.61" style="stop-color:#00A4FF"/>
		<stop  offset="0.66" style="stop-color:#00ACCE"/>
		<stop  offset="0.72" style="stop-color:#00B590"/>
		<stop  offset="0.79" style="stop-color:#00BD5D"/>
		<stop  offset="0.84" style="stop-color:#00C434"/>
		<stop  offset="0.9" style="stop-color:#00C818"/>
		<stop  offset="0.95" style="stop-color:#00CB06"/>
		<stop  offset="0.98" style="stop-color:#00CC00"/>
	</linearGradient>
	<path class="st0" d="M22.1,8.4V0H8.5v8.4H0v13.2h30.7V8.4H22.1z M20.3,3.6v2.2l-1.5-1.3L20.3,3.6z M10.7,1.7H20l-4.6,2.8L10.7,1.7z
		 M15.4,6.6l2-1.2l3,2.7v0.2h-10V8.1l3-2.7L15.4,6.6z M10.4,5.8V3.6l1.5,0.9L10.4,5.8z M2,19.6v-9.2h26.8v9.2H2z M25.6,17
		c0,0.6-0.4,1-1,1s-1-0.4-1-1s0.4-1,1-1S25.6,16.5,25.6,17z M23,17c0,0.6-0.4,1-1,1s-1-0.4-1-1s0.4-1,1-1S23,16.5,23,17z M3.8,11.9
		h2V18h-2V11.9z M6.8,11.9h2V18h-2V11.9z M9.8,11.9h2V18h-2V11.9z"/>
</g>
</svg>
