<?xml version="1.0" encoding="UTF-8"?><svg id="Layer_1" xmlns="http://www.w3.org/2000/svg" xmlns:xlink="http://www.w3.org/1999/xlink" viewBox="0 0 43.2 43.2"><defs><style>.cls-1{fill:url(#linear-gradient);}</style><linearGradient id="linear-gradient" x1="11.07" y1="37.25" x2="31.91" y2="16.41" gradientUnits="userSpaceOnUse"><stop offset=".1" stop-color="#2814ff"/><stop offset=".14" stop-color="#2324ff"/><stop offset=".3" stop-color="#145bff"/><stop offset=".43" stop-color="#0982ff"/><stop offset=".54" stop-color="#029bff"/><stop offset=".61" stop-color="#00a4ff"/><stop offset=".66" stop-color="#00abcd"/><stop offset=".72" stop-color="#00b590"/><stop offset=".79" stop-color="#00bd5c"/><stop offset=".84" stop-color="#00c334"/><stop offset=".9" stop-color="#00c817"/><stop offset=".95" stop-color="#00cb06"/><stop offset=".98" stop-color="#0c0"/></linearGradient></defs><path class="cls-1" d="M13.19,20.81c.04,.48,.2,1.6,1.62,1.71,.2,.02,.39,0,.57-.02,.52,1.24,2.61,1.92,3.97,.58,.1-.09,.25-.09,.35,0,.79,.78,2.51,1.08,3.74-.06,.07-.06,.17-.09,.26-.05,.69,.27,3.07,.61,4.08-.88,.11,.02,.2,.04,.31,.05,1.46,.12,1.86-.9,1.84-1.32-.52,.54-1.72-.07-1.41-1.24,.27-1,.59-1.1,.51-1.81-.09-.87-1.19-1.14-1.18-1.81,.01-.64,1.57-3.83-2.36-5.26-.16-.06-.29-.18-.37-.34-.25-.5-1.04-1.6-3.3-1.78-3.74-.3-4.33,1.93-4.6,2.17-.35,.32-1.25,.07-1.68,1.18-.37,.97,.32,1.21-.14,1.92-.42,.65-1.68,1.14-1.99,2.53-.42,1.93,1.09,2.3,1.13,3.61,.03,.82-.74,1.27-1.36,.81Zm11.35-8.81c.28,.96,.88,1.14,.79,1.76-.01,.08-.03,.16-.05,.23-.12,.5-.34,.9-.06,1.57,.32,.77,1.24,1.17,.89,2.43-.07,.25-.13,.51-.17,.77-.94,2.18-2.83,3.61-4.9,3.44-1.58-.13-2.91-1.16-3.71-2.66-.04-.29-.11-.59-.22-.91-1.64-4.94,6.13-3.37,7.43-6.62Zm6.93,14.01l-7.65-1.87-2.11,5.01-2.49-5.01-7.69,1.89-3.05,8.61h26.27l-3.27-8.64Zm-18.77,1.36l1.34-.33,.25,.7-1.19,.44,.52,4.28,2.1-.25-.18-1.49-.62,.07-.19-1.61,1.56-.57,.78,1.51-.55,.28,.69,1.33,1.89-.97-2.07-4.03-1.32,.49-.2-.54,2.86-.7,1.93,3.88,1.54,3.09,1.34-3.18,1.59-3.77,3.18,.78-.55,1.52c-.88,.09-1.57,.83-1.57,1.73,0,.97,.78,1.75,1.75,1.75s1.75-.78,1.75-1.75c0-.49-.2-.92-.52-1.24l.6-1.66,.9,.22,2.1,5.71H10.78l1.91-5.69Zm15.25,2.66c0,.21-.17,.37-.37,.37s-.37-.17-.37-.37,.17-.37,.37-.37,.37,.17,.37,.37Z"/></svg>