<?xml version="1.0" encoding="UTF-8"?><svg id="Layer_1" xmlns="http://www.w3.org/2000/svg" xmlns:xlink="http://www.w3.org/1999/xlink" viewBox="0 0 43.2 43.2"><defs><style>.cls-1{fill:url(#linear-gradient);}</style><linearGradient id="linear-gradient" x1="11.34" y1="37.93" x2="34.33" y2="14.94" gradientUnits="userSpaceOnUse"><stop offset=".1" stop-color="#2814ff"/><stop offset=".14" stop-color="#2324ff"/><stop offset=".3" stop-color="#145bff"/><stop offset=".43" stop-color="#0982ff"/><stop offset=".54" stop-color="#029bff"/><stop offset=".61" stop-color="#00a4ff"/><stop offset=".66" stop-color="#00abcd"/><stop offset=".72" stop-color="#00b590"/><stop offset=".79" stop-color="#00bd5c"/><stop offset=".84" stop-color="#00c334"/><stop offset=".9" stop-color="#00c817"/><stop offset=".95" stop-color="#00cb06"/><stop offset=".98" stop-color="#0c0"/></linearGradient></defs><path class="cls-1" d="M15.61,19.33c.04,.48,.2,1.6,1.62,1.71,.2,.02,.39,0,.57-.02,.52,1.24,2.61,1.92,3.97,.58,.1-.09,.25-.09,.35,0,.79,.78,2.51,1.08,3.74-.06,.07-.06,.17-.09,.26-.05,.69,.27,3.07,.61,4.08-.88,.11,.02,.2,.04,.31,.05,1.46,.12,1.86-.9,1.84-1.32-.52,.54-1.72-.07-1.41-1.24,.27-1,.59-1.1,.51-1.81-.09-.87-1.19-1.14-1.18-1.81,.01-.64,1.57-3.83-2.36-5.26-.16-.06-.29-.18-.37-.34-.25-.5-1.04-1.6-3.3-1.78-3.74-.3-4.33,1.93-4.6,2.17-.35,.32-1.25,.07-1.68,1.18-.37,.97,.32,1.21-.14,1.92-.42,.65-1.68,1.14-1.99,2.53-.42,1.93,1.09,2.3,1.13,3.61,.03,.82-.74,1.27-1.36,.81Zm11.35-8.81c.28,.96,.88,1.14,.79,1.76-.01,.08-.03,.16-.05,.23-.12,.5-.34,.9-.06,1.57,.32,.77,1.24,1.17,.89,2.43-.07,.25-.13,.51-.17,.77-.94,2.18-2.83,3.61-4.9,3.44-1.58-.13-2.91-1.16-3.71-2.66-.04-.29-.11-.59-.22-.91-1.64-4.94,6.13-3.37,7.43-6.62Zm-15.35,22.58c-.57-.08-1.05-.3-1.44-.64-.4-.34-.59-.81-.58-1.43h1.09c.01,.3,.1,.53,.27,.71,.17,.18,.39,.3,.65,.36v-1.59c-.54-.13-1-.33-1.36-.58-.36-.25-.54-.61-.54-1.08,0-.3,.08-.57,.24-.82,.16-.25,.38-.46,.67-.62,.29-.16,.62-.26,.99-.29v-.54h.69v.55c.38,.04,.71,.15,1,.33s.52,.4,.68,.67c.16,.27,.25,.58,.25,.92h-1.12c-.02-.27-.1-.47-.24-.62-.15-.15-.34-.25-.57-.31v1.54c.4,.07,.74,.19,1.03,.34,.29,.16,.52,.35,.68,.59,.16,.24,.24,.52,.24,.84s-.08,.59-.23,.84c-.15,.25-.37,.44-.67,.59s-.65,.23-1.06,.26v.61h-.69v-.64Zm0-5.01c-.18,.02-.33,.07-.45,.13s-.22,.15-.28,.26c-.06,.1-.1,.22-.1,.34,0,.18,.07,.32,.21,.42,.14,.1,.35,.19,.62,.26v-1.42Zm.69,4.07c.26-.03,.48-.1,.64-.22,.16-.12,.24-.28,.24-.48,0-.13-.04-.24-.11-.34-.07-.1-.17-.18-.3-.24s-.29-.13-.48-.18v1.46Zm21.59-7.63l-7.65-1.87-2.11,5.02-2.49-5.02-7.67,1.88c-.62-.22-1.28-.34-1.97-.34-3.28,0-5.96,2.67-5.96,5.96s2.67,5.96,5.96,5.96c2.19,0,4.1-1.19,5.13-2.95h20.03l-3.27-8.64Zm-17.75,7.05c-.21,.59-.53,1.13-.95,1.58-.8,.85-1.93,1.39-3.19,1.39-2.43,0-4.4-1.97-4.4-4.4s1.97-4.4,4.4-4.4c.5,0,.98,.1,1.43,.26,.51,.18,.98,.45,1.39,.79,.96,.81,1.59,2,1.59,3.35,0,.5-.1,.97-.26,1.42Zm-.22-5.89l4.86-1.19,1.93,3.88,1.54,3.09,1.34-3.18,1.59-3.77,5.55,1.35,2.1,5.71H17.77c.11-.46,.18-.93,.18-1.42,0-1.78-.79-3.37-2.03-4.47Z"/></svg>