<?xml version="1.0" encoding="UTF-8"?><svg id="Layer_1" xmlns="http://www.w3.org/2000/svg" xmlns:xlink="http://www.w3.org/1999/xlink" viewBox="0 0 43.2 43.2"><defs><style>.cls-1{fill:url(#linear-gradient);}</style><linearGradient id="linear-gradient" x1="11.33" y1="37.1" x2="31.87" y2="16.55" gradientUnits="userSpaceOnUse"><stop offset=".1" stop-color="#2814ff"/><stop offset=".14" stop-color="#2324ff"/><stop offset=".3" stop-color="#145bff"/><stop offset=".43" stop-color="#0982ff"/><stop offset=".54" stop-color="#029bff"/><stop offset=".61" stop-color="#00a4ff"/><stop offset=".66" stop-color="#00abcd"/><stop offset=".72" stop-color="#00b590"/><stop offset=".79" stop-color="#00bd5c"/><stop offset=".84" stop-color="#00c334"/><stop offset=".9" stop-color="#00c817"/><stop offset=".95" stop-color="#00cb06"/><stop offset=".98" stop-color="#0c0"/></linearGradient></defs><path class="cls-1" d="M21.68,23.91c2.77,0,5.05-3.3,5.2-7.52,.7-1.57,.33-3.24,0-4.37-.43-1.42-1.84-2.01-2.52-2.29-.24-.1-.48-.26-.75-.43-.56-.36-1.2-.77-2-.77s-1.44,.41-2,.77c-.26,.17-.51,.33-.75,.43-.68,.28-2.09,.86-2.52,2.29-.37,1.22-.75,3.03,.16,4.68,.25,4.11,2.47,7.21,5.19,7.21Zm-3.28-10.41c.29,.34,.76,.82,1.51,.82,.88,0,1.58-.23,2.33-.47,.46-.15,.93-.3,1.49-.43l.31-.07c.33-.07,.64-.15,.84-.15,.24,.86,.37,1.8,.37,2.73,0,3.43-1.63,6.32-3.57,6.32s-3.57-2.9-3.57-6.32c0-.83,.1-1.67,.29-2.44Zm13.81,13.37l-.17-.4-7.63-2.77-.93,2.32-1.88-.9-1.88,.9-.93-2.32-7.69,2.79-2.2,8.18h25.41l-2.1-7.8Zm-11.9,6.3H10.85l1.49-5.53,1.72-.63,.26,.71-1.19,.44,.51,4.28,2.11-.25-.18-1.49-.62,.07-.19-1.61,1.56-.57,.78,1.51-.55,.28,.69,1.33,1.89-.97-2.07-4.03-1.32,.49-.25-.7,2.46-.9,.99,2.46,1.26-.6,.23,1.29h.53l-.95,2.5,.32,1.91Zm1.93-4.41h.53l.25-1.3,1.26,.6,.99-2.46,2.73,.99-.6,1.67c-.88,.09-1.57,.83-1.57,1.73,0,.97,.78,1.75,1.75,1.75s1.75-.78,1.75-1.75c0-.49-.2-.92-.52-1.24l.59-1.65,1.46,.53,1.49,5.53h-9.46l.32-1.91-.98-2.5Zm5.71,1.24c0,.21-.17,.37-.37,.37s-.37-.17-.37-.37,.17-.37,.37-.37,.37,.17,.37,.37Z"/></svg>