<?xml version="1.0" encoding="UTF-8"?><svg id="Layer_1" xmlns="http://www.w3.org/2000/svg" xmlns:xlink="http://www.w3.org/1999/xlink" viewBox="0 0 43.2 43.2"><defs><style>.cls-1{fill:url(#linear-gradient);}</style><linearGradient id="linear-gradient" x1="9.12" y1="31.06" x2="31.97" y2="8.22" gradientUnits="userSpaceOnUse"><stop offset=".1" stop-color="#2814ff"/><stop offset=".14" stop-color="#2324ff"/><stop offset=".3" stop-color="#145bff"/><stop offset=".43" stop-color="#0982ff"/><stop offset=".54" stop-color="#029bff"/><stop offset=".61" stop-color="#00a4ff"/><stop offset=".66" stop-color="#00abcd"/><stop offset=".72" stop-color="#00b590"/><stop offset=".79" stop-color="#00bd5c"/><stop offset=".84" stop-color="#00c334"/><stop offset=".9" stop-color="#00c817"/><stop offset=".95" stop-color="#00cb06"/><stop offset=".98" stop-color="#0c0"/></linearGradient></defs><path class="cls-1" d="M33.83,29.2V10.08H7.26V29.2H15.76v1.37h-2.29v2.54h14.17v-2.54h-2.29v-1.37h8.5Zm-17.67-8.63c.21-.17,.66-.39,1.36-.58,.15,2.45,1.45,4.35,3,4.35s2.83-1.89,2.99-4.33c.69,.18,1.12,.4,1.32,.57l-3.08,5-.14,.23h1.52l.97-1.57,2.13,.52,.83,2.08H13.96l.81-2.07,2.22-.54,1.03,1.58h1.54l-3.41-5.23Zm4.33-2.21c-1.68,0-3.26,.26-4.3,.71,.54-2.04,2.18-4.09,4.33-4.09s3.74,2.06,4.27,4.09c-1.04-.45-2.62-.71-4.3-.71Zm1.74,1.4c-.08,1.89-.95,3.28-1.71,3.28s-1.63-1.4-1.71-3.29c1.12-.14,2.31-.14,3.41,0Zm-12.62-7.31H31.49v14.38h-2.99l-1.25-3.15-.03-.07-2.38-.58,1.44-2.34v-.18c0-3.22-2.46-6.82-5.76-6.82s-5.82,3.67-5.82,6.82v.19l1.52,2.32-2.44,.6-1.26,3.21h-2.91V12.45Z"/></svg>