<?xml version="1.0" encoding="utf-8"?>
<!-- Generator: Adobe Illustrator 27.2.0, SVG Export Plug-In . SVG Version: 6.00 Build 0)  -->
<svg version="1.1" id="Layer_1" xmlns="http://www.w3.org/2000/svg" xmlns:xlink="http://www.w3.org/1999/xlink" x="0px" y="0px"
	 viewBox="0 0 30 28.8" style="enable-background:new 0 0 30 28.8;" xml:space="preserve">
<style type="text/css">
	.st0{fill:url(#SVGID_1_);}
</style>
<linearGradient id="SVGID_1_" gradientUnits="userSpaceOnUse" x1="4.5052" y1="4.7052" x2="25.5052" y2="25.7052" gradientTransform="matrix(1 0 0 -1 0 31.6)">
	<stop  offset="0.1" style="stop-color:#2814FF"/>
	<stop  offset="0.1435" style="stop-color:#2324FF"/>
	<stop  offset="0.2998" style="stop-color:#145BFF"/>
	<stop  offset="0.4347" style="stop-color:#0983FF"/>
	<stop  offset="0.5417" style="stop-color:#029BFF"/>
	<stop  offset="0.6072" style="stop-color:#00A4FF"/>
	<stop  offset="0.6551" style="stop-color:#00ACCE"/>
	<stop  offset="0.7216" style="stop-color:#00B590"/>
	<stop  offset="0.7855" style="stop-color:#00BD5D"/>
	<stop  offset="0.8449" style="stop-color:#00C434"/>
	<stop  offset="0.8989" style="stop-color:#00C818"/>
	<stop  offset="0.9457" style="stop-color:#00CB06"/>
	<stop  offset="0.98" style="stop-color:#00CC00"/>
</linearGradient>
<path class="st0" d="M30,11.7c0-1.7-1.4-3.1-3.1-3.1c-0.1,0-0.3,0-0.4,0c-0.6-0.9-1.2-1.8-2-2.5c-1.7-1.7-3.9-2.9-6.3-3.5
	C18,1.1,16.7,0,15.1,0S12.3,1.1,12,2.6C9.6,3.2,7.4,4.4,5.7,6.1C5,6.9,4.3,7.7,3.7,8.7c-0.2,0-0.4-0.1-0.6-0.1C1.4,8.6,0,10,0,11.7
	c0,1.2,0.7,2.3,1.8,2.8c-0.2,3.4,0.9,6.9,3.1,9.5c-0.3,0.5-0.5,1.1-0.5,1.7c0,1.7,1.4,3.1,3.1,3.1c0.9,0,1.8-0.4,2.4-1.1
	c3.2,1.3,6.8,1.3,10,0c0.6,0.7,1.5,1.1,2.4,1.1c1.7,0,3.1-1.4,3.1-3.1c0-0.6-0.2-1.1-0.5-1.6c2.1-2.4,3.2-5.5,3.2-8.6
	c0-0.3,0-0.7,0-1C29.4,14,30,12.9,30,11.7z M27.6,12.8L27.6,12.8C27.3,13,27,13,26.7,12.9c-0.3-0.1-0.6-0.3-0.8-0.5
	c-0.1-0.2-0.2-0.5-0.2-0.7c0-0.3,0.1-0.6,0.3-0.9c0.2-0.2,0.5-0.4,0.8-0.4h0.1c0.7,0,1.3,0.6,1.3,1.3C28.2,12.2,28,12.6,27.6,12.8z
	 M13.9,2.9L13.9,2.9c0.1-0.6,0.7-1.1,1.3-1.1s1.1,0.4,1.2,1.1c0,0.1,0,0.1,0,0.2c0,0.2-0.1,0.5-0.2,0.7c-0.2,0.3-0.4,0.5-0.8,0.6
	c-0.3,0.1-0.5,0.1-0.7,0c-0.3-0.1-0.5-0.3-0.6-0.5s-0.2-0.4-0.2-0.7C13.9,3,13.9,2.9,13.9,2.9z M18.5,9.1v12.7h-6.7V9.1H18.5z
	 M2.8,12.9L2.8,12.9C2.3,12.7,2,12.2,2,11.7c0-0.7,0.6-1.3,1.3-1.3c0.1,0,0.2,0,0.2,0c0.3,0.1,0.6,0.2,0.8,0.5
	c0.2,0.2,0.3,0.5,0.3,0.8s-0.1,0.5-0.2,0.7c-0.2,0.2-0.4,0.4-0.7,0.5C3.3,13,3,13,2.8,12.9z M7.7,27c-0.7,0-1.3-0.6-1.3-1.3
	s0.6-1.3,1.3-1.3S9,25,9,25.7C9,26.4,8.4,27,7.7,27z M9.9,21.1l-1.2,1.7c-0.6-0.2-1.3-0.2-2,0c-1.9-2.2-2.9-5.1-2.7-8
	c0.7-0.2,1.4-0.6,1.8-1.2l4.1,1.3V21.1z M9.9,7v5.8l-3.5-1.1c0-0.8-0.3-1.5-0.8-2c0.5-0.8,1-1.5,1.7-2.1c1.4-1.4,3.2-2.4,5.2-2.9
	c0.4,0.7,1,1.2,1.7,1.4v1L9.9,7L9.9,7z M19.4,25.8c-2.8,1.1-5.9,1.1-8.6,0c0,0,0,0,0-0.1c0-0.7-0.2-1.3-0.6-1.9H20l0.1,0.1
	C19.7,24.4,19.4,25.1,19.4,25.8C19.4,25.7,19.4,25.8,19.4,25.8z M16,7V6.1c0.8-0.2,1.5-0.7,1.9-1.4c2,0.5,3.8,1.5,5.2,2.9
	c0.6,0.6,1.1,1.3,1.6,2c-0.6,0.6-0.9,1.3-0.9,2.1l-3.3,1.1V7.1H16V7z M22.6,27c-0.7,0-1.3-0.6-1.3-1.3s0.6-1.3,1.3-1.3
	c0.7,0,1.3,0.6,1.3,1.3C23.9,26.4,23.3,27,22.6,27z M23.6,22.8c-0.3-0.1-0.7-0.2-1.1-0.2s-0.7,0.1-1,0.2l-1-1.4v-6.7l3.9-1.2
	c0.5,0.7,1.2,1.1,2,1.3c0,0.2,0,0.5,0,0.7C26.4,18.2,25.4,20.8,23.6,22.8z M17,20.5c0-0.2,0.2-0.5,0.5-0.5c0.2,0,0.5,0.2,0.5,0.5
	c0,0.2-0.2,0.5-0.5,0.5S17,20.7,17,20.5z M17,19c0-0.3,0.2-0.5,0.5-0.5S18,18.7,18,19c0,0.2-0.2,0.5-0.5,0.5S17,19.3,17,19z
	 M17,17.4c0-0.2,0.2-0.5,0.5-0.5c0.2,0,0.5,0.2,0.5,0.5s-0.2,0.5-0.5,0.5S17,17.7,17,17.4z M16.6,21h-4v-1h4V21z M16.6,18h-4v-1h4
	V18z M16.6,19.5h-4v-1h4V19.5z"/>
</svg>
