<?xml version="1.0" encoding="UTF-8"?><svg id="Layer_1" xmlns="http://www.w3.org/2000/svg" xmlns:xlink="http://www.w3.org/1999/xlink" viewBox="0 0 43.2 43.2"><defs><style>.cls-1{fill:url(#linear-gradient);}</style><linearGradient id="linear-gradient" x1="16.99" y1="30.89" x2="30.91" y2="16.97" gradientUnits="userSpaceOnUse"><stop offset=".1" stop-color="#2814ff"/><stop offset=".14" stop-color="#2324ff"/><stop offset=".3" stop-color="#145bff"/><stop offset=".43" stop-color="#0982ff"/><stop offset=".54" stop-color="#029bff"/><stop offset=".61" stop-color="#00a4ff"/><stop offset=".66" stop-color="#00abcd"/><stop offset=".72" stop-color="#00b590"/><stop offset=".79" stop-color="#00bd5c"/><stop offset=".84" stop-color="#00c334"/><stop offset=".9" stop-color="#00c817"/><stop offset=".95" stop-color="#00cb06"/><stop offset=".98" stop-color="#0c0"/></linearGradient></defs><path class="cls-1" d="M33.87,19.98v1.28h-2.65c.01-.2,.03-.4,.03-.61,0-.23-.02-.45-.03-.67h2.66Zm-23.82,.67c0-.23,.02-.45,.03-.67h-2.74v1.28h2.74c-.01-.2-.03-.4-.03-.61Zm25.3,12.43l-2.28,2.27-6.8-6.8c-1.66,1.19-3.6,1.81-5.64,1.81-5.36,0-9.73-4.36-9.73-9.73s4.36-9.73,9.73-9.73,9.73,4.36,9.73,9.73c0,2.04-.63,3.98-1.81,5.64l6.8,6.8Zm-9.16-7.53l-.32-.79-2.08-.51-1.25,2.14-.89-.52,2.96-5.08c-.17-.19-.64-.44-1.36-.64-.09,2.23-1.23,4-2.63,4s-2.54-1.78-2.63-4.02c-.75,.2-1.23,.45-1.41,.65l3.13,5.07-.87,.54-1.33-2.16-2.17,.53-.3,.76c1.36,1.55,3.36,2.54,5.58,2.54s4.2-.98,5.56-2.52Zm-1.59-5.98c-.44-2.14-2.02-4.2-3.97-4.2s-3.55,2.09-4.01,4.2c1.98-.97,6.02-.97,7.98,0Zm-4,.26c-.6,0-1.12,.04-1.59,.11,.02,1.83,.86,3.19,1.62,3.19s1.59-1.36,1.62-3.19c-.48-.07-1.03-.12-1.64-.12Zm7.46,.81c0-4.1-3.33-7.43-7.43-7.43s-7.43,3.33-7.43,7.43c0,1.47,.44,2.85,1.18,4l.27-.68,2.35-.58-1.5-2.44h-.01s0-.01,0-.02l-.03-.04v-.15c0-3.02,2.21-6.4,5.18-6.4s5.12,3.38,5.12,6.4v.14l-.03,.05s0,.01,0,.02h-.01l-1.43,2.45,2.29,.56,.29,.72c.76-1.16,1.2-2.55,1.2-4.03Zm-7.41,10.61c-.21,0-.42-.02-.64-.03v2.67h1.28v-2.67c-.21,.01-.42,.03-.64,.03Zm0-21.19c.22,0,.43,.02,.64,.03v-2.73h-1.28v2.73c.21-.01,.42-.03,.64-.03Z"/></svg>