<?xml version="1.0" encoding="UTF-8"?><svg id="Layer_1" xmlns="http://www.w3.org/2000/svg" xmlns:xlink="http://www.w3.org/1999/xlink" viewBox="0 0 43.2 43.2"><defs><style>.cls-1{fill:url(#linear-gradient);}</style><linearGradient id="linear-gradient" x1="8.88" y1="36.79" x2="38.3" y2="7.37" gradientUnits="userSpaceOnUse"><stop offset=".1" stop-color="#2814ff"/><stop offset=".14" stop-color="#2324ff"/><stop offset=".3" stop-color="#145bff"/><stop offset=".43" stop-color="#0982ff"/><stop offset=".54" stop-color="#029bff"/><stop offset=".61" stop-color="#00a4ff"/><stop offset=".66" stop-color="#00abcd"/><stop offset=".72" stop-color="#00b590"/><stop offset=".79" stop-color="#00bd5c"/><stop offset=".84" stop-color="#00c334"/><stop offset=".9" stop-color="#00c817"/><stop offset=".95" stop-color="#00cb06"/><stop offset=".98" stop-color="#0c0"/></linearGradient></defs><path class="cls-1" d="M39.15,8.22l-12.99-.58,3.01,3.57,5.36-1.26-4.86,2.57,.02,.87v.45s-5.73,0-5.73,0l-2.18-2.18h-7.78v2.86h-2.78v11.78l-7.16-.32,3.01,3.57,5.36-1.26-1.21,.64-3.66,1.93,.02,.87v.74s.07,3.06,.07,3.06l4.12-3.93h22.29v-2.79h2.71V13.85h-3.5l5.9-5.63ZM15.95,13.63h4.98l2.18,2.18h6.62l.02,.91h-8.57l-2.18-2.18h-3.04v-.91Zm16.14,16.04H13.8l3.24-3.09-3.87-.17v-9.92h4.98l2.18,2.18h11.77v11Zm2.78-13.86v11.06h-.83v-10.16h-3.79l.95-.91h3.66Zm-17.04,12.51h9.59l-4.79-8.3-4.75,8.23-.04,.07Zm4.79-6.58l3.3,5.71h-6.6l3.3-5.71Zm-.34,4.03l-.06-2.67h.89l-.05,2.67h-.78Zm-.03,.35h.84v.82h-.84v-.82Z"/></svg>