<?xml version="1.0" encoding="utf-8"?>
<!-- Generator: Adobe Illustrator 27.2.0, SVG Export Plug-In . SVG Version: 6.00 Build 0)  -->
<svg version="1.1" id="Layer_1" xmlns="http://www.w3.org/2000/svg" xmlns:xlink="http://www.w3.org/1999/xlink" x="0px" y="0px"
	 viewBox="0 0 33.4 26.3" style="enable-background:new 0 0 33.4 26.3;" xml:space="preserve">
<style type="text/css">
	.st0{fill:url(#SVGID_1_);}
</style>
<linearGradient id="SVGID_1_" gradientUnits="userSpaceOnUse" x1="4.3899" y1="5.2742" x2="30.9578" y2="31.8421" gradientTransform="matrix(1 0 0 -1 0 29.4)">
	<stop  offset="0" style="stop-color:#2814FF"/>
	<stop  offset="0.6" style="stop-color:#00A4FF"/>
	<stop  offset="0.98" style="stop-color:#00CC00"/>
</linearGradient>
<path class="st0" d="M33.4,0v20.2H16.1v-0.6c0-0.4-0.1-0.9-0.2-1.3l-0.2-0.7h15.1v-15H6.1V8L5.3,7.8C4.9,7.7,4.5,7.6,4.1,7.6H3.5V0
	H33.4z M21.7,14.2l5.4-3.2V9.3l-5.5-3.2v2.6l2.5,1.5l-2.5,1.5L21.7,14.2z M15.5,11.7L13,10.2l2.5-1.5V6.1L10,9.3V11l5.4,3.2
	L15.5,11.7z M18.6,14.8h-2.5l2.7-9.2h2.5L18.6,14.8z M9.4,23.4c1.5,0,2.6-1.2,2.6-2.7s-1.2-2.6-2.7-2.6s-2.6,1.2-2.6,2.7
	C6.7,22.2,7.9,23.4,9.4,23.4z M7.8,20.7c0-0.9,0.7-1.6,1.5-1.6s1.6,0.7,1.6,1.5c0,0.9-0.7,1.6-1.5,1.6C8.5,22.3,7.8,21.6,7.8,20.7z
	 M1.3,10.8l-1.1,0.1V11C0,11.6,0,12.2,0.1,12.8V13l1.1,0.2c0.1,0.2,0.1,0.3,0.2,0.4l-0.5,1l0.2,0.1c0.4,0.4,1,0.8,1.5,1h0.1l0.7-0.9
	c0.2,0,0.4,0,0.5,0l0.7,0.9l0.1,0.1h0.1c0.6-0.1,1.1-0.4,1.6-0.9l0.1-0.1l-0.4-1c0.1-0.1,0.2-0.3,0.3-0.4l1.1-0.1v-0.1
	c0.2-0.6,0.2-1.2,0.1-1.8v-0.2L6.5,11c-0.1-0.1-0.1-0.3-0.3-0.4l0.5-1L6.6,9.5c-0.4-0.4-1-0.8-1.5-1H5L4.3,9.4c-0.2,0-0.3,0-0.5,0
	L3.1,8.3H2.9C2.3,8.4,1.7,8.7,1.3,9.2L1.2,9.3l0.4,1C1.5,10.5,1.4,10.6,1.3,10.8z M4.7,12.1c0,0.2-0.1,0.5-0.3,0.6
	c-0.2,0.2-0.4,0.2-0.6,0.2c-0.1,0-0.2,0-0.2,0c-0.1,0-0.3-0.1-0.4-0.2c-0.3-0.4-0.3-0.9,0-1.3c0.2-0.2,0.4-0.2,0.6-0.2
	c0.2,0,0.5,0.1,0.6,0.3C4.7,11.6,4.8,11.8,4.7,12.1z M5.1,16.6l-0.2,0.3c-0.5,0.5-0.8,1.2-1,1.8l-0.1,0.4L5,20c0,0.1,0,0.2,0,0.3
	l-1.3,0.5v0.4c0.1,0.7,0.2,1.4,0.6,2l0.2,0.3l1.4-0.2C6,23.4,6,23.5,6.1,23.6l-0.6,1.3l0.3,0.2c0.5,0.5,1.2,0.8,1.8,1L8,26.2L8.9,25
	c0.1,0,0.2,0,0.3,0l0.5,1.3h0.4c0.7-0.1,1.4-0.2,2-0.6l0.3-0.2l-0.2-1.4c0.1-0.1,0.2-0.1,0.3-0.2l1.3,0.6l0.2-0.3
	c0.5-0.5,0.8-1.2,1-1.8l0.1-0.4l-1.2-0.9c0-0.1,0-0.2,0-0.3l1.3-0.5v-0.4c-0.1-0.7-0.2-1.4-0.6-2l-0.2-0.3L13.1,18
	c-0.1-0.1-0.1-0.2-0.2-0.3l0.6-1.3l-0.4-0.2c-0.5-0.5-1.2-0.8-1.8-1l-0.4-0.1l-0.8,1.1c-0.1,0-0.2,0-0.3,0l-0.5-1.3H8.9
	c-0.7,0.1-1.4,0.2-2,0.6l-0.3,0.2l0.2,1.4c-0.1,0.1-0.2,0.1-0.3,0.2L5.1,16.6z M7.8,17.6l-0.2-1.3c0.3-0.1,0.6-0.2,0.9-0.3L9,17.2
	h0.3c0.3,0,0.5,0,0.8,0.1l0.3,0.1l0.8-1c0.3,0.1,0.6,0.3,0.8,0.5l-0.5,1.2l0.2,0.2c0.2,0.2,0.3,0.4,0.5,0.6l0.2,0.3l1.3-0.2
	c0.1,0.3,0.2,0.6,0.3,0.9l-1.2,0.5v0.3c0,0.3,0,0.5-0.1,0.8l-0.1,0.3l1,0.8c-0.1,0.3-0.3,0.6-0.5,0.8l-1.2-0.5l-0.2,0.2
	c-0.2,0.2-0.4,0.3-0.6,0.5l-0.3,0.2l0.2,1.3c-0.3,0.1-0.6,0.2-0.9,0.3l-0.5-1.2H9.3c-0.3,0-0.5,0-0.8-0.1L8.2,24l-0.8,1
	c-0.3-0.1-0.6-0.3-0.8-0.5l0.5-1.2l-0.2-0.2c-0.2-0.2-0.3-0.4-0.5-0.6l-0.2-0.3l-1.3,0.2c-0.1-0.3-0.2-0.6-0.3-0.9L5.8,21v-0.3
	c0-0.3,0-0.5,0.1-0.8L6,19.6l-1-0.8c0.1-0.3,0.3-0.6,0.5-0.8l1.2,0.5l0.2-0.2c0.2-0.2,0.4-0.3,0.6-0.5L7.8,17.6z"/>
</svg>
