<?xml version="1.0" encoding="utf-8"?>
<!-- Generator: Adobe Illustrator 27.2.0, SVG Export Plug-In . SVG Version: 6.00 Build 0)  -->
<svg version="1.1" id="Layer_1" xmlns="http://www.w3.org/2000/svg" xmlns:xlink="http://www.w3.org/1999/xlink" x="0px" y="0px"
	 viewBox="0 0 22.9 30.2" style="enable-background:new 0 0 22.9 30.2;" xml:space="preserve">
<style type="text/css">
	.st0{fill:url(#SVGID_1_);}
</style>
<linearGradient id="SVGID_1_" gradientUnits="userSpaceOnUse" x1="-1.4973" y1="28.713" x2="24.4236" y2="2.7921">
	<stop  offset="0.1" style="stop-color:#2814FF"/>
	<stop  offset="0.1435" style="stop-color:#2324FF"/>
	<stop  offset="0.2998" style="stop-color:#145BFF"/>
	<stop  offset="0.4347" style="stop-color:#0983FF"/>
	<stop  offset="0.5417" style="stop-color:#029BFF"/>
	<stop  offset="0.6072" style="stop-color:#00A4FF"/>
	<stop  offset="0.6551" style="stop-color:#00ACCE"/>
	<stop  offset="0.7216" style="stop-color:#00B590"/>
	<stop  offset="0.7855" style="stop-color:#00BD5D"/>
	<stop  offset="0.8449" style="stop-color:#00C434"/>
	<stop  offset="0.8989" style="stop-color:#00C818"/>
	<stop  offset="0.9457" style="stop-color:#00CB06"/>
	<stop  offset="0.98" style="stop-color:#00CC00"/>
</linearGradient>
<path class="st0" d="M14.7,1.3V0H8v1.3H0v28.9h22.9V1.3H14.7z M16.1,5.1V4h4.2v23.5H2.6V4h4v1.1H16.1z M15.4,12.4v7.9H7.5v-7.9H15.4
	 M17.1,10.7H5.9v11.2h11.2V10.7L17.1,10.7z M13.6,16.7c-0.2-0.2-0.4-0.4-0.7-0.6c-0.3-0.2-0.7-0.3-1.1-0.3v-1.5
	c0.2,0.1,0.4,0.2,0.6,0.3c0.1,0.1,0.2,0.3,0.2,0.6l1.1,0c0-0.3-0.1-0.6-0.3-0.9c-0.2-0.3-0.4-0.5-0.7-0.7c-0.3-0.2-0.6-0.3-1-0.3
	v-0.5h-0.7v0.5c-0.4,0-0.7,0.1-1,0.3c-0.3,0.2-0.5,0.4-0.7,0.6c-0.2,0.2-0.2,0.5-0.2,0.8c0,0.5,0.2,0.8,0.6,1.1
	c0.4,0.2,0.8,0.4,1.4,0.6v1.6c-0.3-0.1-0.5-0.2-0.7-0.4c-0.2-0.2-0.3-0.4-0.3-0.7H9.1c0,0.6,0.2,1.1,0.6,1.4
	c0.4,0.3,0.9,0.5,1.5,0.6v0.6h0.7v-0.6c0.4,0,0.8-0.1,1.1-0.3c0.3-0.1,0.5-0.3,0.7-0.6c0.2-0.2,0.2-0.5,0.2-0.8
	C13.9,17.2,13.8,17,13.6,16.7z M11.1,15.7c-0.3-0.1-0.5-0.2-0.6-0.3c-0.1-0.1-0.2-0.2-0.2-0.4c0-0.1,0-0.2,0.1-0.3
	c0.1-0.1,0.2-0.2,0.3-0.3c0.1-0.1,0.3-0.1,0.5-0.1V15.7z M12.5,18.1c-0.2,0.1-0.4,0.2-0.7,0.2v-1.4c0.2,0.1,0.4,0.1,0.5,0.2
	s0.2,0.1,0.3,0.2c0.1,0.1,0.1,0.2,0.1,0.3C12.8,17.8,12.7,17.9,12.5,18.1z"/>
</svg>
