<?xml version="1.0" encoding="utf-8"?>
<!-- Generator: Adobe Illustrator 27.2.0, SVG Export Plug-In . SVG Version: 6.00 Build 0)  -->
<svg version="1.1" id="Layer_1" xmlns="http://www.w3.org/2000/svg" xmlns:xlink="http://www.w3.org/1999/xlink" x="0px" y="0px"
	 viewBox="0 0 30 28.8" style="enable-background:new 0 0 30 28.8;" xml:space="preserve">
<style type="text/css">
	.st0{fill:url(#SVGID_1_);}
</style>
<linearGradient id="SVGID_1_" gradientUnits="userSpaceOnUse" x1="-0.125" y1="2.9285" x2="27.3785" y2="30.4319" gradientTransform="matrix(1 0 0 -1 0 31.6069)">
	<stop  offset="0" style="stop-color:#2814FF"/>
	<stop  offset="5.204594e-02" style="stop-color:#2324FF"/>
	<stop  offset="0.2392" style="stop-color:#145BFF"/>
	<stop  offset="0.4007" style="stop-color:#0983FF"/>
	<stop  offset="0.5287" style="stop-color:#029BFF"/>
	<stop  offset="0.6072" style="stop-color:#00A4FF"/>
	<stop  offset="0.6551" style="stop-color:#00ACCE"/>
	<stop  offset="0.7216" style="stop-color:#00B590"/>
	<stop  offset="0.7855" style="stop-color:#00BD5D"/>
	<stop  offset="0.8449" style="stop-color:#00C434"/>
	<stop  offset="0.8989" style="stop-color:#00C818"/>
	<stop  offset="0.9457" style="stop-color:#00CB06"/>
	<stop  offset="0.98" style="stop-color:#00CC00"/>
</linearGradient>
<path class="st0" d="M26.6,7.2C26.5,7.3,14.8,19,14.7,19.1l-5.1,1.3l1.3-5.1C11,15.2,22.7,3.5,22.8,3.4C22.9,3.4,26.6,7.1,26.6,7.2z
	 M22.5,14v11.7H3.1V5.8h14.5l3.1-3.1H0v26.1h25.6V10.9C24.7,11.8,23.6,12.9,22.5,14z M26.2,0c0.1-0.1-2,2-1.9,1.9
	C24.4,2,28,5.6,28.1,5.7c-0.1,0.1,2-2,1.9-1.9L26.2,0z"/>
</svg>
