<?xml version="1.0" encoding="utf-8"?>
<!-- Generator: Adobe Illustrator 27.2.0, SVG Export Plug-In . SVG Version: 6.00 Build 0)  -->
<svg version="1.1" id="Layer_1" xmlns="http://www.w3.org/2000/svg" xmlns:xlink="http://www.w3.org/1999/xlink" x="0px" y="0px"
	 viewBox="0 0 24.2 35.6" style="enable-background:new 0 0 24.2 35.6;" xml:space="preserve">
<style type="text/css">
	.st0{fill:url(#SVGID_1_);}
</style>
<linearGradient id="SVGID_1_" gradientUnits="userSpaceOnUse" x1="-1.3" y1="10.3" x2="25.4552" y2="37.0553" gradientTransform="matrix(1 0 0 -1 0 38.4)">
	<stop  offset="0.1" style="stop-color:#2814FF"/>
	<stop  offset="0.1435" style="stop-color:#2324FF"/>
	<stop  offset="0.2998" style="stop-color:#145BFF"/>
	<stop  offset="0.4347" style="stop-color:#0983FF"/>
	<stop  offset="0.5417" style="stop-color:#029BFF"/>
	<stop  offset="0.6072" style="stop-color:#00A4FF"/>
	<stop  offset="0.6551" style="stop-color:#00ACCE"/>
	<stop  offset="0.7216" style="stop-color:#00B590"/>
	<stop  offset="0.7855" style="stop-color:#00BD5D"/>
	<stop  offset="0.8449" style="stop-color:#00C434"/>
	<stop  offset="0.8989" style="stop-color:#00C818"/>
	<stop  offset="0.9457" style="stop-color:#00CB06"/>
	<stop  offset="0.98" style="stop-color:#00CC00"/>
</linearGradient>
<path class="st0" d="M20.8,20.8v-1.5h3.4V10H20V8.6h4.2V0H0v8.6h3.7V10H0v9.3h3.4v1.5H0v8.6h3.4v1.9l8.7,4.3l8.7-4.3v-1.9h3.4v-8.6
	H20.8z M3.4,22.8v4.5H2v-4.5H3.4z M20,14.2c0,0-4.3-1.3-7.9-1.3c-3.5,0-7.8,1.3-7.9,1.3l-0.8,0.2v2.9H2v-5.2h20.1v5.2h-1.4v-2.9
	L20,14.2z M22.1,2.1v4.5h-20V2.1H22.1z M5.7,16.2c1.4-0.3,4.1-1,6.4-1s5,0.6,6.4,1v13.7l-6.4,3.2l-6.4-3.2
	C5.7,29.9,5.7,16.2,5.7,16.2z M22.1,22.8v4.5h-1.4v-4.5H22.1z M10.9,19.7c-0.9,0-1.6,0.7-1.6,1.6s0.7,1.6,1.6,1.6s1.6-0.7,1.6-1.6
	C12.5,20.5,11.8,19.7,10.9,19.7z M11.8,21.3c0,0.5-0.4,1-1,1c-0.5,0-1-0.4-1-1c0-0.5,0.4-1,1-1C11.4,20.4,11.8,20.8,11.8,21.3z
	 M16.6,26.4l0.6-0.2v-0.1c0-0.4-0.1-0.7-0.3-1V25l-0.6,0.1c-0.1-0.1-0.1-0.1-0.2-0.2l0.1-0.6h-0.1c-0.3-0.2-0.7-0.3-1-0.3H15
	l-0.2,0.6c-0.1,0-0.2,0-0.3,0.1L14,24.3h-0.1h-0.1c-0.3,0.2-0.6,0.5-0.8,0.8v0.1l0.4,0.5c0,0.1-0.1,0.2-0.1,0.3l-0.6,0.2v0.1
	c0,0.4,0.1,0.7,0.3,1v0.1l0.7-0.1c0.1,0.1,0.1,0.1,0.2,0.2l-0.1,0.6h0.1c0.3,0.2,0.7,0.3,1,0.3H15l0.2-0.6c0.1,0,0.2,0,0.3-0.1
	l0.5,0.4h0.1c0.3-0.2,0.6-0.5,0.8-0.8v-0.1l-0.4-0.5C16.5,26.6,16.6,26.5,16.6,26.4z M14.4,26.2c0-0.1,0-0.3,0.1-0.4
	s0.2-0.2,0.3-0.3h0.1c0.1,0,0.2,0,0.3,0.1c0.3,0.1,0.3,0.5,0.2,0.7c-0.1,0.1-0.2,0.2-0.3,0.3c-0.1,0-0.3,0-0.4-0.1
	C14.5,26.5,14.4,26.4,14.4,26.2z M13.4,23.8l0.1-0.2c0.3-0.3,0.5-0.7,0.6-1.1l0.1-0.2l-0.7-0.5c0-0.1,0-0.1,0-0.2l0.8-0.3v-0.2
	c0-0.4-0.1-0.9-0.3-1.2l-0.1-0.2L13,19.8c0-0.1-0.1-0.1-0.1-0.2l0.3-0.8L13,18.7c-0.3-0.3-0.7-0.5-1.1-0.6L11.7,18l-0.5,0.7
	c-0.1,0-0.1,0-0.2,0l-0.3-0.8h-0.2c-0.4,0-0.9,0.1-1.2,0.3l-0.2,0l0.1,0.9c-0.1,0-0.1,0.1-0.2,0.1l-0.8-0.3l-0.1,0.2
	c-0.3,0.3-0.5,0.7-0.6,1.1l-0.1,0.2l0.7,0.5c0,0.1,0,0.1,0,0.2l-0.8,0.3v0.2c0,0.4,0.1,0.9,0.3,1.2L7.7,23l0.9-0.1
	c0,0.1,0.1,0.1,0.1,0.2l-0.3,0.8L8.6,24c0.3,0.3,0.7,0.5,1.1,0.6l0.2,0.1l0.5-0.7c0.1,0,0.1,0,0.2,0l0.3,0.8h0.2
	c0.4,0,0.9-0.1,1.2-0.3l0.2-0.1l0-0.8c0.1,0,0.1-0.1,0.2-0.1L13.4,23.8z M11.8,23.2l0.1,0.8c-0.2,0.1-0.4,0.1-0.6,0.2L11,23.5h-0.2
	c-0.2,0-0.3,0-0.5-0.1h-0.2L9.6,24c-0.2-0.1-0.3-0.2-0.5-0.3L9.4,23l-0.1-0.1c-0.1-0.1-0.2-0.2-0.3-0.4l0-0.3l-0.8,0.1
	c-0.1-0.2-0.1-0.4-0.2-0.6l0.7-0.3v-0.2c0-0.2,0-0.3,0.1-0.5v-0.2l-0.6-0.3c0.1-0.2,0.2-0.3,0.3-0.5L9.2,20l0.1-0.1
	c0.1-0.1,0.2-0.2,0.4-0.3l0.2-0.1l-0.1-0.8c0.2-0.1,0.4-0.1,0.6-0.2l0.3,0.7h0.2c0.2,0,0.3,0,0.5,0.1h0.2l0.5-0.6
	c0.2,0.1,0.3,0.2,0.5,0.3l-0.3,0.7l0.1,0.1c0.1,0.1,0.2,0.2,0.3,0.4l0.1,0.2l0.8-0.1c0.1,0.2,0.1,0.4,0.2,0.6l-0.9,0.3v0.2
	c0,0.2,0,0.3-0.1,0.5v0.2l0.6,0.5c-0.1,0.2-0.2,0.3-0.3,0.5l-0.7-0.3l-0.1,0.1c-0.1,0.1-0.2,0.2-0.4,0.3L11.8,23.2z"/>
</svg>
