<?xml version="1.0" encoding="utf-8"?>
<!-- Generator: Adobe Illustrator 27.2.0, SVG Export Plug-In . SVG Version: 6.00 Build 0)  -->
<svg version="1.1" id="Layer_1" xmlns="http://www.w3.org/2000/svg" xmlns:xlink="http://www.w3.org/1999/xlink" x="0px" y="0px"
	 viewBox="0 0 29.3 25.4" style="enable-background:new 0 0 29.3 25.4;" xml:space="preserve">
<style type="text/css">
	.st0{fill:url(#SVGID_1_);}
</style>
<linearGradient id="SVGID_1_" gradientUnits="userSpaceOnUse" x1="0.974" y1="26.3287" x2="25.4882" y2="1.8145">
	<stop  offset="0.1" style="stop-color:#2814FF"/>
	<stop  offset="0.1435" style="stop-color:#2324FF"/>
	<stop  offset="0.2998" style="stop-color:#145BFF"/>
	<stop  offset="0.4347" style="stop-color:#0983FF"/>
	<stop  offset="0.5417" style="stop-color:#029BFF"/>
	<stop  offset="0.6072" style="stop-color:#00A4FF"/>
	<stop  offset="0.6551" style="stop-color:#00ACCE"/>
	<stop  offset="0.7216" style="stop-color:#00B590"/>
	<stop  offset="0.7855" style="stop-color:#00BD5D"/>
	<stop  offset="0.8449" style="stop-color:#00C434"/>
	<stop  offset="0.8989" style="stop-color:#00C818"/>
	<stop  offset="0.9457" style="stop-color:#00CB06"/>
	<stop  offset="0.98" style="stop-color:#00CC00"/>
</linearGradient>
<path class="st0" d="M21.3,8.8c-0.2-0.3-0.4-0.5-0.8-0.6c-0.3-0.2-0.7-0.3-1.2-0.4V6.1c0.3,0.1,0.5,0.2,0.6,0.3
	c0.2,0.2,0.3,0.4,0.3,0.7l1.3,0c0-0.4-0.1-0.7-0.3-1c-0.2-0.3-0.4-0.5-0.8-0.7c-0.3-0.2-0.7-0.3-1.1-0.4V4.4h-0.8V5
	c-0.4,0-0.8,0.1-1.1,0.3c-0.3,0.2-0.6,0.4-0.8,0.7c-0.2,0.3-0.3,0.6-0.3,0.9c0,0.5,0.2,0.9,0.6,1.2c0.4,0.3,0.9,0.5,1.5,0.6v1.7
	c-0.3-0.1-0.5-0.2-0.7-0.4c-0.2-0.2-0.3-0.5-0.3-0.8h-1.2c0,0.7,0.2,1.2,0.7,1.6c0.4,0.4,1,0.6,1.6,0.7v0.7h0.8v-0.7
	c0.5,0,0.9-0.1,1.2-0.3c0.3-0.2,0.6-0.4,0.8-0.6c0.2-0.3,0.3-0.6,0.3-0.9C21.6,9.4,21.5,9.1,21.3,8.8z M18.6,7.6
	c-0.3-0.1-0.5-0.2-0.7-0.3c-0.2-0.1-0.2-0.3-0.2-0.5c0-0.1,0-0.3,0.1-0.4c0.1-0.1,0.2-0.2,0.3-0.3c0.1-0.1,0.3-0.1,0.5-0.1V7.6z
	 M20.1,10.3c-0.2,0.1-0.4,0.2-0.7,0.2V8.9C19.6,9,19.8,9.1,20,9.1c0.1,0.1,0.3,0.2,0.3,0.3c0.1,0.1,0.1,0.2,0.1,0.4
	C20.4,10,20.3,10.2,20.1,10.3z M4.7,18.7h19.6v2.5H4.7V18.7z M4.7,13.9v2.5h19.5v-2.5H4.7z M4.7,9.7h9.8V7.3H4.7V9.7z M23.7,0H0
	v25.4h29.3V5.6L23.7,0z M27,23.2H2.3v-21h20.3v4.5H27V23.2z"/>
</svg>
