<?xml version="1.0" encoding="utf-8"?>
<!-- Generator: Adobe Illustrator 27.2.0, SVG Export Plug-In . SVG Version: 6.00 Build 0)  -->
<svg version="1.1" id="Layer_1" xmlns="http://www.w3.org/2000/svg" xmlns:xlink="http://www.w3.org/1999/xlink" x="0px" y="0px"
	 viewBox="0 0 29 34.6" style="enable-background:new 0 0 29 34.6;" xml:space="preserve">
<style type="text/css">
	.st0{fill:url(#SVGID_1_);}
</style>
<linearGradient id="SVGID_1_" gradientUnits="userSpaceOnUse" x1="-0.2123" y1="6.5877" x2="24.29" y2="31.09" gradientTransform="matrix(1 0 0 -1 0 37.4)">
	<stop  offset="0.1" style="stop-color:#2814FF"/>
	<stop  offset="0.1435" style="stop-color:#2324FF"/>
	<stop  offset="0.2998" style="stop-color:#145BFF"/>
	<stop  offset="0.4347" style="stop-color:#0983FF"/>
	<stop  offset="0.5417" style="stop-color:#029BFF"/>
	<stop  offset="0.6072" style="stop-color:#00A4FF"/>
	<stop  offset="0.6551" style="stop-color:#00ACCE"/>
	<stop  offset="0.7216" style="stop-color:#00B590"/>
	<stop  offset="0.7855" style="stop-color:#00BD5D"/>
	<stop  offset="0.8449" style="stop-color:#00C434"/>
	<stop  offset="0.8989" style="stop-color:#00C818"/>
	<stop  offset="0.9457" style="stop-color:#00CB06"/>
	<stop  offset="0.98" style="stop-color:#00CC00"/>
</linearGradient>
<path class="st0" d="M18.9,30.4c0,0.4-0.4,0.9-0.9,0.9c-0.4,0-0.9-0.4-0.9-0.9s0.4-0.9,0.9-0.9C18.4,29.5,18.9,29.9,18.9,30.4z
	 M9,29.3h7.4v-1.9H9V29.3z M9,31.3h7.4v-1.7H9V31.3z M18,29.3c0.5,0,0.9-0.4,0.9-0.9c0-0.6-0.5-0.9-0.9-0.9c-0.4,0-0.9,0.2-0.9,0.9
	C17.1,28.8,17.5,29.3,18,29.3z M25.1,21.3l3.8,3.8l-3.8,3.8l-1.8-1.8l0.8-0.8h-1.9v8.3H3.5v-8.3H0v-2.5h3.6v-8.2H0v-2.5h3.6v-2.7
	l2.3,0.7v2h2.8l3.8,4.4l-1.7,1.9l-3.2-3.8H5.9v8.2h1.7l9.5-10.7h2.8V6.8h-7.6l0.5-2.5h9.5v8.8h1.8l-0.7-0.7l1.8-1.8l3.8,3.8
	l-3.8,3.8l-1.8-1.8l0.8-0.8h-1.9v8.2h1.8l-0.7-0.7L25.1,21.3z M18.2,15.6L8.7,26.3H5.9v5.8h14v-5.8h-2.8l-4-4.2l1.7-1.9l3.4,3.6h1.7
	v-8.2C19.9,15.6,18.2,15.6,18.2,15.6z M12,8.9l-0.7-0.6l-0.2,0.1c-0.5,0.2-0.8,0.6-1.1,1L9.9,9.5l0.5,0.8c0,0.1-0.1,0.2-0.1,0.3
	l-0.9,0.3v0.2c0,0.5,0.1,1,0.3,1.5l0.1,0.1l0.9-0.1c0.1,0.1,0.1,0.2,0.2,0.3l-0.1,0.9l0.1,0.1c0.4,0.3,0.9,0.4,1.4,0.5h0.2l0.4-0.8
	c0.1,0,0.2,0,0.4-0.1l0.7,0.6l0.2-0.1c0.5-0.2,0.8-0.6,1.1-1l0.1-0.1l-0.6-0.8c0-0.1,0.1-0.2,0.1-0.3l0.9-0.3v-0.2
	c0-0.5-0.1-1-0.3-1.5l-0.1-0.1l-0.9,0.1c-0.1-0.1-0.2-0.2-0.2-0.3l0.2-0.9l-0.1-0.1C14,8.2,13.5,8.1,13,8h-0.2l-0.4,0.8
	C12.2,8.8,12.1,8.9,12,8.9z M12,11c0.1-0.2,0.2-0.3,0.3-0.4c0.2-0.1,0.3-0.1,0.5,0s0.3,0.2,0.4,0.3c0.2,0.3,0,0.7-0.3,0.8h-0.1
	c-0.1,0-0.2,0-0.3,0c-0.2-0.1-0.3-0.2-0.4-0.3l0,0C12,11.3,12,11.2,12,11z M4.2,5c0,0.6,0.2,1.2,0.6,1.7c0.4,0.5,1,0.7,1.6,0.8
	c0.6,0,1.2-0.2,1.7-0.6c0.5-0.4,0.7-1,0.8-1.6c0-0.6-0.2-1.2-0.6-1.7c-0.4-0.5-1-0.7-1.6-0.8c-0.2,0-0.5,0-0.7,0.1
	C5,3.1,4.3,3.9,4.2,5z M5.3,5c0-0.3,0.2-0.6,0.4-0.9C6,3.9,6.3,3.8,6.6,3.8c0.7,0,1.2,0.6,1.2,1.3c0,0.3-0.2,0.6-0.4,0.9
	C7.2,6.1,7.1,6.2,6.9,6.3c-0.1,0-0.2,0-0.4,0c-0.3,0-0.6-0.2-0.9-0.4C5.4,5.7,5.2,5.4,5.3,5z M1.5,6.1l0.1,0.4
	C1.8,7.1,2,7.6,2.4,8.1l0.2,0.3L3.8,8l0.1,0.1L3.7,9.3L4,9.5c0.5,0.3,1.1,0.5,1.7,0.6l0.4,0.1l0.5-1.1c0.1,0,0.1,0,0.1,0l0.7,1
	L7.8,10c0.6-0.2,1.1-0.4,1.6-0.8L9.7,9L9.4,7.7l0.1-0.1l1.2,0.2l0.2-0.3c0.3-0.5,0.5-1.1,0.6-1.7l0.1-0.4l-1.1-0.5V4.8l1-0.7
	l-0.1-0.4c-0.2-0.6-0.4-1.1-0.8-1.6l-0.3-0.4L9.1,2.1L9,2l0.2-1.2L9,0.7C8.5,0.4,7.9,0.2,7.3,0.1L6.8,0L6.3,1.1H6.2l-0.7-1L5.1,0.2
	C4.5,0.4,4,0.6,3.5,1L3.2,1.2l0.4,1.2L3.5,2.5L2.3,2.3L2.1,2.6C1.8,3.2,1.6,3.8,1.5,4.4v0.4l1.1,0.5v0.1L1.5,6.1z M4.5,1.7
	c0.2-0.1,0.4-0.2,0.6-0.3l0.6,0.9l0.4-0.1c0.2,0,0.4-0.1,0.6,0h0.4l0.5-1C7.8,1.3,8,1.3,8.2,1.4L8,2.5l0.2,0.2
	C8.4,2.8,8.5,3,8.7,3.1l0.2,0.3l1-0.4c0.1,0.2,0.2,0.4,0.3,0.6L9.3,4.2l0.1,0.4c0,0.2,0.1,0.4,0,0.6v0.4l1,0.5
	c-0.1,0.2-0.1,0.4-0.2,0.6L9.1,6.5L8.9,6.7C8.8,6.9,8.6,7,8.5,7.2L8.2,7.4l0.4,1C8.4,8.5,8.2,8.6,8,8.7L7.4,7.8L7,7.9
	c-0.2,0-0.4,0.1-0.6,0H6l-0.5,1C5.3,8.8,5.1,8.8,4.9,8.7l0.2-1.1L4.8,7.4C4.6,7.3,4.5,7.1,4.3,7L4.1,6.7l-1,0.4
	C3,6.9,2.9,6.7,2.8,6.5l0.9-0.6L3.6,5.5c0-0.2-0.1-0.4,0-0.6V4.5L2.6,4c0.1-0.1,0.2-0.3,0.3-0.5l1,0.2l0.2-0.3
	c0.1-0.2,0.3-0.3,0.4-0.5l0.3-0.2L4.5,1.7z"/>
</svg>
