<?xml version="1.0" encoding="iso-8859-1"?>
<!-- Generator: Adobe Illustrator 26.4.1, SVG Export Plug-In . SVG Version: 6.00 Build 0)  -->
<svg version="1.1" id="Gradient" xmlns="http://www.w3.org/2000/svg" xmlns:xlink="http://www.w3.org/1999/xlink" x="0px" y="0px"
	 viewBox="0 0 80 86.22" style="enable-background:new 0 0 80 86.22;" xml:space="preserve">
<g>
	
		<linearGradient id="SVGID_1_" gradientUnits="userSpaceOnUse" x1="28.0758" y1="727.3543" x2="55.6836" y2="699.7464" gradientTransform="matrix(1 0 0 1 0 -666)">
		<stop  offset="0" style="stop-color:#2814FF"/>
		<stop  offset="0.5901" style="stop-color:#00A5FF"/>
		<stop  offset="1" style="stop-color:#00CD00"/>
	</linearGradient>
	<path style="fill:url(#SVGID_1_);" d="M56.9,54.658c-0.86-3.09-2.877-5.663-5.68-7.245c-1.154-0.651-2.392-1.05-3.654-1.295
		l-0.052-5.447c1.713-0.593,3.149-1.748,4.049-3.34c0.979-1.735,1.223-3.745,0.689-5.658c-1.099-3.953-5.217-6.278-9.163-5.174
		c-1.921,0.53-3.514,1.778-4.488,3.511c-0.902,1.595-1.15,3.422-0.77,5.196l-8.066,4.761c-0.457-0.418-0.949-0.801-1.502-1.114
		c-1.911-1.078-4.117-1.349-6.212-0.759c-2.1,0.582-3.848,1.952-4.924,3.857c-1.074,1.906-1.345,4.111-0.761,6.211
		c0.983,3.522,4.223,5.983,7.88,5.983c0.739,0,1.476-0.1,2.189-0.299c1.311-0.365,2.458-1.064,3.416-1.979l4.026,2.273
		c-0.737,2.235-0.799,4.641-0.153,6.965c0.864,3.098,2.879,5.673,5.675,7.249c1.803,1.02,3.842,1.559,5.896,1.559
		c1.096,0,2.188-0.15,3.243-0.447c3.094-0.857,5.668-2.872,7.246-5.671C57.365,60.998,57.762,57.753,56.9,54.658z M32.182,47.75
		c0.274-1.213,0.282-2.468-0.018-3.703l8.044-4.749c0.371,0.32,0.775,0.606,1.21,0.852c0.431,0.243,0.897,0.401,1.364,0.554
		l0.053,5.457c-0.248,0.053-0.501,0.063-0.747,0.131c-2.319,0.645-4.347,1.939-5.881,3.725L32.182,47.75z M43.048,32.52
		L43.048,32.52c0.304-0.543,0.803-0.934,1.408-1.101c0.203-0.056,0.411-0.085,0.624-0.085c1.046,0,1.972,0.702,2.251,1.707
		c0.167,0.604,0.09,1.237-0.216,1.779c-0.306,0.543-0.806,0.934-1.405,1.099c-0.607,0.165-1.238,0.089-1.779-0.214
		c-0.542-0.305-0.933-0.806-1.099-1.41C42.663,33.693,42.74,33.064,43.048,32.52z M25.065,48.926
		c-0.789,0.216-1.618,0.117-2.331-0.286c-0.715-0.404-1.23-1.061-1.451-1.849c-0.217-0.788-0.116-1.614,0.288-2.328
		s1.06-1.227,1.845-1.446c0.281-0.078,0.558-0.117,0.823-0.117c1.372,0,2.588,0.924,2.957,2.248
		C27.65,46.777,26.694,48.47,25.065,48.926z M51.338,61.282c-0.911,1.609-2.392,2.768-4.173,3.265
		c-1.78,0.492-3.645,0.266-5.254-0.645c-1.612-0.91-2.77-2.388-3.265-4.165c-1.022-3.675,1.137-7.499,4.811-8.524
		c0.612-0.17,1.234-0.255,1.852-0.255c3.096,0,5.839,2.084,6.669,5.067C52.474,57.804,52.246,59.671,51.338,61.282z"/>
	
		<linearGradient id="SVGID_00000083051637685307861860000017312055187849813134_" gradientUnits="userSpaceOnUse" x1="11.6997" y1="740.5225" x2="68.2812" y2="683.941" gradientTransform="matrix(1 0 0 1 0 -666)">
		<stop  offset="0" style="stop-color:#2814FF"/>
		<stop  offset="0.5901" style="stop-color:#00A5FF"/>
		<stop  offset="1" style="stop-color:#00CD00"/>
	</linearGradient>
	<path style="fill:url(#SVGID_00000083051637685307861860000017312055187849813134_);" d="M80,46.231
		c0,10.689-4.161,20.736-11.719,28.291C60.738,82.065,50.69,86.22,39.99,86.22s-20.748-4.155-28.291-11.698
		c-15.599-15.599-15.599-40.981,0-56.58c4.725-4.728,10.613-8.216,17.023-10.089l1.431-0.415l2.604,6.431l-1.773,0.497
		c-5.451,1.53-10.44,4.445-14.428,8.433c-12.921,12.921-12.921,33.944,0,46.865c12.921,12.918,33.941,12.918,46.868,0
		c6.259-6.259,9.708-14.58,9.708-23.434c0-8.851-3.45-17.173-9.708-23.431c-4.07-4.064-9.144-6.99-14.735-8.5l2.13,3.066
		l-5.65,3.927L36.546,8.886L48.765,0l4.05,5.565l-2.753,2.001c6.902,1.779,13.208,5.366,18.22,10.376
		C75.839,25.497,80,35.545,80,46.231z"/>
</g>
</svg>
