<?xml version="1.0" encoding="UTF-8"?><svg id="b" xmlns="http://www.w3.org/2000/svg" viewBox="0 0 39.545 24.978"><defs><style>.d{fill:#ffec00;}.e{fill:#e00000;}</style></defs><g id="c"><g><rect class="e" width="39.545" height="24.978"/><polygon class="d" points="9.893 6.516 6.888 6.516 5.992 3.635 5.096 6.516 2.092 6.516 4.435 8.239 3.553 11.147 5.992 9.383 8.432 11.147 7.55 8.239 9.893 6.516"/><polygon class="d" points="14.247 3.772 13.317 3.378 13.418 2.369 12.763 3.143 11.833 2.749 12.332 3.59 11.678 4.374 12.664 4.148 13.188 5.013 13.296 3.998 14.247 3.772"/><polygon class="d" points="16.874 7.041 16.165 6.322 16.642 5.428 15.742 5.894 15.033 5.175 15.174 6.142 14.27 6.618 15.268 6.785 15.422 7.785 15.909 6.887 16.874 7.041"/><polygon class="d" points="14.248 13.368 13.303 13.012 13.363 12 12.74 12.799 11.795 12.443 12.328 13.263 11.705 14.072 12.682 13.807 13.24 14.651 13.307 13.632 14.248 13.368"/><polygon class="d" points="16.488 11.625 16.138 10.678 16.941 10.06 15.929 10.113 15.579 9.166 15.309 10.105 14.29 10.166 15.13 10.73 14.858 11.704 15.672 11.087 16.488 11.625"/></g></g></svg>