<?xml version="1.0" encoding="utf-8"?>
<!-- Generator: Adobe Illustrator 26.2.1, SVG Export Plug-In . SVG Version: 6.00 Build 0)  -->
<svg version="1.1" xmlns="http://www.w3.org/2000/svg" xmlns:xlink="http://www.w3.org/1999/xlink" x="0px" y="0px"
	 viewBox="0 0 900 600" style="enable-background:new 0 0 900 600;" xml:space="preserve">
<style type="text/css">
	.st0{fill:#E30A17;}
	.st1{fill:#FFFFFF;}
</style>
<g id="Layer_2">
	<rect class="st0" width="900" height="600"/>
</g>
<g id="Layer_3">
	<path class="st1" d="M216,300c0-65.72,54.62-119,122-119c33.89,0,64.55,13.48,86.66,35.24c-26.87-39.9-72.46-66.15-124.18-66.15
		c-82.63,0-149.62,66.99-149.62,149.62c0,82.63,66.99,149.62,149.62,149.62c50.98,0,95.99-25.5,123.01-64.44
		C401.47,405.99,371.29,419,338,419C270.62,419,216,365.72,216,300z"/>
	<polygon class="st1" points="555,345 501.38,327.75 469.75,372.11 469.25,316.25 420,299.72 469.75,284 470.12,227.89 501,273 
		554,256 522.38,299.38 	"/>
</g>
</svg>
