<?xml version="1.0" encoding="utf-8"?>
<!-- Generator: Adobe Illustrator 26.2.1, SVG Export Plug-In . SVG Version: 6.00 Build 0)  -->
<svg version="1.1" id="Layer_1" xmlns="http://www.w3.org/2000/svg" xmlns:xlink="http://www.w3.org/1999/xlink" x="0px" y="0px"
	 viewBox="0 0 1900 1000" style="enable-background:new 0 0 1900 1000;" xml:space="preserve">
<style type="text/css">
	.st0{clip-path:url(#SVGID_00000010291227337768375060000010201237745497640323_);}
	.st1{fill:#B12332;}
	.st2{fill:#FFFFFF;}
	.st3{fill:#002664;}
</style>
<g>
	<defs>
		<rect id="SVGID_1_" width="1900" height="1000"/>
	</defs>
	<clipPath id="SVGID_00000037653908771963886530000016331534150248984727_">
		<use xlink:href="#SVGID_1_"  style="overflow:visible;"/>
	</clipPath>
	<g style="clip-path:url(#SVGID_00000037653908771963886530000016331534150248984727_);">
		<g>
			<g>
				<rect y="923.06" class="st1" width="1900" height="76.92"/>
			</g>
			<g>
				<rect y="846.14" class="st2" width="1900" height="76.92"/>
			</g>
			<g>
				<rect y="769.22" class="st1" width="1900" height="76.92"/>
			</g>
			<g>
				<rect y="692.3" class="st2" width="1900" height="76.92"/>
			</g>
			<g>
				<rect y="615.38" class="st1" width="1900" height="76.92"/>
			</g>
			<g>
				<rect y="538.46" class="st2" width="1900" height="76.92"/>
			</g>
			<g>
				<rect y="461.54" class="st1" width="1900" height="76.92"/>
			</g>
			<g>
				<rect y="384.62" class="st2" width="1900" height="76.92"/>
			</g>
			<g>
				<rect y="307.7" class="st1" width="1900" height="76.92"/>
			</g>
			<g>
				<rect y="230.78" class="st2" width="1900" height="76.92"/>
			</g>
			<g>
				<rect y="153.86" class="st1" width="1900" height="76.92"/>
			</g>
			<g>
				<rect y="76.94" class="st2" width="1900" height="76.92"/>
			</g>
			<g>
				<rect y="0.02" class="st1" width="1900" height="76.92"/>
			</g>
		</g>
		<g>
			<rect class="st3" width="760" height="538.44"/>
			<g>
				<g>
					<polygon class="st2" points="692.03,483.79 698.67,461.8 706.45,483.41 729.41,482.93 711.26,497 718.81,518.69 699.82,505.78 
						681.53,519.67 687.94,497.61 669.08,484.51 					"/>
				</g>
				<g>
					<polygon class="st2" points="692.03,372.54 698.67,350.55 706.45,372.16 729.41,371.67 711.26,385.75 718.81,407.44 
						699.82,394.52 681.53,408.41 687.94,386.36 669.08,373.25 					"/>
				</g>
				<g>
					<polygon class="st2" points="692.03,261.28 698.67,239.3 706.45,260.91 729.41,260.42 711.26,274.5 718.81,296.18 
						699.82,283.27 681.53,297.16 687.94,275.11 669.08,262 					"/>
				</g>
				<g>
					<polygon class="st2" points="692.03,150.03 698.67,128.04 706.45,149.65 729.41,149.17 711.26,163.24 718.81,184.93 
						699.82,172.02 681.53,185.91 687.94,163.85 669.08,150.75 					"/>
				</g>
				<g>
					<polygon class="st2" points="692.03,38.78 698.67,16.79 706.45,38.4 729.41,37.92 711.26,51.99 718.81,73.68 699.82,60.77 
						681.53,74.65 687.94,52.6 669.08,39.5 					"/>
				</g>
				<g>
					<g>
						<polygon class="st2" points="563.68,483.79 570.32,461.8 578.09,483.41 601.05,482.93 582.9,497 590.46,518.69 571.47,505.78 
							553.18,519.67 559.59,497.61 540.73,484.51 						"/>
					</g>
					<g>
						<polygon class="st2" points="643,428.16 636.36,406.18 628.58,427.79 605.62,427.3 623.77,441.38 616.22,463.06 
							635.21,450.15 653.5,464.04 647.09,441.99 665.95,428.88 						"/>
					</g>
					<g>
						<polygon class="st2" points="563.68,372.54 570.32,350.55 578.09,372.16 601.05,371.67 582.9,385.75 590.46,407.44 
							571.47,394.52 553.18,408.41 559.59,386.36 540.73,373.25 						"/>
					</g>
					<g>
						<polygon class="st2" points="643,316.91 636.36,294.92 628.58,316.53 605.62,316.05 623.77,330.12 616.22,351.81 
							635.21,338.9 653.5,352.79 647.09,330.73 665.95,317.63 						"/>
					</g>
					<g>
						<polygon class="st2" points="563.68,261.28 570.32,239.3 578.09,260.91 601.05,260.42 582.9,274.5 590.46,296.18 
							571.47,283.27 553.18,297.16 559.59,275.11 540.73,262 						"/>
					</g>
					<g>
						<polygon class="st2" points="643,205.66 636.36,183.67 628.58,205.28 605.62,204.8 623.77,218.87 616.22,240.56 
							635.21,227.65 653.5,241.53 647.09,219.48 665.95,206.38 						"/>
					</g>
					<g>
						<polygon class="st2" points="563.68,150.03 570.32,128.04 578.09,149.65 601.05,149.17 582.9,163.24 590.46,184.93 
							571.47,172.02 553.18,185.91 559.59,163.85 540.73,150.75 						"/>
					</g>
					<g>
						<polygon class="st2" points="643,94.4 636.36,72.42 628.58,94.03 605.62,93.54 623.77,107.62 616.22,129.3 635.21,116.39 
							653.5,130.28 647.09,108.23 665.95,95.12 						"/>
					</g>
					<g>
						<polygon class="st2" points="563.68,38.78 570.32,16.79 578.09,38.4 601.05,37.92 582.9,51.99 590.46,73.68 571.47,60.77 
							553.18,74.65 559.59,52.6 540.73,39.5 						"/>
					</g>
				</g>
				<g>
					<g>
						<polygon class="st2" points="435.33,483.79 441.96,461.8 449.74,483.41 472.7,482.93 454.55,497 462.11,518.69 443.11,505.78 
							424.82,519.67 431.23,497.61 412.37,484.51 						"/>
					</g>
					<g>
						<polygon class="st2" points="514.64,428.16 508.01,406.18 500.23,427.79 477.27,427.3 495.42,441.38 487.86,463.06 
							506.86,450.15 525.15,464.04 518.74,441.99 537.6,428.88 						"/>
					</g>
					<g>
						<polygon class="st2" points="435.33,372.54 441.96,350.55 449.74,372.16 472.7,371.67 454.55,385.75 462.11,407.44 
							443.11,394.52 424.82,408.41 431.23,386.36 412.37,373.25 						"/>
					</g>
					<g>
						<polygon class="st2" points="514.64,316.91 508.01,294.92 500.23,316.53 477.27,316.05 495.42,330.12 487.86,351.81 
							506.86,338.9 525.15,352.79 518.74,330.73 537.6,317.63 						"/>
					</g>
					<g>
						<polygon class="st2" points="435.33,261.28 441.96,239.3 449.74,260.91 472.7,260.42 454.55,274.5 462.11,296.18 
							443.11,283.27 424.82,297.16 431.23,275.11 412.37,262 						"/>
					</g>
					<g>
						<polygon class="st2" points="514.64,205.66 508.01,183.67 500.23,205.28 477.27,204.8 495.42,218.87 487.86,240.56 
							506.86,227.65 525.15,241.53 518.74,219.48 537.6,206.38 						"/>
					</g>
					<g>
						<polygon class="st2" points="435.33,150.03 441.96,128.04 449.74,149.65 472.7,149.17 454.55,163.24 462.11,184.93 
							443.11,172.02 424.82,185.91 431.23,163.85 412.37,150.75 						"/>
					</g>
					<g>
						<polygon class="st2" points="514.64,94.4 508.01,72.42 500.23,94.03 477.27,93.54 495.42,107.62 487.86,129.3 506.86,116.39 
							525.15,130.28 518.74,108.23 537.6,95.12 						"/>
					</g>
					<g>
						<polygon class="st2" points="435.33,38.78 441.96,16.79 449.74,38.4 472.7,37.92 454.55,51.99 462.11,73.68 443.11,60.77 
							424.82,74.65 431.23,52.6 412.37,39.5 						"/>
					</g>
				</g>
				<g>
					<g>
						<polygon class="st2" points="306.97,483.79 313.61,461.8 321.39,483.41 344.35,482.93 326.2,497 333.75,518.69 314.76,505.78 
							296.47,519.67 302.88,497.61 284.02,484.51 						"/>
					</g>
					<g>
						<polygon class="st2" points="386.29,428.16 379.65,406.18 371.88,427.79 348.92,427.3 367.07,441.38 359.51,463.06 
							378.5,450.15 396.8,464.04 390.38,441.99 409.25,428.88 						"/>
					</g>
					<g>
						<polygon class="st2" points="306.97,372.54 313.61,350.55 321.39,372.16 344.35,371.67 326.2,385.75 333.75,407.44 
							314.76,394.52 296.47,408.41 302.88,386.36 284.02,373.25 						"/>
					</g>
					<g>
						<polygon class="st2" points="386.29,316.91 379.65,294.92 371.88,316.53 348.92,316.05 367.07,330.12 359.51,351.81 
							378.5,338.9 396.8,352.79 390.38,330.73 409.25,317.63 						"/>
					</g>
					<g>
						<polygon class="st2" points="306.97,261.28 313.61,239.3 321.39,260.91 344.35,260.42 326.2,274.5 333.75,296.18 
							314.76,283.27 296.47,297.16 302.88,275.11 284.02,262 						"/>
					</g>
					<g>
						<polygon class="st2" points="386.29,205.66 379.65,183.67 371.88,205.28 348.92,204.8 367.07,218.87 359.51,240.56 
							378.5,227.65 396.8,241.53 390.38,219.48 409.25,206.38 						"/>
					</g>
					<g>
						<polygon class="st2" points="306.97,150.03 313.61,128.04 321.39,149.65 344.35,149.17 326.2,163.24 333.75,184.93 
							314.76,172.02 296.47,185.91 302.88,163.85 284.02,150.75 						"/>
					</g>
					<g>
						<polygon class="st2" points="386.29,94.4 379.65,72.42 371.88,94.03 348.92,93.54 367.07,107.62 359.51,129.3 378.5,116.39 
							396.8,130.28 390.38,108.23 409.25,95.12 						"/>
					</g>
					<g>
						<polygon class="st2" points="306.97,38.78 313.61,16.79 321.39,38.4 344.35,37.92 326.2,51.99 333.75,73.68 314.76,60.77 
							296.47,74.65 302.88,52.6 284.02,39.5 						"/>
					</g>
				</g>
				<g>
					<g>
						<polygon class="st2" points="178.62,483.79 185.26,461.8 193.03,483.41 215.99,482.93 197.85,497 205.4,518.69 186.41,505.78 
							168.12,519.67 174.53,497.61 155.67,484.51 						"/>
					</g>
					<g>
						<polygon class="st2" points="257.94,428.16 251.3,406.18 243.53,427.79 220.56,427.3 238.71,441.38 231.16,463.06 
							250.15,450.15 268.44,464.04 262.03,441.99 280.89,428.88 						"/>
					</g>
					<g>
						<polygon class="st2" points="178.62,372.54 185.26,350.55 193.03,372.16 215.99,371.67 197.85,385.75 205.4,407.44 
							186.41,394.52 168.12,408.41 174.53,386.36 155.67,373.25 						"/>
					</g>
					<g>
						<polygon class="st2" points="257.94,316.91 251.3,294.92 243.53,316.53 220.56,316.05 238.71,330.12 231.16,351.81 
							250.15,338.9 268.44,352.79 262.03,330.73 280.89,317.63 						"/>
					</g>
					<g>
						<polygon class="st2" points="178.62,261.28 185.26,239.3 193.03,260.91 215.99,260.42 197.85,274.5 205.4,296.18 
							186.41,283.27 168.12,297.16 174.53,275.11 155.67,262 						"/>
					</g>
					<g>
						<polygon class="st2" points="257.94,205.66 251.3,183.67 243.53,205.28 220.56,204.8 238.71,218.87 231.16,240.56 
							250.15,227.65 268.44,241.53 262.03,219.48 280.89,206.38 						"/>
					</g>
					<g>
						<polygon class="st2" points="178.62,150.03 185.26,128.04 193.03,149.65 215.99,149.17 197.85,163.24 205.4,184.93 
							186.41,172.02 168.12,185.91 174.53,163.85 155.67,150.75 						"/>
					</g>
					<g>
						<polygon class="st2" points="257.94,94.4 251.3,72.42 243.53,94.03 220.56,93.54 238.71,107.62 231.16,129.3 250.15,116.39 
							268.44,130.28 262.03,108.23 280.89,95.12 						"/>
					</g>
					<g>
						<polygon class="st2" points="178.62,38.78 185.26,16.79 193.03,38.4 215.99,37.92 197.85,51.99 205.4,73.68 186.41,60.77 
							168.12,74.65 174.53,52.6 155.67,39.5 						"/>
					</g>
				</g>
				<g>
					<g>
						<polygon class="st2" points="50.27,483.79 56.9,461.8 64.68,483.41 87.64,482.93 69.49,497 77.05,518.69 58.05,505.78 
							39.76,519.67 46.17,497.61 27.31,484.51 						"/>
					</g>
					<g>
						<polygon class="st2" points="129.58,428.16 122.95,406.18 115.17,427.79 92.21,427.3 110.36,441.38 102.8,463.06 
							121.8,450.15 140.09,464.04 133.68,441.99 152.54,428.88 						"/>
					</g>
					<g>
						<polygon class="st2" points="50.27,372.54 56.9,350.55 64.68,372.16 87.64,371.67 69.49,385.75 77.05,407.44 58.05,394.52 
							39.76,408.41 46.17,386.36 27.31,373.25 						"/>
					</g>
					<g>
						<polygon class="st2" points="129.58,316.91 122.95,294.92 115.17,316.53 92.21,316.05 110.36,330.12 102.8,351.81 
							121.8,338.9 140.09,352.79 133.68,330.73 152.54,317.63 						"/>
					</g>
					<g>
						<polygon class="st2" points="50.27,261.28 56.9,239.3 64.68,260.91 87.64,260.42 69.49,274.5 77.05,296.18 58.05,283.27 
							39.76,297.16 46.17,275.11 27.31,262 						"/>
					</g>
					<g>
						<polygon class="st2" points="129.58,205.66 122.95,183.67 115.17,205.28 92.21,204.8 110.36,218.87 102.8,240.56 
							121.8,227.65 140.09,241.53 133.68,219.48 152.54,206.38 						"/>
					</g>
					<g>
						<polygon class="st2" points="50.27,150.03 56.9,128.04 64.68,149.65 87.64,149.17 69.49,163.24 77.05,184.93 58.05,172.02 
							39.76,185.91 46.17,163.85 27.31,150.75 						"/>
					</g>
					<g>
						<polygon class="st2" points="129.58,94.4 122.95,72.42 115.17,94.03 92.21,93.54 110.36,107.62 102.8,129.3 121.8,116.39 
							140.09,130.28 133.68,108.23 152.54,95.12 						"/>
					</g>
					<g>
						<polygon class="st2" points="50.27,38.78 56.9,16.79 64.68,38.4 87.64,37.92 69.49,51.99 77.05,73.68 58.05,60.77 
							39.76,74.65 46.17,52.6 27.31,39.5 						"/>
					</g>
				</g>
			</g>
		</g>
	</g>
</g>
<g>
</g>
<g>
</g>
<g>
</g>
<g>
</g>
<g>
</g>
<g>
</g>
<g>
</g>
<g>
</g>
<g>
</g>
<g>
</g>
<g>
</g>
<g>
</g>
<g>
</g>
<g>
</g>
<g>
</g>
</svg>
